<?xml version="1.0" encoding="utf-8"?>
<!-- Generator: Adobe Illustrator 22.0.0, SVG Export Plug-In . SVG Version: 6.00 Build 0)  -->
<svg version="1.1" id="MARKET_RESEARCH_ICON_SET" xmlns="http://www.w3.org/2000/svg" xmlns:xlink="http://www.w3.org/1999/xlink"
	 x="0px" y="0px" viewBox="0 0 128 128" style="enable-background:new 0 0 128 128;" xml:space="preserve">
<style type="text/css">
	.st0{fill:#C2D5EC;}
	.st1{fill:#61E1FF;}
	.st2{fill:#7184AF;}
	.st3{fill:#F8F8F8;}
	.st4{fill:#3F4D81;}
	.st5{fill:#3F4D80;}
	.st6{fill:#E9EAEB;}
	.st7{fill:#F79559;}
	.st8{fill:#FFA85A;}
</style>
<g>
	<g>
		<g>
			<rect y="50.718" class="st0" width="128" height="55.205"/>
		</g>
		<g>
			<path class="st4" d="M10,50.718v45.349c0,2.361,1.916,4.275,4.279,4.275h107.442c2.363,0,4.279-1.914,4.279-4.275V50.718H10z"/>
		</g>
		<g>
			<path class="st4" d="M10,50.718v45.349c0,2.361,1.916,4.275,4.279,4.275h107.442c2.363,0,4.279-1.914,4.279-4.275V50.718H10z"/>
		</g>
		<g>
			<path class="st6" d="M117.721,95.347H10.279C7.916,95.347,6,93.433,6,91.071V15.776c0-2.361,1.916-4.276,4.279-4.276h107.442
				c2.363,0,4.279,1.914,4.279,4.276v75.296C122,93.433,120.084,95.347,117.721,95.347z"/>
		</g>
		<g>
			<path class="st2" d="M60.422,74.194c-11.673,0-21.17,9.489-21.17,21.153c0,11.664,9.497,21.153,21.17,21.153
				s21.17-9.489,21.17-21.153h-21.17V74.194z"/>
		</g>
		<g>
			<path class="st3" d="M10,95.068V17.039c0-0.852,0.691-1.542,1.543-1.542h110.178c0.087,0,0.168,0.02,0.253,0.026
				c-0.134-2.241-1.977-4.022-4.253-4.022H10.279C7.916,11.5,6,13.414,6,15.776v75.296c0,2.275,1.783,4.116,4.026,4.25
				C10.02,95.236,10,95.155,10,95.068z"/>
		</g>
		<g>
			<path class="st0" d="M42.252,98.344c0-10.644,7.916-19.452,18.17-20.915v-3.235c-11.673,0-21.17,9.49-21.17,21.153
				c0,6.594,3.038,12.489,7.785,16.372C44.05,108.071,42.252,103.414,42.252,98.344z"/>
		</g>
		<g>
			<path class="st8" d="M85.639,87.67c-2.554-8.361-9.167-14.968-17.535-17.521c-1.244-0.38-2.527-0.669-3.841-0.861v3.89v18.331
				h18.345h3.893C86.309,90.195,86.019,88.914,85.639,87.67z M68.105,87.67V74.194c6.248,2.273,11.213,7.234,13.487,13.477H68.105z"
				/>
		</g>
		<g>
			<path class="st1" d="M22.093,32.845h-2.046c-2.209,0-4-1.789-4-3.997v-2.045c0-2.207,1.791-3.997,4-3.997h2.046
				c2.209,0,4,1.789,4,3.997v2.045C26.093,31.056,24.302,32.845,22.093,32.845z"/>
		</g>
		<g>
			<path class="st3" d="M22.093,49.559h-2.046c-2.209,0-4-1.789-4-3.997v-2.045c0-2.207,1.791-3.997,4-3.997h2.046
				c2.209,0,4,1.789,4,3.997v2.045C26.093,47.77,24.302,49.559,22.093,49.559z"/>
		</g>
		<g>
			<g>
				<rect x="81.592" y="40.68" class="st8" width="7.727" height="7.721"/>
			</g>
			<g>
				<rect x="104.227" y="40.68" class="st8" width="7.727" height="7.721"/>
			</g>
			<g>
				<rect x="92.909" y="40.68" class="st1" width="7.727" height="7.721"/>
			</g>
			<g>
				<rect x="81.592" y="54.395" class="st1" width="7.727" height="7.721"/>
			</g>
			<g>
				<rect x="104.227" y="54.395" class="st1" width="7.727" height="7.721"/>
			</g>
			<g>
				<rect x="92.909" y="54.395" class="st8" width="7.727" height="7.721"/>
			</g>
			<g>
				<rect x="81.592" y="26.965" class="st1" width="7.727" height="7.721"/>
			</g>
			<g>
				<rect x="104.227" y="26.965" class="st1" width="7.727" height="7.721"/>
			</g>
			<g>
				<rect x="92.909" y="26.965" class="st8" width="7.727" height="7.721"/>
			</g>
		</g>
		<g>
			<path class="st1" d="M22.093,66.273h-2.046c-2.209,0-4-1.789-4-3.997v-2.045c0-2.207,1.791-3.997,4-3.997h2.046
				c2.209,0,4,1.789,4,3.997v2.045C26.093,64.484,24.302,66.273,22.093,66.273z"/>
		</g>
	</g>
	<g>
		<g>
			<g>
				<g>
					<path class="st5" d="M60.422,117.5c-12.225,0-22.17-9.938-22.17-22.153s9.945-22.153,22.17-22.153c0.552,0,1,0.448,1,1v20.153
						h20.17c0.552,0,1,0.448,1,1C82.592,107.562,72.646,117.5,60.422,117.5z M59.422,75.218c-10.659,0.522-19.17,9.351-19.17,20.128
						c0,11.113,9.048,20.153,20.17,20.153c10.787,0,19.623-8.503,20.146-19.153H60.422c-0.552,0-1-0.448-1-1V75.218z"/>
				</g>
			</g>
			<g>
				<g>
					<path class="st5" d="M86.501,92.509H64.263c-0.552,0-1-0.448-1-1V69.288c0-0.291,0.126-0.567,0.346-0.757
						c0.22-0.19,0.511-0.277,0.799-0.232c1.348,0.198,2.689,0.499,3.988,0.895c8.731,2.663,15.535,9.461,18.2,18.185
						c0.396,1.296,0.697,2.637,0.895,3.985c0.042,0.288-0.042,0.58-0.232,0.799S86.792,92.509,86.501,92.509z M65.263,90.509h20.054
						c-0.167-0.861-0.379-1.713-0.634-2.546c0,0,0,0,0,0c-2.47-8.086-8.776-14.388-16.87-16.856
						c-0.834-0.254-1.688-0.467-2.55-0.634V90.509z M81.592,88.67H68.104c-0.552,0-1-0.448-1-1V74.194
						c0-0.326,0.159-0.632,0.426-0.819c0.267-0.188,0.61-0.232,0.916-0.121c6.562,2.387,11.696,7.517,14.085,14.074
						c0.112,0.307,0.067,0.648-0.12,0.916C82.225,88.511,81.918,88.67,81.592,88.67z M69.104,86.67h11.008
						c-2.172-4.917-6.086-8.828-11.008-10.998V86.67z"/>
				</g>
			</g>
		</g>
		<g>
			<g>
				<path class="st5" d="M117.721,96.347H60.422c-0.552,0-1-0.448-1-1V75.218c-10.659,0.522-19.17,9.351-19.17,20.128
					c0,0.552-0.448,1-1,1H10.279C7.368,96.347,5,93.98,5,91.071V15.775c0-2.909,2.368-5.275,5.279-5.275h107.442
					c2.911,0,5.279,2.367,5.279,5.275v75.296C123,93.98,120.632,96.347,117.721,96.347z M61.422,94.347h56.299
					c1.808,0,3.279-1.469,3.279-3.275V15.775c0-1.806-1.471-3.275-3.279-3.275H10.279C8.471,12.5,7,13.969,7,15.775v75.296
					c0,1.806,1.471,3.275,3.279,3.275h27.996c0.524-11.753,10.258-21.153,22.147-21.153c0.552,0,1,0.448,1,1V94.347z"/>
			</g>
		</g>
		<g>
			<g>
				<path class="st5" d="M22.093,33.846h-2.046c-2.757,0-5-2.242-5-4.997v-2.045c0-2.755,2.243-4.997,5-4.997h2.046
					c2.757,0,5,2.241,5,4.997v2.045C27.093,31.604,24.85,33.846,22.093,33.846z M20.046,23.807c-1.654,0-3,1.344-3,2.997v2.045
					c0,1.653,1.346,2.997,3,2.997h2.046c1.654,0,3-1.344,3-2.997v-2.045c0-1.652-1.346-2.997-3-2.997H20.046z"/>
			</g>
		</g>
		<g>
			<g>
				<path class="st5" d="M22.093,50.56h-2.046c-2.757,0-5-2.242-5-4.997v-2.044c0-2.755,2.243-4.997,5-4.997h2.046
					c2.757,0,5,2.242,5,4.997v2.044C27.093,48.318,24.85,50.56,22.093,50.56z M20.046,40.521c-1.654,0-3,1.345-3,2.997v2.044
					c0,1.653,1.346,2.997,3,2.997h2.046c1.654,0,3-1.344,3-2.997v-2.044c0-1.652-1.346-2.997-3-2.997H20.046z"/>
			</g>
		</g>
		<g>
			<g>
				<path class="st5" d="M89.319,49.4h-7.727c-0.552,0-1-0.448-1-1v-7.72c0-0.552,0.448-1,1-1h7.727c0.552,0,1,0.448,1,1v7.72
					C90.319,48.953,89.871,49.4,89.319,49.4z M82.592,47.4h5.727v-5.72h-5.727V47.4z"/>
			</g>
		</g>
		<g>
			<g>
				<path class="st5" d="M111.954,49.4h-7.727c-0.552,0-1-0.448-1-1v-7.72c0-0.552,0.448-1,1-1h7.727c0.552,0,1,0.448,1,1v7.72
					C112.954,48.953,112.506,49.4,111.954,49.4z M105.227,47.4h5.727v-5.72h-5.727V47.4z"/>
			</g>
		</g>
		<g>
			<g>
				<path class="st5" d="M100.636,49.4h-7.727c-0.552,0-1-0.448-1-1v-7.72c0-0.552,0.448-1,1-1h7.727c0.552,0,1,0.448,1,1v7.72
					C101.636,48.953,101.188,49.4,100.636,49.4z M93.909,47.4h5.727v-5.72h-5.727V47.4z"/>
			</g>
		</g>
		<g>
			<g>
				<path class="st5" d="M89.319,63.116h-7.727c-0.552,0-1-0.448-1-1v-7.721c0-0.552,0.448-1,1-1h7.727c0.552,0,1,0.448,1,1v7.721
					C90.319,62.668,89.871,63.116,89.319,63.116z M82.592,61.116h5.727v-5.721h-5.727V61.116z"/>
			</g>
		</g>
		<g>
			<g>
				<path class="st5" d="M111.954,63.116h-7.727c-0.552,0-1-0.448-1-1v-7.721c0-0.552,0.448-1,1-1h7.727c0.552,0,1,0.448,1,1v7.721
					C112.954,62.668,112.506,63.116,111.954,63.116z M105.227,61.116h5.727v-5.721h-5.727V61.116z"/>
			</g>
		</g>
		<g>
			<g>
				<path class="st5" d="M100.636,63.116h-7.727c-0.552,0-1-0.448-1-1v-7.721c0-0.552,0.448-1,1-1h7.727c0.552,0,1,0.448,1,1v7.721
					C101.636,62.668,101.188,63.116,100.636,63.116z M93.909,61.116h5.727v-5.721h-5.727V61.116z"/>
			</g>
		</g>
		<g>
			<g>
				<path class="st5" d="M89.319,35.686h-7.727c-0.552,0-1-0.448-1-1v-7.721c0-0.552,0.448-1,1-1h7.727c0.552,0,1,0.448,1,1v7.721
					C90.319,35.238,89.871,35.686,89.319,35.686z M82.592,33.686h5.727v-5.721h-5.727V33.686z"/>
			</g>
		</g>
		<g>
			<g>
				<path class="st5" d="M111.954,35.686h-7.727c-0.552,0-1-0.448-1-1v-7.721c0-0.552,0.448-1,1-1h7.727c0.552,0,1,0.448,1,1v7.721
					C112.954,35.238,112.506,35.686,111.954,35.686z M105.227,33.686h5.727v-5.721h-5.727V33.686z"/>
			</g>
		</g>
		<g>
			<g>
				<path class="st5" d="M100.636,35.686h-7.727c-0.552,0-1-0.448-1-1v-7.721c0-0.552,0.448-1,1-1h7.727c0.552,0,1,0.448,1,1v7.721
					C101.636,35.238,101.188,35.686,100.636,35.686z M93.909,33.686h5.727v-5.721h-5.727V33.686z"/>
			</g>
		</g>
		<g>
			<g>
				<path class="st5" d="M22.093,67.273h-2.046c-2.757,0-5-2.241-5-4.997v-2.045c0-2.755,2.243-4.997,5-4.997h2.046
					c2.757,0,5,2.241,5,4.997v2.045C27.093,65.032,24.85,67.273,22.093,67.273z M20.046,57.235c-1.654,0-3,1.344-3,2.997v2.045
					c0,1.652,1.346,2.997,3,2.997h2.046c1.654,0,3-1.344,3-2.997v-2.045c0-1.652-1.346-2.997-3-2.997H20.046z"/>
			</g>
		</g>
		<g>
			<g>
				<g>
					<path class="st5" d="M55.422,25.806H33.263c-0.552,0-1-0.448-1-1s0.448-1,1-1h22.159c0.552,0,1,0.448,1,1
						S55.974,25.806,55.422,25.806z"/>
				</g>
			</g>
			<g>
				<g>
					<path class="st5" d="M48.631,31.847H33.263c-0.552,0-1-0.448-1-1s0.448-1,1-1h15.369c0.552,0,1,0.448,1,1
						S49.184,31.847,48.631,31.847z"/>
				</g>
			</g>
		</g>
		<g>
			<g>
				<g>
					<path class="st5" d="M55.422,42.52H33.263c-0.552,0-1-0.448-1-1s0.448-1,1-1h22.159c0.552,0,1,0.448,1,1
						S55.974,42.52,55.422,42.52z"/>
				</g>
			</g>
			<g>
				<g>
					<path class="st5" d="M48.631,48.561H33.263c-0.552,0-1-0.448-1-1s0.448-1,1-1h15.369c0.552,0,1,0.448,1,1
						S49.184,48.561,48.631,48.561z"/>
				</g>
			</g>
		</g>
		<g>
			<g>
				<g>
					<path class="st5" d="M55.422,59.233H33.263c-0.552,0-1-0.448-1-1s0.448-1,1-1h22.159c0.552,0,1,0.448,1,1
						S55.974,59.233,55.422,59.233z"/>
				</g>
			</g>
			<g>
				<g>
					<path class="st5" d="M48.631,65.275H33.263c-0.552,0-1-0.448-1-1s0.448-1,1-1h15.369c0.552,0,1,0.448,1,1
						S49.184,65.275,48.631,65.275z"/>
				</g>
			</g>
		</g>
		<g>
			<g>
				<path class="st5" d="M75.112,45.541h-7.007c-0.552,0-1-0.448-1-1V28.826H64c-0.552,0-1-0.448-1-1s0.448-1,1-1h4.104
					c0.552,0,1,0.448,1,1v15.714h6.007c0.552,0,1,0.448,1,1S75.664,45.541,75.112,45.541z"/>
			</g>
		</g>
		<g>
			<g>
				<path class="st5" d="M72.209,48.44c-0.256,0-0.512-0.098-0.708-0.293c-0.39-0.391-0.39-1.024,0-1.415l2.195-2.192l-2.195-2.193
					c-0.391-0.391-0.391-1.024,0-1.415c0.391-0.391,1.024-0.39,1.415,0l2.902,2.9c0.188,0.188,0.293,0.442,0.293,0.708
					c0,0.266-0.105,0.52-0.293,0.708l-2.902,2.9C72.721,48.343,72.465,48.44,72.209,48.44z"/>
			</g>
		</g>
		<g>
			<g>
				<path class="st5" d="M42.1,106.923H1c-0.552,0-1-0.448-1-1s0.448-1,1-1h41.1c0.552,0,1,0.448,1,1S42.652,106.923,42.1,106.923z"
					/>
			</g>
		</g>
		<g>
			<g>
				<path class="st5" d="M127,106.923H78.743c-0.552,0-1-0.448-1-1s0.448-1,1-1H127c0.552,0,1,0.448,1,1
					S127.552,106.923,127,106.923z"/>
			</g>
		</g>
	</g>
</g>
</svg>
