<?xml version="1.0" encoding="utf-8"?>
<!-- Generator: Adobe Illustrator 22.0.0, SVG Export Plug-In . SVG Version: 6.00 Build 0)  -->
<svg version="1.1" id="MARKET_RESEARCH_ICON_SET" xmlns="http://www.w3.org/2000/svg" xmlns:xlink="http://www.w3.org/1999/xlink"
	 x="0px" y="0px" viewBox="0 0 128 128" style="enable-background:new 0 0 128 128;" xml:space="preserve">
<style type="text/css">
	.st0{fill:#C2D5EC;}
	.st1{fill:#61E1FF;}
	.st2{fill:#7184AF;}
	.st3{fill:#F8F8F8;}
	.st4{fill:#3F4D81;}
	.st5{fill:#3F4D80;}
	.st6{fill:#E9EAEB;}
	.st7{fill:#F79559;}
	.st8{fill:#FFA85A;}
</style>
<g>
	<g>
		<g>
			<polygon class="st0" points="128,30.888 84.966,30.888 84.966,56.042 0,56.042 0,111 128,111 			"/>
		</g>
		<g>
			<path class="st4" d="M114.489,100.559c-0.724-0.72-1.794-0.876-2.676-0.48c0.001,0,0.001-0.001,0.001-0.001l-3.645-3.627
				c-0.017,0.021-0.037,0.039-0.054,0.06c2.522-3.113,4.038-7.066,4.038-11.375c0-10.025-8.17-18.152-18.249-18.152
				c-10.079,0-18.249,8.127-18.249,18.152s8.17,18.152,18.249,18.152c4.332,0,8.306-1.509,11.436-4.017
				c-0.021,0.017-0.039,0.037-0.06,0.054l3.646,3.627l0-0.001c-0.397,0.877-0.24,1.94,0.484,2.66l5.417,5.388h7.806
				c0.461-0.895,0.326-2.016-0.428-2.766L114.489,100.559z"/>
		</g>
		<g>
			<path class="st5" d="M122.632,112h-7.806c-0.265,0-0.518-0.104-0.705-0.291l-5.416-5.388c-0.816-0.811-1.148-1.986-0.917-3.09
				l-2.602-2.587c-3.27,2.356-7.239,3.645-11.282,3.645c-10.613,0-19.248-8.592-19.248-19.152s8.635-19.152,19.248-19.152
				c10.614,0,19.249,8.592,19.249,19.152c0,4.021-1.293,7.968-3.66,11.222l2.598,2.585c1.109-0.234,2.287,0.096,3.104,0.908l0,0
				l7.715,7.674c1.044,1.038,1.29,2.619,0.611,3.934C123.349,111.791,123.006,112,122.632,112z M115.239,110h6.656
				c0.027-0.386-0.11-0.772-0.396-1.057l-7.715-7.674c-0.412-0.409-1.021-0.519-1.562-0.277c-0.375,0.169-0.82,0.089-1.114-0.204
				l-3.363-3.347c-0.09-0.036-0.176-0.085-0.255-0.148c-0.416-0.333-0.496-0.931-0.189-1.36c0.001,0,0.002-0.001,0.001-0.002
				c0.012-0.016,0.023-0.032,0.036-0.047c2.496-3.082,3.815-6.797,3.815-10.746c0-9.458-7.738-17.152-17.249-17.152
				s-17.248,7.694-17.248,17.152s7.737,17.152,17.248,17.152c3.974,0,7.712-1.313,10.81-3.797c0.43-0.344,1.055-0.276,1.4,0.147
				c0.065,0.081,0.117,0.168,0.153,0.26l3.363,3.345c0.296,0.294,0.378,0.741,0.206,1.121c-0.239,0.529-0.13,1.133,0.278,1.538
				L115.239,110z"/>
		</g>
		<g>
			<path class="st4" d="M84.966,30.888V47.76h6.249c1.827,0,3.309,1.474,3.309,3.291v4.919c0,1.025,1.267,1.513,1.961,0.757
				l7.251-7.896c0.627-0.683,1.514-1.072,2.443-1.072h13.417c1.827,0,3.309-1.474,3.309-3.291V30.888H84.966z"/>
		</g>
		<g>
			<path class="st4" d="M84.966,42.396v13.646H25.015v53.963c0,0.346,0.058,0.675,0.141,0.995h62.668
				c0.083-0.32,0.141-0.649,0.141-0.995V46.235C87.966,44.383,86.688,42.84,84.966,42.396z"/>
		</g>
		<g>
			<g>
				<path class="st6" d="M80.966,39.272H26.015c-2.209,0-4,1.781-4,3.979v63.771c0,2.197,1.791,3.979,4,3.979h54.951
					c2.209,0,4-1.781,4-3.979V43.251C84.966,41.053,83.175,39.272,80.966,39.272z"/>
			</g>
			<g>
				<path class="st3" d="M25.015,110.005V43.914c0-0.916,0.747-1.659,1.667-1.659h57.284c0.308,0,0.604,0.042,0.892,0.107
					c-0.406-1.769-1.991-3.091-3.892-3.091H26.015c-2.209,0-4,1.781-4,3.979v63.771c0,1.891,1.33,3.467,3.108,3.871
					C25.057,110.606,25.015,110.311,25.015,110.005z"/>
			</g>
			<g>
				<path class="st1" d="M72.991,39.272v-2.959c0-2.197-1.791-3.979-4-3.979H19.039c-2.209,0-4,1.781-4,3.979v70.709
					c0,2.197,1.791,3.979,4,3.979h2.975V43.251c0-2.197,1.791-3.979,4-3.979H72.991z"/>
			</g>
			<g>
				<path class="st4" d="M66.045,32.333v-2.93c0-2.197-1.791-3.979-4-3.979H12.094c-2.209,0-4,1.781-4,3.979v70.709
					c0,2.197,1.791,3.979,4,3.979h2.945V36.312c0-2.197,1.791-3.979,4-3.979H66.045z"/>
			</g>
			<g>
				<path class="st1" d="M33.096,56.042h-2c-2.209,0-4-1.781-4-3.979v-1.989c0-2.197,1.791-3.979,4-3.979h2c2.209,0,4,1.781,4,3.979
					v1.989C37.096,54.261,35.305,56.042,33.096,56.042z"/>
			</g>
			<g>
				<path class="st1" d="M33.096,72.087h-2c-2.209,0-4-1.781-4-3.979v-1.989c0-2.197,1.791-3.979,4-3.979h2c2.209,0,4,1.781,4,3.979
					v1.989C37.096,70.306,35.305,72.087,33.096,72.087z"/>
			</g>
			<g>
				<path class="st1" d="M33.096,88.132h-2c-2.209,0-4-1.781-4-3.979v-1.989c0-2.197,1.791-3.979,4-3.979h2c2.209,0,4,1.781,4,3.979
					v1.989C37.096,86.35,35.305,88.132,33.096,88.132z"/>
			</g>
			<g>
				<path class="st3" d="M33.096,104.176h-2c-2.209,0-4-1.781-4-3.979v-1.989c0-2.197,1.791-3.979,4-3.979h2
					c2.209,0,4,1.781,4,3.979v1.989C37.096,102.395,35.305,104.176,33.096,104.176z"/>
			</g>
		</g>
		<g>
			<g>
				<ellipse class="st1" cx="90.905" cy="82.152" rx="18.249" ry="18.152"/>
			</g>
			<g>
				<ellipse class="st3" cx="90.905" cy="82.152" rx="14.142" ry="14.068"/>
			</g>
			<g>
				<ellipse class="st3" cx="89.795" cy="78.248" rx="2.301" ry="2.289"/>
			</g>
			<g>
				<ellipse class="st3" cx="97.88" cy="86.29" rx="2.301" ry="2.289"/>
			</g>
			<g>
				<path class="st7" d="M108.103,97.575c0.211-0.21,0.455-0.366,0.712-0.481l-3.646-3.627c-0.853,1.062-1.822,2.026-2.89,2.874
					l3.646,3.627c0.116-0.256,0.273-0.498,0.484-0.709L108.103,97.575z"/>
			</g>
			<g>
				<path class="st2" d="M106.41,102.628l7.715,7.675c0.935,0.93,2.451,0.93,3.386,0l1.693-1.684c0.935-0.93,0.935-2.438,0-3.368
					l-7.715-7.675c-0.935-0.93-2.451-0.93-3.386,0l-1.693,1.684C105.475,100.19,105.475,101.698,106.41,102.628z"/>
			</g>
		</g>
		<g>
			<path class="st8" d="M119.906,20.291v21.193c0,1.818-1.481,3.291-3.309,3.291H103.18c-0.93,0-1.816,0.389-2.443,1.072
				L91.524,55.88v-7.812c0-1.818-1.481-3.291-3.309-3.291h-7.989c-1.827,0-3.309-1.474-3.309-3.291V20.291
				c0-1.818,1.481-3.291,3.309-3.291h36.371C118.424,17,119.906,18.474,119.906,20.291z"/>
		</g>
		<g>
			<path class="st3" d="M79.917,44.469V21.016c0-0.57,0.465-1.032,1.038-1.032h38.642c0.096,0,0.187,0.02,0.281,0.028
				c-0.145-1.685-1.549-3.012-3.281-3.012H80.226c-1.827,0-3.309,1.474-3.309,3.291v21.193c0,1.722,1.334,3.119,3.028,3.263
				C79.938,44.654,79.917,44.565,79.917,44.469z"/>
		</g>
		<g>
			<ellipse class="st5" cx="98.009" cy="38.164" rx="1.784" ry="1.774"/>
		</g>
	</g>
	<g>
		<g>
			<path class="st5" d="M127,112H1c-0.552,0-1-0.448-1-1s0.448-1,1-1h126c0.553,0,1,0.448,1,1S127.553,112,127,112z"/>
		</g>
		<g>
			<g>
				<g>
					<path class="st5" d="M91.524,56.88c-0.122,0-0.245-0.022-0.363-0.068c-0.384-0.149-0.637-0.52-0.637-0.932v-7.812
						c0-1.263-1.036-2.291-2.31-2.291h-7.988c-2.376,0-4.31-1.925-4.31-4.292V20.292c0-2.366,1.934-4.292,4.31-4.292h36.37
						c2.376,0,4.31,1.925,4.31,4.292v21.193c0,2.366-1.934,4.292-4.31,4.292H103.18c-0.648,0-1.271,0.272-1.707,0.748l-9.212,10.032
						C92.067,56.767,91.799,56.88,91.524,56.88z M80.227,18c-1.273,0-2.31,1.028-2.31,2.292v21.193c0,1.264,1.036,2.292,2.31,2.292
						h7.988c2.376,0,4.31,1.925,4.31,4.291v5.245L100,45.171c0.814-0.887,1.973-1.395,3.18-1.395h13.417
						c1.273,0,2.31-1.028,2.31-2.292V20.292c0-1.264-1.036-2.292-2.31-2.292H80.227z"/>
				</g>
			</g>
			<g>
				<g>
					<g>
						<path class="st5" d="M98.009,35.4c-0.553,0-1-0.448-1-1c0-3.37,1.784-4.685,3.088-5.646c1.104-0.814,1.682-1.294,1.682-2.474
							c0-0.892-0.35-1.731-0.984-2.362c-1.313-1.306-3.449-1.307-4.765,0c-0.635,0.631-0.984,1.47-0.984,2.362
							s0.35,1.731,0.984,2.362c0.392,0.389,0.394,1.022,0.004,1.414c-0.389,0.393-1.021,0.395-1.414,0.004
							c-1.016-1.009-1.574-2.352-1.574-3.78s0.559-2.771,1.574-3.78c2.093-2.081,5.494-2.081,7.585,0
							c1.016,1.01,1.574,2.353,1.574,3.78c0,2.245-1.384,3.265-2.495,4.084c-1.221,0.899-2.274,1.676-2.274,4.036
							C99.009,34.953,98.562,35.4,98.009,35.4z"/>
					</g>
				</g>
			</g>
		</g>
		<g>
			<g>
				<path class="st2" d="M66.045,32.333v-2.93c0-2.197-1.791-3.979-4-3.979H12.094c-2.209,0-4,1.781-4,3.979v70.709
					c0,2.197,1.791,3.979,4,3.979h2.945V36.312c0-2.197,1.791-3.979,4-3.979H66.045z"/>
			</g>
			<g>
				<path class="st5" d="M15.04,105.091h-2.945c-2.757,0-5-2.233-5-4.979V29.404c0-2.746,2.243-4.979,5-4.979h49.951
					c2.757,0,5,2.233,5,4.979v2.93c0,0.552-0.447,1-1,1H19.04c-1.654,0-3,1.336-3,2.979v67.779
					C16.04,104.644,15.592,105.091,15.04,105.091z M12.094,26.425c-1.654,0-3,1.336-3,2.979v70.709c0,1.643,1.346,2.979,3,2.979
					h1.945V36.312c0-2.745,2.243-4.979,5-4.979h46.005v-1.93c0-1.643-1.346-2.979-3-2.979H12.094z"/>
			</g>
			<g>
				<path class="st5" d="M80.966,112H26.015c-2.757,0-5-2.233-5-4.979V43.25c0-2.746,2.243-4.979,5-4.979h50.902
					c0.553,0,1,0.448,1,1v2.213c0,1.264,1.036,2.292,2.31,2.292h4.739c0.553,0,1,0.448,1,1v20.226c0,0.427-0.271,0.808-0.676,0.946
					c-6.959,2.385-11.634,8.897-11.634,16.204c0,7.308,4.675,13.819,11.634,16.204c0.404,0.138,0.676,0.519,0.676,0.946v7.719
					C85.966,109.767,83.723,112,80.966,112z M26.015,40.271c-1.654,0-3,1.336-3,2.979v63.771c0,1.643,1.346,2.979,3,2.979h54.951
					c1.654,0,3-1.336,3-2.979v-7.019c-7.393-2.842-12.31-9.927-12.31-17.85s4.917-15.007,12.31-17.85V45.776h-3.739
					c-2.376,0-4.31-1.925-4.31-4.292v-1.213H26.015z"/>
			</g>
			<g>
				<path class="st5" d="M22.015,112H19.04c-2.757,0-5-2.233-5-4.979V36.312c0-2.745,2.243-4.979,5-4.979H68.99
					c2.757,0,5,2.233,5,4.979v2.959c0,0.552-0.447,1-1,1H26.015c-1.654,0-3,1.336-3,2.979V111C23.015,111.552,22.567,112,22.015,112
					z M19.04,33.333c-1.654,0-3,1.336-3,2.979v70.709c0,1.643,1.346,2.979,3,2.979h1.975V43.25c0-2.746,2.243-4.979,5-4.979H71.99
					v-1.959c0-1.643-1.346-2.979-3-2.979H19.04z"/>
			</g>
			<g>
				<path class="st5" d="M33.096,57.042h-2c-2.757,0-5-2.233-5-4.979v-1.989c0-2.746,2.243-4.979,5-4.979h2c2.757,0,5,2.233,5,4.979
					v1.989C38.096,54.809,35.853,57.042,33.096,57.042z M31.096,47.095c-1.654,0-3,1.336-3,2.979v1.989c0,1.643,1.346,2.979,3,2.979
					h2c1.654,0,3-1.336,3-2.979v-1.989c0-1.643-1.346-2.979-3-2.979H31.096z"/>
			</g>
			<g>
				<path class="st5" d="M33.096,73.087h-2c-2.757,0-5-2.233-5-4.979v-1.99c0-2.745,2.243-4.979,5-4.979h2c2.757,0,5,2.233,5,4.979
					v1.99C38.096,70.854,35.853,73.087,33.096,73.087z M31.096,63.14c-1.654,0-3,1.336-3,2.979v1.99c0,1.643,1.346,2.979,3,2.979h2
					c1.654,0,3-1.336,3-2.979v-1.99c0-1.643-1.346-2.979-3-2.979H31.096z"/>
			</g>
			<g>
				<path class="st5" d="M33.096,89.132h-2c-2.757,0-5-2.233-5-4.979v-1.989c0-2.746,2.243-4.979,5-4.979h2c2.757,0,5,2.233,5,4.979
					v1.989C38.096,86.898,35.853,89.132,33.096,89.132z M31.096,79.185c-1.654,0-3,1.336-3,2.979v1.989c0,1.643,1.346,2.979,3,2.979
					h2c1.654,0,3-1.336,3-2.979v-1.989c0-1.643-1.346-2.979-3-2.979H31.096z"/>
			</g>
			<g>
				<path class="st5" d="M33.096,105.176h-2c-2.757,0-5-2.233-5-4.979v-1.99c0-2.745,2.243-4.979,5-4.979h2c2.757,0,5,2.233,5,4.979
					v1.99C38.096,102.943,35.853,105.176,33.096,105.176z M31.096,95.229c-1.654,0-3,1.336-3,2.979v1.99
					c0,1.643,1.346,2.979,3,2.979h2c1.654,0,3-1.336,3-2.979v-1.99c0-1.643-1.346-2.979-3-2.979H31.096z"/>
			</g>
			<g>
				<path class="st5" d="M32.096,69.108c-0.233,0-0.466-0.081-0.654-0.243l-2.365-2.043c-0.418-0.361-0.464-0.993-0.103-1.411
					c0.36-0.418,0.993-0.464,1.411-0.103l1.711,1.479l7.303-6.312c0.417-0.361,1.049-0.315,1.411,0.103
					c0.361,0.418,0.315,1.049-0.103,1.411l-7.957,6.876C32.562,69.027,32.329,69.108,32.096,69.108z"/>
			</g>
			<g>
				<path class="st5" d="M32.096,85.153c-0.233,0-0.466-0.081-0.654-0.243l-2.365-2.043c-0.418-0.361-0.464-0.993-0.103-1.411
					c0.361-0.417,0.992-0.464,1.411-0.103l1.711,1.478l7.303-6.311c0.417-0.361,1.049-0.315,1.411,0.103
					c0.361,0.418,0.315,1.049-0.103,1.411L32.75,84.91C32.562,85.072,32.329,85.153,32.096,85.153z"/>
			</g>
			<g>
				<path class="st5" d="M32.096,53.063c-0.233,0-0.466-0.081-0.654-0.243l-2.365-2.043c-0.418-0.361-0.464-0.993-0.103-1.411
					s0.992-0.464,1.411-0.103l1.711,1.478l7.303-6.311c0.417-0.361,1.049-0.315,1.411,0.103c0.361,0.418,0.315,1.049-0.103,1.411
					L32.75,52.82C32.562,52.982,32.329,53.063,32.096,53.063z"/>
			</g>
			<g>
				<path class="st5" d="M79.885,52.069H41.922c-0.552,0-1-0.448-1-1s0.448-1,1-1h37.963c0.553,0,1,0.448,1,1
					S80.437,52.069,79.885,52.069z"/>
			</g>
			<g>
				<path class="st5" d="M64.744,68.113H41.922c-0.552,0-1-0.448-1-1s0.448-1,1-1h22.822c0.552,0,1,0.448,1,1
					S65.296,68.113,64.744,68.113z"/>
			</g>
			<g>
				<path class="st5" d="M56.717,84.158H41.922c-0.552,0-1-0.448-1-1s0.448-1,1-1h14.795c0.552,0,1,0.448,1,1
					S57.269,84.158,56.717,84.158z"/>
			</g>
			<g>
				<path class="st5" d="M68.69,100.203H41.922c-0.552,0-1-0.448-1-1s0.448-1,1-1H68.69c0.553,0,1,0.448,1,1
					S69.243,100.203,68.69,100.203z"/>
			</g>
		</g>
		<g>
			<g>
				<g>
					<path class="st5" d="M90.904,101.305c-10.613,0-19.248-8.592-19.248-19.152S80.291,63,90.904,63
						c10.614,0,19.249,8.592,19.249,19.152S101.519,101.305,90.904,101.305z M90.904,65c-9.511,0-17.248,7.694-17.248,17.152
						s7.737,17.152,17.248,17.152s17.249-7.694,17.249-17.152S100.415,65,90.904,65z"/>
				</g>
			</g>
			<g>
				<g>
					<g>
						<path class="st5" d="M99.507,85.671c-0.257,0-0.514-0.098-0.709-0.295c-0.39-0.392-0.388-1.024,0.004-1.414l5.274-5.247
							c0.392-0.39,1.024-0.389,1.414,0.004c0.39,0.392,0.388,1.024-0.004,1.414l-5.274,5.247
							C100.017,85.574,99.762,85.671,99.507,85.671z"/>
					</g>
				</g>
				<g>
					<g>
						<path class="st5" d="M96.253,85.671c-0.255,0-0.51-0.097-0.705-0.291l-4.831-4.806c-0.392-0.39-0.394-1.022-0.004-1.414
							s1.022-0.393,1.414-0.004l4.831,4.806c0.392,0.39,0.394,1.022,0.004,1.414C96.767,85.573,96.51,85.671,96.253,85.671z"/>
					</g>
				</g>
				<g>
					<g>
						<path class="st5" d="M78.705,90.278c-0.257,0-0.514-0.098-0.709-0.295c-0.39-0.392-0.388-1.024,0.004-1.414l9.463-9.413
							c0.392-0.39,1.024-0.389,1.414,0.004c0.39,0.392,0.388,1.024-0.004,1.414l-9.463,9.413
							C79.215,90.181,78.96,90.278,78.705,90.278z"/>
					</g>
				</g>
				<g>
					<g>
						<path class="st5" d="M90.904,97.22c-8.349,0-15.142-6.759-15.142-15.067s6.793-15.067,15.142-15.067
							c8.35,0,15.143,6.759,15.143,15.067S99.254,97.22,90.904,97.22z M90.904,69.085c-7.246,0-13.142,5.862-13.142,13.067
							S83.658,95.22,90.904,95.22c7.247,0,13.143-5.862,13.143-13.067S98.151,69.085,90.904,69.085z"/>
					</g>
				</g>
				<g>
					<g>
						<path class="st5" d="M89.795,81.534c-0.845,0-1.689-0.32-2.332-0.959l0,0c-0.625-0.621-0.969-1.448-0.969-2.327
							s0.344-1.706,0.969-2.327c1.284-1.279,3.376-1.281,4.664,0c0.625,0.621,0.969,1.448,0.969,2.327s-0.344,1.706-0.969,2.327
							C91.483,81.214,90.639,81.534,89.795,81.534z M89.795,76.959c-0.334,0-0.668,0.126-0.922,0.379
							c-0.244,0.243-0.379,0.566-0.379,0.909s0.135,0.666,0.379,0.909l0,0c0.508,0.506,1.336,0.505,1.844,0
							c0.244-0.243,0.379-0.566,0.379-0.909s-0.135-0.666-0.379-0.909C90.463,77.085,90.129,76.959,89.795,76.959z"/>
					</g>
				</g>
				<g>
					<g>
						<path class="st5" d="M97.88,89.577c-0.845,0-1.689-0.32-2.332-0.959c-0.625-0.621-0.969-1.447-0.969-2.327
							c0-0.88,0.344-1.707,0.969-2.328c1.285-1.279,3.379-1.279,4.664,0c0.625,0.622,0.969,1.448,0.969,2.328
							c0,0.879-0.344,1.706-0.969,2.327C99.569,89.257,98.725,89.577,97.88,89.577z M97.88,85.001c-0.334,0-0.668,0.126-0.922,0.379
							c-0.244,0.243-0.379,0.566-0.379,0.91s0.135,0.666,0.379,0.909c0.508,0.506,1.336,0.506,1.844,0
							c0.244-0.243,0.379-0.566,0.379-0.909s-0.135-0.667-0.379-0.91C98.548,85.127,98.214,85.001,97.88,85.001z"/>
					</g>
				</g>
			</g>
			<g>
				<g>
					<path class="st5" d="M105.926,100.968c-0.262,0-0.517-0.103-0.705-0.291l-3.646-3.627c-0.202-0.201-0.31-0.479-0.293-0.765
						c0.016-0.285,0.152-0.55,0.376-0.728c1.008-0.8,1.927-1.714,2.731-2.717c0.178-0.221,0.441-0.356,0.725-0.373
						c0.279-0.015,0.56,0.089,0.761,0.29l3.646,3.626c0.233,0.232,0.338,0.565,0.278,0.889s-0.274,0.598-0.575,0.733
						c-0.166,0.074-0.302,0.165-0.416,0.277l-1.693,1.684c-0.11,0.11-0.204,0.249-0.276,0.41c-0.135,0.299-0.407,0.514-0.73,0.573
						C106.047,100.963,105.986,100.968,105.926,100.968z M103.759,96.402l2.053,2.042l1.472-1.464l-2.054-2.042
						C104.766,95.452,104.274,95.941,103.759,96.402z"/>
				</g>
			</g>
			<g>
				<g>
					<path class="st5" d="M115.818,111.998c-0.869,0-1.737-0.329-2.398-0.986l-7.716-7.674l0,0
						c-0.643-0.639-0.996-1.489-0.996-2.393c0-0.904,0.354-1.754,0.996-2.394l1.693-1.684c1.322-1.315,3.475-1.315,4.797,0
						l7.715,7.675c0.643,0.639,0.996,1.489,0.996,2.393s-0.354,1.754-0.996,2.393l-1.692,1.684
						C117.556,111.668,116.687,111.998,115.818,111.998z M107.114,101.919l7.716,7.674c0.545,0.542,1.432,0.542,1.977,0l1.692-1.684
						c0.263-0.261,0.406-0.607,0.406-0.975s-0.144-0.714-0.406-0.975l-7.715-7.675c-0.544-0.541-1.431-0.543-1.977,0l-1.693,1.684
						c-0.262,0.261-0.406,0.607-0.406,0.976C106.708,101.312,106.853,101.658,107.114,101.919L107.114,101.919z"/>
				</g>
			</g>
		</g>
	</g>
</g>
</svg>
