<?xml version="1.0" encoding="utf-8"?>
<!-- Generator: Adobe Illustrator 22.0.0, SVG Export Plug-In . SVG Version: 6.00 Build 0)  -->
<svg version="1.1" id="MARKET_RESEARCH_ICON_SET" xmlns="http://www.w3.org/2000/svg" xmlns:xlink="http://www.w3.org/1999/xlink"
	 x="0px" y="0px" viewBox="0 0 128 128" style="enable-background:new 0 0 128 128;" xml:space="preserve">
<style type="text/css">
	.st0{fill:#C2D5EC;}
	.st1{fill:#61E1FF;}
	.st2{fill:#7184AF;}
	.st3{fill:#F8F8F8;}
	.st4{fill:#3F4D81;}
	.st5{fill:#3F4D80;}
	.st6{fill:#E9EAEB;}
	.st7{fill:#F79559;}
	.st8{fill:#FFA85A;}
</style>
<g>
	<g>
		<g>
			<polygon class="st0" points="128.007,31.262 81.848,77.305 57.599,77.944 39.112,96.385 30.353,87.648 9.57,108.378 
				128.007,108.378 			"/>
		</g>
		<g>
			<path class="st4" d="M111.907,49.245L90.271,70.826v3.97l0,0c-1.027-1.005-2.044-1.958-3.041-2.861l-5.382,5.369l-11.275,0.297
				c-0.153,1.33-0.353,2.653-0.665,3.931l-3.822-3.812l-8.488,0.224l-18.487,18.44l-8.759-8.737l-17.779,17.734v2.996h4.005
				l16.778-16.736l3.902,3.893l4.857,4.844l4.857-4.844l13.63-13.596l6.014,5.999c-0.048,0.05-0.091,0.102-0.14,0.151l-2.657,2.65
				l0.002,0.001l-3.296,3.288l-3.899,3.889c-2.846,2.838-3.238,7.194-1.193,10.46h26.074l-1.813-1.808l1.402-1.399
				c1.251-1.248,0.982-3.338-0.545-4.229l-1.868-1.092c6.691-6.332,18.924-2.128,24.128-7.319c1.319-1.316-2.931-7.735-9.696-14.854
				l23.278-23.22l4.895,4.515V44.73h-6.785l-3.562,3.553L111.907,49.245z"/>
		</g>
		<g>
			<path class="st5" d="M81.507,109.378H55.434c-0.345,0-0.665-0.177-0.848-0.469c-2.354-3.757-1.806-8.568,1.334-11.699
				l7.146-7.128c0.015-0.017,0.03-0.034,0.047-0.05l2.094-2.088l-4.604-4.592l-17.781,17.735c-0.391,0.39-1.021,0.39-1.412,0
				l-8.053-8.032l-16.071,16.031c-0.188,0.187-0.441,0.292-0.706,0.292h-4.005c-0.553,0-1-0.448-1-1v-2.996
				c0-0.266,0.105-0.521,0.294-0.708L29.646,86.94c0.391-0.39,1.021-0.39,1.412,0l8.054,8.032l17.78-17.736
				c0.181-0.181,0.424-0.285,0.68-0.292l8.488-0.224c0.271-0.012,0.539,0.099,0.732,0.292l2.506,2.5
				c0.103-0.614,0.195-1.282,0.281-2.025c0.057-0.495,0.469-0.872,0.967-0.885l10.876-0.287l5.102-5.088
				c0.376-0.376,0.983-0.39,1.377-0.033c0.461,0.417,0.918,0.837,1.369,1.26v-1.629c0-0.266,0.105-0.521,0.294-0.708l20.926-20.873
				l-0.254-0.254c-0.188-0.188-0.294-0.442-0.294-0.708s0.105-0.521,0.294-0.708l3.562-3.553c0.188-0.187,0.441-0.292,0.706-0.292
				h6.784c0.553,0,1,0.448,1,1v14.242c0,0.397-0.235,0.757-0.599,0.916c-0.363,0.16-0.786,0.088-1.079-0.181l-4.189-3.864
				L94.511,77.698c10.701,11.425,9.879,14.671,9.007,15.541c-2.734,2.728-6.978,3.085-11.471,3.464
				c-4.155,0.351-8.438,0.711-11.624,3.004l0.634,0.371c0.997,0.583,1.654,1.574,1.801,2.719c0.147,1.144-0.237,2.267-1.055,3.082
				l-0.692,0.69l1.103,1.101c0.287,0.286,0.373,0.716,0.218,1.09C82.276,109.135,81.911,109.378,81.507,109.378z M56.01,107.378
				h23.079l-0.101-0.101c-0.188-0.188-0.294-0.442-0.294-0.708s0.105-0.521,0.294-0.708l1.402-1.398
				c0.374-0.374,0.551-0.888,0.483-1.412c-0.067-0.524-0.368-0.979-0.826-1.247l-1.869-1.092c-0.271-0.159-0.452-0.437-0.488-0.749
				c-0.036-0.313,0.077-0.624,0.306-0.841c3.762-3.56,9.139-4.013,13.883-4.413c4.087-0.344,7.948-0.67,10.174-2.835
				c0.177-1.008-2.419-5.887-9.661-13.509c-0.374-0.394-0.366-1.014,0.019-1.397l23.278-23.219c0.379-0.379,0.991-0.391,1.384-0.027
				l3.217,2.967V45.73h-5.371l-2.56,2.553l0.254,0.253c0.188,0.188,0.294,0.442,0.294,0.708s-0.105,0.521-0.294,0.708L91.271,71.241
				v3.555c0,0.402-0.241,0.766-0.612,0.922c-0.369,0.157-0.799,0.075-1.087-0.208c-0.748-0.732-1.522-1.467-2.311-2.193
				l-4.707,4.695c-0.181,0.181-0.424,0.285-0.68,0.292L71.46,78.58c-0.162,1.218-0.35,2.248-0.58,3.191
				c-0.086,0.351-0.354,0.627-0.702,0.725c-0.346,0.098-0.72,0-0.976-0.255l-3.518-3.51l-7.661,0.202L40.027,96.884l2.088,2.083
				l17.781-17.735c0.391-0.39,1.021-0.39,1.412,0l6.015,5.999c0.386,0.385,0.393,1.008,0.015,1.401l-0.154,0.166l-2.608,2.602
				c-0.016,0.018-0.031,0.035-0.048,0.051l-7.195,7.177C54.986,100.966,54.477,104.495,56.01,107.378z M13.574,107.378h2.592
				l16.275-16.235l-2.089-2.083l-16.778,16.737V107.378z"/>
		</g>
		<g>
			<g>
				<g>
					<path class="st2" d="M66.905,77.538L62.456,73.1l-4.857-4.844L52.742,73.1l-13.63,13.596l-8.759-8.737l-4.857,4.844
						L9.57,98.689v9.689l20.783-20.73l3.902,3.893l4.857,4.844l4.857-4.844l13.63-13.596l6.014,5.999
						C65.356,82.139,66.324,79.92,66.905,77.538z"/>
				</g>
				<g>
					<path class="st2" d="M104.377,40.735l4.526,4.515L87.267,66.832v3.97c0.829,0.827,2.08,2.066,2.847,2.879l23.646-23.586
						l4.526,4.515V40.735H104.377z"/>
				</g>
			</g>
			<g>
				<g>
					<path class="st6" d="M71.019,59.82c-5.186,5.173-0.904,17.65-7.546,24.275l-2.657,2.65l11.992,11.962l2.657-2.65
						c0.067-0.067,0.139-0.139,0.212-0.2c6.691-6.335,18.926-2.13,24.13-7.321c-1.116,1.113-5.854-1.712-11.586-6.668
						c-1.741-1.507-3.585-3.213-5.441-5.064c-1.856-1.851-3.567-3.691-5.083-5.433C72.735,65.659,69.903,60.933,71.019,59.82z"/>
				</g>
				<g>
					<path class="st8" d="M53.622,105.889c1.655,1.651,3.827,2.477,5.998,2.489c2.171-0.012,4.342-0.838,5.998-2.489
						c0,0,4.151-4.14,7.198-7.179L60.82,86.744l-7.198,7.179C50.312,97.226,50.312,102.587,53.622,105.889z"/>
				</g>
				<g>
					<polygon class="st2" points="81.547,114 84.846,110.709 72.816,98.71 67.082,104.429 					"/>
				</g>
				<g>
					<path class="st7" d="M75.678,95.855l-2.863,2.855l3.875,3.865l1.402-1.399c1.251-1.248,0.982-3.338-0.545-4.229L75.678,95.855z
						"/>
				</g>
				<g>
					<polygon class="st1" points="69.517,102.001 72.816,98.71 60.82,86.744 57.521,90.035 					"/>
				</g>
				<g>
					<path class="st1" d="M88.222,81.869c5.732,4.955,10.47,7.781,11.586,6.668c1.45-1.446-3.822-9.052-11.768-16.978
						C90.885,74.396,90.945,78.958,88.222,81.869z"/>
				</g>
				<g>
					<path class="st1" d="M71.019,59.82c-1.116,1.113,1.717,5.839,6.679,11.551c2.918-2.717,7.491-2.656,10.342,0.188
						C80.093,63.632,72.469,58.374,71.019,59.82z"/>
				</g>
				<g>
					<path class="st7" d="M77.697,71.371c1.516,1.743,3.227,3.582,5.083,5.433c1.856,1.851,3.7,3.558,5.441,5.064
						c2.724-2.91,2.663-7.473-0.182-10.31C85.189,68.714,80.615,68.654,77.697,71.371z"/>
				</g>
			</g>
		</g>
		<g>
			<g>
				<path class="st8" d="M52.183,14h-7.53c-2.212,0-4.005,1.789-4.005,3.995v6.74c5.663,0,10.967,1.746,15.539,4.08v-10.82
					C56.188,15.789,54.395,14,52.183,14z"/>
			</g>
			<g>
				<path class="st8" d="M40.649,56.736v28.427l15.539-15.5V52.656C51.616,54.99,46.312,56.736,40.649,56.736z"/>
			</g>
			<g>
				<path class="st8" d="M102.806,51.331V17.995c0-2.206,1.793-3.995,4.005-3.995h7.53c2.212,0,4.005,1.789,4.005,3.995v22.741
					h-13.969l4.526,4.515L102.806,51.331z"/>
			</g>
			<g>
				<path class="st8" d="M87.267,70.802v-3.317v-49.49c0-2.206-1.793-3.995-4.005-3.995h-7.53c-2.212,0-4.005,1.789-4.005,3.995
					v41.586l0.012,0.012C74.1,59.596,80.491,64.172,87.267,70.802z"/>
			</g>
			<g>
				<path class="st8" d="M25.109,28.815v-10.82c0-2.206-1.793-3.995-4.005-3.995h-7.529c-2.212,0-4.005,1.789-4.005,3.995v22.741
					C9.57,40.736,15.823,33.555,25.109,28.815z"/>
			</g>
			<g>
				<path class="st8" d="M9.57,40.736v57.954l15.539-15.5V52.656C15.823,47.916,9.57,40.736,9.57,40.736z"/>
			</g>
		</g>
		<g>
			<g>
				<g>
					<path class="st6" d="M40.649,24.735c-17.164,0-31.079,16-31.079,16s13.914,16,31.079,16c17.164,0,31.079-16,31.079-16
						S57.813,24.735,40.649,24.735z"/>
				</g>
			</g>
			<g>
				<ellipse class="st1" cx="40.649" cy="40.698" rx="16.003" ry="15.963"/>
			</g>
			<g>
				<path class="st3" d="M26.648,42.696c0-8.816,7.165-15.963,16.003-15.963c3.909,0,7.488,1.402,10.267,3.725
					c-2.936-3.496-7.341-5.722-12.27-5.722c-8.838,0-16.003,7.147-16.003,15.963c0,4.917,2.232,9.311,5.737,12.239
					C28.054,50.165,26.648,46.595,26.648,42.696z"/>
			</g>
		</g>
		<g>
			<g>
				<path class="st3" d="M45.506,16.996h8.68c0.714,0,1.374,0.202,1.955,0.528C55.905,15.543,54.234,14,52.183,14h-7.53
					c-2.212,0-4.005,1.789-4.005,3.995v6.74c0.673,0,2.667,0.028,3.329,0.076V18.52C43.978,17.678,44.662,16.996,45.506,16.996z"/>
			</g>
			<g>
				<path class="st3" d="M43.973,56.535v25.257l-3.324,3.366V56.735C41.771,56.735,42.882,56.665,43.973,56.535z"/>
			</g>
			<g>
				<path class="st3" d="M104.377,40.736h1.617V18.52c0-0.842,0.684-1.524,1.528-1.524h8.821c0.714,0,1.374,0.202,1.955,0.528
					c-0.236-1.982-1.907-3.524-3.957-3.524h-7.529c-2.212,0-4.005,1.789-4.005,3.995v33.337l3.157-3.149l0.031-5.833L104.377,40.736
					z"/>
			</g>
			<g>
				<path class="st3" d="M76.69,16.996h8.574c0.714,0,1.374,0.202,1.955,0.528C86.984,15.543,85.313,14,83.262,14h-7.53
					c-2.212,0-4.005,1.789-4.005,3.995v41.586l0.012,0.012c1.11-0.03,2.607,0.939,3.423,1.319v-42.45
					C75.162,17.62,75.846,16.996,76.69,16.996z"/>
			</g>
			<g>
				<path class="st3" d="M13.029,37.258L12.959,18.52c0-0.842,0.684-1.524,1.528-1.524h8.62c0.714,0,1.374,0.202,1.955,0.528
					C24.826,15.543,23.155,14,21.105,14h-7.529c-2.212,0-4.005,1.789-4.005,3.995v22.741C9.57,40.736,11.744,38.51,13.029,37.258z"
					/>
			</g>
			<g>
				<path class="st3" d="M12.967,44.185c-1.285-1.252-3.396-3.449-3.396-3.449v57.954l3.396-3.383V45.11V44.185z"/>
			</g>
		</g>
	</g>
	<g>
		<g>
			<path class="st5" d="M127.006,109.378H82.509c-0.553,0-1-0.448-1-1s0.447-1,1-1h44.497c0.553,0,1,0.448,1,1
				S127.559,109.378,127.006,109.378z"/>
		</g>
		<g>
			<path class="st5" d="M59.62,109.378H1c-0.553,0-1-0.448-1-1s0.447-1,1-1h58.62c0.553,0,1,0.448,1,1S60.173,109.378,59.62,109.378
				z"/>
		</g>
		<g>
			<g>
				<g>
					<g>
						<path class="st5" d="M9.57,109.378c-0.129,0-0.26-0.025-0.383-0.076c-0.374-0.155-0.617-0.52-0.617-0.924v-9.689
							c0-0.266,0.105-0.521,0.294-0.708l20.782-20.73c0.391-0.39,1.021-0.39,1.412,0l8.054,8.032l17.78-17.735
							c0.391-0.39,1.021-0.39,1.412,0l9.307,9.282c0.248,0.247,0.349,0.605,0.266,0.945c-0.703,2.876-1.862,5.122-3.544,6.863
							c-0.187,0.192-0.442,0.303-0.71,0.305c-0.004,0-0.007,0-0.01,0c-0.265,0-0.519-0.105-0.706-0.292l-5.309-5.295l-17.78,17.736
							c-0.391,0.39-1.021,0.39-1.412,0l-8.054-8.032l-20.076,20.026C10.085,109.277,9.83,109.378,9.57,109.378z M10.57,99.104v6.864
							L29.646,86.94c0.391-0.39,1.021-0.39,1.412,0l8.054,8.032l17.78-17.736c0.391-0.39,1.021-0.39,1.412,0l5.259,5.245
							c0.982-1.248,1.718-2.778,2.229-4.64l-8.194-8.173l-17.78,17.735c-0.391,0.39-1.021,0.39-1.412,0l-8.054-8.032L10.57,99.104z"
							/>
					</g>
				</g>
				<g>
					<g>
						<path class="st5" d="M90.113,74.681c-0.005,0-0.011,0-0.016,0c-0.271-0.004-0.527-0.118-0.712-0.314
							c-0.665-0.705-1.695-1.732-2.493-2.527l-0.331-0.33c-0.188-0.188-0.294-0.442-0.294-0.708v-3.97
							c0-0.266,0.105-0.521,0.294-0.708l20.926-20.874l-3.816-3.807c-0.287-0.286-0.373-0.716-0.218-1.09
							c0.154-0.374,0.52-0.618,0.924-0.618h13.909c0.553,0,1,0.448,1,1v13.874c0,0.404-0.243,0.769-0.617,0.924
							c-0.37,0.156-0.803,0.07-1.089-0.216l-3.82-3.81l-22.94,22.882C90.632,74.576,90.378,74.681,90.113,74.681z M88.268,70.387
							l0.037,0.037c0.562,0.56,1.236,1.232,1.822,1.831l22.927-22.868c0.391-0.39,1.021-0.39,1.412,0l2.82,2.813V41.735h-10.49
							l2.813,2.807c0.188,0.188,0.294,0.442,0.294,0.708s-0.105,0.521-0.294,0.708L88.268,67.247V70.387z"/>
					</g>
				</g>
			</g>
			<g>
				<g>
					<g>
						<g>
							<path class="st5" d="M72.809,99.708c-0.256,0-0.511-0.097-0.706-0.292L60.109,87.454c-0.188-0.188-0.294-0.442-0.294-0.708
								s0.105-0.521,0.294-0.708l2.657-2.65c3.268-3.259,3.692-8.165,4.103-12.91c0.387-4.464,0.752-8.681,3.442-11.365
								c0.001,0,0.001,0,0.001,0c0.392-0.391,1.024-0.389,1.414,0.002c0.372,0.373,0.389,0.966,0.05,1.358
								c-0.131,0.712,1.299,4.053,6.676,10.243c1.57,1.804,3.264,3.615,5.034,5.381c1.771,1.766,3.584,3.454,5.39,5.016
								c6.22,5.376,9.571,6.79,10.28,6.665c0.393-0.338,0.986-0.32,1.359,0.052c0.39,0.391,0.39,1.024-0.002,1.415l0,0
								c-2.734,2.728-6.978,3.086-11.47,3.464c-4.634,0.391-9.426,0.795-12.679,3.875c-0.094,0.081-0.136,0.124-0.177,0.164
								l-2.674,2.668C73.319,99.61,73.064,99.708,72.809,99.708z M62.231,86.746l10.577,10.549l1.95-1.946
								c0.106-0.105,0.194-0.19,0.282-0.262c3.711-3.518,9.089-3.971,13.834-4.371c3.028-0.255,5.934-0.5,8.141-1.491
								c-2.016-0.826-5.009-2.762-9.448-6.6c-1.841-1.593-3.689-3.313-5.493-5.113c-1.804-1.8-3.53-3.646-5.131-5.485
								c-3.84-4.419-5.779-7.402-6.608-9.413c-0.966,2.175-1.214,5.045-1.473,8.036c-0.421,4.864-0.898,10.377-4.684,14.153
								L62.231,86.746z M71.725,60.528L71.725,60.528L71.725,60.528L71.725,60.528z"/>
						</g>
					</g>
					<g>
						<g>
							<path class="st5" d="M59.626,109.378c-2.547-0.014-4.926-1.002-6.71-2.781l0,0c-1.791-1.786-2.777-4.162-2.777-6.691
								c0-2.528,0.986-4.904,2.777-6.69l7.198-7.18c0.391-0.39,1.021-0.39,1.412,0l11.995,11.966
								c0.188,0.188,0.294,0.442,0.294,0.708s-0.105,0.521-0.294,0.708l-7.197,7.179C64.541,108.376,62.162,109.364,59.626,109.378z
								 M54.328,105.181c1.41,1.406,3.291,2.186,5.298,2.197c1.996-0.011,3.877-0.792,5.286-2.197l6.487-6.471L60.82,88.157
								l-6.492,6.475c-1.411,1.408-2.189,3.281-2.189,5.274S52.917,103.773,54.328,105.181L54.328,105.181z"/>
						</g>
					</g>
					<g>
						<g>
							<path class="st5" d="M81.547,115c-0.191,0-0.383-0.055-0.552-0.166l-14.465-9.571c-0.251-0.166-0.413-0.436-0.443-0.734
								s0.076-0.596,0.289-0.808l5.733-5.719c0.391-0.39,1.021-0.39,1.412,0l12.03,12c0.188,0.188,0.294,0.442,0.294,0.708
								s-0.105,0.521-0.294,0.708l-3.299,3.291C82.06,114.901,81.805,115,81.547,115z M68.656,104.271l12.762,8.445l2.012-2.006
								l-10.614-10.587L68.656,104.271z"/>
						</g>
					</g>
					<g>
						<g>
							<path class="st5" d="M76.69,103.575c-0.256,0-0.511-0.097-0.706-0.292l-3.875-3.865c-0.188-0.188-0.294-0.442-0.294-0.708
								s0.105-0.521,0.294-0.708l2.863-2.855c0.321-0.32,0.819-0.385,1.211-0.155l1.869,1.093c0.997,0.583,1.654,1.574,1.801,2.718
								c0.147,1.144-0.237,2.267-1.055,3.082l-1.402,1.399C77.201,103.478,76.946,103.575,76.69,103.575z M74.231,98.71l2.459,2.453
								l0.696-0.694c0.374-0.374,0.551-0.888,0.483-1.411c-0.067-0.524-0.368-0.979-0.826-1.247l-1.205-0.704L74.231,98.71z"/>
						</g>
					</g>
					<g>
						<g>
							<path class="st5" d="M69.517,103c-0.256,0-0.511-0.097-0.706-0.292L56.815,90.743c-0.188-0.188-0.294-0.442-0.294-0.708
								s0.105-0.521,0.294-0.708l3.299-3.291c0.391-0.39,1.021-0.39,1.412,0l11.995,11.966c0.188,0.188,0.294,0.442,0.294,0.708
								s-0.105,0.521-0.294,0.708l-3.299,3.291C70.027,102.903,69.772,103,69.517,103z M58.937,90.035l10.579,10.553l1.883-1.878
								L60.82,88.157L58.937,90.035z"/>
						</g>
					</g>
				</g>
				<g>
					<g>
						<path class="st5" d="M99.15,89.737c-1.79,0-5.185-1.581-11.583-7.112c-0.205-0.178-0.33-0.432-0.345-0.704
							c-0.014-0.271,0.083-0.537,0.269-0.736c2.378-2.542,2.309-6.459-0.157-8.919l0,0l0,0c-0.392-0.39-0.392-1.023-0.002-1.414
							c0.391-0.392,1.023-0.392,1.414-0.002c6.123,6.108,12.302,13.727,12.302,16.98c0,0.729-0.291,1.171-0.534,1.414
							C100.22,89.537,99.786,89.737,99.15,89.737z M89.618,81.747c5.494,4.643,8.58,6.039,9.436,6.039c0.002,0,0.003,0,0.005,0
							c0.032-1.16-2.449-5.455-7.838-11.437C91.324,78.23,90.792,80.141,89.618,81.747z"/>
					</g>
				</g>
				<g>
					<g>
						<path class="st5" d="M88.04,72.558c-0.256,0-0.511-0.097-0.706-0.292c-2.474-2.466-6.407-2.538-8.955-0.164
							c-0.198,0.185-0.464,0.277-0.734,0.267c-0.271-0.014-0.524-0.138-0.702-0.343c-7.512-8.647-7.752-11.796-6.63-12.915l0,0
							c3.239-3.237,16.887,10.195,18.434,11.738v0l0,0c0.392,0.39,0.392,1.023,0.002,1.414C88.553,72.46,88.296,72.558,88.04,72.558
							z M71.769,60.569c-0.003,0.848,1.396,3.927,6.05,9.408c1.61-1.171,3.532-1.708,5.411-1.598
							c-5.955-5.336-10.239-7.81-11.437-7.81C71.785,60.569,71.776,60.569,71.769,60.569z"/>
					</g>
				</g>
				<g>
					<g>
						<path class="st5" d="M88.222,82.869c-0.232,0-0.466-0.081-0.654-0.244c-1.841-1.593-3.689-3.313-5.493-5.113
							c-1.804-1.8-3.53-3.646-5.131-5.485c-0.354-0.407-0.322-1.021,0.072-1.388c3.341-3.111,8.495-3.017,11.73,0.211
							c3.235,3.228,3.326,8.368,0.206,11.702C88.756,82.762,88.489,82.869,88.222,82.869z M79.138,71.494
							c1.374,1.545,2.833,3.09,4.349,4.602c1.517,1.513,3.064,2.968,4.612,4.336c1.736-2.514,1.469-5.938-0.765-8.167
							C85.095,70.034,81.661,69.763,79.138,71.494z"/>
					</g>
				</g>
			</g>
		</g>
		<g>
			<g>
				<g>
					<path class="st5" d="M56.188,29.815c-0.155,0-0.312-0.036-0.455-0.109c-5.16-2.634-10.236-3.97-15.085-3.97
						c-0.553,0-1-0.448-1-1v-6.741c0-2.754,2.246-4.995,5.006-4.995h7.529c2.76,0,5.005,2.241,5.005,4.995v10.82
						c0,0.348-0.181,0.671-0.478,0.853C56.551,29.766,56.37,29.815,56.188,29.815z M41.648,23.753
						c4.397,0.153,8.941,1.315,13.54,3.46v-9.219c0-1.651-1.348-2.995-3.005-2.995h-7.529c-1.657,0-3.006,1.343-3.006,2.995V23.753z
						"/>
				</g>
			</g>
			<g>
				<g>
					<path class="st5" d="M40.648,86.163c-0.129,0-0.26-0.025-0.383-0.076c-0.374-0.155-0.617-0.52-0.617-0.924V56.736
						c0-0.552,0.447-1,1-1c4.849,0,9.925-1.336,15.085-3.97c0.312-0.159,0.681-0.144,0.978,0.038
						c0.297,0.182,0.478,0.505,0.478,0.853v17.006c0,0.266-0.105,0.521-0.294,0.708l-15.54,15.5
						C41.163,86.062,40.908,86.163,40.648,86.163z M41.648,57.718v25.035l13.54-13.506v-14.99
						C50.59,56.403,46.046,57.565,41.648,57.718z"/>
				</g>
			</g>
			<g>
				<g>
					<path class="st5" d="M102.807,52.332c-0.129,0-0.26-0.025-0.383-0.076c-0.374-0.155-0.617-0.52-0.617-0.924V17.995
						c0-2.754,2.245-4.995,5.005-4.995h7.529c2.76,0,5.005,2.241,5.005,4.995v22.741c0,0.552-0.447,1-1,1h-11.55l2.813,2.807
						c0.188,0.188,0.294,0.442,0.294,0.708s-0.105,0.521-0.294,0.708l-6.097,6.082C103.321,52.23,103.066,52.332,102.807,52.332z
						 M103.807,41.579v7.342l3.681-3.671L103.807,41.579z M106.812,15c-1.657,0-3.005,1.343-3.005,2.995v21.919
						c0.164-0.114,0.362-0.179,0.57-0.179h12.969V17.995c0-1.651-1.348-2.995-3.005-2.995H106.812z"/>
				</g>
			</g>
			<g>
				<g>
					<path class="st5" d="M87.268,71.802c-0.256,0-0.509-0.099-0.699-0.285c-6.986-6.835-13.026-10.921-14.829-10.924
						c-0.258,0-0.506-0.101-0.692-0.279c-0.196-0.188-0.319-0.461-0.319-0.733V17.995c0-2.754,2.245-4.995,5.005-4.995h7.529
						c2.76,0,5.006,2.241,5.006,4.995v52.807c0,0.402-0.241,0.766-0.612,0.922C87.53,71.776,87.398,71.802,87.268,71.802z
						 M72.728,58.738c3.245,0.854,8.867,5.346,13.54,9.723V17.995c0-1.651-1.349-2.995-3.006-2.995h-7.529
						c-1.657,0-3.005,1.343-3.005,2.995V58.738z"/>
				</g>
			</g>
			<g>
				<g>
					<path class="st5" d="M9.57,41.735c-0.118,0-0.236-0.021-0.351-0.064c-0.391-0.146-0.649-0.519-0.649-0.936V17.995
						c0-2.754,2.245-4.995,5.005-4.995h7.529c2.76,0,5.005,2.241,5.005,4.995v10.82c0,0.376-0.211,0.72-0.545,0.891
						c-8.995,4.591-15.179,11.616-15.24,11.687C10.131,41.614,9.854,41.735,9.57,41.735z M13.575,15
						c-1.657,0-3.005,1.343-3.005,2.995v20.243c2.435-2.413,7.247-6.717,13.539-10.031V17.995c0-1.651-1.348-2.995-3.005-2.995
						H13.575z M25.109,28.815h0.01H25.109z"/>
				</g>
			</g>
			<g>
				<g>
					<path class="st5" d="M9.57,99.689c-0.129,0-0.26-0.025-0.383-0.076c-0.374-0.155-0.617-0.52-0.617-0.924V40.735
						c0-0.417,0.259-0.79,0.649-0.936c0.389-0.146,0.83-0.036,1.104,0.279c0.062,0.07,6.245,7.096,15.24,11.687
						c0.334,0.171,0.545,0.515,0.545,0.891v30.533c0,0.266-0.105,0.521-0.294,0.708l-15.539,15.5
						C10.085,99.588,9.83,99.689,9.57,99.689z M10.57,43.233v53.046l13.539-13.505v-29.51C17.817,49.951,13.005,45.646,10.57,43.233
						z"/>
				</g>
			</g>
		</g>
		<g>
			<g>
				<g>
					<g>
						<path class="st5" d="M40.648,57.736c-17.419,0-31.252-15.677-31.833-16.344c-0.327-0.376-0.327-0.936,0-1.312
							c0.581-0.667,14.414-16.344,31.833-16.344c17.42,0,31.253,15.676,31.834,16.344c0.327,0.376,0.327,0.936,0,1.312
							C71.901,42.059,58.068,57.736,40.648,57.736z M10.932,40.735c2.828,2.971,15.183,15.001,29.717,15.001
							c14.552,0,26.893-12.028,29.718-15c-2.828-2.971-15.183-15-29.718-15C26.098,25.735,13.757,37.763,10.932,40.735z"/>
					</g>
				</g>
			</g>
			<g>
				<g>
					<path class="st5" d="M40.648,57.661c-9.375,0-17.003-7.609-17.003-16.963s7.628-16.963,17.003-16.963
						c9.376,0,17.004,7.609,17.004,16.963S50.024,57.661,40.648,57.661z M40.648,25.735c-8.272,0-15.003,6.712-15.003,14.963
						s6.73,14.963,15.003,14.963c8.273,0,15.004-6.712,15.004-14.963S48.922,25.735,40.648,25.735z"/>
				</g>
			</g>
		</g>
		<g>
			<g>
				<path class="st5" d="M48.15,42.389c-0.553,0-1-0.448-1-1c0-3.575-2.917-6.483-6.502-6.483c-1.736,0-3.369,0.675-4.598,1.9
					c-0.392,0.39-1.024,0.389-1.414-0.002c-0.39-0.391-0.39-1.024,0.002-1.414c1.605-1.602,3.74-2.484,6.01-2.484
					c4.688,0,8.502,3.806,8.502,8.483C49.15,41.941,48.703,42.389,48.15,42.389z"/>
			</g>
			<g>
				<path class="st5" d="M40.648,49.872c-4.688,0-8.501-3.805-8.501-8.483c0-0.552,0.447-1,1-1s1,0.448,1,1
					c0,3.575,2.916,6.483,6.501,6.483c1.737,0,3.37-0.675,4.599-1.9c0.392-0.39,1.024-0.389,1.414,0.002
					c0.39,0.391,0.39,1.024-0.002,1.414C45.054,48.989,42.919,49.872,40.648,49.872z"/>
			</g>
			<g>
				<path class="st5" d="M30.914,45.607c-0.196,0-0.396-0.058-0.569-0.178c-0.453-0.315-0.566-0.938-0.251-1.392l2.232-3.218
					c0.312-0.453,0.935-0.566,1.39-0.253l3.227,2.226c0.454,0.314,0.568,0.937,0.255,1.391c-0.314,0.454-0.936,0.569-1.392,0.255
					l-2.405-1.66l-1.664,2.398C31.543,45.457,31.23,45.607,30.914,45.607z"/>
			</g>
			<g>
				<path class="st5" d="M48.149,42.389c-0.195,0-0.394-0.057-0.567-0.177l-3.227-2.227c-0.454-0.314-0.568-0.937-0.255-1.391
					s0.935-0.57,1.392-0.255l2.405,1.66l1.664-2.399c0.312-0.455,0.937-0.567,1.392-0.252c0.453,0.315,0.566,0.938,0.251,1.392
					l-2.232,3.219C48.778,42.239,48.466,42.389,48.149,42.389z"/>
			</g>
		</g>
	</g>
</g>
</svg>
