<?xml version="1.0" encoding="utf-8"?>
<!-- Generator: Adobe Illustrator 22.0.0, SVG Export Plug-In . SVG Version: 6.00 Build 0)  -->
<svg version="1.1" id="MARKET_RESEARCH_ICON_SET" xmlns="http://www.w3.org/2000/svg" xmlns:xlink="http://www.w3.org/1999/xlink"
	 x="0px" y="0px" viewBox="0 0 128 128" style="enable-background:new 0 0 128 128;" xml:space="preserve">
<style type="text/css">
	.st0{fill:#C2D5EC;}
	.st1{fill:#61E1FF;}
	.st2{fill:#7184AF;}
	.st3{fill:#F8F8F8;}
	.st4{fill:#3F4D81;}
	.st5{fill:#3F4D80;}
	.st6{fill:#E9EAEB;}
	.st7{fill:#F79559;}
	.st8{fill:#FFA85A;}
</style>
<g>
	<g>
		<g>
			<path class="st0" d="M92.936,88.006c-22.329,0-36.176-24.365-56.601-23.982C15.815,64.408,0,81.305,0,81.305v30.044h128V62.212
				C128,62.212,115.103,88.006,92.936,88.006z"/>
		</g>
		<g>
			<ellipse class="st6" cx="64" cy="64" rx="47.152" ry="47.25"/>
		</g>
		<g>
			<path class="st1" d="M99.983,27.942c-19.873-19.914-52.093-19.914-71.966,0C10.868,45.127,8.531,71.52,20.98,91.23l2.71-2.716
				c-11.031-18.183-8.715-42.21,6.968-57.926c18.414-18.453,48.27-18.453,66.684,0c18.414,18.453,18.414,48.37,0,66.823
				s-48.27,18.453-66.684,0c-0.421-0.422-0.822-0.856-1.223-1.289l-2.641,2.646c0.403,0.433,0.802,0.868,1.223,1.289
				c19.873,19.914,52.093,19.914,71.966,0C119.856,80.144,119.856,47.856,99.983,27.942z"/>
		</g>
		<g>
			<ellipse class="st6" cx="64" cy="64" rx="47.152" ry="47.25"/>
		</g>
		<g>
			<path class="st3" d="M67.44,111.118c-1.14,0.09-2.28,0.13-3.44,0.13c-26.04,0-47.15-21.154-47.15-47.248
				c0-26.094,21.11-47.248,47.15-47.248c1.16,0,2.3,0.04,3.44,0.13C43,18.636,23.72,39.068,23.72,64S43,109.364,67.44,111.118z"/>
		</g>
		<g>
			<path class="st4" d="M57.822,43c-13.231,0-23.956,10.748-23.956,24.006c0,5.661,1.96,10.86,5.23,14.964l-4.786,4.796
				c0,0,0.001,0,0.001,0c-1.156-0.522-2.561-0.316-3.511,0.636l-10.128,10.15c-1.228,1.23-1.228,3.225,0,4.455l2.223,2.227
				c1.228,1.23,3.218,1.23,4.445,0l10.128-10.15c0.95-0.952,1.156-2.36,0.635-3.519c0,0,0,0.001,0.001,0.001l4.786-4.796
				c4.096,3.277,9.284,5.241,14.933,5.241c13.231,0,23.956-10.748,23.956-24.006C81.778,53.748,71.052,43,57.822,43z"/>
		</g>
		<g>
			<path class="st5" d="M25.116,106.157c-1.107,0-2.147-0.432-2.931-1.217l-2.223-2.227c-1.614-1.618-1.614-4.25,0-5.867
				l10.128-10.15c1.036-1.038,2.556-1.433,3.953-1.078l3.725-3.733c-3.211-4.329-4.903-9.454-4.903-14.878
				C32.865,53.218,44.061,42,57.822,42c13.761,0,24.956,11.218,24.956,25.007c0,13.788-11.195,25.006-24.956,25.006
				c-5.414,0-10.528-1.695-14.848-4.912l-3.725,3.732c0.355,1.4-0.039,2.922-1.076,3.958l-10.127,10.15
				C27.264,105.725,26.224,106.157,25.116,106.157z M33.006,87.484c-0.552,0-1.09,0.215-1.499,0.625l-10.128,10.15
				c-0.837,0.838-0.837,2.203,0,3.042l2.223,2.227c0.809,0.811,2.221,0.811,3.029,0l10.128-10.15
				c0.634-0.634,0.803-1.576,0.431-2.402c-0.17-0.378-0.089-0.823,0.204-1.117l4.787-4.795c0.361-0.361,0.937-0.393,1.333-0.074
				c4.105,3.286,9.054,5.022,14.309,5.022c12.658,0,22.956-10.32,22.956-23.006S70.48,44,57.822,44S34.865,54.321,34.865,67.006
				c0,5.266,1.733,10.225,5.013,14.341c0.316,0.397,0.285,0.97-0.074,1.329l-4.786,4.796c-0.294,0.294-0.741,0.375-1.119,0.205
				C33.609,87.547,33.306,87.484,33.006,87.484z"/>
		</g>
		<g>
			<g>
				<ellipse class="st1" cx="54.822" cy="64" rx="23.956" ry="24.006"/>
			</g>
			<g>
				<ellipse class="st3" cx="54.822" cy="64" rx="18.566" ry="18.604"/>
			</g>
			<g>
				<path class="st7" d="M32.245,84.397c-0.278-0.278-0.597-0.484-0.935-0.637l4.786-4.796c1.119,1.405,2.392,2.68,3.793,3.801
					l-4.786,4.796c-0.152-0.339-0.358-0.659-0.635-0.937L32.245,84.397z"/>
			</g>
			<g>
				<path class="st2" d="M34.467,91.079l-10.128,10.15c-1.228,1.23-3.218,1.23-4.445,0l-2.223-2.227
					c-1.228-1.23-1.228-3.225,0-4.455l10.128-10.15c1.228-1.23,3.218-1.23,4.445,0l2.223,2.227
					C35.695,87.854,35.695,89.849,34.467,91.079z"/>
			</g>
		</g>
		<g>
			<g>
				<path class="st6" d="M64.077,53.69c-3.292,0-5.902,5.339-10.117,5.339h-1.686v7.627h1.686c0.042,0,0.089,0,0.131,0.004
					c4.139,0.108,6.683,5.339,9.987,5.339c-0.708,0-1.313-2.407-1.555-5.81c-0.073-1.034-0.116-2.164-0.116-3.345
					c0-1.181,0.042-2.311,0.116-3.349C62.764,56.097,63.368,53.69,64.077,53.69z"/>
			</g>
			<g>
				<path class="st8" d="M43.9,62.845c0,1.053,0.426,2.007,1.112,2.701c0.693,0.687,1.644,1.114,2.695,1.114c0,0,2.634,0,4.568,0
					V59.03h-4.568C45.605,59.03,43.9,60.739,43.9,62.845z"/>
			</g>
			<g>
				<polygon class="st2" points="50.181,74.31 52.275,74.31 52.275,66.659 48.636,66.659 				"/>
			</g>
			<g>
				<path class="st8" d="M64.077,53.69c-0.708,0-1.313,2.407-1.555,5.806c-0.073,1.038-0.115,2.168-0.115,3.349
					c0,1.181,0.042,2.311,0.115,3.345c0.243,3.403,0.847,5.81,1.555,5.81c0.92,0,1.667-4.101,1.667-9.155
					C65.744,57.791,64.997,53.69,64.077,53.69z"/>
			</g>
		</g>
		<g>
			<g>
				<rect x="73.387" y="30.832" class="st8" width="4.874" height="9.162"/>
			</g>
			<g>
				<rect x="83.135" y="25.814" class="st8" width="4.874" height="14.18"/>
			</g>
			<g>
				<rect x="92.882" y="21.233" class="st8" width="4.874" height="18.761"/>
			</g>
			<g>
				<rect x="102.629" y="16.652" class="st8" width="4.874" height="23.342"/>
			</g>
		</g>
		<g>
			<g>
				<rect x="76.261" y="30.832" class="st2" width="2" height="9.162"/>
			</g>
			<g>
				<rect x="86.008" y="25.814" class="st2" width="2" height="14.18"/>
			</g>
			<g>
				<rect x="95.756" y="21.233" class="st2" width="2" height="18.761"/>
			</g>
			<g>
				<rect x="105.503" y="16.652" class="st2" width="2" height="23.342"/>
			</g>
		</g>
		<g>
			<ellipse class="st2" cx="94.964" cy="64" rx="5.442" ry="5.453"/>
		</g>
	</g>
	<g>
		<g>
			<g>
				<path class="st5" d="M127,112.348H82.927c-0.553,0-1-0.448-1-1c0-0.552,0.447-1,1-1H127c0.553,0,1,0.448,1,1
					C128,111.901,127.553,112.348,127,112.348z"/>
			</g>
		</g>
		<g>
			<g>
				<path class="st5" d="M45.071,112.348H1c-0.553,0-1-0.448-1-1c0-0.552,0.447-1,1-1h44.071c0.553,0,1,0.448,1,1
					C46.071,111.901,45.624,112.348,45.071,112.348z"/>
			</g>
		</g>
		<g>
			<g>
				<g>
					<g>
						<path class="st5" d="M111.883,82.296c-0.307,0-0.609-0.14-0.805-0.406c-0.329-0.444-0.234-1.07,0.209-1.398
							c0.264-0.195,0.523-0.392,0.781-0.592c0.438-0.336,1.065-0.257,1.403,0.179c0.338,0.437,0.258,1.065-0.179,1.403
							c-0.27,0.209-0.541,0.415-0.816,0.619C112.298,82.232,112.089,82.296,111.883,82.296z"/>
					</g>
				</g>
				<g>
					<g>
						<path class="st5" d="M115.619,79.217c-0.271,0-0.542-0.11-0.739-0.327c-0.372-0.409-0.343-1.041,0.066-1.412
							c0.47-0.428,0.926-0.86,1.368-1.294c0.396-0.386,1.027-0.38,1.415,0.015c0.386,0.394,0.38,1.028-0.015,1.414
							c-0.46,0.45-0.934,0.899-1.423,1.344C116.101,79.131,115.859,79.217,115.619,79.217z M119.665,75.12
							c-0.237,0-0.476-0.084-0.666-0.254c-0.412-0.368-0.447-1-0.08-1.411c0.431-0.482,0.843-0.959,1.236-1.429
							c0.356-0.422,0.985-0.478,1.409-0.124c0.423,0.354,0.479,0.985,0.124,1.409c-0.407,0.485-0.833,0.978-1.277,1.476
							C120.213,75.007,119.939,75.12,119.665,75.12z M123.297,70.65c-0.207,0-0.415-0.064-0.594-0.196
							c-0.444-0.329-0.537-0.955-0.209-1.399c0.398-0.539,0.766-1.053,1.102-1.535c0.315-0.454,0.938-0.566,1.392-0.252
							c0.453,0.315,0.566,0.938,0.251,1.391c-0.346,0.499-0.725,1.03-1.137,1.586C123.905,70.509,123.604,70.65,123.297,70.65z"/>
					</g>
				</g>
				<g>
					<g>
						<path class="st5" d="M126.503,65.863c-0.174,0-0.35-0.045-0.51-0.141c-0.475-0.282-0.631-0.896-0.349-1.37
							c0.309-0.519,0.47-0.816,0.476-0.827c0.262-0.485,0.866-0.665,1.354-0.405c0.485,0.262,0.667,0.868,0.405,1.354
							c0,0-0.175,0.325-0.517,0.9C127.177,65.689,126.844,65.863,126.503,65.863z"/>
					</g>
				</g>
			</g>
			<g>
				<g>
					<g>
						<path class="st5" d="M72.578,82.53c-0.174,0-0.351-0.045-0.511-0.141c-0.289-0.172-0.578-0.347-0.867-0.525
							c-0.471-0.29-0.618-0.905-0.328-1.376c0.288-0.47,0.905-0.617,1.375-0.328c0.281,0.173,0.562,0.343,0.844,0.511
							c0.475,0.283,0.63,0.896,0.348,1.37C73.251,82.356,72.919,82.53,72.578,82.53z"/>
					</g>
				</g>
				<g>
					<g>
						<path class="st5" d="M93.691,88.996c-0.54,0-0.984-0.431-0.999-0.974c-0.014-0.552,0.422-1.012,0.974-1.026
							c0.657-0.018,1.316-0.058,1.961-0.121c0.541-0.056,1.039,0.349,1.092,0.898c0.054,0.55-0.349,1.039-0.898,1.092
							c-0.69,0.067-1.397,0.111-2.102,0.129C93.71,88.996,93.701,88.996,93.691,88.996z M89.63,88.827
							c-0.036,0-0.072-0.002-0.108-0.006c-0.688-0.074-1.388-0.173-2.079-0.293c-0.544-0.095-0.908-0.613-0.813-1.157
							c0.095-0.543,0.604-0.907,1.157-0.813c0.646,0.113,1.295,0.205,1.95,0.276c0.549,0.06,0.946,0.553,0.887,1.101
							C90.567,88.448,90.134,88.827,89.63,88.827z M99.731,88.185c-0.449,0-0.858-0.305-0.97-0.761
							c-0.132-0.536,0.195-1.078,0.731-1.21c0.631-0.155,1.267-0.335,1.893-0.535c0.523-0.17,1.089,0.122,1.257,0.647
							c0.169,0.526-0.121,1.089-0.647,1.257c-0.668,0.214-1.35,0.407-2.023,0.573C99.891,88.176,99.811,88.185,99.731,88.185z
							 M83.659,87.603c-0.095,0-0.191-0.014-0.287-0.042c-0.665-0.2-1.326-0.418-1.984-0.655c-0.52-0.187-0.79-0.759-0.604-1.279
							c0.187-0.52,0.761-0.791,1.279-0.603c0.625,0.224,1.251,0.432,1.883,0.621c0.529,0.159,0.829,0.716,0.671,1.245
							C84.487,87.323,84.09,87.603,83.659,87.603z M77.965,85.409c-0.142,0-0.285-0.03-0.422-0.094
							c-0.622-0.29-1.242-0.595-1.862-0.913c-0.491-0.252-0.685-0.855-0.433-1.347c0.254-0.49,0.854-0.686,1.347-0.433
							c0.597,0.307,1.195,0.601,1.794,0.881c0.501,0.233,0.717,0.829,0.483,1.329C78.702,85.196,78.342,85.409,77.965,85.409z"/>
					</g>
				</g>
				<g>
					<g>
						<path class="st5" d="M105.491,86.147c-0.379,0-0.74-0.215-0.909-0.581c-0.231-0.501-0.012-1.096,0.489-1.327
							c0.294-0.136,0.588-0.275,0.88-0.419c0.494-0.243,1.095-0.039,1.339,0.456c0.243,0.496,0.039,1.095-0.456,1.339
							c-0.308,0.151-0.615,0.298-0.925,0.44C105.773,86.117,105.631,86.147,105.491,86.147z"/>
					</g>
				</g>
			</g>
			<g>
				<g>
					<path class="st5" d="M67.048,79c-0.191,0-0.384-0.055-0.555-0.168c-1.265-0.846-2.533-1.717-3.804-2.59
						c-3.571-2.455-7.266-4.993-10.885-6.915c-0.488-0.259-0.674-0.864-0.414-1.352c0.258-0.488,0.863-0.672,1.352-0.414
						c3.721,1.975,7.462,4.547,11.08,7.033c1.264,0.869,2.524,1.735,3.782,2.575c0.459,0.307,0.583,0.928,0.275,1.387
						C67.687,78.844,67.371,79,67.048,79z"/>
				</g>
			</g>
			<g>
				<g>
					<path class="st5" d="M44.735,66.234c-0.095,0-0.191-0.014-0.286-0.042c-2.834-0.848-5.353-1.21-8.179-1.166
						c-0.005,0-0.01,0-0.015,0c-0.546,0-0.992-0.438-1-0.985c-0.008-0.552,0.434-1.006,0.985-1.015
						c3.044-0.041,5.743,0.342,8.78,1.25c0.529,0.158,0.83,0.715,0.672,1.244C45.563,65.954,45.166,66.234,44.735,66.234z"/>
				</g>
			</g>
			<g>
				<g>
					<g>
						<path class="st5" d="M17.112,70.006c-0.367,0-0.72-0.202-0.896-0.553c-0.247-0.494-0.047-1.095,0.447-1.342
							c0.302-0.151,0.608-0.299,0.916-0.446c0.501-0.236,1.096-0.023,1.332,0.476c0.237,0.499,0.024,1.095-0.475,1.332
							c-0.296,0.14-0.589,0.282-0.879,0.427C17.415,69.972,17.263,70.006,17.112,70.006z"/>
					</g>
				</g>
				<g>
					<g>
						<path class="st5" d="M22.634,67.649c-0.41,0-0.795-0.255-0.941-0.663c-0.187-0.52,0.084-1.092,0.604-1.278
							c0.796-0.285,1.606-0.552,2.428-0.799c0.53-0.159,1.087,0.141,1.246,0.669c0.159,0.529-0.141,1.086-0.67,1.245
							c-0.788,0.237-1.565,0.494-2.33,0.767C22.859,67.63,22.746,67.649,22.634,67.649z"/>
					</g>
				</g>
				<g>
					<g>
						<path class="st5" d="M29.885,65.682c-0.473,0-0.894-0.336-0.982-0.818c-0.101-0.543,0.259-1.065,0.802-1.165
							c0.334-0.062,0.67-0.12,1.008-0.174c0.543-0.089,1.059,0.283,1.146,0.828c0.088,0.545-0.283,1.058-0.828,1.146
							c-0.322,0.052-0.643,0.107-0.963,0.166C30.006,65.677,29.945,65.682,29.885,65.682z"/>
					</g>
				</g>
			</g>
			<g>
				<g>
					<g>
						<path class="st5" d="M1,81.274c-0.255,0-0.51-0.097-0.705-0.291c-0.392-0.39-0.393-1.022-0.003-1.413
							c0,0,0.259-0.261,0.752-0.716c0.404-0.374,1.036-0.352,1.413,0.056c0.375,0.406,0.35,1.038-0.056,1.413
							c-0.446,0.412-0.685,0.65-0.693,0.659C1.513,81.177,1.257,81.274,1,81.274z"/>
					</g>
				</g>
				<g>
					<g>
						<path class="st5" d="M4.312,78.337c-0.289,0-0.575-0.124-0.773-0.365c-0.351-0.427-0.289-1.057,0.138-1.408
							c0.417-0.344,0.871-0.708,1.357-1.088c0.435-0.341,1.062-0.265,1.403,0.17c0.341,0.435,0.265,1.063-0.171,1.404
							c-0.473,0.371-0.913,0.725-1.32,1.059C4.761,78.262,4.535,78.337,4.312,78.337z M8.403,75.212
							c-0.313,0-0.622-0.146-0.816-0.421c-0.319-0.451-0.214-1.075,0.237-1.394c0.459-0.326,0.938-0.657,1.433-0.99
							c0.458-0.309,1.079-0.186,1.388,0.272c0.308,0.458,0.187,1.079-0.272,1.388c-0.481,0.323-0.944,0.644-1.392,0.961
							C8.806,75.153,8.604,75.212,8.403,75.212z"/>
					</g>
				</g>
				<g>
					<g>
						<path class="st5" d="M12.716,72.388c-0.339,0-0.669-0.172-0.857-0.483c-0.285-0.473-0.133-1.088,0.34-1.373
							c0.287-0.173,0.579-0.347,0.875-0.518c0.48-0.278,1.091-0.114,1.367,0.363c0.277,0.477,0.114,1.089-0.363,1.367
							c-0.286,0.166-0.568,0.333-0.846,0.501C13.07,72.342,12.892,72.388,12.716,72.388z"/>
					</g>
				</g>
			</g>
		</g>
		<g>
			<g>
				<g>
					<path class="st5" d="M64.077,72.999c-0.046,0-0.097,0-0.151-0.003c-1.871-0.068-3.435-1.391-4.948-2.671
						c-1.521-1.287-3.096-2.618-4.914-2.666l-0.104-1.003v1h-1.686c-0.553,0-1-0.448-1-1v-7.627c0-0.552,0.447-1,1-1h1.686
						c1.873,0,3.49-1.363,5.055-2.681c1.508-1.271,3.066-2.584,4.907-2.655c0.057-0.003,0.108-0.003,0.156-0.003
						c0.553,0,1,0.448,1,1c0,0.428-0.27,0.794-0.648,0.936c-0.213,0.378-0.685,1.778-0.91,4.941
						c-0.074,1.059-0.112,2.162-0.112,3.277c0,1.117,0.038,2.218,0.112,3.274c0.226,3.166,0.697,4.567,0.91,4.945
						c0.379,0.142,0.648,0.508,0.648,0.936C65.077,72.552,64.63,72.999,64.077,72.999z M53.273,65.656h0.686
						c0.073,0,0.151,0.001,0.224,0.008c2.454,0.062,4.384,1.694,6.087,3.134c0.608,0.515,1.201,1.016,1.78,1.41
						c-0.219-0.953-0.403-2.233-0.525-3.949c-0.078-1.102-0.118-2.252-0.118-3.416c0-1.162,0.04-2.312,0.118-3.419
						c0.121-1.705,0.305-2.978,0.521-3.929c-0.565,0.388-1.147,0.878-1.743,1.381c-1.753,1.477-3.74,3.152-6.344,3.152h-0.686
						V65.656z"/>
				</g>
			</g>
			<g>
				<g>
					<path class="st5" d="M52.274,67.659h-4.567c-1.279,0-2.486-0.498-3.399-1.404c-0.911-0.922-1.408-2.131-1.408-3.411
						c0-2.655,2.156-4.815,4.808-4.815h4.567c0.553,0,1,0.448,1,1v7.629C53.274,67.212,52.827,67.659,52.274,67.659z M47.707,60.03
						c-1.548,0-2.808,1.263-2.808,2.815c0,0.75,0.293,1.46,0.824,1.998c0.528,0.524,1.235,0.816,1.983,0.816h3.567v-5.63H47.707z"/>
				</g>
			</g>
			<g>
				<g>
					<path class="st5" d="M52.274,75.31h-2.094c-0.476,0-0.886-0.335-0.98-0.802l-1.545-7.651c-0.06-0.294,0.017-0.599,0.207-0.831
						c0.189-0.232,0.474-0.367,0.773-0.367h3.639c0.553,0,1,0.448,1,1v7.651C53.274,74.862,52.827,75.31,52.274,75.31z
						 M50.999,73.31h0.275v-5.651h-1.417L50.999,73.31z"/>
				</g>
			</g>
			<g>
				<g>
					<path class="st5" d="M64.077,72.999c-0.62,0-2.073,0-2.553-6.739c-0.078-1.102-0.118-2.252-0.118-3.416
						c0-1.162,0.04-2.312,0.118-3.419c0.479-6.735,1.933-6.735,2.553-6.735c2.32,0,2.667,6.362,2.667,10.154
						C66.744,66.637,66.397,72.999,64.077,72.999z M64.077,55.633c-0.202,0.789-0.424,2.049-0.559,3.934
						c-0.074,1.059-0.112,2.162-0.112,3.277c0,1.117,0.038,2.218,0.112,3.274c0.135,1.887,0.356,3.148,0.559,3.937
						c0.332-1.322,0.667-3.763,0.667-7.211C64.744,59.396,64.409,56.955,64.077,55.633z"/>
				</g>
			</g>
		</g>
		<g>
			<g>
				<g>
					<path class="st5" d="M102.629,37.916c-0.32,0-0.629-0.154-0.819-0.427c-1.428-2.041-3.032-3.981-4.771-5.767
						c-0.182-0.187-0.283-0.437-0.283-0.697v-5.174c0-0.394,0.231-0.751,0.591-0.912c0.357-0.16,0.78-0.096,1.074,0.166
						c0.861,0.767,1.604,1.465,2.27,2.132c0.853,0.854,1.735,1.817,2.698,2.941c0.155,0.181,0.24,0.412,0.24,0.65v6.089
						c0,0.436-0.283,0.823-0.699,0.953C102.83,37.901,102.729,37.916,102.629,37.916z M98.756,30.621
						c1.005,1.05,1.965,2.149,2.873,3.288v-2.711c-0.836-0.966-1.608-1.803-2.354-2.549c-0.167-0.168-0.34-0.338-0.519-0.511V30.621
						z"/>
				</g>
			</g>
			<g>
				<g>
					<path class="st5" d="M64,115.993c-13.86,0-26.891-5.408-36.69-15.229c-0.359-0.359-0.703-0.729-1.046-1.098l-0.201-0.215
						c-0.367-0.394-0.356-1.007,0.023-1.388l2.641-2.647c0.191-0.193,0.445-0.287,0.727-0.294c0.272,0.005,0.53,0.121,0.715,0.321
						c0.405,0.437,0.792,0.855,1.198,1.263c8.717,8.735,20.307,13.546,32.634,13.546s23.917-4.811,32.634-13.546
						c14.902-14.933,17.835-38.044,7.132-56.203c-0.183-0.309-0.185-0.692-0.007-1.004s0.51-0.504,0.868-0.504h1.876v-1.45
						c0-0.449,0.299-0.842,0.73-0.963c0.433-0.124,0.893,0.061,1.125,0.444c12.452,20.526,9.299,46.737-7.668,63.739
						C90.891,110.585,77.86,115.993,64,115.993z M28.184,98.792c0.177,0.188,0.356,0.374,0.541,0.559
						c9.423,9.443,21.95,14.643,35.275,14.643s25.853-5.2,35.274-14.642c15.585-15.617,19.05-39.314,8.891-58.608
						c-0.177,0.156-0.408,0.25-0.662,0.25h-1.162c10.143,18.7,6.844,41.957-8.291,57.124c-9.095,9.114-21.188,14.133-34.05,14.133
						s-24.955-5.019-34.05-14.133c-0.183-0.184-0.362-0.369-0.54-0.556L28.184,98.792z"/>
				</g>
			</g>
			<g>
				<g>
					<path class="st5" d="M20.979,92.23c-0.037,0-0.073-0.002-0.11-0.006c-0.303-0.033-0.573-0.203-0.735-0.46
						c-12.85-20.347-9.832-47.485,7.176-64.528c17.726-17.762,45.543-20.3,66.142-6.034c0.27,0.187,0.431,0.494,0.431,0.822v4.639
						c0,0.382-0.218,0.731-0.561,0.898c-0.344,0.168-0.752,0.125-1.054-0.109c-18.309-14.257-44.49-12.603-60.901,3.843l0,0
						c-15.094,15.125-17.898,38.441-6.82,56.701c0.238,0.394,0.178,0.899-0.147,1.225l-2.711,2.716
						C21.499,92.126,21.243,92.23,20.979,92.23z M64.016,13.994c-12.86,0-25.633,4.977-35.29,14.655
						c-16.059,16.091-19.147,41.54-7.558,60.978l1.266-1.268C11.35,69.413,14.39,45.475,29.95,29.882
						c16.646-16.683,42.93-18.777,61.932-5.212v-2.119C83.401,16.806,73.685,13.994,64.016,13.994z M30.658,30.589h0.01H30.658z"/>
				</g>
			</g>
		</g>
		<g>
			<g>
				<g>
					<path class="st5" d="M54.821,89.006c-13.761,0-24.956-11.218-24.956-25.006s11.195-25.006,24.956-25.006
						c13.762,0,24.957,11.218,24.957,25.006S68.583,89.006,54.821,89.006z M54.821,40.994c-12.658,0-22.956,10.32-22.956,23.006
						s10.298,23.006,22.956,23.006S77.778,76.686,77.778,64S67.479,40.994,54.821,40.994z"/>
				</g>
			</g>
			<g>
				<g>
					<path class="st5" d="M54.821,83.604c-10.788,0-19.565-8.794-19.565-19.604s8.777-19.604,19.565-19.604
						c10.789,0,19.566,8.794,19.566,19.604S65.61,83.604,54.821,83.604z M54.821,46.396c-9.686,0-17.565,7.897-17.565,17.604
						s7.88,17.604,17.565,17.604c9.687,0,17.566-7.897,17.566-17.604S64.508,46.396,54.821,46.396z"/>
				</g>
			</g>
			<g>
				<g>
					<path class="st5" d="M35.103,88.561c-0.06,0-0.12-0.005-0.18-0.016c-0.324-0.06-0.598-0.274-0.732-0.574
						c-0.115-0.256-0.256-0.466-0.431-0.641l-2.224-2.228c-0.173-0.174-0.388-0.319-0.638-0.432
						c-0.299-0.135-0.514-0.408-0.572-0.731c-0.06-0.323,0.044-0.655,0.275-0.887l4.786-4.796c0.202-0.202,0.482-0.304,0.764-0.292
						c0.284,0.016,0.549,0.152,0.727,0.375c1.071,1.345,2.294,2.57,3.636,3.644c0.222,0.178,0.357,0.441,0.373,0.725
						c0.017,0.284-0.09,0.56-0.29,0.762l-4.786,4.796C35.621,88.457,35.365,88.561,35.103,88.561z M32.871,83.611
						c0.027,0.026,0.054,0.052,0.081,0.079l0,0l2.223,2.227c0.025,0.026,0.052,0.052,0.076,0.079l3.159-3.166
						c-0.846-0.741-1.642-1.538-2.381-2.385L32.871,83.611z"/>
				</g>
			</g>
			<g>
				<g>
					<path class="st5" d="M22.116,103.151c-1.107,0-2.147-0.432-2.931-1.216l-2.223-2.228c-1.614-1.617-1.614-4.249,0-5.866
						l10.128-10.15c0.783-0.784,1.823-1.216,2.931-1.216s2.147,0.432,2.931,1.216l2.223,2.227c1.614,1.618,1.614,4.25,0,5.867
						c0,0,0,0,0,0l-10.128,10.15C24.264,102.719,23.224,103.151,22.116,103.151z M30.021,84.474c-0.572,0-1.11,0.223-1.515,0.629
						l-10.128,10.15c-0.837,0.839-0.837,2.203,0,3.042l2.223,2.228c0.809,0.81,2.221,0.811,3.029,0l10.128-10.15v0
						c0.837-0.839,0.837-2.204,0-3.043l-2.223-2.227C31.132,84.698,30.594,84.474,30.021,84.474z M34.467,91.079h0.01H34.467z"/>
				</g>
			</g>
		</g>
		<g>
			<g>
				<path class="st5" d="M54.821,83.604c-10.788,0-19.565-8.794-19.565-19.604s8.777-19.604,19.565-19.604
					c10.789,0,19.566,8.794,19.566,19.604S65.61,83.604,54.821,83.604z M54.821,46.396c-9.686,0-17.565,7.897-17.565,17.604
					s7.88,17.604,17.565,17.604c9.687,0,17.566-7.897,17.566-17.604S64.508,46.396,54.821,46.396z"/>
			</g>
		</g>
		<g>
			<g>
				<g>
					<path class="st5" d="M78.261,40.994h-4.873c-0.553,0-1-0.448-1-1v-9.162c0-0.552,0.447-1,1-1h4.873c0.553,0,1,0.448,1,1v9.162
						C79.261,40.546,78.813,40.994,78.261,40.994z M74.388,38.994h2.873v-7.163h-2.873V38.994z"/>
				</g>
			</g>
			<g>
				<g>
					<path class="st5" d="M88.009,40.994h-4.874c-0.553,0-1-0.448-1-1v-14.18c0-0.552,0.447-1,1-1h4.874c0.553,0,1,0.448,1,1v14.18
						C89.009,40.546,88.562,40.994,88.009,40.994z M84.135,38.994h2.874V26.813h-2.874V38.994z"/>
				</g>
			</g>
			<g>
				<g>
					<path class="st5" d="M97.756,40.994h-4.874c-0.553,0-1-0.448-1-1V21.233c0-0.552,0.447-1,1-1h4.874c0.553,0,1,0.448,1,1v18.761
						C98.756,40.546,98.309,40.994,97.756,40.994z M93.882,38.994h2.874V22.232h-2.874V38.994z"/>
				</g>
			</g>
			<g>
				<g>
					<path class="st5" d="M107.503,40.994h-4.874c-0.553,0-1-0.448-1-1V16.652c0-0.552,0.447-1,1-1h4.874c0.553,0,1,0.448,1,1
						v23.342C108.503,40.546,108.056,40.994,107.503,40.994z M103.629,38.994h2.874V17.651h-2.874V38.994z"/>
				</g>
			</g>
		</g>
		<g>
			<g>
				<path class="st5" d="M94.964,70.453c-3.552,0-6.441-2.895-6.441-6.453c0-3.558,2.89-6.453,6.441-6.453
					c3.553,0,6.442,2.895,6.442,6.453C101.406,67.558,98.517,70.453,94.964,70.453z M94.964,59.546
					c-2.449,0-4.441,1.998-4.441,4.454s1.992,4.454,4.441,4.454s4.442-1.998,4.442-4.454S97.413,59.546,94.964,59.546z"/>
			</g>
		</g>
	</g>
</g>
</svg>
