<?xml version="1.0" encoding="utf-8"?>
<!-- Generator: Adobe Illustrator 22.0.0, SVG Export Plug-In . SVG Version: 6.00 Build 0)  -->
<svg version="1.1" id="MARKET_RESEARCH_ICON_SET" xmlns="http://www.w3.org/2000/svg" xmlns:xlink="http://www.w3.org/1999/xlink"
	 x="0px" y="0px" viewBox="0 0 128 128" style="enable-background:new 0 0 128 128;" xml:space="preserve">
<style type="text/css">
	.st0{fill:#C2D5EC;}
	.st1{fill:#61E1FF;}
	.st2{fill:#7184AF;}
	.st3{fill:#F8F8F8;}
	.st4{fill:#3F4D81;}
	.st5{fill:#3F4D80;}
	.st6{fill:#E9EAEB;}
	.st7{fill:#F79559;}
	.st8{fill:#FFA85A;}
</style>
<g>
	<g>
		<g>
			<ellipse class="st0" cx="64" cy="64" rx="47.184" ry="46.935"/>
		</g>
		<g>
			<path class="st5" d="M101.826,92.002c-1.209-1.203-2.996-1.463-4.468-0.804c0,0,0.001,0,0.001,0l-6.091-6.058
				c4.162-5.184,6.656-11.752,6.656-18.902c0-16.747-13.649-30.324-30.485-30.324S36.955,49.49,36.955,66.237
				c0,16.747,13.649,30.324,30.485,30.324c7.188,0,13.79-2.481,19.002-6.62l6.091,6.058l0-0.001
				c-0.663,1.464-0.401,3.241,0.808,4.444l0.053,0.052c3.168-2.454,6.013-5.297,8.462-8.464L101.826,92.002z"/>
		</g>
		<g>
			<path class="st5" d="M20.769,81.617c-0.167,0-0.329,0.02-0.495,0.025c3.28,8.035,8.724,14.963,15.624,20.06
				c0.41-1.397,0.64-2.87,0.64-4.399C36.539,88.639,29.48,81.617,20.769,81.617z"/>
		</g>
		<g>
			<path class="st5" d="M18.881,50.239c0.62,0.074,1.248,0.123,1.888,0.123c8.71,0,15.769-7.022,15.769-15.686
				c0-2.686-0.681-5.212-1.876-7.422C27.289,33.086,21.707,41.06,18.881,50.239z"/>
		</g>
		<g>
			<path class="st5" d="M101.826,92.002c-1.209-1.203-2.996-1.463-4.468-0.804c0,0,0.001,0,0.001,0l-6.091-6.058
				c4.162-5.184,6.656-11.752,6.656-18.902c0-16.747-13.649-30.324-30.485-30.324S36.955,49.49,36.955,66.237
				c0,16.747,13.649,30.324,30.485,30.324c7.188,0,13.79-2.481,19.002-6.62l6.091,6.058l0-0.001
				c-0.663,1.464-0.401,3.241,0.808,4.444l0.053,0.052c3.168-2.454,6.013-5.297,8.462-8.464L101.826,92.002z"/>
		</g>
		<g>
			<path class="st5" d="M93.395,101.495c-0.257,0-0.514-0.099-0.708-0.293c-1.332-1.325-1.806-3.224-1.312-4.944l-5.016-4.989
				c-5.489,4.12-12.011,6.293-18.919,6.293c-17.361,0-31.485-14.052-31.485-31.324S50.079,34.914,67.44,34.914
				s31.485,14.052,31.485,31.324c0,6.871-2.183,13.358-6.322,18.817l5.014,4.987c1.726-0.495,3.628-0.029,4.916,1.25
				c0.002,0.002,0.005,0.005,0.008,0.008l0.029,0.029c0.351,0.356,0.384,0.917,0.078,1.313c-2.494,3.226-5.401,6.133-8.64,8.643
				C93.825,101.426,93.609,101.495,93.395,101.495z M86.442,88.94c0.256,0,0.511,0.098,0.705,0.291l6.091,6.059
				c0.296,0.294,0.378,0.741,0.206,1.122c-0.402,0.887-0.348,1.873,0.111,2.68c2.536-2.052,4.847-4.363,6.889-6.888
				c-0.81-0.443-1.792-0.49-2.676-0.093c-0.379,0.17-0.821,0.087-1.114-0.204l-6.09-6.059c-0.363-0.361-0.395-0.937-0.075-1.335
				c4.21-5.245,6.436-11.564,6.436-18.275c0-16.169-13.227-29.324-29.485-29.324S37.955,50.068,37.955,66.237
				S51.182,95.561,67.44,95.561c6.75,0,13.105-2.214,18.38-6.404C86.003,89.012,86.223,88.94,86.442,88.94z M101.823,92.005
				l0.004-0.004L101.823,92.005z"/>
		</g>
		<g>
			<path class="st5" d="M20.769,81.617c-0.167,0-0.329,0.02-0.495,0.025c3.28,8.035,8.724,14.963,15.624,20.06
				c0.41-1.397,0.64-2.87,0.64-4.399C36.539,88.639,29.48,81.617,20.769,81.617z"/>
		</g>
		<g>
			<path class="st5" d="M18.881,50.239c0.62,0.074,1.248,0.123,1.888,0.123c8.71,0,15.769-7.022,15.769-15.686
				c0-2.686-0.681-5.212-1.876-7.422C27.289,33.086,21.707,41.06,18.881,50.239z"/>
		</g>
		<g>
			<g>
				<ellipse class="st1" cx="64" cy="62.809" rx="30.485" ry="30.324"/>
			</g>
			<g>
				<path class="st3" d="M65.77,93.075c-0.59,0.04-1.18,0.06-1.77,0.06c-16.84,0-30.48-13.578-30.48-30.329
					c0-16.741,13.64-30.319,30.48-30.319c0.59,0,1.18,0.02,1.77,0.06c-16.02,0.895-28.73,14.105-28.73,30.259
					C37.04,78.97,49.75,92.18,65.77,93.075z"/>
			</g>
			<g>
				<ellipse class="st3" cx="64" cy="62.809" rx="23.625" ry="23.5"/>
			</g>
			<g>
				<path class="st7" d="M92.73,88.574c0.353-0.351,0.76-0.612,1.19-0.804l-6.091-6.058c-1.424,1.774-3.043,3.385-4.827,4.802
					l6.091,6.058c0.193-0.428,0.455-0.832,0.809-1.184L92.73,88.574z"/>
			</g>
			<g>
				<path class="st2" d="M89.901,97.014l12.889,12.82c1.562,1.554,4.095,1.554,5.657,0l2.828-2.813c1.562-1.554,1.562-4.073,0-5.627
					l-12.889-12.82c-1.562-1.554-4.095-1.554-5.657,0l-2.828,2.813C88.339,92.941,88.339,95.46,89.901,97.014z"/>
			</g>
		</g>
		<g>
			<ellipse class="st1" cx="64" cy="62.809" rx="15.442" ry="15.36"/>
		</g>
		<g>
			<ellipse class="st5" cx="64" cy="62.809" rx="4.746" ry="4.721"/>
		</g>
		<g>
			<polygon class="st8" points="101.709,17.065 99.872,27.127 109.988,25.3 98.035,37.189 87.919,39.017 89.757,28.955 			"/>
		</g>
		<g>
			<g>
				<g>
					<g>
						<ellipse class="st8" cx="16.769" cy="32.686" rx="15.769" ry="15.686"/>
					</g>
				</g>
			</g>
			<g>
				<polygon class="st3" points="16.769,23.475 6.775,27.715 16.769,31.955 26.764,27.715 				"/>
			</g>
			<g>
				<polygon class="st0" points="26.764,37.657 16.769,41.897 16.769,31.955 26.764,27.715 				"/>
			</g>
			<g>
				<polygon class="st6" points="6.775,37.657 16.769,41.897 16.769,31.955 6.775,27.715 				"/>
			</g>
		</g>
		<g>
			<g>
				<g>
					<g>
						<ellipse class="st8" cx="16.769" cy="95.314" rx="15.769" ry="15.686"/>
					</g>
				</g>
			</g>
			<g>
				<g>
					<polygon class="st1" points="6.775,92.96 16.769,104.087 26.764,92.96 					"/>
				</g>
				<g>
					<polygon class="st1" points="22.965,88.53 10.573,88.53 6.775,92.96 26.764,92.96 					"/>
				</g>
			</g>
		</g>
		<g>
			<g>
				<path class="st3" d="M125.739,54.875h-17.326c-0.697,0-1.261,0.562-1.261,1.254v20.106c0,0.693,0.565,1.254,1.261,1.254h17.326
					c0.697,0,1.261-0.562,1.261-1.254V56.13C127,55.437,126.435,54.875,125.739,54.875z"/>
			</g>
			<g>
				<path class="st2" d="M121.035,54.875v-3.111c0-0.693-0.565-1.254-1.261-1.254h-15.749c-0.697,0-1.261,0.562-1.261,1.254v22.294
					c0,0.693,0.565,1.254,1.261,1.254h3.128V56.13c0-0.693,0.565-1.254,1.261-1.254H121.035z"/>
			</g>
		</g>
	</g>
	<g>
		<g>
			<g>
				<path class="st5" d="M127,112H1c-0.552,0-1-0.448-1-1s0.448-1,1-1h126c0.552,0,1,0.448,1,1S127.552,112,127,112z"/>
			</g>
		</g>
		<g>
			<g>
				<path class="st5" d="M64,79.169c-9.066,0-16.442-7.339-16.442-16.36S54.934,46.449,64,46.449s16.442,7.339,16.442,16.36
					S73.066,79.169,64,79.169z M64,48.449c-7.963,0-14.442,6.442-14.442,14.36c0,7.918,6.479,14.36,14.442,14.36
					s14.442-6.442,14.442-14.36C78.442,54.891,71.963,48.449,64,48.449z"/>
			</g>
		</g>
		<g>
			<g>
				<g>
					<path class="st5" d="M64,94.133c-17.361,0-31.485-14.052-31.485-31.323c0-17.272,14.124-31.324,31.485-31.324
						S95.485,45.538,95.485,62.81C95.485,80.081,81.361,94.133,64,94.133z M64,33.486c-16.258,0-29.485,13.155-29.485,29.324
						S47.742,92.133,64,92.133S93.485,78.979,93.485,62.81S80.258,33.486,64,33.486z"/>
				</g>
			</g>
			<g>
				<g>
					<path class="st5" d="M64,87.31c-13.578,0-24.625-10.991-24.625-24.5S50.422,38.31,64,38.31S88.625,49.3,88.625,62.81
						S77.578,87.31,64,87.31z M64,40.31c-12.476,0-22.625,10.093-22.625,22.5S51.524,85.31,64,85.31s22.625-10.093,22.625-22.5
						S76.476,40.31,64,40.31z"/>
				</g>
			</g>
			<g>
				<g>
					<path class="st5" d="M89.093,93.571c-0.262,0-0.516-0.103-0.705-0.291l-6.091-6.059c-0.203-0.201-0.309-0.479-0.293-0.765
						c0.016-0.285,0.153-0.55,0.377-0.728c1.723-1.368,3.293-2.93,4.669-4.645c0.177-0.221,0.44-0.356,0.724-0.373
						c0.281-0.017,0.56,0.089,0.761,0.29l6.091,6.059c0.234,0.232,0.338,0.565,0.279,0.889c-0.06,0.324-0.274,0.598-0.575,0.733
						c-0.35,0.157-0.65,0.358-0.894,0.601l-2.829,2.813c-0.243,0.242-0.446,0.541-0.603,0.887c-0.135,0.298-0.408,0.512-0.73,0.571
						C89.213,93.566,89.153,93.571,89.093,93.571z M84.49,86.583l4.425,4.402c0.089-0.106,0.183-0.208,0.281-0.306l2.829-2.814l0,0
						c0.095-0.095,0.195-0.186,0.299-0.272l-4.425-4.402C86.852,84.405,85.71,85.541,84.49,86.583z"/>
				</g>
			</g>
			<g>
				<g>
					<path class="st5" d="M105.619,111.998c-1.28,0-2.56-0.485-3.534-1.454l-12.888-12.82c-0.946-0.94-1.466-2.191-1.466-3.522
						c0-1.331,0.521-2.582,1.466-3.523l2.829-2.813c1.948-1.938,5.119-1.938,7.067,0l12.889,12.82
						c0.946,0.941,1.466,2.192,1.466,3.523c0,1.331-0.521,2.582-1.466,3.522l-2.829,2.813
						C108.178,111.513,106.898,111.998,105.619,111.998z M95.559,88.409c-0.769,0-1.538,0.291-2.124,0.874l-2.829,2.813
						c-0.565,0.562-0.876,1.31-0.876,2.105c0,0.794,0.312,1.542,0.876,2.104l12.889,12.82c1.171,1.165,3.076,1.165,4.246,0
						l2.829-2.813c0.565-0.562,0.876-1.31,0.876-2.104c0-0.795-0.311-1.542-0.877-2.105l-12.888-12.82
						C97.096,88.701,96.327,88.409,95.559,88.409z"/>
				</g>
			</g>
		</g>
		<g>
			<g>
				<path class="st5" d="M64,63.81c-0.257,0-0.514-0.098-0.709-0.295c-0.39-0.392-0.388-1.024,0.004-1.414l35.872-35.683
					c0.391-0.39,1.024-0.389,1.414,0.004c0.39,0.392,0.388,1.024-0.004,1.414L64.705,63.519C64.51,63.712,64.255,63.81,64,63.81z"/>
			</g>
		</g>
		<g>
			<g>
				<path class="st5" d="M87.919,40.017c-0.263,0-0.519-0.104-0.708-0.293c-0.231-0.232-0.334-0.563-0.276-0.886l1.837-10.062
					c0.037-0.201,0.134-0.385,0.279-0.529l11.953-11.89c0.31-0.308,0.783-0.379,1.171-0.176c0.387,0.203,0.596,0.634,0.518,1.064
					l-1.578,8.642l8.695-1.57c0.429-0.08,0.862,0.133,1.064,0.521c0.202,0.388,0.129,0.863-0.182,1.171L98.74,37.898
					c-0.144,0.143-0.328,0.239-0.527,0.275L88.097,40C88.038,40.011,87.979,40.017,87.919,40.017z M90.684,29.442l-1.521,8.333
					l8.388-1.516l9.457-9.406l-6.957,1.256c-0.322,0.06-0.653-0.045-0.886-0.277c-0.231-0.232-0.334-0.563-0.276-0.886l1.264-6.923
					L90.684,29.442z"/>
			</g>
		</g>
		<g>
			<g>
				<g>
					<g>
						<g>
							<path class="st5" d="M16.77,49.372C7.523,49.372,0,41.887,0,32.686S7.523,16,16.77,16s16.77,7.485,16.77,16.686
								S26.016,49.372,16.77,49.372z M16.77,18C8.625,18,2,24.588,2,32.686s6.625,14.686,14.77,14.686s14.77-6.588,14.77-14.686
								S24.914,18,16.77,18z"/>
						</g>
					</g>
				</g>
			</g>
			<g>
				<g>
					<path class="st5" d="M16.77,32.955c-0.133,0-0.266-0.026-0.391-0.08l-9.995-4.24c-0.37-0.157-0.609-0.519-0.609-0.92
						s0.24-0.764,0.609-0.92l9.995-4.24c0.25-0.106,0.531-0.106,0.781,0l9.995,4.24c0.37,0.157,0.609,0.519,0.609,0.92
						s-0.24,0.764-0.609,0.92l-9.995,4.24C17.035,32.929,16.902,32.955,16.77,32.955z M9.335,27.715l7.434,3.153l7.434-3.153
						l-7.434-3.153L9.335,27.715z"/>
				</g>
			</g>
			<g>
				<g>
					<path class="st5" d="M16.77,42.896c-0.193,0-0.386-0.056-0.552-0.166c-0.279-0.186-0.448-0.499-0.448-0.834v-9.941
						c0-0.401,0.24-0.764,0.609-0.92l9.995-4.24c0.309-0.131,0.663-0.099,0.943,0.086c0.279,0.186,0.448,0.499,0.448,0.834v9.941
						c0,0.401-0.24,0.764-0.609,0.92l-9.995,4.24C17.035,42.87,16.902,42.896,16.77,42.896z M17.77,32.617v7.769l7.995-3.392v-7.769
						L17.77,32.617z M26.764,37.657h0.01H26.764z"/>
				</g>
			</g>
			<g>
				<g>
					<path class="st5" d="M16.77,42.896c-0.132,0-0.265-0.026-0.391-0.08l-9.995-4.24c-0.37-0.157-0.609-0.519-0.609-0.92v-9.941
						c0-0.335,0.168-0.648,0.448-0.834c0.281-0.185,0.634-0.217,0.943-0.086l9.995,4.24c0.37,0.157,0.609,0.519,0.609,0.92v9.941
						c0,0.335-0.168,0.648-0.448,0.834C17.155,42.84,16.963,42.896,16.77,42.896z M7.775,36.995l7.995,3.392v-7.769l-7.995-3.392
						V36.995z"/>
				</g>
			</g>
		</g>
		<g>
			<g>
				<g>
					<g>
						<g>
							<path class="st5" d="M16.77,112C7.523,112,0,104.515,0,95.314s7.523-16.686,16.77-16.686s16.77,7.485,16.77,16.686
								S26.016,112,16.77,112z M16.77,80.628C8.625,80.628,2,87.216,2,95.314S8.625,110,16.77,110s14.77-6.588,14.77-14.686
								S24.914,80.628,16.77,80.628z"/>
						</g>
					</g>
				</g>
			</g>
			<g>
				<g>
					<g>
						<path class="st5" d="M16.77,105.087c-0.284,0-0.554-0.121-0.744-0.332L6.031,93.628c-0.264-0.294-0.33-0.715-0.169-1.076
							c0.161-0.36,0.519-0.593,0.913-0.593h19.989c0.395,0,0.752,0.232,0.913,0.593c0.161,0.36,0.095,0.782-0.169,1.076
							l-9.995,11.127C17.324,104.967,17.053,105.087,16.77,105.087z M9.017,93.96l7.752,8.631l7.752-8.631H9.017z"/>
					</g>
				</g>
				<g>
					<g>
						<path class="st5" d="M26.764,93.96H6.775c-0.391,0-0.746-0.228-0.909-0.582c-0.163-0.355-0.104-0.772,0.149-1.069l3.798-4.43
							c0.19-0.222,0.467-0.349,0.759-0.349h12.392c0.292,0,0.569,0.127,0.759,0.349l3.799,4.43c0.254,0.296,0.312,0.714,0.149,1.069
							C27.51,93.732,27.155,93.96,26.764,93.96z M8.95,91.96h15.64l-2.084-2.43H11.033L8.95,91.96z"/>
					</g>
				</g>
				<g>
					<g>
						<path class="st5" d="M20.066,93.96c-0.315,0-0.613-0.149-0.802-0.403l-2.494-3.352l-2.494,3.352
							c-0.195,0.261-0.493,0.412-0.833,0.402c-0.326-0.01-0.627-0.179-0.807-0.452l-2.9-4.43c-0.302-0.462-0.173-1.082,0.289-1.385
							c0.462-0.301,1.082-0.172,1.385,0.289l2.115,3.232l2.442-3.282c0.377-0.507,1.228-0.507,1.604,0l2.441,3.282l2.115-3.232
							c0.303-0.462,0.923-0.59,1.385-0.289c0.462,0.303,0.591,0.922,0.289,1.385l-2.899,4.43c-0.179,0.273-0.48,0.442-0.807,0.452
							C20.086,93.96,20.076,93.96,20.066,93.96z"/>
					</g>
				</g>
				<g>
					<g>
						<path class="st5" d="M16.77,105.087c-0.443,0-0.833-0.292-0.959-0.716l-3.296-11.127c-0.157-0.53,0.146-1.086,0.675-1.243
							c0.528-0.156,1.086,0.146,1.243,0.675l2.337,7.891l2.337-7.891c0.157-0.529,0.715-0.832,1.243-0.675
							c0.529,0.157,0.832,0.713,0.675,1.243l-3.296,11.127C17.603,104.796,17.212,105.087,16.77,105.087z"/>
					</g>
				</g>
			</g>
		</g>
		<g>
			<g>
				<path class="st5" d="M33.053,59.088h-2c-0.552,0-1-0.448-1-1s0.448-1,1-1h2c0.552,0,1,0.448,1,1S33.605,59.088,33.053,59.088z
					 M27.053,59.088h-2c-0.552,0-1-0.448-1-1s0.448-1,1-1h2c0.552,0,1,0.448,1,1S27.605,59.088,27.053,59.088z M21.053,59.088h-2
					c-0.552,0-1-0.448-1-1s0.448-1,1-1h2c0.552,0,1,0.448,1,1S21.605,59.088,21.053,59.088z M16.77,57.372c-0.552,0-1-0.448-1-1v-2
					c0-0.552,0.448-1,1-1s1,0.448,1,1v2C17.77,56.924,17.322,57.372,16.77,57.372z M16.77,51.372c-0.552,0-1-0.448-1-1v-2
					c0-0.552,0.448-1,1-1s1,0.448,1,1v2C17.77,50.924,17.322,51.372,16.77,51.372z"/>
			</g>
		</g>
		<g>
			<g>
				<path class="st5" d="M16.77,80.628c-0.552,0-1-0.448-1-1v-2c0-0.552,0.448-1,1-1s1,0.448,1,1v2
					C17.77,80.18,17.322,80.628,16.77,80.628z M16.77,74.628c-0.552,0-1-0.448-1-1v-2c0-0.552,0.448-1,1-1s1,0.448,1,1v2
					C17.77,74.18,17.322,74.628,16.77,74.628z M33.053,70.912h-2c-0.552,0-1-0.448-1-1s0.448-1,1-1h2c0.552,0,1,0.448,1,1
					S33.605,70.912,33.053,70.912z M27.053,70.912h-2c-0.552,0-1-0.448-1-1s0.448-1,1-1h2c0.552,0,1,0.448,1,1
					S27.605,70.912,27.053,70.912z M21.053,70.912h-2c-0.552,0-1-0.448-1-1s0.448-1,1-1h2c0.552,0,1,0.448,1,1
					S21.605,70.912,21.053,70.912z"/>
			</g>
		</g>
		<g>
			<g>
				<g>
					<path class="st5" d="M125.739,78.491h-17.326c-1.247,0-2.261-1.012-2.261-2.255V56.13c0-1.243,1.014-2.254,2.261-2.254h17.326
						c1.247,0,2.261,1.011,2.261,2.254v20.106C128,77.479,126.986,78.491,125.739,78.491z M108.413,55.875
						c-0.144,0-0.261,0.114-0.261,0.254v20.106c0,0.141,0.117,0.255,0.261,0.255h17.326c0.144,0,0.261-0.114,0.261-0.255V56.13
						c0-0.14-0.117-0.254-0.261-0.254H108.413z"/>
				</g>
			</g>
			<g>
				<g>
					<path class="st5" d="M107.152,76.312h-3.128c-1.247,0-2.261-1.012-2.261-2.255V51.764c0-1.243,1.014-2.255,2.261-2.255h15.749
						c1.247,0,2.261,1.012,2.261,2.255v3.111c0,0.552-0.448,1-1,1h-12.622c-0.144,0-0.261,0.114-0.261,0.254v19.183
						C108.152,75.865,107.705,76.312,107.152,76.312z M104.024,51.509c-0.144,0-0.261,0.114-0.261,0.255v22.293
						c0,0.141,0.117,0.255,0.261,0.255h2.128V56.13c0-1.243,1.014-2.254,2.261-2.254h11.622v-2.111c0-0.141-0.117-0.255-0.261-0.255
						H104.024z"/>
				</g>
			</g>
			<g>
				<g>
					<g>
						<path class="st5" d="M123.061,59.595h-11.969c-0.552,0-1-0.448-1-1s0.448-1,1-1h11.969c0.552,0,1,0.448,1,1
							S123.613,59.595,123.061,59.595z"/>
					</g>
				</g>
				<g>
					<g>
						<path class="st5" d="M123.061,64.653h-11.969c-0.552,0-1-0.448-1-1s0.448-1,1-1h11.969c0.552,0,1,0.448,1,1
							S123.613,64.653,123.061,64.653z"/>
					</g>
				</g>
				<g>
					<g>
						<path class="st5" d="M123.061,69.712h-11.969c-0.552,0-1-0.448-1-1s0.448-1,1-1h11.969c0.552,0,1,0.448,1,1
							S123.613,69.712,123.061,69.712z"/>
					</g>
				</g>
				<g>
					<g>
						<path class="st5" d="M123.061,74.771h-11.969c-0.552,0-1-0.448-1-1s0.448-1,1-1h11.969c0.552,0,1,0.448,1,1
							S123.613,74.771,123.061,74.771z"/>
					</g>
				</g>
			</g>
		</g>
	</g>
</g>
</svg>
