<?xml version="1.0" encoding="utf-8"?>
<!-- Generator: Adobe Illustrator 22.0.0, SVG Export Plug-In . SVG Version: 6.00 Build 0)  -->
<svg version="1.1" id="MARKET_RESEARCH_ICON_SET" xmlns="http://www.w3.org/2000/svg" xmlns:xlink="http://www.w3.org/1999/xlink"
	 x="0px" y="0px" viewBox="0 0 128 128" style="enable-background:new 0 0 128 128;" xml:space="preserve">
<style type="text/css">
	.st0{fill:#C2D5EC;}
	.st1{fill:#61E1FF;}
	.st2{fill:#7184AF;}
	.st3{fill:#F8F8F8;}
	.st4{fill:#3F4D81;}
	.st5{fill:#3F4D80;}
	.st6{fill:#E9EAEB;}
	.st7{fill:#F79559;}
	.st8{fill:#FFA85A;}
</style>
<g>
	<g>
		<g>
			<ellipse class="st0" cx="64" cy="64" rx="47.184" ry="47.189"/>
		</g>
		<g>
			<path class="st4" d="M101.323,92.842c-1.209-1.209-2.996-1.471-4.468-0.808l0.001,0l-6.091-6.091
				c4.162-5.212,6.656-11.815,6.656-19.004c0-16.838-13.649-30.488-30.485-30.488S36.452,50.1,36.452,66.938
				c0,16.838,13.649,30.488,30.485,30.488c7.188,0,13.79-2.494,19.002-6.656l6.091,6.091c0,0,0,0,0-0.001
				c-0.663,1.472-0.401,3.259,0.808,4.468l0.053,0.053c3.168-2.467,6.013-5.326,8.462-8.51L101.323,92.842z"/>
		</g>
		<g>
			<path class="st5" d="M92.891,102.381c-0.257,0-0.514-0.099-0.708-0.293c-1.333-1.333-1.806-3.242-1.311-4.97l-5.018-5.018
				c-5.489,4.142-12.01,6.326-18.918,6.326c-17.361,0-31.485-14.125-31.485-31.488s14.124-31.488,31.485-31.488
				s31.485,14.125,31.485,31.488c0,6.909-2.184,13.431-6.325,18.92l5.018,5.018c1.726-0.496,3.63-0.028,4.917,1.258l0.029,0.029
				c0.355,0.355,0.392,0.918,0.085,1.316c-2.496,3.246-5.402,6.169-8.64,8.689C93.323,102.312,93.106,102.381,92.891,102.381z
				 M85.938,89.77c0.257,0,0.514,0.099,0.708,0.293l6.091,6.091c0.294,0.293,0.375,0.738,0.205,1.117
				c-0.403,0.895-0.349,1.889,0.111,2.703c2.536-2.062,4.848-4.388,6.893-6.931c-0.808-0.447-1.792-0.496-2.679-0.097
				c-0.38,0.17-0.824,0.088-1.118-0.205l-6.09-6.091c-0.36-0.36-0.392-0.933-0.074-1.331c4.211-5.274,6.437-11.63,6.437-18.38
				c0-16.26-13.227-29.488-29.485-29.488S37.452,50.679,37.452,66.938s13.227,29.488,29.485,29.488
				c6.749,0,13.104-2.226,18.378-6.438C85.498,89.842,85.718,89.77,85.938,89.77z"/>
		</g>
		<g>
			<path class="st4" d="M37.236,84.311h-5.781v-3.844c0-0.856-0.694-1.55-1.55-1.55H19.236c3.466,10.406,10.451,19.195,19.55,24.962
				V85.861C38.786,85.005,38.092,84.311,37.236,84.311z"/>
		</g>
		<g>
			<g>
				<path class="st3" d="M33.236,83.311H11.944c-0.856,0-1.55,0.694-1.55,1.55v24.843c0,0.856,0.694,1.55,1.55,1.55h21.292
					c0.856,0,1.55-0.694,1.55-1.55V84.861C34.786,84.005,34.092,83.311,33.236,83.311z"/>
			</g>
			<g>
				<path class="st2" d="M27.455,83.311v-3.844c0-0.856-0.694-1.55-1.55-1.55H6.55c-0.856,0-1.55,0.694-1.55,1.55v27.546
					c0,0.856,0.694,1.55,1.55,1.55h3.844V84.861c0-0.856,0.694-1.55,1.55-1.55H27.455z"/>
			</g>
		</g>
		<g>
			<g>
				<ellipse class="st1" cx="64" cy="64" rx="30.485" ry="30.488"/>
			</g>
			<g>
				<path class="st3" d="M65.7,94.433c-0.56,0.03-1.13,0.05-1.7,0.05c-16.84,0-30.48-13.641-30.48-30.483
					c0-16.842,13.64-30.483,30.48-30.483c0.57,0,1.14,0.02,1.7,0.05C49.66,34.447,36.92,47.728,36.92,64
					C36.92,80.271,49.66,93.553,65.7,94.433z"/>
			</g>
			<g>
				<ellipse class="st3" cx="64" cy="64" rx="23.625" ry="23.627"/>
			</g>
			<g>
				<path class="st7" d="M92.73,89.904c0.353-0.353,0.76-0.615,1.19-0.809l-6.091-6.091c-1.424,1.784-3.043,3.403-4.827,4.828
					l6.091,6.091c0.193-0.43,0.455-0.837,0.809-1.19L92.73,89.904z"/>
			</g>
			<g>
				<path class="st2" d="M89.901,98.39l12.889,12.89c1.562,1.562,4.095,1.562,5.657,0l2.828-2.829c1.562-1.562,1.562-4.095,0-5.657
					l-12.889-12.89c-1.562-1.562-4.095-1.562-5.657,0l-2.828,2.829C88.339,94.295,88.339,96.828,89.901,98.39z"/>
			</g>
		</g>
		<g>
			<g>
				<g>
					<path class="st6" d="M64,56.553C56.033,56.553,49.574,64,49.574,64S56.033,71.447,64,71.447c7.967,0,14.426-7.447,14.426-7.447
						S71.967,56.553,64,56.553z"/>
				</g>
			</g>
			<g>
				
					<ellipse transform="matrix(0.0143 -0.9999 0.9999 0.0143 -0.8906 127.0619)" class="st1" cx="64" cy="63.983" rx="7.429" ry="7.428"/>
			</g>
		</g>
		<g>
			<g>
				<path class="st6" d="M107.815,35.222v2.462l2.881,5.464l2.881-5.464v-2.462c-0.879,0.401-1.852,0.631-2.881,0.631
					C109.668,35.853,108.694,35.624,107.815,35.222z"/>
			</g>
			<g>
				<path class="st4" d="M106.231,42.954c-1.9,1.113-4.71,3.35-4.71,6.879c0,0.625-0.029,1.315-0.065,2.045
					c-0.033,0.654,0.488,1.206,1.143,1.206h7.303C109.061,49.535,107.822,46.142,106.231,42.954z"/>
			</g>
			<g>
				<path class="st8" d="M122.872,46.832c0-5.327-6.415-7.726-6.415-7.726l0,0l-2.879-1.422l-2.881,5.464l0.001,0.001l-0.002,0.001
					l-0.001-0.001l0.002-0.001l-2.881-5.464l-2.88,1.423l0-0.001c0,0-6.415,2.4-6.415,7.726c0,0.961-0.068,2.072-0.128,3.251H123
					C122.94,48.904,122.872,47.793,122.872,46.832z"/>
			</g>
			<g>
				<path class="st5" d="M105.745,24.322c0-1.311,1.062-2.373,2.373-2.373h5.156c1.311,0,2.373,1.063,2.373,2.373
					c0,3.793,2.301,1.261,2.301,1.261v-3.455c0-5.383-2.923-3.917-2.923-3.917s-0.593-1.467-2.459-1.467h-3.74
					c-2.972,0-5.382,2.41-5.382,5.382v3.456C103.444,25.584,105.745,28.115,105.745,24.322z"/>
			</g>
			<g>
				<path class="st3" d="M118.172,25.566c-0.077,0-0.151,0.007-0.223,0.017c0,0-2.301,2.532-2.301-1.261
					c0-1.311-1.062-2.373-2.373-2.373h-5.156c-1.311,0-2.373,1.063-2.373,2.373c0,3.793-2.301,1.261-2.301,1.261
					c-0.073-0.01-0.147-0.017-0.223-0.017c0,0-1.356,0-1.356,1.362v1.368c0,1.116,0.608,2.129,2.027,2.344
					c0.029,0.004,0.054,0.006,0.081,0.009c0.778,2.991,3.489,5.202,6.723,5.202s5.945-2.211,6.723-5.202
					c0.028-0.003,0.052-0.005,0.081-0.009c1.419-0.215,2.027-1.228,2.027-2.344v-1.368
					C119.528,25.566,118.172,25.566,118.172,25.566z"/>
			</g>
		</g>
	</g>
	<g>
		<g>
			<g>
				<g>
					<path class="st5" d="M33.236,112.254H11.944c-1.406,0-2.55-1.144-2.55-2.55V84.861c0-1.406,1.144-2.55,2.55-2.55h21.292
						c1.406,0,2.55,1.144,2.55,2.55v24.844C35.786,111.11,34.642,112.254,33.236,112.254z M11.944,84.311
						c-0.303,0-0.55,0.247-0.55,0.55v24.844c0,0.303,0.247,0.55,0.55,0.55h21.292c0.303,0,0.55-0.247,0.55-0.55V84.861
						c0-0.303-0.247-0.55-0.55-0.55H11.944z"/>
				</g>
			</g>
			<g>
				<g>
					<path class="st5" d="M10.394,109.563H6.55c-1.406,0-2.55-1.144-2.55-2.55V79.467c0-1.406,1.144-2.55,2.55-2.55h19.355
						c1.406,0,2.55,1.144,2.55,2.55v3.844c0,0.552-0.448,1-1,1H11.944c-0.303,0-0.55,0.247-0.55,0.55v23.702
						C11.394,109.115,10.946,109.563,10.394,109.563z M6.55,78.917c-0.303,0-0.55,0.247-0.55,0.55v27.546
						c0,0.303,0.247,0.55,0.55,0.55h2.844V84.861c0-1.406,1.144-2.55,2.55-2.55h14.511v-2.844c0-0.303-0.247-0.55-0.55-0.55H6.55z"
						/>
				</g>
			</g>
			<g>
				<g>
					<g>
						<path class="st5" d="M29.945,88.907h-14.71c-0.552,0-1-0.448-1-1s0.448-1,1-1h14.71c0.552,0,1,0.448,1,1
							S30.497,88.907,29.945,88.907z"/>
					</g>
				</g>
				<g>
					<g>
						<path class="st5" d="M29.945,95.157h-14.71c-0.552,0-1-0.448-1-1s0.448-1,1-1h14.71c0.552,0,1,0.448,1,1
							S30.497,95.157,29.945,95.157z"/>
					</g>
				</g>
				<g>
					<g>
						<path class="st5" d="M29.945,101.408h-14.71c-0.552,0-1-0.448-1-1s0.448-1,1-1h14.71c0.552,0,1,0.448,1,1
							S30.497,101.408,29.945,101.408z"/>
					</g>
				</g>
				<g>
					<g>
						<path class="st5" d="M29.945,107.659h-14.71c-0.552,0-1-0.448-1-1s0.448-1,1-1h14.71c0.552,0,1,0.448,1,1
							S30.497,107.659,29.945,107.659z"/>
					</g>
				</g>
			</g>
		</g>
		<g>
			<g>
				<g>
					<path class="st5" d="M64,95.488c-17.361,0-31.485-14.125-31.485-31.488S46.639,32.512,64,32.512S95.485,46.638,95.485,64
						S81.361,95.488,64,95.488z M64,34.512C47.742,34.512,34.515,47.74,34.515,64S47.742,93.488,64,93.488S93.485,80.26,93.485,64
						S80.258,34.512,64,34.512z"/>
				</g>
			</g>
			<g>
				<g>
					<path class="st5" d="M64,88.627C50.422,88.627,39.375,77.58,39.375,64S50.422,39.373,64,39.373S88.625,50.42,88.625,64
						S77.578,88.627,64,88.627z M64,41.373c-12.476,0-22.625,10.15-22.625,22.627S51.524,86.627,64,86.627S86.625,76.477,86.625,64
						S76.476,41.373,64,41.373z"/>
				</g>
			</g>
			<g>
				<g>
					<path class="st5" d="M89.093,94.923c-0.263,0-0.518-0.104-0.707-0.293l-6.091-6.091c-0.201-0.201-0.307-0.479-0.292-0.763
						c0.016-0.284,0.152-0.548,0.375-0.726c1.723-1.375,3.294-2.946,4.669-4.67c0.178-0.222,0.442-0.358,0.726-0.375
						c0.283-0.017,0.562,0.09,0.763,0.292l6.091,6.091c0.232,0.232,0.336,0.564,0.276,0.887c-0.059,0.323-0.273,0.597-0.573,0.732
						c-0.349,0.157-0.649,0.36-0.893,0.604l-2.829,2.829c-0.244,0.244-0.447,0.545-0.604,0.894c-0.135,0.3-0.408,0.514-0.731,0.573
						C89.213,94.917,89.153,94.923,89.093,94.923z M84.486,87.901l4.429,4.43c0.089-0.106,0.182-0.208,0.279-0.305l2.829-2.829
						c0.097-0.097,0.199-0.19,0.305-0.279l-4.429-4.43C86.85,85.71,85.708,86.853,84.486,87.901z"/>
				</g>
			</g>
			<g>
				<g>
					<path class="st5" d="M105.619,113.449c-1.281,0-2.561-0.488-3.536-1.462l-12.889-12.89l0,0c-1.949-1.95-1.949-5.122,0-7.072
						l2.829-2.829c1.95-1.949,5.122-1.949,7.071,0l12.889,12.89c1.949,1.95,1.949,5.122,0,7.072l-2.829,2.829
						C108.179,112.961,106.899,113.449,105.619,113.449z M90.608,97.683l12.889,12.89c1.17,1.169,3.073,1.169,4.243,0l2.829-2.829
						c1.169-1.17,1.169-3.074,0-4.244L97.68,90.611c-1.171-1.169-3.074-1.17-4.243,0l-2.829,2.829
						C89.439,94.609,89.439,96.513,90.608,97.683L90.608,97.683z"/>
				</g>
			</g>
		</g>
		<g>
			<g>
				<g>
					<g>
						<path class="st5" d="M64,72.446c-8.328,0-14.906-7.473-15.182-7.791c-0.326-0.376-0.326-0.935,0-1.311
							c0.276-0.318,6.854-7.791,15.182-7.791s14.906,7.473,15.182,7.791c0.326,0.376,0.326,0.935,0,1.311
							C78.906,64.973,72.328,72.446,64,72.446z M50.953,64c1.755,1.759,7.001,6.446,13.047,6.446S75.292,65.759,77.047,64
							c-1.755-1.759-7.001-6.446-13.047-6.446S52.708,62.241,50.953,64z"/>
					</g>
				</g>
			</g>
			<g>
				<g>
					<path class="st5" d="M64,72.412c-4.647,0-8.429-3.781-8.429-8.429c0-4.647,3.781-8.429,8.429-8.429s8.428,3.781,8.428,8.429
						C72.428,68.63,68.647,72.412,64,72.412z M64,57.554c-3.545,0-6.429,2.884-6.429,6.429s2.884,6.429,6.429,6.429
						c3.544,0,6.428-2.884,6.428-6.429S67.544,57.554,64,57.554z"/>
				</g>
			</g>
		</g>
		<g>
			<path class="st5" d="M16.815,65c-0.552,0-1-0.448-1-1c0-26.571,21.616-48.189,48.185-48.189c0.552,0,1,0.448,1,1s-0.448,1-1,1
				c-25.466,0-46.185,20.72-46.185,46.189C17.815,64.552,17.368,65,16.815,65z"/>
		</g>
		<g>
			<path class="st5" d="M127,112.254h-18.553c-0.552,0-1-0.448-1-1s0.448-1,1-1H127c0.552,0,1,0.448,1,1
				S127.552,112.254,127,112.254z"/>
		</g>
		<g>
			<path class="st5" d="M102.79,112.254H1c-0.552,0-1-0.448-1-1s0.448-1,1-1h101.79c0.552,0,1,0.448,1,1
				S103.342,112.254,102.79,112.254z"/>
		</g>
		<g>
			<g>
				<path class="st5" d="M64,112.189c-0.552,0-1-0.448-1-1s0.448-1,1-1c10.328,0,20.094-3.333,28.24-9.639
					c0.438-0.337,1.064-0.258,1.403,0.179c0.338,0.437,0.258,1.065-0.179,1.403C84.964,108.711,74.775,112.189,64,112.189z"/>
			</g>
			<g>
				<path class="st5" d="M101.338,93.855c-0.214,0-0.429-0.068-0.611-0.209c-0.437-0.338-0.517-0.966-0.179-1.403
					c6.305-8.148,9.637-17.914,9.637-28.243c0-0.552,0.448-1,1-1s1,0.448,1,1c0,10.776-3.477,20.965-10.055,29.467
					C101.932,93.722,101.637,93.855,101.338,93.855z"/>
			</g>
		</g>
		<g>
			<path class="st5" d="M57.189,24.622c-0.256,0-0.512-0.098-0.707-0.293c-0.391-0.391-0.391-1.023,0-1.414l6.104-6.104
				l-6.104-6.104c-0.391-0.391-0.391-1.023,0-1.414s1.023-0.391,1.414,0l6.811,6.811c0.391,0.391,0.391,1.023,0,1.414l-6.811,6.811
				C57.701,24.524,57.445,24.622,57.189,24.622z"/>
		</g>
		<g>
			<path class="st5" d="M70.811,119c-0.256,0-0.512-0.098-0.707-0.293l-6.811-6.811c-0.391-0.391-0.391-1.023,0-1.414l6.811-6.811
				c0.391-0.391,1.023-0.391,1.414,0s0.391,1.023,0,1.414l-6.104,6.104l6.104,6.104c0.391,0.391,0.391,1.023,0,1.414
				C71.322,118.902,71.066,119,70.811,119z"/>
		</g>
		<g>
			<g>
				<g>
					<path class="st5" d="M110.697,44.148c-0.371,0-0.711-0.206-0.885-0.534l-2.881-5.464c-0.076-0.144-0.115-0.304-0.115-0.466
						v-2.462c0-0.34,0.173-0.657,0.459-0.841c0.286-0.184,0.645-0.21,0.956-0.068c1.57,0.717,3.362,0.717,4.932,0
						c0.309-0.142,0.671-0.116,0.956,0.068c0.286,0.184,0.459,0.501,0.459,0.841v2.462c0,0.163-0.04,0.323-0.115,0.466l-2.881,5.464
						C111.408,43.942,111.068,44.148,110.697,44.148z M108.815,37.437l1.881,3.567l1.881-3.567v-0.811
						c-1.228,0.302-2.535,0.302-3.763,0V37.437z"/>
				</g>
			</g>
			<g>
				<g>
					<path class="st5" d="M123,51.083H98.393c-0.274,0-0.536-0.112-0.725-0.311c-0.188-0.199-0.288-0.466-0.273-0.74l0.029-0.56
						c0.05-0.956,0.098-1.859,0.098-2.64c0-5.75,6.325-8.375,7.013-8.643l2.839-1.402c0.484-0.24,1.074-0.05,1.328,0.43l1.997,3.787
						l1.996-3.787c0.253-0.48,0.844-0.669,1.328-0.43l2.879,1.422l-0.011,0.023c1.615,0.606,6.983,3.402,6.983,8.6
						c0,0.781,0.047,1.684,0.098,2.64l0.029,0.56c0.014,0.273-0.085,0.541-0.273,0.74C123.536,50.971,123.274,51.083,123,51.083z
						 M99.446,49.083h22.501c-0.041-0.8-0.075-1.559-0.075-2.251c0-4.559-5.709-6.768-5.767-6.79l-2.096-1.032l-2.418,4.585
						c-0.205,0.411-0.674,0.637-1.137,0.523c-0.304-0.076-0.54-0.283-0.663-0.545l-2.406-4.562l-2.007,0.991
						c-0.032,0.016-0.065,0.03-0.098,0.042c-0.169,0.066-5.76,2.269-5.76,6.787C99.521,47.525,99.487,48.283,99.446,49.083z"/>
				</g>
			</g>
			<g>
				<g>
					<path class="st5" d="M110.696,36.852c-3.405,0-6.408-2.169-7.508-5.347c-1.429-0.434-2.323-1.642-2.323-3.208v-1.368
						c0-1.295,0.787-1.974,1.579-2.234v-2.566c0-3.519,2.863-6.382,6.382-6.382h3.74c1.413,0,2.359,0.652,2.905,1.31
						c0.494-0.069,1.129-0.03,1.753,0.355c1.16,0.716,1.724,2.259,1.724,4.719v2.565c0.793,0.26,1.58,0.939,1.58,2.234v1.368
						c0,1.566-0.895,2.775-2.323,3.208C117.104,34.683,114.102,36.852,110.696,36.852z M103.305,26.574
						c-0.439,0.008-0.439,0.2-0.439,0.355v1.368c0,0.781,0.396,1.237,1.177,1.355c0.396,0.06,0.798,0.358,0.899,0.746
						c0.682,2.623,3.049,4.454,5.755,4.454s5.073-1.832,5.755-4.454c0.103-0.396,0.438-0.689,0.844-0.74
						c0.836-0.124,1.232-0.58,1.232-1.361v-1.368c0-0.127,0-0.363-0.356-0.363c-0.029,0-0.057,0.004-0.084,0.008
						c-0.285,0.041-0.577-0.045-0.795-0.235c-0.219-0.19-0.344-0.465-0.344-0.755v-3.455c0-2.338-0.586-2.896-0.766-3.012
						c-0.299-0.192-0.718-0.006-0.723-0.004c-0.249,0.113-0.541,0.124-0.795,0.024c-0.253-0.101-0.464-0.297-0.566-0.55
						c-0.032-0.071-0.412-0.842-1.532-0.842h-3.74c-2.416,0-4.382,1.966-4.382,4.382v3.456c0,0.29-0.125,0.565-0.344,0.755
						S103.592,26.613,103.305,26.574z"/>
				</g>
			</g>
			<g>
				<g>
					<path class="st5" d="M116.545,27.411c-0.193,0-0.391-0.033-0.589-0.109c-1.309-0.506-1.309-2.368-1.309-2.979
						c0-0.757-0.616-1.374-1.373-1.374h-5.156c-0.757,0-1.373,0.616-1.373,1.374c0,0.612,0,2.474-1.309,2.979
						c-1.258,0.482-2.497-0.787-2.732-1.046c-0.371-0.409-0.341-1.041,0.068-1.413c0.408-0.371,1.039-0.341,1.411,0.065
						c0.134,0.146,0.321,0.3,0.474,0.399c0.043-0.179,0.089-0.486,0.089-0.986c0-1.86,1.513-3.374,3.373-3.374h5.156
						c1.86,0,3.373,1.513,3.373,3.374c0,0.5,0.045,0.807,0.089,0.986c0.153-0.1,0.34-0.254,0.474-0.4
						c0.375-0.406,1.005-0.434,1.412-0.061c0.406,0.372,0.437,1.001,0.066,1.408C118.49,26.475,117.578,27.411,116.545,27.411z"/>
				</g>
			</g>
		</g>
	</g>
</g>
</svg>
