<?xml version="1.0" encoding="utf-8"?>
<!-- Generator: Adobe Illustrator 22.0.0, SVG Export Plug-In . SVG Version: 6.00 Build 0)  -->
<svg version="1.1" id="MARKET_RESEARCH_ICON_SET" xmlns="http://www.w3.org/2000/svg" xmlns:xlink="http://www.w3.org/1999/xlink"
	 x="0px" y="0px" viewBox="0 0 128 128" style="enable-background:new 0 0 128 128;" xml:space="preserve">
<style type="text/css">
	.st0{fill:#C2D5EC;}
	.st1{fill:#61E1FF;}
	.st2{fill:#7184AF;}
	.st3{fill:#F8F8F8;}
	.st4{fill:#3F4D81;}
	.st5{fill:#3F4D80;}
	.st6{fill:#E9EAEB;}
	.st7{fill:#F79559;}
	.st8{fill:#FFA85A;}
</style>
<g>
	<g>
		<g>
			<rect x="25.844" y="20.321" class="st0" width="86.892" height="78.326"/>
		</g>
		<g>
			<rect x="25.844" y="20.321" class="st0" width="86.892" height="78.326"/>
		</g>
		<g>
			<path class="st4" d="M46.643,36.775H25.844l0,60.875h23.432c-1.314-4.019-2.351-8.523-3.682-12.313
				c-3.282-9.347-11.23-10.729-11.23-10.729l-3.558-3.447v0V68c1.46,0.754,3.176,1.086,4.991,0.8
				c3.947-0.62,6.772-4.159,6.772-8.142v-7.138v-3.28c0-0.925-0.155-1.813-0.431-2.646C42.138,40.953,46.643,36.775,46.643,36.775z"
				/>
		</g>
		<g>
			<path class="st5" d="M49.275,98.65H25.844c-0.553,0-1-0.448-1-1V36.775c0-0.552,0.447-1,1-1h20.8c0.411,0,0.78,0.252,0.931,0.635
				c0.15,0.382,0.051,0.818-0.249,1.097c-0.057,0.053-4.118,3.931-4.187,9.933c0.285,0.913,0.43,1.854,0.43,2.801v10.418
				c0,4.522-3.274,8.447-7.616,9.129c-1.408,0.221-2.816,0.118-4.146-0.299v1.248l3.048,2.952
				c1.597,0.375,8.584,2.489,11.684,11.316c0.736,2.096,1.393,4.438,2.026,6.701c0.527,1.88,1.071,3.824,1.662,5.632
				c0.1,0.304,0.048,0.638-0.141,0.897C49.896,98.497,49.596,98.65,49.275,98.65z M26.844,96.65H47.91
				c-0.445-1.451-0.864-2.946-1.272-4.403c-0.626-2.233-1.272-4.542-1.987-6.578c-3.036-8.645-10.158-10.021-10.46-10.076
				c-0.196-0.035-0.379-0.128-0.521-0.267l-3.559-3.447c-0.195-0.188-0.305-0.448-0.305-0.718V68c0-0.349,0.182-0.672,0.479-0.854
				c0.297-0.182,0.668-0.194,0.979-0.035c1.35,0.697,2.863,0.938,4.377,0.701c3.379-0.531,5.927-3.607,5.927-7.154V50.241
				c0-0.788-0.128-1.572-0.38-2.332c-0.033-0.102-0.051-0.208-0.051-0.315c0-4.494,1.909-7.905,3.327-9.819H26.844V96.65z"/>
		</g>
		<g>
			<path class="st1" d="M116.32,15.302v11.601c0,0.995-0.809,1.802-1.808,1.802h-7.33c-0.508,0-0.992,0.213-1.335,0.587
				l-5.033,5.491v-4.276c0-0.995-0.809-1.802-1.808-1.802h-4.365c-0.998,0-1.808-0.807-1.808-1.802V15.302
				c0-0.995,0.809-1.802,1.808-1.802h19.87C115.51,13.5,116.32,14.307,116.32,15.302z"/>
		</g>
		<g>
			<g>
				<g>
					<path class="st2" d="M42.643,34.782H23.017c-4.403,0-7.973,3.557-7.973,7.946v8.8c0-2.444,1.988-4.425,4.44-4.425
						c2.013,0,3.693,1.343,4.238,3.173c0.132-0.37,0.209-0.763,0.209-1.171c0-1.935,1.574-3.504,3.516-3.504h10.691
						C38.138,38.96,42.643,34.782,42.643,34.782z"/>
				</g>
				<g>
					<path class="st8" d="M53.784,106.343c-7.529-0.925-9.025-13.987-12.19-22.999c-3.282-9.347-11.23-10.729-11.23-10.729
						l-0.553,7.165l-3.822-1.874l-2.946,2.936l-7.864-8.333c0,0-11.177,4.214-11.177,13.95c0,9.736-3.749,28.04,11.764,28.04
						c15.512,0,15.512,0,15.512,0v-5.413c1.089,0,2.237-0.408,3.375-0.851l0,0c0.492-1.199,0.855-2.449,1.077-3.73
						c0.518-2.979,0.636-6.016,0.596-8.559h0.001c0,5.291,2.201,10.053,5.734,13.433h10.732L53.784,106.343z"/>
				</g>
				<g>
					<path class="st3" d="M7.002,89.449c0-9.119,9.805-13.394,11.047-13.899l-2.87-3.041c0,0-11.177,4.214-11.177,13.95
						c0,7.975-2.508,21.692,5.108,26.396C5.25,106.779,7.002,96.11,7.002,89.449z"/>
				</g>
				<g>
					<path class="st3" d="M27.447,45.602c-1.942,0-3.516,1.569-3.516,3.504c0,0.408-0.077,0.801-0.209,1.171
						c-0.545-1.83-2.225-3.173-4.238-3.173c-2.303,0-4.174,1.754-4.396,3.991v0.867c0.032,0.946,0.149,1.869,0.397,2.743l0.004,0
						c0.024,0.085,0.046,0.172,0.072,0.256c1.516,4.9,2.526,9.941,2.526,15.069l7.903,7.876l0.817-8.738v-3.161
						c1.46,0.754,3.176,1.086,4.991,0.8c3.947-0.62,6.772-4.159,6.772-8.142v-7.138v-3.28c0-0.925-0.155-1.813-0.431-2.646H27.447z"
						/>
				</g>
				<g>
					<polygon class="st1" points="23.043,80.842 15.179,72.51 18.086,70.03 25.989,77.906 					"/>
				</g>
				<g>
					<polygon class="st1" points="29.811,79.78 30.364,72.615 26.806,69.168 25.989,77.906 					"/>
				</g>
				<g>
					<rect x="27.495" y="106.399" class="st5" width="3.782" height="8.101"/>
				</g>
				<g>
					<path class="st3" d="M31.278,109.087c3.207,0,6.923-3.535,9.4-1.111c1.336,1.307,1.26,2.763,0.773,3.967
						c-0.639,1.58-2.246,2.558-3.956,2.558h-6.217L31.278,109.087z"/>
				</g>
				<g>
					<ellipse class="st1" cx="19.484" cy="51.528" rx="4.44" ry="4.425"/>
				</g>
				<g>
					<ellipse class="st5" cx="30.931" cy="61.038" rx="1.905" ry="1.898"/>
				</g>
				<g>
					<path class="st1" d="M23.89,34.782h-0.873c-1.196,0-2.326,0.27-3.344,0.74c-1.176,1.301-1.898,3.018-1.898,4.907v7.016
						c0.526-0.219,1.103-0.342,1.709-0.342c0.61,0,1.183,0.136,1.709,0.359v-7.033C21.193,38.147,22.251,36.127,23.89,34.782z"/>
				</g>
			</g>
			<g>
				<g>
					<polygon class="st1" points="101.73,80.8 62.127,80.8 51.119,114.5 90.722,114.5 					"/>
				</g>
				<g>
					<polygon class="st3" points="64.127,83.79 100.754,83.79 101.73,80.8 62.127,80.8 51.119,114.5 54.096,114.5 					"/>
				</g>
				<g>
					
						<ellipse transform="matrix(0.7652 -0.6437 0.6437 0.7652 -44.9203 72.1225)" class="st3" cx="76.425" cy="97.65" rx="4.176" ry="3.019"/>
				</g>
				<g>
					<polygon class="st2" points="92.395,109.38 52.792,109.38 51.119,114.5 90.722,114.5 					"/>
				</g>
				<g>
					<path class="st4" d="M41.594,109.38c0.308,0.887,0.174,1.778-0.143,2.563c-0.639,1.58-2.246,2.558-3.956,2.558h13.624
						l1.672-5.12H41.594z"/>
				</g>
			</g>
		</g>
		<g>
			<g>
				<path class="st6" d="M85.552,57.342v2.844l3.341,6.312l3.341-6.312v-2.844c-1.019,0.463-2.147,0.728-3.341,0.728
					C87.699,58.071,86.571,57.806,85.552,57.342z"/>
			</g>
			<g>
				<path class="st8" d="M103.007,70.755c0-6.154-7.437-8.926-7.437-8.926l0,0l-3.338-1.643l-3.341,6.312l0.001,0.001l-0.002,0.001
					L88.891,66.5l0.002-0.001l-3.34-6.312l-3.339,1.644l0-0.001c0,0-7.437,2.772-7.437,8.926c0,1.11-0.079,2.394-0.148,3.756h28.528
					C103.086,73.149,103.007,71.865,103.007,70.755z"/>
			</g>
			<g>
				<path class="st5" d="M83.152,44.749c0-1.514,1.232-2.742,2.751-2.742h5.977c1.519,0,2.751,1.228,2.751,2.742
					c0,4.382,2.668,1.457,2.668,1.457v-3.991c0-6.219-3.389-4.525-3.389-4.525s-0.688-1.694-2.851-1.694h-4.336
					c-3.446,0-6.239,2.784-6.239,6.218v3.992l0,0C80.484,46.206,83.152,49.131,83.152,44.749z"/>
			</g>
			<g>
				<path class="st3" d="M97.558,46.186c-0.089,0-0.175,0.008-0.259,0.02c0,0-2.668,2.925-2.668-1.457
					c0-1.514-1.232-2.742-2.751-2.742h-5.977c-1.519,0-2.751,1.228-2.751,2.742c0,4.382-2.668,1.457-2.668,1.457l0,0v0
					c-0.084-0.012-0.17-0.02-0.259-0.02c0,0-1.572,0-1.572,1.574v1.58c0,1.29,0.705,2.46,2.35,2.708
					c0.034,0.005,0.062,0.007,0.094,0.01c0.902,3.456,4.044,6.01,7.794,6.01c3.75,0,6.892-2.555,7.794-6.01
					c0.032-0.004,0.06-0.005,0.094-0.01c1.645-0.248,2.35-1.418,2.35-2.708v-1.58C99.13,46.186,97.558,46.186,97.558,46.186z"/>
			</g>
			<g>
				<path class="st6" d="M109.396,57.342v2.844l3.341,6.312l3.341-6.312v-2.844c-1.019,0.463-2.147,0.728-3.341,0.728
					C111.544,58.071,110.415,57.806,109.396,57.342z"/>
			</g>
			<g>
				<path class="st7" d="M126.852,70.755c0-6.154-7.437-8.926-7.437-8.926l0,0l-3.338-1.643l-3.341,6.312l0.001,0.001l-0.002,0.001
					l-0.001-0.001l0.002-0.001l-3.341-6.312l-3.339,1.644l0-0.001c0,0-3.049,1.146-5.243,3.583c1.229,1.366,2.193,3.133,2.193,5.343
					c0,1.11,0.079,2.394,0.148,3.756H127C126.93,73.149,126.852,71.865,126.852,70.755z"/>
			</g>
			<g>
				<path class="st6" d="M61.708,57.342v2.844l3.341,6.312l3.341-6.312v-2.844c-1.019,0.463-2.147,0.728-3.341,0.728
					C63.855,58.071,62.727,57.806,61.708,57.342z"/>
			</g>
			<g>
				<path class="st7" d="M76.97,65.412c-2.194-2.438-5.243-3.583-5.243-3.583l0,0l-3.338-1.643l-3.341,6.312l0.001,0.001
					l-0.002,0.001L65.046,66.5l0.002-0.001l-3.341-6.312l-3.339,1.644l0-0.001c0,0-7.437,2.772-7.437,8.926
					c0,1.11-0.079,2.394-0.148,3.756h23.844c0.07-1.362,0.148-2.646,0.148-3.756C74.776,68.545,75.74,66.778,76.97,65.412z"/>
			</g>
			<g>
				<path class="st5" d="M106.996,44.749c0-1.514,1.232-2.742,2.751-2.742h5.977c1.519,0,2.751,1.228,2.751,2.742
					c0,4.382,2.668,1.457,2.668,1.457v-3.991c0-6.219-3.389-4.525-3.389-4.525s-0.688-1.694-2.851-1.694h-4.336
					c-3.446,0-6.239,2.784-6.239,6.218v3.992l0,0C104.329,46.206,106.996,49.131,106.996,44.749z"/>
			</g>
			<g>
				<path class="st3" d="M121.402,46.186c-0.089,0-0.175,0.008-0.259,0.02c0,0-2.668,2.925-2.668-1.457
					c0-1.514-1.232-2.742-2.751-2.742h-5.977c-1.519,0-2.751,1.228-2.751,2.742c0,4.382-2.668,1.457-2.668,1.457l0,0v0
					c-0.084-0.012-0.17-0.02-0.259-0.02c0,0-1.572,0-1.572,1.574v1.58c0,1.29,0.705,2.46,2.35,2.708
					c0.034,0.005,0.062,0.007,0.094,0.01c0.902,3.456,4.044,6.01,7.794,6.01c3.75,0,6.892-2.555,7.794-6.01
					c0.032-0.004,0.06-0.005,0.094-0.01c1.645-0.248,2.35-1.418,2.35-2.708v-1.58C122.974,46.186,121.402,46.186,121.402,46.186z"/>
			</g>
			<g>
				<path class="st5" d="M59.308,44.749c0-1.514,1.232-2.742,2.751-2.742h5.977c1.519,0,2.751,1.228,2.751,2.742
					c0,4.382,2.668,1.457,2.668,1.457v-3.991c0-6.219-3.389-4.525-3.389-4.525s-0.688-1.694-2.851-1.694h-4.336
					c-3.446,0-6.239,2.784-6.239,6.218v3.992l0,0C56.64,46.206,59.308,49.131,59.308,44.749z"/>
			</g>
			<g>
				<path class="st3" d="M73.714,46.186c-0.089,0-0.175,0.008-0.259,0.02c0,0-2.668,2.925-2.668-1.457
					c0-1.514-1.232-2.742-2.751-2.742h-5.977c-1.519,0-2.751,1.228-2.751,2.742c0,4.382-2.668,1.457-2.668,1.457l0,0v0
					c-0.084-0.012-0.17-0.02-0.259-0.02c0,0-1.572,0-1.572,1.574v1.58c0,1.29,0.705,2.46,2.35,2.708
					c0.034,0.005,0.062,0.007,0.094,0.01c0.902,3.456,4.044,6.01,7.794,6.01c3.75,0,6.892-2.555,7.794-6.01
					c0.032-0.004,0.06-0.005,0.094-0.01c1.645-0.248,2.35-1.418,2.35-2.708v-1.58C75.286,46.186,73.714,46.186,73.714,46.186z"/>
			</g>
		</g>
		<g>
			<ellipse class="st5" cx="104.357" cy="25.691" rx="1.069" ry="1.066"/>
		</g>
	</g>
	<g>
		<g>
			<path class="st5" d="M127,115.5H1c-0.553,0-1-0.448-1-1s0.447-1,1-1h126c0.553,0,1,0.448,1,1S127.553,115.5,127,115.5z"/>
		</g>
		<g>
			<g>
				<g>
					<path class="st5" d="M100.813,35.782c-0.122,0-0.245-0.022-0.362-0.068c-0.385-0.149-0.638-0.52-0.638-0.932v-4.276
						c0-0.442-0.362-0.802-0.808-0.802h-4.364c-1.548,0-2.808-1.257-2.808-2.802V15.302c0-1.545,1.26-2.802,2.808-2.802h19.87
						c1.549,0,2.809,1.257,2.809,2.802v11.601c0,1.545-1.26,2.802-2.809,2.802h-7.33c-0.227,0-0.445,0.096-0.599,0.263l-5.032,5.491
						C101.357,35.668,101.088,35.782,100.813,35.782z M94.642,14.5c-0.445,0-0.808,0.36-0.808,0.802v11.601
						c0,0.442,0.362,0.802,0.808,0.802h4.364c1.548,0,2.808,1.257,2.808,2.802v1.705l3.296-3.596
						c0.531-0.579,1.286-0.911,2.072-0.911h7.33c0.446,0,0.809-0.36,0.809-0.802V15.302c0-0.442-0.362-0.802-0.809-0.802H94.642z"/>
				</g>
			</g>
			<g>
				<g>
					<g>
						<path class="st5" d="M104.356,24.025c-0.553,0-1-0.448-1-1c0-2.073,1.126-2.904,1.871-3.454
							c0.605-0.447,0.735-0.582,0.735-0.991c0-0.367-0.144-0.712-0.405-0.973c-0.543-0.54-1.423-0.539-1.962,0
							c-0.261,0.26-0.404,0.605-0.405,0.973c0,0.368,0.145,0.713,0.405,0.974c0.391,0.39,0.392,1.023,0.002,1.414
							s-1.022,0.393-1.414,0.002c-0.641-0.638-0.993-1.487-0.993-2.39c0.001-0.903,0.354-1.751,0.993-2.389
							c1.321-1.315,3.467-1.315,4.786,0c0.641,0.638,0.993,1.487,0.993,2.389c0,1.457-0.895,2.117-1.548,2.6
							c-0.638,0.471-1.059,0.782-1.059,1.845C105.356,23.577,104.909,24.025,104.356,24.025z"/>
					</g>
				</g>
			</g>
		</g>
		<g>
			<g>
				<g>
					<g>
						<path class="st5" d="M25.989,78.906c-0.26,0-0.515-0.102-0.706-0.292l-7.903-7.876c-0.188-0.188-0.294-0.443-0.294-0.708
							c0-4.544-0.812-9.376-2.48-14.773l-0.056-0.193h0.001c-0.011-0.028-0.021-0.056-0.028-0.085
							c-0.254-0.895-0.396-1.871-0.434-2.982l-0.001-0.902c0.281-2.888,2.6-4.991,5.396-4.991c1.426,0,2.738,0.544,3.716,1.469
							c0.63-1.731,2.296-2.971,4.247-2.971h10.69c0.431,0,0.813,0.276,0.949,0.685c0.319,0.963,0.481,1.959,0.481,2.961v10.418
							c0,4.522-3.274,8.447-7.616,9.129c-1.411,0.221-2.818,0.117-4.146-0.299v1.672L26.985,78
							c-0.036,0.385-0.292,0.715-0.656,0.847C26.219,78.887,26.104,78.906,25.989,78.906z M19.084,69.613l6.107,6.086l0.618-6.625
							l-0.004-3.067c0-0.349,0.182-0.672,0.479-0.854c0.297-0.182,0.668-0.194,0.979-0.035c1.349,0.696,2.864,0.937,4.377,0.701
							c3.379-0.531,5.927-3.607,5.927-7.154V48.248c0-0.553-0.062-1.104-0.188-1.646h-9.934c-1.388,0-2.517,1.123-2.517,2.504
							c0,0.502-0.09,1.009-0.268,1.506c-0.145,0.407-0.555,0.673-0.968,0.664c-0.433-0.011-0.809-0.299-0.932-0.714
							c-0.438-1.471-1.756-2.458-3.279-2.458c-1.765,0-3.227,1.328-3.401,3.09l0.005,0.769c0.03,0.881,0.141,1.674,0.336,2.391
							c0.01,0.025,0.019,0.051,0.026,0.077l0.065,0.235C18.194,60.093,19.036,64.988,19.084,69.613z"/>
					</g>
				</g>
				<g>
					<g>
						<path class="st5" d="M26.805,67.007c-0.164,0-0.33-0.04-0.483-0.125c-1.299-0.719-2.419-1.772-3.239-3.047
							c-0.299-0.464-0.165-1.083,0.3-1.382c0.464-0.298,1.083-0.165,1.382,0.3c0.642,0.997,1.516,1.82,2.526,2.379
							c0.483,0.268,0.658,0.876,0.391,1.359C27.498,66.821,27.157,67.007,26.805,67.007z"/>
					</g>
				</g>
				<g>
					<g>
						<path class="st5" d="M23.043,81.842c-0.005,0-0.01,0-0.016,0c-0.27-0.004-0.526-0.117-0.712-0.313l-7.864-8.333
							c-0.188-0.199-0.286-0.467-0.271-0.741c0.016-0.273,0.142-0.529,0.351-0.707l2.907-2.479c0.396-0.337,0.985-0.315,1.355,0.052
							l7.903,7.876c0.188,0.188,0.294,0.443,0.294,0.708s-0.105,0.521-0.294,0.708l-2.946,2.936
							C23.562,81.737,23.308,81.842,23.043,81.842z M16.628,72.588l6.437,6.82l1.508-1.502l-6.539-6.517L16.628,72.588z"/>
					</g>
				</g>
				<g>
					<g>
						<path class="st5" d="M29.811,80.78c-0.15,0-0.301-0.034-0.44-0.102l-3.821-1.874c-0.373-0.183-0.594-0.578-0.556-0.991
							l0.816-8.738c0.036-0.383,0.288-0.711,0.649-0.845c0.362-0.132,0.767-0.047,1.042,0.22l3.559,3.447
							c0.214,0.207,0.324,0.499,0.302,0.795l-0.554,7.165c-0.025,0.331-0.213,0.627-0.501,0.791
							C30.153,80.736,29.982,80.78,29.811,80.78z M27.049,77.312l1.878,0.921l0.404-5.227l-1.724-1.67L27.049,77.312z"/>
					</g>
				</g>
				<g>
					<g>
						<path class="st5" d="M28.444,107.399h-6.839c-5.173,0-9.382-4.196-9.382-9.353V87.628c0-0.552,0.447-1,1-1s1,0.448,1,1v10.418
							c0,4.055,3.312,7.353,7.382,7.353h6.839c0.553,0,1,0.448,1,1S28.997,107.399,28.444,107.399z"/>
					</g>
				</g>
				<g>
					<g>
						<path class="st5" d="M36.326,96.946c-0.545,0-0.991-0.438-1-0.984c-0.056-3.518-0.424-6.101-0.427-6.127
							c-0.079-0.546,0.3-1.054,0.846-1.133c0.56-0.081,1.055,0.301,1.133,0.846c0.017,0.11,0.391,2.728,0.448,6.382
							c0.009,0.552-0.432,1.007-0.984,1.016C36.337,96.946,36.331,96.946,36.326,96.946z"/>
					</g>
				</g>
				<g>
					<g>
						<path class="st5" d="M31.277,115.5h-3.782c-0.553,0-1-0.448-1-1v-8.101c0-0.552,0.447-1,1-1h3.782c0.553,0,1,0.448,1,1v8.101
							C32.277,115.052,31.83,115.5,31.277,115.5z M28.495,113.5h1.782v-6.101h-1.782V113.5z"/>
					</g>
				</g>
				<g>
					<g>
						<path class="st5" d="M37.495,115.5h-6.218c-0.553,0-1-0.448-1-1v-5.414c0-0.552,0.447-1,1-1c1.025,0,2.233-0.476,3.401-0.936
							c2.201-0.867,4.696-1.851,6.698,0.11c1.407,1.377,1.763,3.173,1,5.057C41.607,114.221,39.646,115.5,37.495,115.5z
							 M32.277,113.5h5.218c1.344,0,2.561-0.776,3.028-1.932c0.463-1.146,0.29-2.06-0.545-2.877
							c-1.025-1.003-2.404-0.531-4.566,0.321c-1.022,0.402-2.072,0.815-3.135,0.989V113.5z"/>
					</g>
				</g>
				<g>
					<g>
						<path class="st5" d="M31.277,115.5H15.766c-3.95,0-7.049-1.153-9.208-3.428c-4.56-4.802-4.103-13.614-3.735-20.695
							c0.093-1.777,0.18-3.456,0.18-4.918c0-10.31,11.341-14.704,11.824-14.885c0.376-0.143,0.803-0.044,1.08,0.249l7.158,7.585
							l2.219-2.211c0.305-0.301,0.763-0.377,1.146-0.189l2.497,1.225l0.44-5.695c0.021-0.281,0.161-0.54,0.384-0.712
							c0.222-0.172,0.506-0.244,0.784-0.196c0.349,0.061,8.565,1.595,12.002,11.382c0.736,2.096,1.392,4.436,2.024,6.7
							c2.065,7.377,4.201,15.007,9.344,15.638c0.297,0.037,0.562,0.204,0.722,0.456c0.16,0.252,0.199,0.563,0.106,0.847
							l-0.991,3.037c-0.134,0.412-0.518,0.69-0.95,0.69H42.061c-0.258,0-0.505-0.1-0.691-0.277
							c-1.952-1.868-3.466-4.062-4.489-6.466c-0.051,0.352-0.105,0.699-0.165,1.041c-0.233,1.343-0.616,2.668-1.138,3.938
							c-0.104,0.253-0.307,0.453-0.562,0.552c-0.88,0.343-1.803,0.681-2.738,0.834v4.499C32.277,115.052,31.83,115.5,31.277,115.5z
							 M14.931,73.704c-2.236,1.022-9.929,5.096-9.929,12.755c0,1.514-0.089,3.218-0.182,5.021
							c-0.348,6.699-0.78,15.035,3.188,19.214c1.792,1.887,4.33,2.805,7.758,2.805h14.512v-4.414c0-0.265,0.105-0.52,0.293-0.707
							s0.441-0.293,0.707-0.293c0.805,0,1.717-0.291,2.606-0.627c0.387-1.014,0.676-2.063,0.86-3.125
							c0.412-2.372,0.609-5.036,0.587-7.924c-0.003-0.154-0.005-0.309-0.005-0.464c0-0.549,0.443-0.996,0.992-1
							c0.003,0,0.005,0,0.008,0c0.546,0,0.991,0.438,1,0.985c0.002,0.149,0.004,0.298,0.005,0.447
							c0.108,4.553,1.919,8.786,5.137,12.002h9.599l0.419-1.283c-5.581-1.601-7.749-9.343-9.85-16.846
							c-0.625-2.233-1.271-4.542-1.985-6.576c-2.366-6.737-7.215-9.06-9.382-9.783l-0.461,5.965
							c-0.025,0.331-0.213,0.627-0.501,0.791c-0.287,0.164-0.638,0.176-0.937,0.03l-3.181-1.56l-2.44,2.433
							c-0.188,0.187-0.441,0.292-0.706,0.292c-0.005,0-0.01,0-0.016,0c-0.27-0.004-0.526-0.117-0.712-0.313L14.931,73.704z"/>
					</g>
				</g>
				<g>
					<g>
						<path class="st5" d="M15.044,52.528c-0.553,0-1-0.448-1-1v-8.8c0-4.933,4.025-8.946,8.973-8.946h19.627
							c0.411,0,0.78,0.252,0.931,0.635c0.15,0.382,0.051,0.817-0.249,1.097c-0.057,0.053-4.188,3.998-4.188,10.088
							c0,0.552-0.447,1-1,1h-10.69c-1.388,0-2.517,1.123-2.517,2.504c0,0.502-0.09,1.009-0.268,1.506
							c-0.145,0.407-0.555,0.673-0.968,0.664c-0.433-0.011-0.809-0.299-0.932-0.714c-0.438-1.471-1.756-2.458-3.279-2.458
							c-1.897,0-3.44,1.537-3.44,3.425C16.044,52.081,15.597,52.528,15.044,52.528z M19.484,46.103c1.426,0,2.738,0.544,3.716,1.469
							c0.63-1.731,2.296-2.971,4.247-2.971h9.722c0.255-4.001,1.985-7.05,3.296-8.82H23.017c-3.845,0-6.973,3.116-6.973,6.946v4.601
							C16.982,46.563,18.181,46.103,19.484,46.103z"/>
					</g>
				</g>
				<g>
					<g>
						<path class="st5" d="M19.484,56.954c-3,0-5.44-2.434-5.44-5.425s2.44-5.425,5.44-5.425c2.999,0,5.439,2.434,5.439,5.425
							S22.483,56.954,19.484,56.954z M19.484,48.103c-1.897,0-3.44,1.537-3.44,3.425s1.543,3.425,3.44,3.425
							c1.896,0,3.439-1.537,3.439-3.425S21.381,48.103,19.484,48.103z"/>
					</g>
				</g>
				<g>
					<g>
						<path class="st5" d="M30.931,63.936c-1.602,0-2.904-1.3-2.904-2.898s1.303-2.898,2.904-2.898s2.904,1.3,2.904,2.898
							S32.532,63.936,30.931,63.936z M30.931,60.14c-0.499,0-0.904,0.403-0.904,0.898s0.405,0.898,0.904,0.898
							s0.904-0.403,0.904-0.898S31.43,60.14,30.931,60.14z"/>
					</g>
				</g>
				<g>
					<g>
						<path class="st5" d="M29.026,62.038c-3.991,0-7.595-2.205-9.403-5.754c-0.251-0.492-0.056-1.094,0.437-1.345
							c0.493-0.25,1.094-0.056,1.345,0.437c1.466,2.875,4.387,4.662,7.622,4.662c0.553,0,1,0.448,1,1S29.579,62.038,29.026,62.038z"
							/>
					</g>
				</g>
				<g>
					<g>
						<path class="st5" d="M21.193,48.461c-0.132,0-0.265-0.026-0.39-0.079c-0.896-0.378-1.815-0.358-2.646-0.014
							c-0.307,0.128-0.661,0.094-0.938-0.091c-0.278-0.186-0.445-0.498-0.445-0.832v-7.016c0-2.058,0.766-4.038,2.156-5.577
							c0.091-0.1,0.2-0.181,0.322-0.237c1.196-0.552,2.462-0.833,3.764-0.833h0.873c0.423,0,0.799,0.266,0.941,0.663
							c0.143,0.398,0.02,0.842-0.307,1.11c-1.481,1.215-2.331,2.992-2.331,4.874v7.033c0,0.335-0.168,0.648-0.447,0.833
							C21.579,48.405,21.387,48.461,21.193,48.461z M19.484,46.103c0.236,0,0.474,0.017,0.709,0.049v-5.724
							c0-1.609,0.469-3.158,1.328-4.483c-0.422,0.094-0.836,0.228-1.241,0.401c-0.973,1.147-1.506,2.589-1.506,4.083v5.72
							C19.009,46.119,19.246,46.103,19.484,46.103z"/>
					</g>
				</g>
			</g>
			<g>
				<g>
					<g>
						<path class="st5" d="M90.723,115.5H51.119c-0.32,0-0.621-0.153-0.81-0.413c-0.188-0.259-0.24-0.593-0.141-0.897l11.008-33.7
							c0.134-0.411,0.518-0.689,0.95-0.689h39.604c0.32,0,0.621,0.153,0.81,0.413c0.188,0.259,0.24,0.593,0.141,0.897l-11.008,33.7
							C91.539,115.222,91.155,115.5,90.723,115.5z M52.498,113.5h37.499l10.354-31.7H62.853L52.498,113.5z"/>
					</g>
				</g>
				<g>
					<g>
						<path class="st5" d="M75.267,102.194c-1.247,0-2.293-0.495-2.943-1.392c-0.674-0.928-0.821-2.19-0.405-3.463
							c0.775-2.374,3.264-4.234,5.664-4.234c1.248,0,2.294,0.495,2.945,1.393c0.673,0.928,0.82,2.19,0.404,3.462
							C80.156,100.334,77.668,102.194,75.267,102.194z M77.582,95.105c-1.534,0-3.258,1.308-3.764,2.855
							c-0.217,0.666-0.174,1.258,0.123,1.667c0.266,0.365,0.735,0.566,1.325,0.566c1.535,0,3.259-1.308,3.765-2.855
							c0.217-0.666,0.174-1.258-0.123-1.667C78.643,95.307,78.172,95.105,77.582,95.105z"/>
					</g>
				</g>
				<g>
					<g>
						<path class="st5" d="M90.723,115.5H51.119c-0.32,0-0.621-0.153-0.81-0.413c-0.188-0.259-0.24-0.593-0.141-0.897l1.673-5.12
							c0.134-0.411,0.518-0.689,0.95-0.689h39.603c0.32,0,0.621,0.153,0.81,0.413s0.24,0.593,0.141,0.898l-1.672,5.12
							C91.539,115.222,91.155,115.5,90.723,115.5z M52.498,113.5h37.499l1.019-3.12H53.518L52.498,113.5z"/>
					</g>
				</g>
				<g>
					<g>
						<path class="st5" d="M51.119,115.5H37.495c-0.553,0-1-0.448-1-1s0.447-1,1-1c1.344,0,2.562-0.777,3.029-1.933
							c0.274-0.682,0.316-1.307,0.125-1.859c-0.106-0.306-0.059-0.644,0.129-0.908c0.188-0.264,0.491-0.42,0.815-0.42h11.198
							c0.32,0,0.621,0.153,0.81,0.413c0.188,0.259,0.24,0.593,0.141,0.897l-1.673,5.12C51.936,115.222,51.552,115.5,51.119,115.5z
							 M41.688,113.5h8.705l1.02-3.12H42.77c0.007,0.626-0.124,1.273-0.391,1.937C42.205,112.745,41.971,113.142,41.688,113.5z"/>
					</g>
				</g>
			</g>
		</g>
		<g>
			<g>
				<g>
					<path class="st5" d="M88.893,67.499c-0.37,0-0.711-0.205-0.884-0.532l-3.341-6.312c-0.076-0.144-0.116-0.305-0.116-0.468
						v-2.844c0-0.34,0.173-0.657,0.459-0.841c0.286-0.184,0.646-0.21,0.955-0.069c1.859,0.846,3.988,0.847,5.854,0
						c0.31-0.14,0.67-0.114,0.955,0.069c0.286,0.184,0.459,0.501,0.459,0.841v2.844c0,0.163-0.04,0.324-0.116,0.468l-3.341,6.312
						C89.604,67.294,89.263,67.499,88.893,67.499z M86.552,59.938l2.341,4.423l2.341-4.423v-1.176c-1.523,0.41-3.158,0.41-4.682,0
						V59.938z"/>
				</g>
			</g>
			<g>
				<g>
					<path class="st5" d="M103.155,75.511H74.628c-0.274,0-0.536-0.112-0.725-0.311c-0.189-0.199-0.288-0.466-0.274-0.74
						l0.035-0.672c0.058-1.097,0.112-2.133,0.112-3.033c0-6.563,7.291-9.555,8.037-9.844l3.297-1.623
						c0.484-0.237,1.072-0.049,1.325,0.43l2.457,4.644l2.457-4.644c0.252-0.479,0.84-0.668,1.325-0.429l3.296,1.623
						c0.746,0.289,8.036,3.28,8.036,9.843c0,0.899,0.055,1.936,0.112,3.033l0.035,0.672c0.014,0.273-0.085,0.541-0.274,0.74
						C103.691,75.398,103.43,75.511,103.155,75.511z M75.682,73.511h26.42c-0.051-0.983-0.095-1.912-0.095-2.756
						c0-5.396-6.718-7.963-6.786-7.989c-0.031-0.012-0.062-0.025-0.092-0.04l-2.466-1.214l-2.887,5.454c0,0.002,0,0.001-0.001,0.002
						c0,0-0.001,0.001-0.001,0.002c0,0,0.001,0-0.002,0.002v0c-0.259,0.48-0.852,0.665-1.338,0.415
						c-0.205-0.105-0.358-0.272-0.449-0.466l-2.863-5.41l-2.468,1.214c-0.031,0.016-0.063,0.029-0.096,0.042
						c-0.162,0.062-6.782,2.646-6.782,7.987C75.776,71.599,75.732,72.528,75.682,73.511z"/>
				</g>
			</g>
			<g>
				<g>
					<path class="st5" d="M88.892,59.069c-3.905,0-7.347-2.497-8.579-6.146c-1.655-0.458-2.659-1.789-2.659-3.582V47.76
						c0-1.469,0.931-2.21,1.831-2.467v-3.079c0-3.98,3.247-7.218,7.239-7.218h4.336c1.739,0,2.759,0.855,3.292,1.527
						c0.601-0.094,1.342-0.049,2.029,0.375c1.273,0.787,1.919,2.576,1.919,5.317v3.079c0.899,0.256,1.83,0.998,1.83,2.466v1.581
						c0,1.794-1.005,3.125-2.659,3.583C96.238,56.573,92.798,59.069,88.892,59.069z M80.226,47.187
						c-0.572,0.02-0.572,0.408-0.572,0.574v1.581c0,0.681,0.26,1.532,1.5,1.719c0.396,0.06,0.811,0.359,0.912,0.747
						c0.809,3.099,3.616,5.263,6.826,5.263c3.211,0,6.019-2.164,6.826-5.263c0.104-0.397,0.439-0.691,0.848-0.74
						c1.305-0.193,1.564-1.044,1.564-1.726V47.76c0-0.42-0.282-0.622-0.687-0.564c-0.285,0.04-0.578-0.043-0.798-0.233
						c-0.22-0.19-0.346-0.466-0.346-0.756v-3.991c0-2.704-0.672-3.425-0.961-3.609c-0.428-0.273-0.988-0.018-0.994-0.015
						c-0.248,0.115-0.54,0.127-0.794,0.026c-0.255-0.1-0.464-0.297-0.567-0.551c-0.043-0.097-0.517-1.07-1.924-1.07h-4.336
						c-2.889,0-5.239,2.341-5.239,5.218v3.992c0,0.291-0.126,0.566-0.346,0.756c-0.22,0.189-0.513,0.272-0.798,0.233
						C80.303,47.191,80.265,47.187,80.226,47.187z"/>
				</g>
			</g>
			<g>
				<g>
					<path class="st5" d="M95.675,48.163c-0.208,0-0.419-0.035-0.63-0.117c-1.413-0.548-1.413-2.617-1.413-3.296
						c0-0.96-0.785-1.742-1.751-1.742h-5.978c-0.966,0-1.752,0.782-1.752,1.742c0,0.68,0,2.749-1.413,3.296
						c-1.358,0.524-2.73-0.879-2.993-1.166c-0.372-0.408-0.343-1.041,0.065-1.413c0.406-0.371,1.037-0.344,1.411,0.063
						c0.226,0.243,0.555,0.494,0.762,0.59c0.067-0.172,0.168-0.564,0.168-1.372c0-2.063,1.684-3.742,3.752-3.742h5.978
						c2.068,0,3.751,1.679,3.751,3.742c0,0.808,0.101,1.201,0.168,1.373c0.208-0.097,0.538-0.348,0.764-0.592
						c0.373-0.404,1.005-0.433,1.411-0.059c0.406,0.373,0.436,1.002,0.064,1.409C97.817,47.123,96.803,48.163,95.675,48.163z"/>
				</g>
			</g>
		</g>
		<g>
			<g>
				<g>
					<path class="st5" d="M112.736,67.499L112.736,67.499c-0.37,0-0.711-0.205-0.884-0.532l-3.34-6.312
						c-0.076-0.144-0.116-0.305-0.116-0.468v-2.844c0-0.34,0.173-0.657,0.459-0.841c0.286-0.184,0.646-0.21,0.955-0.069
						c1.861,0.847,3.991,0.847,5.853,0c0.311-0.14,0.67-0.114,0.955,0.069c0.286,0.184,0.459,0.501,0.459,0.841v2.844
						c0,0.163-0.04,0.324-0.116,0.468l-3.341,6.312C113.447,67.294,113.106,67.499,112.736,67.499z M110.396,59.938l2.34,4.422
						l2.341-4.423v-1.176c-1.523,0.41-3.157,0.41-4.681,0V59.938z"/>
				</g>
			</g>
			<g>
				<g>
					<path class="st5" d="M127,75.511h-23.845c-0.532,0-0.972-0.417-0.999-0.949l-0.034-0.669c-0.06-1.124-0.115-2.186-0.115-3.138
						c0-1.673-0.651-3.246-1.937-4.673c-0.343-0.38-0.343-0.958,0-1.338c2.331-2.589,5.501-3.8,5.635-3.851l3.25-1.604
						c0.483-0.239,1.072-0.049,1.325,0.43l2.456,4.642l2.457-4.642c0.252-0.479,0.84-0.67,1.325-0.429l3.296,1.622
						c0.746,0.289,8.037,3.28,8.037,9.844c0,0.919,0.056,1.98,0.115,3.104l0.032,0.601c0.014,0.274-0.085,0.542-0.273,0.74
						C127.536,75.398,127.274,75.511,127,75.511z M104.104,73.511h21.842c-0.052-0.983-0.095-1.913-0.095-2.756
						c0-5.396-6.718-7.963-6.786-7.989c-0.031-0.012-0.062-0.025-0.092-0.04l-2.467-1.214l-2.887,5.454
						c-0.173,0.328-0.514,0.532-0.884,0.532l0,0c-0.37,0-0.711-0.205-0.884-0.532l-2.886-5.454l-2.468,1.214
						c-0.031,0.016-0.063,0.03-0.097,0.042c-0.087,0.034-2.35,0.914-4.245,2.7c1.228,1.617,1.85,3.391,1.85,5.287
						C104.007,71.579,104.053,72.517,104.104,73.511z"/>
				</g>
			</g>
			<g>
				<g>
					<path class="st5" d="M112.736,59.069c-3.906,0-7.348-2.497-8.579-6.147c-1.657-0.459-2.659-1.789-2.659-3.582V47.76
						c0-1.469,0.931-2.21,1.83-2.466v-3.08c0-3.98,3.247-7.218,7.239-7.218h4.336c1.739,0,2.76,0.855,3.293,1.527
						c0.601-0.094,1.343-0.049,2.028,0.375c1.273,0.787,1.919,2.576,1.919,5.317v3.078c0.9,0.257,1.831,0.998,1.831,2.467v1.581
						c0,1.794-1.005,3.125-2.659,3.582C120.082,56.572,116.642,59.069,112.736,59.069z M104.069,47.187
						c-0.571,0.02-0.571,0.408-0.571,0.574v1.581c0,0.681,0.26,1.532,1.499,1.719c0.396,0.06,0.812,0.359,0.913,0.747
						c0.808,3.099,3.615,5.263,6.826,5.263c3.21,0,6.018-2.164,6.826-5.263c0.104-0.397,0.439-0.691,0.848-0.74
						c1.305-0.193,1.564-1.044,1.564-1.726V47.76c0-0.42-0.278-0.621-0.688-0.564c-0.286,0.04-0.579-0.043-0.798-0.233
						c-0.22-0.19-0.346-0.466-0.346-0.756v-3.991c0-2.704-0.672-3.425-0.961-3.609c-0.425-0.272-0.987-0.018-0.993-0.015
						c-0.248,0.115-0.54,0.127-0.794,0.026c-0.255-0.1-0.464-0.297-0.567-0.551c-0.043-0.097-0.517-1.07-1.925-1.07h-4.336
						c-2.889,0-5.239,2.341-5.239,5.218v3.992c0,0.291-0.126,0.566-0.346,0.756c-0.22,0.189-0.514,0.272-0.798,0.233
						C104.146,47.191,104.108,47.187,104.069,47.187z"/>
				</g>
			</g>
			<g>
				<g>
					<path class="st5" d="M119.519,48.163c-0.208,0-0.419-0.035-0.63-0.117c-1.413-0.548-1.413-2.617-1.413-3.296
						c0-0.96-0.785-1.742-1.751-1.742h-5.978c-0.966,0-1.751,0.782-1.751,1.742c0,0.68,0,2.749-1.413,3.296
						c-1.354,0.525-2.731-0.878-2.994-1.166c-0.372-0.408-0.343-1.041,0.065-1.413c0.406-0.371,1.037-0.344,1.411,0.063
						c0.226,0.244,0.555,0.495,0.763,0.591c0.067-0.172,0.168-0.565,0.168-1.373c0-2.063,1.683-3.742,3.751-3.742h5.978
						c2.068,0,3.751,1.679,3.751,3.742c0,0.808,0.101,1.201,0.168,1.373c0.208-0.097,0.538-0.348,0.764-0.592
						c0.373-0.404,1.005-0.433,1.411-0.059c0.406,0.373,0.436,1.002,0.064,1.409C121.661,47.123,120.646,48.163,119.519,48.163z"/>
				</g>
			</g>
		</g>
		<g>
			<g>
				<g>
					<path class="st5" d="M65.048,67.499L65.048,67.499c-0.37,0-0.711-0.205-0.884-0.532l-3.34-6.312
						c-0.076-0.144-0.116-0.305-0.116-0.468v-2.844c0-0.34,0.173-0.657,0.459-0.841c0.286-0.184,0.645-0.21,0.955-0.069
						c1.861,0.847,3.991,0.847,5.853,0c0.31-0.14,0.669-0.114,0.955,0.069c0.286,0.184,0.459,0.501,0.459,0.841v2.844
						c0,0.163-0.04,0.324-0.116,0.468l-3.341,6.312C65.759,67.294,65.418,67.499,65.048,67.499z M62.708,59.938l2.34,4.422
						l2.341-4.423v-1.176c-1.523,0.41-3.157,0.41-4.681,0V59.938z"/>
				</g>
			</g>
			<g>
				<g>
					<path class="st5" d="M74.628,75.511H50.783c-0.274,0-0.536-0.113-0.726-0.312c-0.188-0.199-0.287-0.466-0.273-0.74l0.032-0.601
						c0.06-1.123,0.115-2.185,0.115-3.104c0-6.564,7.293-9.555,8.038-9.844l3.297-1.623c0.484-0.239,1.072-0.049,1.325,0.43
						l2.456,4.642l2.457-4.642c0.253-0.479,0.839-0.67,1.325-0.429l3.338,1.643c0.044,0.011,3.216,1.222,5.545,3.812
						c0.343,0.38,0.343,0.958,0,1.338c-1.285,1.428-1.937,3-1.937,4.673c0,0.952-0.056,2.014-0.115,3.138l-0.034,0.669
						C75.6,75.093,75.16,75.511,74.628,75.511z M51.837,73.511h21.842c0.052-0.994,0.098-1.932,0.098-2.756
						c0-1.896,0.621-3.67,1.85-5.287c-1.917-1.805-4.227-2.694-4.252-2.704l-2.556-1.253l-2.86,5.405
						c-0.068,0.148-0.173,0.281-0.309,0.382c-0.233,0.175-0.533,0.241-0.819,0.177c-0.285-0.064-0.529-0.249-0.666-0.507
						l-2.886-5.456l-2.468,1.214c-0.031,0.016-0.063,0.029-0.096,0.042c-0.154,0.059-6.783,2.643-6.783,7.987
						C51.932,71.598,51.889,72.528,51.837,73.511z"/>
				</g>
			</g>
			<g>
				<g>
					<path class="st5" d="M65.048,59.069c-3.906,0-7.348-2.497-8.579-6.147c-1.657-0.459-2.659-1.789-2.659-3.582V47.76
						c0-1.469,0.931-2.21,1.83-2.466v-3.08c0-3.98,3.247-7.218,7.239-7.218h4.336c1.739,0,2.76,0.855,3.293,1.527
						c0.6-0.094,1.343-0.049,2.028,0.375c1.273,0.787,1.919,2.576,1.919,5.317v3.078c0.9,0.257,1.831,0.998,1.831,2.467v1.581
						c0,1.794-1.005,3.125-2.659,3.582C72.394,56.572,68.953,59.069,65.048,59.069z M56.381,47.187
						c-0.571,0.02-0.571,0.408-0.571,0.574v1.581c0,0.681,0.26,1.532,1.499,1.719c0.396,0.06,0.812,0.359,0.913,0.747
						c0.808,3.099,3.615,5.263,6.826,5.263c3.21,0,6.018-2.164,6.826-5.263c0.104-0.397,0.439-0.691,0.848-0.74
						c1.305-0.193,1.564-1.044,1.564-1.726V47.76c0-0.42-0.282-0.621-0.688-0.564c-0.285,0.04-0.579-0.043-0.798-0.233
						c-0.22-0.19-0.346-0.466-0.346-0.756v-3.991c0-2.704-0.672-3.425-0.961-3.609c-0.425-0.272-0.987-0.018-0.993-0.015
						c-0.248,0.115-0.54,0.127-0.794,0.026c-0.255-0.1-0.464-0.297-0.567-0.551c-0.043-0.097-0.517-1.07-1.925-1.07h-4.336
						c-2.889,0-5.239,2.341-5.239,5.218v3.992c0,0.291-0.126,0.566-0.346,0.756c-0.22,0.189-0.513,0.272-0.798,0.233
						C56.458,47.191,56.42,47.187,56.381,47.187z"/>
				</g>
			</g>
			<g>
				<g>
					<path class="st5" d="M71.83,48.163c-0.208,0-0.419-0.035-0.63-0.117c-1.413-0.548-1.413-2.617-1.413-3.296
						c0-0.96-0.785-1.742-1.751-1.742h-5.978c-0.966,0-1.751,0.782-1.751,1.742c0,0.68,0,2.749-1.413,3.296
						c-1.354,0.525-2.731-0.878-2.994-1.166c-0.372-0.408-0.343-1.041,0.065-1.413c0.406-0.371,1.038-0.344,1.41,0.062l0,0
						c0.226,0.244,0.556,0.495,0.764,0.592c0.067-0.172,0.168-0.565,0.168-1.373c0-2.063,1.683-3.742,3.751-3.742h5.978
						c2.068,0,3.751,1.679,3.751,3.742c0,0.808,0.101,1.201,0.168,1.373c0.208-0.097,0.538-0.348,0.764-0.592
						c0.373-0.404,1.005-0.433,1.411-0.059c0.406,0.373,0.436,1.002,0.064,1.409C73.973,47.123,72.958,48.163,71.83,48.163z"/>
				</g>
			</g>
		</g>
		<g>
			<path class="st5" d="M108.795,99.646h-2c-0.553,0-1-0.448-1-1s0.447-1,1-1h2c0.553,0,1,0.448,1,1S109.348,99.646,108.795,99.646z
				 M102.795,99.646h-2c-0.553,0-1-0.448-1-1s0.447-1,1-1h2c0.553,0,1,0.448,1,1S103.348,99.646,102.795,99.646z M96.795,99.646
				h-0.568c-0.553,0-1-0.448-1-1s0.447-1,1-1h0.568c0.553,0,1,0.448,1,1S97.348,99.646,96.795,99.646z M112.736,99.588
				c-0.553,0-1-0.448-1-1v-2c0-0.552,0.447-1,1-1s1,0.448,1,1v2C113.736,99.141,113.289,99.588,112.736,99.588z M112.736,93.588
				c-0.553,0-1-0.448-1-1v-2c0-0.552,0.447-1,1-1s1,0.448,1,1v2C113.736,93.141,113.289,93.588,112.736,93.588z M112.736,87.588
				c-0.553,0-1-0.448-1-1v-2c0-0.552,0.447-1,1-1s1,0.448,1,1v2C113.736,87.141,113.289,87.588,112.736,87.588z"/>
		</g>
		<g>
			<path class="st5" d="M25.844,32.931c-0.553,0-1-0.448-1-1v-2c0-0.552,0.447-1,1-1s1,0.448,1,1v2
				C26.844,32.483,26.396,32.931,25.844,32.931z M25.844,26.931c-0.553,0-1-0.448-1-1v-2c0-0.552,0.447-1,1-1s1,0.448,1,1v2
				C26.844,26.483,26.396,26.931,25.844,26.931z M82.233,21.321h-2c-0.553,0-1-0.448-1-1s0.447-1,1-1h2c0.553,0,1,0.448,1,1
				S82.786,21.321,82.233,21.321z M76.233,21.321h-2c-0.553,0-1-0.448-1-1s0.447-1,1-1h2c0.553,0,1,0.448,1,1
				S76.786,21.321,76.233,21.321z M70.233,21.321h-2c-0.553,0-1-0.448-1-1s0.447-1,1-1h2c0.553,0,1,0.448,1,1
				S70.786,21.321,70.233,21.321z M64.233,21.321h-2c-0.553,0-1-0.448-1-1s0.447-1,1-1h2c0.553,0,1,0.448,1,1
				S64.786,21.321,64.233,21.321z M58.233,21.321h-2c-0.553,0-1-0.448-1-1s0.447-1,1-1h2c0.553,0,1,0.448,1,1
				S58.786,21.321,58.233,21.321z M52.233,21.321h-2c-0.553,0-1-0.448-1-1s0.447-1,1-1h2c0.553,0,1,0.448,1,1
				S52.786,21.321,52.233,21.321z M46.233,21.321h-2c-0.553,0-1-0.448-1-1s0.447-1,1-1h2c0.553,0,1,0.448,1,1
				S46.786,21.321,46.233,21.321z M40.233,21.321h-2c-0.553,0-1-0.448-1-1s0.447-1,1-1h2c0.553,0,1,0.448,1,1
				S40.786,21.321,40.233,21.321z M34.233,21.321h-2c-0.553,0-1-0.448-1-1s0.447-1,1-1h2c0.553,0,1,0.448,1,1
				S34.786,21.321,34.233,21.321z M28.233,21.321h-2c-0.553,0-1-0.448-1-1s0.447-1,1-1h2c0.553,0,1,0.448,1,1
				S28.786,21.321,28.233,21.321z"/>
		</g>
	</g>
</g>
</svg>
