<?xml version="1.0" encoding="utf-8"?>
<!-- Generator: Adobe Illustrator 22.0.0, SVG Export Plug-In . SVG Version: 6.00 Build 0)  -->
<svg version="1.1" id="MARKET_RESEARCH_ICON_SET" xmlns="http://www.w3.org/2000/svg" xmlns:xlink="http://www.w3.org/1999/xlink"
	 x="0px" y="0px" viewBox="0 0 128 128" style="enable-background:new 0 0 128 128;" xml:space="preserve">
<style type="text/css">
	.st0{fill:#C2D5EC;}
	.st1{fill:#61E1FF;}
	.st2{fill:#7184AF;}
	.st3{fill:#F8F8F8;}
	.st4{fill:#3F4D81;}
	.st5{fill:#3F4D80;}
	.st6{fill:#E9EAEB;}
	.st7{fill:#F79559;}
	.st8{fill:#FFA85A;}
</style>
<g>
	<g>
		<path class="st0" d="M128,58.796v52.369H0V77.913c17.03,0,3.39-45.172,20.76-45.172c12.55,0,15.22,14.485,20.78,18.728
			c-2.09,3.704-3.27,7.976-3.27,12.528c0,14.165,11.5,25.646,25.69,25.646s25.69-11.48,25.69-25.646c0-4.492-1.15-8.715-3.19-12.389
			C100.27,31.264,128,42.714,128,58.796z"/>
		<g>
			<g>
				<path class="st3" d="M14.925,85.292H9.554C7.591,85.292,6,86.881,6,88.84v22.325h12.479V88.84
					C18.479,86.881,16.888,85.292,14.925,85.292z"/>
			</g>
			<g>
				<path class="st3" d="M35.68,73.008h-5.472c-1.935,0-3.504,1.566-3.504,3.498v34.659h12.479V76.506
					C39.183,74.574,37.615,73.008,35.68,73.008z"/>
			</g>
			<g>
				<path class="st3" d="M59.89,89.313v21.852H47.41V83.603C50.891,86.558,55.339,88.699,59.89,89.313z"/>
			</g>
			<g>
				<path class="st3" d="M80.59,83.553v27.612H68.11V89.293c4.405-0.719,8.342-2.604,11.87-5.241
					C80.19,83.892,80.39,83.723,80.59,83.553z"/>
			</g>
			<g>
				<path class="st3" d="M98.044,66.545h-5.975c-1.796,0-3.252,1.453-3.252,3.246v41.374h12.479V69.791
					C101.296,67.998,99.84,66.545,98.044,66.545z"/>
			</g>
			<g>
				<path class="st3" d="M118.748,89.502h-5.975c-1.796,0-3.252,1.453-3.252,3.246v18.417H122V92.748
					C122,90.955,120.544,89.502,118.748,89.502z"/>
			</g>
		</g>
		<g>
			<g>
				<path class="st2" d="M84.041,83.976l4.776,4.768V74.47C87.897,77.99,86.249,81.215,84.041,83.976z"/>
			</g>
			<g>
				<g>
					<path class="st4" d="M103.8,100.623l-2.5-2.496l-8.36-8.346c-1.02-1.018-2.53-1.238-3.77-0.679l-0.35-0.359l-4.78-4.772
						c2.21-2.755,3.86-5.98,4.78-9.504v-3.993c-2.87,11.031-12.91,19.167-24.86,19.167c-13.52,0-24.59-10.412-25.61-23.649
						c-0.05,0.659-0.08,1.328-0.08,1.997c0,7.866,3.55,14.904,9.14,19.606c3.49,2.935,7.77,4.971,12.48,5.72
						c1.32,0.21,2.68,0.319,4.07,0.319c1.41,0,2.8-0.13,4.15-0.349c4.44-0.719,8.5-2.566,11.86-5.251l0.62,0.619l4.52,4.502
						c-0.2,0.439-0.3,0.918-0.3,1.398c0,0.858,0.32,1.707,0.98,2.366l3.03,3.025l7.83,7.816c1.28,1.278,3.32,1.298,4.65,0.1
						c0.03-0.04,0.08-0.06,0.12-0.1l2.38-2.376C105.12,104.067,105.12,101.941,103.8,100.623z"/>
				</g>
			</g>
			<g>
				<path class="st5" d="M99.026,109.745c-1.116,0-2.233-0.426-3.084-1.276L85.08,97.625c-1.103-1.101-1.518-2.719-1.125-4.203
					l-4.067-4.059c-3.412,2.536-7.409,4.229-11.614,4.914c-2.919,0.476-5.733,0.468-8.543,0.022
					c-4.772-0.759-9.256-2.812-12.967-5.936C40.73,83.282,37.27,75.856,37.27,67.99c0-14.692,11.973-26.646,26.689-26.646
					c14.523,0,26.492,11.795,26.682,26.293c0.003,0.249-0.087,0.49-0.251,0.676c-0.262,0.295-0.573,0.791-0.573,1.477v4.68
					c0,0.085-0.011,0.17-0.032,0.253c-0.871,3.331-2.354,6.411-4.413,9.167l4.065,4.059c1.484-0.393,3.105,0.022,4.207,1.123
					l10.861,10.843v0c0.826,0.825,1.281,1.921,1.281,3.087s-0.455,2.263-1.28,3.087l-2.385,2.379
					c-0.033,0.034-0.134,0.119-0.172,0.147C101.122,109.369,100.074,109.745,99.026,109.745z M79.973,87.037
					c0.257,0,0.513,0.099,0.706,0.292l5.133,5.124c0.295,0.294,0.377,0.74,0.205,1.119c-0.409,0.906-0.222,1.941,0.477,2.638
					l10.861,10.843c0.895,0.891,2.329,0.921,3.269,0.065c0.023-0.021,0.102-0.085,0.127-0.104l2.343-2.341
					c0.447-0.447,0.693-1.041,0.693-1.672s-0.246-1.225-0.693-1.671c0,0,0,0-0.001,0l-10.86-10.843
					c-0.699-0.697-1.738-0.884-2.648-0.475c-0.383,0.171-0.826,0.088-1.12-0.206l-5.129-5.123c-0.36-0.36-0.393-0.934-0.074-1.332
					c2.144-2.68,3.676-5.711,4.557-9.01v-4.55c0-0.889,0.288-1.756,0.817-2.482C88.27,54.062,77.274,43.344,63.959,43.344
					C50.345,43.344,39.27,54.4,39.27,67.99c0,7.275,3.201,14.144,8.783,18.843c3.432,2.891,7.578,4.789,11.992,5.491
					c2.599,0.413,5.196,0.42,7.906-0.02c4.163-0.678,8.104-2.424,11.398-5.049C79.532,87.108,79.753,87.037,79.973,87.037z"/>
			</g>
		</g>
		<g>
			<g>
				<path class="st1" d="M63.959,38.351c-14.188,0-25.69,11.482-25.69,25.646s11.502,25.646,25.69,25.646s25.69-11.482,25.69-25.646
					S78.147,38.351,63.959,38.351z M63.959,83.872c-10.996,0-19.909-8.898-19.909-19.875c0-10.977,8.914-19.875,19.909-19.875
					s19.909,8.898,19.909,19.875C83.868,74.973,74.955,83.872,63.959,83.872z"/>
			</g>
			<g>
				<g>
					<path class="st3" d="M41.47,63.997c0-13.626,10.64-24.767,24.09-25.596c-0.53-0.03-1.06-0.05-1.6-0.05
						c-14.19,0-25.69,11.48-25.69,25.646s11.5,25.646,25.69,25.646c0.54,0,1.07-0.02,1.6-0.05
						C52.11,88.764,41.47,77.623,41.47,63.997z"/>
				</g>
			</g>
			<g>
				<path class="st1" d="M79.97,84.042c-0.419,0.337-0.849,0.66-1.29,0.968C79.117,84.72,79.588,84.371,79.97,84.042z M78.68,85.01
					c-0.65,0.449-1.33,0.878-2.02,1.278C77.36,85.909,78.03,85.48,78.68,85.01z M74.44,87.406c-1.48,0.669-3.05,1.188-4.68,1.567
					C71.38,88.614,72.95,88.085,74.44,87.406z M68.11,89.303c0.556-0.079,1.106-0.189,1.65-0.329
					C69.22,89.091,68.643,89.2,68.11,89.303z M47.41,83.623c0.872,0.731,1.791,1.408,2.76,2.007
					C49.214,85.023,48.257,84.288,47.41,83.623z"/>
			</g>
			<g>
				<path class="st1" d="M88.82,69.787v0.689c0.21-0.779,0.38-1.587,0.5-2.396C89,68.579,88.82,69.158,88.82,69.787z"/>
			</g>
			<g>
				<path class="st7" d="M88.17,85.787c0.298-0.297,0.641-0.517,1.003-0.68l-5.133-5.124c-1.2,1.501-2.565,2.863-4.068,4.061
					l5.133,5.124c0.163-0.362,0.384-0.704,0.681-1.001L88.17,85.787z"/>
			</g>
			<g>
				<path class="st2" d="M85.787,92.925l10.861,10.843c1.316,1.314,3.451,1.314,4.767,0l2.384-2.379
					c1.316-1.314,1.316-3.445,0-4.759L92.937,85.787c-1.316-1.314-3.451-1.314-4.767,0l-2.384,2.379
					C84.47,89.48,84.47,91.611,85.787,92.925z"/>
			</g>
			<g>
				<path class="st2" d="M63.802,53.669v-9.543c-8.228,0.064-15.266,5.108-18.239,12.264l8.831,3.652
					C55.931,56.343,59.556,53.733,63.802,53.669z"/>
			</g>
			<g>
				<g>
					<path class="st8" d="M75.661,47.934l-4.316,8.832c0.92,0.937,1.667,2.045,2.179,3.277l8.831-3.652
						C80.942,52.989,78.603,50.074,75.661,47.934z"/>
				</g>
				<g>
					<path class="st8" d="M67.831,54.411l6.518-7.356c-3.026-1.854-6.579-2.933-10.39-2.933c-0.053,0-0.104,0.004-0.157,0.004v9.543
						c0.053-0.001,0.104-0.008,0.157-0.008C65.329,53.662,66.635,53.929,67.831,54.411z"/>
				</g>
			</g>
			<g>
				<path class="st7" d="M82.355,56.39l-8.831,3.652c0.506,1.219,0.789,2.553,0.789,3.955c0,2.854-1.159,5.438-3.032,7.308
					l6.757,6.745c3.603-3.597,5.831-8.565,5.831-14.054C83.868,61.302,83.328,58.734,82.355,56.39z"/>
			</g>
			<g>
				<path class="st6" d="M53.606,63.997c0-1.401,0.282-2.736,0.789-3.955l-8.831-3.652c-0.973,2.343-1.513,4.912-1.513,7.607
					c0,5.488,2.228,10.457,5.831,14.054l6.757-6.745C54.765,69.435,53.606,66.851,53.606,63.997z"/>
			</g>
			<g>
				<path class="st4" d="M75.943,45.256L61.62,61.421c-0.208,0.188-0.403,0.395-0.566,0.638c-1.072,1.602-0.64,3.767,0.964,4.837
					c1.604,1.07,3.774,0.639,4.846-0.962c0.163-0.244,0.28-0.502,0.374-0.766l9.479-19.396
					C76.957,45.282,76.305,44.847,75.943,45.256z"/>
			</g>
		</g>
		<ellipse class="st5" cx="32.944" cy="31.935" rx="3.67" ry="3.663"/>
		<ellipse class="st5" cx="53.648" cy="27.988" rx="3.67" ry="3.663"/>
		<ellipse class="st5" cx="74.352" cy="16.829" rx="3.67" ry="3.663"/>
		<ellipse class="st5" cx="94.436" cy="24.514" rx="3.67" ry="3.663"/>
		<ellipse class="st5" cx="115.76" cy="51.21" rx="3.67" ry="3.663"/>
		<ellipse class="st5" cx="12.24" cy="46.678" rx="3.67" ry="3.663"/>
	</g>
	<g>
		<g>
			<path class="st5" d="M127,112.165H1c-0.553,0-1-0.448-1-1s0.447-1,1-1h126c0.553,0,1,0.448,1,1S127.553,112.165,127,112.165z"/>
		</g>
		<g>
			<g>
				<g>
					<path class="st5" d="M18.479,112.165H6c-0.553,0-1-0.448-1-1V88.84c0-2.507,2.043-4.547,4.554-4.547h5.372
						c2.511,0,4.554,2.04,4.554,4.547v22.325C19.479,111.717,19.032,112.165,18.479,112.165z M7,110.165h10.479V88.84
						c0-1.405-1.146-2.547-2.554-2.547H9.554C8.146,86.292,7,87.435,7,88.84V110.165z"/>
				</g>
			</g>
			<g>
				<g>
					<path class="st5" d="M39.184,112.165H26.704c-0.553,0-1-0.448-1-1V76.506c0-2.48,2.021-4.498,4.504-4.498h5.472
						c2.483,0,4.504,2.018,4.504,4.498v34.659C40.184,111.717,39.736,112.165,39.184,112.165z M27.704,110.165h10.479V76.506
						c0-1.377-1.123-2.498-2.504-2.498h-5.472c-1.381,0-2.504,1.121-2.504,2.498V110.165z"/>
				</g>
			</g>
			<g>
				<g>
					<g>
						<path class="st5" d="M59.89,112.165H47.41c-0.553,0-1-0.448-1-1V83.603c0-0.39,0.227-0.744,0.58-0.908
							c0.353-0.163,0.77-0.107,1.067,0.146c3.383,2.873,7.529,4.772,11.992,5.495c0.484,0.079,0.84,0.497,0.84,0.987v21.842
							C60.89,111.717,60.442,112.165,59.89,112.165z M48.41,110.165H58.89V90.16c-3.807-0.739-7.382-2.279-10.479-4.507V110.165z"/>
					</g>
				</g>
			</g>
			<g>
				<g>
					<g>
						<path class="st5" d="M80.59,112.165H68.11c-0.553,0-1-0.448-1-1V89.293c0-0.49,0.355-0.908,0.839-0.987
							c4.226-0.69,8.165-2.434,11.392-5.042c0.398-0.321,0.975-0.291,1.336,0.07l0.62,0.619c0.188,0.188,0.293,0.442,0.293,0.708
							v26.504C81.59,111.717,81.143,112.165,80.59,112.165z M69.11,110.165H79.59V85.594c-3.07,2.235-6.656,3.788-10.479,4.536
							V110.165z"/>
					</g>
				</g>
			</g>
			<g>
				<g>
					<g>
						<path class="st5" d="M101.296,112.165H88.816c-0.553,0-1-0.448-1-1V95.95c0-0.404,0.243-0.769,0.617-0.924
							c0.375-0.154,0.805-0.069,1.089,0.216l7.832,7.818v0c0.894,0.892,2.33,0.92,3.269,0.066c0.293-0.268,0.715-0.336,1.077-0.175
							c0.362,0.16,0.596,0.519,0.596,0.915v7.3C102.296,111.717,101.849,112.165,101.296,112.165z M89.816,110.165h10.479v-4.606
							c-1.496,0.455-3.179,0.09-4.354-1.083v0l-6.126-6.114V110.165z"/>
					</g>
				</g>
				<g>
					<g>
						<path class="st5" d="M101.296,95.13c-0.26,0-0.516-0.102-0.706-0.292l-8.358-8.344c-0.699-0.697-1.738-0.885-2.649-0.475
							c-0.381,0.169-0.825,0.088-1.119-0.207l-0.355-0.357c-0.187-0.188-0.291-0.441-0.291-0.706V70.478
							c0-0.085,0.011-0.171,0.033-0.254c0.183-0.698,0.338-1.448,0.474-2.293c0.021-0.131,0.067-0.256,0.138-0.369
							c0.784-1.263,2.133-2.017,3.607-2.017h5.976c2.345,0,4.252,1.905,4.252,4.246V94.13c0,0.404-0.243,0.769-0.617,0.924
							C101.555,95.105,101.425,95.13,101.296,95.13z M90.554,83.812c1.138,0,2.261,0.439,3.09,1.267l6.652,6.641V69.791
							c0-1.238-1.01-2.246-2.252-2.246h-5.976c-0.718,0-1.381,0.341-1.807,0.92c-0.129,0.773-0.275,1.477-0.445,2.14v13.269
							C90.062,83.833,90.308,83.812,90.554,83.812z"/>
					</g>
				</g>
			</g>
			<g>
				<g>
					<path class="st5" d="M122,112.165h-12.479c-0.553,0-1-0.448-1-1V92.748c0-2.341,1.907-4.246,4.252-4.246h5.976
						c2.345,0,4.252,1.905,4.252,4.246v18.417C123,111.717,122.553,112.165,122,112.165z M110.521,110.165H121V92.748
						c0-1.238-1.01-2.246-2.252-2.246h-5.976c-1.242,0-2.252,1.008-2.252,2.246V110.165z"/>
				</g>
			</g>
			<g>
				<g>
					<path class="st5" d="M53.647,41.504c-0.553,0-1-0.448-1-1V27.988c0-0.552,0.447-1,1-1s1,0.448,1,1v12.516
						C54.647,41.057,54.2,41.504,53.647,41.504z"/>
				</g>
			</g>
			<g>
				<g>
					<path class="st5" d="M74.353,41.541c-0.553,0-1-0.448-1-1V16.829c0-0.552,0.447-1,1-1s1,0.448,1,1v23.712
						C75.353,41.093,74.905,41.541,74.353,41.541z"/>
				</g>
			</g>
			<g>
				<g>
					<path class="st5" d="M95.057,67.545c-0.553,0-1-0.448-1-1V24.382c0-0.552,0.447-1,1-1s1,0.448,1,1v42.163
						C96.057,67.097,95.609,67.545,95.057,67.545z"/>
				</g>
			</g>
			<g>
				<g>
					<path class="st5" d="M115.761,90.501c-0.553,0-1-0.448-1-1V51.21c0-0.552,0.447-1,1-1s1,0.448,1,1v38.291
						C116.761,90.054,116.313,90.501,115.761,90.501z"/>
				</g>
			</g>
			<g>
				<g>
					<path class="st5" d="M32.943,74.008c-0.553,0-1-0.448-1-1V31.936c0-0.552,0.447-1,1-1s1,0.448,1,1v41.073
						C33.943,73.561,33.496,74.008,32.943,74.008z"/>
				</g>
			</g>
			<g>
				<g>
					<path class="st5" d="M12.239,86.292c-0.553,0-1-0.448-1-1V46.678c0-0.552,0.447-1,1-1s1,0.448,1,1v38.615
						C13.239,85.845,12.792,86.292,12.239,86.292z"/>
				</g>
			</g>
		</g>
		<g>
			<g>
				<g>
					<g>
						<path class="st5" d="M63.959,90.643c-14.717,0-26.689-11.953-26.689-26.646c0-14.692,11.973-26.646,26.689-26.646
							s26.69,11.953,26.69,26.646C90.649,78.689,78.676,90.643,63.959,90.643z M63.959,39.351
							c-13.614,0-24.689,11.056-24.689,24.646c0,13.59,11.075,24.646,24.689,24.646s24.69-11.056,24.69-24.646
							C88.649,50.407,77.573,39.351,63.959,39.351z"/>
					</g>
				</g>
				<g>
					<g>
						<path class="st5" d="M63.959,84.872c-11.529,0-20.909-9.364-20.909-20.875c0-11.51,9.38-20.875,20.909-20.875
							s20.909,9.364,20.909,20.875C84.868,75.507,75.488,84.872,63.959,84.872z M63.959,45.122
							c-10.427,0-18.909,8.467-18.909,18.875c0,10.408,8.482,18.875,18.909,18.875s18.909-8.467,18.909-18.875
							C82.868,53.589,74.386,45.122,63.959,45.122z"/>
					</g>
				</g>
				<g>
					<g>
						<path class="st5" d="M85.105,90.167c-0.263,0-0.518-0.104-0.706-0.292l-5.133-5.124c-0.202-0.201-0.309-0.479-0.292-0.763
							c0.016-0.285,0.152-0.549,0.375-0.726c1.443-1.151,2.76-2.465,3.91-3.904c0.178-0.222,0.441-0.358,0.726-0.374
							c0.288-0.014,0.561,0.09,0.763,0.291l5.132,5.124c0.232,0.232,0.336,0.564,0.276,0.888c-0.06,0.324-0.273,0.598-0.574,0.732
							c-0.275,0.124-0.513,0.284-0.705,0.476l-2.383,2.379c-0.192,0.191-0.353,0.429-0.478,0.705
							c-0.135,0.299-0.408,0.513-0.73,0.572C85.226,90.162,85.165,90.167,85.105,90.167z M81.455,84.11l3.493,3.487
							c0.043-0.047,0.087-0.094,0.133-0.139l2.382-2.379c0.001,0,0.001,0,0.001-0.001c0.044-0.044,0.09-0.087,0.136-0.129
							l-3.491-3.487C83.287,82.405,82.4,83.291,81.455,84.11z"/>
					</g>
				</g>
				<g>
					<g>
						<path class="st5" d="M99.031,105.751c-1.118,0-2.237-0.425-3.089-1.275L85.081,93.632c-0.826-0.824-1.281-1.92-1.281-3.087
							s0.455-2.263,1.281-3.087l2.382-2.379c1.705-1.701,4.478-1.701,6.181,0l10.861,10.843c0.826,0.824,1.281,1.92,1.281,3.087
							s-0.455,2.263-1.281,3.087l-2.384,2.379C101.27,105.326,100.15,105.751,99.031,105.751z M90.554,85.802
							c-0.607,0-1.215,0.231-1.678,0.692l-2.382,2.379c-0.448,0.447-0.694,1.041-0.694,1.672s0.246,1.225,0.693,1.672l0,0
							l10.861,10.843c0.926,0.922,2.429,0.922,3.354,0l2.384-2.379c0.447-0.447,0.693-1.041,0.693-1.672s-0.246-1.225-0.693-1.672
							L92.231,86.494C91.769,86.033,91.161,85.802,90.554,85.802z"/>
					</g>
				</g>
			</g>
			<g>
				<g>
					<g>
						<path class="st5" d="M54.395,61.042c-0.128,0-0.257-0.025-0.382-0.076l-8.831-3.652c-0.246-0.102-0.44-0.296-0.542-0.542
							c-0.102-0.245-0.102-0.521,0-0.766c3.224-7.759,10.742-12.815,19.155-12.88c0.288-0.003,0.522,0.102,0.712,0.29
							c0.189,0.188,0.296,0.443,0.296,0.71v9.543c0,0.546-0.438,0.992-0.985,1c-3.733,0.056-7.069,2.315-8.499,5.756
							C55.158,60.81,54.786,61.042,54.395,61.042z M46.896,55.859l6.999,2.894c1.765-3.375,5.112-5.641,8.908-6.026V45.16
							C55.938,45.576,49.859,49.664,46.896,55.859z M63.803,53.669h0.01H63.803z"/>
					</g>
				</g>
				<g>
					<g>
						<g>
							<path class="st5" d="M73.523,61.042c-0.392,0-0.764-0.232-0.924-0.617c-0.456-1.099-1.119-2.095-1.969-2.96
								c-0.297-0.302-0.371-0.759-0.185-1.14l4.316-8.832c0.13-0.266,0.37-0.46,0.657-0.532c0.289-0.071,0.592-0.012,0.829,0.162
								c3.132,2.278,5.562,5.35,7.03,8.881c0.102,0.245,0.102,0.521,0,0.766c-0.102,0.246-0.296,0.44-0.542,0.542l-8.832,3.652
								C73.78,61.018,73.651,61.042,73.523,61.042z M72.544,56.59c0.579,0.667,1.073,1.39,1.479,2.164l7-2.895
								c-1.178-2.453-2.884-4.629-5.003-6.382L72.544,56.59z"/>
						</g>
					</g>
					<g>
						<g>
							<path class="st5" d="M67.831,55.411c-0.126,0-0.253-0.023-0.374-0.073c-1.114-0.449-2.291-0.677-3.498-0.677l-0.138,0.008
								c-0.269-0.002-0.528-0.099-0.719-0.287c-0.191-0.188-0.3-0.445-0.3-0.713v-9.543c0-0.549,0.442-0.995,0.99-1l0.166-0.004
								c3.85,0,7.623,1.065,10.913,3.081c0.252,0.154,0.423,0.413,0.467,0.705c0.043,0.292-0.045,0.589-0.241,0.811l-6.519,7.356
								C68.386,55.293,68.111,55.411,67.831,55.411z M64.803,52.692c0.933,0.068,1.847,0.251,2.732,0.545l5.249-5.924
								c-2.469-1.306-5.193-2.048-7.981-2.172V52.692z"/>
						</g>
					</g>
				</g>
				<g>
					<g>
						<path class="st5" d="M78.037,79.05c-0.256,0-0.512-0.098-0.706-0.292l-6.757-6.745c-0.188-0.188-0.294-0.442-0.294-0.708
							c0-0.265,0.105-0.52,0.293-0.708c1.767-1.764,2.739-4.108,2.739-6.601c0-1.232-0.239-2.434-0.712-3.571
							c-0.103-0.245-0.103-0.521-0.001-0.766s0.296-0.44,0.542-0.542l8.832-3.652c0.509-0.207,1.094,0.031,1.306,0.541
							c1.055,2.54,1.589,5.229,1.589,7.99c0,5.576-2.175,10.818-6.125,14.761C78.549,78.953,78.293,79.05,78.037,79.05z
							 M72.665,71.274l5.354,5.345c3.135-3.471,4.85-7.915,4.85-12.623c0-2.162-0.362-4.273-1.078-6.291L74.791,60.6
							c0.347,1.097,0.521,2.235,0.521,3.396C75.312,66.688,74.379,69.237,72.665,71.274z"/>
					</g>
				</g>
				<g>
					<g>
						<path class="st5" d="M49.881,79.05c-0.256,0-0.512-0.098-0.706-0.292c-3.95-3.943-6.125-9.185-6.125-14.761
							c0-2.762,0.535-5.451,1.59-7.99c0.212-0.51,0.799-0.748,1.306-0.541l8.831,3.652c0.245,0.102,0.44,0.296,0.542,0.542
							c0.102,0.246,0.102,0.521,0,0.766c-0.473,1.138-0.712,2.339-0.712,3.571c0,2.494,0.973,4.838,2.738,6.601
							c0.188,0.188,0.294,0.442,0.294,0.708s-0.105,0.52-0.294,0.708l-6.758,6.745C50.393,78.953,50.137,79.05,49.881,79.05z
							 M46.128,57.706c-0.716,2.017-1.078,4.129-1.078,6.291c0,4.708,1.715,9.152,4.85,12.623l5.354-5.345
							c-1.714-2.037-2.647-4.585-2.647-7.278c0-1.161,0.175-2.299,0.521-3.396L46.128,57.706z"/>
					</g>
				</g>
				<g>
					<g>
						<path class="st5" d="M63.952,68.483c-0.857,0-1.724-0.244-2.488-0.754c-0.999-0.666-1.678-1.681-1.912-2.857
							c-0.233-1.176,0.005-2.372,0.672-3.368c0.183-0.273,0.406-0.53,0.683-0.785l14.289-16.125h-0.001
							c0.493-0.556,1.301-0.66,1.919-0.247c0.617,0.413,0.828,1.198,0.502,1.865L68.16,65.561c-0.134,0.36-0.281,0.657-0.465,0.93
							C66.83,67.783,65.403,68.482,63.952,68.483z M74.105,48.838L62.368,62.084c-0.024,0.028-0.05,0.054-0.077,0.079
							c-0.176,0.159-0.305,0.303-0.406,0.454c-0.369,0.551-0.501,1.214-0.371,1.865c0.13,0.652,0.506,1.214,1.06,1.583
							c1.144,0.764,2.695,0.456,3.46-0.686c0.099-0.147,0.183-0.322,0.264-0.548c0.013-0.035,0.027-0.068,0.043-0.101L74.105,48.838
							z M76.692,45.919L76.692,45.919L76.692,45.919z M75.943,45.256h0.01H75.943z"/>
					</g>
				</g>
			</g>
		</g>
		<g>
			<g>
				<path class="st5" d="M115.762,52.21c-0.3,0-0.596-0.134-0.793-0.389L94.441,25.222l-20.01-7.3l-20.31,10.947
					c-0.09,0.048-0.187,0.083-0.287,0.102l-20.489,3.906L12.819,47.492c-0.45,0.322-1.074,0.215-1.395-0.234
					s-0.216-1.074,0.234-1.395l20.704-14.742c0.117-0.083,0.251-0.141,0.393-0.168l20.553-3.918l20.569-11.086
					c0.251-0.136,0.548-0.158,0.817-0.059l20.704,7.553c0.178,0.065,0.333,0.179,0.449,0.329L116.553,50.6
					c0.337,0.437,0.256,1.065-0.181,1.402C116.189,52.143,115.975,52.21,115.762,52.21z"/>
			</g>
		</g>
	</g>
</g>
</svg>
