<?xml version="1.0" encoding="utf-8"?>
<!-- Generator: Adobe Illustrator 22.0.0, SVG Export Plug-In . SVG Version: 6.00 Build 0)  -->
<svg version="1.1" id="MARKET_RESEARCH_ICON_SET" xmlns="http://www.w3.org/2000/svg" xmlns:xlink="http://www.w3.org/1999/xlink"
	 x="0px" y="0px" viewBox="0 0 128 128" style="enable-background:new 0 0 128 128;" xml:space="preserve">
<style type="text/css">
	.st0{fill:#C2D5EC;}
	.st1{fill:#61E1FF;}
	.st2{fill:#7184AF;}
	.st3{fill:#F8F8F8;}
	.st4{fill:#3F4D81;}
	.st5{fill:#3F4D80;}
	.st6{fill:#E9EAEB;}
	.st7{fill:#F79559;}
	.st8{fill:#FFA85A;}
</style>
<g>
	<g>
		<g>
			<polygon class="st0" points="7,33.702 7,66.985 24.095,66.985 24.095,114 121,114 121,33.701 			"/>
		</g>
		<g>
			<path class="st4" d="M61.598,33.702v17.333c0,2.528,2.06,4.577,4.6,4.577h5.106c2.541,0,4.6,2.049,4.6,4.577v10.864
				l12.807-13.951c0.872-0.949,2.104-1.49,3.396-1.49h10.653c2.541,0,4.6-2.049,4.6-4.577V33.701L61.598,33.702z"/>
		</g>
		<g>
			<path class="st4" d="M42.558,90.724c-2.561-7.281-8.762-8.358-8.762-8.358l-2.776-2.685v0v-2.462
				c1.139,0.587,2.478,0.846,3.894,0.623c3.08-0.483,5.283-3.24,5.283-6.342v-5.56v-2.555c0-0.721-0.121-1.413-0.336-2.062
				c0-5.174,3.516-8.428,3.516-8.428H28.063c-3.436,0-6.221,2.771-6.221,6.19l0.034,7.193c0.008,0.239,0.036,0.472,0.06,0.707h2.159
				v10.672c0.076,0.895,0.121,1.794,0.121,2.697l-0.121,0.103V114h10.414v-3.222c0.85,0,1.745-0.317,2.633-0.663l0,0
				c0.384-0.934,0.667-1.908,0.841-2.906c0.404-2.321,0.496-4.687,0.465-6.667h0.001c0,4.122,1.717,7.832,4.474,10.465h8.373
				l0.774-2.366C46.195,107.92,45.027,97.745,42.558,90.724z"/>
		</g>
		<g>
			<path class="st5" d="M75.904,72.053c-0.122,0-0.245-0.022-0.363-0.068c-0.384-0.149-0.637-0.52-0.637-0.932V60.189
				c0-1.973-1.615-3.577-3.6-3.577h-5.106c-3.088,0-5.6-2.502-5.6-5.577V33.702c0-0.552,0.448-1,1-1l45.762,0
				c0.265,0,0.52,0.105,0.707,0.293s0.293,0.442,0.293,0.707v17.333c0,3.075-2.512,5.577-5.6,5.577H92.107
				c-1.01,0-1.979,0.425-2.66,1.167L76.641,71.729C76.447,71.939,76.178,72.053,75.904,72.053z M62.598,34.702v16.333
				c0,1.973,1.615,3.577,3.6,3.577h5.106c3.088,0,5.6,2.502,5.6,5.577v8.296l11.07-12.059c1.058-1.153,2.564-1.814,4.133-1.814
				h10.652c1.985,0,3.6-1.604,3.6-3.577V34.701L62.598,34.702z"/>
		</g>
		<g>
			<path class="st5" d="M34.509,115H24.095c-0.552,0-1-0.448-1-1V80.457c0-0.167,0.042-0.329,0.119-0.473
				c-0.01-0.71-0.048-1.448-0.116-2.242l-0.003-9.757h-1.159c-0.514,0-0.944-0.389-0.995-0.9l-0.013-0.125
				c-0.022-0.214-0.043-0.428-0.051-0.647l-0.035-7.223c0-3.969,3.239-7.194,7.221-7.194h15.313c0.412,0,0.781,0.252,0.931,0.635
				c0.15,0.383,0.05,0.819-0.252,1.099c-0.029,0.028-3.125,2.979-3.193,7.542c0.222,0.723,0.335,1.467,0.335,2.214V71.5
				c0,3.63-2.635,6.782-6.128,7.33c-1.033,0.163-2.065,0.108-3.049-0.157v0.584l2.268,2.193c1.387,0.338,6.798,2.074,9.214,8.942
				c0.577,1.639,1.088,3.466,1.584,5.232c1.592,5.678,3.238,11.549,7.105,12.023c0.297,0.037,0.562,0.204,0.722,0.456
				c0.161,0.252,0.2,0.563,0.106,0.848l-0.774,2.366c-0.134,0.411-0.518,0.689-0.95,0.689h-8.373c-0.257,0-0.505-0.099-0.691-0.277
				c-1.362-1.301-2.453-2.801-3.248-4.44c-0.005,0.03-0.011,0.061-0.016,0.091c-0.186,1.064-0.489,2.112-0.901,3.115
				c-0.104,0.253-0.307,0.452-0.562,0.551c-0.641,0.25-1.311,0.496-1.996,0.629V114C35.509,114.552,35.061,115,34.509,115z
				 M25.095,113h8.414v-2.222c0-0.552,0.448-1,1-1c0.565,0,1.218-0.201,1.864-0.44c0.279-0.748,0.489-1.52,0.625-2.301
				c0.323-1.856,0.476-3.942,0.454-6.204c-0.001-0.067-0.002-0.134-0.002-0.201c0-0.025-0.001-0.05-0.001-0.075h0.001
				c0-0.005,0-0.01,0-0.016c0-0.549,0.443-0.996,0.992-1c0.003,0,0.005,0,0.008,0c0.546,0,0.992,0.438,1,0.985
				c0.002,0.132,0.003,0.263,0.004,0.394c0.094,3.441,1.46,6.641,3.878,9.085h7.239l0.207-0.632c-4.309-1.409-5.988-7.4-7.617-13.21
				c-0.509-1.815-0.99-3.53-1.545-5.108l0,0c-2.323-6.604-7.763-7.664-7.994-7.706c-0.195-0.035-0.378-0.128-0.521-0.266
				L30.324,80.4c-0.195-0.188-0.305-0.448-0.305-0.719v-2.462c0-0.349,0.182-0.672,0.479-0.854c0.296-0.182,0.668-0.194,0.979-0.035
				c1.012,0.521,2.147,0.703,3.281,0.524c2.53-0.397,4.438-2.699,4.438-5.354v-8.116c0-0.589-0.096-1.177-0.285-1.747
				c-0.034-0.102-0.051-0.208-0.051-0.315c0-3.297,1.3-5.861,2.387-7.428H28.063c-2.879,0-5.221,2.328-5.221,5.189l0.033,6.9h1.22
				c0.552,0,1,0.448,1,1v10.672c0.081,0.905,0.122,1.814,0.122,2.696c0,0.169-0.042,0.333-0.122,0.478V113z"/>
		</g>
		<g>
			<path class="st2" d="M39.377,51.9H24.063c-3.436,0-6.221,2.771-6.221,6.19v6.856c0-1.904,1.551-3.447,3.464-3.447
				c1.57,0,2.881,1.046,3.307,2.472c0.103-0.288,0.163-0.594,0.163-0.912c0-1.507,1.228-2.729,2.743-2.729h8.341
				C35.861,55.154,39.377,51.9,39.377,51.9z"/>
		</g>
		<g>
			<path class="st8" d="M48.069,107.645c-5.874-0.72-7.041-10.896-9.511-17.916c-2.561-7.281-8.762-8.358-8.762-8.358l-0.432,5.581
				l-2.982-1.46l-2.299,2.287l-6.136-6.491c0,0-8.721,3.282-8.721,10.867c0,7.584-2.925,21.843,9.178,21.843
				c12.103,0,12.103,0,12.103,0v-4.217c0.85,0,1.745-0.317,2.633-0.663l0,0c0.384-0.934,0.667-1.908,0.841-2.906
				c0.404-2.321,0.496-4.687,0.465-6.667h0.001c0,4.122,1.717,7.832,4.474,10.465h8.373L48.069,107.645z"/>
		</g>
		<g>
			<path class="st3" d="M12.227,95.142c0-7.057,7.542-10.386,8.592-10.815l-2.871-3.037c0,0-8.721,3.282-8.721,10.867
				c0,6.352-2.046,17.381,4.398,20.799C10.941,108.164,12.227,100.181,12.227,95.142z"/>
		</g>
		<g>
			<path class="st3" d="M27.52,60.328c-1.515,0-2.743,1.222-2.743,2.729c0,0.318-0.06,0.624-0.163,0.912
				c-0.425-1.425-1.736-2.472-3.307-2.472c-1.797,0-3.257,1.366-3.43,3.109v0.676c0.025,0.737,0.116,1.456,0.31,2.137l0.003,0
				c0.019,0.066,0.036,0.134,0.056,0.2c1.183,3.817,1.971,7.744,1.971,11.739l6.166,6.135l0.637-6.807v-2.462
				c1.139,0.587,2.478,0.846,3.894,0.623c3.08-0.483,5.283-3.24,5.283-6.342v-5.56V62.39c0-0.721-0.121-1.413-0.336-2.062H27.52z"/>
		</g>
		<g>
			<polygon class="st1" points="24.084,87.781 17.948,81.29 20.216,79.358 26.382,85.494 			"/>
		</g>
		<g>
			<polygon class="st1" points="29.364,86.953 29.796,81.372 27.02,78.687 26.382,85.494 			"/>
		</g>
		<g>
			<rect x="27.557" y="107.69" class="st5" width="2.951" height="6.31"/>
		</g>
		<g>
			<path class="st3" d="M30.509,109.783c2.502,0,5.401-2.754,7.334-0.866c1.043,1.018,0.983,2.152,0.603,3.09
				C37.948,113.239,36.693,114,35.36,114h-4.851L30.509,109.783z"/>
		</g>
		<g>
			<ellipse class="st1" cx="21.307" cy="64.945" rx="3.464" ry="3.447"/>
		</g>
		<g>
			<ellipse class="st5" cx="30.238" cy="72.353" rx="1.486" ry="1.479"/>
		</g>
		<g>
			<polygon class="st1" points="85.479,87.748 54.579,87.748 45.99,114 76.89,114 			"/>
		</g>
		<g>
			<polygon class="st3" points="56.579,90.733 84.502,90.733 85.479,87.748 54.579,87.748 45.99,114 48.966,114 			"/>
		</g>
		<g>
			
				<ellipse transform="matrix(0.7668 -0.6418 0.6418 0.7668 -49.4177 65.7094)" class="st3" cx="65.734" cy="100.874" rx="3.256" ry="2.353"/>
		</g>
		<g>
			<polygon class="st2" points="78.195,110.011 47.295,110.011 45.99,114 76.89,114 			"/>
		</g>
		<g>
			<path class="st4" d="M38.558,110.011c0.241,0.691,0.136,1.385-0.112,1.996C37.948,113.239,36.693,114,35.36,114h10.63
				l1.305-3.989H38.558z"/>
		</g>
		<g>
			<path class="st8" d="M97.1,72.115h-2.231c-2.464,0-4.462-1.988-4.462-4.44v-2.22c0-2.452,1.998-4.44,4.462-4.44H97.1
				c2.464,0,4.462,1.988,4.462,4.44v2.22C101.562,70.127,99.564,72.115,97.1,72.115z"/>
		</g>
		<g>
			<path class="st8" d="M97.1,90.02h-2.231c-2.464,0-4.462-1.988-4.462-4.44v-2.22c0-2.452,1.998-4.44,4.462-4.44H97.1
				c2.464,0,4.462,1.988,4.462,4.44v2.22C101.562,88.032,99.564,90.02,97.1,90.02z"/>
		</g>
		<g>
			<path class="st8" d="M97.1,107.925h-2.231c-2.464,0-4.462-1.988-4.462-4.44v-2.22c0-2.452,1.998-4.44,4.462-4.44H97.1
				c2.464,0,4.462,1.988,4.462,4.44v2.22C101.562,105.937,99.564,107.925,97.1,107.925z"/>
		</g>
		<g>
			<path class="st1" d="M104.36,18.577v29.472c0,2.528-2.06,4.577-4.6,4.577H89.107c-1.292,0-2.525,0.541-3.396,1.49L72.904,68.068
				V57.204c0-2.528-2.06-4.577-4.6-4.577h-5.106c-2.541,0-4.6-2.049-4.6-4.577V18.577c0-2.528,2.06-4.577,4.6-4.577H99.76
				C102.3,14,104.36,16.049,104.36,18.577z"/>
		</g>
		<g>
			<path class="st3" d="M103.95,16.696H63.39c-1.13,0-2.04,0.906-2.04,2.03v32.02c0,0.06,0,0.687,0.01,1.493
				c-1.657-0.703-2.76-2.411-2.76-4.189V18.577C58.6,16.05,60.66,14,63.2,14h36.56C101.592,14,103.15,15.105,103.95,16.696z"/>
		</g>
		<g>
			<path class="st6" d="M79.146,34.754v1.962l2.308,4.355l2.308-4.355v-1.962c-0.704,0.32-1.484,0.503-2.308,0.503
				C80.63,35.257,79.85,35.074,79.146,34.754z"/>
		</g>
		<g>
			<path class="st8" d="M91.207,44.007c0-4.245-5.138-6.157-5.138-6.157l0,0l-2.306-1.134l-2.308,4.355l0.001,0.001l-0.001,0.001
				l-0.001-0.001l0.001-0.001l-2.308-4.355L76.84,37.85l0,0c0,0-5.138,1.912-5.138,6.157c0,0.766-0.054,1.651-0.103,2.591H91.31
				C91.261,45.658,91.207,44.773,91.207,44.007z"/>
		</g>
		<g>
			<path class="st5" d="M77.488,26.067c0-1.045,0.851-1.891,1.901-1.891h4.13c1.05,0,1.901,0.847,1.901,1.891
				c0,3.023,1.843,1.005,1.843,1.005v-2.753c0-4.29-2.342-3.121-2.342-3.121s-0.475-1.169-1.97-1.169h-2.996
				c-2.381,0-4.311,1.921-4.311,4.29v2.754C75.645,27.072,77.488,29.09,77.488,26.067z"/>
		</g>
		<g>
			<path class="st3" d="M87.442,27.058c-0.061,0-0.121,0.006-0.179,0.014c0,0-1.843,2.018-1.843-1.005
				c0-1.045-0.851-1.891-1.901-1.891h-4.13c-1.05,0-1.901,0.847-1.901,1.891c0,3.023-1.843,1.005-1.843,1.005
				c-0.058-0.008-0.118-0.014-0.179-0.014c0,0-1.086,0-1.086,1.086v1.09c0,0.89,0.487,1.697,1.624,1.868
				c0.024,0.004,0.043,0.005,0.065,0.007c0.623,2.384,2.794,4.146,5.385,4.146s4.762-1.762,5.385-4.146
				c0.022-0.003,0.042-0.004,0.065-0.007c1.137-0.171,1.624-0.978,1.624-1.868v-1.09C88.528,27.058,87.442,27.058,87.442,27.058z"/>
		</g>
	</g>
	<g>
		<g>
			<path class="st5" d="M26.382,86.494c-0.26,0-0.515-0.102-0.706-0.291l-6.166-6.135c-0.188-0.188-0.294-0.443-0.294-0.709
				c0-3.517-0.63-7.26-1.926-11.443l-0.043-0.151c-0.008-0.023-0.016-0.047-0.023-0.071c-0.203-0.714-0.316-1.492-0.347-2.375
				l0-0.71c0.232-2.385,2.135-4.109,4.43-4.109c1.06,0,2.042,0.366,2.815,0.997c0.594-1.278,1.894-2.167,3.398-2.167h8.341
				c0.431,0,0.813,0.276,0.949,0.685c0.256,0.773,0.387,1.573,0.387,2.376v8.116c0,3.63-2.635,6.782-6.128,7.33
				c-1.033,0.163-2.065,0.107-3.049-0.157v1.008l-0.642,6.9c-0.036,0.385-0.292,0.715-0.655,0.847
				C26.612,86.474,26.497,86.494,26.382,86.494z M21.213,78.94l4.371,4.349l0.439-4.696l-0.004-2.369
				c0-0.349,0.182-0.672,0.479-0.854c0.297-0.182,0.667-0.195,0.979-0.035c1.012,0.521,2.148,0.703,3.281,0.524
				c2.53-0.397,4.438-2.699,4.438-5.354V62.39c0-0.355-0.035-0.71-0.104-1.062H27.52c-0.961,0-1.743,0.776-1.743,1.729
				c0,0.417-0.075,0.837-0.222,1.249c-0.146,0.407-0.515,0.697-0.968,0.663c-0.432-0.011-0.808-0.299-0.931-0.713
				c-0.314-1.051-1.258-1.758-2.349-1.758c-1.263,0-2.31,0.949-2.435,2.208l0.005,0.577c0.023,0.657,0.106,1.253,0.251,1.792
				c0.008,0.022,0.016,0.045,0.023,0.069l0.05,0.18C20.506,71.537,21.166,75.343,21.213,78.94z"/>
		</g>
		<g>
			<path class="st5" d="M27.019,77.224c-0.164,0-0.329-0.04-0.482-0.125c-1.045-0.577-1.946-1.423-2.606-2.447
				c-0.299-0.464-0.166-1.083,0.298-1.382c0.467-0.299,1.083-0.165,1.382,0.298c0.481,0.747,1.136,1.362,1.892,1.78
				c0.483,0.267,0.659,0.875,0.392,1.359C27.712,77.038,27.371,77.224,27.019,77.224z"/>
		</g>
		<g>
			<path class="st5" d="M24.083,88.781c-0.005,0-0.01,0-0.015,0c-0.27-0.004-0.526-0.117-0.711-0.313l-6.136-6.491
				c-0.188-0.199-0.287-0.467-0.272-0.741s0.142-0.529,0.35-0.707l2.269-1.931c0.397-0.337,0.985-0.314,1.354,0.052l6.166,6.135
				c0.188,0.188,0.294,0.443,0.294,0.709s-0.106,0.521-0.295,0.709l-2.299,2.287C24.601,88.676,24.348,88.781,24.083,88.781z
				 M19.398,81.368l4.708,4.98l0.859-0.854l-4.801-4.777L19.398,81.368z"/>
		</g>
		<g>
			<path class="st5" d="M29.364,87.953c-0.15,0-0.301-0.034-0.439-0.102l-2.982-1.459c-0.374-0.183-0.595-0.577-0.556-0.991
				l0.637-6.807c0.036-0.383,0.288-0.711,0.648-0.845c0.361-0.133,0.765-0.049,1.042,0.219l2.776,2.686
				c0.214,0.207,0.325,0.499,0.302,0.796l-0.432,5.581c-0.025,0.331-0.213,0.626-0.501,0.791
				C29.707,87.909,29.536,87.953,29.364,87.953z M27.442,84.899l1.039,0.508l0.282-3.644l-0.941-0.911L27.442,84.899z"/>
		</g>
		<g>
			<path class="st5" d="M28.298,108.689h-5.336c-4.157,0-7.54-3.368-7.54-7.507v-8.116c0-0.552,0.448-1,1-1s1,0.448,1,1v8.116
				c0,3.037,2.485,5.507,5.54,5.507h5.336c0.552,0,1,0.448,1,1S28.851,108.689,28.298,108.689z"/>
		</g>
		<g>
			<path class="st5" d="M34.447,100.547c-0.545,0-0.991-0.438-1-0.984c-0.042-2.724-0.328-4.725-0.331-4.745
				c-0.079-0.546,0.3-1.054,0.847-1.133c0.544-0.075,1.054,0.3,1.133,0.846c0.012,0.086,0.306,2.139,0.351,5
				c0.009,0.552-0.432,1.007-0.984,1.016C34.458,100.547,34.452,100.547,34.447,100.547z"/>
		</g>
		<g>
			<path class="st5" d="M30.509,115h-2.951c-0.552,0-1-0.448-1-1v-6.311c0-0.552,0.448-1,1-1h2.951c0.552,0,1,0.448,1,1V114
				C31.509,114.552,31.061,115,30.509,115z M28.558,113h0.951v-4.311h-0.951V113z"/>
		</g>
		<g>
			<path class="st5" d="M35.359,115h-4.851c-0.552,0-1-0.448-1-1v-4.217c0-0.552,0.448-1,1-1c0.758,0,1.681-0.363,2.574-0.714
				c1.691-0.664,3.796-1.491,5.459,0.133c1.167,1.139,1.462,2.624,0.832,4.18C38.739,113.948,37.126,115,35.359,115z M31.509,113
				h3.851c0.961,0,1.829-0.55,2.16-1.368c0.327-0.809,0.211-1.426-0.375-1.999c-0.666-0.65-1.568-0.395-3.33,0.298
				c-0.751,0.295-1.52,0.597-2.306,0.75V113z"/>
		</g>
		<g>
			<path class="st5" d="M30.509,115H18.405c-3.147,0-5.62-0.923-7.348-2.744c-3.618-3.811-3.258-10.725-2.97-16.28
				c0.072-1.381,0.14-2.687,0.14-3.82c0-8.183,8.986-11.659,9.369-11.803c0.377-0.14,0.802-0.043,1.079,0.249l5.432,5.746
				l1.571-1.563c0.302-0.3,0.763-0.377,1.145-0.189l1.659,0.812l0.318-4.112c0.022-0.281,0.161-0.54,0.383-0.712
				c0.223-0.173,0.51-0.242,0.785-0.196c0.277,0.048,6.811,1.266,9.535,9.011c0.577,1.639,1.088,3.466,1.584,5.232
				c1.592,5.678,3.238,11.549,7.105,12.023c0.297,0.037,0.562,0.204,0.722,0.456c0.161,0.252,0.2,0.563,0.106,0.848l-0.774,2.366
				c-0.134,0.411-0.518,0.689-0.95,0.689h-8.373c-0.257,0-0.504-0.099-0.69-0.277c-1.362-1.3-2.454-2.801-3.248-4.439
				c-0.005,0.03-0.011,0.061-0.016,0.09c-0.186,1.063-0.488,2.111-0.901,3.114c-0.104,0.253-0.307,0.453-0.562,0.552
				c-0.641,0.25-1.312,0.495-1.996,0.628V114C31.509,114.552,31.061,115,30.509,115z M17.703,82.486
				c-1.87,0.878-7.476,3.984-7.476,9.67c0,1.186-0.069,2.516-0.142,3.923c-0.269,5.173-0.604,11.612,2.423,14.799
				c1.354,1.427,3.284,2.121,5.897,2.121h11.104v-3.217c0-0.552,0.448-1,1-1c0.565,0,1.217-0.2,1.864-0.439
				c0.279-0.748,0.489-1.52,0.625-2.301c0.323-1.856,0.476-3.942,0.454-6.204c-0.001-0.067-0.002-0.134-0.002-0.201
				c0-0.025-0.001-0.05-0.001-0.075h0.001c0-0.005,0-0.01,0-0.016c0-0.549,0.443-0.996,0.992-1c0.003,0,0.005,0,0.008,0
				c0.546,0,0.992,0.438,1,0.985c0.002,0.132,0.003,0.263,0.004,0.394c0.094,3.442,1.46,6.641,3.878,9.085h7.239l0.207-0.632
				c-4.308-1.409-5.988-7.4-7.617-13.21c-0.509-1.815-0.99-3.53-1.545-5.108c-1.723-4.898-5.161-6.746-6.917-7.391l-0.337,4.36
				c-0.025,0.331-0.213,0.626-0.501,0.791c-0.287,0.165-0.639,0.176-0.936,0.03l-2.342-1.146L24.79,88.49
				c-0.191,0.19-0.431,0.291-0.721,0.291c-0.27-0.004-0.526-0.117-0.711-0.313L17.703,82.486z"/>
		</g>
		<g>
			<path class="st5" d="M17.842,65.945c-0.552,0-1-0.448-1-1V58.09c0-3.964,3.239-7.19,7.221-7.19h15.313
				c0.412,0,0.781,0.252,0.931,0.635c0.15,0.382,0.05,0.817-0.25,1.097c-0.057,0.054-3.196,3.065-3.196,7.696c0,0.552-0.448,1-1,1
				H27.52c-0.961,0-1.743,0.776-1.743,1.729c0,0.417-0.075,0.837-0.222,1.249c-0.146,0.407-0.515,0.697-0.968,0.663
				c-0.432-0.011-0.808-0.299-0.931-0.713c-0.314-1.051-1.258-1.758-2.349-1.758c-1.359,0-2.464,1.098-2.464,2.447
				C18.842,65.498,18.395,65.945,17.842,65.945z M21.307,60.498c1.06,0,2.042,0.366,2.815,0.997
				c0.594-1.278,1.894-2.167,3.398-2.167h7.381c0.227-2.817,1.373-5.023,2.348-6.428H24.063c-2.879,0-5.221,2.328-5.221,5.19v3.149
				C19.549,60.771,20.396,60.498,21.307,60.498z"/>
		</g>
		<g>
			<path class="st5" d="M21.307,69.393c-2.461,0-4.464-1.995-4.464-4.447s2.003-4.447,4.464-4.447s4.464,1.995,4.464,4.447
				S23.768,69.393,21.307,69.393z M21.307,62.498c-1.359,0-2.464,1.098-2.464,2.447s1.105,2.447,2.464,2.447
				s2.464-1.098,2.464-2.447S22.666,62.498,21.307,62.498z"/>
		</g>
		<g>
			<path class="st5" d="M30.238,74.832c-1.371,0-2.486-1.112-2.486-2.479s1.115-2.479,2.486-2.479c1.371,0,2.486,1.112,2.486,2.479
				S31.609,74.832,30.238,74.832z M30.238,71.875c-0.268,0-0.486,0.215-0.486,0.479c0,0.264,0.218,0.479,0.486,0.479
				s0.486-0.215,0.486-0.479C30.724,72.089,30.506,71.875,30.238,71.875z"/>
		</g>
		<g>
			<path class="st5" d="M28.752,73.354c-3.197,0-6.083-1.764-7.532-4.603c-0.251-0.492-0.056-1.094,0.436-1.345
				c0.492-0.251,1.095-0.056,1.345,0.436c1.106,2.167,3.31,3.512,5.751,3.512c0.552,0,1,0.448,1,1S29.304,73.354,28.752,73.354z"/>
		</g>
		<g>
			<path class="st5" d="M76.89,115h-30.9c-0.32,0-0.622-0.154-0.81-0.413s-0.241-0.593-0.141-0.898l8.589-26.252
				c0.134-0.411,0.518-0.689,0.95-0.689h30.9c0.32,0,0.622,0.154,0.81,0.413s0.241,0.593,0.141,0.898l-8.588,26.252
				C77.706,114.722,77.323,115,76.89,115z M47.369,113h28.796l7.934-24.252H55.304L47.369,113z"/>
		</g>
		<g>
			<path class="st5" d="M64.831,104.635c-1.031,0-1.934-0.429-2.476-1.177c-0.566-0.781-0.692-1.836-0.346-2.895
				c0.632-1.935,2.665-3.45,4.628-3.45c1.031,0,1.934,0.429,2.476,1.177c0.566,0.781,0.692,1.836,0.346,2.895l0,0
				C68.827,103.12,66.793,104.635,64.831,104.635z M66.638,99.113c-1.092,0-2.367,0.968-2.728,2.072
				c-0.145,0.443-0.122,0.843,0.064,1.1c0.21,0.29,0.582,0.351,0.857,0.351c1.092,0,2.367-0.968,2.728-2.072l0,0
				c0.145-0.442,0.121-0.843-0.064-1.099C67.284,99.174,66.913,99.113,66.638,99.113z M68.509,100.874h0.01H68.509z"/>
		</g>
		<g>
			<path class="st5" d="M76.89,115h-30.9c-0.32,0-0.622-0.154-0.81-0.413s-0.241-0.593-0.141-0.898l1.305-3.989
				c0.134-0.411,0.518-0.689,0.95-0.689h30.9c0.32,0,0.622,0.154,0.81,0.413s0.241,0.593,0.141,0.898l-1.305,3.989
				C77.706,114.722,77.323,115,76.89,115z M47.369,113h28.796l0.65-1.989H48.02L47.369,113z"/>
		</g>
		<g>
			<path class="st5" d="M45.99,115h-10.63c-0.552,0-1-0.448-1-1s0.448-1,1-1c0.96,0,1.829-0.55,2.16-1.368
				c0.194-0.479,0.226-0.914,0.094-1.292c-0.106-0.306-0.058-0.644,0.13-0.908s0.491-0.42,0.815-0.42h8.737
				c0.32,0,0.622,0.154,0.81,0.413s0.241,0.593,0.141,0.898l-1.305,3.989C46.806,114.722,46.422,115,45.99,115z M39.057,113h6.208
				l0.651-1.989h-6.228c-0.023,0.45-0.128,0.911-0.314,1.371C39.286,112.599,39.18,112.805,39.057,113z"/>
		</g>
		<g>
			<path class="st5" d="M72.904,69.068c-0.122,0-0.245-0.022-0.363-0.068c-0.384-0.149-0.637-0.52-0.637-0.932V57.204
				c0-1.973-1.615-3.577-3.6-3.577h-5.106c-3.088,0-5.6-2.502-5.6-5.577V18.577c0-3.075,2.512-5.577,5.6-5.577H99.76
				c3.088,0,5.6,2.502,5.6,5.577v29.472c0,3.075-2.512,5.577-5.6,5.577H89.107c-1.01,0-1.979,0.425-2.66,1.167L73.641,68.744
				C73.447,68.955,73.178,69.068,72.904,69.068z M63.198,15c-1.985,0-3.6,1.604-3.6,3.577v29.472c0,1.973,1.615,3.577,3.6,3.577
				h5.106c3.088,0,5.6,2.502,5.6,5.577V65.5l11.07-12.06c1.059-1.153,2.565-1.814,4.133-1.814H99.76c1.985,0,3.6-1.604,3.6-3.577
				V18.577c0-1.973-1.615-3.577-3.6-3.577H63.198z"/>
		</g>
		<g>
			<path class="st5" d="M81.479,42.07c-0.37,0-0.71-0.205-0.884-0.532l-2.308-4.354c-0.076-0.144-0.116-0.305-0.116-0.468v-1.962
				c0-0.34,0.173-0.657,0.458-0.841c0.287-0.184,0.646-0.208,0.955-0.07c1.208,0.549,2.582,0.548,3.79,0
				c0.31-0.139,0.669-0.113,0.955,0.07c0.286,0.184,0.458,0.501,0.458,0.841v1.961c0,0.163-0.04,0.324-0.116,0.468l-2.308,4.354
				C82.188,41.866,81.849,42.07,81.479,42.07z M80.17,36.467l1.308,2.468l1.308-2.468v-0.342c-0.857,0.176-1.759,0.176-2.616,0
				V36.467z"/>
		</g>
		<g>
			<path class="st5" d="M91.334,47.598H71.623c-0.274,0-0.536-0.112-0.725-0.312c-0.189-0.199-0.288-0.466-0.273-0.74l0.022-0.431
				c0.04-0.76,0.079-1.477,0.079-2.108c0-4.692,5.126-6.836,5.738-7.075l2.267-1.114c0.484-0.239,1.071-0.049,1.325,0.429
				l1.424,2.688l1.424-2.688c0.253-0.478,0.838-0.668,1.325-0.429l2.265,1.114c0.613,0.239,5.738,2.383,5.738,7.075
				c0,0.632,0.039,1.348,0.079,2.108l0.022,0.431c0.014,0.273-0.084,0.541-0.273,0.74C91.871,47.485,91.608,47.598,91.334,47.598z
				 M72.676,45.598h17.605c-0.028-0.567-0.049-1.103-0.049-1.591c0-3.489-4.444-5.204-4.489-5.221l-1.525-0.747l-1.845,3.48
				c-0.206,0.409-0.675,0.634-1.136,0.521c-0.303-0.076-0.539-0.282-0.662-0.543l-1.833-3.457l-1.436,0.706
				c-0.032,0.016-0.064,0.029-0.098,0.042c-0.14,0.054-4.482,1.764-4.482,5.218C72.726,44.495,72.705,45.031,72.676,45.598z"/>
		</g>
		<g>
			<path class="st5" d="M81.479,36.256c-2.782,0-5.239-1.746-6.172-4.313c-1.194-0.413-1.902-1.419-1.902-2.708v-1.09
				c0-0.984,0.567-1.639,1.265-1.923v-1.902c0-2.917,2.382-5.29,5.311-5.29h2.996c1.143,0,1.93,0.502,2.408,1.034
				c0.414-0.04,0.928,0.012,1.433,0.325c0.99,0.612,1.471,1.898,1.471,3.931v1.902c0.698,0.285,1.265,0.939,1.265,1.923v1.09
				c0,1.31-0.731,2.327-1.907,2.721C86.71,34.516,84.256,36.256,81.479,36.256z M75.521,28.062c-0.054,0-0.114,0.017-0.135,0.031
				l0.018,1.141c0,0.684,0.441,0.83,0.772,0.879c0.396,0.06,0.783,0.356,0.884,0.743c0.523,2.001,2.34,3.399,4.418,3.399
				c2.078,0,3.895-1.397,4.418-3.399c0.103-0.394,0.434-0.686,0.838-0.739c0.377-0.054,0.818-0.2,0.818-0.884v-1.09
				c-0.003-0.058-0.055-0.079-0.096-0.084l-0.027,0.002c-0.289,0.043-0.578-0.044-0.797-0.234c-0.219-0.19-0.345-0.465-0.345-0.755
				v-2.753c0-1.835-0.465-2.192-0.518-2.226c-0.144-0.094-0.394,0.008-0.396,0.009c-0.247,0.11-0.541,0.119-0.791,0.018
				s-0.461-0.294-0.563-0.545c-0.035-0.073-0.295-0.545-1.044-0.545H79.98c-1.826,0-3.311,1.476-3.311,3.29v2.754
				c0,0.29-0.126,0.565-0.345,0.755s-0.507,0.277-0.797,0.234C75.526,28.062,75.523,28.062,75.521,28.062z"/>
		</g>
		<g>
			<path class="st5" d="M86.173,28.734c-0.181,0-0.367-0.031-0.556-0.104c-1.173-0.455-1.173-2.042-1.173-2.563
				c0-0.491-0.404-0.891-0.901-0.891h-4.13c-0.497,0-0.901,0.4-0.901,0.891c0,0.521,0,2.108-1.173,2.563
				c-1.097,0.429-2.121-0.568-2.409-0.883c-0.373-0.408-0.344-1.04,0.064-1.413c0.407-0.372,1.039-0.343,1.41,0.062
				c0.027,0.029,0.058,0.059,0.091,0.089c0.01-0.112,0.017-0.25,0.017-0.417c0-1.594,1.301-2.891,2.901-2.891h4.13
				c1.6,0,2.901,1.297,2.901,2.891c0,0.168,0.007,0.306,0.017,0.418c0.034-0.03,0.063-0.06,0.088-0.087
				c0.372-0.408,1.004-0.437,1.413-0.064c0.408,0.373,0.437,1.005,0.064,1.413C87.788,28.007,87.045,28.734,86.173,28.734z"/>
		</g>
		<g>
			<path class="st5" d="M97.1,73.115h-2.231c-3.012,0-5.462-2.44-5.462-5.44v-2.22c0-3,2.45-5.44,5.462-5.44H97.1
				c3.012,0,5.462,2.44,5.462,5.44v2.22C102.562,70.675,100.112,73.115,97.1,73.115z M94.869,62.015
				c-1.909,0-3.462,1.543-3.462,3.44v2.22c0,1.897,1.553,3.44,3.462,3.44H97.1c1.909,0,3.462-1.543,3.462-3.44v-2.22
				c0-1.897-1.553-3.44-3.462-3.44H94.869z"/>
		</g>
		<g>
			<path class="st5" d="M97.1,91.02h-2.231c-3.012,0-5.462-2.44-5.462-5.44v-2.22c0-3,2.45-5.44,5.462-5.44H97.1
				c3.012,0,5.462,2.44,5.462,5.44v2.22C102.562,88.58,100.112,91.02,97.1,91.02z M94.869,79.92c-1.909,0-3.462,1.543-3.462,3.44
				v2.22c0,1.897,1.553,3.44,3.462,3.44H97.1c1.909,0,3.462-1.543,3.462-3.44v-2.22c0-1.897-1.553-3.44-3.462-3.44H94.869z"/>
		</g>
		<g>
			<path class="st5" d="M97.1,108.925h-2.231c-3.012,0-5.462-2.44-5.462-5.44v-2.22c0-3,2.45-5.44,5.462-5.44H97.1
				c3.012,0,5.462,2.44,5.462,5.44v2.22C102.562,106.484,100.112,108.925,97.1,108.925z M94.869,97.825
				c-1.909,0-3.462,1.543-3.462,3.44v2.22c0,1.897,1.553,3.44,3.462,3.44H97.1c1.909,0,3.462-1.543,3.462-3.44v-2.22
				c0-1.897-1.553-3.44-3.462-3.44H94.869z"/>
		</g>
		<g>
			<path class="st5" d="M95.984,86.58c-0.233,0-0.466-0.081-0.654-0.244l-2.638-2.28c-0.418-0.361-0.464-0.993-0.103-1.41
				c0.36-0.419,0.992-0.465,1.41-0.103l1.984,1.715l8.223-7.108c0.417-0.362,1.049-0.316,1.41,0.103
				c0.361,0.417,0.315,1.049-0.103,1.41l-8.877,7.673C96.45,86.499,96.217,86.58,95.984,86.58z"/>
		</g>
		<g>
			<path class="st5" d="M95.984,104.485c-0.233,0-0.466-0.081-0.654-0.244l-2.638-2.28c-0.418-0.361-0.464-0.993-0.103-1.41
				c0.36-0.419,0.992-0.465,1.41-0.103l1.984,1.715l8.223-7.108c0.417-0.362,1.049-0.316,1.41,0.103
				c0.361,0.417,0.315,1.049-0.103,1.41l-8.877,7.673C96.45,104.404,96.217,104.485,95.984,104.485z"/>
		</g>
		<g>
			<path class="st5" d="M95.984,68.675c-0.233,0-0.466-0.081-0.654-0.244l-2.638-2.28c-0.418-0.361-0.464-0.993-0.103-1.41
				c0.36-0.419,0.992-0.465,1.41-0.103l1.984,1.715l8.223-7.108c0.417-0.362,1.049-0.316,1.41,0.103
				c0.361,0.417,0.315,1.049-0.103,1.41l-8.877,7.674C96.45,68.594,96.217,68.675,95.984,68.675z"/>
		</g>
		<g>
			<path class="st5" d="M121,67.565h-2c-0.552,0-1-0.448-1-1s0.448-1,1-1h2c0.552,0,1,0.448,1,1S121.552,67.565,121,67.565z
				 M115,67.565h-2c-0.552,0-1-0.448-1-1s0.448-1,1-1h2c0.552,0,1,0.448,1,1S115.552,67.565,115,67.565z M109,67.565h-1.438
				c-0.552,0-1-0.448-1-1s0.448-1,1-1H109c0.552,0,1,0.448,1,1S109.552,67.565,109,67.565z"/>
		</g>
		<g>
			<path class="st5" d="M121,85.47h-2c-0.552,0-1-0.448-1-1s0.448-1,1-1h2c0.552,0,1,0.448,1,1S121.552,85.47,121,85.47z M115,85.47
				h-2c-0.552,0-1-0.448-1-1s0.448-1,1-1h2c0.552,0,1,0.448,1,1S115.552,85.47,115,85.47z M109,85.47h-1.438c-0.552,0-1-0.448-1-1
				s0.448-1,1-1H109c0.552,0,1,0.448,1,1S109.552,85.47,109,85.47z"/>
		</g>
		<g>
			<path class="st5" d="M121,103.375h-2c-0.552,0-1-0.448-1-1s0.448-1,1-1h2c0.552,0,1,0.448,1,1S121.552,103.375,121,103.375z
				 M115,103.375h-2c-0.552,0-1-0.448-1-1s0.448-1,1-1h2c0.552,0,1,0.448,1,1S115.552,103.375,115,103.375z M109,103.375h-1.438
				c-0.552,0-1-0.448-1-1s0.448-1,1-1H109c0.552,0,1,0.448,1,1S109.552,103.375,109,103.375z"/>
		</g>
		<g>
			<path class="st5" d="M121,103.375c-0.552,0-1-0.448-1-1v-2c0-0.552,0.448-1,1-1s1,0.448,1,1v2
				C122,102.927,121.552,103.375,121,103.375z M121,97.375c-0.552,0-1-0.448-1-1v-2c0-0.552,0.448-1,1-1s1,0.448,1,1v2
				C122,96.927,121.552,97.375,121,97.375z M121,91.375c-0.552,0-1-0.448-1-1v-2c0-0.552,0.448-1,1-1s1,0.448,1,1v2
				C122,90.927,121.552,91.375,121,91.375z M121,85.375c-0.552,0-1-0.448-1-1v-2c0-0.552,0.448-1,1-1s1,0.448,1,1v2
				C122,84.927,121.552,85.375,121,85.375z M121,79.375c-0.552,0-1-0.448-1-1v-2c0-0.552,0.448-1,1-1s1,0.448,1,1v2
				C122,78.927,121.552,79.375,121,79.375z M121,73.375c-0.552,0-1-0.448-1-1v-2c0-0.552,0.448-1,1-1s1,0.448,1,1v2
				C122,72.927,121.552,73.375,121,73.375z M121,67.375c-0.552,0-1-0.448-1-1v-2c0-0.552,0.448-1,1-1s1,0.448,1,1v2
				C122,66.927,121.552,67.375,121,67.375z M121,61.375c-0.552,0-1-0.448-1-1v-2c0-0.552,0.448-1,1-1s1,0.448,1,1v2
				C122,60.927,121.552,61.375,121,61.375z M121,55.375c-0.552,0-1-0.448-1-1v-2c0-0.552,0.448-1,1-1s1,0.448,1,1v2
				C122,54.927,121.552,55.375,121,55.375z M121,49.375c-0.552,0-1-0.448-1-1v-2c0-0.552,0.448-1,1-1s1,0.448,1,1v2
				C122,48.927,121.552,49.375,121,49.375z M121,43.375c-0.552,0-1-0.448-1-1v-2c0-0.552,0.448-1,1-1s1,0.448,1,1v2
				C122,42.927,121.552,43.375,121,43.375z M121,37.375c-0.552,0-1-0.448-1-1v-2c0-0.552,0.448-1,1-1s1,0.448,1,1v2
				C122,36.927,121.552,37.375,121,37.375z M117.673,34.701h-2c-0.552,0-1-0.448-1-1s0.448-1,1-1h2c0.552,0,1,0.448,1,1
				S118.226,34.701,117.673,34.701z M111.673,34.701h-2c-0.552,0-1-0.448-1-1s0.448-1,1-1h2c0.552,0,1,0.448,1,1
				S112.226,34.701,111.673,34.701z M105.673,34.701h-1.313c-0.552,0-1-0.448-1-1s0.448-1,1-1h1.313c0.552,0,1,0.448,1,1
				S106.226,34.701,105.673,34.701z"/>
		</g>
		<g>
			<path class="st5" d="M15.028,67.985h-2c-0.552,0-1-0.448-1-1s0.448-1,1-1h2c0.552,0,1,0.448,1,1S15.581,67.985,15.028,67.985z
				 M9.028,67.985h-2c-0.552,0-1-0.448-1-1s0.448-1,1-1h2c0.552,0,1,0.448,1,1S9.581,67.985,9.028,67.985z M7,64.013
				c-0.552,0-1-0.448-1-1v-2c0-0.552,0.448-1,1-1s1,0.448,1,1v2C8,63.565,7.552,64.013,7,64.013z M7,58.013c-0.552,0-1-0.448-1-1v-2
				c0-0.552,0.448-1,1-1s1,0.448,1,1v2C8,57.565,7.552,58.013,7,58.013z M7,52.013c-0.552,0-1-0.448-1-1v-2c0-0.552,0.448-1,1-1
				s1,0.448,1,1v2C8,51.565,7.552,52.013,7,52.013z M7,46.013c-0.552,0-1-0.448-1-1v-2c0-0.552,0.448-1,1-1s1,0.448,1,1v2
				C8,45.565,7.552,46.013,7,46.013z M7,40.013c-0.552,0-1-0.448-1-1v-2c0-0.552,0.448-1,1-1s1,0.448,1,1v2
				C8,39.565,7.552,40.013,7,40.013z M21.689,34.702h-2c-0.552,0-1-0.448-1-1s0.448-1,1-1h2c0.552,0,1,0.448,1,1
				S22.241,34.702,21.689,34.702z M15.689,34.702h-2c-0.552,0-1-0.448-1-1s0.448-1,1-1h2c0.552,0,1,0.448,1,1
				S16.241,34.702,15.689,34.702z M9.689,34.702h-2c-0.552,0-1-0.448-1-1s0.448-1,1-1h2c0.552,0,1,0.448,1,1
				S10.241,34.702,9.689,34.702z"/>
		</g>
		<g>
			<path class="st5" d="M58.598,34.702h-2c-0.552,0-1-0.448-1-1s0.448-1,1-1h2c0.552,0,1,0.448,1,1S59.15,34.702,58.598,34.702z
				 M52.598,34.702h-2c-0.552,0-1-0.448-1-1s0.448-1,1-1h2c0.552,0,1,0.448,1,1S53.15,34.702,52.598,34.702z M46.598,34.702h-2
				c-0.552,0-1-0.448-1-1s0.448-1,1-1h2c0.552,0,1,0.448,1,1S47.15,34.702,46.598,34.702z"/>
		</g>
		<g>
			<path class="st5" d="M127,115H1c-0.552,0-1-0.448-1-1s0.448-1,1-1h126c0.552,0,1,0.448,1,1S127.552,115,127,115z"/>
		</g>
		<g>
			<ellipse class="st3" cx="30.052" cy="33.612" rx="12.11" ry="12.05"/>
		</g>
		<g>
			<path class="st5" d="M30.052,46.662c-7.229,0-13.11-5.854-13.11-13.05c0-7.195,5.881-13.049,13.11-13.049
				s13.11,5.854,13.11,13.049C43.162,40.808,37.281,46.662,30.052,46.662z M30.052,22.563c-6.126,0-11.11,4.957-11.11,11.049
				s4.984,11.05,11.11,11.05s11.11-4.957,11.11-11.05S36.178,22.563,30.052,22.563z"/>
		</g>
		<g>
			<path class="st8" d="M32.218,30.172l2.021,2.011c-0.728,2.778-2.926,4.965-5.714,5.686l-2.021-2.011l-3.382,3.365
				c1.392,0.872,3.039,1.375,4.806,1.375c5,0,9.054-4.033,9.054-9.009c0-1.755-0.505-3.397-1.382-4.782L32.218,30.172z"/>
		</g>
		<g>
			<path class="st5" d="M27.928,41.597c-1.896,0-3.741-0.528-5.337-1.527c-0.258-0.162-0.429-0.433-0.463-0.736
				c-0.034-0.303,0.072-0.605,0.289-0.82l3.382-3.365c0.389-0.388,1.02-0.388,1.41,0l1.6,1.591c2.01-0.695,3.597-2.271,4.299-4.272
				l-1.595-1.587c-0.188-0.188-0.294-0.442-0.294-0.708s0.106-0.521,0.295-0.709l3.382-3.365c0.214-0.214,0.514-0.32,0.817-0.285
				c0.301,0.034,0.571,0.203,0.733,0.459c1.005,1.589,1.537,3.428,1.537,5.317C37.982,37.107,33.472,41.597,27.928,41.597z
				 M24.795,38.968c0.984,0.414,2.048,0.629,3.133,0.629c4.441,0,8.054-3.592,8.054-8.008c0-1.081-0.217-2.14-0.635-3.12
				l-1.711,1.703l1.309,1.303c0.252,0.251,0.352,0.617,0.262,0.962c-0.821,3.135-3.285,5.587-6.431,6.4
				c-0.343,0.087-0.706-0.01-0.956-0.259l-1.316-1.31L24.795,38.968z"/>
		</g>
	</g>
</g>
</svg>
