<?xml version="1.0" encoding="utf-8"?>
<!-- Generator: Adobe Illustrator 22.0.0, SVG Export Plug-In . SVG Version: 6.00 Build 0)  -->
<svg version="1.1" id="MARKET_RESEARCH_ICON_SET" xmlns="http://www.w3.org/2000/svg" xmlns:xlink="http://www.w3.org/1999/xlink"
	 x="0px" y="0px" viewBox="0 0 128 128" style="enable-background:new 0 0 128 128;" xml:space="preserve">
<style type="text/css">
	.st0{fill:#C2D5EC;}
	.st1{fill:#61E1FF;}
	.st2{fill:#7184AF;}
	.st3{fill:#F8F8F8;}
	.st4{fill:#3F4D81;}
	.st5{fill:#3F4D80;}
	.st6{fill:#E9EAEB;}
	.st7{fill:#F79559;}
	.st8{fill:#FFA85A;}
</style>
<g>
	<g>
		<g>
			<rect y="71.92" class="st0" width="128" height="35.063"/>
		</g>
		<g>
			<ellipse class="st7" cx="64.153" cy="64.559" rx="49.397" ry="50.441"/>
		</g>
		<g>
			<path class="st8" d="M106.794,59.991C106.794,34.039,86.19,13,60.775,13S14.429,34.039,14.45,59.991
				c0.021,25.883,21.048,46.991,46.325,46.991C85.263,106.982,106.794,85.944,106.794,59.991z"/>
		</g>
		<g>
			<path class="st2" d="M104.363,64.559c0-13.505-6.158-25.135-16.023-33.139c-7.186-5.83-17.279-9.285-25.522-9.285
				c-22.945,0-41.545,18.994-41.545,42.423s18.6,42.423,41.545,42.423C85.263,106.982,104.363,86.72,104.363,64.559z"/>
		</g>
		<g>
			<path class="st6" d="M98.055,60.49c0-21.108-16.757-38.22-37.428-38.22S23.198,39.381,23.198,60.49
				c0,11.728,5.221,22.004,13.566,29.131c6.779,5.79,15.416,9.088,23.862,9.088C81.297,98.709,98.055,81.598,98.055,60.49z"/>
		</g>
		<g>
			<polygon class="st1" points="48.769,32.827 31.224,60.033 66.314,60.033 			"/>
		</g>
		<g>
			<ellipse class="st1" cx="83.14" cy="73.594" rx="13.636" ry="13.561"/>
		</g>
		<g>
			<path class="st3" d="M85.47,86.943c-0.76,0.139-1.54,0.209-2.33,0.209c-7.53,0-13.64-6.067-13.64-13.555
				c0-7.489,6.11-13.565,13.64-13.565c0.79,0,1.57,0.07,2.33,0.209c-6.42,1.094-11.3,6.663-11.3,13.356S79.05,85.849,85.47,86.943z"
				/>
		</g>
		<g>
			<polygon class="st3" points="51.231,36.645 48.769,32.827 31.224,60.033 36.148,60.033 			"/>
		</g>
	</g>
	<g>
		<g>
			<g>
				<path class="st5" d="M127,107.982H92.198c-0.553,0-1-0.448-1-1s0.447-1,1-1H127c0.553,0,1,0.448,1,1
					S127.553,107.982,127,107.982z"/>
			</g>
			<g>
				<path class="st5" d="M61.703,107.982H1c-0.552,0-1-0.448-1-1s0.448-1,1-1h60.703c0.552,0,1,0.448,1,1
					S62.255,107.982,61.703,107.982z"/>
			</g>
		</g>
		<g>
			<g>
				<g>
					<path class="st5" d="M66.314,61.033h-35.09c-0.366,0-0.703-0.2-0.878-0.521s-0.161-0.713,0.038-1.021l17.545-27.206
						c0.368-0.571,1.312-0.571,1.681,0l17.546,27.206c0.198,0.308,0.213,0.699,0.037,1.021
						C67.018,60.833,66.681,61.033,66.314,61.033z M33.059,59.033h31.42l-15.71-24.361L33.059,59.033z"/>
				</g>
			</g>
			<g>
				<g>
					<path class="st5" d="M83.14,88.155c-8.07,0-14.637-6.532-14.637-14.561s6.566-14.561,14.637-14.561s14.637,6.532,14.637,14.561
						S91.21,88.155,83.14,88.155z M83.14,61.033c-6.968,0-12.637,5.635-12.637,12.561s5.669,12.561,12.637,12.561
						s12.637-5.635,12.637-12.561S90.107,61.033,83.14,61.033z"/>
				</g>
			</g>
			<g>
				<g>
					<path class="st5" d="M83.14,54.969c-0.553,0-1-0.448-1-1v-7.473H66.314c-0.553,0-1-0.448-1-1s0.447-1,1-1H83.14
						c0.553,0,1,0.448,1,1v8.473C84.14,54.521,83.692,54.969,83.14,54.969z"/>
				</g>
			</g>
			<g>
				<g>
					<path class="st5" d="M71.506,51.658c-0.255,0-0.51-0.097-0.705-0.291l-5.191-5.162c-0.188-0.188-0.295-0.443-0.295-0.709
						s0.106-0.521,0.295-0.709l5.191-5.163c0.392-0.39,1.024-0.388,1.414,0.004c0.39,0.392,0.388,1.025-0.004,1.414l-4.479,4.454
						l4.479,4.453c0.392,0.389,0.394,1.022,0.004,1.414C72.02,51.56,71.763,51.658,71.506,51.658z"/>
				</g>
			</g>
			<g>
				<g>
					<path class="st5" d="M65.594,75.571H48.769c-0.552,0-1-0.448-1-1v-8.473c0-0.552,0.448-1,1-1s1,0.448,1,1v7.473h15.825
						c0.553,0,1,0.448,1,1S66.146,75.571,65.594,75.571z"/>
				</g>
			</g>
			<g>
				<g>
					<path class="st5" d="M60.403,80.733c-0.257,0-0.514-0.098-0.709-0.295c-0.39-0.392-0.388-1.025,0.004-1.414l4.478-4.453
						l-4.478-4.454c-0.392-0.39-0.394-1.022-0.004-1.414c0.39-0.392,1.024-0.394,1.414-0.004l5.191,5.163
						c0.188,0.188,0.295,0.443,0.295,0.709s-0.106,0.521-0.295,0.709l-5.191,5.162C60.913,80.636,60.658,80.733,60.403,80.733z"/>
				</g>
			</g>
		</g>
		<g>
			<g>
				<path class="st5" d="M61.703,107.982c-26.607,0-48.253-21.529-48.253-47.991S35.096,12,61.703,12
					c29.14,0,52.847,23.578,52.847,52.559c0,14.041-5.498,27.24-15.48,37.167c-0.393,0.39-1.025,0.388-1.414-0.004
					c-0.39-0.392-0.388-1.025,0.004-1.414c9.603-9.549,14.891-22.245,14.891-35.749C112.55,36.681,89.74,14,61.703,14
					C36.199,14,15.45,34.631,15.45,59.991s20.749,45.991,46.253,45.991c22.192,0,41.66-19.357,41.66-41.423
					c0-22.841-18.688-41.423-41.66-41.423c-20.685,0-37.513,16.732-37.513,37.3c0,20.567,16.828,37.299,37.513,37.299
					c0.552,0,1,0.448,1,1s-0.448,1-1,1c-21.788,0-39.513-17.629-39.513-39.299s17.725-39.3,39.513-39.3
					c24.074,0,43.66,19.479,43.66,43.423C105.363,88.097,85.369,107.982,61.703,107.982z"/>
			</g>
			<g>
				<path class="st5" d="M103.887,59.21c-0.203,0-0.407-0.062-0.585-0.189l-4.312-3.116c-0.447-0.324-0.548-0.949-0.225-1.396
					c0.322-0.448,0.946-0.548,1.396-0.225l3.505,2.533l2.546-3.485c0.326-0.445,0.951-0.543,1.397-0.218s0.543,0.952,0.218,1.397
					l-3.133,4.289C104.499,59.068,104.195,59.21,103.887,59.21z"/>
			</g>
			<g>
				<path class="st5" d="M20.13,67.88c-0.205,0-0.411-0.062-0.589-0.192c-0.446-0.326-0.543-0.952-0.218-1.397l3.132-4.289
					c0.325-0.444,0.947-0.543,1.393-0.221l4.312,3.116c0.448,0.323,0.548,0.949,0.225,1.396c-0.323,0.449-0.949,0.549-1.396,0.225
					l-3.506-2.533l-2.545,3.485C20.743,67.738,20.439,67.88,20.13,67.88z"/>
			</g>
			<g>
				<path class="st5" d="M28.288,99.801c-0.552,0-1-0.448-1-1v-5.584c0-0.552,0.448-1,1-1h5.615c0.552,0,1,0.448,1,1s-0.448,1-1,1
					h-4.615v4.584C29.288,99.354,28.84,99.801,28.288,99.801z"/>
			</g>
			<g>
				<path class="st5" d="M98.359,29.104L98.359,29.104l-6.16,0c-0.553,0-1-0.448-1-1s0.447-1,1-1l0,0l5.16,0v-5.127
					c0-0.552,0.447-1,1-1s1,0.448,1,1v6.127c0,0.265-0.105,0.52-0.293,0.707S98.625,29.104,98.359,29.104z"/>
			</g>
			<g>
				<path class="st5" d="M104.521,102.011h-6.161c-0.266,0-0.52-0.105-0.707-0.293s-0.293-0.442-0.293-0.707l0.001-6.127
					c0-0.552,0.448-1,1-1l0,0c0.553,0,1,0.448,1,1l-0.001,5.127h5.161c0.553,0,1,0.448,1,1S105.073,102.011,104.521,102.011z"/>
			</g>
			<g>
				<path class="st5" d="M23.853,38.982L23.853,38.982c-0.552,0-1-0.448-1-1l0-5.127h-5.161c-0.552,0-1-0.448-1-1s0.448-1,1-1h6.161
					c0.265,0,0.52,0.105,0.707,0.293s0.293,0.442,0.293,0.707l0,6.127C24.853,38.534,24.405,38.982,23.853,38.982z"/>
			</g>
			<g>
				<path class="st5" d="M59.765,27.309c-0.257,0-0.514-0.098-0.709-0.295c-0.39-0.392-0.388-1.025,0.004-1.414l3.644-3.623
					l-3.644-3.624c-0.392-0.389-0.394-1.022-0.004-1.414c0.39-0.392,1.024-0.394,1.414-0.004l4.356,4.333
					c0.188,0.188,0.295,0.443,0.295,0.709s-0.106,0.521-0.295,0.709l-4.356,4.332C60.275,27.211,60.02,27.309,59.765,27.309z"/>
			</g>
			<g>
				<path class="st5" d="M66.06,104.067c-0.255,0-0.51-0.097-0.705-0.291l-4.356-4.332c-0.189-0.188-0.295-0.443-0.295-0.709
					s0.106-0.521,0.295-0.709l4.356-4.333c0.392-0.39,1.025-0.389,1.414,0.004c0.39,0.392,0.388,1.025-0.004,1.414l-3.644,3.624
					l3.644,3.623c0.392,0.389,0.394,1.022,0.004,1.414C66.573,103.969,66.316,104.067,66.06,104.067z"/>
			</g>
		</g>
	</g>
</g>
</svg>
