<?xml version="1.0" encoding="utf-8"?>
<!-- Generator: Adobe Illustrator 22.0.0, SVG Export Plug-In . SVG Version: 6.00 Build 0)  -->
<svg version="1.1" id="MARKET_RESEARCH_ICON_SET" xmlns="http://www.w3.org/2000/svg" xmlns:xlink="http://www.w3.org/1999/xlink"
	 x="0px" y="0px" viewBox="0 0 128 128" style="enable-background:new 0 0 128 128;" xml:space="preserve">
<style type="text/css">
	.st0{fill:#C2D5EC;}
	.st1{fill:#61E1FF;}
	.st2{fill:#7184AF;}
	.st3{fill:#F8F8F8;}
	.st4{fill:#3F4D81;}
	.st5{fill:#3F4D80;}
	.st6{fill:#E9EAEB;}
	.st7{fill:#F79559;}
	.st8{fill:#FFA85A;}
</style>
<g>
	<g>
		<g>
			<polygon class="st0" points="48.36,17 99.054,17 99.054,111 20.539,111 20.54,69.6 48.36,69.6 			"/>
		</g>
		<g>
			<path class="st5" d="M99.055,49.73c-0.29-0.013-0.576-0.044-0.87-0.044c-10.709,0-19.39,8.635-19.39,19.288
				s8.681,19.288,19.39,19.288c0.294,0,0.579-0.031,0.87-0.044V49.73z"/>
		</g>
		<g>
			<g>
				<path class="st5" d="M98.185,89.261c-11.243,0-20.39-9.101-20.39-20.288s9.147-20.288,20.39-20.288
					c0.208,0,0.412,0.013,0.616,0.027l0.298,0.018c0.535,0.023,0.957,0.464,0.957,0.999v38.488c0,0.535-0.421,0.976-0.957,0.999
					L98.8,89.234C98.596,89.248,98.393,89.261,98.185,89.261z M98.055,50.687c-10.081,0.07-18.26,8.247-18.26,18.287
					s8.179,18.217,18.26,18.287V50.687z"/>
			</g>
		</g>
		<g>
			<path class="st5" d="M66.9,34.706H48.36V69.6H20.54l-0.001,31.652h18.54c2.209,0,4-1.781,4-3.979V73.578H66.9
				c2.209,0,4-1.781,4-3.979V38.684C70.9,36.487,69.11,34.706,66.9,34.706z"/>
		</g>
		<g>
			<g>
				<path class="st5" d="M39.08,102.252H20.539c-0.265,0-0.52-0.105-0.707-0.293s-0.293-0.442-0.293-0.707L19.54,69.6
					c0-0.552,0.448-1,1-1h26.82V34.706c0-0.552,0.448-1,1-1H66.9c2.757,0,5,2.233,5,4.979V69.6c0,2.746-2.243,4.979-5,4.979H44.08
					v22.695C44.08,100.019,41.836,102.252,39.08,102.252z M21.539,100.252H39.08c1.654,0,3-1.336,3-2.979V73.579
					c0-0.552,0.448-1,1-1H66.9c1.654,0,3-1.336,3-2.979V38.685c0-1.643-1.346-2.979-3-2.979H49.36V69.6c0,0.552-0.448,1-1,1H21.54
					L21.539,100.252z"/>
			</g>
		</g>
		<g>
			<g>
				<g>
					<path class="st8" d="M32.821,69.6H63.9c2.209,0,4-1.781,4-3.979V34.706c0-2.197-1.791-3.979-4-3.979h-31.08
						c-2.209,0-4,1.781-4,3.979v30.915C28.821,67.818,30.612,69.6,32.821,69.6z"/>
				</g>
			</g>
			<g>
				<g>
					<path class="st3" d="M31.821,68.605V34.759c0-0.579,0.472-1.048,1.054-1.048H66.9c0.308,0,0.604,0.042,0.892,0.107
						c-0.406-1.769-1.991-3.091-3.892-3.091h-31.08c-2.209,0-4,1.781-4,3.979v30.915c0,1.891,1.33,3.467,3.108,3.871
						C31.863,69.206,31.821,68.911,31.821,68.605z"/>
				</g>
			</g>
			<g>
				<g>
					<path class="st1" d="M32.821,69.6c-2.209,0-4-1.781-4-3.979V58.4H5c-2.209,0-4,1.781-4,3.979v30.915
						c0,2.197,1.791,3.979,4,3.979h31.08c2.209,0,4-1.781,4-3.979V69.6H32.821z"/>
				</g>
			</g>
			<g>
				<g>
					<path class="st3" d="M4,96.279V62.433c0-0.579,0.472-1.048,1.054-1.048h23.767V58.4H5c-2.209,0-4,1.781-4,3.979v30.915
						c0,1.891,1.33,3.467,3.108,3.871C4.042,96.88,4,96.585,4,96.279z"/>
				</g>
			</g>
			<g>
				<g>
					<path class="st2" d="M31.821,69.459V69.6c0,2.197,1.791,3.979,4,3.979h4.259V69.6h-7.259
						C32.473,69.6,32.142,69.542,31.821,69.459z"/>
				</g>
			</g>
			<g>
				<g>
					<ellipse class="st3" cx="48.361" cy="50.163" rx="5.524" ry="5.494"/>
				</g>
			</g>
			<g>
				<g>
					<polygon class="st3" points="20.54,72.197 13.267,83.477 27.813,83.477 					"/>
				</g>
			</g>
		</g>
		<g>
			<g>
				<g>
					<ellipse class="st1" cx="96.185" cy="64" rx="19.39" ry="19.288"/>
				</g>
			</g>
			<g>
				<g>
					<path class="st6" d="M95.005,59.851l8.591,8.545c0,0,3.666-3.646,7.329-7.29c-1.355-6.87-7.437-12.054-14.74-12.054
						c-8.299,0-15.027,6.692-15.027,14.948c0,2.761,0.766,5.339,2.078,7.558L95.005,59.851L95.005,59.851z"/>
				</g>
			</g>
			<g>
				<g>
					<path class="st2" d="M103.596,68.396l-8.591-8.545v0L83.236,71.558c2.611,4.416,7.425,7.389,12.949,7.389
						c8.299,0,15.027-6.692,15.027-14.947c0-0.991-0.102-1.957-0.287-2.893C107.262,64.75,103.596,68.396,103.596,68.396z"/>
				</g>
			</g>
			<g>
				<g>
					<ellipse class="st7" cx="95.005" cy="59.851" rx="2.445" ry="2.432"/>
				</g>
			</g>
			<g>
				<g>
					<ellipse class="st7" cx="103.596" cy="68.396" rx="2.445" ry="2.432"/>
				</g>
			</g>
			<g>
				<g>
					<path class="st7" d="M114.459,80.388c0.225-0.223,0.483-0.389,0.757-0.512l-3.874-3.854c-0.906,1.129-1.936,2.153-3.07,3.054
						l3.874,3.854c0.123-0.272,0.29-0.53,0.514-0.753L114.459,80.388z"/>
				</g>
			</g>
			<g>
				<g>
					<path class="st2" d="M112.66,85.756l8.198,8.155c0.994,0.988,2.605,0.988,3.598,0l1.799-1.79c0.994-0.988,0.994-2.591,0-3.579
						l-8.198-8.155c-0.994-0.988-2.605-0.988-3.598,0l-1.799,1.79C111.666,83.166,111.666,84.768,112.66,85.756z"/>
				</g>
			</g>
		</g>
		<g>
			<g>
				<g>
					<rect x="57.583" y="95.794" class="st8" width="2.956" height="6.727"/>
				</g>
			</g>
			<g>
				<g>
					<rect x="63.494" y="92.109" class="st8" width="2.956" height="10.411"/>
				</g>
			</g>
			<g>
				<g>
					<rect x="69.405" y="88.746" class="st8" width="2.956" height="13.775"/>
				</g>
			</g>
			<g>
				<g>
					<rect x="75.317" y="85.382" class="st8" width="2.956" height="17.138"/>
				</g>
			</g>
		</g>
	</g>
	<g>
		<g>
			<g>
				<path class="st5" d="M63.9,70.6h-31.08c-2.757,0-5-2.233-5-4.979V34.706c0-2.746,2.243-4.979,5-4.979H63.9
					c2.757,0,5,2.233,5,4.979v30.915C68.9,68.366,66.657,70.6,63.9,70.6z M32.821,31.727c-1.654,0-3,1.336-3,2.979v30.915
					c0,1.643,1.346,2.979,3,2.979H63.9c1.654,0,3-1.336,3-2.979V34.706c0-1.643-1.346-2.979-3-2.979H32.821z"/>
			</g>
		</g>
		<g>
			<g>
				<path class="st5" d="M36.08,98.273H5c-2.757,0-5-2.233-5-4.979V62.379C0,59.634,2.243,57.4,5,57.4h23.821c0.552,0,1,0.448,1,1
					v7.22c0,1.643,1.346,2.979,3,2.979h7.259c0.552,0,1,0.448,1,1v23.695C41.08,96.04,38.836,98.273,36.08,98.273z M5,59.4
					c-1.654,0-3,1.336-3,2.979v30.915c0,1.643,1.346,2.979,3,2.979h31.08c1.654,0,3-1.336,3-2.979V70.6h-6.259
					c-2.757,0-5-2.233-5-4.979V59.4H5z"/>
			</g>
		</g>
		<g>
			<g>
				<path class="st5" d="M48.361,56.658c-3.597,0-6.524-2.914-6.524-6.495s2.927-6.494,6.524-6.494s6.523,2.913,6.523,6.494
					S51.958,56.658,48.361,56.658z M48.361,45.669c-2.495,0-4.524,2.016-4.524,4.494c0,2.479,2.029,4.495,4.524,4.495
					c2.494,0,4.523-2.016,4.523-4.495C52.884,47.685,50.855,45.669,48.361,45.669z"/>
			</g>
		</g>
		<g>
			<g>
				<path class="st5" d="M27.812,84.477H13.267c-0.366,0-0.703-0.2-0.878-0.521s-0.161-0.713,0.038-1.021l7.272-11.28
					c0.368-0.571,1.312-0.571,1.681,0l7.273,11.28c0.198,0.308,0.213,0.699,0.038,1.021S28.179,84.477,27.812,84.477z
					 M15.102,82.477h10.876l-5.438-8.435L15.102,82.477z"/>
			</g>
		</g>
		<g>
			<g>
				<path class="st5" d="M10.92,54.558c-0.143,0-0.289-0.031-0.426-0.096c-0.5-0.236-0.713-0.832-0.478-1.331
					c2.769-5.867,7.575-10.542,13.533-13.164c0.504-0.221,1.096,0.007,1.318,0.513c0.222,0.505-0.007,1.096-0.513,1.318
					c-5.518,2.428-9.967,6.755-12.53,12.186C11.655,54.347,11.295,54.558,10.92,54.558z"/>
			</g>
		</g>
		<g>
			<g>
				<path class="st5" d="M47.369,90.625c-0.384,0-0.751-0.223-0.916-0.598c-0.222-0.505,0.007-1.096,0.513-1.318
					c5.517-2.428,9.967-6.755,12.53-12.186c0.236-0.5,0.834-0.711,1.331-0.478c0.5,0.236,0.713,0.832,0.478,1.331
					c-2.769,5.866-7.575,10.541-13.533,13.163C47.64,90.598,47.503,90.625,47.369,90.625z"/>
			</g>
		</g>
		<g>
			<g>
				<g>
					<path class="st5" d="M96.185,84.288c-11.243,0-20.39-9.101-20.39-20.288s9.147-20.288,20.39-20.288
						c11.244,0,20.391,9.101,20.391,20.288S107.428,84.288,96.185,84.288z M96.185,45.712c-10.14,0-18.39,8.204-18.39,18.288
						s8.25,18.288,18.39,18.288c10.141,0,18.391-8.204,18.391-18.288S106.325,45.712,96.185,45.712z"/>
				</g>
			</g>
			<g>
				<g>
					<g>
						<path class="st5" d="M105.325,67.677c-0.257,0-0.514-0.098-0.709-0.295c-0.39-0.392-0.388-1.024,0.004-1.414l5.604-5.575
							c0.391-0.39,1.024-0.389,1.414,0.004c0.39,0.392,0.388,1.024-0.004,1.414l-5.604,5.575
							C105.835,67.58,105.58,67.677,105.325,67.677z"/>
					</g>
				</g>
				<g>
					<g>
						<path class="st5" d="M101.868,67.677c-0.255,0-0.51-0.097-0.705-0.291l-5.134-5.106c-0.392-0.39-0.394-1.022-0.004-1.414
							s1.023-0.393,1.414-0.004l5.134,5.106c0.392,0.39,0.394,1.022,0.004,1.414C102.381,67.579,102.125,67.677,101.868,67.677z"/>
					</g>
				</g>
				<g>
					<g>
						<path class="st5" d="M83.222,72.572c-0.257,0-0.514-0.098-0.709-0.295c-0.39-0.392-0.388-1.024,0.004-1.414l10.054-10.001
							c0.391-0.39,1.024-0.388,1.414,0.004c0.39,0.392,0.388,1.024-0.004,1.414L83.927,72.281
							C83.732,72.475,83.477,72.572,83.222,72.572z"/>
					</g>
				</g>
				<g>
					<g>
						<path class="st5" d="M96.185,79.947c-8.837,0-16.027-7.154-16.027-15.947s7.189-15.947,16.027-15.947
							S112.212,55.207,112.212,64S105.022,79.947,96.185,79.947z M96.185,50.053c-7.734,0-14.027,6.257-14.027,13.947
							s6.292,13.947,14.027,13.947c7.735,0,14.027-6.257,14.027-13.947S103.919,50.053,96.185,50.053z"/>
					</g>
				</g>
				<g>
					<g>
						<path class="st5" d="M95.005,63.281c-0.881,0-1.763-0.333-2.434-1v0c-0.652-0.648-1.011-1.511-1.011-2.429
							s0.359-1.78,1.011-2.429c1.342-1.335,3.526-1.334,4.868,0c0.652,0.648,1.011,1.511,1.011,2.429s-0.359,1.78-1.011,2.429
							C96.768,62.947,95.887,63.281,95.005,63.281z M93.981,60.862c0.565,0.561,1.483,0.561,2.047,0
							c0.271-0.27,0.421-0.629,0.421-1.011S96.3,59.11,96.029,58.84c-0.564-0.562-1.483-0.562-2.047,0
							c-0.271,0.27-0.421,0.629-0.421,1.011S93.71,60.592,93.981,60.862L93.981,60.862z"/>
					</g>
				</g>
				<g>
					<g>
						<path class="st5" d="M103.596,71.826c-0.881,0-1.763-0.333-2.434-1.001l0,0c-0.652-0.648-1.011-1.511-1.011-2.429
							s0.359-1.78,1.011-2.429c1.342-1.335,3.525-1.335,4.867,0c0.652,0.648,1.011,1.511,1.011,2.429s-0.359,1.78-1.011,2.429
							C105.359,71.492,104.478,71.826,103.596,71.826z M102.573,69.407c0.564,0.561,1.482,0.561,2.047,0
							c0.271-0.27,0.421-0.629,0.421-1.011s-0.149-0.741-0.421-1.011c-0.564-0.562-1.482-0.562-2.047,0
							c-0.271,0.271-0.421,0.629-0.421,1.011S102.301,69.137,102.573,69.407z"/>
					</g>
				</g>
			</g>
			<g>
				<g>
					<path class="st5" d="M112.146,83.93c-0.262,0-0.516-0.103-0.705-0.291l-3.874-3.854c-0.203-0.201-0.309-0.479-0.293-0.765
						c0.016-0.285,0.153-0.55,0.376-0.728c1.074-0.853,2.054-1.828,2.913-2.897c0.178-0.221,0.441-0.356,0.724-0.373
						c0.28-0.02,0.559,0.089,0.761,0.29l3.874,3.854c0.234,0.232,0.338,0.564,0.279,0.889c-0.06,0.324-0.274,0.598-0.575,0.733
						c-0.183,0.082-0.337,0.185-0.461,0.308l-1.799,1.79c-0.125,0.124-0.226,0.273-0.308,0.456c-0.135,0.299-0.408,0.512-0.73,0.571
						C112.266,83.925,112.206,83.93,112.146,83.93z M109.752,79.139l2.272,2.26l1.652-1.644l-2.272-2.261
						C110.885,78.073,110.333,78.623,109.752,79.139z"/>
				</g>
			</g>
			<g>
				<g>
					<path class="st5" d="M122.657,95.65c-0.907,0-1.814-0.343-2.504-1.03l-8.198-8.155c-0.671-0.667-1.04-1.554-1.04-2.499
						s0.369-1.832,1.04-2.499l1.799-1.79c1.381-1.375,3.628-1.374,5.009,0l8.198,8.155c0.671,0.667,1.04,1.554,1.04,2.499
						s-0.369,1.832-1.04,2.499l-1.799,1.79C124.47,95.307,123.563,95.65,122.657,95.65z M116.258,80.646
						c-0.396,0-0.792,0.15-1.094,0.45l-1.799,1.79c-0.291,0.289-0.45,0.673-0.45,1.081s0.16,0.792,0.45,1.081l0,0l8.198,8.155
						c0.603,0.6,1.584,0.599,2.188,0l1.799-1.79c0.291-0.289,0.45-0.673,0.45-1.081s-0.16-0.792-0.45-1.081l-8.198-8.155
						C117.05,80.797,116.654,80.646,116.258,80.646z"/>
				</g>
			</g>
		</g>
		<g>
			<g>
				<path class="st5" d="M99.055,45.923c-0.552,0-1-0.448-1-1v-2c0-0.552,0.448-1,1-1s1,0.448,1,1v2
					C100.055,45.476,99.607,45.923,99.055,45.923z M99.055,39.923c-0.552,0-1-0.448-1-1v-2c0-0.552,0.448-1,1-1s1,0.448,1,1v2
					C100.055,39.476,99.607,39.923,99.055,39.923z M99.055,33.923c-0.552,0-1-0.448-1-1v-2c0-0.552,0.448-1,1-1s1,0.448,1,1v2
					C100.055,33.476,99.607,33.923,99.055,33.923z M48.36,31.382c-0.552,0-1-0.448-1-1v-2c0-0.552,0.448-1,1-1s1,0.448,1,1v2
					C49.36,30.934,48.912,31.382,48.36,31.382z M99.055,27.923c-0.552,0-1-0.448-1-1v-2c0-0.552,0.448-1,1-1s1,0.448,1,1v2
					C100.055,27.476,99.607,27.923,99.055,27.923z M48.36,25.382c-0.552,0-1-0.448-1-1v-2c0-0.552,0.448-1,1-1s1,0.448,1,1v2
					C49.36,24.934,48.912,25.382,48.36,25.382z M99.055,21.923c-0.552,0-1-0.448-1-1v-2c0-0.552,0.448-1,1-1s1,0.448,1,1v2
					C100.055,21.476,99.607,21.923,99.055,21.923z M48.36,19.382c-0.552,0-1-0.448-1-1V17c0-0.552,0.448-1,1-1h0.618
					c0.552,0,1,0.448,1,1c0,0.417-0.255,0.774-0.618,0.924v0.458C49.36,18.934,48.912,19.382,48.36,19.382z M96.978,18h-2
					c-0.552,0-1-0.448-1-1s0.448-1,1-1h2c0.552,0,1,0.448,1,1S97.53,18,96.978,18z M90.978,18h-2c-0.552,0-1-0.448-1-1s0.448-1,1-1
					h2c0.552,0,1,0.448,1,1S91.53,18,90.978,18z M84.978,18h-2c-0.552,0-1-0.448-1-1s0.448-1,1-1h2c0.552,0,1,0.448,1,1
					S85.53,18,84.978,18z M78.978,18h-2c-0.552,0-1-0.448-1-1s0.448-1,1-1h2c0.552,0,1,0.448,1,1S79.53,18,78.978,18z M72.978,18h-2
					c-0.552,0-1-0.448-1-1s0.448-1,1-1h2c0.552,0,1,0.448,1,1S73.53,18,72.978,18z M66.978,18h-2c-0.552,0-1-0.448-1-1s0.448-1,1-1
					h2c0.552,0,1,0.448,1,1S67.53,18,66.978,18z M60.978,18h-2c-0.552,0-1-0.448-1-1s0.448-1,1-1h2c0.552,0,1,0.448,1,1
					S61.53,18,60.978,18z M54.978,18h-2c-0.552,0-1-0.448-1-1s0.448-1,1-1h2c0.552,0,1,0.448,1,1S55.53,18,54.978,18z"/>
			</g>
		</g>
		<g>
			<g>
				<path class="st5" d="M96.978,112h-2c-0.552,0-1-0.448-1-1s0.448-1,1-1h2c0.552,0,1,0.448,1,1S97.53,112,96.978,112z M90.978,112
					h-2c-0.552,0-1-0.448-1-1s0.448-1,1-1h2c0.552,0,1,0.448,1,1S91.53,112,90.978,112z M84.978,112h-2c-0.552,0-1-0.448-1-1
					s0.448-1,1-1h2c0.552,0,1,0.448,1,1S85.53,112,84.978,112z M78.978,112h-2c-0.552,0-1-0.448-1-1s0.448-1,1-1h2
					c0.552,0,1,0.448,1,1S79.53,112,78.978,112z M72.978,112h-2c-0.552,0-1-0.448-1-1s0.448-1,1-1h2c0.552,0,1,0.448,1,1
					S73.53,112,72.978,112z M66.978,112h-2c-0.552,0-1-0.448-1-1s0.448-1,1-1h2c0.552,0,1,0.448,1,1S67.53,112,66.978,112z
					 M60.978,112h-2c-0.552,0-1-0.448-1-1s0.448-1,1-1h2c0.552,0,1,0.448,1,1S61.53,112,60.978,112z M54.978,112h-2
					c-0.552,0-1-0.448-1-1s0.448-1,1-1h2c0.552,0,1,0.448,1,1S55.53,112,54.978,112z M48.978,112h-2c-0.552,0-1-0.448-1-1
					s0.448-1,1-1h2c0.552,0,1,0.448,1,1S49.53,112,48.978,112z M42.978,112h-2c-0.552,0-1-0.448-1-1s0.448-1,1-1h2
					c0.552,0,1,0.448,1,1S43.53,112,42.978,112z M36.978,112h-2c-0.552,0-1-0.448-1-1s0.448-1,1-1h2c0.552,0,1,0.448,1,1
					S37.53,112,36.978,112z M30.978,112h-2c-0.552,0-1-0.448-1-1s0.448-1,1-1h2c0.552,0,1,0.448,1,1S31.53,112,30.978,112z
					 M24.978,112h-2c-0.552,0-1-0.448-1-1s0.448-1,1-1h2c0.552,0,1,0.448,1,1S25.53,112,24.978,112z M20.539,110.439
					c-0.552,0-1-0.448-1-1v-2c0-0.552,0.448-1,1-1s1,0.448,1,1v2C21.539,109.991,21.091,110.439,20.539,110.439z M99.055,110.077
					c-0.552,0-1-0.448-1-1v-2c0-0.552,0.448-1,1-1s1,0.448,1,1v2C100.055,109.629,99.607,110.077,99.055,110.077z M20.539,104.439
					c-0.552,0-1-0.448-1-1v-2c0-0.552,0.448-1,1-1s1,0.448,1,1v2C21.539,103.991,21.091,104.439,20.539,104.439z M99.055,104.077
					c-0.552,0-1-0.448-1-1v-2c0-0.552,0.448-1,1-1s1,0.448,1,1v2C100.055,103.629,99.607,104.077,99.055,104.077z M20.539,98.439
					c-0.552,0-1-0.448-1-1v-0.166c0-0.552,0.448-1,1-1s1,0.448,1,1v0.166C21.539,97.991,21.091,98.439,20.539,98.439z
					 M99.055,98.077c-0.552,0-1-0.448-1-1v-2c0-0.552,0.448-1,1-1s1,0.448,1,1v2C100.055,97.629,99.607,98.077,99.055,98.077z
					 M99.055,92.077c-0.552,0-1-0.448-1-1v-2c0-0.552,0.448-1,1-1s1,0.448,1,1v2C100.055,91.629,99.607,92.077,99.055,92.077z
					 M99.055,86.077c-0.552,0-1-0.448-1-1v-2c0-0.552,0.448-1,1-1s1,0.448,1,1v2C100.055,85.629,99.607,86.077,99.055,86.077z"/>
			</g>
		</g>
		<g>
			<g>
				<path class="st5" d="M126.777,110.006H98.832c-0.552,0-1-0.448-1-1s0.448-1,1-1h27.946c0.552,0,1,0.448,1,1
					S127.33,110.006,126.777,110.006z"/>
			</g>
		</g>
		<g>
			<g>
				<path class="st5" d="M20.539,112H1c-0.552,0-1-0.448-1-1s0.448-1,1-1h19.539c0.552,0,1,0.448,1,1S21.091,112,20.539,112z"/>
			</g>
		</g>
		<g>
			<g>
				<g>
					<path class="st5" d="M60.539,103.521h-2.956c-0.552,0-1-0.448-1-1v-6.727c0-0.552,0.448-1,1-1h2.956c0.552,0,1,0.448,1,1v6.727
						C61.539,103.073,61.091,103.521,60.539,103.521z M58.583,101.521h0.956v-4.727h-0.956V101.521z"/>
				</g>
			</g>
			<g>
				<g>
					<path class="st5" d="M66.45,103.521h-2.956c-0.552,0-1-0.448-1-1V92.109c0-0.552,0.448-1,1-1h2.956c0.552,0,1,0.448,1,1v10.411
						C67.45,103.073,67.002,103.521,66.45,103.521z M64.494,101.521h0.956v-8.411h-0.956V101.521z"/>
				</g>
			</g>
			<g>
				<g>
					<path class="st5" d="M72.361,103.521h-2.956c-0.552,0-1-0.448-1-1V88.746c0-0.552,0.448-1,1-1h2.956c0.552,0,1,0.448,1,1
						v13.774C73.361,103.073,72.913,103.521,72.361,103.521z M70.405,101.521h0.956V89.746h-0.956V101.521z"/>
				</g>
			</g>
			<g>
				<g>
					<path class="st5" d="M78.272,103.521h-2.956c-0.552,0-1-0.448-1-1V85.382c0-0.552,0.448-1,1-1h2.956c0.552,0,1,0.448,1,1
						v17.138C79.272,103.073,78.824,103.521,78.272,103.521z M76.316,101.521h0.956V86.382h-0.956V101.521z"/>
				</g>
			</g>
		</g>
	</g>
</g>
</svg>
