<?xml version="1.0" encoding="utf-8"?>
<!-- Generator: Adobe Illustrator 22.0.0, SVG Export Plug-In . SVG Version: 6.00 Build 0)  -->
<svg version="1.1" id="MARKET_RESEARCH_ICON_SET" xmlns="http://www.w3.org/2000/svg" xmlns:xlink="http://www.w3.org/1999/xlink"
	 x="0px" y="0px" viewBox="0 0 128 128" style="enable-background:new 0 0 128 128;" xml:space="preserve">
<style type="text/css">
	.st0{fill:#C2D5EC;}
	.st1{fill:#61E1FF;}
	.st2{fill:#7184AF;}
	.st3{fill:#F8F8F8;}
	.st4{fill:#3F4D81;}
	.st5{fill:#3F4D80;}
	.st6{fill:#E9EAEB;}
	.st7{fill:#F79559;}
	.st8{fill:#FFA85A;}
</style>
<g>
	<g>
		<g>
			<rect x="0" y="42.681" class="st0" width="128" height="58.807"/>
		</g>
		<g>
			<g>
				<ellipse class="st2" cx="64" cy="101.489" rx="18.598" ry="18.511"/>
			</g>
			<g>
				<g>
					<path class="st3" d="M63.868,95.371c-1.201,0-2.174,0.969-2.174,2.164c0,0.252-0.048,0.495-0.129,0.723
						c-0.337-1.13-1.376-1.96-2.621-1.96c-1.424,0-2.581,1.083-2.719,2.465v0.536c0.02,0.584,0.092,1.155,0.245,1.694l0.003,0
						c0.015,0.053,0.028,0.106,0.044,0.158c0.937,3.026,1.562,6.14,1.562,9.307l4.887,4.864l0.505-5.397v-1.952
						c0.903,0.466,1.964,0.67,3.086,0.494c2.441-0.383,4.187-2.569,4.187-5.028v-4.408v-2.026c0-0.572-0.096-1.12-0.266-1.634
						H63.868z"/>
				</g>
				<g>
					<path class="st8" d="M65.673,112.055l-2.2-2.129l-0.505,5.397l-4.887-4.864l-1.798,1.531l0,0c0,0-2.696,1.015-4.72,3.242
						C54.858,118.19,59.213,120,64,120c3.005,0,5.843-0.711,8.355-1.971C70.197,112.855,65.673,112.055,65.673,112.055z"/>
				</g>
				<g>
					<path class="st5" d="M73.266,88.689H61.129c-2.723,0-4.93,2.197-4.93,4.907v5.435c0-1.509,1.229-2.733,2.746-2.733
						c1.245,0,2.284,0.83,2.621,1.96c0.082-0.228,0.129-0.471,0.129-0.723c0-1.195,0.973-2.164,2.174-2.164h6.611
						C70.479,91.269,73.266,88.689,73.266,88.689z"/>
				</g>
			</g>
		</g>
		<g>
			<g>
				<ellipse class="st1" cx="19.589" cy="101.481" rx="18.589" ry="18.503"/>
			</g>
			<g>
				<path class="st6" d="M26.502,105.584l6.836-6.804c-1.264-6.412-6.936-11.251-13.749-11.251c-7.741,0-14.016,6.246-14.016,13.951
					c0,2.577,0.714,4.983,1.938,7.054l10.978-10.927L26.502,105.584z"/>
			</g>
			<g>
				<path class="st2" d="M26.502,105.584l-8.013-7.976L7.511,108.535c2.436,4.122,6.926,6.897,12.078,6.897
					c7.741,0,14.016-6.246,14.016-13.951c0-0.925-0.095-1.826-0.268-2.7L26.502,105.584z"/>
			</g>
			<g>
				<ellipse class="st8" cx="18.489" cy="97.608" rx="2.28" ry="2.27"/>
			</g>
			<g>
				<ellipse class="st8" cx="26.502" cy="105.584" rx="2.28" ry="2.27"/>
			</g>
		</g>
		<g>
			<path class="st5" d="M26.913,49.618c0,4.638,3.778,8.399,8.438,8.399h14.486C53.16,64.051,59.598,68.144,67,68.144
				s13.84-4.093,17.163-10.128h10.518c6.852,0,12.406-5.529,12.406-12.349c0-1.031-0.136-2.029-0.375-2.986H30.613
				C28.382,44.191,26.913,46.73,26.913,49.618z"/>
		</g>
		<g>
			<path class="st3" d="M93.949,30.548c-1.261-8.12-8.294-14.344-16.805-14.344c-2.432,0-4.74,0.516-6.832,1.43
				C68.214,12.013,62.792,8,56.414,8c-7.762,0-14.122,5.935-14.772,13.494c-7.473,0.589-13.356,6.799-13.356,14.388
				c0,1.104,0.136,2.174,0.371,3.207c-2.806,1.364-4.745,4.224-4.745,7.543c0,4.638,3.778,8.399,8.438,8.399h14.486
				c-1.527-2.774-2.398-5.956-2.398-9.342c0-4.888,1.823-9.344,4.812-12.763v-1.691c0-1.609,1.651-3.066,4.32-4.12
				c2.669-1.055,6.357-1.707,10.43-1.707c4.073,0,7.76,0.652,10.43,1.707c2.669,1.055,4.32,2.511,4.32,4.12v1.691
				c2.989,3.419,4.812,7.875,4.812,12.763c0,3.386-0.871,6.569-2.398,9.342h10.518c6.852,0,12.406-5.529,12.406-12.349
				C104.087,36.633,99.716,31.61,93.949,30.548z"/>
		</g>
		<g>
			<g>
				<g>
					<path class="st7" d="M77.846,50.706c-2.062,2.236-7.474,3.835-13.846,3.835s-11.784-1.599-13.846-3.835
						c2.062,5.633,7.474,9.662,13.846,9.662S75.784,56.339,77.846,50.706z"/>
				</g>
				<g>
					<path class="st2" d="M77.367,39.512c-2.345,1.992-7.441,3.376-13.367,3.376s-11.022-1.384-13.367-3.376
						c-0.878-0.746-1.382-1.574-1.382-2.451v5.827c0,0.271,0.063,0.535,0.153,0.796c0.984,2.841,7.135,5.031,14.596,5.031
						s13.612-2.191,14.596-5.031c0.09-0.261,0.153-0.525,0.153-0.796V37.06C78.75,37.937,78.245,38.766,77.367,39.512z"/>
				</g>
				<g>
					<path class="st1" d="M74.46,35.34c-2.672,1.062-6.371,1.72-10.46,1.72s-7.789-0.658-10.46-1.72
						c-2.65-1.053-4.289-2.504-4.289-4.107v5.827c0,0.877,0.504,1.705,1.382,2.451c2.345,1.992,7.441,3.376,13.367,3.376
						s11.022-1.384,13.367-3.376c0.878-0.746,1.382-1.574,1.382-2.451v-5.827C78.75,32.836,77.11,34.287,74.46,35.34z"/>
				</g>
				<g>
					<path class="st8" d="M64,48.714c-7.461,0-13.612-2.191-14.596-5.031c-0.09,0.657-0.153,1.323-0.153,2.005
						c0,1.766,0.329,3.451,0.903,5.019c2.062,2.236,7.474,3.835,13.846,3.835s11.784-1.599,13.846-3.835
						c0.574-1.568,0.903-3.253,0.903-5.019c0-0.682-0.063-1.347-0.153-2.005C77.612,46.524,71.461,48.714,64,48.714z"/>
				</g>
				<g>
					<path class="st3" d="M57.35,36.429v22.355c-1.81-0.916-3.41-2.2-4.68-3.743V34.956C53.95,35.563,55.55,36.061,57.35,36.429z"/>
				</g>
				<g>
					<path class="st6" d="M74.43,27.113c-2.669-1.054-6.357-1.707-10.43-1.707c-4.073,0-7.76,0.652-10.43,1.707
						c-2.669,1.055-4.32,2.511-4.32,4.12c0,1.603,1.639,3.054,4.289,4.107c2.672,1.062,6.371,1.72,10.46,1.72
						s7.789-0.658,10.46-1.72c2.65-1.053,4.289-2.504,4.289-4.107C78.75,29.624,77.099,28.167,74.43,27.113z"/>
				</g>
			</g>
			<g>
				<path class="st6" d="M78.75,32.924v4.136v5.827v2.8c0,1.766-0.329,3.451-0.903,5.019c-2.062,5.633-7.474,9.662-13.846,9.662
					s-11.784-4.03-13.846-9.662c-0.574-1.568-0.903-3.253-0.903-5.019v-2.8V37.06v-4.136c-2.989,3.419-4.812,7.875-4.812,12.763
					c0,10.753,8.758,19.471,19.562,19.471s19.562-8.717,19.562-19.471C83.562,40.799,81.739,36.344,78.75,32.924z"/>
			</g>
		</g>
		<g>
			<g>
				<path class="st8" d="M117.535,85.37v26.687c-2.453,2.098-5.636,3.374-9.124,3.374c-3.488,0-6.672-1.276-9.124-3.374V85.37
					c-5.646,3.175-9.465,9.195-9.465,16.11c0,10.219,8.323,18.503,18.589,18.503c10.267,0,18.589-8.284,18.589-18.503
					C127,94.565,123.181,88.546,117.535,85.37z"/>
			</g>
			<g>
				<path class="st2" d="M99.286,90.904c-2.991,2.559-4.892,6.344-4.892,10.577s1.901,8.018,4.892,10.577V90.904z"/>
			</g>
			<g>
				<path class="st2" d="M117.535,90.904v21.153c-0.27,0.231-0.552,0.448-0.839,0.658c3.47-2.539,5.731-6.619,5.731-11.235
					C122.427,97.247,120.526,93.463,117.535,90.904z"/>
			</g>
			<g>
				<path class="st6" d="M115.535,82.978h-14.249c-1.105,0-2,0.891-2,1.991v27.089c2.453,2.098,5.636,3.374,9.124,3.374
					c3.488,0,6.671-1.276,9.124-3.374V84.968C117.535,83.869,116.64,82.978,115.535,82.978z"/>
			</g>
		</g>
	</g>
	<g>
		<g>
			<g>
				<path class="st5" d="M91.681,56.03H81.163c-0.354,0-0.681-0.187-0.861-0.491c-0.18-0.305-0.186-0.682-0.015-0.991
					c1.488-2.703,2.274-5.767,2.274-8.86c0-4.438-1.621-8.737-4.565-12.104c-0.159-0.183-0.247-0.416-0.247-0.658v-1.691
					c0-1.085-1.378-2.277-3.687-3.19c-2.672-1.056-6.245-1.637-10.062-1.637s-7.391,0.581-10.063,1.637
					c-2.309,0.913-3.687,2.105-3.687,3.19v1.691c0,0.242-0.088,0.476-0.247,0.658c-2.943,3.367-4.564,7.666-4.564,12.104
					c0,3.094,0.786,6.157,2.274,8.86c0.171,0.31,0.165,0.687-0.015,0.991c-0.181,0.305-0.508,0.491-0.861,0.491H32.351
					c-5.204,0-9.438-4.216-9.438-9.398c0-3.354,1.75-6.381,4.617-8.071c-0.161-0.902-0.243-1.801-0.243-2.679
					c0-7.721,5.845-14.285,13.452-15.298C41.816,12.902,48.546,7,56.414,7c6.233,0,11.913,3.711,14.444,9.335
					c2.016-0.751,4.126-1.131,6.285-1.131c8.709,0,16.034,6.059,17.674,14.506c5.992,1.428,10.271,6.775,10.271,12.972
					C105.088,50.042,99.073,56.03,91.681,56.03z M82.777,54.03h8.903c6.29,0,11.407-5.091,11.407-11.349
					c0-5.466-3.92-10.155-9.32-11.15c-0.418-0.077-0.741-0.41-0.807-0.83c-1.215-7.82-7.867-13.497-15.817-13.497
					c-2.223,0-4.387,0.453-6.432,1.346c-0.252,0.109-0.537,0.112-0.791,0.005c-0.253-0.107-0.45-0.313-0.546-0.571
					C67.369,12.61,62.161,9,56.414,9c-7.118,0-13.169,5.525-13.776,12.58c-0.042,0.487-0.43,0.873-0.918,0.911
					c-6.972,0.549-12.434,6.431-12.434,13.391c0,0.973,0.116,1.977,0.346,2.985c0.104,0.453-0.119,0.918-0.537,1.121
					c-2.58,1.254-4.183,3.8-4.183,6.644c0,4.079,3.337,7.398,7.438,7.398h12.872c-1.171-2.613-1.784-5.467-1.784-8.343
					c0-4.797,1.706-9.445,4.812-13.133v-1.321c0-1.994,1.759-3.788,4.953-5.05c2.899-1.146,6.734-1.777,10.797-1.777
					c4.062,0,7.897,0.631,10.797,1.777c3.193,1.262,4.952,3.055,4.952,5.05v1.321c3.106,3.688,4.812,8.336,4.812,13.133
					C84.562,48.563,83.948,51.417,82.777,54.03z"/>
			</g>
		</g>
		<g>
			<g>
				<g>
					<g>
						<path class="st5" d="M49.25,46.688c-0.553,0-1-0.447-1-1v-2.8c0-0.553,0.447-1,1-1s1,0.447,1,1
							c0,0.125,0.031,0.273,0.099,0.468c0.052,0.149,0.067,0.309,0.046,0.465c-0.099,0.715-0.145,1.308-0.145,1.867
							C50.25,46.24,49.803,46.688,49.25,46.688z"/>
					</g>
				</g>
				<g>
					<g>
						<path class="st5" d="M74.43,28.113c-0.123,0-0.247-0.022-0.367-0.07c-2.672-1.056-6.245-1.637-10.062-1.637
							s-7.391,0.581-10.063,1.637c-0.511,0.204-1.095-0.048-1.297-0.562c-0.048-0.12-0.07-0.244-0.07-0.366
							c-0.001-0.398,0.239-0.775,0.633-0.931c2.899-1.146,6.734-1.777,10.797-1.777c4.062,0,7.897,0.631,10.797,1.777
							c0.394,0.155,0.634,0.532,0.633,0.931c0,0.122-0.022,0.246-0.07,0.366C75.204,27.874,74.828,28.113,74.43,28.113z"/>
					</g>
				</g>
				<g>
					<g>
						<path class="st5" d="M78.75,46.688c-0.553,0-1-0.447-1-1c0-0.56-0.046-1.152-0.145-1.867
							c-0.021-0.156-0.006-0.315,0.046-0.465c0.067-0.194,0.099-0.343,0.099-0.468c0-0.553,0.447-1,1-1s1,0.447,1,1v2.8
							C79.75,46.24,79.303,46.688,78.75,46.688z"/>
					</g>
				</g>
				<g>
					<g>
						<path class="st5" d="M64,61.368c-6.584,0-12.526-4.146-14.786-10.318c-0.163-0.447,0.012-0.949,0.419-1.197
							c0.404-0.248,0.932-0.177,1.256,0.176c1.908,2.068,7.3,3.514,13.111,3.514s11.203-1.445,13.111-3.514
							c0.324-0.353,0.851-0.424,1.256-0.176c0.407,0.248,0.582,0.75,0.419,1.197C76.526,57.222,70.584,61.368,64,61.368z
							 M52.796,53.59c2.538,3.555,6.699,5.778,11.204,5.778s8.666-2.224,11.204-5.778c-2.869,1.229-6.858,1.952-11.204,1.952
							S55.665,54.818,52.796,53.59z"/>
					</g>
				</g>
				<g>
					<g>
						<path class="st5" d="M64,49.715c-7.986,0-14.377-2.346-15.541-5.704c-0.143-0.411-0.209-0.769-0.209-1.123v-5.827
							c0-0.553,0.447-1,1-1s1,0.447,1,1c0,0.54,0.347,1.108,1.03,1.689c2.244,1.906,7.236,3.138,12.72,3.138
							s10.476-1.231,12.72-3.138l0,0c0.684-0.581,1.03-1.149,1.03-1.689c0-0.553,0.447-1,1-1s1,0.447,1,1v5.827
							c0,0.354-0.066,0.712-0.21,1.124C78.377,47.369,71.986,49.715,64,49.715z M50.25,40.488v2.399
							c0,0.125,0.031,0.273,0.099,0.468c0.728,2.097,6.152,4.359,13.651,4.359s12.924-2.263,13.65-4.358
							c0.068-0.195,0.1-0.344,0.1-0.469v-2.399c-2.709,2.104-7.925,3.399-13.75,3.399S52.959,42.592,50.25,40.488z M77.367,39.512
							h0.01H77.367z"/>
					</g>
				</g>
				<g>
					<g>
						<path class="st5" d="M64,43.888c-6.021,0-11.391-1.385-14.015-3.614c-1.151-0.979-1.735-2.06-1.735-3.213v-5.827
							c0-0.553,0.447-1,1-1s1,0.447,1,1c0,1.079,1.368,2.268,3.659,3.178c2.677,1.063,6.261,1.649,10.091,1.649
							s7.414-0.586,10.091-1.649c2.291-0.91,3.659-2.099,3.659-3.178c0-0.553,0.447-1,1-1s1,0.447,1,1v5.827
							c0,1.153-0.584,2.234-1.735,3.213C75.391,42.503,70.021,43.888,64,43.888z M50.25,34.67v2.391c0,0.54,0.347,1.108,1.03,1.689
							c2.244,1.906,7.236,3.138,12.72,3.138s10.476-1.231,12.72-3.138c0.684-0.581,1.03-1.149,1.03-1.689V34.67
							c-0.768,0.595-1.746,1.134-2.921,1.601l0,0c-2.906,1.154-6.752,1.79-10.829,1.79s-7.923-0.636-10.829-1.79
							C51.996,35.804,51.018,35.265,50.25,34.67z M74.46,35.341h0.01H74.46z"/>
					</g>
				</g>
				<g>
					<g>
						<path class="st5" d="M64,55.542c-6.528,0-12.252-1.632-14.582-4.158c-0.089-0.097-0.158-0.21-0.204-0.334
							c-0.64-1.75-0.964-3.554-0.964-5.362c0-0.653,0.052-1.334,0.164-2.141c0.063-0.458,0.433-0.813,0.893-0.858
							c0.458-0.045,0.892,0.23,1.043,0.668c0.727,2.096,6.151,4.358,13.65,4.358s12.924-2.263,13.65-4.358
							c0.151-0.438,0.591-0.712,1.043-0.668c0.46,0.045,0.829,0.4,0.893,0.858c0.112,0.807,0.164,1.487,0.164,2.141
							c0,1.809-0.324,3.612-0.964,5.362c-0.046,0.124-0.115,0.237-0.204,0.334C76.252,53.91,70.528,55.542,64,55.542z
							 M51.022,50.167c2.017,1.994,7.297,3.375,12.978,3.375s10.961-1.381,12.978-3.375c0.44-1.26,0.694-2.548,0.757-3.84
							c-2.665,2.071-7.752,3.388-13.734,3.388s-11.069-1.316-13.734-3.388C50.328,47.619,50.582,48.907,51.022,50.167z"/>
					</g>
				</g>
				<g>
					<g>
						<path class="st5" d="M64,38.061c-4.077,0-7.923-0.636-10.829-1.79c-3.174-1.262-4.921-3.051-4.921-5.037
							c0-1.994,1.759-3.788,4.953-5.05c2.899-1.146,6.734-1.777,10.797-1.777c4.062,0,7.897,0.631,10.797,1.777
							c3.194,1.262,4.953,3.056,4.953,5.05c0,1.986-1.747,3.775-4.921,5.037C71.923,37.425,68.077,38.061,64,38.061z M64,26.406
							c-3.817,0-7.391,0.581-10.063,1.637c-2.309,0.913-3.687,2.105-3.687,3.19c0,1.079,1.368,2.268,3.659,3.178
							c2.677,1.063,6.261,1.649,10.091,1.649s7.414-0.586,10.091-1.649c2.291-0.91,3.659-2.099,3.659-3.178
							c0-1.085-1.379-2.277-3.688-3.19C71.391,26.987,67.817,26.406,64,26.406z"/>
					</g>
				</g>
			</g>
			<g>
				<g>
					<path class="st5" d="M64,66.158c-11.338,0-20.562-9.184-20.562-20.471c0-4.922,1.797-9.688,5.059-13.421
						c0.273-0.314,0.717-0.425,1.104-0.278c0.39,0.146,0.648,0.52,0.648,0.937v12.763c0,1.573,0.283,3.146,0.843,4.675
						c1.972,5.387,7.159,9.006,12.907,9.006s10.936-3.619,12.907-9.006c0.56-1.528,0.843-3.102,0.843-4.675V32.925
						c0-0.417,0.259-0.79,0.648-0.937c0.388-0.146,0.831-0.036,1.104,0.278c3.262,3.732,5.059,8.499,5.059,13.421
						C84.562,56.975,75.338,66.158,64,66.158z M48.25,35.941c-1.827,2.914-2.812,6.288-2.812,9.746
						c0,10.185,8.327,18.471,18.562,18.471s18.562-8.286,18.562-18.471c0-3.458-0.984-6.832-2.812-9.746v9.746
						c0,1.809-0.324,3.612-0.964,5.362C76.526,57.222,70.584,61.368,64,61.368S51.474,57.222,49.214,51.05
						c-0.64-1.75-0.964-3.554-0.964-5.362V35.941z"/>
				</g>
			</g>
		</g>
		<g>
			<g>
				<g>
					<g>
						<path class="st5" d="M62.967,116.322c-0.26,0-0.515-0.102-0.705-0.291l-4.887-4.864c-0.188-0.188-0.295-0.443-0.295-0.709
							c0-2.769-0.496-5.716-1.517-9.011c-0.004-0.012-0.033-0.114-0.036-0.126c-0.182-0.628-0.275-1.262-0.301-1.986l-0.001-0.571
							c0.196-2.018,1.793-3.465,3.719-3.465c0.799,0,1.546,0.248,2.16,0.683c0.545-0.961,1.58-1.61,2.764-1.61h6.611
							c0.431,0,0.813,0.276,0.949,0.685c0.211,0.635,0.317,1.291,0.317,1.95v6.434c0,2.979-2.163,5.566-5.032,6.017
							c-0.758,0.119-1.512,0.095-2.241-0.065v0.535l-0.51,5.49c-0.036,0.385-0.292,0.715-0.656,0.847
							C63.196,116.303,63.081,116.322,62.967,116.322z M59.076,110.039l3.093,3.078l0.308-3.285l-0.004-1.858
							c0-0.349,0.182-0.673,0.479-0.854c0.297-0.181,0.668-0.194,0.979-0.034c0.761,0.393,1.618,0.53,2.472,0.395
							c1.906-0.299,3.343-2.035,3.343-4.04v-6.434c0-0.212-0.017-0.424-0.05-0.635h-5.828c-0.647,0-1.174,0.522-1.174,1.164
							c0,0.353-0.062,0.708-0.187,1.057C62.363,99,62,99.282,61.54,99.258c-0.433-0.012-0.81-0.3-0.933-0.714
							c-0.223-0.745-0.891-1.245-1.663-1.245c-0.894,0-1.635,0.673-1.724,1.564l0.005,0.437c0.019,0.521,0.087,0.997,0.207,1.418
							l0.041,0.138C58.504,104.181,59.029,107.19,59.076,110.039z"/>
					</g>
				</g>
				<g>
					<g>
						<path class="st5" d="M63.472,108.974c-0.163,0-0.329-0.04-0.482-0.125c-0.859-0.475-1.6-1.169-2.141-2.009
							c-0.299-0.465-0.165-1.084,0.299-1.383c0.466-0.297,1.084-0.163,1.383,0.299c0.362,0.563,0.855,1.027,1.426,1.343
							c0.483,0.267,0.659,0.875,0.392,1.358C64.166,108.787,63.824,108.974,63.472,108.974z"/>
					</g>
				</g>
				<g>
					<g>
						<path class="st5" d="M64,121c-4.842,0-9.496-1.784-13.106-5.024c-0.198-0.178-0.317-0.428-0.331-0.693
							c-0.014-0.266,0.08-0.526,0.259-0.724c1.886-2.073,4.276-3.162,4.937-3.437l1.674-1.426c0.396-0.335,0.984-0.314,1.354,0.053
							l3.384,3.368l0.308-3.285c0.036-0.383,0.289-0.711,0.649-0.844c0.359-0.133,0.767-0.048,1.042,0.219l2,1.936
							c1.157,0.298,5.085,1.645,7.109,6.501c0.202,0.484-0.005,1.043-0.475,1.278C70.056,120.301,67.095,121,64,121z
							 M53.041,115.173C56.155,117.648,60.007,119,64,119c2.452,0,4.811-0.488,7.024-1.452c-2.025-3.847-5.488-4.502-5.525-4.509
							c-0.196-0.034-0.378-0.127-0.521-0.266l-0.704-0.681l-0.311,3.323c-0.036,0.385-0.292,0.715-0.656,0.847
							c-0.36,0.133-0.771,0.041-1.045-0.231l-4.234-4.215l-1.097,0.935c-0.087,0.073-0.188,0.133-0.294,0.174
							C56.614,112.933,54.733,113.66,53.041,115.173z"/>
					</g>
				</g>
				<g>
					<g>
						<path class="st5" d="M56.198,100.031c-0.553,0-1-0.447-1-1v-5.435c0-3.257,2.66-5.907,5.931-5.907h12.137
							c0.411,0,0.781,0.252,0.931,0.635c0.15,0.383,0.051,0.817-0.249,1.097c-0.037,0.035-2.468,2.37-2.468,5.95
							c0,0.553-0.447,1-1,1h-6.611c-0.647,0-1.174,0.522-1.174,1.164c0,0.353-0.062,0.708-0.187,1.057
							C62.363,99,62,99.282,61.54,99.258c-0.433-0.012-0.81-0.3-0.933-0.714c-0.223-0.745-0.891-1.245-1.663-1.245
							c-0.963,0-1.746,0.777-1.746,1.732C57.198,99.584,56.751,100.031,56.198,100.031z M58.944,95.299
							c0.799,0,1.546,0.248,2.16,0.683c0.545-0.961,1.58-1.61,2.764-1.61h5.661c0.198-1.981,0.953-3.577,1.664-4.682H61.129
							c-2.167,0-3.931,1.753-3.931,3.907v2.133C57.72,95.455,58.314,95.299,58.944,95.299z"/>
					</g>
				</g>
			</g>
			<g>
				<g>
					<path class="st5" d="M64,120.983c-10.802,0-19.59-8.749-19.59-19.503S53.198,81.978,64,81.978s19.59,8.749,19.59,19.503
						S74.802,120.983,64,120.983z M64,83.978c-9.699,0-17.59,7.852-17.59,17.503s7.891,17.503,17.59,17.503
						s17.59-7.852,17.59-17.503S73.699,83.978,64,83.978z"/>
				</g>
			</g>
		</g>
		<g>
			<g>
				<g>
					<path class="st5" d="M19.59,120.983C8.788,120.983,0,112.234,0,101.48s8.788-19.503,19.59-19.503s19.589,8.749,19.589,19.503
						S30.392,120.983,19.59,120.983z M19.59,83.978C9.891,83.978,2,91.829,2,101.48s7.891,17.503,17.59,17.503
						c9.698,0,17.589-7.852,17.589-17.503S29.288,83.978,19.59,83.978z"/>
				</g>
			</g>
			<g>
				<g>
					<g>
						<path class="st5" d="M28.115,104.979c-0.257,0-0.514-0.099-0.709-0.295c-0.39-0.391-0.388-1.024,0.004-1.414l5.228-5.204
							c0.39-0.391,1.024-0.388,1.414,0.004c0.39,0.391,0.388,1.024-0.004,1.414l-5.228,5.204
							C28.626,104.883,28.37,104.979,28.115,104.979z"/>
					</g>
				</g>
				<g>
					<g>
						<path class="st5" d="M24.89,104.979c-0.255,0-0.511-0.097-0.705-0.291l-4.788-4.767c-0.392-0.39-0.394-1.023-0.004-1.414
							s1.024-0.394,1.414-0.004l4.788,4.767c0.392,0.39,0.394,1.023,0.004,1.414C25.403,104.881,25.146,104.979,24.89,104.979z"/>
					</g>
				</g>
				<g>
					<g>
						<path class="st5" d="M7.498,109.548c-0.257,0-0.514-0.099-0.709-0.295c-0.39-0.391-0.388-1.024,0.004-1.414l9.379-9.335
							c0.39-0.391,1.024-0.388,1.414,0.004c0.39,0.391,0.388,1.024-0.004,1.414l-9.379,9.335
							C8.009,109.451,7.753,109.548,7.498,109.548z"/>
					</g>
				</g>
				<g>
					<g>
						<path class="st5" d="M19.59,116.432c-8.28,0-15.017-6.707-15.017-14.951S11.31,86.529,19.59,86.529
							c8.279,0,15.016,6.707,15.016,14.951S27.869,116.432,19.59,116.432z M19.59,88.529c-7.178,0-13.017,5.81-13.017,12.951
							s5.839,12.951,13.017,12.951c7.177,0,13.016-5.81,13.016-12.951S26.767,88.529,19.59,88.529z"/>
					</g>
				</g>
				<g>
					<g>
						<path class="st5" d="M18.489,100.876c-0.839,0-1.679-0.318-2.317-0.954l0,0c-0.621-0.617-0.963-1.438-0.963-2.312
							c0-0.875,0.342-1.697,0.963-2.315c1.278-1.272,3.358-1.271,4.635,0c0.621,0.618,0.963,1.44,0.963,2.315
							c0,0.874-0.342,1.695-0.963,2.312C20.168,100.558,19.329,100.876,18.489,100.876z M18.489,96.339
							c-0.328,0-0.657,0.124-0.907,0.373c-0.24,0.239-0.373,0.559-0.373,0.896s0.133,0.656,0.373,0.896l0,0
							c0.5,0.498,1.314,0.498,1.814,0c0.24-0.239,0.373-0.558,0.373-0.896s-0.133-0.657-0.373-0.896
							C19.146,96.463,18.817,96.339,18.489,96.339z"/>
					</g>
				</g>
				<g>
					<g>
						<path class="st5" d="M26.502,108.852c-0.839,0-1.679-0.318-2.317-0.954l0,0c-0.621-0.617-0.963-1.439-0.963-2.313
							s0.342-1.696,0.963-2.313c1.278-1.272,3.359-1.271,4.636,0c0.621,0.618,0.962,1.439,0.962,2.313s-0.341,1.695-0.962,2.313
							C28.182,108.533,27.342,108.852,26.502,108.852z M26.503,104.314c-0.329,0-0.657,0.125-0.908,0.374
							c-0.24,0.239-0.373,0.558-0.373,0.896s0.133,0.656,0.373,0.896l0,0c0.501,0.497,1.312,0.498,1.815,0
							c0.24-0.239,0.372-0.558,0.372-0.896s-0.132-0.656-0.372-0.896C27.159,104.439,26.831,104.314,26.503,104.314z"/>
					</g>
				</g>
			</g>
		</g>
		<g>
			<g>
				<g>
					<path class="st5" d="M108.41,120.983c-10.802,0-19.589-8.749-19.589-19.503c0-7.015,3.822-13.521,9.975-16.982
						c0.31-0.173,0.688-0.17,0.995,0.009c0.307,0.18,0.495,0.508,0.495,0.863v26.217c2.307,1.838,5.174,2.845,8.124,2.845
						s5.818-1.007,8.125-2.845V85.37c0-0.355,0.188-0.684,0.495-0.863c0.308-0.178,0.686-0.182,0.995-0.009
						c6.152,3.461,9.975,9.968,9.975,16.982C128,112.234,119.212,120.983,108.41,120.983z M98.286,87.181
						c-4.645,3.261-7.465,8.594-7.465,14.3c0,9.651,7.891,17.503,17.589,17.503c9.699,0,17.59-7.852,17.59-17.503
						c0-5.706-2.82-11.039-7.465-14.3v24.877c0,0.292-0.128,0.57-0.351,0.76c-2.725,2.331-6.196,3.614-9.774,3.614
						c-3.577,0-7.049-1.283-9.773-3.614c-0.223-0.189-0.351-0.468-0.351-0.76V87.181z M117.535,112.058h0.01H117.535z"/>
				</g>
			</g>
			<g>
				<g>
					<path class="st5" d="M99.286,113.058c-0.233,0-0.466-0.082-0.65-0.24c-3.331-2.851-5.241-6.982-5.241-11.337
						c0-4.354,1.91-8.485,5.241-11.336c0.297-0.254,0.716-0.311,1.068-0.148c0.354,0.163,0.582,0.518,0.582,0.908v21.153
						c0,0.391-0.228,0.745-0.582,0.908C99.57,113.027,99.428,113.058,99.286,113.058z M98.286,93.356
						c-1.858,2.287-2.892,5.146-2.892,8.124s1.033,5.838,2.892,8.125V93.356z"/>
				</g>
			</g>
			<g>
				<g>
					<path class="st5" d="M116.696,113.716c-0.308,0-0.611-0.142-0.808-0.408c-0.326-0.445-0.23-1.071,0.215-1.397
						c0.033-0.024,0.065-0.049,0.099-0.073c0.112-0.084,0.224-0.17,0.333-0.257V90.904c0-0.391,0.228-0.745,0.582-0.908
						c0.355-0.162,0.771-0.105,1.068,0.148c3.331,2.851,5.241,6.982,5.241,11.336c0,4.31-1.909,8.433-5.161,11.26
						c-0.025,0.027-0.053,0.054-0.082,0.078c-0.258,0.22-0.525,0.428-0.797,0.63c-0.033,0.024-0.066,0.049-0.099,0.073
						c-0.001,0-0.001,0-0.001,0c0,0.001-0.001,0.001-0.001,0.001C117.108,113.653,116.901,113.716,116.696,113.716z M118.535,93.356
						v16.257c1.864-2.274,2.892-5.111,2.892-8.133C121.427,98.502,120.394,95.644,118.535,93.356z"/>
				</g>
			</g>
			<g>
				<g>
					<g>
						<path class="st5" d="M108.41,116.432c-3.577,0-7.049-1.283-9.773-3.614c-0.223-0.189-0.351-0.468-0.351-0.76V84.969
							c0-1.649,1.346-2.991,3-2.991h14.249c1.654,0,3,1.342,3,2.991v27.089c0,0.292-0.128,0.57-0.351,0.76
							C115.46,115.148,111.988,116.432,108.41,116.432z M100.286,111.587c2.307,1.838,5.174,2.845,8.124,2.845
							s5.818-1.007,8.125-2.845V84.969c0-0.547-0.448-0.991-1-0.991h-14.249c-0.552,0-1,0.444-1,0.991V111.587z M117.535,112.058
							h0.01H117.535z"/>
					</g>
				</g>
				<g>
					<g>
						<g>
							<g>
								<path class="st5" d="M113.711,106.956H103.11c-0.553,0-1-0.447-1-1s0.447-1,1-1h10.601c0.553,0,1,0.447,1,1
									S114.264,106.956,113.711,106.956z"/>
							</g>
						</g>
						<g>
							<g>
								<path class="st5" d="M110.609,111.542h-7.499c-0.553,0-1-0.447-1-1s0.447-1,1-1h7.499c0.553,0,1,0.447,1,1
									S111.162,111.542,110.609,111.542z"/>
							</g>
						</g>
					</g>
					<g>
						<g>
							<g>
								<path class="st5" d="M113.711,87.959H103.11c-0.553,0-1-0.447-1-1s0.447-1,1-1h10.601c0.553,0,1,0.447,1,1
									S114.264,87.959,113.711,87.959z"/>
							</g>
						</g>
						<g>
							<g>
								<path class="st5" d="M110.609,92.545h-7.499c-0.553,0-1-0.447-1-1s0.447-1,1-1h7.499c0.553,0,1,0.447,1,1
									S111.162,92.545,110.609,92.545z"/>
							</g>
						</g>
					</g>
					<g>
						<g>
							<g>
								<path class="st5" d="M113.711,97.457H103.11c-0.553,0-1-0.447-1-1s0.447-1,1-1h10.601c0.553,0,1,0.447,1,1
									S114.264,97.457,113.711,97.457z"/>
							</g>
						</g>
						<g>
							<g>
								<path class="st5" d="M110.609,102.043h-7.499c-0.553,0-1-0.447-1-1s0.447-1,1-1h7.499c0.553,0,1,0.447,1,1
									S111.162,102.043,110.609,102.043z"/>
							</g>
						</g>
					</g>
				</g>
			</g>
		</g>
		<g>
			<g>
				<path class="st5" d="M64,83.978c-0.553,0-1-0.447-1-1V65.158c0-0.553,0.447-1,1-1s1,0.447,1,1v17.819
					C65,83.53,64.553,83.978,64,83.978z"/>
			</g>
		</g>
		<g>
			<g>
				<path class="st5" d="M108.41,83.978c-0.553,0-1-0.447-1-1V71.824H20.59v11.153c0,0.553-0.447,1-1,1s-1-0.447-1-1V70.824
					c0-0.553,0.447-1,1-1h88.82c0.553,0,1,0.447,1,1v12.153C109.41,83.53,108.963,83.978,108.41,83.978z"/>
			</g>
		</g>
	</g>
</g>
</svg>
