<?xml version="1.0" encoding="utf-8"?>
<!-- Generator: Adobe Illustrator 22.0.0, SVG Export Plug-In . SVG Version: 6.00 Build 0)  -->
<svg version="1.1" id="MARKET_RESEARCH_ICON_SET" xmlns="http://www.w3.org/2000/svg" xmlns:xlink="http://www.w3.org/1999/xlink"
	 x="0px" y="0px" viewBox="0 0 128 128" style="enable-background:new 0 0 128 128;" xml:space="preserve">
<style type="text/css">
	.st0{fill:#C2D5EC;}
	.st1{fill:#61E1FF;}
	.st2{fill:#7184AF;}
	.st3{fill:#F8F8F8;}
	.st4{fill:#3F4D81;}
	.st5{fill:#3F4D80;}
	.st6{fill:#E9EAEB;}
	.st7{fill:#F79559;}
	.st8{fill:#FFA85A;}
</style>
<g>
	<g>
		<g>
			<path class="st0" d="M128,36.248V111H0V64.935h73.97c-0.88,0.726-1.43,1.82-1.43,3.044v3.332H127v-3.332
				c0-2.198-1.79-3.979-4-3.979h-10V36.248H128z"/>
		</g>
		<g>
			<g>
				<g>
					<path class="st1" d="M113,64V36.245c0-2.197-1.791-3.979-4-3.979H89.622V64H113z"/>
				</g>
				<g>
					<path class="st1" d="M72.538,97.171H38.378V32.266H27c-2.209,0-4,1.781-4,3.979v61.921c0,2.197,1.791,3.979,4,3.979h45.538
						V97.171z"/>
				</g>
			</g>
			<g>
				<rect x="28" y="37.24" class="st2" width="10.378" height="59.931"/>
			</g>
			<g>
				<rect x="89.622" y="37.24" class="st2" width="18.378" height="26.76"/>
			</g>
			<g>
				<rect x="89.622" y="37.24" class="st4" width="5" height="26.76"/>
			</g>
		</g>
		<g>
			<g>
				<path class="st2" d="M38.378,17c-3.469,0-6.28,2.797-6.28,6.247h6.28V17z"/>
			</g>
			<g>
				<path class="st6" d="M76.538,64h13.084V23.247c0-3.45-2.812-6.247-6.28-6.247H38.378v80.171h34.161V67.979
					C72.538,65.781,74.329,64,76.538,64z"/>
			</g>
			<g>
				<path class="st3" d="M41.378,19.984h44.965c0.958,0,1.863,0.22,2.676,0.602C88.012,18.468,85.852,17,83.342,17H38.378v80.171h3
					V19.984z"/>
			</g>
		</g>
		<g>
			<path class="st3" d="M127,71.314H72.538v35.707c0,2.197,1.791,3.979,4,3.979H123c2.209,0,4-1.781,4-3.979V71.314z"/>
		</g>
		<g>
			<path class="st8" d="M123,64H76.538c-2.209,0-4,1.781-4,3.979v3.336H127v-3.336C127,65.781,125.209,64,123,64z"/>
		</g>
		<g>
			<path class="st3" d="M75.5,67.657c0-1.121,0.829-2.662,3.038-2.662H125c0.242,0,0.477,0.03,0.707,0.071
				C124.994,64.41,124.048,64,123,64H76.538c-2.209,0-4,1.781-4,3.979v3.335H75.5V67.657z"/>
		</g>
		<g>
			<ellipse class="st5" cx="77.82" cy="67.657" rx="0.93" ry="0.925"/>
		</g>
		<g>
			<ellipse class="st5" cx="81.681" cy="67.657" rx="0.93" ry="0.925"/>
		</g>
		<g>
			<ellipse class="st5" cx="85.541" cy="67.657" rx="0.93" ry="0.925"/>
		</g>
		<g>
			<path class="st4" d="M7.103,62.716l6.103-6.07H9.233V37.24c-0.694,0.021-1.403,0.035-2.131,0.035s-1.437-0.014-2.131-0.035
				v19.406l-3.972,0L7.103,62.716z"/>
		</g>
		<g>
			<path class="st8" d="M11.696,67.273l-6.103,6.07h3.972V97.4c0.694-0.021,1.403-0.035,2.131-0.035
				c0.728,0,1.437,0.014,2.131,0.035V73.344l3.972,0L11.696,67.273z"/>
		</g>
	</g>
	<g>
		<g>
			<g>
				<g>
					<path class="st5" d="M38.378,98.171H28c-0.553,0-1-0.448-1-1V37.24c0-0.552,0.447-1,1-1h10.378c0.553,0,1,0.448,1,1v59.931
						C39.378,97.723,38.931,98.171,38.378,98.171z M29,96.171h8.378V38.24H29V96.171z"/>
				</g>
			</g>
			<g>
				<g>
					<path class="st5" d="M108,65H89.622c-0.553,0-1-0.448-1-1V37.24c0-0.552,0.447-1,1-1H108c0.553,0,1,0.448,1,1V64
						C109,64.552,108.553,65,108,65z M90.622,63H107V38.24H90.622V63z"/>
				</g>
			</g>
			<g>
				<g>
					<g>
						<path class="st5" d="M113,65H89.622c-0.553,0-1-0.448-1-1V32.266c0-0.552,0.447-1,1-1H109c2.757,0,5,2.233,5,4.979V64
							C114,64.552,113.553,65,113,65z M90.622,63H112V36.245c0-1.643-1.346-2.979-3-2.979H90.622V63z"/>
					</g>
				</g>
				<g>
					<g>
						<path class="st5" d="M72.538,103.145H27c-2.757,0-5-2.233-5-4.979V36.245c0-2.746,2.243-4.979,5-4.979h11.378
							c0.553,0,1,0.448,1,1v63.905h33.16c0.553,0,1,0.448,1,1v4.974C73.538,102.697,73.091,103.145,72.538,103.145z M27,33.266
							c-1.654,0-3,1.336-3,2.979v61.921c0,1.643,1.346,2.979,3,2.979h44.538v-2.974h-33.16c-0.553,0-1-0.448-1-1V33.266H27z"/>
					</g>
				</g>
			</g>
		</g>
		<g>
			<g>
				<g>
					<path class="st5" d="M38.378,24.247h-6.28c-0.553,0-1-0.448-1-1c0-3.996,3.266-7.247,7.28-7.247c0.553,0,1,0.448,1,1v6.247
						C39.378,23.799,38.931,24.247,38.378,24.247z M33.194,22.247h4.184v-4.153C35.269,18.498,33.603,20.152,33.194,22.247z"/>
				</g>
			</g>
			<g>
				<g>
					<path class="st5" d="M72.538,98.171h-34.16c-0.553,0-1-0.448-1-1V17c0-0.552,0.447-1,1-1h44.964c4.015,0,7.28,3.251,7.28,7.247
						V64c0,0.552-0.447,1-1,1H76.538c-1.654,0-3,1.336-3,2.979v29.192C73.538,97.723,73.091,98.171,72.538,98.171z M39.378,96.171
						h32.16V67.979c0-2.746,2.243-4.979,5-4.979h12.084V23.247c0-2.893-2.369-5.247-5.28-5.247H39.378V96.171z"/>
				</g>
			</g>
		</g>
		<g>
			<g>
				<g>
					<path class="st5" d="M81.076,33.267H59.657c-0.553,0-1-0.448-1-1s0.447-1,1-1h21.419c0.553,0,1,0.448,1,1
						S81.629,33.267,81.076,33.267z"/>
				</g>
			</g>
			<g>
				<g>
					<path class="st5" d="M55.657,33.267h-1.574c-0.553,0-1-0.448-1-1s0.447-1,1-1h1.574c0.553,0,1,0.448,1,1
						S56.21,33.267,55.657,33.267z"/>
				</g>
			</g>
			<g>
				<g>
					<path class="st5" d="M81.076,45.716H46.924c-0.553,0-1-0.448-1-1s0.447-1,1-1h34.152c0.553,0,1,0.448,1,1
						S81.629,45.716,81.076,45.716z"/>
				</g>
			</g>
			<g>
				<g>
					<path class="st5" d="M81.076,58.166H46.924c-0.553,0-1-0.448-1-1s0.447-1,1-1h34.152c0.553,0,1,0.448,1,1
						S81.629,58.166,81.076,58.166z"/>
				</g>
			</g>
			<g>
				<g>
					<path class="st5" d="M66.538,70.615H46.924c-0.553,0-1-0.448-1-1s0.447-1,1-1h19.614c0.553,0,1,0.448,1,1
						S67.091,70.615,66.538,70.615z"/>
				</g>
			</g>
			<g>
				<g>
					<path class="st5" d="M66.538,83.065H46.924c-0.553,0-1-0.448-1-1s0.447-1,1-1h19.614c0.553,0,1,0.448,1,1
						S67.091,83.065,66.538,83.065z"/>
				</g>
			</g>
			<g>
				<g>
					<path class="st5" d="M46.924,33.267c-0.257,0-0.514-0.098-0.709-0.295c-0.39-0.392-0.388-1.024,0.004-1.414l2.446-2.434
						l-2.405-2.392c-0.392-0.389-0.394-1.022-0.004-1.414s1.022-0.394,1.414-0.004l3.118,3.101c0.188,0.188,0.295,0.443,0.295,0.709
						s-0.106,0.521-0.295,0.709l-3.159,3.143C47.434,33.169,47.179,33.267,46.924,33.267z"/>
				</g>
			</g>
		</g>
		<g>
			<g>
				<g>
					<path class="st5" d="M106.683,98.4c-0.257,0-0.514-0.098-0.709-0.295c-0.39-0.392-0.388-1.024,0.004-1.414l5.604-5.575
						l-5.522-5.493c-0.392-0.39-0.394-1.022-0.004-1.414s1.022-0.393,1.414-0.004l6.235,6.202c0.188,0.188,0.295,0.443,0.295,0.709
						s-0.106,0.521-0.295,0.709l-6.317,6.284C107.192,98.303,106.937,98.4,106.683,98.4z"/>
				</g>
			</g>
			<g>
				<g>
					<path class="st5" d="M92.856,98.4c-0.255,0-0.51-0.097-0.705-0.291l-6.318-6.284c-0.188-0.188-0.295-0.443-0.295-0.709
						s0.106-0.521,0.295-0.709l6.235-6.202c0.392-0.39,1.024-0.389,1.414,0.004c0.39,0.392,0.388,1.024-0.004,1.414l-5.522,5.493
						l5.605,5.575c0.392,0.39,0.394,1.022,0.004,1.414C93.37,98.302,93.113,98.4,92.856,98.4z"/>
				</g>
			</g>
			<g>
				<g>
					<path class="st5" d="M97.543,100.924c-0.082,0-0.165-0.01-0.247-0.031c-0.535-0.136-0.859-0.68-0.723-1.215l4.454-17.534
						c0.135-0.536,0.685-0.861,1.215-0.723c0.535,0.136,0.859,0.68,0.723,1.215l-4.454,17.534
						C98.396,100.623,97.989,100.924,97.543,100.924z"/>
				</g>
			</g>
		</g>
		<g>
			<g>
				<path class="st5" d="M123,112H76.538c-2.757,0-5-2.233-5-4.979V71.314c0-0.552,0.447-1,1-1H127c0.553,0,1,0.448,1,1v35.707
					C128,109.767,125.757,112,123,112z M73.538,72.314v34.707c0,1.643,1.346,2.979,3,2.979H123c1.654,0,3-1.336,3-2.979V72.314
					H73.538z"/>
			</g>
		</g>
		<g>
			<g>
				<path class="st5" d="M127,72.314H72.538c-0.553,0-1-0.448-1-1v-3.335c0-2.746,2.243-4.979,5-4.979H123c2.757,0,5,2.233,5,4.979
					v3.335C128,71.867,127.553,72.314,127,72.314z M73.538,70.314H126v-2.335c0-1.643-1.346-2.979-3-2.979H76.538
					c-1.654,0-3,1.336-3,2.979V70.314z"/>
			</g>
		</g>
		<g>
			<g>
				<path class="st5" d="M127,112H1c-0.553,0-1-0.448-1-1s0.447-1,1-1h126c0.553,0,1,0.448,1,1S127.553,112,127,112z"/>
			</g>
		</g>
		<g>
			<g>
				<path class="st5" d="M7.103,63.716c-0.255,0-0.51-0.097-0.705-0.291l-6.103-6.07c-0.287-0.286-0.374-0.716-0.22-1.09
					C0.23,55.89,0.595,55.646,1,55.646h2.972V37.24c0-0.271,0.109-0.53,0.304-0.718c0.195-0.189,0.454-0.293,0.728-0.282
					c1.367,0.042,2.832,0.042,4.199,0c0.271-0.013,0.532,0.093,0.728,0.282c0.194,0.188,0.304,0.447,0.304,0.718v18.406h2.972
					c0.405,0,0.77,0.244,0.925,0.619c0.154,0.374,0.067,0.805-0.22,1.09l-6.103,6.07C7.612,63.619,7.357,63.716,7.103,63.716z
					 M3.423,57.646l3.68,3.66l3.68-3.66H9.233c-0.553,0-1-0.448-1-1V38.265c-0.744,0.013-1.518,0.013-2.262,0v18.381
					c0,0.552-0.447,1-1,1H3.423z"/>
			</g>
		</g>
		<g>
			<g>
				<path class="st5" d="M13.827,98.4c-0.011,0-0.021,0-0.031,0c-1.367-0.042-2.832-0.042-4.199,0
					c-0.271,0.007-0.532-0.093-0.728-0.282C8.675,97.93,8.565,97.671,8.565,97.4V74.344H5.594c-0.405,0-0.77-0.244-0.925-0.619
					c-0.154-0.374-0.067-0.805,0.22-1.09l6.103-6.07c0.391-0.388,1.02-0.388,1.41,0l6.103,6.07c0.287,0.286,0.374,0.716,0.22,1.09
					c-0.155,0.375-0.52,0.619-0.925,0.619h-2.972V97.4c0,0.271-0.109,0.53-0.304,0.718C14.336,98.299,14.087,98.4,13.827,98.4z
					 M11.696,96.365c0.382,0,0.759,0.004,1.131,0.01V73.344c0-0.552,0.447-1,1-1h1.549l-3.68-3.66l-3.68,3.66h1.549
					c0.553,0,1,0.448,1,1v23.032C10.937,96.369,11.314,96.365,11.696,96.365z"/>
			</g>
		</g>
	</g>
</g>
</svg>
