<?xml version="1.0" encoding="utf-8"?>
<!-- Generator: Adobe Illustrator 22.0.0, SVG Export Plug-In . SVG Version: 6.00 Build 0)  -->
<svg version="1.1" id="MARKET_RESEARCH_ICON_SET" xmlns="http://www.w3.org/2000/svg" xmlns:xlink="http://www.w3.org/1999/xlink"
	 x="0px" y="0px" viewBox="0 0 128 128" style="enable-background:new 0 0 128 128;" xml:space="preserve">
<style type="text/css">
	.st0{fill:#C2D5EC;}
	.st1{fill:#61E1FF;}
	.st2{fill:#7184AF;}
	.st3{fill:#F8F8F8;}
	.st4{fill:#3F4D81;}
	.st5{fill:#3F4D80;}
	.st6{fill:#E9EAEB;}
	.st7{fill:#F79559;}
	.st8{fill:#FFA85A;}
</style>
<g>
	<g>
		<ellipse class="st0" cx="63.066" cy="62.371" rx="48.118" ry="47.4"/>
	</g>
	<g>
		<path class="st5" d="M97.335,44.043l-8.643,8.67c3.487,3.499,5.645,8.332,5.645,13.671c0,5.339-2.157,10.172-5.644,13.67
			l8.643,8.67c5.699-5.717,9.224-13.616,9.224-22.34C106.559,57.659,103.034,49.761,97.335,44.043z"/>
	</g>
	<g>
		<path class="st5" d="M66,84.714c-10.644,0-19.272-8.656-19.272-19.333S55.356,46.048,66,46.048c5.322,0,10.14,2.164,13.627,5.663
			l8.643-8.67c-5.699-5.718-13.573-9.254-22.27-9.254c-17.394,0-31.494,14.145-31.494,31.595c0,17.449,14.101,31.595,31.494,31.595
			c8.697,0,16.571-3.536,22.27-9.254l-8.643-8.67C76.14,82.55,71.322,84.714,66,84.714z"/>
	</g>
	<g>
		<path class="st5" d="M97.335,89.725c-0.266,0-0.521-0.106-0.708-0.294l-8.643-8.67c-0.39-0.39-0.39-1.023,0-1.413
			c3.451-3.463,5.352-8.066,5.352-12.964c0-4.898-1.9-9.502-5.353-12.964c-0.39-0.39-0.39-1.023,0-1.413l8.644-8.67
			c0.188-0.189,0.442-0.294,0.708-0.294l0,0c0.266,0,0.521,0.106,0.708,0.294c6.137,6.156,9.516,14.341,9.516,23.047
			c0,8.706-3.379,16.891-9.516,23.047C97.855,89.619,97.601,89.725,97.335,89.725z M90.088,80.037l7.235,7.259
			c5.318-5.689,8.235-13.076,8.235-20.912c0-7.837-2.917-15.224-8.235-20.913l-7.236,7.259c3.393,3.746,5.249,8.556,5.249,13.654
			C95.336,71.48,93.479,76.291,90.088,80.037z"/>
	</g>
	<g>
		<path class="st5" d="M66,97.976c-17.917,0-32.494-14.622-32.494-32.595S48.083,32.785,66,32.785c8.68,0,16.841,3.391,22.978,9.548
			c0.39,0.39,0.39,1.023,0,1.413l-8.643,8.67c-0.188,0.188-0.442,0.294-0.708,0.294l0,0c-0.266,0-0.521-0.106-0.708-0.294
			C75.468,48.955,70.88,47.048,66,47.048c-10.075,0-18.271,8.224-18.271,18.332S55.925,83.713,66,83.713
			c4.88,0,9.468-1.906,12.92-5.368c0.188-0.189,0.442-0.294,0.708-0.294l0,0c0.266,0,0.521,0.106,0.708,0.294l8.643,8.67
			c0.39,0.39,0.39,1.023,0,1.413C82.84,94.585,74.68,97.976,66,97.976z M66,34.787c-16.814,0-30.494,13.724-30.494,30.594
			S49.186,95.974,66,95.974c7.812,0,15.176-2.928,20.847-8.265l-7.236-7.259c-3.735,3.401-8.53,5.263-13.61,5.263
			c-11.178,0-20.271-9.122-20.271-20.334c0-11.212,9.094-20.333,20.271-20.333c5.08,0,9.875,1.862,13.61,5.263l7.235-7.259
			C81.176,37.714,73.812,34.787,66,34.787z"/>
	</g>
	<g>
		<path class="st1" d="M64,30.777c-17.394,0-31.494,14.145-31.494,31.595h12.223c0-10.677,8.628-19.333,19.272-19.333
			c5.322,0,10.14,2.164,13.627,5.663l8.643-8.67C80.571,34.313,72.697,30.777,64,30.777z"/>
	</g>
	<g>
		<path class="st7" d="M92.336,63.374c0,5.339-2.157,10.172-5.644,13.67l8.643,8.67c5.699-5.717,9.224-13.616,9.224-22.341
			c0-8.725-3.525-16.623-9.224-22.341l-8.643,8.67C90.179,53.202,92.336,58.036,92.336,63.374z"/>
	</g>
	<g>
		<path class="st2" d="M64,81.704c-10.644,0-19.272-8.656-19.272-19.333H32.506c0,17.449,14.101,31.595,31.494,31.595
			c8.697,0,16.571-3.536,22.27-9.254l-8.643-8.67C74.14,79.54,69.322,81.704,64,81.704z"/>
	</g>
	<g>
		<path class="st3" d="M66.7,30.891c-16.13,1.374-28.8,14.947-28.8,31.48h-5.39c0-17.445,14.1-31.59,31.49-31.59
			C64.91,30.781,65.81,30.821,66.7,30.891z"/>
	</g>
	<g>
		<path class="st3" d="M66.7,93.851c-0.89,0.07-1.79,0.11-2.7,0.11c-17.39,0-31.49-14.145-31.49-31.59h5.39
			C37.9,78.904,50.57,92.477,66.7,93.851z"/>
	</g>
	<g>
		<ellipse class="st5" cx="91.336" cy="62.371" rx="3.248" ry="3.258"/>
	</g>
	<g>
		<ellipse class="st5" cx="64" cy="62.371" rx="3.248" ry="3.258"/>
	</g>
	<g>
		<ellipse class="st5" cx="46.532" cy="36.079" rx="3.248" ry="3.258"/>
	</g>
	<g>
		<ellipse class="st5" cx="29.262" cy="22.796" rx="3.248" ry="3.258"/>
	</g>
	<g>
		<ellipse class="st5" cx="64" cy="93.966" rx="3.248" ry="3.258"/>
	</g>
	<g>
		<ellipse class="st5" cx="85.691" cy="109.771" rx="3.248" ry="3.258"/>
	</g>
	<g>
		<path class="st6" d="M12.823,29.876v1.978l2.308,4.39l2.308-4.39v-1.978c-0.704,0.322-1.484,0.507-2.308,0.507
			C14.307,30.383,13.527,30.198,12.823,29.876z"/>
	</g>
	<g>
		<path class="st8" d="M24.884,39.205c0-4.28-5.138-6.208-5.138-6.208l0,0l-2.306-1.143l-2.308,4.39l0.001,0.001l-0.001,0.001
			l-0.001-0.001l0.001-0.001l-2.308-4.39l-2.307,1.143l0,0c0,0-5.138,1.928-5.138,6.208c0,0.772-0.054,1.665-0.103,2.612h19.711
			C24.938,40.87,24.884,39.977,24.884,39.205z"/>
	</g>
	<g>
		<path class="st5" d="M11.165,21.118c0-1.053,0.851-1.907,1.901-1.907h4.13c1.05,0,1.901,0.854,1.901,1.907
			c0,3.048,1.843,1.013,1.843,1.013v-2.776c0-4.325-2.342-3.147-2.342-3.147s-0.475-1.178-1.97-1.178h-2.996
			c-2.381,0-4.311,1.936-4.311,4.325v2.777C9.322,22.131,11.165,24.165,11.165,21.118z"/>
	</g>
	<g>
		<path class="st3" d="M21.119,22.117c-0.061,0-0.121,0.006-0.179,0.014c0,0-1.843,2.034-1.843-1.013
			c0-1.053-0.851-1.907-1.901-1.907h-4.13c-1.05,0-1.901,0.854-1.901,1.907c0,3.048-1.843,1.013-1.843,1.013
			c-0.058-0.008-0.118-0.014-0.179-0.014c0,0-1.086,0-1.086,1.095v1.099c0,0.897,0.487,1.711,1.624,1.883
			c0.024,0.004,0.043,0.005,0.065,0.007c0.623,2.403,2.794,4.18,5.385,4.18s4.762-1.777,5.385-4.18
			c0.022-0.003,0.042-0.004,0.065-0.007c1.137-0.172,1.624-0.986,1.624-1.883v-1.099C22.205,22.117,21.119,22.117,21.119,22.117z"/>
	</g>
	<g>
		<path class="st6" d="M108.859,97.831v1.978l2.308,6.084l2.308-6.084v-1.978c-0.704,0.322-1.484,0.507-2.308,0.507
			C110.343,98.337,109.563,98.153,108.859,97.831z"/>
	</g>
	<g>
		<path class="st1" d="M120.92,107.159c0-4.28-5.138-6.208-5.138-6.208l0,0l-2.306-1.143l-2.308,6.084l0,0l-2.308-6.084
			l-2.307,1.143l0,0c0,0-5.138,1.928-5.138,6.208c0,0.772-0.054,1.665-0.103,2.612h19.711
			C120.974,108.824,120.92,107.931,120.92,107.159z"/>
	</g>
	<g>
		<path class="st3" d="M116.737,92.12c-3.64,0-3.506-4.955-3.506-4.955s-2.065,4.955-7.636,4.955l0,0v0.628
			c0,3.086,2.494,5.588,5.571,5.588c3.077,0,5.571-2.502,5.571-5.588L116.737,92.12L116.737,92.12L116.737,92.12z"/>
	</g>
	<g>
		<path class="st6" d="M117.155,90.072c-0.061,0-0.121,0.006-0.179,0.014v0.305h-0.009c0,0.599-0.075,1.18-0.23,1.729h0v0.628
			c0,0.487-0.069,0.958-0.186,1.408c0.022-0.003,0.042-0.004,0.065-0.007c1.137-0.172,1.624-0.986,1.624-1.883v-1.099
			C118.241,90.072,117.155,90.072,117.155,90.072z"/>
	</g>
	<g>
		<path class="st5" d="M104.092,102.366L104.092,102.366c1.247-0.958,2.46-1.415,2.46-1.415l0,0l2.307-1.143v-1.978
			c0.003,0.001,0.006,0.002,0.009,0.004c-1.513-0.689-2.661-2.036-3.087-3.678v0c-0.022-0.003-0.042-0.004-0.065-0.007
			c-1.137-0.172-1.624-0.986-1.624-1.883v-1.099c0-1.095,1.086-1.095,1.086-1.095c0.061,0,0.121,0.006,0.179,0.014v0.305h0.009
			c0,0.599,0.075,1.18,0.23,1.729c5.571,0,7.636-4.955,7.636-4.955s-0.134,4.955,3.506,4.955l0,0v0
			c0.155-0.549,0.23-1.13,0.23-1.729h0.009v-0.305c0.058-0.008,0.118-0.014,0.179-0.014c0,0,1.086,0,1.086,1.095v1.099
			c0,0.897-0.487,1.711-1.624,1.883c-0.024,0.004-0.043,0.005-0.065,0.007v0c-0.426,1.644-1.576,2.991-3.091,3.68
			c0.005-0.002,0.01-0.004,0.015-0.006v1.978l2.306,1.143l0,0c0,0,1.212,0.456,2.459,1.415c-3.974-3.986,6.282-9.273-2.432-18.014v0
			c-0.787-0.841-1.905-1.367-3.145-1.367h-2.995c-1.241,0-2.359,0.526-3.145,1.367l0,0C97.81,93.093,108.066,98.38,104.092,102.366z
			"/>
	</g>
	<g>
		<path class="st8" d="M116.129,15.03c-3.371,0-4.944,4.09-4.944,4.09s-1.573-4.09-4.944-4.09c-2.857,0-4.559,2.158-4.559,4.958
			c0,7.216,9.503,12.756,9.503,12.756s9.503-5.54,9.503-12.756C120.688,17.188,118.986,15.03,116.129,15.03z"/>
	</g>
	<g>
		<ellipse class="st8" cx="15.131" cy="100.238" rx="9.503" ry="9.533"/>
	</g>
	<g>
		<path class="st5" d="M71.017,110.772H1c-0.553,0-1-0.448-1-1.001s0.447-1.001,1-1.001h70.017c0.553,0,1,0.448,1,1.001
			S71.569,110.772,71.017,110.772z"/>
	</g>
	<g>
		<path class="st5" d="M127,110.772h-25.688c-0.553,0-1-0.448-1-1.001s0.447-1.001,1-1.001H127c0.553,0,1,0.448,1,1.001
			S127.553,110.772,127,110.772z"/>
	</g>
	<g>
		<path class="st5" d="M44.729,63.372H32.506c-0.553,0-1-0.448-1-1.001c0-17.973,14.577-32.596,32.494-32.596
			c8.679,0,16.84,3.391,22.979,9.548c0.39,0.39,0.39,1.023,0,1.413l-8.644,8.67c-0.188,0.189-0.442,0.294-0.708,0.294l0,0
			c-0.266,0-0.521-0.106-0.708-0.294C73.468,45.945,68.88,44.039,64,44.039c-10.075,0-18.271,8.224-18.271,18.333
			C45.729,62.924,45.281,63.372,44.729,63.372z M33.521,61.371h10.231C44.274,50.621,53.156,42.037,64,42.037
			c5.08,0,9.875,1.862,13.61,5.263l7.236-7.259C79.175,34.704,71.811,31.777,64,31.777C47.519,31.777,34.05,44.962,33.521,61.371z"
			/>
	</g>
	<g>
		<path class="st5" d="M95.335,86.715c-0.266,0-0.521-0.106-0.708-0.294l-8.643-8.67c-0.39-0.39-0.39-1.023,0-1.413
			c3.451-3.463,5.352-8.066,5.352-12.964c0-4.898-1.9-9.502-5.353-12.964c-0.39-0.39-0.39-1.023,0-1.413l8.644-8.67
			c0.188-0.189,0.442-0.294,0.708-0.294l0,0c0.266,0,0.521,0.106,0.708,0.294c6.137,6.156,9.516,14.341,9.516,23.047
			c0,8.706-3.379,16.891-9.516,23.047C95.855,86.609,95.601,86.715,95.335,86.715z M88.088,77.028l7.235,7.259
			c5.318-5.689,8.235-13.076,8.235-20.912c0-7.837-2.917-15.224-8.235-20.913l-7.236,7.259c3.393,3.746,5.249,8.556,5.249,13.654
			C93.336,68.471,91.479,73.281,88.088,77.028z"/>
	</g>
	<g>
		<path class="st5" d="M64,94.967c-17.917,0-32.494-14.622-32.494-32.595c0-0.553,0.447-1.001,1-1.001h12.223
			c0.553,0,1,0.448,1,1.001c0,10.109,8.196,18.332,18.271,18.332c4.88,0,9.468-1.906,12.92-5.368
			c0.188-0.189,0.442-0.294,0.708-0.294l0,0c0.266,0,0.521,0.106,0.708,0.294l8.643,8.67c0.39,0.39,0.39,1.023,0,1.413
			C80.84,91.576,72.679,94.967,64,94.967z M33.521,63.372C34.05,79.781,47.519,92.965,64,92.965c7.811,0,15.175-2.928,20.847-8.265
			l-7.236-7.259c-3.735,3.401-8.53,5.263-13.61,5.263c-10.844,0-19.726-8.584-20.247-19.333H33.521z"/>
	</g>
	<g>
		<path class="st5" d="M91.336,63.371H64c-0.553,0-1-0.448-1-1.001c0-0.553,0.447-1.001,1-1.001h27.336c0.553,0,1,0.448,1,1.001
			C92.336,62.923,91.889,63.371,91.336,63.371z"/>
	</g>
	<g>
		<path class="st5" d="M46.533,37.079c-0.327,0-0.647-0.16-0.839-0.455l-8.339-12.828h-8.094c-0.553,0-1-0.448-1-1.001
			s0.447-1.001,1-1.001h8.636c0.338,0,0.653,0.171,0.838,0.455l8.635,13.283c0.302,0.463,0.17,1.083-0.293,1.385
			C46.909,37.027,46.72,37.079,46.533,37.079z"/>
	</g>
	<g>
		<path class="st5" d="M85.691,110.772c-0.113,0-0.229-0.02-0.342-0.061l-21.69-7.903c-0.396-0.144-0.658-0.519-0.658-0.94
			L63,93.966c0-0.553,0.447-1.001,1-1.001c0.552,0,1,0.448,1,1.001l0.001,7.202l21.032,7.663c0.52,0.189,0.787,0.763,0.598,1.283
			C86.483,110.52,86.1,110.772,85.691,110.772z"/>
	</g>
	<g>
		<path class="st5" d="M15.131,37.245L15.131,37.245c-0.371,0-0.712-0.206-0.885-0.535l-2.308-4.39
			c-0.076-0.144-0.115-0.303-0.115-0.466v-1.978c0-0.341,0.173-0.658,0.46-0.842c0.286-0.185,0.647-0.21,0.956-0.068
			c1.206,0.553,2.58,0.552,3.784,0c0.309-0.142,0.67-0.116,0.956,0.068c0.287,0.184,0.46,0.501,0.46,0.842v1.978
			c0,0.162-0.039,0.322-0.115,0.466l-2.309,4.39C15.843,37.039,15.502,37.245,15.131,37.245z M13.823,31.607l1.308,2.488
			l1.309-2.488v-0.356c-0.857,0.176-1.759,0.176-2.616,0V31.607z"/>
	</g>
	<g>
		<path class="st5" d="M24.986,42.818H5.275c-0.274,0-0.536-0.112-0.725-0.311c-0.188-0.198-0.288-0.466-0.274-0.74l0.024-0.472
			c0.04-0.754,0.077-1.462,0.077-2.09c0-4.723,5.123-6.884,5.735-7.125l2.267-1.122c0.488-0.243,1.075-0.049,1.328,0.43l1.424,2.707
			l1.423-2.707c0.253-0.479,0.841-0.673,1.328-0.431l2.267,1.122c0.612,0.241,5.734,2.401,5.734,7.125
			c0,0.627,0.037,1.336,0.077,2.09l0.024,0.472c0.014,0.274-0.086,0.541-0.274,0.74C25.522,42.705,25.261,42.818,24.986,42.818z
			 M6.328,40.817h17.605c-0.028-0.575-0.05-1.117-0.05-1.612c0-3.546-4.444-5.254-4.489-5.271c-0.031-0.012-0.062-0.025-0.092-0.041
			l-1.433-0.709l-1.854,3.526c-0.048,0.091-0.108,0.173-0.181,0.245c0,0.001,0,0.002-0.002,0.002v0
			c-0.002,0.001-0.003,0.002-0.005,0.004c0,0,0,0,0,0c-0.002,0-0.002-0.001-0.002,0.002c-0.002,0-0.002-0.001-0.002,0.002
			c-0.001,0.002-0.002,0.003-0.004,0.003v0c-0.001,0.001,0.001-0.001-0.002,0.002c-0.001,0-0.004,0-0.002,0.001
			c-0.002,0.001-0.003,0.003-0.005,0.004c0,0,0,0,0,0c-0.001,0-0.001,0.001-0.002,0.001l0,0c-0.057,0.052-0.118,0.098-0.187,0.136
			l0,0c0,0-0.001,0.001-0.002,0.001l0,0c-0.002,0.001-0.004,0.002-0.006,0.003l0,0c-0.001,0-0.002,0-0.002,0.001l-0.001,0
			c0,0-0.001,0-0.002,0.001c0.001,0-0.002,0.001-0.004,0.002l0,0c-0.001,0,0.007,0.001-0.003,0.001c0,0-0.001,0-0.001,0.001
			l-0.001,0c-0.001,0-0.001,0-0.002,0.001l-0.001,0c-0.001,0-0.003,0-0.003,0.002c-0.001,0-0.001,0-0.002,0l-0.001,0.001
			c0,0-0.001,0.001-0.003,0.001c0,0.001-0.001,0.001-0.003,0.002c-0.002,0-0.001,0-0.003,0.001c0,0,0,0-0.001,0
			c0,0-0.002,0.002-0.002,0.001c-0.001,0-0.002,0.001-0.003,0.001c-0.494,0.247-1.097,0.047-1.343-0.447
			c-0.004-0.008-0.008-0.016-0.012-0.024l-1.832-3.485l-1.432,0.71c-0.031,0.016-0.063,0.029-0.096,0.041
			c-0.107,0.042-4.487,1.768-4.487,5.27C6.378,39.699,6.356,40.242,6.328,40.817z"/>
	</g>
	<g>
		<path class="st5" d="M15.131,31.382c-2.779,0-5.233-1.753-6.168-4.333c-1.171-0.393-1.906-1.418-1.906-2.738v-1.099
			c0-0.989,0.567-1.647,1.266-1.933v-1.924c0-2.936,2.382-5.325,5.311-5.325h2.996c1.144,0,1.932,0.506,2.409,1.042
			c0.411-0.04,0.922,0.013,1.425,0.323c0.994,0.613,1.478,1.909,1.478,3.96v1.924c0.697,0.286,1.265,0.944,1.265,1.933v1.099
			c0,1.316-0.73,2.338-1.904,2.736C20.365,29.628,17.91,31.382,15.131,31.382z M9.173,23.122c-0.054,0-0.111,0.017-0.131,0.03
			l0.015,1.159c0,0.696,0.441,0.844,0.774,0.894c0.396,0.06,0.782,0.358,0.883,0.746c0.523,2.02,2.34,3.43,4.417,3.43
			s3.894-1.411,4.418-3.431c0.104-0.401,0.443-0.696,0.854-0.743c0.36-0.053,0.802-0.2,0.802-0.897v-1.099
			c-0.008-0.075-0.083-0.094-0.086-0.094l-0.036,0.004c-0.287,0.042-0.577-0.043-0.797-0.234c-0.22-0.19-0.346-0.466-0.346-0.756
			v-2.776c0-1.878-0.474-2.223-0.527-2.257c-0.132-0.083-0.363,0.002-0.365,0.004c-0.25,0.125-0.542,0.141-0.802,0.042
			c-0.262-0.099-0.47-0.302-0.575-0.561c-0.035-0.074-0.295-0.553-1.042-0.553h-2.996c-1.825,0-3.311,1.491-3.311,3.324v2.777
			c0,0.29-0.126,0.565-0.345,0.755c-0.219,0.19-0.51,0.273-0.796,0.235C9.179,23.122,9.176,23.122,9.173,23.122z"/>
	</g>
	<g>
		<path class="st5" d="M19.825,23.8c-0.18,0-0.364-0.031-0.552-0.104c-1.177-0.454-1.177-2.053-1.177-2.578
			c0-0.5-0.404-0.906-0.9-0.906h-4.13c-0.497,0-0.901,0.406-0.901,0.906c0,0.525,0,2.124-1.177,2.578
			c-1.1,0.426-2.119-0.576-2.407-0.892c-0.37-0.409-0.34-1.043,0.069-1.413c0.408-0.37,1.04-0.341,1.411,0.067
			c0.025,0.028,0.056,0.058,0.087,0.086c0.01-0.114,0.017-0.255,0.017-0.426c0-1.603,1.302-2.907,2.901-2.907h4.13
			c1.6,0,2.9,1.304,2.9,2.907c0,0.172,0.007,0.313,0.018,0.428c0.032-0.03,0.062-0.06,0.086-0.086c0.37-0.41,1.003-0.44,1.412-0.069
			s0.439,1.004,0.068,1.413C21.443,23.066,20.699,23.8,19.825,23.8z M10.06,21.987L10.06,21.987L10.06,21.987z M20.202,21.986
			L20.202,21.986L20.202,21.986z"/>
	</g>
	<g>
		<path class="st5" d="M111.167,106.893L111.167,106.893c-0.415,0-0.787-0.257-0.935-0.645l-2.308-6.084
			c-0.043-0.113-0.065-0.234-0.065-0.355v-1.978c0-0.341,0.173-0.658,0.46-0.842c0.287-0.184,0.648-0.208,0.957-0.067
			c1.201,0.552,2.578,0.552,3.783,0c0.31-0.143,0.67-0.117,0.956,0.068c0.287,0.184,0.46,0.501,0.46,0.842v1.978
			c0,0.121-0.022,0.242-0.065,0.355l-2.309,6.084C111.954,106.636,111.582,106.893,111.167,106.893z M109.859,99.625l1.308,3.448
			l1.309-3.448v-0.419c-0.857,0.176-1.759,0.176-2.616,0V99.625z"/>
	</g>
	<g>
		<path class="st5" d="M121.022,110.772h-19.711c-0.274,0-0.536-0.112-0.725-0.311s-0.288-0.466-0.274-0.74l0.024-0.471
			c0.04-0.753,0.077-1.463,0.077-2.09c0-4.723,5.122-6.884,5.734-7.125l2.268-1.123c0.252-0.126,0.547-0.138,0.809-0.035
			c0.263,0.103,0.47,0.312,0.569,0.576l1.373,3.62l1.374-3.62c0.1-0.264,0.307-0.473,0.569-0.576
			c0.262-0.104,0.557-0.091,0.81,0.035l2.265,1.123c0.613,0.241,5.735,2.401,5.735,7.124c0,0.647,0.039,1.382,0.08,2.162
			l0.021,0.398c0.014,0.274-0.085,0.541-0.274,0.74C121.559,110.659,121.297,110.772,121.022,110.772z M102.364,108.771h17.605
			c-0.028-0.575-0.05-1.117-0.05-1.611c0-3.524-4.447-5.255-4.492-5.272l-1.408-0.695l-1.918,5.055
			c-0.147,0.388-0.52,0.645-0.935,0.645l0,0c-0.415,0-0.787-0.257-0.935-0.645l-1.917-5.053l-1.319,0.654
			c-0.032,0.016-0.063,0.029-0.097,0.042c-0.121,0.047-4.485,1.774-4.485,5.269C102.414,107.654,102.393,108.196,102.364,108.771z"
			/>
	</g>
	<g>
		<path class="st5" d="M111.167,99.337c-3.623,0-6.571-2.956-6.571-6.589V92.12c0-0.553,0.447-1.001,1-1.001
			c4.849,0,6.694-4.296,6.713-4.339c0.186-0.445,0.669-0.691,1.132-0.594c0.472,0.101,0.804,0.524,0.791,1.005
			c-0.015,0.622,0.145,2.443,1.034,3.353c0.377,0.386,0.859,0.575,1.472,0.575c0.553,0,1,0.448,1,1.001v0.628
			C117.737,96.381,114.79,99.337,111.167,99.337z M106.606,93.071c0.166,2.379,2.148,4.264,4.561,4.264
			c2.433,0,4.428-1.919,4.563-4.327c-0.732-0.171-1.378-0.533-1.902-1.071c-0.578-0.595-0.948-1.331-1.185-2.048
			C111.461,91.262,109.522,92.781,106.606,93.071z"/>
	</g>
	<g>
		<path class="st5" d="M116.612,95.15c-0.287,0-0.58-0.116-0.771-0.327c-0.226-0.25-0.343-0.593-0.258-0.918
			c0.102-0.392,0.153-0.781,0.153-1.157V92.12c0-0.092,0.013-0.184,0.038-0.273c0.127-0.449,0.191-0.94,0.191-1.456
			c0-0.045,0.003-0.09,0.009-0.133v-0.172c0-0.498,0.366-0.921,0.859-0.991c1.083-0.15,2.406,0.565,2.406,2.072v1.099
			c0,1.517-0.971,2.645-2.474,2.873C116.716,95.146,116.664,95.15,116.612,95.15z"/>
	</g>
	<g>
		<path class="st5" d="M118.24,103.367c-0.214,0-0.428-0.068-0.609-0.207c-1.102-0.847-2.192-1.268-2.203-1.272l-2.396-1.182
			c-0.34-0.169-0.556-0.516-0.556-0.897v-1.8c-0.074-0.425,0.134-0.865,0.538-1.067c0.011-0.005,0.021-0.011,0.033-0.016l0,0
			c1.264-0.575,2.188-1.676,2.537-3.021c0.104-0.403,0.446-0.699,0.859-0.744c0.066-0.01,0.136-0.022,0.205-0.042
			c-1.113-0.021-2.086-0.428-2.82-1.182c-0.578-0.594-0.948-1.33-1.185-2.047c-1.304,1.513-3.527,3.204-6.965,3.23
			c0.063,0.018,0.127,0.031,0.188,0.04c0.396,0.06,0.782,0.357,0.883,0.745c0.349,1.344,1.271,2.444,2.533,3.019l0,0
			c0.009,0.004,0.017,0.008,0.024,0.012c0.378,0.19,0.588,0.588,0.553,0.987v1.886c0,0.381-0.216,0.728-0.557,0.897l-2.308,1.143
			c-0.101,0.043-1.19,0.464-2.293,1.311c-0.418,0.321-1.013,0.263-1.361-0.133c-0.348-0.396-0.329-0.994,0.043-1.367
			c1.092-1.096,0.712-2.242-0.18-4.525c-1.288-3.295-3.051-7.809,2.611-13.49c0.977-1.047,2.39-1.661,3.854-1.661h2.995
			c1.463,0,2.876,0.614,3.875,1.685c5.641,5.657,3.877,10.171,2.589,13.467c-0.892,2.283-1.271,3.428-0.18,4.524
			c0.372,0.373,0.391,0.971,0.043,1.367C118.795,103.251,118.519,103.367,118.24,103.367z M104.457,94.757
			c0.187,0.565,0.4,1.113,0.609,1.649c0.477,1.218,0.961,2.459,0.983,3.669c0.087-0.036,0.14-0.056,0.149-0.06l1.66-0.826v-0.751
			c-1.33-0.776-2.338-1.986-2.862-3.436C104.805,94.936,104.624,94.855,104.457,94.757z M116.187,100.035
			c0.024,0.01,0.057,0.023,0.096,0.04c0.022-1.209,0.508-2.45,0.983-3.668c0.209-0.536,0.424-1.084,0.609-1.649
			c-0.167,0.097-0.347,0.179-0.539,0.243c-0.523,1.45-1.531,2.659-2.86,3.435v0.751L116.187,100.035z M106.357,90.259
			c0.006,0.043,0.009,0.087,0.009,0.132c0,0.235,0.014,0.464,0.04,0.687c4.245-0.441,5.885-4.256,5.902-4.297
			c0.186-0.445,0.669-0.691,1.132-0.594c0.472,0.101,0.804,0.524,0.791,1.005c-0.015,0.622,0.145,2.443,1.034,3.353
			c0.194,0.2,0.417,0.346,0.672,0.442c0.02-0.194,0.029-0.393,0.029-0.596c0-0.045,0.003-0.09,0.009-0.133v-0.172
			c0-0.498,0.366-0.921,0.859-0.991c0.367-0.052,0.769-0.012,1.132,0.136c-0.475-1.283-1.363-2.664-2.866-4.172
			c-0.654-0.7-1.512-1.073-2.437-1.073h-2.995c-0.925,0-1.783,0.373-2.415,1.049c-1.513,1.518-2.406,2.907-2.884,4.194
			c0.364-0.147,0.771-0.186,1.13-0.134c0.492,0.071,0.857,0.493,0.857,0.99V90.259z"/>
	</g>
	<g>
		<path class="st5" d="M111.166,77.966c-0.553,0-1-0.448-1-1.001v-2.001c0-0.553,0.447-1.001,1-1.001s1,0.448,1,1.001v2.001
			C112.166,77.518,111.719,77.966,111.166,77.966z M111.166,71.963c-0.553,0-1-0.448-1-1.001v-2.001c0-0.553,0.447-1.001,1-1.001
			s1,0.448,1,1.001v2.001C112.166,71.515,111.719,71.963,111.166,71.963z M111.166,65.959c-0.553,0-1-0.448-1-1.001v-2.001
			c0-0.553,0.447-1.001,1-1.001s1,0.448,1,1.001v2.001C112.166,65.511,111.719,65.959,111.166,65.959z M111.166,59.955
			c-0.553,0-1-0.448-1-1.001v-2.001c0-0.553,0.447-1.001,1-1.001s1,0.448,1,1.001v2.001
			C112.166,59.507,111.719,59.955,111.166,59.955z M111.166,53.952c-0.553,0-1-0.448-1-1.001V50.95c0-0.553,0.447-1.001,1-1.001
			s1,0.448,1,1.001v2.001C112.166,53.504,111.719,53.952,111.166,53.952z M111.166,47.948c-0.553,0-1-0.448-1-1.001v-2.001
			c0-0.553,0.447-1.001,1-1.001s1,0.448,1,1.001v2.001C112.166,47.5,111.719,47.948,111.166,47.948z M111.166,41.945
			c-0.553,0-1-0.448-1-1.001v-2.001c0-0.553,0.447-1.001,1-1.001s1,0.448,1,1.001v2.001
			C112.166,41.497,111.719,41.945,111.166,41.945z"/>
	</g>
	<g>
		<path class="st5" d="M14.95,87.719c-0.553,0-1-0.448-1-1.001v-2.001c0-0.553,0.447-1.001,1-1.001s1,0.448,1,1.001v2.001
			C15.95,87.271,15.503,87.719,14.95,87.719z M14.95,81.715c-0.553,0-1-0.448-1-1.001v-2.001c0-0.553,0.447-1.001,1-1.001
			s1,0.448,1,1.001v2.001C15.95,81.267,15.503,81.715,14.95,81.715z M14.95,75.712c-0.553,0-1-0.448-1-1.001V72.71
			c0-0.553,0.447-1.001,1-1.001s1,0.448,1,1.001v2.001C15.95,75.264,15.503,75.712,14.95,75.712z M14.95,69.708
			c-0.553,0-1-0.448-1-1.001v-2.001c0-0.553,0.447-1.001,1-1.001s1,0.448,1,1.001v2.001C15.95,69.26,15.503,69.708,14.95,69.708z
			 M14.95,63.705c-0.553,0-1-0.448-1-1.001v-2.001c0-0.553,0.447-1.001,1-1.001s1,0.448,1,1.001v2.001
			C15.95,63.257,15.503,63.705,14.95,63.705z M14.95,57.701c-0.553,0-1-0.448-1-1.001v-2.001c0-0.553,0.447-1.001,1-1.001
			s1,0.448,1,1.001v2.001C15.95,57.253,15.503,57.701,14.95,57.701z M14.95,51.698c-0.553,0-1-0.448-1-1.001v-2.001
			c0-0.553,0.447-1.001,1-1.001s1,0.448,1,1.001v2.001C15.95,51.25,15.503,51.698,14.95,51.698z"/>
	</g>
	<g>
		<path class="st5" d="M111.185,33.744c-0.174,0-0.348-0.045-0.503-0.136c-0.409-0.238-10-5.918-10-13.62
			c0-3.508,2.286-5.959,5.559-5.959c2.418,0,4.029,1.648,4.944,3.001c0.915-1.352,2.526-3.001,4.944-3.001
			c3.272,0,5.559,2.45,5.559,5.959c0,7.703-9.591,13.382-10,13.62C111.532,33.699,111.358,33.744,111.185,33.744z M106.24,16.031
			c-2.162,0-3.559,1.553-3.559,3.957c0,5.65,6.604,10.343,8.502,11.575c1.897-1.234,8.504-5.937,8.504-11.575
			c0-2.404-1.396-3.957-3.559-3.957c-2.634,0-3.998,3.417-4.012,3.451c-0.15,0.384-0.521,0.638-0.932,0.638
			c-0.001,0-0.002,0-0.003,0c-0.413-0.001-0.783-0.255-0.932-0.64C110.238,19.448,108.874,16.031,106.24,16.031z"/>
	</g>
	<g>
		<path class="st5" d="M15.131,110.772c-5.791,0-10.503-4.725-10.503-10.534c0-5.809,4.712-10.534,10.503-10.534
			s10.503,4.725,10.503,10.534C25.634,106.046,20.922,110.772,15.131,110.772z M15.131,91.705c-4.688,0-8.503,3.828-8.503,8.533
			s3.814,8.532,8.503,8.532s8.503-3.827,8.503-8.532S19.819,91.705,15.131,91.705z"/>
	</g>
	<g>
		<path class="st5" d="M15.757,106.513H14.5c-1.768,0-3.205-1.443-3.205-3.218c0-0.553,0.447-1.001,1-1.001s1,0.448,1,1.001
			c0,0.671,0.541,1.217,1.205,1.217h1.257c0.668,0,1.211-0.546,1.211-1.217v-0.773c0-0.668-0.543-1.212-1.211-1.212H14.5
			c-1.768,0-3.205-1.441-3.205-3.213v-0.778c0-1.771,1.438-3.212,3.205-3.212h1.257c1.771,0,3.211,1.441,3.211,3.212
			c0,0.553-0.447,1.001-1,1.001s-1-0.448-1-1.001c0-0.668-0.543-1.211-1.211-1.211H14.5c-0.664,0-1.205,0.543-1.205,1.211v0.778
			c0,0.668,0.541,1.212,1.205,1.212h1.257c1.771,0,3.211,1.441,3.211,3.213v0.773C18.968,105.07,17.527,106.513,15.757,106.513z"/>
	</g>
	<g>
		<path class="st5" d="M15.131,96.108c-0.553,0-1-0.448-1-1.001v-1.611c0-0.553,0.447-1.001,1-1.001s1,0.448,1,1.001v1.611
			C16.131,95.66,15.684,96.108,15.131,96.108z"/>
	</g>
	<g>
		<path class="st5" d="M15.131,107.98c-0.553,0-1-0.448-1-1.001v-1.467c0-0.553,0.447-1.001,1-1.001s1,0.448,1,1.001v1.467
			C16.131,107.532,15.684,107.98,15.131,107.98z"/>
	</g>
</g>
</svg>
