<?xml version="1.0" encoding="utf-8"?>
<!-- Generator: Adobe Illustrator 22.0.0, SVG Export Plug-In . SVG Version: 6.00 Build 0)  -->
<svg version="1.1" id="MARKET_RESEARCH_ICON_SET" xmlns="http://www.w3.org/2000/svg" xmlns:xlink="http://www.w3.org/1999/xlink"
	 x="0px" y="0px" viewBox="0 0 128 128" style="enable-background:new 0 0 128 128;" xml:space="preserve">
<style type="text/css">
	.st0{fill:#C2D5EC;}
	.st1{fill:#61E1FF;}
	.st2{fill:#7184AF;}
	.st3{fill:#F8F8F8;}
	.st4{fill:#3F4D81;}
	.st5{fill:#3F4D80;}
	.st6{fill:#E9EAEB;}
	.st7{fill:#F79559;}
	.st8{fill:#FFA85A;}
</style>
<g>
	<g>
		<g>
			<ellipse class="st0" cx="62.132" cy="58.017" rx="47.184" ry="47.017"/>
		</g>
		<g>
			<g>
				<path class="st5" d="M81.251,92.585c-4.579,2.182-9.704,3.409-15.119,3.409c-8.723,0-16.698-3.174-22.837-8.422
					c-0.511,1.314-0.821,2.771-0.821,4.381c0,2.475-0.242,5.505-0.348,8.647c6.075,2.839,12.852,4.433,20.006,4.433
					c4.388,0,8.632-0.61,12.663-1.727c0.099-0.028,0.04-0.634,0.099-0.028c2.958-0.826,5.796-1.931,8.488-3.287
					C82.635,97.569,81.962,95.021,81.251,92.585z"/>
			</g>
			<g>
				<path class="st5" d="M79.692,41.954c0.509-0.697,0.007-1.669-0.859-1.669H61.49c-4.403,0-7.973,3.557-7.973,7.945
					c0,0,0.099,7.807,0.044,8.365c0,0,0.149,2.736,0.397,3.61l0.004,0c0.024,0.085,0.046,0.172,0.072,0.256
					c1.516,4.899,2.526,9.94,2.526,15.067l0,0h0l-2.907,2.479l0,0c0,0-4.359,1.643-7.633,5.249c5.329,4.789,12.372,7.72,20.114,7.72
					c4.86,0,9.448-1.152,13.511-3.191c-3.489-8.376-10.806-9.671-10.806-9.671h0l-3.558-3.447l0,0v0v-3.16
					c1.441,0.744,3.132,1.077,4.921,0.811c3.985-0.592,6.841-4.169,6.841-8.183v-7.104v-3.28c0-0.925-0.155-1.813-0.431-2.646
					C76.61,46.95,78.372,43.761,79.692,41.954z"/>
			</g>
		</g>
		<g>
			<path class="st5" d="M95.207,41.686c0.051-0.023,0.099-0.05,0.15-0.072c-6.295-9.401-17.033-15.596-29.225-15.596
				c-12.193,0-22.93,6.195-29.225,15.596c0.051,0.022,0.099,0.05,0.15,0.072c-2.025-0.896-4.263-1.402-6.622-1.402
				c-6.457,0-12.025,3.735-14.689,9.147c-0.516,2.785-0.799,5.652-0.799,8.586c0,1.486,0.078,2.954,0.213,4.406
				c2.356,6.127,8.298,10.485,15.275,10.485c0.885,0,1.748-0.09,2.595-0.224c4.825,13.58,17.82,23.311,33.102,23.311
				c15.282,0,28.277-9.731,33.102-23.311c0.847,0.135,1.709,0.224,2.595,0.224c1.883,0,3.685-0.333,5.369-0.916
				c1.377-4.415,2.119-9.108,2.119-13.974c0-6.059-1.163-11.844-3.257-17.162c-1.352-0.36-2.765-0.57-4.231-0.57
				C99.47,40.284,97.232,40.79,95.207,41.686z M66.132,90.974c-13.041,0-24.139-8.272-28.309-19.837
				c5.325-2.692,8.982-8.185,8.982-14.542c0-4.927-2.202-9.333-5.667-12.324c0.009,0.008,0.019,0.015,0.028,0.023
				c5.401-7.995,14.567-13.256,24.966-13.256c10.4,0,19.565,5.26,24.966,13.256c0.009-0.008,0.019-0.015,0.028-0.023
				c-3.466,2.991-5.667,7.397-5.667,12.324c0,6.357,3.657,11.85,8.982,14.542C90.272,82.702,79.173,90.974,66.132,90.974z"/>
		</g>
		<g>
			<g>
				<g>
					<path class="st8" d="M62.132,87.985c4.86,0,9.448-1.152,13.511-3.191c-3.489-8.376-10.806-9.671-10.806-9.671l-0.553,7.164
						l-3.822-1.873l-2.946,2.935l-7.864-8.331c0,0-4.359,1.643-7.633,5.249C47.348,85.054,54.391,87.985,62.132,87.985z"/>
				</g>
				<g>
					<path class="st8" d="M77.251,89.596c-4.579,2.182-9.704,3.409-15.119,3.409c-8.723,0-16.698-3.174-22.837-8.422
						c-0.511,1.314-0.821,2.771-0.821,4.381c0,9.735-3.749,28.036,11.764,28.036c15.512,0,15.512,0,15.512,0v-5.413
						c1.089,0,2.237-0.407,3.375-0.851l0,0c0.492-1.199,0.855-2.449,1.077-3.729c0.518-2.979,0.636-6.015,0.596-8.557h0.001
						c0,5.29,2.201,10.052,5.734,13.431c3.142,2.968,7.419,5.119,12.025,5.119h6.29v-8.099h-6.592
						C81.723,108.098,79.732,98.099,77.251,89.596z"/>
				</g>
			</g>
			<g>
				<path class="st3" d="M41.474,91.954c0-9.118,9.805-13.391,11.047-13.896l-2.87-3.041c0,0-11.177,4.213-11.177,13.948
					c0,7.974-2.508,21.689,5.108,26.392C39.723,109.28,41.474,98.613,41.474,91.954z"/>
			</g>
			<g>
				<path class="st3" d="M61.92,48.113c-1.942,0-3.516,1.568-3.516,3.503c0,0.408-0.077,0.801-0.209,1.171
					c-0.545-1.829-2.225-3.172-4.238-3.172c-2.303,0-4.174,1.754-4.396,3.991v0.867c0.032,0.945,0.149,1.869,0.397,2.743l0.004,0
					c0.024,0.085,0.046,0.172,0.072,0.256c1.516,4.899,2.526,9.94,2.526,15.067l7.903,7.875l0.817-8.737v-3.16
					c1.46,0.754,3.176,1.085,4.991,0.8c3.947-0.62,6.772-4.158,6.772-8.14v-7.137v-3.28c0-0.925-0.155-1.813-0.431-2.646H61.92z"/>
			</g>
			<g>
				<polygon class="st1" points="57.516,83.348 49.652,75.017 52.559,72.538 60.462,80.412 				"/>
			</g>
			<g>
				<polygon class="st1" points="64.284,82.286 64.837,75.122 61.279,71.676 60.462,80.412 				"/>
			</g>
			<g>
				<rect x="61.968" y="108.901" class="st5" width="3.782" height="8.099"/>
			</g>
			<g>
				<path class="st3" d="M65.751,111.588c3.207,0,6.923-3.534,9.4-1.111c1.336,1.307,1.26,2.762,0.773,3.966
					c-0.639,1.58-2.246,2.557-3.956,2.557h-6.217L65.751,111.588z"/>
			</g>
			<g>
				<path class="st3" d="M94.848,111.481c3.08,0,6.649-3.394,9.028-1.067c1.283,1.255,1.21,2.653,0.742,3.809
					c-0.614,1.517-2.157,2.777-3.799,2.777h-5.971V111.481z"/>
			</g>
			<g>
				<rect x="92.127" y="108.901" class="st5" width="2.721" height="8.099"/>
			</g>
			<g>
				<path class="st5" d="M77.116,37.295H57.49c-4.403,0-7.973,3.557-7.973,7.945v8.799c0-2.444,1.988-4.424,4.44-4.424
					c2.013,0,3.693,1.343,4.238,3.172c0.132-0.37,0.209-0.763,0.209-1.171c0-1.935,1.574-3.503,3.516-3.503H72.61
					C72.61,41.472,77.116,37.295,77.116,37.295z"/>
			</g>
		</g>
		<g>
			<g>
				<g>
					<path class="st1" d="M62.132,28.049c10.4,0,19.565,5.26,24.966,13.256c1.266-1.097,2.697-2.009,4.259-2.68
						c-6.295-9.401-17.033-15.596-29.225-15.596c-12.193,0-22.93,6.195-29.225,15.596c1.562,0.671,2.993,1.583,4.259,2.68
						C42.567,33.309,51.733,28.049,62.132,28.049z"/>
				</g>
				<g>
					<path class="st1" d="M95.22,69.71C90.4,83.281,77.4,93.007,62.13,93.007c-15.28,0-28.27-9.725-33.1-23.307
						c0.49-0.08,0.97-0.179,1.44-0.299c0.21-0.05,0.42-0.1,0.61-0.159c0.03-0.01,0.06-0.02,0.1-0.03
						c1.13-0.329,1.92-0.688,2.32-0.897c0.08-0.04,0.16-0.08,0.24-0.12c0.05-0.03,0.08-0.05,0.08-0.05v0.01
						C38,79.714,49.09,87.984,62.13,87.984s24.13-8.271,28.31-19.829C91.92,68.912,93.52,69.441,95.22,69.71z"/>
				</g>
			</g>
			<g>
				<path class="st7" d="M95.224,87.744c0.407-0.405,0.876-0.706,1.371-0.928l-7.015-6.99c-1.64,2.047-3.505,3.906-5.56,5.54
					l7.015,6.99c0.223-0.493,0.525-0.961,0.931-1.366L95.224,87.744z"/>
			</g>
			<g>
				<path class="st2" d="M91.966,97.483l14.845,14.792c1.799,1.793,4.716,1.793,6.516,0l3.258-3.246c1.799-1.793,1.799-4.7,0-6.492
					l-14.845-14.792c-1.799-1.793-4.716-1.793-6.516,0l-3.258,3.246C90.167,92.783,90.167,95.69,91.966,97.483z"/>
			</g>
		</g>
		<g>
			<ellipse class="st6" cx="97.829" cy="53.607" rx="16.369" ry="16.311"/>
		</g>
		<g>
			<path class="st6" d="M86.39,65.256c0.275,0.27,0.562,0.527,0.855,0.777C86.951,65.784,86.666,65.525,86.39,65.256z"/>
		</g>
		<g>
			<path class="st3" d="M84.459,55.599c0-9.008,7.329-16.311,16.37-16.311c2.717,0,5.274,0.67,7.529,1.837
				c-2.847-2.387-6.517-3.83-10.529-3.83c-9.041,0-16.37,7.303-16.37,16.311c0,6.301,3.592,11.757,8.84,14.474
				C86.731,65.088,84.459,60.61,84.459,55.599z"/>
		</g>
		<g>
			<g>
				<path class="st2" d="M94.772,60.628v3.047c0,0.841,0.684,1.523,1.529,1.523h3.058c0.844,0,1.529-0.682,1.529-1.523v-3.047
					H94.772z"/>
			</g>
			<g>
				<path class="st7" d="M101.869,48.436c-2.287-2.013-5.792-2.013-8.079,0c-2.517,2.215-2.745,5.954-0.684,8.445
					c0.435,0.526,0.83,1.084,1.12,1.7c0.285,0.608,0.547,1.354,0.547,2.046h3.058h3.058c0-0.692,0.261-1.438,0.547-2.046
					c0.289-0.617,0.685-1.175,1.12-1.7C104.614,54.39,104.385,50.65,101.869,48.436z"/>
			</g>
		</g>
		<g>
			<ellipse class="st8" cx="26.385" cy="53.607" rx="16.369" ry="16.311"/>
		</g>
		<g>
			<path class="st3" d="M13.066,55.599c0-9.008,7.329-16.311,16.37-16.311c2.717,0,5.274,0.67,7.529,1.837
				c-2.847-2.387-6.517-3.83-10.529-3.83c-9.041,0-16.37,7.303-16.37,16.311c0,6.301,3.592,11.757,8.84,14.474
				C15.338,65.088,13.066,60.61,13.066,55.599z"/>
		</g>
		<g>
			<g>
				<rect x="17.674" y="52.594" class="st5" width="3.609" height="10.148"/>
			</g>
			<g>
				<path class="st3" d="M35.198,54.814c0-0.876-0.712-1.586-1.591-1.586c0.93,0,1.674-0.796,1.584-1.741
					c-0.079-0.824-0.821-1.43-1.652-1.43h-4.617v-3.702c0-1.041-0.847-1.885-1.891-1.885c-0.92,0-1.704,0.659-1.863,1.562
					c-0.37,2.107-1.364,6.561-3.884,6.561v10.148h12.323c0.879,0,1.591-0.71,1.591-1.586c0-0.876-0.712-1.586-1.591-1.586
					c0.879,0,1.591-0.71,1.591-1.586c0-0.876-0.712-1.586-1.591-1.586C34.485,56.4,35.198,55.69,35.198,54.814z"/>
			</g>
		</g>
		<g>
			<g>
				<g>
					<rect x="9.194" y="104.219" class="st1" width="2.956" height="6.739"/>
				</g>
				<g>
					<rect x="15.105" y="100.528" class="st1" width="2.956" height="10.429"/>
				</g>
				<g>
					<rect x="21.016" y="97.159" class="st1" width="2.956" height="13.799"/>
				</g>
				<g>
					<rect x="26.927" y="93.789" class="st1" width="2.956" height="17.168"/>
				</g>
			</g>
		</g>
	</g>
	<g>
		<g>
			<g>
				<path class="st5" d="M127,118H1c-0.552,0-1-0.448-1-1s0.448-1,1-1h126c0.552,0,1,0.448,1,1S127.552,118,127,118z"/>
			</g>
		</g>
		<g>
			<g>
				<g>
					<path class="st5" d="M60.462,81.413c-0.26,0-0.515-0.102-0.706-0.292l-7.903-7.875c-0.188-0.188-0.294-0.443-0.294-0.708
						c0-4.544-0.812-9.376-2.481-14.771l-0.053-0.185l0.001,0c-0.012-0.03-0.022-0.061-0.031-0.093
						c-0.254-0.894-0.396-1.87-0.435-2.982l0-0.901c0.281-2.888,2.599-4.991,5.396-4.991c1.426,0,2.739,0.544,3.717,1.469
						c0.63-1.73,2.296-2.97,4.247-2.97h10.69c0.431,0,0.813,0.276,0.949,0.686c0.319,0.964,0.481,1.96,0.481,2.96v10.416
						c0,4.521-3.274,8.446-7.616,9.128c-1.407,0.221-2.816,0.118-4.146-0.299v1.671l-0.821,8.83
						c-0.036,0.385-0.292,0.715-0.656,0.847C60.691,81.393,60.576,81.413,60.462,81.413z M53.557,72.12l6.107,6.085l0.619-6.623
						l-0.004-3.067c0-0.349,0.182-0.673,0.48-0.854c0.297-0.182,0.669-0.195,0.979-0.034c1.348,0.696,2.86,0.936,4.376,0.701
						c3.379-0.531,5.927-3.605,5.927-7.152V50.759c0-0.552-0.063-1.104-0.188-1.646H61.92c-1.387,0-2.516,1.123-2.516,2.503
						c0,0.503-0.09,1.011-0.268,1.507c-0.146,0.407-0.519,0.7-0.969,0.663c-0.432-0.012-0.808-0.3-0.931-0.714
						c-0.438-1.47-1.755-2.458-3.279-2.458c-1.764,0-3.227,1.328-3.401,3.089l0.005,0.769c0.031,0.882,0.141,1.675,0.337,2.392
						c0.009,0.024,0.017,0.049,0.024,0.075l0.067,0.241C52.667,62.602,53.509,67.495,53.557,72.12z"/>
				</g>
			</g>
			<g>
				<g>
					<path class="st5" d="M61.278,69.515c-0.164,0-0.33-0.04-0.483-0.125c-1.3-0.719-2.42-1.772-3.24-3.046
						c-0.299-0.464-0.165-1.083,0.3-1.382c0.465-0.299,1.084-0.165,1.382,0.3c0.642,0.997,1.515,1.819,2.526,2.378
						c0.483,0.267,0.659,0.875,0.391,1.359C61.972,69.329,61.63,69.515,61.278,69.515z"/>
				</g>
			</g>
			<g>
				<g>
					<path class="st5" d="M57.516,84.348c-0.005,0-0.01,0-0.015,0c-0.27-0.004-0.527-0.117-0.712-0.313l-7.864-8.332
						c-0.188-0.199-0.286-0.467-0.271-0.741c0.015-0.273,0.141-0.529,0.35-0.707l2.907-2.479c0.396-0.337,0.986-0.315,1.355,0.052
						l7.903,7.875c0.188,0.188,0.294,0.443,0.294,0.708s-0.106,0.521-0.294,0.708l-2.946,2.936
						C58.034,84.243,57.78,84.348,57.516,84.348z M51.101,75.095l6.437,6.819l1.507-1.502l-6.539-6.516L51.101,75.095z"/>
				</g>
			</g>
			<g>
				<g>
					<path class="st5" d="M64.284,83.286c-0.15,0-0.301-0.034-0.44-0.102l-3.822-1.873c-0.373-0.183-0.594-0.577-0.556-0.991
						l0.817-8.737c0.036-0.383,0.288-0.711,0.649-0.845c0.36-0.132,0.766-0.049,1.042,0.22l3.558,3.446
						c0.214,0.207,0.324,0.499,0.301,0.795l-0.553,7.164c-0.025,0.331-0.213,0.627-0.501,0.791
						C64.626,83.242,64.455,83.286,64.284,83.286z M61.522,79.818l1.878,0.92l0.403-5.225l-1.723-1.669L61.522,79.818z"/>
				</g>
			</g>
			<g>
				<g>
					<path class="st5" d="M62.917,109.901h-6.839c-5.173,0-9.382-4.195-9.382-9.352v-4.438c0-0.552,0.448-1,1-1s1,0.448,1,1v4.438
						c0,4.054,3.312,7.352,7.382,7.352h6.839c0.552,0,1,0.448,1,1S63.47,109.901,62.917,109.901z"/>
				</g>
			</g>
			<g>
				<g>
					<path class="st5" d="M65.75,118h-3.782c-0.552,0-1-0.448-1-1v-8.099c0-0.552,0.448-1,1-1h3.782c0.552,0,1,0.448,1,1V117
						C66.75,117.552,66.303,118,65.75,118z M62.968,116h1.782v-6.099h-1.782V116z"/>
				</g>
			</g>
			<g>
				<g>
					<path class="st5" d="M71.968,118H65.75c-0.552,0-1-0.448-1-1v-5.413c0-0.552,0.448-1,1-1c1.025,0,2.233-0.476,3.401-0.936
						c2.202-0.867,4.697-1.847,6.698,0.11c1.407,1.376,1.763,3.172,1.001,5.056C76.081,116.721,74.119,118,71.968,118z M66.75,116
						h5.217c1.344,0,2.562-0.776,3.028-1.932c0.463-1.146,0.29-2.06-0.545-2.877c-1.024-1.003-2.403-0.53-4.566,0.321
						c-1.022,0.403-2.072,0.815-3.134,0.989V116z"/>
				</g>
			</g>
			<g>
				<g>
					<g>
						<path class="st5" d="M62.132,88.985c-7.678,0-15.059-2.833-20.782-7.976c-0.198-0.178-0.317-0.427-0.33-0.693
							c-0.014-0.266,0.079-0.526,0.258-0.723c3.397-3.74,7.833-5.441,8.021-5.512c0.376-0.143,0.803-0.045,1.08,0.249l7.159,7.584
							l2.218-2.21c0.301-0.3,0.761-0.378,1.146-0.189l2.499,1.224l0.439-5.694c0.022-0.281,0.162-0.541,0.384-0.713
							c0.224-0.173,0.51-0.243,0.787-0.194c0.321,0.057,7.898,1.491,11.555,10.272c0.202,0.484-0.005,1.042-0.475,1.278
							C71.734,87.875,67.038,88.985,62.132,88.985z M43.471,80.202c5.237,4.382,11.823,6.783,18.661,6.783
							c4.27,0,8.369-0.897,12.202-2.67c-2.516-5.25-6.647-7.233-8.594-7.903l-0.459,5.951c-0.025,0.331-0.213,0.627-0.501,0.791
							c-0.288,0.165-0.638,0.176-0.936,0.03l-3.181-1.559l-2.44,2.432c-0.191,0.19-0.448,0.312-0.721,0.292
							c-0.27-0.004-0.527-0.117-0.712-0.313l-7.386-7.824C48.262,76.729,45.7,78.037,43.471,80.202z"/>
					</g>
				</g>
				<g>
					<g>
						<path class="st5" d="M94.848,118h-6.29c-4.451,0-9.084-1.966-12.712-5.393c-1.955-1.87-3.469-4.065-4.493-6.47
							c-0.051,0.353-0.106,0.699-0.165,1.041c-0.234,1.344-0.616,2.668-1.137,3.938c-0.104,0.253-0.307,0.453-0.562,0.552
							c-0.88,0.343-1.804,0.68-2.738,0.833V117c0,0.552-0.448,1-1,1H50.238c-3.951,0-7.049-1.153-9.208-3.428
							c-4.559-4.802-4.102-13.612-3.734-20.691c0.092-1.777,0.179-3.455,0.179-4.917c0-1.63,0.299-3.226,0.889-4.744
							c0.118-0.302,0.374-0.528,0.688-0.607c0.316-0.08,0.648-0.001,0.894,0.209c6.172,5.276,14.051,8.182,22.187,8.182
							c5.135,0,10.077-1.114,14.689-3.312c0.264-0.127,0.571-0.13,0.839-0.01c0.268,0.12,0.469,0.351,0.551,0.632
							c0.282,0.967,0.558,1.953,0.834,2.942c2.057,7.356,4.184,14.962,9.274,15.643h6.528c0.552,0,1,0.448,1,1V117
							C95.848,117.552,95.4,118,94.848,118z M71.805,98.907c0.118,4.675,2.032,9.011,5.42,12.251
							C80.48,114.233,84.612,116,88.558,116h5.29v-6.099h-5.592c-0.041,0-0.082-0.002-0.122-0.007
							c-6.455-0.793-8.773-9.082-11.015-17.097c-0.169-0.605-0.338-1.209-0.508-1.809c-4.574,2.002-9.439,3.017-14.479,3.017
							c-8.112,0-15.983-2.729-22.331-7.715c-0.217,0.872-0.327,1.767-0.327,2.675c0,1.514-0.088,3.217-0.182,5.021
							c-0.347,6.697-0.78,15.032,3.188,19.21c1.792,1.887,4.33,2.805,7.758,2.805H64.75v-4.413c0-0.552,0.448-1,1-1
							c0.803,0,1.715-0.292,2.607-0.627c0.386-1.013,0.675-2.062,0.86-3.125c0.414-2.381,0.611-5.054,0.587-7.952
							c-0.003-0.13-0.004-0.261-0.005-0.392c0-0.009,0-0.018,0-0.027h0c0-0.005,0-0.01,0-0.016c0-0.549,0.443-0.996,0.992-1
							c0.003,0,0.005,0,0.008,0c0.546,0,0.992,0.438,1,0.985C71.802,98.592,71.803,98.75,71.805,98.907z"/>
					</g>
				</g>
			</g>
			<g>
				<g>
					<path class="st5" d="M100.819,118h-5.971c-0.552,0-1-0.448-1-1v-5.519c0-0.552,0.448-1,1-1c0.977,0,2.133-0.456,3.252-0.896
						c2.125-0.837,4.534-1.786,6.475,0.114c1.364,1.334,1.708,3.074,0.97,4.899C104.736,116.601,102.792,118,100.819,118z
						 M95.848,116h4.971c1.142,0,2.376-0.925,2.872-2.151c0.438-1.083,0.275-1.948-0.514-2.72c-0.966-0.943-2.279-0.495-4.344,0.317
						c-0.973,0.383-1.971,0.776-2.984,0.947V116z"/>
				</g>
			</g>
			<g>
				<g>
					<path class="st5" d="M94.848,118h-2.721c-0.552,0-1-0.448-1-1v-8.099c0-0.552,0.448-1,1-1h2.721c0.552,0,1,0.448,1,1V117
						C95.848,117.552,95.4,118,94.848,118z M93.127,116h0.721v-6.099h-0.721V116z"/>
				</g>
			</g>
			<g>
				<g>
					<path class="st5" d="M49.517,55.039c-0.552,0-1-0.448-1-1V45.24c0-4.932,4.025-8.944,8.973-8.944h19.626
						c0.411,0,0.781,0.252,0.931,0.635c0.15,0.382,0.051,0.818-0.25,1.097c-0.058,0.055-4.187,3.998-4.187,10.086
						c0,0.552-0.448,1-1,1H61.92c-1.387,0-2.516,1.123-2.516,2.503c0,0.503-0.09,1.011-0.268,1.507
						c-0.146,0.407-0.519,0.7-0.969,0.663c-0.432-0.012-0.808-0.3-0.931-0.714c-0.438-1.47-1.755-2.458-3.279-2.458
						c-1.897,0-3.44,1.536-3.44,3.424C50.517,54.591,50.069,55.039,49.517,55.039z M53.957,48.614c1.426,0,2.739,0.544,3.717,1.469
						c0.63-1.73,2.296-2.97,4.247-2.97h9.722c0.254-4,1.984-7.049,3.295-8.818H57.49c-3.845,0-6.973,3.115-6.973,6.944v4.6
						C51.455,49.074,52.653,48.614,53.957,48.614z"/>
				</g>
			</g>
		</g>
		<g>
			<g>
				<g>
					<path class="st5" d="M62.13,94.006c-15.263,0-28.943-9.633-34.042-23.972c-0.099-0.279-0.069-0.588,0.082-0.844
						s0.408-0.431,0.7-0.478c0.46-0.075,0.912-0.168,1.354-0.281c0.207-0.049,0.388-0.094,0.57-0.148
						c0.032-0.011,0.083-0.027,0.15-0.043c0.661-0.199,1.394-0.483,2.13-0.83l0.22-0.11c0.014-0.007,0.028-0.014,0.042-0.02
						c0.012-0.006,0.023-0.012,0.035-0.019c5.206-2.618,8.439-7.85,8.439-13.655c0-6.119-3.648-11.641-9.295-14.067
						c-0.273-0.118-0.479-0.35-0.564-0.635s-0.038-0.593,0.128-0.84c6.723-10.043,17.957-16.039,30.051-16.039
						c12.09,0,23.328,5.996,30.061,16.038c0.168,0.25,0.214,0.564,0.125,0.853c-0.089,0.288-0.304,0.521-0.584,0.633
						c-5.458,2.178-9.271,7.959-9.271,14.058c0,5.802,3.156,10.909,8.442,13.662c1.365,0.71,2.871,1.199,4.474,1.453
						c0.294,0.046,0.551,0.221,0.703,0.477c0.152,0.255,0.183,0.565,0.083,0.845C91.072,84.376,77.396,94.006,62.13,94.006z
						 M30.38,70.452c5.106,12.94,17.72,21.554,31.75,21.554c14.03,0,26.639-8.608,31.739-21.541
						c-1.375-0.316-2.679-0.793-3.891-1.423c-5.96-3.104-9.518-8.874-9.518-15.436c0-6.466,3.806-12.623,9.391-15.405
						c-6.421-8.898-16.696-14.176-27.721-14.176c-11.036,0-21.314,5.284-27.725,14.194c5.751,2.959,9.405,8.874,9.405,15.387
						c0,6.565-3.656,12.482-9.541,15.442v0c-0.026,0.014-0.054,0.027-0.082,0.041l0,0l-0.245,0.122
						c-0.842,0.397-1.67,0.717-2.476,0.958l-0.387-0.928l0.287,0.958c-0.219,0.065-0.437,0.12-0.667,0.175
						C30.595,70.401,30.488,70.427,30.38,70.452z"/>
				</g>
			</g>
			<g>
				<g>
					<path class="st5" d="M62.132,88.985c-13.075,0-24.829-8.237-29.25-20.497c-0.171-0.476,0.039-1.004,0.49-1.232
						c5.202-2.629,8.433-7.86,8.433-13.649c0-4.419-1.93-8.627-5.295-11.544c-0.382-0.332-0.457-0.896-0.174-1.315
						c5.792-8.578,15.436-13.698,25.796-13.698s20.003,5.121,25.796,13.698c0.283,0.419,0.208,0.984-0.174,1.315
						c-3.365,2.917-5.295,7.125-5.295,11.544c0,5.801,3.229,11.037,8.428,13.664c0.451,0.228,0.661,0.756,0.49,1.232
						C86.96,80.753,75.208,88.985,62.132,88.985z M35.068,68.614c4.351,11.024,15.118,18.371,27.064,18.371
						s22.711-7.341,27.059-18.356c-5.409-3.087-8.732-8.764-8.732-15.022c0-4.7,1.928-9.187,5.319-12.447
						c-5.465-7.6-14.24-12.111-23.646-12.111s-18.182,4.511-23.646,12.11c3.391,3.26,5.319,7.747,5.319,12.447
						C43.805,59.855,40.48,65.526,35.068,68.614z"/>
				</g>
			</g>
			<g>
				<g>
					<path class="st5" d="M91.034,93.356c-0.262,0-0.517-0.103-0.706-0.292l-7.015-6.99c-0.202-0.202-0.308-0.479-0.292-0.764
						c0.016-0.285,0.153-0.549,0.376-0.727c1.993-1.585,3.811-3.396,5.402-5.383c0.178-0.222,0.441-0.357,0.725-0.373
						c0.276-0.015,0.561,0.09,0.762,0.29l7.015,6.991c0.233,0.232,0.337,0.565,0.277,0.889c-0.059,0.324-0.274,0.598-0.575,0.732
						c-0.418,0.188-0.78,0.431-1.073,0.724l-0.706-0.708l0.706,0.708l-3.258,3.246c-0.293,0.292-0.538,0.652-0.727,1.07
						c-0.135,0.299-0.408,0.512-0.731,0.571C91.154,93.351,91.094,93.356,91.034,93.356z M85.507,85.438l5.334,5.315
						c0.13-0.166,0.27-0.323,0.418-0.471l3.258-3.247c0.146-0.146,0.302-0.283,0.466-0.412l-5.333-5.315
						C88.384,82.792,86.996,84.176,85.507,85.438z"/>
				</g>
			</g>
			<g>
				<g>
					<path class="st5" d="M110.068,114.617c-1.435,0-2.871-0.544-3.963-1.633L91.26,98.191c-1.06-1.057-1.644-2.461-1.644-3.955
						s0.584-2.898,1.644-3.954l3.257-3.247c2.186-2.177,5.742-2.177,7.927,0l14.845,14.792c1.06,1.057,1.644,2.461,1.644,3.955
						s-0.584,2.898-1.644,3.954l-3.257,3.247C112.939,114.073,111.504,114.617,110.068,114.617z M92.672,96.774l14.845,14.792
						c1.406,1.402,3.696,1.402,5.104,0l3.257-3.247c0.681-0.678,1.056-1.579,1.056-2.537s-0.375-1.86-1.056-2.538l-14.845-14.792
						c-1.406-1.402-3.696-1.402-5.104,0l-3.257,3.247c-0.681,0.678-1.056,1.579-1.056,2.537S91.991,96.096,92.672,96.774
						L92.672,96.774z"/>
				</g>
			</g>
		</g>
		<g>
			<g>
				<path class="st5" d="M97.829,70.918c-9.578,0-17.37-7.766-17.37-17.312s7.792-17.311,17.37-17.311
					c9.577,0,17.369,7.766,17.369,17.311S107.406,70.918,97.829,70.918z M97.829,38.295c-8.475,0-15.37,6.869-15.37,15.311
					c0,8.443,6.895,15.312,15.37,15.312s15.369-6.869,15.369-15.312C113.198,45.164,106.304,38.295,97.829,38.295z"/>
			</g>
		</g>
		<g>
			<g>
				<g>
					<path class="st5" d="M97.829,45.471c-0.552,0-1-0.448-1-1v-2.456c0-0.552,0.448-1,1-1s1,0.448,1,1v2.456
						C98.829,45.023,98.381,45.471,97.829,45.471z"/>
				</g>
			</g>
			<g>
				<g>
					<path class="st5" d="M103.888,47.972c-0.256,0-0.513-0.098-0.708-0.294c-0.39-0.392-0.389-1.024,0.002-1.415l1.743-1.736
						c0.392-0.39,1.025-0.388,1.415,0.002c0.39,0.392,0.389,1.024-0.002,1.415l-1.743,1.736
						C104.398,47.875,104.143,47.972,103.888,47.972z"/>
				</g>
			</g>
			<g>
				<g>
					<path class="st5" d="M90.027,61.782c-0.256,0-0.513-0.098-0.708-0.294c-0.39-0.392-0.389-1.024,0.002-1.415l1.743-1.736
						c0.391-0.39,1.024-0.388,1.415,0.002c0.39,0.392,0.389,1.024-0.002,1.415l-1.743,1.736
						C90.538,61.685,90.283,61.782,90.027,61.782z"/>
				</g>
			</g>
			<g>
				<g>
					<path class="st5" d="M108.862,54.009h-2.464c-0.552,0-1-0.448-1-1s0.448-1,1-1h2.464c0.552,0,1,0.448,1,1
						S109.414,54.009,108.862,54.009z"/>
				</g>
			</g>
			<g>
				<g>
					<path class="st5" d="M89.261,54.008h-2.464c-0.552,0-1-0.448-1-1s0.448-1,1-1h2.464c0.552,0,1,0.448,1,1
						S89.813,54.008,89.261,54.008z"/>
				</g>
			</g>
			<g>
				<g>
					<path class="st5" d="M105.63,61.782c-0.255,0-0.511-0.097-0.706-0.292l-1.742-1.736c-0.391-0.39-0.392-1.023-0.002-1.415
						c0.39-0.391,1.022-0.393,1.415-0.002l1.742,1.736c0.391,0.39,0.392,1.023,0.002,1.415
						C106.143,61.684,105.886,61.782,105.63,61.782z"/>
				</g>
			</g>
			<g>
				<g>
					<path class="st5" d="M91.771,47.971c-0.255,0-0.511-0.097-0.706-0.292l-1.743-1.736c-0.391-0.39-0.392-1.023-0.002-1.415
						c0.389-0.391,1.022-0.393,1.415-0.002l1.743,1.736c0.391,0.39,0.392,1.023,0.002,1.415
						C92.284,47.873,92.027,47.971,91.771,47.971z"/>
				</g>
			</g>
			<g>
				<g>
					<path class="st5" d="M99.358,66.198H96.3c-1.395,0-2.529-1.132-2.529-2.523v-3.047c0-0.552,0.448-1,1-1h6.115
						c0.552,0,1,0.448,1,1v3.047C101.887,65.066,100.752,66.198,99.358,66.198z M95.771,61.628v2.047
						c0,0.289,0.237,0.523,0.529,0.523h3.058c0.292,0,0.529-0.235,0.529-0.523v-2.047H95.771z"/>
				</g>
			</g>
			<g>
				<g>
					<path class="st5" d="M100.887,61.628h-6.115c-0.552,0-1-0.448-1-1c0-0.43-0.156-0.991-0.452-1.622
						c-0.22-0.468-0.533-0.941-0.985-1.487c-2.452-2.964-2.104-7.284,0.794-9.833c2.68-2.359,6.721-2.358,9.4,0l0,0
						c2.897,2.55,3.247,6.869,0.794,9.833c-0.452,0.546-0.765,1.02-0.985,1.488c-0.296,0.631-0.452,1.192-0.452,1.622
						C101.887,61.18,101.439,61.628,100.887,61.628z M95.652,59.628h4.355c0.105-0.462,0.279-0.954,0.521-1.471
						c0.293-0.626,0.692-1.233,1.254-1.913c1.759-2.126,1.506-5.227-0.575-7.058c-1.895-1.667-4.863-1.667-6.758,0
						c-2.081,1.831-2.333,4.931-0.574,7.058c0.562,0.68,0.961,1.287,1.254,1.913C95.373,58.673,95.547,59.165,95.652,59.628z"/>
				</g>
			</g>
			<g>
				<g>
					<path class="st5" d="M99.358,56.406H96.3c-0.552,0-1-0.448-1-1s0.448-1,1-1h3.058c0.552,0,1,0.448,1,1
						S99.91,56.406,99.358,56.406z"/>
				</g>
			</g>
			<g>
				<g>
					<path class="st5" d="M97.829,61.628c-0.552,0-1-0.448-1-1v-5.222c0-0.552,0.448-1,1-1s1,0.448,1,1v5.222
						C98.829,61.18,98.381,61.628,97.829,61.628z"/>
				</g>
			</g>
		</g>
		<g>
			<g>
				<path class="st5" d="M26.402,70.918c-4.627,0-8.977-1.799-12.252-5.067c-3.278-3.271-5.083-7.62-5.083-12.244
					c0-9.545,7.792-17.311,17.37-17.311c4.659,0,9.034,1.812,12.32,5.104c3.263,3.268,5.056,7.604,5.049,12.209
					C43.792,63.133,36,70.899,26.438,70.918C26.426,70.918,26.414,70.918,26.402,70.918z M26.436,38.295
					c-8.475,0-15.37,6.869-15.37,15.311c0,4.089,1.597,7.935,4.496,10.829c2.897,2.892,6.746,4.483,10.84,4.483
					c0.011,0,0.021,0,0.032,0c8.463-0.017,15.359-6.886,15.371-15.313c0.006-4.071-1.579-7.903-4.464-10.793
					C34.433,39.899,30.56,38.295,26.436,38.295z"/>
			</g>
		</g>
		<g>
			<g>
				<g>
					<path class="st5" d="M21.283,63.742h-3.609c-0.552,0-1-0.448-1-1V52.594c0-0.552,0.448-1,1-1h3.609c0.552,0,1,0.448,1,1v10.148
						C22.283,63.294,21.835,63.742,21.283,63.742z M18.674,61.742h1.609v-8.148h-1.609V61.742z"/>
				</g>
			</g>
			<g>
				<g>
					<path class="st5" d="M33.606,63.742H21.283c-0.552,0-1-0.448-1-1V52.594c0-0.552,0.448-1,1-1c1.185,0,2.268-2.144,2.899-5.734
						c0.243-1.384,1.441-2.389,2.848-2.389c1.594,0,2.892,1.294,2.892,2.885v2.702h3.617c1.359,0,2.522,1.025,2.648,2.334
						c0.063,0.66-0.13,1.319-0.533,1.837c0.341,0.438,0.545,0.988,0.545,1.585c0,0.597-0.204,1.147-0.546,1.586
						c0.342,0.438,0.546,0.988,0.546,1.585s-0.204,1.147-0.546,1.585c0.342,0.438,0.546,0.989,0.546,1.586
						C36.198,62.583,35.035,63.742,33.606,63.742z M22.283,61.742h11.323c0.326,0,0.591-0.263,0.591-0.585
						c0-0.323-0.265-0.586-0.591-0.586c-0.552,0-1-0.448-1-1s0.448-1,1-1c0.326,0,0.591-0.263,0.591-0.585S33.933,57.4,33.606,57.4
						c-0.552,0-1-0.448-1-1s0.448-1,1-1c0.326,0,0.591-0.263,0.591-0.586c0-0.323-0.265-0.585-0.591-0.585c-0.552,0-1-0.448-1-1
						s0.448-1,1-1c0.229,0,0.374-0.122,0.44-0.194c0.064-0.071,0.17-0.225,0.148-0.452c-0.028-0.29-0.322-0.525-0.657-0.525h-4.617
						c-0.552,0-1-0.448-1-1v-3.702c0-0.488-0.4-0.885-0.892-0.885c-0.434,0-0.803,0.309-0.878,0.735
						c-0.734,4.18-2.033,6.604-3.869,7.227V61.742z"/>
				</g>
			</g>
		</g>
		<g>
			<g>
				<g>
					<g>
						<path class="st5" d="M12.149,111.958H9.194c-0.552,0-1-0.448-1-1v-6.739c0-0.552,0.448-1,1-1h2.956c0.552,0,1,0.448,1,1v6.739
							C13.149,111.51,12.702,111.958,12.149,111.958z M10.194,109.958h0.956v-4.739h-0.956V109.958z"/>
					</g>
				</g>
				<g>
					<g>
						<path class="st5" d="M18.061,111.958h-2.956c-0.552,0-1-0.448-1-1v-10.43c0-0.552,0.448-1,1-1h2.956c0.552,0,1,0.448,1,1
							v10.43C19.061,111.51,18.613,111.958,18.061,111.958z M16.105,109.958h0.956v-8.43h-0.956V109.958z"/>
					</g>
				</g>
				<g>
					<g>
						<path class="st5" d="M23.972,111.958h-2.956c-0.552,0-1-0.448-1-1V97.159c0-0.552,0.448-1,1-1h2.956c0.552,0,1,0.448,1,1
							v13.799C24.972,111.51,24.524,111.958,23.972,111.958z M22.016,109.958h0.956V98.159h-0.956V109.958z"/>
					</g>
				</g>
				<g>
					<g>
						<path class="st5" d="M29.883,111.958h-2.956c-0.552,0-1-0.448-1-1V93.789c0-0.552,0.448-1,1-1h2.956c0.552,0,1,0.448,1,1
							v17.168C30.883,111.51,30.435,111.958,29.883,111.958z M27.927,109.958h0.956V94.789h-0.956V109.958z"/>
					</g>
				</g>
			</g>
			<g>
				<g>
					<path class="st5" d="M29.631,87.634c-0.552,0-1-0.448-1-1v-3.773h-3.79c-0.552,0-1-0.448-1-1s0.448-1,1-1h4.79
						c0.552,0,1,0.448,1,1v4.773C30.631,87.187,30.183,87.634,29.631,87.634z"/>
				</g>
			</g>
			<g>
				<g>
					<path class="st5" d="M9.194,101.233c-0.274,0-0.547-0.112-0.744-0.332c-0.369-0.411-0.335-1.043,0.075-1.412l20.437-18.372
						c0.411-0.37,1.043-0.335,1.412,0.075s0.335,1.043-0.075,1.412L9.862,100.977C9.671,101.148,9.432,101.233,9.194,101.233z"/>
				</g>
			</g>
		</g>
	</g>
</g>
</svg>
