<?xml version="1.0" encoding="utf-8"?>
<!-- Generator: Adobe Illustrator 22.0.0, SVG Export Plug-In . SVG Version: 6.00 Build 0)  -->
<svg version="1.1" id="MARKET_RESEARCH_ICON_SET" xmlns="http://www.w3.org/2000/svg" xmlns:xlink="http://www.w3.org/1999/xlink"
	 x="0px" y="0px" viewBox="0 0 128 128" style="enable-background:new 0 0 128 128;" xml:space="preserve">
<style type="text/css">
	.st0{fill:#C2D5EC;}
	.st1{fill:#61E1FF;}
	.st2{fill:#7184AF;}
	.st3{fill:#F8F8F8;}
	.st4{fill:#3F4D81;}
	.st5{fill:#3F4D80;}
	.st6{fill:#E9EAEB;}
	.st7{fill:#F79559;}
	.st8{fill:#FFA85A;}
</style>
<g>
	<g>
		<g>
			<g>
				<g>
					<path class="st0" d="M38.249,77.705l4.362,2.144l0,0c0,0,6.806,2.551,9.017,8.097c1.961-1.305,3.643-1.939,3.643-1.939l0,0.001
						l4.363-2.144v-3.706c-2.777-1.263-4.895-3.697-5.746-6.664c-5.484,0.265-10.726,0.744-15.64,1.405V77.705z"/>
				</g>
				<g>
					<path class="st0" d="M72.729,86.007L72.729,86.007c0,0,1.682,0.634,3.643,1.939c2.212-5.546,9.017-8.097,9.017-8.097l0,0.001
						l4.363-2.144v-2.807c-4.914-0.661-10.156-1.14-15.641-1.405c-0.851,2.966-2.969,5.399-5.745,6.663v3.707h0L72.729,86.007z"/>
				</g>
				<g>
					<path class="st0" d="M98.484,76.33v1.375h0l4.362,2.144l0,0c0,0,9.719,3.616,9.719,11.643c0,1.448,0.103,3.122,0.194,4.899
						H82.353c0.054,0.409,0.095,0.824,0.095,1.259c0,1.448,0.103,3.122,0.194,4.899H45.358c0.091-1.777,0.194-3.451,0.194-4.899
						c0-0.434,0.041-0.85,0.095-1.259H15.241c0.091-1.777,0.194-3.451,0.194-4.899c0-8.027,9.719-11.643,9.719-11.643l0,0.001
						l4.363-2.144V76.33C12.349,79.701,1,85.514,1,92.124C1,102.549,29.206,111,64,111s63-8.451,63-18.876
						C127,85.514,115.652,79.702,98.484,76.33z"/>
				</g>
			</g>
			<g>
				<ellipse class="st5" cx="64.001" cy="102.549" rx="25.752" ry="5.226"/>
			</g>
			<g>
				<ellipse class="st5" cx="94.118" cy="96.391" rx="25.752" ry="5.226"/>
			</g>
			<g>
				<ellipse class="st5" cx="33.883" cy="96.391" rx="25.752" ry="5.226"/>
			</g>
			<g>
				<path class="st6" d="M89.753,73.996v3.71l4.366,8.234l4.366-8.234v-3.71c-1.332,0.605-2.807,0.95-4.366,0.95
					C92.559,74.946,91.084,74.6,89.753,73.996z"/>
			</g>
			<g>
				<g>
					<path class="st6" d="M59.635,80.153v3.71l4.366,8.234l4.366-8.234v-3.71c-1.332,0.605-2.807,0.95-4.366,0.95
						C62.442,81.104,60.967,80.758,59.635,80.153z"/>
				</g>
				<g>
					<path class="st8" d="M82.448,97.65c0-8.027-9.719-11.643-9.719-11.643l0,0l-4.362-2.144l-4.366,8.234l0.001,0.001L64,92.1
						l-0.001-0.001l0.002-0.002l-4.366-8.234l-4.363,2.144l0-0.001c0,0-9.719,3.616-9.719,11.643c0,1.448-0.103,3.122-0.194,4.899
						h37.284C82.551,100.772,82.448,99.097,82.448,97.65z"/>
				</g>
				<g>
					<path class="st3" d="M48.552,100.634c0-8.027,9.719-11.643,9.719-11.643l0,0.001L61.51,87.4l-1.875-3.537l-4.363,2.144l0-0.001
						c0,0-9.719,3.616-9.719,11.643c0,1.448-0.103,3.122-0.194,4.899h3.147C48.532,101.88,48.552,101.233,48.552,100.634z"/>
				</g>
				<g>
					<path class="st5" d="M56.498,63.727c0-1.975,1.61-3.577,3.596-3.577h7.812c1.986,0,3.596,1.601,3.596,3.577
						c0,5.716,3.486,1.901,3.486,1.901v-5.206c0-8.112-4.429-5.902-4.429-5.902s-0.899-2.21-3.726-2.21h-5.666
						c-4.503,0-8.154,3.631-8.154,8.111v5.207l0,0C53.012,65.628,56.498,69.443,56.498,63.727z"/>
				</g>
				<g>
					<path class="st3" d="M75.326,65.602c-0.116,0-0.228,0.01-0.338,0.026c0,0-3.486,3.815-3.486-1.901
						c0-1.975-1.61-3.577-3.596-3.577h-7.812c-1.986,0-3.596,1.601-3.596,3.577c0,5.716-3.486,1.901-3.486,1.901l0,0v0
						c-0.11-0.016-0.222-0.026-0.338-0.026c0,0-2.054,0-2.054,2.053v2.061c0,1.682,0.921,3.209,3.071,3.532
						c0.045,0.007,0.081,0.009,0.123,0.013c1.179,4.507,5.286,7.84,10.186,7.84c4.9,0,9.007-3.332,10.186-7.84
						c0.042-0.005,0.079-0.007,0.123-0.013c2.15-0.323,3.071-1.85,3.071-3.532v-2.061C77.381,65.602,75.326,65.602,75.326,65.602z"
						/>
				</g>
			</g>
			<g>
				<g>
					<path class="st7" d="M82.353,96.391h30.406c-0.091-1.777-0.194-3.451-0.194-4.899c0-8.027-9.719-11.643-9.719-11.643l0,0
						l-4.362-2.144l-4.366,8.234l0.002,0.001l-0.002,0.002l-0.002-0.001l0.002-0.002l-4.366-8.234l-4.363,2.144l0-0.001
						c0,0-6.806,2.551-9.017,8.097C78.876,89.612,81.825,92.385,82.353,96.391z"/>
				</g>
				<g>
					<path class="st3" d="M89.753,77.705l-4.363,2.144l0-0.001c0,0-6.817,2.54-9.031,8.082c1.037,0.689,2.151,1.569,3.142,2.648
						c2.348-5.309,8.889-7.746,8.889-7.746l0,0.001l3.239-1.592L89.753,77.705z"/>
				</g>
				<g>
					<path class="st5" d="M86.617,57.571c0-1.975,1.61-3.577,3.596-3.577h7.812c1.986,0,3.596,1.601,3.596,3.577
						c0,5.716,3.486,1.901,3.486,1.901v-5.206c0-8.112-4.429-5.902-4.429-5.902s-0.899-2.21-3.726-2.21h-5.666
						c-4.503,0-8.154,3.631-8.154,8.111v5.207l0,0C83.13,59.472,86.617,63.287,86.617,57.571z"/>
				</g>
				<g>
					<path class="st3" d="M105.445,59.446c-0.116,0-0.228,0.01-0.338,0.026c0,0-3.486,3.815-3.486-1.901
						c0-1.975-1.61-3.577-3.596-3.577h-7.812c-1.986,0-3.596,1.601-3.596,3.577c0,5.716-3.486,1.901-3.486,1.901l0,0v0
						c-0.11-0.016-0.222-0.026-0.338-0.026c0,0-2.054,0-2.054,2.053v2.061c0,1.682,0.921,3.209,3.071,3.532
						c0.045,0.007,0.081,0.009,0.123,0.013c1.179,4.507,5.286,7.84,10.186,7.84c4.9,0,9.007-3.332,10.186-7.84
						c0.042-0.005,0.079-0.007,0.123-0.013c2.15-0.323,3.071-1.85,3.071-3.532v-2.061C107.499,59.446,105.445,59.446,105.445,59.446
						z"/>
				</g>
			</g>
			<g>
				<g>
					<path class="st6" d="M29.517,73.996v3.71l4.366,8.234l4.366-8.234v-3.71c-1.332,0.605-2.807,0.95-4.366,0.95
						C32.324,74.946,30.849,74.6,29.517,73.996z"/>
				</g>
				<g>
					<path class="st7" d="M51.629,87.946c-2.212-5.546-9.017-8.097-9.017-8.097l0,0l-4.362-2.144l-4.366,8.234l0.001,0.001
						l-0.002,0.002l-0.001-0.001l0.002-0.002l-4.366-8.234l-4.363,2.144l0-0.001c0,0-9.719,3.616-9.719,11.643
						c0,1.448-0.103,3.122-0.194,4.899h30.406C46.174,92.385,49.124,89.612,51.629,87.946z"/>
				</g>
				<g>
					<path class="st3" d="M18.435,94.476c0-8.027,9.719-11.643,9.719-11.643l0,0.001l3.239-1.592l-1.875-3.537l-4.363,2.144l0-0.001
						c0,0-9.719,3.616-9.719,11.643c0,1.448-0.103,3.122-0.194,4.899h3.147C18.415,95.722,18.435,95.076,18.435,94.476z"/>
				</g>
				<g>
					<path class="st5" d="M26.381,57.571c0-1.975,1.61-3.577,3.596-3.577h7.812c1.986,0,3.596,1.601,3.596,3.577
						c0,5.716,3.486,1.901,3.486,1.901v-5.206c0-8.112-4.429-5.902-4.429-5.902s-0.899-2.21-3.726-2.21h-5.666
						c-4.503,0-8.154,3.631-8.154,8.111v5.207l0,0C22.895,59.472,26.381,63.287,26.381,57.571z"/>
				</g>
				<g>
					<path class="st3" d="M45.209,59.446c-0.116,0-0.228,0.01-0.338,0.026c0,0-3.486,3.815-3.486-1.901
						c0-1.975-1.61-3.577-3.596-3.577h-7.812c-1.986,0-3.596,1.601-3.596,3.577c0,5.716-3.486,1.901-3.486,1.901l0,0v0
						c-0.11-0.016-0.222-0.026-0.338-0.026c0,0-2.054,0-2.054,2.053v2.061c0,1.682,0.921,3.209,3.071,3.532
						c0.045,0.007,0.081,0.009,0.123,0.013c1.179,4.507,5.286,7.84,10.186,7.84c4.9,0,9.007-3.332,10.186-7.84
						c0.042-0.005,0.079-0.007,0.123-0.013c2.15-0.323,3.071-1.85,3.071-3.532v-2.061C47.263,59.446,45.209,59.446,45.209,59.446z"
						/>
				</g>
			</g>
		</g>
		<g>
			<path class="st8" d="M81.322,19.653v17.08c0,1.465-1.194,2.653-2.667,2.653H67.842c-0.749,0-1.464,0.313-1.969,0.864
				l-7.424,8.085v-6.296c0-1.465-1.194-2.653-2.667-2.653h-6.438c-1.473,0-2.667-1.188-2.667-2.653v-17.08
				c0-1.465,1.194-2.653,2.667-2.653h29.311C80.128,17,81.322,18.188,81.322,19.653z"/>
		</g>
		<g>
			<g>
				<rect x="56.316" y="27.422" class="st5" width="4.753" height="7.728"/>
			</g>
			<g>
				<path class="st3" d="M71.684,29.112c0-0.667-0.544-1.208-1.214-1.208c0.71,0,1.277-0.606,1.208-1.326
					c-0.06-0.628-0.626-1.089-1.26-1.089h-3.522V22.67c0-0.793-0.646-1.435-1.443-1.435c-0.702,0-1.3,0.502-1.421,1.19
					c-0.282,1.604-1.04,4.997-2.963,4.997v7.728h9.401c0.67,0,1.214-0.541,1.214-1.208c0-0.667-0.544-1.208-1.214-1.208
					c0.67,0,1.214-0.541,1.214-1.208c0-0.667-0.544-1.208-1.214-1.208C71.141,30.32,71.684,29.779,71.684,29.112z"/>
			</g>
		</g>
		<g>
			<g>
				<rect x="117.294" y="57.286" class="st1" width="9.706" height="6.714"/>
			</g>
			<g>
				<rect x="111.978" y="43.857" class="st1" width="15.022" height="6.714"/>
			</g>
			<g>
				<rect x="107.125" y="30.429" class="st1" width="19.876" height="6.714"/>
			</g>
			<g>
				<rect x="102.271" y="17" class="st1" width="24.729" height="6.714"/>
			</g>
		</g>
		<g>
			<g>
				<rect x="1" y="57.286" class="st1" width="9.706" height="6.714"/>
			</g>
			<g>
				<rect x="1" y="43.857" class="st1" width="15.022" height="6.714"/>
			</g>
			<g>
				<rect x="1" y="30.429" class="st1" width="19.876" height="6.714"/>
			</g>
			<g>
				<rect x="1" y="17" class="st1" width="24.729" height="6.714"/>
			</g>
		</g>
	</g>
	<g>
		<g>
			<g>
				<path class="st5" d="M127,112H1c-0.552,0-1-0.448-1-1s0.448-1,1-1h126c0.552,0,1,0.448,1,1S127.552,112,127,112z"/>
			</g>
		</g>
		<g>
			<g>
				<g>
					<g>
						<path class="st5" d="M51.628,88.946c-0.1,0-0.2-0.015-0.297-0.045c-0.288-0.089-0.52-0.304-0.631-0.584
							c-2.024-5.077-8.375-7.507-8.439-7.531l-4.452-2.182c-0.342-0.168-0.559-0.516-0.559-0.897v-2.807
							c0-0.501,0.371-0.924,0.867-0.991c5.027-0.676,10.317-1.151,15.725-1.413c0.461-0.012,0.882,0.277,1.01,0.723
							c0.768,2.678,2.663,4.876,5.199,6.029c0.357,0.162,0.586,0.518,0.586,0.91v3.706c0,0.381-0.217,0.729-0.559,0.897
							l-4.364,2.144c-0.034,0.017-0.068,0.031-0.103,0.044c-0.113,0.043-1.659,0.653-3.427,1.83
							C52.017,88.889,51.823,88.946,51.628,88.946z M43.037,78.983c1.8,0.572,6.721,3.175,9.02,7.513
							c1.582-0.938,2.8-1.402,2.861-1.425l3.717-1.83v-2.46c-2.539-1.333-4.482-3.558-5.46-6.25
							c-4.776,0.25-9.453,0.667-13.926,1.245v1.307l3.803,1.869L43.037,78.983z"/>
					</g>
				</g>
				<g>
					<g>
						<path class="st5" d="M76.372,88.946c-0.195,0-0.388-0.057-0.554-0.167c-1.833-1.219-3.427-1.831-3.443-1.837
							c-0.029-0.011-0.059-0.023-0.087-0.037l-4.362-2.144c-0.342-0.168-0.559-0.516-0.559-0.897v-3.707
							c0-0.392,0.229-0.748,0.585-0.91c2.535-1.154,4.43-3.352,5.198-6.029c0.128-0.446,0.555-0.733,1.01-0.723
							c5.408,0.262,10.699,0.737,15.726,1.413c0.496,0.067,0.867,0.49,0.867,0.991v2.807c0,0.381-0.217,0.729-0.559,0.897
							l-4.363,2.144c-0.033,0.017-0.067,0.031-0.102,0.043c-0.24,0.092-6.433,2.521-8.428,7.526
							c-0.111,0.28-0.343,0.495-0.631,0.584C76.572,88.931,76.471,88.946,76.372,88.946z M73.153,85.143
							c0.834,0.228,1.965,0.85,2.79,1.349c2.704-5.133,8.818-7.476,9.094-7.579l3.715-1.829v-1.308
							c-4.474-0.577-9.151-0.995-13.927-1.245c-0.978,2.691-2.92,4.917-5.458,6.25v2.46l3.803,1.869L73.153,85.143z"/>
					</g>
				</g>
				<g>
					<g>
						<path class="st5" d="M64,112c-35.888,0-64-8.73-64-19.876c0-7.001,10.688-13.115,29.325-16.776
							c0.294-0.057,0.597,0.02,0.828,0.209c0.231,0.19,0.365,0.474,0.365,0.772v1.376c0,0.381-0.217,0.729-0.559,0.897l-4.363,2.144
							c-0.034,0.017-0.068,0.031-0.104,0.044c-0.3,0.115-9.057,3.542-9.057,10.701c0,1.183-0.066,2.502-0.14,3.899h29.352
							c0.288,0,0.562,0.124,0.752,0.34c0.189,0.217,0.277,0.504,0.24,0.79c-0.06,0.451-0.086,0.799-0.086,1.128
							c0,1.184-0.067,2.503-0.141,3.899h35.176c-0.073-1.396-0.14-2.716-0.14-3.899c0-0.331-0.026-0.678-0.086-1.127
							c-0.038-0.286,0.049-0.574,0.239-0.791c0.189-0.216,0.464-0.341,0.752-0.341h29.353c-0.074-1.396-0.14-2.716-0.14-3.899
							c0-7.227-8.978-10.673-9.069-10.707l-4.453-2.183c-0.342-0.168-0.559-0.516-0.559-0.897l0-1.375
							c0-0.299,0.134-0.583,0.365-0.772c0.23-0.19,0.535-0.267,0.828-0.209C117.312,79.008,128,85.123,128,92.124
							C128,103.27,99.888,112,64,112z M26.828,77.912C11.433,81.321,2,86.676,2,92.124C2,101.814,30.393,110,64,110
							s62-8.186,62-17.876c0-5.448-9.432-10.804-24.828-14.211l2.115,1.039l-0.005,0.011c0.952,0.337,3.125,1.407,5.042,2.912
							c3.429,2.692,5.242,6.018,5.242,9.618c0,1.196,0.073,2.571,0.149,4.027l0.043,0.821c0.014,0.274-0.085,0.541-0.273,0.74
							c-0.189,0.199-0.451,0.311-0.725,0.311H83.444c0.002,0.087,0.004,0.173,0.004,0.258c0,1.187,0.072,2.55,0.148,3.993
							l0.044,0.855c0.014,0.274-0.085,0.542-0.273,0.74c-0.189,0.199-0.451,0.311-0.725,0.311H45.358
							c-0.274,0-0.536-0.112-0.725-0.312c-0.189-0.199-0.288-0.466-0.273-0.74l0.044-0.837c0.077-1.449,0.149-2.819,0.149-4.011
							c0-0.085,0.001-0.171,0.004-0.258H15.241c-0.274,0-0.536-0.112-0.725-0.311c-0.188-0.199-0.288-0.466-0.273-0.74l0.043-0.821
							c0.077-1.456,0.149-2.831,0.149-4.027c0-8.406,9.453-12.229,10.321-12.562L26.828,77.912z"/>
					</g>
				</g>
			</g>
			<g>
				<g>
					<g>
						<g>
							<path class="st5" d="M64.001,93.097c-0.37,0-0.71-0.205-0.883-0.532l-4.366-8.234c-0.077-0.144-0.117-0.305-0.117-0.468
								v-3.71c0-0.34,0.173-0.657,0.458-0.841c0.286-0.184,0.646-0.209,0.955-0.07c2.515,1.143,5.389,1.143,7.905,0
								c0.309-0.14,0.668-0.114,0.955,0.07c0.286,0.184,0.458,0.501,0.458,0.841v3.71c0,0.163-0.04,0.324-0.117,0.468l-4.366,8.234
								C64.711,92.893,64.371,93.097,64.001,93.097z M60.635,83.615l3.366,6.348l3.366-6.348V81.6c-2.182,0.67-4.55,0.67-6.732,0
								V83.615z"/>
						</g>
					</g>
					<g>
						<g>
							<path class="st5" d="M82.642,103.549H45.358c-0.274,0-0.536-0.112-0.725-0.311c-0.189-0.199-0.288-0.466-0.273-0.74
								l0.044-0.837c0.077-1.449,0.149-2.819,0.149-4.011c0-8.406,9.453-12.229,10.32-12.562l4.322-2.122
								c0.483-0.24,1.071-0.049,1.324,0.429l3.483,6.569l3.481-6.569c0.253-0.478,0.84-0.669,1.325-0.429l4.362,2.144l-0.005,0.011
								c0.952,0.337,3.125,1.407,5.042,2.912c3.429,2.692,5.242,6.018,5.242,9.618c0,1.187,0.072,2.55,0.148,3.993l0.044,0.855
								c0.014,0.274-0.085,0.542-0.273,0.74C83.178,103.437,82.916,103.549,82.642,103.549z M46.412,101.549h35.176
								c-0.073-1.396-0.14-2.716-0.14-3.899c0-7.226-8.978-10.672-9.069-10.706l-3.583-1.756l-3.905,7.366
								c-0.039,0.076-0.087,0.147-0.146,0.212c-0.134,0.15-0.313,0.259-0.515,0.307c-0.338,0.081-0.692-0.019-0.938-0.265
								c-0.088-0.087-0.157-0.19-0.207-0.3l-3.88-7.318l-3.494,1.716c-0.034,0.017-0.068,0.031-0.103,0.044
								c-0.292,0.111-9.057,3.539-9.057,10.701C46.552,98.833,46.485,100.152,46.412,101.549z"/>
						</g>
					</g>
					<g>
						<g>
							<path class="st5" d="M64,82.102c-5.027,0-9.45-3.244-10.973-7.966c-2.116-0.518-3.408-2.171-3.408-4.42v-2.061
								c0-1.861,1.262-2.738,2.393-2.98V60.42c0-5.024,4.107-9.111,9.155-9.111h5.666c2.281,0,3.556,1.181,4.173,2.019
								c0.752-0.152,1.728-0.134,2.622,0.419c1.566,0.968,2.36,3.214,2.36,6.675v4.252c1.131,0.243,2.393,1.119,2.393,2.98v2.061
								c0,2.249-1.292,3.901-3.408,4.42C73.45,78.858,69.027,82.102,64,82.102z M52.674,66.602
								c-0.475,0.012-1.055,0.204-1.055,1.053v2.061c0,0.825,0.289,2.253,2.22,2.544c0.409,0.048,0.838,0.351,0.942,0.75
								c1.093,4.176,4.884,7.093,9.219,7.093s8.126-2.917,9.219-7.093c0.104-0.398,0.441-0.692,0.851-0.74
								c2.022-0.3,2.311-1.728,2.311-2.553v-2.061c0-0.977-0.807-1.053-1.055-1.053c-0.068,0-0.133,0.007-0.198,0.017
								c-0.291,0.038-0.578-0.045-0.796-0.235c-0.219-0.19-0.344-0.465-0.344-0.755v-5.206c0-3.568-0.885-4.648-1.412-4.974
								c-0.701-0.434-1.562-0.038-1.57-0.034c-0.25,0.125-0.541,0.138-0.8,0.041c-0.261-0.098-0.468-0.301-0.573-0.559
								c-0.024-0.055-0.714-1.587-2.8-1.587h-5.666c-3.945,0-7.155,3.19-7.155,7.111v5.208c0,0.29-0.125,0.565-0.345,0.755
								s-0.511,0.274-0.796,0.235C52.807,66.609,52.741,66.602,52.674,66.602z"/>
						</g>
					</g>
					<g>
						<g>
							<path class="st5" d="M72.869,67.875c-0.238,0-0.479-0.04-0.718-0.133c-1.649-0.64-1.649-3.18-1.649-4.015
								c0-1.421-1.165-2.577-2.596-2.577h-7.812c-1.431,0-2.596,1.156-2.596,2.577c0,0.835,0,3.375-1.649,4.016
								c-1.588,0.612-3.257-1.092-3.575-1.44c-0.373-0.408-0.344-1.04,0.064-1.413c0.407-0.372,1.038-0.344,1.411,0.062l0,0
								c0.491,0.532,1.157,0.946,1.387,0.923c-0.009-0.003,0.362-0.356,0.362-2.147c0-2.523,2.062-4.577,4.596-4.577h7.812
								c2.534,0,4.596,2.053,4.596,4.577c0,1.821,0.383,2.155,0.387,2.158c0.22,0.029,0.921-0.45,1.361-0.932
								c0.372-0.408,1.004-0.437,1.413-0.063c0.408,0.373,0.436,1.005,0.063,1.413C75.456,66.599,74.21,67.875,72.869,67.875z"/>
						</g>
					</g>
				</g>
				<g>
					<g>
						<g>
							<path class="st5" d="M94.118,86.939c-0.37,0-0.71-0.205-0.883-0.532l-4.366-8.234c-0.077-0.144-0.117-0.305-0.117-0.468
								v-3.71c0-0.34,0.173-0.657,0.458-0.841c0.287-0.183,0.646-0.208,0.955-0.07c2.516,1.143,5.389,1.143,7.904,0
								c0.309-0.139,0.669-0.114,0.955,0.07s0.458,0.501,0.458,0.841v3.71c0,0.163-0.04,0.324-0.117,0.468l-4.366,8.234
								C94.828,86.735,94.488,86.939,94.118,86.939z M90.752,77.457l3.366,6.348l3.366-6.348v-2.015c-2.182,0.67-4.55,0.67-6.731,0
								V77.457z"/>
						</g>
					</g>
					<g>
						<g>
							<path class="st5" d="M112.759,97.391H82.353c-0.502,0-0.926-0.372-0.991-0.87c-0.483-3.672-3.282-6.237-5.544-7.743
								c-0.394-0.262-0.55-0.764-0.375-1.203c2.348-5.889,9.3-8.552,9.595-8.663l4.274-2.104c0.483-0.24,1.071-0.049,1.324,0.429
								l3.483,6.569l3.481-6.569c0.253-0.478,0.84-0.669,1.325-0.429l4.362,2.144l-0.005,0.011c0.952,0.337,3.125,1.407,5.042,2.912
								c3.429,2.692,5.242,6.018,5.242,9.618c0,1.196,0.073,2.571,0.149,4.027l0.043,0.821c0.014,0.274-0.084,0.541-0.273,0.74
								C113.295,97.279,113.033,97.391,112.759,97.391z M83.193,95.391h28.513c-0.074-1.396-0.14-2.716-0.14-3.899
								c0-7.249-8.977-10.672-9.068-10.707c-0.031-0.011-0.062-0.025-0.092-0.04l-3.492-1.715l-3.905,7.364
								c-0.12,0.234-0.328,0.416-0.585,0.498c-0.357,0.116-0.748,0.021-1.013-0.244c-0.086-0.086-0.155-0.186-0.204-0.294
								l-3.883-7.324l-3.493,1.716c-0.033,0.017-0.067,0.031-0.102,0.043c-0.234,0.09-5.841,2.291-8.105,6.808
								C79.898,89.253,82.414,91.818,83.193,95.391z"/>
						</g>
					</g>
					<g>
						<g>
							<path class="st5" d="M94.118,75.944c-5.027,0-9.45-3.244-10.973-7.965c-2.115-0.518-3.408-2.171-3.408-4.421v-2.061
								c0-1.862,1.262-2.738,2.393-2.98v-4.254c0-5.024,4.106-9.111,9.154-9.111h5.666c2.281,0,3.556,1.181,4.174,2.019
								c0.751-0.151,1.729-0.134,2.622,0.418c1.566,0.969,2.36,3.214,2.36,6.675v4.253c1.131,0.243,2.393,1.119,2.393,2.98v2.061
								c0,2.249-1.292,3.901-3.408,4.42C103.567,72.7,99.145,75.944,94.118,75.944z M82.791,60.444
								c-0.475,0.012-1.054,0.204-1.054,1.053v2.061c0,0.825,0.289,2.253,2.22,2.544c0.409,0.048,0.838,0.351,0.942,0.75
								c1.093,4.176,4.884,7.093,9.219,7.093s8.126-2.917,9.219-7.093c0.104-0.399,0.442-0.693,0.852-0.74
								c2.021-0.3,2.31-1.728,2.31-2.553v-2.061c0-0.977-0.807-1.053-1.054-1.053c-0.067,0-0.133,0.007-0.198,0.017
								c-0.285,0.04-0.577-0.045-0.796-0.235c-0.219-0.19-0.345-0.466-0.345-0.755v-5.207c0-3.55-0.877-4.635-1.4-4.966
								c-0.705-0.447-1.583-0.041-1.592-0.037c-0.25,0.118-0.542,0.13-0.795,0.03c-0.256-0.1-0.465-0.298-0.568-0.553
								c-0.024-0.055-0.714-1.587-2.8-1.587h-5.666c-3.945,0-7.154,3.19-7.154,7.111v5.208c0,0.29-0.125,0.565-0.345,0.755
								c-0.219,0.19-0.51,0.274-0.796,0.235C82.924,60.451,82.859,60.444,82.791,60.444z"/>
						</g>
					</g>
					<g>
						<g>
							<path class="st5" d="M102.986,61.717c-0.238,0-0.479-0.04-0.718-0.133c-1.649-0.64-1.649-3.18-1.649-4.015
								c0-1.421-1.165-2.577-2.596-2.577h-7.812c-1.431,0-2.596,1.156-2.596,2.577c0,0.835,0,3.375-1.649,4.015
								c-1.591,0.614-3.257-1.091-3.575-1.439c-0.373-0.408-0.344-1.041,0.063-1.413c0.407-0.373,1.039-0.343,1.412,0.062
								c0.492,0.533,1.184,0.951,1.387,0.922c-0.009-0.003,0.362-0.355,0.362-2.147c0-2.523,2.062-4.577,4.596-4.577h7.812
								c2.534,0,4.596,2.053,4.596,4.577c0,1.821,0.383,2.155,0.387,2.158c0.211,0.022,0.921-0.451,1.361-0.932
								c0.372-0.408,1.005-0.437,1.413-0.063c0.408,0.373,0.436,1.005,0.063,1.413C105.573,60.441,104.328,61.717,102.986,61.717z"
								/>
						</g>
					</g>
				</g>
				<g>
					<g>
						<g>
							<path class="st5" d="M33.883,86.939c-0.37,0-0.71-0.205-0.883-0.532l-4.366-8.234c-0.077-0.144-0.117-0.305-0.117-0.468
								v-3.71c0-0.34,0.173-0.657,0.458-0.841c0.287-0.183,0.646-0.208,0.955-0.07c2.516,1.143,5.389,1.143,7.904,0
								c0.309-0.139,0.668-0.114,0.955,0.07c0.286,0.184,0.458,0.501,0.458,0.841v3.71c0,0.163-0.04,0.324-0.117,0.468l-4.366,8.234
								C34.593,86.735,34.253,86.939,33.883,86.939z M30.518,77.457l3.366,6.348l3.366-6.348v-2.015c-2.182,0.67-4.55,0.67-6.731,0
								V77.457z"/>
						</g>
					</g>
					<g>
						<g>
							<path class="st5" d="M45.646,97.391H15.241c-0.274,0-0.536-0.112-0.725-0.311c-0.189-0.199-0.288-0.466-0.273-0.74
								l0.043-0.821c0.077-1.456,0.149-2.831,0.149-4.027c0-8.406,9.452-12.229,10.321-12.562l4.321-2.122
								c0.483-0.24,1.071-0.049,1.324,0.429l3.483,6.569l3.481-6.569c0.253-0.478,0.841-0.669,1.325-0.429l4.362,2.144l-0.015,0.031
								c1.945,0.619,7.532,3.606,9.52,8.592c0.175,0.439,0.019,0.941-0.375,1.203c-2.263,1.506-5.061,4.071-5.545,7.744
								C46.572,97.019,46.148,97.391,45.646,97.391z M16.294,95.391h28.512c0.78-3.573,3.295-6.138,5.57-7.792
								c-2.301-4.588-8.056-6.791-8.117-6.813l-3.582-1.755l-3.906,7.366c-0.039,0.076-0.087,0.147-0.145,0.211
								c-0.135,0.15-0.313,0.259-0.515,0.307c-0.339,0.081-0.692-0.019-0.938-0.265c-0.088-0.088-0.157-0.19-0.207-0.3l-3.88-7.318
								l-3.493,1.716c-0.034,0.017-0.068,0.031-0.103,0.044c-0.294,0.112-9.058,3.54-9.058,10.701
								C16.435,92.675,16.368,93.995,16.294,95.391z"/>
						</g>
					</g>
					<g>
						<g>
							<path class="st5" d="M33.882,75.944c-5.027,0-9.45-3.244-10.972-7.965c-2.115-0.518-3.408-2.171-3.408-4.421v-2.061
								c0-1.862,1.262-2.738,2.393-2.98v-4.254c0-5.024,4.106-9.111,9.154-9.111h5.666c2.281,0,3.556,1.181,4.174,2.019
								c0.75-0.152,1.728-0.135,2.622,0.418c1.566,0.969,2.36,3.214,2.36,6.675v4.253c1.131,0.243,2.393,1.119,2.393,2.98v2.061
								c0,2.249-1.292,3.901-3.408,4.42C43.332,72.7,38.91,75.944,33.882,75.944z M22.556,60.444
								c-0.475,0.012-1.054,0.204-1.054,1.053v2.061c0,0.825,0.289,2.253,2.22,2.544c0.396,0.06,0.841,0.362,0.942,0.75
								c1.092,4.176,4.883,7.093,9.219,7.093s8.126-2.917,9.219-7.093c0.104-0.398,0.441-0.692,0.851-0.74
								c2.022-0.3,2.311-1.728,2.311-2.553v-2.061c0-0.977-0.807-1.053-1.054-1.053c-0.068,0-0.133,0.007-0.198,0.017
								c-0.287,0.04-0.577-0.045-0.796-0.235s-0.345-0.466-0.345-0.755v-5.207c0-3.55-0.877-4.635-1.4-4.966
								c-0.705-0.447-1.583-0.041-1.592-0.037c-0.249,0.118-0.539,0.13-0.795,0.03c-0.256-0.1-0.465-0.298-0.568-0.552
								c-0.024-0.055-0.714-1.587-2.8-1.587h-5.666c-3.945,0-7.154,3.19-7.154,7.111v5.208c0,0.29-0.125,0.565-0.345,0.755
								s-0.509,0.274-0.796,0.235C22.689,60.451,22.624,60.444,22.556,60.444z"/>
						</g>
					</g>
					<g>
						<g>
							<path class="st5" d="M42.751,61.717c-0.238,0-0.479-0.04-0.718-0.133c-1.649-0.64-1.649-3.18-1.649-4.015
								c0-1.421-1.165-2.577-2.596-2.577h-7.812c-1.431,0-2.596,1.156-2.596,2.577c0,0.835,0,3.375-1.649,4.015
								c-1.589,0.614-3.257-1.091-3.575-1.439c-0.373-0.408-0.344-1.041,0.063-1.413c0.408-0.373,1.04-0.343,1.412,0.062
								c0.492,0.533,1.183,0.951,1.387,0.922c-0.009-0.003,0.362-0.355,0.362-2.147c0-2.523,2.062-4.577,4.596-4.577h7.812
								c2.534,0,4.596,2.053,4.596,4.577c0,1.821,0.383,2.155,0.387,2.158c0.207,0.022,0.921-0.451,1.361-0.932
								c0.372-0.408,1.005-0.437,1.413-0.063c0.408,0.373,0.436,1.005,0.063,1.413C45.338,60.441,44.093,61.717,42.751,61.717z"/>
						</g>
					</g>
				</g>
			</g>
		</g>
		<g>
			<g>
				<path class="st5" d="M58.449,49.333c-0.122,0-0.245-0.022-0.363-0.068c-0.384-0.149-0.637-0.52-0.637-0.932v-6.296
					c0-0.911-0.748-1.653-1.667-1.653h-6.438c-2.021,0-3.667-1.639-3.667-3.652v-17.08c0-2.014,1.645-3.652,3.667-3.652h29.312
					c2.021,0,3.667,1.639,3.667,3.652v17.08c0,2.014-1.645,3.652-3.667,3.652H67.842c-0.468,0-0.917,0.197-1.232,0.54l-7.424,8.085
					C58.993,49.22,58.724,49.333,58.449,49.333z M49.344,18c-0.919,0-1.667,0.741-1.667,1.652v17.08
					c0,0.911,0.748,1.652,1.667,1.652h6.438c2.021,0,3.667,1.639,3.667,3.653v3.729l5.688-6.194
					c0.693-0.755,1.679-1.188,2.705-1.188h10.813c0.919,0,1.667-0.741,1.667-1.652v-17.08c0-0.911-0.748-1.652-1.667-1.652H49.344z"
					/>
			</g>
		</g>
		<g>
			<g>
				<g>
					<path class="st5" d="M61.069,36.15h-4.753c-0.552,0-1-0.448-1-1v-7.729c0-0.552,0.448-1,1-1h4.753c0.552,0,1,0.448,1,1v7.729
						C62.069,35.702,61.621,36.15,61.069,36.15z M57.316,34.15h2.753v-5.729h-2.753V34.15z"/>
				</g>
			</g>
			<g>
				<g>
					<path class="st5" d="M70.47,36.15h-9.401c-0.552,0-1-0.448-1-1v-7.729c0-0.552,0.448-1,1-1c0.574,0,1.436-1.092,1.979-4.17
						c0.205-1.168,1.217-2.017,2.406-2.017c1.347,0,2.443,1.093,2.443,2.436v1.819h2.522c1.157,0,2.148,0.875,2.256,1.993
						c0.048,0.504-0.079,1.006-0.351,1.423c0.228,0.347,0.361,0.762,0.361,1.207s-0.133,0.86-0.361,1.208
						c0.229,0.347,0.361,0.762,0.361,1.208s-0.133,0.86-0.361,1.208c0.229,0.347,0.361,0.762,0.361,1.208
						C72.684,35.16,71.691,36.15,70.47,36.15z M62.069,34.15h8.401c0.118,0,0.214-0.093,0.214-0.208s-0.096-0.208-0.214-0.208
						c-0.552,0-1-0.448-1-1s0.448-1,1-1c0.118,0,0.214-0.093,0.214-0.208s-0.096-0.208-0.214-0.208c-0.552,0-1-0.448-1-1
						s0.448-1,1-1c0.118,0,0.214-0.093,0.214-0.208c0-0.115-0.096-0.208-0.214-0.208c-0.552,0-1-0.448-1-1s0.448-1,1-1
						c0.084,0,0.137-0.044,0.161-0.071c0.041-0.044,0.058-0.098,0.052-0.16c-0.009-0.098-0.133-0.185-0.265-0.185h-3.522
						c-0.552,0-1-0.448-1-1V22.67c0-0.24-0.199-0.436-0.443-0.436c-0.216,0-0.399,0.152-0.436,0.363
						c-0.557,3.16-1.546,5.045-2.948,5.628V34.15z"/>
				</g>
			</g>
		</g>
		<g>
			<g>
				<g>
					<path class="st5" d="M127,65h-9.707c-0.552,0-1-0.448-1-1v-6.714c0-0.552,0.448-1,1-1H127c0.552,0,1,0.448,1,1V64
						C128,64.552,127.552,65,127,65z M118.293,63H126v-4.714h-7.707V63z"/>
				</g>
			</g>
			<g>
				<g>
					<path class="st5" d="M127,51.571h-15.022c-0.552,0-1-0.448-1-1v-6.714c0-0.552,0.448-1,1-1H127c0.552,0,1,0.448,1,1v6.714
						C128,51.124,127.552,51.571,127,51.571z M112.978,49.571H126v-4.714h-13.022V49.571z"/>
				</g>
			</g>
			<g>
				<g>
					<path class="st5" d="M127,38.143h-19.875c-0.552,0-1-0.448-1-1v-6.714c0-0.552,0.448-1,1-1H127c0.552,0,1,0.448,1,1v6.714
						C128,37.695,127.552,38.143,127,38.143z M108.125,36.143H126v-4.714h-17.875V36.143z"/>
				</g>
			</g>
			<g>
				<g>
					<path class="st5" d="M127,24.714h-24.729c-0.552,0-1-0.448-1-1V17c0-0.552,0.448-1,1-1H127c0.552,0,1,0.448,1,1v6.714
						C128,24.267,127.552,24.714,127,24.714z M103.271,22.714H126V18h-22.729V22.714z"/>
				</g>
			</g>
		</g>
		<g>
			<g>
				<g>
					<path class="st5" d="M10.707,65H1c-0.552,0-1-0.448-1-1v-6.714c0-0.552,0.448-1,1-1h9.707c0.552,0,1,0.448,1,1V64
						C11.707,64.552,11.259,65,10.707,65z M2,63h7.707v-4.714H2V63z"/>
				</g>
			</g>
			<g>
				<g>
					<path class="st5" d="M16.022,51.571H1c-0.552,0-1-0.448-1-1v-6.714c0-0.552,0.448-1,1-1h15.022c0.552,0,1,0.448,1,1v6.714
						C17.022,51.124,16.575,51.571,16.022,51.571z M2,49.571h13.022v-4.714H2V49.571z"/>
				</g>
			</g>
			<g>
				<g>
					<path class="st5" d="M20.875,38.143H1c-0.552,0-1-0.448-1-1v-6.714c0-0.552,0.448-1,1-1h19.875c0.552,0,1,0.448,1,1v6.714
						C21.875,37.695,21.428,38.143,20.875,38.143z M2,36.143h17.875v-4.714H2V36.143z"/>
				</g>
			</g>
			<g>
				<g>
					<path class="st5" d="M25.729,24.714H1c-0.552,0-1-0.448-1-1V17c0-0.552,0.448-1,1-1h24.729c0.552,0,1,0.448,1,1v6.714
						C26.729,24.267,26.281,24.714,25.729,24.714z M2,22.714h22.729V18H2V22.714z"/>
				</g>
			</g>
		</g>
	</g>
</g>
</svg>
