<?xml version="1.0" encoding="utf-8"?>
<!-- Generator: Adobe Illustrator 22.0.0, SVG Export Plug-In . SVG Version: 6.00 Build 0)  -->
<svg version="1.1" id="MARKET_RESEARCH_ICON_SET" xmlns="http://www.w3.org/2000/svg" xmlns:xlink="http://www.w3.org/1999/xlink"
	 x="0px" y="0px" viewBox="0 0 128 128" style="enable-background:new 0 0 128 128;" xml:space="preserve">
<style type="text/css">
	.st0{fill:#C2D5EC;}
	.st1{fill:#61E1FF;}
	.st2{fill:#7184AF;}
	.st3{fill:#F8F8F8;}
	.st4{fill:#3F4D81;}
	.st5{fill:#3F4D80;}
	.st6{fill:#E9EAEB;}
	.st7{fill:#F79559;}
	.st8{fill:#FFA85A;}
</style>
<g>
	<g>
		<g>
			<ellipse class="st0" cx="64" cy="68.752" rx="47.184" ry="47.023"/>
		</g>
		<g>
			<path class="st5" d="M100.901,97.255c-1.184-1.18-2.932-1.435-4.374-0.789l0,0l-5.963-5.943
				c4.075-5.085,6.516-11.527,6.516-18.541c0-16.428-13.363-29.745-29.847-29.745S37.387,55.554,37.387,71.982
				c0,16.428,13.363,29.745,29.847,29.745c7.038,0,13.502-2.433,18.605-6.494l5.963,5.943c0.001-0.001,0.001-0.002,0.002-0.004
				c-0.651,1.437-0.395,3.182,0.79,4.362l0.446,0.444c3.177-2.314,6.058-5.008,8.563-8.025L100.901,97.255z M67.234,95.256
				c-12.898,0-23.354-10.42-23.354-23.274c0-12.854,10.456-23.274,23.354-23.274s23.354,10.42,23.354,23.274
				C90.588,84.836,80.132,95.256,67.234,95.256z"/>
		</g>
		<g>
			<g>
				<path class="st5" d="M93.04,106.979c-0.257,0-0.512-0.099-0.705-0.292l-0.446-0.445c-1.263-1.258-1.724-3.118-1.243-4.808
					l-4.891-4.873c-5.375,4.037-11.759,6.166-18.521,6.166c-17.009,0-30.848-13.792-30.848-30.745s13.838-30.745,30.848-30.745
					c17.009,0,30.847,13.792,30.847,30.745c0,6.739-2.135,13.101-6.184,18.457l4.889,4.871c1.694-0.482,3.56-0.022,4.821,1.235l0,0
					l0.701,0.699c0.366,0.365,0.394,0.95,0.063,1.348c-2.545,3.064-5.486,5.821-8.743,8.194
					C93.452,106.916,93.246,106.979,93.04,106.979z M92.715,101.585L92.715,101.585c-0.472,1.041-0.301,2.223,0.428,3.071
					c2.604-1.97,4.986-4.2,7.101-6.645l-0.048-0.047c-0.86-0.858-2.14-1.086-3.258-0.585c-0.379,0.168-0.821,0.089-1.115-0.204
					l-5.964-5.943c-0.361-0.361-0.394-0.936-0.074-1.335c4.119-5.141,6.297-11.336,6.297-17.915c0-15.85-12.94-28.744-28.847-28.744
					c-15.907,0-28.848,12.894-28.848,28.744s12.941,28.744,28.848,28.744c6.604,0,12.821-2.17,17.982-6.277
					c0.395-0.316,0.967-0.286,1.328,0.074l5.899,5.88c0.222,0.185,0.359,0.463,0.359,0.768
					C92.804,101.315,92.772,101.456,92.715,101.585z M67.234,96.257c-13.429,0-24.354-10.89-24.354-24.275
					s10.925-24.275,24.354-24.275c13.429,0,24.354,10.89,24.354,24.275S80.663,96.257,67.234,96.257z M67.234,49.708
					c-12.326,0-22.354,9.992-22.354,22.274s10.028,22.274,22.354,22.274s22.354-9.992,22.354-22.274S79.561,49.708,67.234,49.708z"
					/>
			</g>
		</g>
		<g>
			<g>
				<g>
					<polygon class="st8" points="41.864,16.08 44.313,21.025 49.788,21.818 45.826,25.667 46.761,31.102 41.864,28.536 
						36.966,31.102 37.901,25.667 33.939,21.818 39.415,21.025 					"/>
				</g>
			</g>
			<g>
				<g>
					<polygon class="st8" points="19.216,20.184 21.665,25.129 27.14,25.922 23.178,29.771 24.113,35.206 19.216,32.64 
						14.318,35.206 15.253,29.771 11.291,25.922 16.767,25.129 					"/>
				</g>
			</g>
			<g>
				<g>
					<polygon class="st8" points="64,11.977 66.449,16.921 71.925,17.714 67.962,21.564 68.898,26.999 64,24.433 59.102,26.999 
						60.038,21.564 56.075,17.714 61.551,16.921 					"/>
				</g>
			</g>
			<g>
				<g>
					<polygon class="st8" points="86.136,16.08 88.585,21.025 94.061,21.818 90.099,25.667 91.034,31.102 86.136,28.536 
						81.239,31.102 82.174,25.667 78.212,21.818 83.687,21.025 					"/>
				</g>
			</g>
			<g>
				<g>
					<polygon class="st8" points="108.784,20.184 111.233,25.129 116.709,25.922 112.747,29.771 113.682,35.206 108.784,32.64 
						103.887,35.206 104.822,29.771 100.86,25.922 106.335,25.129 					"/>
				</g>
			</g>
		</g>
		<g>
			<g>
				<g>
					<g>
						<path class="st6" d="M10.97,63.075v2.596l3.049,5.761l3.049-5.761v-2.596c-0.93,0.423-1.96,0.665-3.049,0.665
							C12.93,63.739,11.9,63.498,10.97,63.075z"/>
					</g>
				</g>
				<g>
					<g>
						<path class="st1" d="M26.902,75.316c0-5.616-6.787-8.146-6.787-8.146l0,0l-3.046-1.5l-3.049,5.761l0.001,0.001l-0.002,0.001
							l-0.001-0.001l0.002-0.001l-3.049-5.761l-3.047,1.5l0-0.001c0,0-6.787,2.53-6.787,8.146c0,1.013-0.072,2.185-0.135,3.428
							h26.038C26.974,77.501,26.902,76.329,26.902,75.316z"/>
					</g>
				</g>
				<g>
					<g>
						<path class="st5" d="M8.78,51.582c0-1.382,1.124-2.503,2.511-2.503h5.456c1.387,0,2.511,1.12,2.511,2.503
							c0,3.999,2.435,1.33,2.435,1.33v-3.643c0-5.676-3.093-4.13-3.093-4.13s-0.628-1.546-2.602-1.546H12.04
							c-3.145,0-5.695,2.541-5.695,5.675v3.643l0,0C6.345,52.911,8.78,55.581,8.78,51.582z"/>
					</g>
				</g>
				<g>
					<g>
						<path class="st3" d="M21.929,52.893c-0.081,0-0.159,0.007-0.236,0.018c0,0-2.435,2.669-2.435-1.33
							c0-1.382-1.124-2.503-2.511-2.503h-5.456c-1.387,0-2.511,1.12-2.511,2.503c0,3.999-2.435,1.33-2.435,1.33l0,0v0
							C6.268,52.9,6.19,52.893,6.109,52.893c0,0-1.435,0-1.435,1.436v1.442c0,1.177,0.643,2.245,2.145,2.472
							c0.031,0.005,0.057,0.006,0.086,0.009c0.823,3.154,3.691,5.485,7.114,5.485c3.422,0,6.29-2.332,7.114-5.485
							c0.029-0.003,0.055-0.005,0.086-0.009c1.502-0.226,2.145-1.294,2.145-2.472V54.33C23.363,52.893,21.929,52.893,21.929,52.893z
							"/>
					</g>
				</g>
			</g>
			<g>
				<g>
					<g>
						<path class="st6" d="M33.487,68.186v3.289l3.863,7.3l3.863-7.3v-3.289c-1.178,0.536-2.484,0.842-3.863,0.842
							C35.97,69.028,34.665,68.722,33.487,68.186z"/>
					</g>
				</g>
				<g>
					<g>
						<path class="st2" d="M53.674,83.697c0-7.116-8.6-10.322-8.6-10.322l0,0l-3.86-1.9l-3.863,7.3l0.001,0.001l-0.002,0.002
							l-0.001-0.001l0.002-0.002l-3.863-7.3l-3.861,1.901l0-0.001c0,0-8.6,3.206-8.6,10.322c0,1.283-0.091,2.768-0.172,4.343h32.992
							C53.765,86.465,53.674,84.981,53.674,83.697z"/>
					</g>
				</g>
				<g>
					<g>
						<path class="st5" d="M30.711,53.623c0-1.751,1.424-3.171,3.182-3.171h6.913c1.757,0,3.182,1.42,3.182,3.171
							c0,5.067,3.085,1.685,3.085,1.685v-4.616c0-7.192-3.919-5.233-3.919-5.233s-0.795-1.959-3.297-1.959h-5.014
							c-3.985,0-7.216,3.219-7.216,7.191v4.617l0,0C27.626,55.308,30.711,58.691,30.711,53.623z"/>
					</g>
				</g>
				<g>
					<g>
						<path class="st3" d="M47.372,55.285c-0.103,0-0.202,0.009-0.299,0.023c0,0-3.085,3.382-3.085-1.685
							c0-1.751-1.425-3.171-3.182-3.171h-6.913c-1.757,0-3.182,1.42-3.182,3.171c0,5.067-3.085,1.685-3.085,1.685l0,0v0
							c-0.097-0.014-0.197-0.023-0.299-0.023c0,0-1.818,0-1.818,1.82v1.827c0,1.492,0.815,2.845,2.718,3.132
							c0.039,0.006,0.072,0.008,0.109,0.012c1.043,3.996,4.677,6.95,9.014,6.95c4.336,0,7.971-2.954,9.014-6.95
							c0.037-0.004,0.07-0.006,0.109-0.012c1.903-0.287,2.718-1.64,2.718-3.132v-1.827C49.19,55.285,47.372,55.285,47.372,55.285z"
							/>
					</g>
				</g>
			</g>
			<g>
				<g>
					<g>
						<path class="st6" d="M110.933,63.075v2.596l3.049,5.761l3.049-5.761v-2.596c-0.93,0.423-1.96,0.665-3.049,0.665
							C112.893,63.739,111.863,63.498,110.933,63.075z"/>
					</g>
				</g>
				<g>
					<g>
						<path class="st1" d="M126.865,75.316c0-5.616-6.787-8.146-6.787-8.146l0,0l-3.046-1.5l-3.049,5.761l0.001,0.001l-0.002,0.001
							l-0.001-0.001l0.002-0.001l-3.049-5.761l-3.047,1.5l0-0.001c0,0-6.787,2.53-6.787,8.146c0,1.013-0.072,2.185-0.135,3.428H127
							C126.936,77.501,126.865,76.329,126.865,75.316z"/>
					</g>
				</g>
				<g>
					<g>
						<path class="st5" d="M108.742,51.582c0-1.382,1.124-2.503,2.511-2.503h5.456c1.387,0,2.511,1.12,2.511,2.503
							c0,3.999,2.435,1.33,2.435,1.33v-3.643c0-5.676-3.093-4.13-3.093-4.13s-0.628-1.546-2.602-1.546h-3.957
							c-3.145,0-5.695,2.541-5.695,5.675v3.643l0,0C106.308,52.911,108.742,55.581,108.742,51.582z"/>
					</g>
				</g>
				<g>
					<g>
						<path class="st3" d="M121.891,52.893c-0.081,0-0.159,0.007-0.236,0.018c0,0-2.435,2.669-2.435-1.33
							c0-1.382-1.124-2.503-2.511-2.503h-5.456c-1.387,0-2.511,1.12-2.511,2.503c0,3.999-2.435,1.33-2.435,1.33l0,0v0
							c-0.077-0.011-0.155-0.018-0.236-0.018c0,0-1.435,0-1.435,1.436v1.442c0,1.177,0.643,2.245,2.145,2.472
							c0.031,0.005,0.057,0.006,0.086,0.009c0.823,3.154,3.691,5.485,7.114,5.485c3.422,0,6.29-2.332,7.114-5.485
							c0.029-0.003,0.055-0.005,0.086-0.009c1.502-0.226,2.145-1.294,2.145-2.472V54.33
							C123.326,52.893,121.891,52.893,121.891,52.893z"/>
					</g>
				</g>
			</g>
			<g>
				<g>
					<g>
						<path class="st6" d="M86.788,68.186v3.289l3.863,7.3l3.863-7.3v-3.289c-1.178,0.536-2.484,0.842-3.863,0.842
							C89.272,69.028,87.966,68.722,86.788,68.186z"/>
					</g>
				</g>
				<g>
					<g>
						<path class="st2" d="M106.975,83.697c0-7.116-8.6-10.322-8.6-10.322l0,0l-3.86-1.9l-3.863,7.3l0.001,0.001l-0.002,0.002
							l-0.001-0.001l0.002-0.002l-3.863-7.3l-3.861,1.901l0-0.001c0,0-8.6,3.206-8.6,10.322c0,1.283-0.091,2.768-0.172,4.343h32.992
							C107.066,86.465,106.975,84.981,106.975,83.697z"/>
					</g>
				</g>
				<g>
					<g>
						<path class="st5" d="M84.013,53.623c0-1.751,1.424-3.171,3.182-3.171h6.913c1.757,0,3.182,1.42,3.182,3.171
							c0,5.067,3.085,1.685,3.085,1.685v-4.616c0-7.192-3.919-5.233-3.919-5.233s-0.795-1.959-3.297-1.959h-5.014
							c-3.985,0-7.216,3.219-7.216,7.191v4.617l0,0C80.928,55.308,84.013,58.691,84.013,53.623z"/>
					</g>
				</g>
				<g>
					<g>
						<path class="st3" d="M100.673,55.285c-0.103,0-0.202,0.009-0.299,0.023c0,0-3.085,3.382-3.085-1.685
							c0-1.751-1.425-3.171-3.182-3.171h-6.913c-1.757,0-3.182,1.42-3.182,3.171c0,5.067-3.085,1.685-3.085,1.685l0,0v0
							c-0.097-0.014-0.197-0.023-0.299-0.023c0,0-1.818,0-1.818,1.82v1.827c0,1.492,0.815,2.845,2.718,3.132
							c0.039,0.006,0.072,0.008,0.109,0.012c1.043,3.996,4.677,6.95,9.014,6.95c4.336,0,7.971-2.954,9.014-6.95
							c0.037-0.004,0.07-0.006,0.109-0.012c1.903-0.287,2.718-1.64,2.718-3.132v-1.827
							C102.491,55.285,100.673,55.285,100.673,55.285z"/>
					</g>
				</g>
			</g>
			<g>
				<g>
					<g>
						<path class="st6" d="M60.138,73.645v3.289l3.863,7.3l3.863-7.3v-3.289c-1.178,0.536-2.484,0.842-3.863,0.842
							C62.621,74.488,61.316,74.181,60.138,73.645z"/>
					</g>
				</g>
				<g>
					<g>
						<path class="st8" d="M80.324,89.156c0-7.116-8.6-10.322-8.6-10.322l0,0l-3.86-1.9l-3.863,7.3l0.001,0.001L64,84.236
							l-0.001-0.001l0.002-0.002l-3.863-7.3l-3.861,1.901l0-0.001c0,0-8.6,3.206-8.6,10.322c0,1.283-0.091,2.768-0.172,4.343h32.992
							C80.415,91.924,80.324,90.44,80.324,89.156z"/>
					</g>
				</g>
				<g>
					<g>
						<path class="st5" d="M57.362,59.082c0-1.751,1.424-3.171,3.182-3.171h6.913c1.757,0,3.182,1.42,3.182,3.171
							c0,5.067,3.085,1.685,3.085,1.685v-4.616c0-7.192-3.919-5.233-3.919-5.233s-0.795-1.959-3.297-1.959h-5.014
							c-3.985,0-7.216,3.219-7.216,7.191v4.617l0,0C54.277,60.768,57.362,64.15,57.362,59.082z"/>
					</g>
				</g>
				<g>
					<g>
						<path class="st3" d="M74.023,60.744c-0.103,0-0.202,0.009-0.299,0.023c0,0-3.085,3.382-3.085-1.685
							c0-1.751-1.425-3.171-3.182-3.171h-6.913c-1.757,0-3.182,1.42-3.182,3.171c0,5.067-3.085,1.685-3.085,1.685l0,0v0
							c-0.097-0.014-0.197-0.023-0.299-0.023c0,0-1.818,0-1.818,1.82v1.827c0,1.492,0.815,2.845,2.718,3.132
							c0.039,0.006,0.072,0.008,0.109,0.012c1.043,3.996,4.677,6.95,9.014,6.95c4.336,0,7.971-2.954,9.014-6.95
							c0.037-0.004,0.07-0.006,0.109-0.012c1.903-0.287,2.718-1.64,2.718-3.132v-1.827C75.841,60.744,74.023,60.744,74.023,60.744z"
							/>
					</g>
				</g>
			</g>
		</g>
		<g>
			<g>
				<g>
					<path class="st1" d="M64,39.008c-16.484,0-29.847,13.317-29.847,29.745c0,16.428,13.363,29.745,29.847,29.745
						S93.847,85.18,93.847,68.753C93.847,52.325,80.484,39.008,64,39.008z M64,92.027c-12.898,0-23.354-10.42-23.354-23.274
						c0-12.854,10.456-23.274,23.354-23.274s23.354,10.42,23.354,23.274C87.354,81.607,76.898,92.027,64,92.027z"/>
				</g>
			</g>
			<g>
				<g>
					<g>
						<path class="st3" d="M38.02,68.756c0-15.786,12.33-28.691,27.91-29.678c-0.64-0.05-1.28-0.07-1.93-0.07
							c-16.48,0-29.85,13.314-29.85,29.748c0,16.424,13.37,29.738,29.85,29.738c0.65,0,1.29-0.02,1.93-0.07
							C50.35,97.437,38.02,84.532,38.02,68.756z"/>
					</g>
				</g>
			</g>
			<g>
				<g>
					<path class="st7" d="M92.129,94.025c0.346-0.345,0.744-0.6,1.165-0.789l-5.963-5.943c-1.394,1.74-2.98,3.32-4.726,4.71
						l5.963,5.943c0.189-0.419,0.446-0.817,0.792-1.161L92.129,94.025z"/>
				</g>
			</g>
			<g>
				<g>
					<path class="st2" d="M89.36,102.305l12.619,12.576c1.529,1.524,4.009,1.524,5.539,0l2.769-2.76c1.529-1.524,1.529-3.995,0-5.52
						L97.667,94.025c-1.529-1.524-4.009-1.524-5.539,0l-2.769,2.76C87.83,98.309,87.83,100.78,89.36,102.305z"/>
				</g>
			</g>
		</g>
	</g>
	<g>
		<g>
			<g>
				<g>
					<path class="st5" d="M36.966,32.103c-0.208,0-0.415-0.064-0.589-0.192c-0.308-0.224-0.461-0.603-0.396-0.978l0.846-4.915
						l-3.584-3.482c-0.273-0.265-0.372-0.663-0.254-1.026c0.117-0.363,0.431-0.627,0.808-0.682l4.956-0.718l2.216-4.474
						c0.169-0.341,0.516-0.556,0.896-0.556l0,0c0.38,0,0.728,0.215,0.896,0.556l2.216,4.474l4.957,0.718
						c0.377,0.055,0.69,0.319,0.808,0.682c0.118,0.362,0.019,0.761-0.254,1.026l-3.584,3.482l0.845,4.915
						c0.065,0.375-0.089,0.754-0.396,0.978c-0.308,0.224-0.716,0.255-1.053,0.077l-4.434-2.323l-4.434,2.323
						C37.284,32.065,37.125,32.103,36.966,32.103z M36.094,22.517l2.504,2.433c0.237,0.23,0.345,0.562,0.289,0.888l-0.592,3.44
						L41.4,27.65c0.29-0.152,0.638-0.152,0.928,0l3.105,1.627l-0.592-3.44c-0.056-0.325,0.052-0.658,0.289-0.887l2.504-2.433
						l-3.464-0.502c-0.326-0.047-0.607-0.251-0.753-0.546l-1.553-3.135l-1.553,3.135c-0.146,0.295-0.427,0.499-0.752,0.546
						L36.094,22.517z"/>
				</g>
			</g>
			<g>
				<g>
					<path class="st5" d="M14.318,36.207c-0.208,0-0.415-0.064-0.589-0.192c-0.308-0.224-0.461-0.603-0.396-0.978l0.846-4.915
						l-3.584-3.482c-0.273-0.265-0.372-0.663-0.254-1.026c0.118-0.362,0.431-0.627,0.808-0.681l4.956-0.718l2.216-4.474
						c0.337-0.682,1.455-0.682,1.792,0l2.216,4.474l4.956,0.718c0.377,0.055,0.69,0.319,0.808,0.681
						c0.118,0.363,0.019,0.761-0.254,1.026l-3.584,3.482l0.845,4.915c0.065,0.375-0.089,0.754-0.396,0.978
						c-0.309,0.224-0.715,0.254-1.053,0.077l-4.434-2.323l-4.434,2.323C14.636,36.169,14.477,36.207,14.318,36.207z M13.446,26.621
						l2.504,2.433c0.237,0.23,0.345,0.562,0.289,0.888l-0.592,3.44l3.105-1.627c0.29-0.152,0.638-0.152,0.928,0l3.105,1.627
						l-0.592-3.44c-0.056-0.325,0.052-0.657,0.289-0.887l2.504-2.433l-3.464-0.502c-0.326-0.047-0.607-0.251-0.753-0.546
						l-1.553-3.136l-1.553,3.136c-0.146,0.295-0.427,0.499-0.753,0.546L13.446,26.621z"/>
				</g>
			</g>
			<g>
				<g>
					<path class="st5" d="M68.897,27.999c-0.159,0-0.318-0.038-0.464-0.114L64,25.562l-4.434,2.323
						c-0.337,0.177-0.745,0.148-1.053-0.078c-0.308-0.224-0.461-0.603-0.396-0.978l0.846-4.915l-3.584-3.482
						c-0.273-0.265-0.372-0.663-0.254-1.026c0.117-0.363,0.431-0.627,0.808-0.682l4.956-0.718l2.216-4.474
						c0.337-0.682,1.454-0.682,1.792,0l2.216,4.474l4.956,0.718c0.377,0.055,0.69,0.319,0.808,0.682
						c0.117,0.362,0.019,0.761-0.255,1.026l-3.584,3.482l0.846,4.915c0.064,0.375-0.089,0.755-0.396,0.979
						C69.312,27.934,69.105,27.999,68.897,27.999z M58.23,18.413l2.504,2.432c0.237,0.23,0.345,0.562,0.289,0.888l-0.592,3.44
						l3.105-1.627c0.29-0.152,0.638-0.152,0.928,0l3.104,1.627l-0.592-3.44c-0.057-0.326,0.052-0.658,0.289-0.888l2.504-2.432
						l-3.464-0.502c-0.325-0.047-0.606-0.251-0.753-0.546L64,14.23l-1.553,3.136c-0.146,0.295-0.427,0.499-0.753,0.546L58.23,18.413
						z"/>
				</g>
			</g>
			<g>
				<g>
					<path class="st5" d="M91.034,32.103c-0.159,0-0.318-0.038-0.464-0.114l-4.434-2.323l-4.435,2.323
						c-0.335,0.177-0.744,0.148-1.053-0.078c-0.308-0.224-0.461-0.603-0.396-0.978l0.846-4.915l-3.583-3.482
						c-0.273-0.265-0.372-0.663-0.255-1.026c0.117-0.363,0.431-0.627,0.808-0.682l4.956-0.718l2.216-4.474
						c0.169-0.341,0.517-0.556,0.896-0.556l0,0c0.38,0,0.728,0.215,0.896,0.556l2.215,4.474l4.957,0.718
						c0.377,0.055,0.69,0.319,0.808,0.682c0.117,0.362,0.019,0.761-0.255,1.026l-3.584,3.482l0.846,4.915
						c0.064,0.375-0.089,0.755-0.396,0.979C91.448,32.038,91.242,32.103,91.034,32.103z M80.366,22.517l2.504,2.433
						c0.237,0.23,0.346,0.562,0.289,0.888l-0.592,3.44l3.105-1.627c0.291-0.152,0.637-0.152,0.928,0l3.104,1.627l-0.592-3.44
						c-0.057-0.326,0.052-0.658,0.289-0.888l2.504-2.433l-3.465-0.502c-0.325-0.047-0.606-0.252-0.753-0.546l-1.552-3.135
						l-1.553,3.135c-0.146,0.295-0.428,0.499-0.753,0.546L80.366,22.517z"/>
				</g>
			</g>
			<g>
				<g>
					<path class="st5" d="M103.887,36.207c-0.208,0-0.414-0.064-0.589-0.191c-0.308-0.224-0.461-0.604-0.396-0.979l0.846-4.915
						l-3.584-3.482c-0.273-0.265-0.372-0.663-0.255-1.026c0.117-0.363,0.431-0.627,0.808-0.682l4.956-0.718l2.216-4.474
						c0.338-0.682,1.455-0.682,1.793,0l2.216,4.474l4.956,0.718c0.377,0.055,0.69,0.319,0.808,0.681
						c0.117,0.363,0.019,0.761-0.255,1.026l-3.583,3.482l0.845,4.915c0.064,0.375-0.089,0.754-0.396,0.978
						c-0.309,0.224-0.717,0.254-1.053,0.077l-4.434-2.323l-4.434,2.323C104.205,36.169,104.046,36.207,103.887,36.207z
						 M108.784,31.64c0.159,0,0.318,0.038,0.464,0.114l3.105,1.627l-0.592-3.44c-0.056-0.325,0.052-0.657,0.289-0.887l2.504-2.433
						l-3.465-0.502c-0.325-0.047-0.606-0.251-0.753-0.546l-1.553-3.136l-1.553,3.136c-0.146,0.295-0.428,0.499-0.753,0.546
						l-3.464,0.502l2.504,2.433c0.237,0.23,0.346,0.562,0.289,0.888l-0.592,3.44l3.104-1.627
						C108.466,31.678,108.625,31.64,108.784,31.64z"/>
				</g>
			</g>
		</g>
		<g>
			<g>
				<path class="st5" d="M127,89.041H86.722c-0.553,0-1-0.448-1-1c0-0.552,0.447-1,1-1H127c0.553,0,1,0.448,1,1
					C128,88.593,127.553,89.041,127,89.041z"/>
			</g>
			<g>
				<path class="st5" d="M41.279,89.041H1c-0.552,0-1-0.448-1-1c0-0.552,0.448-1,1-1h40.279c0.552,0,1,0.448,1,1
					C42.279,88.593,41.832,89.041,41.279,89.041z"/>
			</g>
			<g>
				<g>
					<g>
						<path class="st5" d="M64.001,85.234c-0.371,0-0.71-0.205-0.884-0.532l-3.863-7.3c-0.076-0.144-0.116-0.305-0.116-0.468v-3.289
							c0-0.34,0.173-0.657,0.459-0.841c0.286-0.184,0.646-0.21,0.955-0.069c2.194,0.999,4.703,0.999,6.898,0
							c0.311-0.141,0.67-0.114,0.955,0.069c0.286,0.184,0.459,0.501,0.459,0.841v3.289c0,0.163-0.04,0.324-0.116,0.468l-3.863,7.3
							C64.711,85.03,64.372,85.234,64.001,85.234z M61.138,76.685l2.863,5.41l2.863-5.41v-1.604c-1.859,0.541-3.868,0.541-5.727,0
							V76.685z"/>
					</g>
				</g>
				<g>
					<g>
						<path class="st5" d="M64,75.487c-4.478,0-8.419-2.881-9.8-7.081c-1.891-0.49-3.041-1.986-3.041-4.014v-1.827
							c0-1.67,1.098-2.482,2.117-2.733v-3.681c0-4.517,3.686-8.191,8.216-8.191h5.014c2.014,0,3.164,1.02,3.742,1.779
							c0.673-0.124,1.536-0.092,2.33,0.399c1.423,0.88,2.145,2.904,2.145,6.015v3.679c1.02,0.251,2.117,1.062,2.117,2.733v1.827
							c0,2.028-1.151,3.525-3.041,4.014C72.419,72.606,68.478,75.487,64,75.487z M53.978,61.745
							c-0.538,0.016-0.818,0.292-0.818,0.82v1.827c0,0.849,0.324,1.91,1.867,2.143c0.396,0.06,0.827,0.361,0.928,0.749
							c0.953,3.652,4.262,6.203,8.046,6.203s7.093-2.55,8.046-6.203c0.104-0.399,0.441-0.693,0.851-0.741
							c1.62-0.24,1.944-1.301,1.944-2.15v-1.827c0-0.713-0.513-0.82-0.818-0.82c-0.053,0-0.104,0.005-0.154,0.013
							c-0.287,0.043-0.578-0.043-0.799-0.233c-0.22-0.19-0.346-0.467-0.346-0.757v-4.615c0-2.258-0.432-3.828-1.186-4.307
							c-0.569-0.361-1.291-0.029-1.298-0.026c-0.248,0.117-0.54,0.13-0.795,0.029c-0.256-0.1-0.465-0.298-0.568-0.552
							c-0.056-0.126-0.636-1.335-2.37-1.335h-5.014c-3.427,0-6.216,2.777-6.216,6.19v4.617c0,0.291-0.126,0.567-0.346,0.757
							c-0.22,0.19-0.513,0.274-0.798,0.234C54.082,61.75,54.031,61.745,53.978,61.745z"/>
					</g>
				</g>
				<g>
					<g>
						<path class="st5" d="M71.847,62.874c-0.223,0-0.449-0.038-0.674-0.125c-1.534-0.595-1.534-2.907-1.534-3.666
							c0-1.197-0.979-2.17-2.183-2.17h-6.913c-1.203,0-2.182,0.974-2.182,2.17c0,0.76,0,3.071-1.534,3.666
							c-1.474,0.574-2.999-0.988-3.29-1.306c-0.372-0.408-0.343-1.041,0.064-1.414c0.408-0.373,1.039-0.342,1.412,0.064
							c0.357,0.387,0.901,0.765,1.119,0.78c-0.017-0.036,0.228-0.419,0.228-1.79c0-2.3,1.876-4.171,4.182-4.171h6.913
							c2.307,0,4.183,1.871,4.183,4.171c0,1.517,0.3,1.824,0.303,1.827c0.113-0.035,0.696-0.435,1.044-0.816
							c0.373-0.408,1.005-0.437,1.412-0.064c0.408,0.373,0.438,1.005,0.064,1.414C74.216,61.712,73.084,62.874,71.847,62.874z"/>
					</g>
				</g>
				<g>
					<g>
						<path class="st5" d="M64,93.027c-6.065,0-11.877-2.236-16.365-6.297c-0.311-0.281-0.413-0.726-0.257-1.115
							c2.107-5.249,8.284-7.62,8.546-7.718l3.772-1.862c0.483-0.239,1.072-0.048,1.325,0.43l2.98,5.631l2.979-5.631
							c0.252-0.479,0.84-0.67,1.325-0.43l3.818,1.88c0.644,0.251,6.465,2.635,8.498,7.699c0.156,0.389,0.054,0.834-0.257,1.115
							C75.877,90.791,70.065,93.027,64,93.027z M49.523,85.725c4.039,3.424,9.152,5.302,14.477,5.302s10.438-1.878,14.478-5.302
							c-2.021-3.991-7.053-5.934-7.106-5.954c-0.03-0.012-0.061-0.025-0.089-0.039l-2.988-1.472l-3.399,6.421
							c-0.196,0.394-0.638,0.627-1.091,0.534c-0.325-0.065-0.581-0.28-0.711-0.559l-3.385-6.397l-2.99,1.472
							c-0.032,0.015-0.063,0.029-0.096,0.041C56.464,79.834,51.524,81.768,49.523,85.725z"/>
					</g>
				</g>
			</g>
			<g>
				<g>
					<g>
						<path class="st5" d="M93.47,74.449c-0.105,0-0.213-0.017-0.317-0.052c-0.464-0.155-0.747-0.623-0.67-1.106
							c0.242-1.52,0.365-3.046,0.365-4.538l-0.008-0.278c-0.004-0.425,0.26-0.806,0.658-0.951c0.205-0.074,0.405-0.155,0.602-0.245
							c0.31-0.141,0.669-0.115,0.956,0.069c0.286,0.184,0.459,0.501,0.459,0.841v3.286c0,0.163-0.04,0.324-0.116,0.468l-1.045,1.974
							C94.176,74.252,93.831,74.449,93.47,74.449z"/>
					</g>
				</g>
				<g>
					<g>
						<path class="st5" d="M87.112,73.087c-0.365,0-0.708-0.201-0.884-0.531l-0.324-0.612c-0.076-0.145-0.116-0.305-0.116-0.469
							v-3.286c0-0.34,0.173-0.657,0.459-0.841s0.646-0.211,0.955-0.069c0.163,0.074,0.329,0.139,0.497,0.203
							c0.383,0.145,0.64,0.509,0.646,0.918l0.009,0.353c0,1.139-0.085,2.309-0.252,3.476c-0.062,0.428-0.392,0.769-0.818,0.844
							C87.227,73.082,87.169,73.087,87.112,73.087z"/>
					</g>
				</g>
				<g>
					<g>
						<path class="st5" d="M79.685,86.997c-0.075,0-0.151-0.008-0.226-0.026c-0.319-0.074-0.581-0.299-0.703-0.603
							c-0.934-2.337-2.888-3.999-4.363-4.982c-0.393-0.262-0.549-0.764-0.374-1.203c2.096-5.268,8.294-7.647,8.557-7.745
							l3.771-1.861c0.483-0.24,1.071-0.048,1.325,0.429l0.324,0.612c0.099,0.188,0.137,0.402,0.106,0.612
							c-0.803,5.566-3.554,10.719-7.748,14.51C80.169,86.907,79.93,86.997,79.685,86.997z M76.2,80.212
							c1.293,0.956,2.756,2.321,3.782,4.112c3.051-3.111,5.131-7.059,5.96-11.319l-2.574,1.268
							c-0.031,0.016-0.064,0.029-0.097,0.042C83.128,74.37,78.223,76.282,76.2,80.212z"/>
					</g>
				</g>
				<g>
					<g>
						<path class="st5" d="M107.146,89.041H88.08c-0.265,0-0.519-0.105-0.706-0.292l-0.749-0.747
							c-0.361-0.361-0.394-0.936-0.074-1.335c3.102-3.871,5.152-8.497,5.932-13.377c0.018-0.108,0.052-0.213,0.104-0.311
							l1.045-1.974c0.252-0.478,0.84-0.669,1.325-0.429l3.86,1.9l-0.004,0.009c0.889,0.314,2.801,1.274,4.48,2.595
							c3.062,2.409,4.682,5.389,4.682,8.616c0,1.06,0.064,2.279,0.133,3.57l0.038,0.722c0.014,0.274-0.085,0.541-0.274,0.74
							C107.683,88.929,107.421,89.041,107.146,89.041z M88.79,87.04h17.303c-0.063-1.195-0.118-2.325-0.118-3.343
							c0-6.348-7.869-9.355-7.949-9.385c-0.031-0.012-0.062-0.025-0.092-0.04l-2.989-1.471l-0.514,0.97
							C93.638,78.568,91.695,83.13,88.79,87.04z"/>
					</g>
				</g>
				<g>
					<g>
						<path class="st5" d="M87.346,69.406c-0.12,0-0.24-0.021-0.355-0.065l-0.126-0.047c-0.138-0.051-0.274-0.103-0.407-0.161
							c-0.028-0.01-0.056-0.021-0.083-0.033c-2.643-1.204-4.627-3.426-5.523-6.154c-1.89-0.49-3.04-1.986-3.04-4.014v-1.827
							c0-2.069,1.685-2.821,2.817-2.821c0.151,0,0.299,0.013,0.443,0.034c0.229,0.033,0.438,0.144,0.594,0.314
							c0.364,0.394,0.923,0.779,1.132,0.779c0,0,0.001,0,0.002,0C82.986,55.148,83.254,55,83.575,55c0.006,0,0.013,0,0.02,0
							c0.329,0.006,0.599,0.183,0.779,0.459c2.53,3.845,3.903,8.317,3.972,12.932c0.005,0.331-0.155,0.644-0.426,0.834
							C87.749,69.345,87.548,69.406,87.346,69.406z M80.501,56.295c-0.455,0.053-0.69,0.325-0.69,0.81v1.827
							c0,0.849,0.324,1.91,1.866,2.143c0.396,0.06,0.826,0.361,0.928,0.748c0.543,2.078,1.852,3.836,3.656,4.952
							c-0.295-3.33-1.334-6.54-3.05-9.408c-0.096,0.021-0.193,0.035-0.293,0.041C81.943,57.461,80.991,56.748,80.501,56.295z"/>
					</g>
				</g>
				<g>
					<g>
						<path class="st5" d="M93.84,69.453c-0.201,0-0.399-0.061-0.569-0.178c-0.267-0.185-0.428-0.488-0.431-0.812
							c-0.064-6.369-2.176-12.383-6.106-17.392c-0.235-0.301-0.279-0.711-0.112-1.056c0.168-0.344,0.517-0.563,0.899-0.563h6.587
							c2.306,0,4.182,1.871,4.182,4.171c0,1.517,0.3,1.824,0.303,1.827c0.113-0.035,0.696-0.435,1.044-0.816
							c0.155-0.17,0.365-0.282,0.594-0.315c0.144-0.021,0.291-0.034,0.443-0.034c1.133,0,2.818,0.751,2.818,2.821v1.827
							c0,2.028-1.151,3.525-3.041,4.014c-0.895,2.726-2.879,4.948-5.521,6.153c-0.025,0.011-0.051,0.021-0.077,0.031
							c-0.219,0.096-0.444,0.179-0.67,0.262C94.071,69.433,93.955,69.453,93.84,69.453z M89.495,51.453
							c3.157,4.601,4.968,9.89,5.293,15.473c1.936-1.106,3.342-2.93,3.908-5.102c0.104-0.399,0.441-0.693,0.851-0.741
							c1.62-0.24,1.944-1.301,1.944-2.15v-1.827c0-0.618-0.385-0.781-0.687-0.813c-0.585,0.544-1.8,1.457-2.981,0.997
							c-1.534-0.595-1.534-2.907-1.534-3.666c0-1.197-0.979-2.17-2.182-2.17H89.495z"/>
					</g>
				</g>
				<g>
					<g>
						<path class="st5" d="M98.497,57.414c-0.223,0-0.449-0.038-0.674-0.125c-1.534-0.595-1.534-2.907-1.534-3.666
							c0-1.197-0.979-2.17-2.182-2.17h-6.587c-0.307,0-0.598-0.141-0.787-0.383c-1.321-1.685-2.819-3.216-4.451-4.55
							c-0.216-0.176-0.348-0.435-0.365-0.713c-0.018-0.278,0.082-0.551,0.274-0.752c1.569-1.647,3.683-2.554,5.952-2.554h5.014
							c2.014,0,3.164,1.02,3.742,1.779c0.676-0.123,1.537-0.092,2.33,0.398c1.423,0.88,2.145,2.904,2.145,6.015v4.616
							c0,0.25-0.093,0.49-0.262,0.675C100.866,56.253,99.734,57.414,98.497,57.414z M88.002,49.452h6.105
							c2.306,0,4.182,1.871,4.182,4.171c0,1.517,0.3,1.824,0.303,1.827c0.088-0.027,0.458-0.274,0.782-0.561v-4.196
							c0-2.271-0.437-3.843-1.196-4.313c-0.568-0.351-1.271-0.027-1.276-0.024c-0.249,0.125-0.539,0.14-0.801,0.041
							c-0.261-0.099-0.468-0.301-0.573-0.56c-0.056-0.126-0.636-1.335-2.37-1.335h-5.014c-1.357,0-2.641,0.429-3.706,1.225
							C85.719,46.859,86.914,48.108,88.002,49.452z"/>
					</g>
				</g>
			</g>
			<g>
				<g>
					<g>
						<path class="st5" d="M34.524,74.435c-0.362,0-0.707-0.197-0.884-0.532l-1.037-1.959c-0.076-0.144-0.116-0.305-0.116-0.468
							V68.19c0-0.34,0.173-0.657,0.459-0.841c0.287-0.184,0.646-0.21,0.956-0.069c0.196,0.09,0.398,0.17,0.602,0.245
							c0.398,0.146,0.661,0.526,0.657,0.95l-0.007,0.278c0,1.503,0.121,3.025,0.359,4.525c0.077,0.483-0.207,0.951-0.671,1.106
							C34.736,74.418,34.629,74.435,34.524,74.435z"/>
					</g>
				</g>
				<g>
					<g>
						<path class="st5" d="M40.889,73.09c-0.057,0-0.114-0.005-0.172-0.015c-0.426-0.074-0.757-0.415-0.818-0.843
							c-0.168-1.168-0.253-2.338-0.253-3.479l0.009-0.348c0.005-0.411,0.262-0.777,0.646-0.923c0.167-0.063,0.335-0.128,0.497-0.203
							c0.31-0.142,0.669-0.116,0.957,0.068c0.286,0.184,0.459,0.501,0.459,0.842v3.286c0,0.163-0.04,0.324-0.116,0.468l-0.325,0.614
							C41.596,72.889,41.254,73.09,40.889,73.09z"/>
					</g>
				</g>
				<g>
					<g>
						<path class="st5" d="M41.288,89.041H20.854c-0.274,0-0.536-0.112-0.725-0.311c-0.188-0.199-0.288-0.467-0.273-0.741
							l0.039-0.74c0.067-1.284,0.131-2.498,0.131-3.552c0-7.51,8.392-10.929,9.201-11.241l3.819-1.879
							c0.485-0.239,1.071-0.049,1.325,0.43l1.037,1.959c0.051,0.097,0.086,0.202,0.104,0.311c0.825,5.202,3.085,10.082,6.536,14.112
							c0.254,0.297,0.312,0.714,0.148,1.069C42.033,88.814,41.679,89.041,41.288,89.041z M21.907,87.04H39.21
							c-2.917-3.921-4.856-8.471-5.647-13.283l-0.506-0.956l-2.99,1.472c-0.032,0.016-0.065,0.03-0.098,0.042
							c-0.175,0.066-7.944,3.08-7.944,9.382C22.025,84.715,21.97,85.845,21.907,87.04z M29.625,73.375h0.01H29.625z"/>
					</g>
				</g>
				<g>
					<g>
						<path class="st5" d="M48.316,86.997c-0.245,0-0.484-0.09-0.67-0.258c-4.194-3.791-6.945-8.943-7.747-14.508
							c-0.03-0.21,0.007-0.424,0.106-0.611l0.325-0.614c0.253-0.478,0.84-0.669,1.325-0.429l3.86,1.9l-0.018,0.038
							c1.799,0.593,6.728,3.254,8.485,7.668c0.175,0.439,0.019,0.941-0.375,1.203c-1.474,0.983-3.428,2.645-4.362,4.982
							c-0.122,0.304-0.384,0.529-0.703,0.603C48.467,86.989,48.391,86.997,48.316,86.997z M42.057,73.004
							c0.829,4.26,2.909,8.208,5.961,11.321c1.026-1.791,2.489-3.156,3.781-4.112c-2.043-3.971-7.024-5.881-7.078-5.901
							L42.057,73.004z"/>
					</g>
				</g>
				<g>
					<g>
						<path class="st5" d="M29.503,57.414c-1.237,0-2.369-1.162-2.616-1.431c-0.168-0.185-0.261-0.425-0.261-0.675v-4.617
							c0-4.517,3.686-8.191,8.216-8.191h5.014c2.017,0,3.168,1.023,3.745,1.783c0.664-0.117,1.505-0.086,2.282,0.378
							c0.282,0.168,0.464,0.464,0.486,0.791c0.022,0.328-0.118,0.645-0.374,0.85c-1.752,1.397-3.343,3.001-4.729,4.768
							c-0.189,0.241-0.479,0.382-0.787,0.382h-6.586c-1.203,0-2.182,0.974-2.182,2.17c0,0.76,0,3.071-1.534,3.666
							C29.952,57.377,29.726,57.414,29.503,57.414z M28.626,54.888c0.322,0.283,0.688,0.513,0.857,0.525
							c-0.017-0.036,0.228-0.419,0.228-1.79c0-2.3,1.876-4.171,4.182-4.171h6.104c0.874-1.078,1.819-2.096,2.828-3.046
							c-0.009-0.003-0.019-0.007-0.028-0.01c-0.259-0.099-0.466-0.301-0.57-0.558c-0.056-0.126-0.636-1.336-2.371-1.336h-5.014
							c-3.427,0-6.216,2.777-6.216,6.19V54.888z"/>
					</g>
				</g>
				<g>
					<g>
						<path class="st5" d="M40.654,69.407c-0.202,0-0.402-0.061-0.573-0.18c-0.272-0.191-0.432-0.503-0.427-0.835
							c0.068-4.616,1.441-9.089,3.971-12.934c0.182-0.276,0.487-0.444,0.817-0.45c0.327-0.002,0.641,0.15,0.833,0.42
							c0.13-0.014,0.712-0.414,1.059-0.794c0.156-0.171,0.366-0.282,0.595-0.316c0.145-0.021,0.292-0.034,0.443-0.034
							c1.133,0,2.818,0.751,2.818,2.821v1.827c0,2.028-1.151,3.524-3.041,4.014c-0.896,2.727-2.879,4.948-5.521,6.153
							c-0.026,0.012-0.052,0.022-0.079,0.032c-0.133,0.057-0.269,0.109-0.405,0.16l-0.132,0.05
							C40.896,69.385,40.775,69.407,40.654,69.407z M44.789,57.367c-1.715,2.868-2.754,6.078-3.049,9.409
							c1.805-1.117,3.114-2.875,3.657-4.952c0.104-0.398,0.44-0.691,0.848-0.74c1.622-0.241,1.946-1.302,1.946-2.151v-1.827
							c0-0.619-0.386-0.781-0.688-0.813c-0.489,0.453-1.417,1.186-2.419,1.116C44.982,57.402,44.884,57.389,44.789,57.367z"/>
					</g>
				</g>
				<g>
					<g>
						<path class="st5" d="M34.16,69.452c-0.116,0-0.232-0.02-0.343-0.061l0.112-0.305c-0.002,0-0.004,0.001-0.006,0.002
							l-0.112,0.301c-0.219-0.08-0.438-0.161-0.652-0.254c-0.029-0.01-0.058-0.022-0.086-0.035
							c-2.643-1.205-4.627-3.427-5.523-6.154c-1.891-0.49-3.041-1.986-3.041-4.014v-1.827c0-2.069,1.685-2.821,2.818-2.821
							c0.152,0,0.299,0.013,0.443,0.034c0.229,0.034,0.439,0.145,0.595,0.316c0.355,0.385,0.9,0.764,1.118,0.779
							c-0.017-0.036,0.228-0.419,0.228-1.79c0-2.3,1.876-4.171,4.182-4.171h6.586c0.383,0,0.732,0.218,0.899,0.563
							c0.167,0.344,0.124,0.754-0.113,1.055c-3.931,5.011-6.042,11.025-6.105,17.392c-0.003,0.325-0.164,0.628-0.431,0.813
							C34.56,69.392,34.361,69.452,34.16,69.452z M27.198,56.295c-0.454,0.054-0.689,0.326-0.689,0.81v1.827
							c0,0.849,0.324,1.91,1.867,2.143c0.396,0.06,0.826,0.361,0.928,0.748c0.567,2.173,1.973,3.996,3.909,5.102
							c0.325-5.583,2.135-10.871,5.292-15.473h-4.611c-1.203,0-2.182,0.974-2.182,2.17c0,0.76,0,3.071-1.534,3.666
							C28.998,57.748,27.784,56.839,27.198,56.295z"/>
					</g>
				</g>
			</g>
			<g>
				<g>
					<g>
						<path class="st5" d="M64,99.498c-17.009,0-30.847-13.792-30.847-30.745S46.991,38.007,64,38.007
							c17.01,0,30.848,13.792,30.848,30.745S81.01,99.498,64,99.498z M64,40.008c-15.906,0-28.847,12.894-28.847,28.744
							S48.094,97.497,64,97.497s28.848-12.894,28.848-28.744S79.906,40.008,64,40.008z"/>
					</g>
				</g>
				<g>
					<g>
						<path class="st5" d="M64,93.027c-13.429,0-24.354-10.89-24.354-24.275S50.571,44.478,64,44.478
							c13.429,0,24.354,10.89,24.354,24.275S77.429,93.027,64,93.027z M64,46.479c-12.326,0-22.354,9.992-22.354,22.274
							S51.674,91.026,64,91.026s22.354-9.992,22.354-22.274S76.326,46.479,64,46.479z"/>
					</g>
				</g>
				<g>
					<g>
						<path class="st5" d="M88.568,98.946c-0.262,0-0.517-0.103-0.706-0.292l-5.964-5.943c-0.202-0.201-0.309-0.48-0.292-0.765
							c0.016-0.285,0.152-0.55,0.376-0.727c1.685-1.34,3.222-2.872,4.568-4.552c0.178-0.222,0.441-0.357,0.725-0.373
							c0.277-0.016,0.56,0.09,0.762,0.29L94,92.528c0.233,0.233,0.337,0.565,0.277,0.889s-0.274,0.598-0.574,0.733
							c-0.34,0.152-0.632,0.349-0.868,0.585l-2.77,2.76c-0.235,0.234-0.433,0.526-0.586,0.865c-0.135,0.299-0.408,0.512-0.73,0.572
							C88.688,98.941,88.628,98.946,88.568,98.946z M84.091,92.073l4.302,4.287c0.083-0.099,0.17-0.193,0.261-0.283l2.77-2.76l0,0
							c0.089-0.088,0.182-0.173,0.278-0.255L87.4,88.775C86.382,89.955,85.274,91.059,84.091,92.073z"/>
					</g>
				</g>
				<g>
					<g>
						<path class="st5" d="M104.748,117.021c-1.259,0-2.518-0.477-3.476-1.432l-12.619-12.576l0,0
							c-0.929-0.926-1.44-2.158-1.44-3.468c0-1.31,0.512-2.542,1.44-3.468l2.77-2.76c1.917-1.91,5.035-1.91,6.95,0l12.619,12.576
							c0.929,0.926,1.441,2.158,1.441,3.468c0,1.31-0.513,2.542-1.441,3.468l-2.769,2.76
							C107.265,116.544,106.006,117.021,104.748,117.021z M90.065,101.596l12.619,12.576c1.136,1.133,2.988,1.134,4.128,0
							l2.768-2.76c0.55-0.548,0.854-1.276,0.854-2.051s-0.304-1.503-0.854-2.051L96.961,94.734c-1.137-1.133-2.989-1.135-4.126,0
							l-2.77,2.76c-0.55,0.548-0.853,1.276-0.853,2.051S89.516,101.047,90.065,101.596L90.065,101.596z"/>
					</g>
				</g>
			</g>
			<g>
				<path class="st5" d="M64.001,51.509c-0.552,0-1-0.448-1-1V34.967c0-0.552,0.448-1,1-1s1,0.448,1,1v15.542
					C65.001,51.062,64.553,51.509,64.001,51.509z"/>
			</g>
			<g>
				<path class="st5" d="M64.001,103.905c-0.552,0-1-0.448-1-1V87.362c0-0.552,0.448-1,1-1s1,0.448,1,1v15.543
					C65.001,103.457,64.553,103.905,64.001,103.905z"/>
			</g>
			<g>
				<path class="st5" d="M98.086,69.936H82.49c-0.553,0-1-0.448-1-1c0-0.552,0.447-1,1-1h15.596c0.553,0,1,0.448,1,1
					C99.086,69.488,98.639,69.936,98.086,69.936z"/>
			</g>
			<g>
				<path class="st5" d="M45.511,69.936H29.916c-0.552,0-1-0.448-1-1c0-0.552,0.448-1,1-1h15.596c0.552,0,1,0.448,1,1
					C46.511,69.488,46.063,69.936,45.511,69.936z"/>
			</g>
			<g>
				<g>
					<g>
						<path class="st5" d="M113.981,72.432c-0.37,0-0.711-0.205-0.884-0.532l-3.049-5.761c-0.076-0.144-0.116-0.305-0.116-0.468
							v-2.595c0-0.34,0.173-0.657,0.459-0.841c0.286-0.184,0.646-0.21,0.955-0.069c1.678,0.763,3.592,0.763,5.27,0
							c0.31-0.14,0.67-0.114,0.955,0.069c0.286,0.184,0.459,0.501,0.459,0.841v2.595c0,0.163-0.04,0.324-0.116,0.468l-3.049,5.761
							C114.692,72.227,114.352,72.432,113.981,72.432z M111.933,65.422l2.049,3.872l2.049-3.872v-0.937
							c-1.336,0.34-2.762,0.34-4.098,0V65.422z"/>
					</g>
				</g>
				<g>
					<g>
						<path class="st5" d="M127,79.744h-21.605c-0.332,0-0.642-0.165-0.828-0.439c-1.156-1.707-2.791-2.935-3.959-3.665
							c-0.316-0.197-0.497-0.554-0.468-0.927c0.455-5.812,7.111-8.374,7.395-8.481l2.957-1.461c0.483-0.24,1.072-0.049,1.325,0.43
							l2.165,4.091l2.165-4.091c0.252-0.479,0.84-0.67,1.325-0.43l3.006,1.48c0.708,0.275,7.387,3.027,7.387,9.064
							c0,0.82,0.05,1.766,0.103,2.768l0.032,0.609c0.014,0.274-0.085,0.541-0.274,0.74C127.536,79.632,127.274,79.744,127,79.744z
							 M105.91,77.743h20.036c-0.045-0.864-0.082-1.682-0.082-2.427c0-4.865-6.075-7.186-6.137-7.209
							c-0.031-0.012-0.062-0.025-0.092-0.04l-2.176-1.071l-2.583,4.88c-0.163,0.33-0.503,0.556-0.896,0.556
							c-0.401,0-0.747-0.235-0.906-0.576l-2.572-4.86l-2.176,1.072c-0.03,0.015-0.062,0.028-0.094,0.04
							c-0.134,0.052-5.271,2.069-6.024,6.187C103.365,75.077,104.776,76.225,105.91,77.743z"/>
					</g>
				</g>
				<g>
					<g>
						<path class="st5" d="M113.981,64.739c-3.587,0-6.75-2.284-7.898-5.626c-1.502-0.441-2.446-1.702-2.446-3.341V54.33
							c0-1.357,0.839-2.058,1.671-2.317v-2.745c0-3.681,3.003-6.675,6.694-6.675h3.957c1.49,0,2.483,0.694,3.049,1.384
							c0.52-0.076,1.191-0.045,1.854,0.365c1.207,0.746,1.793,2.358,1.793,4.927v2.744c0.832,0.259,1.671,0.96,1.671,2.317v1.442
							c0,1.637-0.943,2.897-2.447,3.34C120.73,62.455,117.568,64.739,113.981,64.739z M106.163,53.902
							c-0.526,0.009-0.526,0.271-0.526,0.428v1.442c0,0.854,0.436,1.353,1.294,1.483c0.396,0.06,0.803,0.359,0.904,0.746
							c0.728,2.789,3.256,4.737,6.146,4.737s5.418-1.948,6.146-4.737c0.104-0.399,0.442-0.693,0.852-0.741
							c0.912-0.134,1.348-0.633,1.348-1.487V54.33c0-0.156,0-0.416-0.444-0.436c-0.027,0.001-0.055,0.004-0.081,0.008
							c-0.28,0.042-0.579-0.042-0.799-0.233c-0.22-0.19-0.347-0.467-0.347-0.757v-3.643c0-2.49-0.64-3.094-0.835-3.219
							c-0.351-0.223-0.821-0.011-0.825-0.009c-0.25,0.114-0.542,0.125-0.794,0.024c-0.254-0.101-0.463-0.297-0.566-0.55
							c-0.036-0.08-0.45-0.922-1.676-0.922h-3.957c-2.589,0-4.694,2.097-4.694,4.674v3.644c0,0.291-0.126,0.567-0.346,0.757
							C106.742,53.858,106.453,53.942,106.163,53.902z"/>
					</g>
				</g>
				<g>
					<g>
						<path class="st5" d="M120.171,54.784c-0.199,0-0.402-0.034-0.605-0.113c-1.346-0.522-1.346-2.455-1.346-3.09
							c0-0.828-0.678-1.502-1.511-1.502h-5.456c-0.833,0-1.511,0.674-1.511,1.502c0,0.635,0,2.569-1.346,3.09
							c-1.297,0.504-2.581-0.816-2.827-1.086c-0.373-0.408-0.344-1.041,0.064-1.413c0.406-0.371,1.039-0.344,1.41,0.063
							c0.168,0.181,0.406,0.371,0.582,0.473c0.054-0.18,0.116-0.522,0.116-1.127c0-1.932,1.575-3.503,3.511-3.503h5.456
							c1.936,0,3.511,1.571,3.511,3.503c0,0.605,0.062,0.947,0.116,1.127c0.177-0.103,0.415-0.293,0.583-0.474
							c0.373-0.404,1.005-0.432,1.412-0.058c0.405,0.373,0.435,1.003,0.062,1.41C122.187,53.813,121.237,54.784,120.171,54.784z"/>
					</g>
				</g>
			</g>
			<g>
				<g>
					<g>
						<path class="st5" d="M14.02,72.432c-0.371,0-0.71-0.205-0.884-0.532l-3.049-5.761c-0.076-0.144-0.116-0.305-0.116-0.468
							v-2.595c0-0.34,0.173-0.657,0.458-0.841c0.287-0.184,0.646-0.21,0.956-0.069c1.677,0.763,3.591,0.763,5.27,0
							c0.31-0.141,0.669-0.115,0.956,0.069c0.286,0.184,0.458,0.501,0.458,0.841v2.595c0,0.163-0.04,0.324-0.116,0.468L14.903,71.9
							C14.73,72.227,14.39,72.432,14.02,72.432z M11.971,65.422l2.049,3.872l2.049-3.872v-0.937c-1.336,0.34-2.762,0.34-4.098,0
							V65.422z"/>
					</g>
				</g>
				<g>
					<g>
						<path class="st5" d="M22.605,79.744H1c-0.274,0-0.536-0.112-0.725-0.311c-0.188-0.199-0.288-0.467-0.273-0.74l0.031-0.593
							c0.053-1.008,0.103-1.96,0.103-2.784c0-6.037,6.679-8.79,7.388-9.065l3.006-1.479c0.483-0.24,1.072-0.049,1.325,0.43
							l2.166,4.092l2.165-4.092c0.252-0.479,0.841-0.67,1.325-0.43l3.046,1.5c0.193,0.067,6.85,2.63,7.304,8.442
							c0.029,0.372-0.151,0.729-0.468,0.927c-1.168,0.729-2.803,1.957-3.959,3.665C23.247,79.58,22.937,79.744,22.605,79.744z
							 M2.054,77.743H22.09c1.133-1.519,2.544-2.667,3.701-3.448c-0.76-4.165-5.973-6.168-6.027-6.188l-2.265-1.111l-2.589,4.891
							c-0.006,0.012-0.013,0.024-0.019,0.036c-0.242,0.431-0.773,0.627-1.243,0.438c-0.247-0.099-0.433-0.285-0.537-0.509
							l-2.57-4.856l-2.176,1.072c-0.032,0.016-0.065,0.03-0.098,0.042c-0.179,0.069-6.131,2.404-6.131,7.206
							C2.135,76.062,2.098,76.88,2.054,77.743z"/>
					</g>
				</g>
				<g>
					<g>
						<path class="st5" d="M14.019,64.739c-3.587,0-6.749-2.284-7.898-5.626c-1.502-0.441-2.447-1.702-2.447-3.341V54.33
							c0-1.357,0.839-2.058,1.671-2.317v-2.745c0-3.681,3.003-6.675,6.695-6.675h3.957c1.491,0,2.483,0.694,3.049,1.384
							c0.515-0.076,1.191-0.045,1.854,0.365c1.206,0.746,1.792,2.358,1.792,4.927v2.744c0.832,0.259,1.671,0.96,1.671,2.317v1.442
							c0,1.637-0.942,2.897-2.446,3.34C20.768,62.454,17.606,64.739,14.019,64.739z M6.2,53.901
							c-0.526,0.01-0.526,0.272-0.526,0.428v1.442c0,0.854,0.435,1.353,1.293,1.483c0.396,0.06,0.804,0.359,0.905,0.746
							c0.728,2.789,3.255,4.737,6.146,4.737c2.89,0,5.417-1.948,6.146-4.738c0.104-0.398,0.441-0.692,0.85-0.741
							c0.913-0.134,1.348-0.633,1.348-1.487V54.33c0-0.156,0-0.416-0.444-0.436c-0.028,0.001-0.055,0.004-0.082,0.008
							c-0.287,0.044-0.58-0.043-0.799-0.233c-0.22-0.19-0.346-0.467-0.346-0.757v-3.643c0-2.49-0.639-3.094-0.835-3.219
							c-0.349-0.223-0.821-0.011-0.825-0.009c-0.249,0.113-0.541,0.126-0.794,0.024c-0.254-0.101-0.463-0.297-0.566-0.55
							c-0.036-0.08-0.45-0.922-1.675-0.922H12.04c-2.589,0-4.695,2.097-4.695,4.674v3.644c0,0.291-0.126,0.567-0.346,0.757
							C6.779,53.858,6.484,53.944,6.2,53.901z"/>
					</g>
				</g>
				<g>
					<g>
						<path class="st5" d="M20.208,54.784c-0.199,0-0.402-0.034-0.605-0.113c-1.345-0.522-1.345-2.455-1.345-3.09
							c0-0.828-0.678-1.502-1.511-1.502h-5.456c-0.833,0-1.511,0.674-1.511,1.502c0,0.635,0,2.569-1.345,3.09
							c-1.291,0.5-2.582-0.816-2.828-1.086c-0.372-0.408-0.343-1.041,0.065-1.413c0.407-0.372,1.038-0.343,1.411,0.063
							c0.167,0.181,0.405,0.371,0.582,0.473c0.053-0.18,0.116-0.522,0.116-1.127c0-1.932,1.575-3.503,3.511-3.503h5.456
							c1.936,0,3.511,1.571,3.511,3.503c0,0.605,0.063,0.947,0.116,1.127c0.186-0.108,0.435-0.311,0.58-0.471
							c0.373-0.407,1.005-0.437,1.413-0.065c0.408,0.373,0.437,1.005,0.065,1.413C22.224,53.813,21.275,54.784,20.208,54.784z"/>
					</g>
				</g>
			</g>
		</g>
	</g>
</g>
</svg>
