<?xml version="1.0" encoding="utf-8"?>
<!-- Generator: Adobe Illustrator 22.0.0, SVG Export Plug-In . SVG Version: 6.00 Build 0)  -->
<svg version="1.1" id="MARKET_RESEARCH_ICON_SET" xmlns="http://www.w3.org/2000/svg" xmlns:xlink="http://www.w3.org/1999/xlink"
	 x="0px" y="0px" viewBox="0 0 128 128" style="enable-background:new 0 0 128 128;" xml:space="preserve">
<style type="text/css">
	.st0{fill:#C2D5EC;}
	.st1{fill:#61E1FF;}
	.st2{fill:#7184AF;}
	.st3{fill:#F8F8F8;}
	.st4{fill:#3F4D81;}
	.st5{fill:#3F4D80;}
	.st6{fill:#E9EAEB;}
	.st7{fill:#F79559;}
	.st8{fill:#FFA85A;}
</style>
<g>
	<g>
		<g>
			<ellipse class="st0" cx="62.132" cy="64" rx="47.184" ry="46.954"/>
		</g>
		<g>
			<path class="st5" d="M96.79,51.854c-5.667-11.721-17.713-19.81-31.658-19.81s-25.991,8.09-31.658,19.81c0,0,0,0,0,0
				c-1.87-0.74-3.904-1.159-6.039-1.159c-4.601,0-8.752,1.895-11.726,4.936c-0.491,2.717-0.762,5.51-0.762,8.368
				c0,5.671,1.01,11.107,2.862,16.14c2.704,1.963,6.024,3.135,9.626,3.135c2.135,0,4.169-0.419,6.039-1.159c0,0,0,0,0,0
				c5.667,11.721,17.713,19.81,31.658,19.81s25.991-8.09,31.658-19.81c1.87,0.74,3.904,1.159,6.039,1.159
				c0.823,0,1.625-0.08,2.416-0.197c2.61-5.831,4.072-12.283,4.072-19.078c0-4.367-0.612-8.589-1.733-12.601
				c-1.505-0.454-3.101-0.704-4.755-0.704C100.694,50.696,98.661,51.115,96.79,51.854z M92.423,79.56L92.423,79.56
				c-2.856,6.128-7.741,11.118-13.787,14.151c-3.491-8.351-10.799-9.643-10.799-9.643l-3.516-0.43l-0.042-3.012V77.47
				c1.441,0.743,3.132,1.075,4.921,0.81c3.985-0.591,6.841-4.163,6.841-8.172v-7.095v-3.275c0-0.924-0.155-1.811-0.431-2.642
				c0-4.202,1.809-7.416,3.134-9.208c0.491-0.664,0.007-1.596-0.822-1.596H60.49c-4.403,0-7.973,3.552-7.973,7.934
				c0,0-0.795,7.926,0.441,11.959l0.004,0c0.024,0.085,0.046,0.172,0.072,0.256c1.516,4.893,2.526,10.82,2.526,15.94l-2.908,1.582
				c0,0-4.351,1.638-7.624,5.232c-2.999-2.686-5.467-5.946-7.186-9.634c0,0,0,0,0,0c3.642-2.988,5.964-7.511,5.964-12.575
				c0-5.064-2.322-9.587-5.964-12.575c4.775-10.245,15.196-17.353,27.291-17.353s22.516,7.109,27.291,17.353l0,0
				c-3.642,2.988-5.964,7.511-5.964,12.575S88.781,76.573,92.423,79.56z"/>
		</g>
		<g>
			<g>
				<g>
					<path class="st1" d="M34.841,51.425c4.775-10.245,15.196-17.353,27.291-17.353s22.516,7.109,27.291,17.353
						c-0.137,0.113-0.259,0.242-0.393,0.359c1.398-1.222,3.001-2.219,4.76-2.915c-5.667-11.721-17.713-19.81-31.658-19.81
						s-25.991,8.09-31.658,19.81c1.758,0.696,3.361,1.692,4.759,2.914C35.1,51.667,34.979,51.537,34.841,51.425z"/>
				</g>
				<g>
					<path class="st1" d="M89.423,76.575C84.648,86.82,74.227,93.928,62.132,93.928c-12.095,0-22.516-7.109-27.291-17.353
						c0.137-0.113,0.259-0.242,0.393-0.359c-1.398,1.222-3.001,2.219-4.76,2.915c5.667,11.721,17.713,19.81,31.658,19.81
						s25.991-8.09,31.658-19.81c-1.759-0.696-3.362-1.693-4.76-2.915C89.164,76.333,89.286,76.462,89.423,76.575z"/>
				</g>
			</g>
			<g>
				<g>
					<path class="st3" d="M61.92,54.109c-1.942,0-3.516,1.566-3.516,3.498c0,0.407-0.077,0.8-0.209,1.169
						c-0.545-1.827-2.225-3.168-4.238-3.168c-2.303,0-4.174,1.751-4.396,3.985v0.866c0.032,0.944,0.149,1.867,0.397,2.739l0.004,0
						c0.024,0.085,0.046,0.172,0.072,0.256c1.516,4.893,2.526,9.927,2.526,15.047l7.903,7.864l0.817-8.725v-3.156
						c1.46,0.753,3.176,1.084,4.991,0.799c3.947-0.62,6.772-4.153,6.772-8.129v-7.127v-3.275c0-0.924-0.155-1.811-0.431-2.642H61.92
						z"/>
				</g>
				<g>
					<polygon class="st1" points="57.516,89.297 49.652,80.977 52.559,78.502 60.462,86.366 					"/>
				</g>
				<g>
					<polygon class="st1" points="64.284,88.237 64.837,81.083 61.279,77.641 60.462,86.366 					"/>
				</g>
				<g>
					<path class="st8" d="M62.132,93.928c4.86,0,9.448-1.15,13.511-3.187c-3.489-8.365-10.806-9.658-10.806-9.658l-0.553,7.154
						l-3.822-1.871l-2.946,2.932l-7.864-8.32c0,0-4.359,1.641-7.633,5.242C47.348,91.001,54.391,93.928,62.132,93.928z"/>
				</g>
				<g>
					<path class="st5" d="M77.116,43.306H57.49c-4.403,0-7.973,3.552-7.973,7.934v8.787c0-2.44,1.988-4.419,4.44-4.419
						c2.013,0,3.693,1.341,4.238,3.168c0.132-0.369,0.209-0.762,0.209-1.169c0-1.932,1.574-3.498,3.516-3.498H72.61
						C72.61,47.477,77.116,43.306,77.116,43.306z"/>
				</g>
			</g>
		</g>
		<g>
			<g>
				<ellipse class="st8" cx="99.829" cy="64" rx="16.369" ry="16.29"/>
			</g>
			<g>
				<path class="st3" d="M101.6,80.191c-0.58,0.07-1.17,0.1-1.77,0.1c-9.04,0-16.37-7.294-16.37-16.29
					c0-8.996,7.33-16.29,16.37-16.29c0.6,0,1.19,0.03,1.77,0.099C93.41,48.715,87.05,55.621,87.05,64
					C87.05,72.379,93.41,79.285,101.6,80.191z"/>
			</g>
			<g>
				<g>
					<rect x="91.067" y="62.989" class="st5" width="3.609" height="10.135"/>
				</g>
				<g>
					<path class="st3" d="M108.591,65.206c0-0.875-0.712-1.584-1.591-1.584c0.93,0,1.674-0.794,1.584-1.739
						c-0.079-0.823-0.821-1.428-1.652-1.428h-4.617v-3.697c0-1.04-0.847-1.882-1.891-1.882c-0.92,0-1.704,0.658-1.863,1.56
						c-0.37,2.104-1.364,6.553-3.884,6.553v10.135H107c0.879,0,1.591-0.709,1.591-1.584c0-0.874-0.712-1.584-1.591-1.584
						c0.879,0,1.591-0.709,1.591-1.584s-0.712-1.584-1.591-1.584C107.878,66.789,108.591,66.081,108.591,65.206z"/>
				</g>
			</g>
		</g>
		<g>
			<g>
				<ellipse class="st6" cx="24.436" cy="64" rx="16.369" ry="16.29"/>
			</g>
			<g>
				<path class="st3" d="M26.08,80.201c-0.54,0.06-1.08,0.09-1.64,0.09C15.4,80.29,8.07,72.996,8.07,64
					c0-8.996,7.33-16.29,16.37-16.29c0.56,0,1.1,0.03,1.64,0.09C17.87,48.675,11.47,55.601,11.47,64S17.87,79.325,26.08,80.201z"/>
			</g>
			<g>
				<g>
					<g>
						<path class="st3" d="M24.436,58.029c-6.42,0-11.625,5.971-11.625,5.971s5.205,5.971,11.625,5.971
							c6.42,0,11.625-5.971,11.625-5.971S30.856,58.029,24.436,58.029z"/>
					</g>
				</g>
				<g>
					<ellipse class="st1" cx="24.436" cy="63.986" rx="5.986" ry="5.957"/>
				</g>
			</g>
		</g>
		<g>
			<g>
				<ellipse class="st6" cx="99.829" cy="104.875" rx="10.174" ry="10.125"/>
			</g>
			<g>
				<path class="st8" d="M102.213,101.648c-1.629,0-2.389,1.96-2.389,1.96s-0.76-1.96-2.389-1.96c-1.38,0-2.202,1.034-2.202,2.376
					c0,3.458,4.591,6.113,4.591,6.113s4.591-2.655,4.591-6.113C104.415,102.682,103.593,101.648,102.213,101.648z"/>
			</g>
		</g>
		<g>
			<ellipse class="st8" cx="24.436" cy="23.125" rx="10.174" ry="10.125"/>
		</g>
		<g>
			<g>
				<ellipse class="st6" cx="99.829" cy="27.842" rx="10.914" ry="10.861"/>
			</g>
			<g>
				<polygon class="st8" points="99.829,22.345 101.624,25.964 105.637,26.544 102.733,29.361 103.419,33.338 99.829,31.46 
					96.239,33.338 96.925,29.361 94.021,26.544 98.034,25.964 				"/>
			</g>
		</g>
		<g>
			<g>
				<ellipse class="st8" cx="24.436" cy="100.158" rx="10.914" ry="10.861"/>
			</g>
			<g>
				<polygon class="st3" points="24.436,93.781 17.518,96.717 24.436,99.652 31.353,96.717 				"/>
			</g>
			<g>
				<polygon class="st0" points="31.353,103.6 24.436,106.536 24.436,99.652 31.353,96.717 				"/>
			</g>
			<g>
				<polygon class="st6" points="17.518,103.6 24.436,106.536 24.436,99.652 17.518,96.717 				"/>
			</g>
		</g>
	</g>
	<g>
		<g>
			<g>
				<path class="st5" d="M127,112.02h-19.085c-0.553,0-1-0.448-1-1s0.447-1,1-1H127c0.553,0,1,0.448,1,1S127.553,112.02,127,112.02z
					"/>
			</g>
			<g>
				<path class="st5" d="M91.745,112.02H1c-0.553,0-1-0.448-1-1s0.447-1,1-1h90.745c0.553,0,1,0.448,1,1
					S92.298,112.02,91.745,112.02z"/>
			</g>
		</g>
		<g>
			<g>
				<g>
					<path class="st5" d="M62.133,99.941c-13.794,0-26.574-7.998-32.559-20.375c-0.121-0.25-0.132-0.54-0.031-0.798
						c0.101-0.259,0.306-0.464,0.563-0.566c5.893-2.331,9.699-7.905,9.699-14.201s-3.807-11.87-9.699-14.201
						c-0.258-0.102-0.463-0.307-0.563-0.566c-0.101-0.259-0.09-0.548,0.031-0.798c5.984-12.378,18.765-20.375,32.559-20.375
						c13.793,0,26.573,7.998,32.558,20.375c0.121,0.25,0.132,0.54,0.031,0.798c-0.101,0.259-0.306,0.464-0.563,0.566
						C88.266,52.13,84.459,57.704,84.459,64s3.807,11.87,9.699,14.201c0.258,0.102,0.463,0.307,0.563,0.566
						c0.101,0.259,0.09,0.548-0.031,0.798C88.706,91.944,75.926,99.941,62.133,99.941z M31.844,79.629
						c5.833,11.159,17.607,18.312,30.289,18.312s24.455-7.154,30.288-18.312C86.334,76.78,82.459,70.758,82.459,64
						s3.875-12.78,9.962-15.629c-5.833-11.159-17.606-18.312-30.288-18.312s-24.456,7.154-30.289,18.312
						c6.087,2.849,9.962,8.871,9.962,15.629S37.931,76.78,31.844,79.629z"/>
				</g>
			</g>
			<g>
				<g>
					<path class="st5" d="M62.133,94.928c-12.053,0-23.121-7.038-28.197-17.931c-0.193-0.414-0.081-0.906,0.271-1.195
						c3.559-2.919,5.599-7.221,5.599-11.802s-2.04-8.883-5.599-11.802c-0.353-0.29-0.465-0.781-0.271-1.195
						C39.012,40.11,50.08,33.072,62.133,33.072s23.12,7.038,28.196,17.931c0.193,0.414,0.081,0.906-0.271,1.195
						c-3.559,2.919-5.599,7.221-5.599,11.802s2.04,8.883,5.599,11.802c0.353,0.29,0.465,0.781,0.271,1.195
						C85.253,87.89,74.185,94.928,62.133,94.928z M36.076,76.833c4.887,9.803,15.03,16.095,26.057,16.095
						c11.025,0,21.169-6.292,26.056-16.095c-3.651-3.281-5.729-7.914-5.729-12.833s2.078-9.552,5.729-12.833
						c-4.886-9.803-15.03-16.095-26.056-16.095c-11.026,0-21.171,6.292-26.057,16.095c3.651,3.28,5.729,7.914,5.729,12.833
						S39.728,73.552,36.076,76.833z"/>
				</g>
			</g>
			<g>
				<g>
					<g>
						<path class="st5" d="M60.462,87.366c-0.26,0-0.515-0.102-0.705-0.291l-7.902-7.864c-0.188-0.188-0.295-0.443-0.295-0.709
							c0-4.535-0.812-9.36-2.481-14.75l-0.056-0.197c-0.011-0.027-0.02-0.054-0.027-0.082c-0.254-0.894-0.396-1.868-0.434-2.978
							l-0.001-0.9c0.281-2.885,2.6-4.985,5.396-4.985c1.426,0,2.738,0.544,3.717,1.468c0.63-1.729,2.296-2.967,4.246-2.967h10.69
							c0.431,0,0.813,0.276,0.949,0.685c0.319,0.962,0.481,1.958,0.481,2.958v10.402c0,4.516-3.274,8.436-7.616,9.117
							c-1.41,0.221-2.817,0.117-4.146-0.299v1.668l-0.821,8.818c-0.036,0.385-0.292,0.715-0.656,0.847
							C60.691,87.346,60.576,87.366,60.462,87.366z M53.558,78.083l6.106,6.078l0.619-6.614l-0.004-3.063
							c0-0.349,0.182-0.672,0.479-0.854s0.669-0.195,0.979-0.035c1.349,0.695,2.863,0.936,4.377,0.7
							c3.379-0.53,5.927-3.601,5.927-7.142V56.752c0-0.551-0.062-1.102-0.188-1.643H61.92c-1.387,0-2.516,1.121-2.516,2.499
							c0,0.5-0.09,1.006-0.269,1.505c-0.145,0.407-0.546,0.676-0.968,0.664c-0.433-0.011-0.809-0.299-0.932-0.714
							c-0.438-1.468-1.756-2.454-3.279-2.454c-1.765,0-3.227,1.326-3.401,3.084l0.005,0.768c0.03,0.876,0.14,1.666,0.334,2.379
							c0.013,0.031,0.022,0.063,0.032,0.095l0.062,0.225C52.668,68.58,53.51,73.468,53.558,78.083z"/>
					</g>
				</g>
				<g>
					<g>
						<path class="st5" d="M61.278,75.484c-0.163,0-0.329-0.04-0.482-0.125c-1.299-0.717-2.42-1.769-3.24-3.043
							c-0.299-0.464-0.165-1.083,0.299-1.382c0.464-0.299,1.083-0.166,1.383,0.299c0.642,0.996,1.515,1.817,2.525,2.375
							c0.483,0.267,0.659,0.875,0.393,1.359C61.973,75.298,61.631,75.484,61.278,75.484z"/>
					</g>
				</g>
				<g>
					<g>
						<path class="st5" d="M57.516,90.297c-0.005,0-0.01,0-0.016,0c-0.27-0.004-0.526-0.117-0.711-0.313l-7.864-8.32
							c-0.188-0.199-0.287-0.467-0.272-0.741c0.016-0.274,0.142-0.529,0.351-0.708l2.908-2.475c0.396-0.336,0.984-0.315,1.354,0.052
							l7.902,7.864c0.188,0.188,0.295,0.443,0.295,0.709s-0.106,0.521-0.295,0.709l-2.946,2.932
							C58.033,90.193,57.779,90.297,57.516,90.297z M51.102,81.056l6.436,6.809l1.507-1.499l-6.537-6.506L51.102,81.056z"/>
					</g>
				</g>
				<g>
					<g>
						<path class="st5" d="M64.283,89.237c-0.15,0-0.301-0.034-0.439-0.102l-3.821-1.871c-0.374-0.183-0.595-0.577-0.557-0.991
							l0.817-8.725c0.036-0.383,0.288-0.711,0.649-0.845c0.359-0.132,0.767-0.048,1.042,0.219l3.558,3.442
							c0.214,0.207,0.324,0.499,0.302,0.796l-0.554,7.154c-0.025,0.331-0.213,0.626-0.501,0.791
							C64.626,89.193,64.455,89.237,64.283,89.237z M61.522,85.771l1.877,0.919l0.404-5.217l-1.723-1.667L61.522,85.771z"/>
					</g>
				</g>
				<g>
					<g>
						<path class="st5" d="M62.133,94.928c-7.678,0-15.059-2.829-20.782-7.965c-0.198-0.178-0.317-0.427-0.331-0.693
							s0.08-0.526,0.259-0.724c3.396-3.736,7.834-5.434,8.021-5.505c0.378-0.141,0.802-0.044,1.079,0.249l7.159,7.575l2.22-2.208
							c0.302-0.301,0.764-0.377,1.145-0.189l2.498,1.223l0.44-5.686c0.021-0.281,0.161-0.541,0.385-0.713
							c0.224-0.172,0.51-0.242,0.786-0.194c0.321,0.057,7.898,1.49,11.555,10.259c0.202,0.485-0.005,1.043-0.475,1.279
							C71.734,93.82,67.038,94.928,62.133,94.928z M43.473,86.155c5.237,4.375,11.822,6.773,18.66,6.773
							c4.27,0,8.369-0.896,12.2-2.666c-2.516-5.242-6.646-7.222-8.593-7.891l-0.46,5.942c-0.025,0.331-0.213,0.626-0.501,0.791
							s-0.639,0.176-0.936,0.03l-3.182-1.558l-2.441,2.429c-0.191,0.19-0.419,0.301-0.721,0.291
							c-0.27-0.004-0.526-0.117-0.711-0.313l-7.387-7.814C48.262,82.688,45.7,83.994,43.473,86.155z"/>
					</g>
				</g>
				<g>
					<g>
						<path class="st5" d="M49.517,61.027c-0.553,0-1-0.448-1-1V51.24c0-4.926,4.025-8.934,8.973-8.934h19.627
							c0.411,0,0.781,0.252,0.931,0.635c0.15,0.382,0.051,0.818-0.25,1.098c-0.064,0.061-4.187,3.997-4.187,10.071
							c0,0.552-0.447,1-1,1H61.92c-1.387,0-2.516,1.121-2.516,2.499c0,0.5-0.09,1.006-0.269,1.505
							c-0.145,0.407-0.546,0.676-0.968,0.664c-0.433-0.011-0.809-0.299-0.932-0.714c-0.438-1.468-1.756-2.454-3.279-2.454
							c-1.897,0-3.44,1.534-3.44,3.419C50.517,60.58,50.069,61.027,49.517,61.027z M53.957,54.608c1.426,0,2.738,0.544,3.717,1.468
							c0.63-1.729,2.296-2.967,4.246-2.967h9.723c0.254-3.993,1.982-7.037,3.294-8.804H57.489c-3.845,0-6.973,3.111-6.973,6.934
							v4.593C51.455,55.068,52.653,54.608,53.957,54.608z"/>
					</g>
				</g>
			</g>
		</g>
		<g>
			<g>
				<g>
					<path class="st5" d="M99.829,81.29c-9.577,0-17.369-7.756-17.369-17.29s7.792-17.29,17.369-17.29s17.369,7.756,17.369,17.29
						S109.406,81.29,99.829,81.29z M99.829,48.71c-8.475,0-15.369,6.859-15.369,15.29s6.895,15.29,15.369,15.29
						s15.369-6.859,15.369-15.29S108.304,48.71,99.829,48.71z"/>
				</g>
			</g>
			<g>
				<g>
					<g>
						<path class="st5" d="M94.677,74.124h-3.609c-0.553,0-1-0.448-1-1V62.989c0-0.552,0.447-1,1-1h3.609c0.553,0,1,0.448,1,1
							v10.134C95.677,73.676,95.229,74.124,94.677,74.124z M92.067,72.124h1.609v-8.134h-1.609V72.124z"/>
					</g>
				</g>
				<g>
					<g>
						<path class="st5" d="M107,74.124H94.677c-0.553,0-1-0.448-1-1V62.989c0-0.552,0.447-1,1-1c1.185,0,2.269-2.141,2.898-5.726
							c0.243-1.383,1.44-2.387,2.848-2.387c1.595,0,2.892,1.293,2.892,2.882v2.696h3.617c1.36,0,2.522,1.025,2.646,2.334
							c0.063,0.658-0.129,1.316-0.532,1.834c0.342,0.438,0.545,0.987,0.545,1.583c0,0.596-0.203,1.146-0.545,1.583
							c0.342,0.438,0.545,0.987,0.545,1.583s-0.203,1.146-0.545,1.583c0.342,0.438,0.545,0.987,0.545,1.583
							C109.591,72.964,108.429,74.124,107,74.124z M95.677,72.124H107c0.326,0,0.591-0.262,0.591-0.583s-0.265-0.583-0.591-0.583
							c-0.553,0-1-0.448-1-1s0.447-1,1-1c0.326,0,0.591-0.262,0.591-0.583S107.326,67.79,107,67.79c-0.553,0-1-0.448-1-1
							s0.447-1,1-1c0.326,0,0.591-0.262,0.591-0.583s-0.265-0.583-0.591-0.583c-0.553,0-1-0.448-1-1s0.447-1,1-1
							c0.229,0,0.374-0.122,0.439-0.194c0.064-0.071,0.17-0.224,0.148-0.449c-0.027-0.29-0.322-0.524-0.656-0.524h-4.617
							c-0.553,0-1-0.448-1-1v-3.696c0-0.486-0.4-0.882-0.892-0.882c-0.434,0-0.803,0.308-0.877,0.733
							c-0.735,4.175-2.034,6.595-3.869,7.218V72.124z"/>
					</g>
				</g>
			</g>
		</g>
		<g>
			<g>
				<g>
					<path class="st5" d="M24.436,81.29c-9.577,0-17.369-7.756-17.369-17.29s7.792-17.29,17.369-17.29
						c9.578,0,17.37,7.756,17.37,17.29S34.014,81.29,24.436,81.29z M24.436,48.71c-8.475,0-15.369,6.859-15.369,15.29
						s6.895,15.29,15.369,15.29c8.476,0,15.37-6.859,15.37-15.29S32.911,48.71,24.436,48.71z"/>
				</g>
			</g>
			<g>
				<g>
					<g>
						<g>
							<path class="st5" d="M24.436,70.971c-6.797,0-12.154-6.056-12.379-6.313c-0.328-0.376-0.328-0.938,0-1.314
								c0.225-0.258,5.582-6.313,12.379-6.313c6.798,0,12.154,6.056,12.379,6.313c0.328,0.377,0.328,0.938,0,1.314
								C36.59,64.915,31.233,70.971,24.436,70.971z M14.2,63.999c1.521,1.485,5.586,4.972,10.235,4.972
								c4.648,0,8.713-3.485,10.234-4.971c-1.521-1.486-5.586-4.971-10.234-4.971C19.772,59.029,15.717,62.513,14.2,63.999z"/>
						</g>
					</g>
				</g>
				<g>
					<g>
						<path class="st5" d="M24.436,70.943c-3.852,0-6.985-3.121-6.985-6.957s3.134-6.957,6.985-6.957
							c3.853,0,6.986,3.121,6.986,6.957S28.288,70.943,24.436,70.943z M24.436,59.029c-2.749,0-4.985,2.224-4.985,4.957
							c0,2.733,2.236,4.957,4.985,4.957s4.986-2.224,4.986-4.957C29.422,61.253,27.185,59.029,24.436,59.029z"/>
					</g>
				</g>
			</g>
		</g>
		<g>
			<path class="st5" d="M99.829,95.29c-0.553,0-1-0.448-1-1v-2c0-0.552,0.447-1,1-1s1,0.448,1,1v2
				C100.829,94.842,100.382,95.29,99.829,95.29z M99.829,89.29c-0.553,0-1-0.448-1-1v-2c0-0.552,0.447-1,1-1s1,0.448,1,1v2
				C100.829,88.842,100.382,89.29,99.829,89.29z M99.829,83.29c-0.553,0-1-0.448-1-1v-2c0-0.552,0.447-1,1-1s1,0.448,1,1v2
				C100.829,82.842,100.382,83.29,99.829,83.29z"/>
		</g>
		<g>
			<path class="st5" d="M24.436,48.71c-0.553,0-1-0.448-1-1v-2c0-0.552,0.447-1,1-1s1,0.448,1,1v2
				C25.436,48.263,24.988,48.71,24.436,48.71z M24.436,42.71c-0.553,0-1-0.448-1-1v-2c0-0.552,0.447-1,1-1s1,0.448,1,1v2
				C25.436,42.263,24.988,42.71,24.436,42.71z M24.436,36.71c-0.553,0-1-0.448-1-1v-2c0-0.552,0.447-1,1-1s1,0.448,1,1v2
				C25.436,36.263,24.988,36.71,24.436,36.71z"/>
		</g>
		<g>
			<g>
				<g>
					<path class="st5" d="M99.829,116c-6.162,0-11.175-4.99-11.175-11.125s5.013-11.125,11.175-11.125
						c6.161,0,11.174,4.99,11.174,11.125S105.99,116,99.829,116z M99.829,95.751c-5.059,0-9.175,4.093-9.175,9.125
						S94.771,114,99.829,114s9.174-4.093,9.174-9.125S104.888,95.751,99.829,95.751z"/>
				</g>
			</g>
			<g>
				<g>
					<path class="st4" d="M99.824,111.137c-0.173,0-0.346-0.045-0.501-0.134c-0.207-0.12-5.09-2.989-5.09-6.979
						c0-1.956,1.347-3.376,3.202-3.376c1.018,0,1.816,0.507,2.389,1.124c0.572-0.616,1.371-1.124,2.389-1.124
						c1.855,0,3.202,1.42,3.202,3.376c0,3.989-4.883,6.858-5.09,6.979C100.17,111.092,99.997,111.137,99.824,111.137z
						 M97.436,102.648c-1.115,0-1.202,1.053-1.202,1.376c0,2.059,2.263,4.026,3.591,4.929c1.328-0.903,3.591-2.871,3.591-4.929
						c0-0.323-0.087-1.376-1.202-1.376c-0.903,0-1.451,1.308-1.456,1.321c-0.149,0.385-0.52,0.639-0.933,0.639
						s-0.783-0.253-0.933-0.639C98.889,103.961,98.337,102.648,97.436,102.648z"/>
				</g>
			</g>
		</g>
		<g>
			<g>
				<g>
					<path class="st5" d="M24.436,34.249c-6.161,0-11.174-4.99-11.174-11.125S18.274,12,24.436,12
						c6.162,0,11.175,4.99,11.175,11.125S30.598,34.249,24.436,34.249z M24.436,14c-5.059,0-9.174,4.093-9.174,9.125
						s4.115,9.125,9.174,9.125s9.175-4.093,9.175-9.125S29.494,14,24.436,14z"/>
				</g>
			</g>
			<g>
				<g>
					<path class="st5" d="M24.436,31.284c-0.553,0-1-0.448-1-1v-1.558c0-0.552,0.447-1,1-1s1,0.448,1,1v1.558
						C25.436,30.836,24.988,31.284,24.436,31.284z"/>
				</g>
			</g>
			<g>
				<g>
					<path class="st5" d="M25.106,29.726H23.76c-1.853,0-3.36-1.505-3.36-3.354c0-0.552,0.447-1,1-1s1,0.448,1,1
						c0,0.747,0.61,1.354,1.36,1.354h1.347c0.753,0,1.366-0.607,1.366-1.354V25.55c0-0.744-0.613-1.349-1.366-1.349H23.76
						c-1.853,0-3.36-1.502-3.36-3.35v-0.826c0-1.847,1.508-3.35,3.36-3.35h1.347c1.856,0,3.366,1.502,3.366,3.35
						c0,0.552-0.447,1-1,1s-1-0.448-1-1c0-0.744-0.613-1.35-1.366-1.35H23.76c-0.75,0-1.36,0.605-1.36,1.35v0.826
						c0,0.744,0.61,1.35,1.36,1.35h1.347c1.856,0,3.366,1.502,3.366,3.349v0.821C28.473,28.221,26.963,29.726,25.106,29.726z"/>
				</g>
			</g>
			<g>
				<g>
					<path class="st5" d="M24.436,18.676c-0.553,0-1-0.448-1-1v-1.71c0-0.552,0.447-1,1-1s1,0.448,1,1v1.71
						C25.436,18.228,24.988,18.676,24.436,18.676z"/>
				</g>
			</g>
		</g>
		<g>
			<g>
				<g>
					<path class="st5" d="M99.829,39.703c-6.569,0-11.914-5.321-11.914-11.861c0-6.541,5.345-11.861,11.914-11.861
						s11.914,5.321,11.914,11.861C111.743,34.382,106.398,39.703,99.829,39.703z M99.829,17.98c-5.467,0-9.914,4.424-9.914,9.861
						s4.447,9.861,9.914,9.861s9.914-4.423,9.914-9.861S105.296,17.98,99.829,17.98z"/>
				</g>
			</g>
			<g>
				<g>
					<path class="st5" d="M103.419,34.338c-0.158,0-0.317-0.038-0.464-0.114l-3.126-1.636l-3.126,1.636
						c-0.34,0.176-0.745,0.145-1.053-0.078c-0.308-0.224-0.461-0.603-0.396-0.978l0.596-3.458l-2.525-2.449
						c-0.273-0.265-0.372-0.663-0.255-1.026s0.431-0.627,0.809-0.682l3.493-0.505l1.562-3.149c0.336-0.681,1.455-0.681,1.791,0
						l1.562,3.149l3.493,0.505c0.377,0.055,0.69,0.319,0.808,0.682c0.117,0.362,0.019,0.76-0.255,1.026l-2.524,2.449l0.596,3.458
						c0.064,0.375-0.089,0.754-0.396,0.978C103.833,34.273,103.627,34.338,103.419,34.338z M96.177,27.243l1.444,1.4
						c0.237,0.23,0.346,0.562,0.289,0.888l-0.342,1.984l1.797-0.94c0.291-0.151,0.637-0.151,0.928,0l1.797,0.94l-0.342-1.984
						c-0.057-0.326,0.052-0.658,0.289-0.888l1.443-1.4l-2-0.289c-0.325-0.047-0.606-0.251-0.752-0.545l-0.899-1.813l-0.899,1.813
						c-0.146,0.294-0.427,0.499-0.753,0.545L96.177,27.243z"/>
				</g>
			</g>
		</g>
		<g>
			<g>
				<g>
					<path class="st5" d="M24.436,112.02c-6.569,0-11.914-5.321-11.914-11.861c0-6.54,5.345-11.861,11.914-11.861
						c6.57,0,11.915,5.321,11.915,11.861C36.351,106.699,31.006,112.02,24.436,112.02z M24.436,90.297
						c-5.467,0-9.914,4.423-9.914,9.861s4.447,9.861,9.914,9.861s9.915-4.424,9.915-9.861S29.902,90.297,24.436,90.297z"/>
				</g>
			</g>
			<g>
				<g>
					<g>
						<path class="st5" d="M24.436,100.652c-0.133,0-0.266-0.026-0.391-0.08l-6.917-2.936c-0.369-0.157-0.609-0.519-0.609-0.92
							s0.24-0.764,0.609-0.92l6.917-2.936c0.25-0.106,0.531-0.106,0.781,0l6.918,2.936c0.369,0.157,0.609,0.519,0.609,0.92
							s-0.24,0.764-0.609,0.92l-6.918,2.936C24.701,100.626,24.568,100.652,24.436,100.652z M20.078,96.716l4.357,1.85l4.358-1.85
							l-4.358-1.849L20.078,96.716z"/>
					</g>
				</g>
				<g>
					<g>
						<path class="st5" d="M24.436,107.536c-0.193,0-0.386-0.056-0.552-0.166c-0.28-0.186-0.448-0.499-0.448-0.834v-6.884
							c0-0.401,0.24-0.764,0.609-0.92l6.918-2.936c0.307-0.131,0.662-0.1,0.942,0.086c0.28,0.186,0.448,0.499,0.448,0.834v6.884
							c0,0.401-0.24,0.764-0.609,0.92l-6.918,2.936C24.701,107.51,24.568,107.536,24.436,107.536z M25.436,100.314v4.711
							l4.918-2.087v-4.711L25.436,100.314z M31.354,103.6h0.01H31.354z"/>
					</g>
				</g>
				<g>
					<g>
						<path class="st5" d="M24.436,107.536c-0.133,0-0.266-0.026-0.391-0.08l-6.917-2.936c-0.369-0.157-0.609-0.519-0.609-0.92
							v-6.884c0-0.335,0.168-0.649,0.448-0.834c0.279-0.186,0.635-0.218,0.942-0.086l6.917,2.936
							c0.369,0.157,0.609,0.519,0.609,0.92v6.884c0,0.335-0.168,0.649-0.448,0.834C24.821,107.48,24.629,107.536,24.436,107.536z
							 M18.519,102.938l4.917,2.087v-4.711l-4.917-2.087V102.938z"/>
					</g>
				</g>
			</g>
		</g>
	</g>
</g>
</svg>
