<?xml version="1.0" encoding="utf-8"?>
<!-- Generator: Adobe Illustrator 22.0.0, SVG Export Plug-In . SVG Version: 6.00 Build 0)  -->
<svg version="1.1" id="MARKET_RESEARCH_ICON_SET" xmlns="http://www.w3.org/2000/svg" xmlns:xlink="http://www.w3.org/1999/xlink"
	 x="0px" y="0px" viewBox="0 0 128 128" style="enable-background:new 0 0 128 128;" xml:space="preserve">
<style type="text/css">
	.st0{fill:#C2D5EC;}
	.st1{fill:#61E1FF;}
	.st2{fill:#7184AF;}
	.st3{fill:#F8F8F8;}
	.st4{fill:#3F4D81;}
	.st5{fill:#3F4D80;}
	.st6{fill:#E9EAEB;}
	.st7{fill:#F79559;}
	.st8{fill:#FFA85A;}
</style>
<g>
	<g>
		<path class="st0" d="M112.219,43.06C86.369,33.227,83.398,11,64,11S41.631,33.227,15.781,43.06c0,0-9.339,51.945,48.219,73.94
			C121.558,95.005,112.219,43.06,112.219,43.06z"/>
		<path class="st5" d="M112.219,43.06c-7.616-2.897-13.237-6.871-17.887-11.034c-1.409,1.777-2.257,4.018-2.257,6.461v6.692
			c-0.141-0.02-0.285-0.034-0.433-0.034c0,0-2.629,0-2.629,2.638v2.649c0,2.162,1.179,4.124,3.931,4.539
			c0.057,0.009,0.104,0.011,0.158,0.017c1.029,3.95,3.803,7.195,7.451,8.861v4.762l-5.585,2.755l-0.001-0.001
			c0,0-2.243,0.841-4.823,2.594c-2.251-7.974-11.973-11.612-11.973-11.612l0,0l-5.583-2.755h0v-4.763
			c3.647-1.667,6.42-4.911,7.449-8.86c0.053-0.006,0.101-0.009,0.158-0.017c2.752-0.416,3.931-2.377,3.931-4.539v-2.649
			c0-2.638-2.629-2.638-2.629-2.638c-0.148,0-0.292,0.013-0.433,0.034v-6.69c0-10.425-5.669-7.585-5.669-7.585
			s-1.15-2.84-4.769-2.84h-7.252c-5.764,0-10.437,4.667-10.437,10.423v6.692c-0.141-0.02-0.285-0.034-0.433-0.034
			c0,0-2.629,0-2.629,2.638v2.649c0,2.162,1.179,4.124,3.931,4.539c0.057,0.009,0.104,0.011,0.158,0.017
			c1.029,3.95,3.803,7.194,7.451,8.861v4.762l-5.585,2.755l-0.001-0.001c0,0-9.722,3.637-11.973,11.612
			c-2.58-1.753-4.823-2.594-4.823-2.594l0,0l-5.583-2.755l0,0V63.85c3.647-1.667,6.42-4.911,7.449-8.86
			c0.053-0.006,0.101-0.009,0.158-0.017c2.752-0.416,3.931-2.377,3.931-4.539v-2.649c0-2.638-2.629-2.638-2.629-2.638
			c-0.148,0-0.292,0.014-0.433,0.034v-6.69c0-10.425-5.669-7.585-5.669-7.585s-0.148-0.357-0.494-0.817
			c-5.045,4.85-11.188,9.628-19.98,12.973c0,0-0.991,5.522-0.335,13.724c1.311,3.127,3.751,5.662,6.828,7.067v4.762l-4.281,2.112
			c2.039,7.009,5.49,14.616,11.208,21.9h15.802c1.919,10.394,11.034,18.27,21.997,18.27s20.078-7.876,21.997-18.27h9.802
			C116.963,69.487,112.219,43.06,112.219,43.06z"/>
		<g>
			<g>
				<path class="st6" d="M97.553,60.849v4.767l5.588,10.581l5.588-10.581v-4.767c-1.704,0.777-3.592,1.221-5.588,1.221
					C101.145,62.07,99.257,61.626,97.553,60.849z"/>
			</g>
			<g>
				<path class="st7" d="M126.752,83.333c0-10.315-12.44-14.962-12.44-14.962l0,0l-5.583-2.755l-5.588,10.581l0.002,0.001
					l-0.003,0.002l-0.002-0.001l0.003-0.002l-5.588-10.581l-5.585,2.755l-0.001-0.001c0,0-12.44,4.647-12.44,14.962
					c0,1.86-0.132,4.012-0.248,6.296H127C126.883,87.345,126.752,85.193,126.752,83.333z"/>
			</g>
			<g>
				<path class="st5" d="M93.538,39.741c0-2.538,2.06-4.596,4.602-4.596h9.999c2.542,0,4.602,2.058,4.602,4.596
					c0,7.345,4.462,2.443,4.462,2.443v-6.69c0-10.425-5.669-7.585-5.669-7.585s-1.15-2.84-4.769-2.84h-7.252
					c-5.764,0-10.437,4.667-10.437,10.423v6.692C89.076,42.183,93.538,47.086,93.538,39.741z"/>
			</g>
			<g>
				<path class="st3" d="M117.637,42.149c-0.148,0-0.292,0.013-0.433,0.034c0,0-4.462,4.902-4.462-2.443
					c0-2.538-2.06-4.596-4.602-4.596H98.14c-2.542,0-4.602,2.058-4.602,4.596c0,7.345-4.462,2.443-4.462,2.443
					c-0.141-0.02-0.285-0.034-0.433-0.034c0,0-2.629,0-2.629,2.638v2.649c0,2.162,1.179,4.124,3.931,4.539
					c0.057,0.009,0.104,0.011,0.158,0.017c1.509,5.792,6.765,10.074,13.038,10.074c6.272,0,11.529-4.282,13.038-10.074
					c0.053-0.006,0.101-0.009,0.158-0.017c2.752-0.416,3.931-2.377,3.931-4.539v-2.649
					C120.266,42.149,117.637,42.149,117.637,42.149z"/>
			</g>
		</g>
		<g>
			<g>
				<path class="st6" d="M19.273,60.849v4.767l5.588,10.581l5.588-10.581v-4.767c-1.704,0.777-3.592,1.221-5.588,1.221
					C22.865,62.07,20.978,61.626,19.273,60.849z"/>
			</g>
			<g>
				<path class="st7" d="M48.472,83.333c0-10.315-12.44-14.962-12.44-14.962l0,0l-5.583-2.755l-5.588,10.581l0.002,0.001
					l-0.003,0.002L24.858,76.2l0.003-0.002l-5.588-10.581l-5.585,2.755l-0.001-0.001c0,0-12.44,4.647-12.44,14.962
					c0,1.86-0.132,4.012-0.248,6.296h47.72C48.603,87.345,48.472,85.193,48.472,83.333z"/>
			</g>
			<g>
				<path class="st5" d="M15.258,39.741c0-2.538,2.06-4.596,4.602-4.596h9.999c2.542,0,4.602,2.058,4.602,4.596
					c0,7.345,4.462,2.443,4.462,2.443v-6.69c0-10.425-5.669-7.585-5.669-7.585s-1.15-2.84-4.769-2.84h-7.252
					c-5.764,0-10.437,4.667-10.437,10.423v6.692C10.796,42.183,15.258,47.086,15.258,39.741z"/>
			</g>
			<g>
				<path class="st3" d="M39.357,42.149c-0.148,0-0.292,0.013-0.433,0.034c0,0-4.462,4.902-4.462-2.443
					c0-2.538-2.06-4.596-4.602-4.596h-9.999c-2.542,0-4.602,2.058-4.602,4.596c0,7.345-4.462,2.443-4.462,2.443
					c-0.141-0.02-0.285-0.034-0.433-0.034c0,0-2.629,0-2.629,2.638v2.649c0,2.162,1.179,4.124,3.931,4.539
					c0.057,0.009,0.104,0.011,0.158,0.017c1.509,5.792,6.765,10.074,13.038,10.074s11.529-4.282,13.038-10.074
					c0.053-0.006,0.101-0.009,0.158-0.017c2.752-0.416,3.931-2.377,3.931-4.539v-2.649C41.986,42.149,39.357,42.149,39.357,42.149z"
					/>
			</g>
		</g>
		<g>
			<g>
				<path class="st6" d="M58.413,51.831v4.767l5.588,10.581l5.588-10.581v-4.767c-1.704,0.777-3.592,1.221-5.588,1.221
					C62.005,53.052,60.117,52.608,58.413,51.831z"/>
			</g>
			<g>
				<path class="st8" d="M87.612,74.315c0-10.315-12.44-14.962-12.44-14.962l0,0l-5.583-2.755L64.001,67.18l0.002,0.001L64,67.183
					l-0.002-0.001l0.003-0.002l-5.588-10.581l-5.585,2.755l-0.001-0.001c0,0-12.44,4.647-12.44,14.962
					c0,1.86-0.132,4.012-0.248,6.296h47.72C87.743,78.327,87.612,76.175,87.612,74.315z"/>
			</g>
			<g>
				<path class="st5" d="M54.398,30.723c0-2.538,2.06-4.596,4.602-4.596h9.999c2.542,0,4.602,2.058,4.602,4.596
					c0,7.345,4.462,2.443,4.462,2.443v-6.69c0-10.425-5.669-7.585-5.669-7.585s-1.15-2.84-4.769-2.84h-7.252
					c-5.764,0-10.437,4.667-10.437,10.423v6.692C49.936,33.165,54.398,38.068,54.398,30.723z"/>
			</g>
			<g>
				<path class="st3" d="M78.497,33.132c-0.148,0-0.292,0.013-0.433,0.034c0,0-4.462,4.902-4.462-2.443
					c0-2.538-2.06-4.596-4.602-4.596h-9.999c-2.542,0-4.602,2.058-4.602,4.596c0,7.345-4.462,2.443-4.462,2.443
					c-0.141-0.02-0.285-0.034-0.433-0.034c0,0-2.629,0-2.629,2.638v2.649c0,2.162,1.179,4.124,3.931,4.539
					c0.057,0.009,0.104,0.011,0.158,0.017C52.471,48.768,57.728,53.05,64,53.05s11.529-4.282,13.038-10.074
					c0.053-0.006,0.101-0.009,0.158-0.017c2.752-0.416,3.931-2.377,3.931-4.539V35.77C81.126,33.132,78.497,33.132,78.497,33.132z"
					/>
			</g>
		</g>
		<g>
			<g>
				<ellipse class="st1" cx="64" cy="85.552" rx="22.376" ry="22.346"/>
			</g>
			<g>
				<path class="st3" d="M66.2,107.793c-0.72,0.07-1.46,0.11-2.2,0.11c-12.36,0-22.38-10.007-22.38-22.351S51.64,63.211,64,63.211
					c0.74,0,1.48,0.04,2.2,0.11c-11.33,1.098-20.18,10.626-20.18,22.231S54.87,106.694,66.2,107.793z"/>
			</g>
			<g>
				<path class="st2" d="M59.579,101.159h12.842c2.223,0,4.024-1.799,4.024-4.019V87.043c0-2.22-1.802-4.019-4.024-4.019H59.579
					c-2.223,0-4.024,1.799-4.024,4.019v10.097C55.555,99.359,57.356,101.159,59.579,101.159z"/>
			</g>
			<g>
				<path class="st8" d="M57.579,99.161h12.842c2.223,0,4.024-1.799,4.024-4.019V85.045c0-2.22-1.802-4.019-4.024-4.019H57.579
					c-2.223,0-4.024,1.799-4.024,4.019v10.097C53.555,97.362,55.356,99.161,57.579,99.161z"/>
			</g>
			<g>
				<path class="st3" d="M74.41,84.523c-0.2-0.03-0.41-0.05-0.63-0.05H58.41c-0.83,0-1.5,0.669-1.5,1.498v12.614
					c0,0.18,0.01,0.36,0.04,0.529c-1.92-0.3-3.4-1.967-3.4-3.975V85.043c0-2.217,1.81-4.015,4.03-4.015h12.84
					C72.46,81.028,74.16,82.546,74.41,84.523z"/>
			</g>
			<g>
				<ellipse class="st5" cx="64" cy="88.397" rx="2.815" ry="2.811"/>
			</g>
		</g>
	</g>
	<g>
		<g>
			<g>
				<g>
					<path class="st5" d="M111.034,67.754c-0.152,0-0.303-0.034-0.443-0.104l-2.305-1.138c-0.341-0.168-0.557-0.516-0.557-0.896
						v-4.763c0-0.392,0.228-0.747,0.584-0.909c1.256-0.574,2.402-1.35,3.408-2.305c0.303-0.287,0.754-0.358,1.129-0.172
						c0.375,0.185,0.597,0.583,0.554,0.999c-0.292,2.853-0.762,5.715-1.396,8.509c-0.068,0.298-0.269,0.55-0.545,0.681
						C111.328,67.722,111.181,67.754,111.034,67.754z M109.729,64.995l0.599,0.295c0.317-1.529,0.584-3.077,0.798-4.629
						c-0.45,0.299-0.916,0.572-1.397,0.818V64.995z"/>
				</g>
			</g>
			<g>
				<g>
					<path class="st5" d="M16.966,67.755c-0.147,0-0.294-0.032-0.43-0.098c-0.276-0.131-0.477-0.383-0.545-0.681
						c-0.634-2.794-1.103-5.656-1.396-8.51c-0.043-0.416,0.178-0.814,0.554-0.999c0.375-0.187,0.826-0.115,1.129,0.172
						c1.006,0.955,2.153,1.73,3.41,2.306c0.356,0.162,0.584,0.518,0.584,0.909v4.762c0,0.381-0.216,0.729-0.558,0.896l-2.307,1.139
						C17.27,67.721,17.118,67.755,16.966,67.755z M16.874,60.662c0.214,1.552,0.481,3.1,0.798,4.63l0.602-0.298v-3.513
						C17.791,61.234,17.324,60.961,16.874,60.662z"/>
				</g>
			</g>
			<g>
				<g>
					<path class="st5" d="M87.145,71.965c-0.115,0-0.231-0.02-0.342-0.061c-0.302-0.11-0.533-0.358-0.62-0.668
						c-2.089-7.401-11.268-10.913-11.361-10.947c-0.031-0.012-0.062-0.025-0.092-0.04l-4.711-2.323l-3.085,5.845
						c-0.188,0.357-0.57,0.571-0.975,0.529c-1.376-0.126-2.521-0.127-3.915-0.001c-0.395,0.044-0.785-0.172-0.974-0.529
						l-3.087-5.844l-4.712,2.324c-0.033,0.017-0.067,0.031-0.102,0.044c-0.242,0.092-9.277,3.593-11.352,10.942
						c-0.087,0.31-0.318,0.558-0.62,0.668c-0.301,0.111-0.639,0.068-0.904-0.112c-2.439-1.657-4.591-2.477-4.613-2.484
						c-0.03-0.012-0.061-0.025-0.09-0.04l-5.583-2.755c-0.341-0.168-0.558-0.516-0.558-0.896v-4.763
						c0-0.392,0.229-0.747,0.584-0.909c3.434-1.57,5.947-4.56,6.896-8.203c0.104-0.401,0.446-0.696,0.858-0.742l0.267,0.978
						l-0.149-0.988c2.68-0.405,3.08-2.399,3.08-3.552v-2.648c0-1.492-1.254-1.632-1.638-1.639c-0.09,0-0.186,0.01-0.28,0.023
						c-0.29,0.04-0.579-0.043-0.799-0.232c-0.219-0.19-0.346-0.467-0.346-0.757v-6.69c0-3.784-0.779-5.456-1.432-6.193
						c-0.351-0.396-0.333-0.995,0.04-1.369c1.505-1.509,2.924-3.017,4.296-4.475C47.623,16.236,53.491,10,64,10
						c10.512,0,16.383,6.238,23.182,13.463c1.521,1.615,3.093,3.286,4.78,4.955c0.359,0.355,0.397,0.923,0.088,1.323
						c-1.291,1.668-1.974,3.656-1.974,5.75v6.692c0,0.29-0.126,0.566-0.346,0.757c-0.22,0.188-0.509,0.273-0.799,0.232
						c-0.094-0.014-0.189-0.023-0.289-0.023c-0.375,0.007-1.629,0.146-1.629,1.639v2.648c0,1.152,0.4,3.146,3.081,3.551
						c0.005,0.001,0.112,0.011,0.117,0.012c0.413,0.045,0.755,0.341,0.859,0.742c0.949,3.646,3.464,6.636,6.898,8.204
						c0.356,0.162,0.584,0.518,0.584,0.909v4.762c0,0.381-0.216,0.729-0.558,0.896l-5.585,2.756
						c-0.035,0.018-0.071,0.033-0.107,0.046c-0.141,0.054-2.2,0.85-4.596,2.478C87.539,71.906,87.343,71.965,87.145,71.965z
						 M75.603,58.481c1.704,0.668,9.392,4.088,12.08,10.947c2.154-1.319,3.852-1.963,3.935-1.994l4.937-2.439v-3.514
						c-3.491-1.783-6.085-4.869-7.239-8.606c-2.671-0.6-4.3-2.643-4.3-5.438v-2.648c0-2.341,1.668-3.374,3.062-3.593v-5.704
						c0-2.245,0.646-4.39,1.875-6.253c-1.484-1.491-2.875-2.97-4.227-4.405C78.978,17.663,73.648,12,64,12
						c-9.645,0-14.971,5.66-21.715,12.827c-1.199,1.273-2.433,2.585-3.735,3.908c0.923,1.504,1.374,3.728,1.374,6.758v5.702
						c1.395,0.219,3.062,1.252,3.062,3.593v2.648c0,2.8-1.634,4.845-4.3,5.439c-1.154,3.735-3.748,6.82-7.237,8.604v3.514
						l4.984,2.46c0.307,0.118,1.902,0.76,3.885,1.975c2.928-7.481,11.765-10.865,12.159-11.013l5.494-2.714
						c0.485-0.24,1.073-0.05,1.327,0.43l3.235,6.123c1.017-0.066,1.934-0.065,2.94,0.001l3.232-6.124
						c0.253-0.479,0.843-0.669,1.327-0.43l5.583,2.755L75.603,58.481z"/>
				</g>
			</g>
			<g>
				<g>
					<path class="st5" d="M64,118c-0.121,0-0.242-0.021-0.357-0.065C47.2,111.65,34.59,102.318,26.164,90.199
						c-0.213-0.306-0.238-0.704-0.065-1.034s0.514-0.537,0.886-0.537h15.018c0.482,0,0.896,0.344,0.983,0.818
						C44.853,99.559,53.691,106.898,64,106.898s19.147-7.34,21.014-17.452c0.087-0.475,0.501-0.818,0.983-0.818h15.018
						c0.372,0,0.714,0.207,0.886,0.537s0.147,0.729-0.065,1.034C93.41,102.318,80.8,111.65,64.357,117.935
						C64.242,117.979,64.121,118,64,118z M28.934,90.628c8.113,10.937,19.9,19.443,35.066,25.301
						c15.166-5.857,26.953-14.364,35.066-25.301H86.815C84.458,101.264,74.994,108.898,64,108.898s-20.458-7.635-22.815-18.271
						H28.934z"/>
				</g>
			</g>
		</g>
		<g>
			<g>
				<g>
					<path class="st5" d="M103.141,77.197c-0.371,0-0.711-0.205-0.884-0.533l-5.588-10.581c-0.076-0.144-0.116-0.304-0.116-0.467
						V60.85c0-0.34,0.173-0.657,0.459-0.841c0.287-0.185,0.646-0.211,0.956-0.069c3.293,1.5,7.051,1.5,10.347,0
						c0.31-0.142,0.669-0.115,0.956,0.069c0.286,0.184,0.459,0.501,0.459,0.841v4.767c0,0.163-0.04,0.323-0.116,0.467l-5.588,10.581
						C103.852,76.992,103.512,77.197,103.141,77.197z M98.553,65.368l4.588,8.688l4.588-8.688v-3.05
						c-2.965,1-6.212,0.999-9.176,0.001V65.368z"/>
				</g>
			</g>
			<g>
				<g>
					<path class="st5" d="M127,90.628H85.998c-0.297,0-0.579-0.132-0.769-0.36s-0.269-0.529-0.215-0.821
						c0.24-1.299,0.361-2.608,0.361-3.894c0-1.628-0.197-3.282-0.584-4.916v-0.001c0,0,0-0.001,0-0.002
						c-0.127-0.536,0.205-1.075,0.741-1.203c0.306-0.073,0.61,0.003,0.841,0.18h0.434c-0.1-1.901-0.195-3.698-0.195-5.296
						c0-1.03-0.144-2.065-0.428-3.076c-0.117-0.414,0.044-0.855,0.4-1.098c2.647-1.799,4.936-2.669,5.032-2.705l5.495-2.716
						c0.484-0.239,1.073-0.05,1.327,0.43l4.705,8.908l4.702-8.908c0.253-0.479,0.842-0.668,1.327-0.43l5.54,2.733
						c1.008,0.387,13.04,5.225,13.04,15.88c0,1.538,0.093,3.298,0.191,5.162l0.056,1.082c0.014,0.273-0.085,0.541-0.273,0.739
						C127.536,90.516,127.274,90.628,127,90.628z M87.169,88.628h38.777l-0.001-0.028c-0.099-1.891-0.193-3.677-0.193-5.267
						c0-9.489-11.672-13.981-11.79-14.025c-0.031-0.012-0.062-0.025-0.092-0.04l-4.71-2.324l-5.132,9.723
						c-0.346,0.655-1.422,0.656-1.769,0l-5.135-9.723l-4.713,2.325c-0.035,0.018-0.071,0.032-0.106,0.046
						c-0.132,0.05-1.877,0.728-4.015,2.097c0.214,0.959,0.323,1.932,0.323,2.903c0,1.548,0.094,3.322,0.193,5.2l0.054,1.045
						c0.014,0.273-0.085,0.541-0.273,0.739c-0.189,0.199-0.451,0.312-0.725,0.312h-0.829c0.229,1.315,0.344,2.636,0.344,3.942
						C87.375,86.569,87.306,87.6,87.169,88.628z"/>
				</g>
			</g>
			<g>
				<g>
					<path class="st5" d="M103.14,63.068c-6.367,0-11.961-4.159-13.826-10.193c-2.671-0.6-4.3-2.643-4.3-5.438v-2.648
						c0-2.34,1.668-3.374,3.062-3.593v-5.704c0-6.299,5.131-11.423,11.437-11.423h7.252c2.95,0,4.523,1.605,5.228,2.632
						c0.827-0.201,2.098-0.3,3.316,0.453c1.921,1.187,2.895,3.992,2.895,8.34v5.702c1.395,0.219,3.062,1.253,3.062,3.593v2.648
						c0,2.8-1.634,4.845-4.3,5.439C115.101,58.909,109.507,63.068,103.14,63.068z M88.643,43.149
						c-0.375,0.007-1.629,0.146-1.629,1.639v2.648c0,1.152,0.4,3.146,3.081,3.551c0.005,0.001,0.112,0.011,0.117,0.012
						c0.413,0.045,0.755,0.341,0.859,0.742c1.43,5.491,6.394,9.327,12.07,9.327s10.64-3.836,12.07-9.327
						c0.104-0.401,0.446-0.696,0.858-0.742l0.267,0.978l-0.149-0.988c2.68-0.405,3.08-2.399,3.08-3.552v-2.648
						c0-1.56-1.357-1.639-1.629-1.639c-0.099,0-0.195,0.01-0.289,0.023c-0.29,0.04-0.579-0.043-0.799-0.232
						c-0.219-0.19-0.346-0.467-0.346-0.757v-6.69c0-3.506-0.691-5.863-1.946-6.638c-1.037-0.642-2.263-0.058-2.275-0.053
						c-0.249,0.124-0.539,0.14-0.801,0.041c-0.261-0.099-0.469-0.302-0.574-0.561c-0.036-0.082-0.978-2.215-3.843-2.215h-7.252
						c-5.204,0-9.437,4.228-9.437,9.423v6.692c0,0.29-0.126,0.566-0.346,0.757c-0.22,0.188-0.509,0.273-0.799,0.232
						C88.838,43.159,88.742,43.149,88.643,43.149z"/>
				</g>
			</g>
			<g>
				<g>
					<path class="st5" d="M91.784,44.787c-1.597,0-3.118-1.568-3.447-1.931c-0.371-0.407-0.341-1.038,0.066-1.41
						c0.406-0.374,1.039-0.344,1.412,0.062c0.704,0.768,1.721,1.403,2.066,1.262c0.006-0.002,0.658-0.287,0.658-3.03
						c0-3.086,2.513-5.596,5.602-5.596h9.999c3.089,0,5.603,2.51,5.603,5.596c0,2.744,0.651,3.028,0.658,3.031
						c0.374,0.141,1.436-0.57,2.064-1.261c0.372-0.408,1.003-0.438,1.413-0.066c0.408,0.371,0.438,1.004,0.066,1.412
						c-0.386,0.424-2.403,2.498-4.266,1.78c-1.303-0.505-1.936-2.106-1.936-4.896c0-1.982-1.616-3.596-3.603-3.596h-9.999
						c-1.986,0-3.602,1.613-3.602,3.596c0,2.79-0.633,4.392-1.936,4.896C92.331,44.741,92.056,44.787,91.784,44.787z"/>
				</g>
			</g>
		</g>
		<g>
			<g>
				<g>
					<path class="st5" d="M24.861,77.197c-0.371,0-0.711-0.205-0.884-0.533l-5.588-10.581c-0.076-0.144-0.116-0.304-0.116-0.467
						V60.85c0-0.34,0.173-0.657,0.459-0.841c0.286-0.185,0.646-0.211,0.956-0.069c3.293,1.5,7.051,1.5,10.347,0
						c0.309-0.142,0.669-0.115,0.956,0.069c0.286,0.184,0.459,0.501,0.459,0.841v4.767c0,0.163-0.04,0.323-0.116,0.467
						l-5.588,10.581C25.572,76.992,25.232,77.197,24.861,77.197z M20.273,65.368l4.588,8.688l4.588-8.688v-3.05
						c-2.965,1-6.212,0.999-9.176,0.001V65.368z"/>
				</g>
			</g>
			<g>
				<g>
					<path class="st5" d="M42.002,90.628H1c-0.274,0-0.536-0.112-0.725-0.312c-0.188-0.198-0.288-0.466-0.273-0.739l0.056-1.082
						c0.098-1.864,0.191-3.624,0.191-5.162c0-10.655,12.033-15.494,13.04-15.88l5.542-2.733c0.484-0.239,1.074-0.05,1.327,0.43
						l4.705,8.908l4.702-8.908c0.253-0.479,0.842-0.668,1.327-0.43l5.583,2.755l0,0c0.014,0,2.299,0.87,4.941,2.666
						c0.356,0.242,0.517,0.684,0.4,1.098c-0.284,1.011-0.428,2.046-0.428,3.076c0,1.598-0.095,3.395-0.195,5.296h0.479
						c0.225-0.155,0.507-0.221,0.789-0.153c0.537,0.128,0.876,0.641,0.749,1.177c0,0.001,0,0.002,0,0.002v0.001
						c-0.388,1.634-0.584,3.288-0.584,4.916c0,1.285,0.122,2.595,0.361,3.894c0.054,0.292-0.025,0.593-0.215,0.821
						S42.299,90.628,42.002,90.628z M2.054,88.628h38.777c-0.137-1.028-0.207-2.059-0.207-3.075c0-1.307,0.115-2.627,0.344-3.942
						H40.14c-0.274,0-0.536-0.112-0.725-0.312c-0.188-0.198-0.288-0.466-0.273-0.739l0.054-1.045c0.099-1.878,0.193-3.652,0.193-5.2
						c0-0.971,0.108-1.944,0.323-2.902c-2.19-1.401-4.012-2.098-4.032-2.105l-4.799-2.363l-5.132,9.723
						c-0.346,0.655-1.422,0.656-1.769,0l-5.135-9.723l-4.713,2.325c-0.034,0.018-0.069,0.032-0.104,0.045
						c-0.35,0.134-11.778,4.602-11.778,14.02c0,1.59-0.094,3.376-0.193,5.267L2.054,88.628z"/>
				</g>
			</g>
			<g>
				<g>
					<path class="st5" d="M24.86,63.068c-6.367,0-11.961-4.159-13.826-10.193c-2.67-0.6-4.3-2.643-4.3-5.438v-2.648
						c0-2.34,1.668-3.374,3.062-3.593v-5.704c0-6.299,5.131-11.423,11.437-11.423h7.252c2.95,0,4.523,1.605,5.228,2.632
						c0.827-0.201,2.098-0.3,3.316,0.453c1.921,1.187,2.895,3.992,2.895,8.34v5.702c1.395,0.219,3.062,1.253,3.062,3.593v2.648
						c0,2.8-1.634,4.845-4.3,5.439C36.821,58.909,31.227,63.068,24.86,63.068z M10.363,43.149c-0.375,0.007-1.629,0.146-1.629,1.639
						v2.648c0,1.152,0.4,3.146,3.081,3.551c0.005,0.001,0.111,0.011,0.117,0.012c0.413,0.045,0.755,0.341,0.859,0.742
						c1.43,5.491,6.394,9.327,12.069,9.327c5.676,0,10.64-3.836,12.07-9.327c0.104-0.401,0.446-0.696,0.858-0.742l0.267,0.978
						l-0.149-0.988c2.68-0.405,3.08-2.399,3.08-3.552v-2.648c0-1.56-1.357-1.639-1.629-1.639c-0.099,0-0.195,0.01-0.289,0.023
						c-0.29,0.04-0.579-0.043-0.799-0.232c-0.219-0.19-0.346-0.467-0.346-0.757v-6.69c0-3.506-0.691-5.863-1.946-6.638
						c-1.035-0.642-2.263-0.058-2.275-0.053c-0.249,0.124-0.539,0.14-0.801,0.041c-0.261-0.099-0.469-0.302-0.574-0.561
						c-0.036-0.082-0.978-2.215-3.843-2.215h-7.252c-5.204,0-9.437,4.228-9.437,9.423v6.692c0,0.29-0.126,0.566-0.346,0.757
						c-0.22,0.188-0.509,0.273-0.799,0.232C10.558,43.159,10.462,43.149,10.363,43.149z"/>
				</g>
			</g>
			<g>
				<g>
					<path class="st5" d="M36.216,44.787c-0.272,0-0.547-0.046-0.818-0.15c-1.303-0.505-1.936-2.106-1.936-4.896
						c0-1.982-1.616-3.596-3.603-3.596h-9.999c-1.986,0-3.603,1.613-3.603,3.596c0,2.79-0.633,4.392-1.936,4.896
						c-1.865,0.719-3.88-1.356-4.266-1.78c-0.371-0.407-0.341-1.038,0.066-1.41c0.407-0.374,1.04-0.344,1.412,0.062
						c0.705,0.769,1.735,1.407,2.066,1.262c0.007-0.002,0.658-0.287,0.658-3.03c0-3.086,2.513-5.596,5.603-5.596h9.999
						c3.089,0,5.603,2.51,5.603,5.596c0,2.744,0.651,3.028,0.658,3.031c0.37,0.141,1.436-0.57,2.064-1.261
						c0.372-0.408,1.004-0.438,1.413-0.066c0.408,0.371,0.438,1.004,0.066,1.412C39.334,43.219,37.813,44.787,36.216,44.787z"/>
				</g>
			</g>
		</g>
		<g>
			<g>
				<g>
					<path class="st5" d="M61.954,64.303c-0.368,0-0.709-0.203-0.884-0.533l-3.541-6.704c-0.076-0.144-0.116-0.304-0.116-0.467
						v-4.768c0-0.34,0.173-0.657,0.459-0.841c0.287-0.185,0.646-0.209,0.956-0.069c3.292,1.502,7.054,1.502,10.346,0
						c0.31-0.14,0.67-0.115,0.956,0.069c0.286,0.184,0.459,0.501,0.459,0.841v4.768c0,0.163-0.04,0.323-0.116,0.467l-3.541,6.704
						c-0.188,0.357-0.572,0.57-0.974,0.529c-1.391-0.125-2.528-0.125-3.916,0C62.014,64.302,61.983,64.303,61.954,64.303z
						 M64,62.206c0.478,0,0.963,0.017,1.471,0.049l3.118-5.904v-3.05c-2.963,1-6.213,1-9.176,0v3.05l3.119,5.904
						C63.038,62.222,63.523,62.206,64,62.206z"/>
				</g>
			</g>
			<g>
				<g>
					<path class="st5" d="M64,54.05c-6.367,0-11.961-4.159-13.826-10.192c-2.665-0.593-4.3-2.638-4.3-5.438V35.77
						c0-2.34,1.667-3.373,3.062-3.592v-5.704c0-6.299,5.131-11.424,11.437-11.424h7.252c2.95,0,4.523,1.605,5.228,2.633
						c0.825-0.201,2.098-0.299,3.315,0.453c1.921,1.186,2.895,3.991,2.895,8.339v5.703c1.395,0.219,3.062,1.252,3.062,3.592v2.649
						c0,2.8-1.634,4.845-4.3,5.438C75.961,49.891,70.367,54.05,64,54.05z M49.503,34.132c-0.375,0.007-1.629,0.146-1.629,1.638
						v2.649c0,1.152,0.4,3.146,3.08,3.55c0.005,0.001,0.113,0.013,0.118,0.013c0.412,0.046,0.754,0.341,0.858,0.742
						c1.43,5.491,6.394,9.326,12.07,9.326s10.64-3.835,12.07-9.326c0.104-0.401,0.447-0.697,0.859-0.742l0.266,0.977l-0.149-0.989
						c2.68-0.403,3.08-2.397,3.08-3.55V35.77c0-1.487-1.247-1.63-1.635-1.638c-0.1,0-0.196,0.011-0.29,0.023
						c-0.285,0.042-0.576-0.046-0.794-0.236c-0.218-0.189-0.343-0.465-0.343-0.754v-6.69c0-3.506-0.691-5.862-1.946-6.638
						c-1.036-0.639-2.263-0.059-2.275-0.053c-0.249,0.126-0.54,0.141-0.801,0.042c-0.261-0.099-0.469-0.302-0.574-0.561
						c-0.036-0.082-0.978-2.216-3.843-2.216h-7.252c-5.204,0-9.437,4.228-9.437,9.424v6.691c0,0.289-0.125,0.564-0.343,0.754
						c-0.218,0.19-0.508,0.278-0.794,0.236C49.703,34.143,49.604,34.132,49.503,34.132z"/>
				</g>
			</g>
			<g>
				<g>
					<path class="st5" d="M75.356,35.769c-0.272,0-0.547-0.046-0.818-0.15c-1.303-0.505-1.936-2.105-1.936-4.896
						c0-1.982-1.616-3.596-3.602-3.596H59c-1.986,0-3.602,1.613-3.602,3.596c0,2.79-0.633,4.392-1.936,4.896
						c-1.859,0.719-3.88-1.356-4.266-1.78c-0.371-0.407-0.341-1.038,0.066-1.41c0.406-0.374,1.039-0.344,1.412,0.062
						c0.705,0.769,1.73,1.396,2.066,1.263c0.006-0.003,0.657-0.288,0.657-3.03c0-3.086,2.513-5.596,5.602-5.596H69
						c3.089,0,5.602,2.51,5.602,5.596c0,2.744,0.651,3.027,0.658,3.03c0.369,0.141,1.437-0.57,2.065-1.261
						c0.373-0.408,1.004-0.439,1.413-0.066c0.408,0.371,0.438,1.004,0.066,1.412C78.474,34.2,76.953,35.769,75.356,35.769z"/>
				</g>
			</g>
			<g>
				<g>
					<g>
						<path class="st5" d="M87.86,81.61H85.82c-0.467,0-0.872-0.323-0.976-0.779c-2.046-9.049-9.636-15.692-18.885-16.531
							c-0.333-0.03-0.629-0.225-0.789-0.519s-0.162-0.648-0.005-0.944l3.539-6.705c0.253-0.479,0.843-0.669,1.327-0.43l5.583,2.755
							l-0.001,0.002c1.698,0.667,12.999,5.582,12.999,15.855c0,1.548,0.094,3.322,0.192,5.2l0.055,1.045
							c0.014,0.273-0.085,0.541-0.273,0.739C88.396,81.498,88.134,81.61,87.86,81.61z M86.605,79.61h0.202
							c-0.1-1.901-0.195-3.698-0.195-5.296c0-9.488-11.672-13.981-11.79-14.025l-4.802-2.364l-2.408,4.562
							C76.791,63.902,84.242,70.59,86.605,79.61z"/>
					</g>
				</g>
				<g>
					<g>
						<path class="st5" d="M42.18,81.61H40.14c-0.274,0-0.536-0.112-0.725-0.312c-0.188-0.198-0.288-0.466-0.273-0.739l0.054-1.045
							c0.099-1.878,0.193-3.652,0.193-5.2c0-10.654,12.033-15.494,13.04-15.88l5.542-2.732c0.485-0.24,1.073-0.05,1.327,0.43
							l3.542,6.704c0.156,0.296,0.154,0.649-0.005,0.943c-0.16,0.295-0.456,0.489-0.789,0.52
							c-9.251,0.838-16.842,7.481-18.889,16.532C43.052,81.287,42.647,81.61,42.18,81.61z M41.193,79.61h0.202
							c2.364-9.022,9.816-15.71,18.998-17.124l-2.409-4.561l-4.712,2.324c-0.033,0.017-0.067,0.031-0.101,0.043
							c-0.267,0.102-11.782,4.564-11.782,14.021C41.388,75.912,41.293,77.709,41.193,79.61z"/>
					</g>
				</g>
			</g>
		</g>
		<g>
			<g>
				<g>
					<path class="st5" d="M64,108.898c-12.889,0-23.375-10.473-23.375-23.346S51.111,62.206,64,62.206S87.375,72.68,87.375,85.553
						S76.889,108.898,64,108.898z M64,64.206c-11.787,0-21.375,9.576-21.375,21.347S52.213,106.898,64,106.898
						s21.375-9.575,21.375-21.346S75.787,64.206,64,64.206z"/>
				</g>
			</g>
			<g>
				<g>
					<g>
						<path class="st5" d="M70.421,100.161H57.579c-2.771,0-5.024-2.252-5.024-5.02V85.045c0-2.768,2.254-5.019,5.024-5.019h12.842
							c2.771,0,5.024,2.251,5.024,5.019v10.097C75.445,97.909,73.191,100.161,70.421,100.161z M57.579,82.026
							c-1.667,0-3.024,1.354-3.024,3.019v10.097c0,1.665,1.357,3.02,3.024,3.02h12.842c1.667,0,3.024-1.354,3.024-3.02V85.045
							c0-1.664-1.357-3.019-3.024-3.019H57.579z"/>
					</g>
				</g>
				<g>
					<g>
						<g>
							<path class="st5" d="M69.146,82.026c-0.552,0-1-0.447-1-1v-3.399c0-2.583-1.86-4.684-4.146-4.684s-4.146,2.101-4.146,4.684
								v3.399c0,0.553-0.448,1-1,1s-1-0.447-1-1v-3.399c0-3.686,2.757-6.684,6.146-6.684s6.146,2.998,6.146,6.684v3.399
								C70.146,81.579,69.698,82.026,69.146,82.026z"/>
						</g>
					</g>
				</g>
				<g>
					<g>
						<g>
							<path class="st5" d="M64,92.208c-2.104,0-3.814-1.709-3.814-3.811s1.711-3.811,3.814-3.811s3.814,1.709,3.814,3.811
								S66.104,92.208,64,92.208z M64,86.587c-1,0-1.814,0.812-1.814,1.811S63,90.208,64,90.208s1.814-0.812,1.814-1.811
								S65,86.587,64,86.587z"/>
						</g>
					</g>
					<g>
						<g>
							<path class="st5" d="M64,95.601c-0.552,0-1-0.447-1-1v-3.393c0-0.553,0.448-1,1-1s1,0.447,1,1v3.393
								C65,95.153,64.552,95.601,64,95.601z"/>
						</g>
					</g>
				</g>
			</g>
		</g>
	</g>
</g>
</svg>
