<?xml version="1.0" encoding="utf-8"?>
<!-- Generator: Adobe Illustrator 22.0.0, SVG Export Plug-In . SVG Version: 6.00 Build 0)  -->
<svg version="1.1" id="MARKET_RESEARCH_ICON_SET" xmlns="http://www.w3.org/2000/svg" xmlns:xlink="http://www.w3.org/1999/xlink"
	 x="0px" y="0px" viewBox="0 0 128 128" style="enable-background:new 0 0 128 128;" xml:space="preserve">
<style type="text/css">
	.st0{fill:#C2D5EC;}
	.st1{fill:#61E1FF;}
	.st2{fill:#7184AF;}
	.st3{fill:#F8F8F8;}
	.st4{fill:#3F4D81;}
	.st5{fill:#3F4D80;}
	.st6{fill:#E9EAEB;}
	.st7{fill:#F79559;}
	.st8{fill:#FFA85A;}
</style>
<g>
	<g>
		<rect y="42.852" class="st0" width="128" height="66.224"/>
		<path class="st5" d="M48.022,42.852v5.712c0,1.137,0.919,2.059,2.053,2.059h3.586v3.216c0,1.137,0.919,2.059,2.053,2.059h23.684
			c0.844,0,1.653-0.336,2.25-0.934l3.397-3.406c0.597-0.598,0.932-1.41,0.932-2.256v-6.449H48.022z"/>
		<path class="st5" d="M4,46.854c0,10.293,8.323,18.637,18.589,18.637c10.267,0,18.589-8.344,18.589-18.637
			c0-1.375-0.159-2.712-0.441-4.002H4.441C4.159,44.143,4,45.479,4,46.854z"/>
		<g>
			<g>
				<ellipse class="st1" cx="19.589" cy="42.844" rx="18.589" ry="18.637"/>
			</g>
			<g>
				<path class="st6" d="M26.502,46.977l6.836-6.853c-1.264-6.458-6.936-11.332-13.749-11.332c-7.741,0-14.016,6.291-14.016,14.052
					c0,2.596,0.714,5.019,1.938,7.105l10.978-11.006L26.502,46.977z"/>
			</g>
			<g>
				<path class="st2" d="M26.502,46.977l-8.013-8.034L7.511,49.949c2.436,4.152,6.926,6.947,12.078,6.947
					c7.741,0,14.016-6.291,14.016-14.052c0-0.931-0.095-1.839-0.268-2.72L26.502,46.977z"/>
			</g>
			<g>
				<ellipse class="st8" cx="18.489" cy="38.944" rx="2.28" ry="2.286"/>
			</g>
			<g>
				<ellipse class="st8" cx="26.502" cy="46.977" rx="2.28" ry="2.286"/>
			</g>
		</g>
		<path class="st5" d="M128,42.852H93.256c-0.283,1.293-0.443,2.632-0.443,4.01c0,10.297,8.326,18.645,18.598,18.645
			c7.255,0,13.524-4.174,16.589-10.25V42.852z"/>
		<g>
			<g>
				<ellipse class="st6" cx="108.411" cy="42.852" rx="18.598" ry="18.645"/>
			</g>
			<g>
				<g>
					<path class="st3" d="M108.279,36.69c-1.201,0-2.174,0.976-2.174,2.18c0,0.254-0.048,0.498-0.129,0.728
						c-0.337-1.138-1.376-1.974-2.621-1.974c-1.424,0-2.581,1.091-2.719,2.483v0.54c0.02,0.588,0.092,1.163,0.245,1.706l0.003,0
						c0.015,0.053,0.028,0.107,0.044,0.16c0.937,3.048,1.562,6.184,1.562,9.374l4.887,4.899l0.505-5.436v-1.966
						c0.903,0.469,1.964,0.675,3.086,0.498c2.441-0.386,4.187-2.587,4.187-5.065v-4.44v-2.041c0-0.576-0.096-1.128-0.266-1.646
						H108.279z"/>
				</g>
				<g>
					<path class="st8" d="M110.083,53.495l-2.2-2.144l-0.505,5.436l-4.887-4.899l-1.798,1.542l0,0c0,0-2.696,1.023-4.72,3.266
						c3.296,2.979,7.651,4.803,12.438,4.803c3.005,0,5.843-0.717,8.355-1.986C114.608,54.3,110.083,53.495,110.083,53.495z"/>
				</g>
				<g>
					<path class="st5" d="M117.676,29.96H105.54c-2.723,0-4.93,2.213-4.93,4.943v5.474c0-1.52,1.229-2.753,2.746-2.753
						c1.245,0,2.284,0.836,2.621,1.974c0.082-0.23,0.129-0.475,0.129-0.728c0-1.204,0.973-2.18,2.174-2.18h6.611
						C114.89,32.559,117.676,29.96,117.676,29.96z"/>
				</g>
			</g>
		</g>
		<g>
			<g>
				<path class="st1" d="M64,90.229c13.079,0,23.682-4.219,23.682-9.424v-9.424c0-5.204-10.603-9.424-23.682-9.424
					s-23.682,4.219-23.682,9.424v9.424C40.318,86.01,50.921,90.229,64,90.229z"/>
			</g>
			<g>
				<path class="st2" d="M64,99.653c13.079,0,23.682-4.219,23.682-9.424v-9.424c0,5.204-10.603,9.424-23.682,9.424
					s-23.682-4.219-23.682-9.424v9.424C40.318,95.434,50.921,99.653,64,99.653z"/>
			</g>
			<g>
				<path class="st7" d="M64,109.076c-13.079,0-23.682-4.219-23.682-9.424v9.424c0,5.204,10.603,9.424,23.682,9.424
					s23.682-4.219,23.682-9.424v-9.424C87.682,104.857,77.079,109.076,64,109.076z"/>
			</g>
			<g>
				<path class="st8" d="M64,99.653c-13.079,0-23.682-4.219-23.682-9.424v9.424c0,5.205,10.603,9.424,23.682,9.424
					s23.682-4.219,23.682-9.424v-9.424C87.682,95.434,77.079,99.653,64,99.653z"/>
			</g>
			<g>
				<path class="st3" d="M45.821,77.42v37.694c2.067,0.984,4.63,1.797,7.535,2.38V79.8C50.451,79.217,47.888,78.404,45.821,77.42z"
					/>
			</g>
			<g>
				<ellipse class="st6" cx="64" cy="71.382" rx="23.682" ry="9.424"/>
			</g>
		</g>
		<g>
			<g>
				<path class="st6" d="M80.924,14.774H52.715c-1.134,0-2.053,0.922-2.053,2.059v32.995c0,1.137,0.919,2.059,2.053,2.059h25.002
					l5.261-5.274v-29.78C82.978,15.696,82.059,14.774,80.924,14.774z"/>
			</g>
			<g>
				<polygon class="st2" points="77.717,51.887 77.717,46.613 82.978,46.613 				"/>
			</g>
			<g>
				<path class="st2" d="M50.662,16.833c0-1.137,0.919-2.059,2.053-2.059h24.623v-3.215c0-1.137-0.919-2.059-2.053-2.059H47.076
					c-1.134,0-2.053,0.922-2.053,2.059v32.995c0,1.137,0.919,2.059,2.053,2.059h3.586V16.833z"/>
			</g>
		</g>
	</g>
	<g>
		<g>
			<g>
				<path class="st5" d="M40.318,110.076H1c-0.552,0-1-0.448-1-1s0.448-1,1-1h39.318c0.552,0,1,0.448,1,1
					S40.871,110.076,40.318,110.076z"/>
			</g>
			<g>
				<path class="st5" d="M127,110.076H87.682c-0.552,0-1-0.448-1-1s0.448-1,1-1H127c0.552,0,1,0.448,1,1
					S127.552,110.076,127,110.076z"/>
			</g>
		</g>
		<g>
			<g>
				<g>
					<path class="st5" d="M64,100.653c-13.84,0-24.682-4.579-24.682-10.424c0-0.552,0.448-1,1-1s1,0.448,1,1
						c0,4.068,9.114,8.424,22.682,8.424s22.682-4.355,22.682-8.424c0-0.552,0.448-1,1-1s1,0.448,1,1
						C88.682,96.074,77.84,100.653,64,100.653z"/>
				</g>
			</g>
			<g>
				<g>
					<path class="st5" d="M64,91.229c-13.84,0-24.682-4.579-24.682-10.423c0-0.552,0.448-1,1-1s1,0.448,1,1
						c0,4.068,9.114,8.423,22.682,8.423s22.682-4.355,22.682-8.423c0-0.552,0.448-1,1-1s1,0.448,1,1
						C88.682,86.65,77.84,91.229,64,91.229z"/>
				</g>
			</g>
			<g>
				<g>
					<path class="st5" d="M64,110.076c-13.84,0-24.682-4.579-24.682-10.423c0-0.552,0.448-1,1-1s1,0.448,1,1
						c0,4.068,9.114,8.423,22.682,8.423s22.682-4.355,22.682-8.423c0-0.552,0.448-1,1-1s1,0.448,1,1
						C88.682,105.498,77.84,110.076,64,110.076z"/>
				</g>
			</g>
			<g>
				<g>
					<path class="st5" d="M64,119.5c-13.84,0-24.682-4.579-24.682-10.424V71.382c0-5.845,10.841-10.423,24.682-10.423
						s24.682,4.579,24.682,10.423v37.694C88.682,114.921,77.84,119.5,64,119.5z M64,62.958c-13.567,0-22.682,4.355-22.682,8.423
						v37.694c0,4.068,9.114,8.424,22.682,8.424s22.682-4.355,22.682-8.424V71.382C86.682,67.314,77.567,62.958,64,62.958z"/>
				</g>
			</g>
			<g>
				<g>
					<path class="st5" d="M64,81.806c-13.84,0-24.682-4.579-24.682-10.424c0-5.845,10.841-10.423,24.682-10.423
						s24.682,4.579,24.682,10.423C88.682,77.227,77.84,81.806,64,81.806z M64,62.958c-13.567,0-22.682,4.355-22.682,8.423
						c0,4.068,9.114,8.424,22.682,8.424s22.682-4.355,22.682-8.424C86.682,67.314,77.567,62.958,64,62.958z"/>
				</g>
			</g>
		</g>
		<g>
			<g>
				<path class="st5" d="M64,76.282c-0.552,0-1-0.448-1-1V51.887c0-0.552,0.448-1,1-1s1,0.448,1,1v23.396
					C65,75.834,64.552,76.282,64,76.282z"/>
			</g>
			<g>
				<path class="st5" d="M64,76.282c-0.266,0-0.521-0.105-0.708-0.294l-6.917-6.935c-0.39-0.391-0.389-1.024,0.002-1.414
					c0.391-0.391,1.024-0.389,1.414,0.002L64,73.866l6.209-6.225c0.389-0.391,1.023-0.393,1.414-0.002
					c0.391,0.39,0.392,1.023,0.002,1.414l-6.917,6.935C64.521,76.177,64.266,76.282,64,76.282z"/>
			</g>
		</g>
		<g>
			<g>
				<g>
					<path class="st5" d="M77.717,52.887H52.715c-1.684,0-3.053-1.372-3.053-3.059V16.833c0-1.687,1.37-3.059,3.053-3.059h28.209
						c1.684,0,3.054,1.372,3.054,3.059v29.78c0,0.265-0.105,0.519-0.292,0.706l-5.261,5.274
						C78.238,52.781,77.983,52.887,77.717,52.887z M52.715,15.774c-0.581,0-1.053,0.475-1.053,1.059v32.995
						c0,0.583,0.473,1.059,1.053,1.059h24.587l4.676-4.688V16.833c0-0.584-0.473-1.059-1.054-1.059H52.715z M82.978,46.613h0.01
						H82.978z"/>
				</g>
			</g>
			<g>
				<g>
					<g>
						<path class="st5" d="M77.338,42.984H56.301c-0.552,0-1-0.448-1-1s0.448-1,1-1h21.037c0.552,0,1,0.448,1,1
							S77.891,42.984,77.338,42.984z"/>
					</g>
				</g>
				<g>
					<g>
						<path class="st5" d="M71.183,47.613H56.301c-0.552,0-1-0.448-1-1s0.448-1,1-1h14.882c0.552,0,1,0.448,1,1
							S71.735,47.613,71.183,47.613z"/>
					</g>
				</g>
			</g>
			<g>
				<g>
					<g>
						<path class="st5" d="M77.338,21.218H56.301c-0.552,0-1-0.448-1-1s0.448-1,1-1h21.037c0.552,0,1,0.448,1,1
							S77.891,21.218,77.338,21.218z"/>
					</g>
				</g>
				<g>
					<g>
						<path class="st5" d="M71.183,25.847H56.301c-0.552,0-1-0.448-1-1s0.448-1,1-1h14.882c0.552,0,1,0.448,1,1
							S71.735,25.847,71.183,25.847z"/>
					</g>
				</g>
			</g>
			<g>
				<g>
					<g>
						<path class="st5" d="M77.338,32.101H56.301c-0.552,0-1-0.448-1-1s0.448-1,1-1h21.037c0.552,0,1,0.448,1,1
							S77.891,32.101,77.338,32.101z"/>
					</g>
				</g>
				<g>
					<g>
						<path class="st5" d="M71.183,36.73H56.301c-0.552,0-1-0.448-1-1s0.448-1,1-1h14.882c0.552,0,1,0.448,1,1
							S71.735,36.73,71.183,36.73z"/>
					</g>
				</g>
			</g>
			<g>
				<g>
					<path class="st5" d="M77.717,52.887c-0.129,0-0.258-0.025-0.382-0.076c-0.374-0.155-0.618-0.52-0.618-0.924v-5.274
						c0-0.552,0.448-1,1-1h5.261c0.404,0,0.769,0.243,0.924,0.617c0.155,0.374,0.07,0.803-0.216,1.089l-5.261,5.274
						C78.234,52.785,77.978,52.887,77.717,52.887z M78.717,47.613v1.855l1.851-1.855H78.717z"/>
				</g>
			</g>
			<g>
				<g>
					<path class="st5" d="M50.662,47.613h-3.586c-1.684,0-3.054-1.372-3.054-3.059V11.559c0-1.687,1.37-3.059,3.054-3.059h28.209
						c1.684,0,3.053,1.372,3.053,3.059v3.215c0,0.552-0.448,1-1,1H52.715c-0.581,0-1.053,0.475-1.053,1.059v29.78
						C51.662,47.165,51.214,47.613,50.662,47.613z M47.076,10.5c-0.581,0-1.054,0.475-1.054,1.059v32.995
						c0,0.584,0.473,1.059,1.054,1.059h2.586v-28.78c0-1.687,1.37-3.059,3.053-3.059h23.624v-2.215c0-0.583-0.473-1.059-1.053-1.059
						H47.076z"/>
				</g>
			</g>
		</g>
		<g>
			<g>
				<g>
					<g>
						<path class="st5" d="M107.377,57.786c-0.261,0-0.517-0.103-0.708-0.294l-4.887-4.899c-0.187-0.188-0.292-0.441-0.292-0.706
							c0-2.789-0.497-5.759-1.518-9.08l-0.035-0.123c-0.007-0.02-0.013-0.04-0.019-0.06c-0.166-0.587-0.258-1.223-0.283-1.943
							l0-0.574c0.195-2.028,1.792-3.483,3.719-3.483c0.799,0,1.545,0.249,2.159,0.686c0.545-0.966,1.581-1.62,2.765-1.62h6.611
							c0.432,0,0.815,0.277,0.95,0.688c0.21,0.638,0.316,1.297,0.316,1.959v6.48c0,2.997-2.163,5.599-5.031,6.052
							c-0.756,0.119-1.514,0.096-2.243-0.065v0.546l-0.51,5.529c-0.036,0.386-0.292,0.717-0.657,0.848
							C107.606,57.767,107.491,57.786,107.377,57.786z M103.487,51.47l3.092,3.1l0.308-3.312l-0.004-1.873
							c0-0.349,0.182-0.673,0.481-0.854s0.669-0.195,0.98-0.033c0.761,0.396,1.616,0.533,2.469,0.397
							c1.906-0.301,3.343-2.054,3.343-4.077v-6.48c0-0.216-0.017-0.432-0.05-0.646h-5.827c-0.647,0-1.174,0.529-1.174,1.18
							c0,0.355-0.063,0.712-0.187,1.062c-0.145,0.408-0.546,0.679-0.969,0.666c-0.433-0.011-0.81-0.3-0.933-0.716
							c-0.223-0.752-0.89-1.257-1.662-1.257c-0.894,0-1.635,0.68-1.724,1.581l0.005,0.441c0.018,0.5,0.081,0.96,0.192,1.375
							c0.006,0.019,0.013,0.038,0.018,0.058l-0.002,0.001c0,0,0,0,0,0.001l-0.006,0.001l0.046,0.136
							C102.915,45.57,103.441,48.602,103.487,51.47z"/>
					</g>
				</g>
				<g>
					<g>
						<path class="st5" d="M107.882,50.384c-0.165,0-0.332-0.041-0.485-0.126c-0.858-0.478-1.597-1.177-2.139-2.022
							c-0.298-0.465-0.162-1.083,0.303-1.381s1.083-0.163,1.381,0.303c0.364,0.568,0.857,1.036,1.427,1.354
							c0.483,0.269,0.656,0.877,0.387,1.36C108.574,50.199,108.233,50.384,107.882,50.384z"/>
					</g>
				</g>
				<g>
					<g>
						<path class="st5" d="M108.411,62.498c-4.843,0-9.499-1.797-13.109-5.062c-0.409-0.37-0.441-1.002-0.071-1.412
							c1.884-2.087,4.274-3.184,4.936-3.461l1.673-1.436c0.396-0.341,0.99-0.319,1.359,0.053l3.38,3.389l0.308-3.312
							c0.036-0.383,0.289-0.712,0.65-0.846c0.361-0.133,0.768-0.047,1.043,0.222l2,1.95c1.159,0.301,5.085,1.658,7.108,6.546
							c0.2,0.483-0.006,1.039-0.473,1.275C114.468,61.793,111.505,62.498,108.411,62.498z M97.445,56.636
							c3.115,2.498,6.969,3.862,10.965,3.862c2.453,0,4.813-0.493,7.029-1.466c-2-3.843-5.384-4.524-5.537-4.554
							c-0.193-0.036-0.377-0.13-0.518-0.267l-0.701-0.683l-0.312,3.351c-0.036,0.386-0.292,0.717-0.657,0.848
							c-0.364,0.13-0.773,0.04-1.047-0.235l-4.231-4.243l-1.094,0.938c-0.087,0.075-0.188,0.135-0.295,0.176
							C101.027,54.372,99.14,55.107,97.445,56.636z"/>
					</g>
				</g>
				<g>
					<g>
						<path class="st5" d="M100.609,41.377c-0.552,0-1-0.448-1-1v-5.475c0-3.277,2.66-5.943,5.93-5.943h12.137
							c0.411,0,0.78,0.251,0.93,0.633c0.15,0.381,0.053,0.815-0.246,1.096l0,0c-0.024,0.023-2.471,2.38-2.471,6.001
							c0,0.552-0.448,1-1,1h-6.611c-0.647,0-1.174,0.529-1.174,1.18c0,0.355-0.063,0.712-0.187,1.062
							c-0.145,0.408-0.546,0.679-0.969,0.666c-0.433-0.011-0.81-0.3-0.933-0.716c-0.223-0.752-0.89-1.257-1.662-1.257
							c-0.962,0-1.746,0.786-1.746,1.753C101.609,40.93,101.162,41.377,100.609,41.377z M103.355,36.625
							c0.799,0,1.545,0.249,2.159,0.686c0.545-0.966,1.581-1.62,2.766-1.62h5.66c0.198-2.004,0.958-3.617,1.672-4.73H105.54
							c-2.167,0-3.93,1.769-3.93,3.943v2.155C102.131,36.781,102.725,36.625,103.355,36.625z"/>
					</g>
				</g>
			</g>
			<g>
				<g>
					<path class="st5" d="M108.411,62.481c-10.802,0-19.589-8.809-19.589-19.637c0-10.828,8.788-19.637,19.589-19.637
						S128,32.016,128,42.844C128,53.672,119.212,62.481,108.411,62.481z M108.411,25.207c-9.699,0-17.589,7.912-17.589,17.637
						s7.891,17.637,17.589,17.637S126,52.569,126,42.844S118.109,25.207,108.411,25.207z"/>
				</g>
			</g>
		</g>
		<g>
			<g>
				<g>
					<path class="st5" d="M103.464,87.184h-9.782c-0.552,0-1-0.448-1-1v-9.807c0-0.552,0.448-1,1-1s1,0.448,1,1v8.807h8.782
						c0.552,0,1,0.448,1,1S104.016,87.184,103.464,87.184z"/>
				</g>
			</g>
			<g>
				<path class="st5" d="M93.682,87.184c-0.255,0-0.511-0.097-0.706-0.292c-0.391-0.39-0.392-1.023-0.002-1.414l14.437-14.474
					v-9.522c0-0.552,0.448-1,1-1s1,0.448,1,1v9.936c0,0.265-0.105,0.519-0.292,0.706L94.39,86.89
					C94.194,87.085,93.938,87.184,93.682,87.184z"/>
			</g>
		</g>
		<g>
			<g>
				<g>
					<path class="st5" d="M34.318,87.184h-9.782c-0.552,0-1-0.448-1-1s0.448-1,1-1h8.782v-8.807c0-0.552,0.448-1,1-1s1,0.448,1,1
						v9.807C35.318,86.736,34.871,87.184,34.318,87.184z"/>
				</g>
			</g>
			<g>
				<path class="st5" d="M34.318,87.184c-0.256,0-0.513-0.098-0.708-0.294L18.881,72.123c-0.187-0.188-0.292-0.441-0.292-0.706
					v-9.936c0-0.552,0.448-1,1-1s1,0.448,1,1v9.522l14.437,14.474c0.39,0.391,0.389,1.024-0.002,1.414
					C34.83,87.086,34.574,87.184,34.318,87.184z"/>
			</g>
		</g>
		<g>
			<g>
				<g>
					<path class="st5" d="M19.589,62.481C8.788,62.481,0,53.672,0,42.844c0-10.828,8.788-19.637,19.589-19.637
						s19.589,8.809,19.589,19.637C39.179,53.672,30.391,62.481,19.589,62.481z M19.589,25.207C9.891,25.207,2,33.119,2,42.844
						s7.891,17.637,17.589,17.637s17.589-7.912,17.589-17.637S29.288,25.207,19.589,25.207z"/>
				</g>
			</g>
			<g>
				<g>
					<g>
						<path class="st5" d="M28.115,46.36c-0.255,0-0.511-0.097-0.706-0.292c-0.391-0.39-0.392-1.023-0.002-1.414l5.228-5.241
							c0.39-0.392,1.023-0.393,1.414-0.002c0.391,0.39,0.392,1.023,0.002,1.414l-5.228,5.241
							C28.627,46.262,28.371,46.36,28.115,46.36z"/>
					</g>
				</g>
				<g>
					<g>
						<path class="st5" d="M24.89,46.36c-0.256,0-0.513-0.098-0.708-0.294l-4.789-4.8c-0.39-0.391-0.389-1.024,0.002-1.414
							c0.39-0.39,1.024-0.389,1.414,0.002l4.789,4.8c0.39,0.391,0.389,1.024-0.002,1.414C25.401,46.263,25.146,46.36,24.89,46.36z"
							/>
					</g>
				</g>
				<g>
					<g>
						<path class="st5" d="M7.499,50.962c-0.255,0-0.511-0.097-0.706-0.292c-0.391-0.39-0.392-1.023-0.002-1.414l9.378-9.402
							c0.389-0.392,1.023-0.393,1.414-0.002c0.391,0.39,0.392,1.023,0.002,1.414l-9.378,9.402
							C8.011,50.864,7.755,50.962,7.499,50.962z"/>
					</g>
				</g>
				<g>
					<g>
						<path class="st5" d="M19.589,57.896c-8.28,0-15.016-6.752-15.016-15.052s6.736-15.052,15.016-15.052
							c8.28,0,15.017,6.752,15.017,15.052S27.87,57.896,19.589,57.896z M19.589,29.792c-7.177,0-13.016,5.855-13.016,13.052
							c0,7.197,5.839,13.052,13.016,13.052s13.017-5.855,13.017-13.052C32.606,35.647,26.767,29.792,19.589,29.792z"/>
					</g>
				</g>
				<g>
					<g>
						<path class="st5" d="M18.489,42.229L18.489,42.229c-0.877,0-1.701-0.342-2.32-0.963c-1.278-1.281-1.278-3.365,0-4.646
							c1.238-1.241,3.401-1.243,4.641,0c1.278,1.28,1.278,3.365,0,4.646C20.19,41.888,19.366,42.229,18.489,42.229z M18.489,37.657
							c-0.341,0-0.662,0.134-0.903,0.376c-0.501,0.502-0.501,1.319,0,1.82v0c0.242,0.242,0.562,0.375,0.904,0.375h0
							c0.341,0,0.663-0.133,0.904-0.376c0.501-0.501,0.501-1.318,0-1.82C19.152,37.791,18.831,37.657,18.489,37.657z"/>
					</g>
				</g>
				<g>
					<g>
						<path class="st5" d="M26.502,50.263L26.502,50.263c-0.877,0-1.701-0.342-2.32-0.963c-1.277-1.281-1.277-3.365,0-4.646
							c1.238-1.242,3.4-1.243,4.641,0c1.277,1.281,1.277,3.365,0,4.646C28.203,49.921,27.379,50.263,26.502,50.263z M26.502,45.691
							c-0.341,0-0.662,0.133-0.904,0.375c-0.5,0.502-0.5,1.319,0,1.821c0.242,0.242,0.562,0.375,0.904,0.375h0
							c0.341,0,0.663-0.133,0.904-0.376c0.5-0.501,0.5-1.319,0-1.821C27.165,45.824,26.844,45.691,26.502,45.691z"/>
					</g>
				</g>
			</g>
		</g>
	</g>
</g>
</svg>
