<?xml version="1.0" encoding="utf-8"?>
<!-- Generator: Adobe Illustrator 22.0.0, SVG Export Plug-In . SVG Version: 6.00 Build 0)  -->
<svg version="1.1" id="MARKET_RESEARCH_ICON_SET" xmlns="http://www.w3.org/2000/svg" xmlns:xlink="http://www.w3.org/1999/xlink"
	 x="0px" y="0px" viewBox="0 0 128 128" style="enable-background:new 0 0 128 128;" xml:space="preserve">
<style type="text/css">
	.st0{fill:#C2D5EC;}
	.st1{fill:#61E1FF;}
	.st2{fill:#7184AF;}
	.st3{fill:#F8F8F8;}
	.st4{fill:#3F4D81;}
	.st5{fill:#3F4D80;}
	.st6{fill:#E9EAEB;}
	.st7{fill:#F79559;}
	.st8{fill:#FFA85A;}
</style>
<g>
	<g>
		<rect x="19.586" y="26.138" class="st0" width="88.821" height="84.247"/>
		<path class="st5" d="M89.765,48.643c0,10.274,8.346,18.602,18.642,18.602V30.041C98.111,30.041,89.765,38.369,89.765,48.643z"/>
		<g>
			<g>
				<ellipse class="st6" cx="108.407" cy="44.696" rx="18.598" ry="18.558"/>
			</g>
			<g>
				<g>
					<path class="st3" d="M108.275,38.563c-1.201,0-2.174,0.971-2.174,2.169c0,0.252-0.048,0.496-0.129,0.725
						c-0.337-1.133-1.376-1.965-2.621-1.965c-1.424,0-2.581,1.086-2.719,2.471v0.537c0.02,0.585,0.092,1.157,0.245,1.698l0.003,0
						c0.015,0.053,0.028,0.106,0.044,0.159c0.937,3.034,1.562,6.155,1.562,9.33l4.887,4.876l0.505-5.41v-1.957
						c0.903,0.467,1.964,0.672,3.086,0.496c2.441-0.384,4.187-2.575,4.187-5.041v-4.419v-2.031c0-0.573-0.096-1.123-0.266-1.639
						H108.275z"/>
				</g>
				<g>
					<path class="st8" d="M110.079,55.288l-2.2-2.134l-0.505,5.41l-4.887-4.876l-1.798,1.535l0,0c0,0-2.696,1.018-4.72,3.25
						c3.296,2.965,7.651,4.78,12.438,4.78c3.005,0,5.843-0.713,8.355-1.976C114.604,56.09,110.079,55.288,110.079,55.288z"/>
				</g>
				<g>
					<path class="st5" d="M117.673,31.864h-12.137c-2.723,0-4.93,2.203-4.93,4.92v5.449c0-1.513,1.229-2.74,2.746-2.74
						c1.245,0,2.284,0.832,2.621,1.965c0.082-0.229,0.129-0.472,0.129-0.725c0-1.198,0.973-2.169,2.174-2.169h6.611
						C114.886,34.451,117.673,31.864,117.673,31.864z"/>
				</g>
			</g>
		</g>
		<path class="st5" d="M45.354,29.988c0,10.274,8.346,18.602,18.642,18.602c10.296,0,18.642-8.328,18.642-18.602
			c0-1.353-0.153-2.668-0.428-3.939H45.782C45.507,27.32,45.354,28.636,45.354,29.988z"/>
		<path class="st5" d="M19.585,30.312l0.001,37.905c8.524,0,18.588-8.555,18.588-19.538C38.174,40.166,28.856,30.312,19.585,30.312z
			"/>
		<g>
			<g>
				<ellipse class="st2" cx="19.586" cy="44.688" rx="18.589" ry="18.549"/>
			</g>
			<g>
				<path class="st1" d="M26.498,48.801l-8.013-7.996L7.507,51.76c2.436,4.132,6.926,6.914,12.078,6.914
					c7.741,0,14.016-6.262,14.016-13.986c0-0.927-0.095-1.831-0.268-2.707L26.498,48.801z"/>
			</g>
			<g>
				<path class="st6" d="M26.498,48.801l6.836-6.821c-1.264-6.428-6.936-11.279-13.749-11.279c-7.741,0-14.016,6.262-14.016,13.986
					c0,2.584,0.714,4.995,1.938,7.072l10.978-10.954L26.498,48.801z"/>
			</g>
			<g>
				<ellipse class="st7" cx="18.485" cy="40.806" rx="2.28" ry="2.275"/>
			</g>
			<g>
				<ellipse class="st7" cx="26.498" cy="48.801" rx="2.28" ry="2.275"/>
			</g>
		</g>
		<g>
			<g>
				<path class="st8" d="M88.844,83.139V64.726H78.013v7.266L63.996,57.567l-35.14,36.165h10.292v16.654h8.305
					c-1.3-2.533-2.047-5.394-2.047-8.435c0-4.657,1.732-8.902,4.573-12.159V88.18c0-1.533,1.569-2.921,4.105-3.925
					c0.951-0.377,2.038-0.7,3.23-0.956c1.986-0.427,4.262-0.67,6.681-0.67c2.419,0,4.695,0.243,6.681,0.67
					c1.192,0.256,2.279,0.579,3.23,0.956c2.536,1.005,4.105,2.392,4.105,3.925v1.611c2.841,3.257,4.573,7.502,4.573,12.159
					c0,3.041-0.748,5.902-2.047,8.435h8.305V93.732h10.292L88.844,83.139z"/>
			</g>
			<g>
				<ellipse class="st1" cx="63.996" cy="73.665" rx="3.248" ry="3.241"/>
			</g>
			<g>
				<g>
					<g>
						<path class="st7" d="M77.154,106.732c-1.959,2.13-7.103,3.654-13.158,3.654s-11.199-1.524-13.158-3.654
							c1.959,5.366,7.103,9.205,13.158,9.205S75.195,112.098,77.154,106.732z"/>
					</g>
					<g>
						<path class="st2" d="M76.699,96.067c-2.228,1.898-7.071,3.216-12.703,3.216c-5.632,0-10.475-1.319-12.703-3.216
							c-0.835-0.711-1.314-1.5-1.314-2.335v5.551c0,0.258,0.06,0.51,0.146,0.758c0.936,2.706,6.781,4.793,13.871,4.793
							s12.935-2.087,13.871-4.793c0.086-0.248,0.146-0.5,0.146-0.758v-5.551C78.013,94.567,77.534,95.356,76.699,96.067z"/>
					</g>
					<g>
						<path class="st1" d="M73.937,92.093c-2.539,1.012-6.054,1.639-9.94,1.639s-7.401-0.627-9.94-1.639
							c-2.518-1.004-4.076-2.386-4.076-3.913v5.551c0,0.835,0.479,1.625,1.314,2.335c2.228,1.898,7.071,3.216,12.703,3.216
							c5.632,0,10.474-1.319,12.703-3.216c0.835-0.711,1.314-1.5,1.314-2.335V88.18C78.013,89.707,76.455,91.089,73.937,92.093z"/>
					</g>
					<g>
						<path class="st8" d="M63.996,104.834c-7.09,0-12.935-2.087-13.871-4.793c-0.086,0.626-0.146,1.26-0.146,1.91
							c0,1.682,0.313,3.287,0.858,4.781c1.959,2.13,7.103,3.654,13.158,3.654s11.199-1.524,13.158-3.654
							c0.546-1.494,0.858-3.099,0.858-4.781c0-0.65-0.06-1.284-0.146-1.91C76.931,102.747,71.086,104.834,63.996,104.834z"/>
					</g>
					<g>
						<path class="st7" d="M77.154,106.732c-1.959,2.13-7.103,3.654-13.158,3.654s-11.199-1.524-13.158-3.654
							c1.959,5.366,7.103,9.205,13.158,9.205S75.195,112.098,77.154,106.732z"/>
					</g>
					<g>
						<path class="st2" d="M76.699,96.067c-2.228,1.898-7.071,3.216-12.703,3.216c-5.632,0-10.475-1.319-12.703-3.216
							c-0.835-0.711-1.314-1.5-1.314-2.335v5.551c0,0.258,0.06,0.51,0.146,0.758c0.936,2.706,6.781,4.793,13.871,4.793
							s12.935-2.087,13.871-4.793c0.086-0.248,0.146-0.5,0.146-0.758v-5.551C78.013,94.567,77.534,95.356,76.699,96.067z"/>
					</g>
					<g>
						<path class="st1" d="M73.937,92.093c-2.539,1.012-6.054,1.639-9.94,1.639s-7.401-0.627-9.94-1.639
							c-2.518-1.004-4.076-2.386-4.076-3.913v5.551c0,0.835,0.479,1.625,1.314,2.335c2.228,1.898,7.071,3.216,12.703,3.216
							c5.632,0,10.474-1.319,12.703-3.216c0.835-0.711,1.314-1.5,1.314-2.335V88.18C78.013,89.707,76.455,91.089,73.937,92.093z"/>
					</g>
					<g>
						<path class="st8" d="M63.996,104.834c-7.09,0-12.935-2.087-13.871-4.793c-0.086,0.626-0.146,1.26-0.146,1.91
							c0,1.682,0.313,3.287,0.858,4.781c1.959,2.13,7.103,3.654,13.158,3.654s11.199-1.524,13.158-3.654
							c0.546-1.494,0.858-3.099,0.858-4.781c0-0.65-0.06-1.284-0.146-1.91C76.931,102.747,71.086,104.834,63.996,104.834z"/>
					</g>
					<g>
						<path class="st3" d="M53.229,91.728v22.148c1.22,0.578,2.733,1.056,4.448,1.398V93.126
							C55.962,92.784,54.449,92.306,53.229,91.728z"/>
					</g>
					<g>
						<path class="st6" d="M73.907,84.255c-2.536-1.005-6.041-1.626-9.911-1.626c-3.87,0-7.375,0.621-9.911,1.626
							c-2.537,1.005-4.105,2.392-4.105,3.925c0,1.527,1.558,2.909,4.076,3.913c2.539,1.012,6.054,1.639,9.94,1.639
							s7.401-0.627,9.94-1.639c2.518-1.004,4.076-2.386,4.076-3.913C78.013,86.647,76.444,85.259,73.907,84.255z"/>
					</g>
				</g>
				<g>
					<path class="st6" d="M78.013,89.791v3.94v5.551v2.668c0,1.682-0.313,3.287-0.858,4.781c-1.959,5.366-7.103,9.205-13.158,9.205
						s-11.199-3.839-13.158-9.205c-0.546-1.494-0.858-3.099-0.858-4.781v-2.668v-5.551v-3.94c-2.841,3.257-4.573,7.502-4.573,12.159
						c0,10.245,8.323,18.549,18.589,18.549s18.589-8.305,18.589-18.549C82.586,97.294,80.853,93.049,78.013,89.791z"/>
				</g>
			</g>
		</g>
		<g>
			<g>
				<path class="st1" d="M73.121,9.899v26.754c-2.453,2.104-5.636,3.383-9.124,3.383c-3.488,0-6.672-1.279-9.124-3.383V9.899
					c-5.646,3.183-9.465,9.218-9.465,16.151c0,10.245,8.323,18.549,18.589,18.549c10.267,0,18.589-8.305,18.589-18.549
					C82.586,19.116,78.767,13.082,73.121,9.899z"/>
			</g>
			<g>
				<path class="st2" d="M54.872,15.446c-2.991,2.565-4.892,6.36-4.892,10.603s1.901,8.038,4.892,10.603V15.446z"/>
			</g>
			<g>
				<path class="st2" d="M73.121,15.446v21.206c-0.27,0.232-0.552,0.449-0.839,0.66c3.47-2.546,5.731-6.636,5.731-11.263
					C78.013,21.806,76.112,18.011,73.121,15.446z"/>
			</g>
			<g>
				<path class="st6" d="M71.121,7.5H56.872c-1.105,0-2,0.894-2,1.996v27.157c2.453,2.104,5.636,3.383,9.124,3.383
					c3.488,0,6.671-1.279,9.124-3.383V9.496C73.121,8.394,72.226,7.5,71.121,7.5z"/>
			</g>
		</g>
		<ellipse class="st5" cx="108.407" cy="69.224" rx="3.248" ry="3.241"/>
		<ellipse class="st5" cx="19.586" cy="69.224" rx="3.248" ry="3.241"/>
		<ellipse class="st5" cx="63.996" cy="50.586" rx="3.248" ry="3.241"/>
	</g>
	<g>
		<g>
			<g>
				<g>
					<path class="st5" d="M88.844,111.386h-8.306c-0.349,0-0.672-0.181-0.854-0.479s-0.195-0.668-0.036-0.978
						c1.285-2.505,1.938-5.189,1.938-7.979c0-4.218-1.537-8.303-4.327-11.502c-0.158-0.182-0.246-0.416-0.246-0.657V88.18
						c0-1.014-1.299-2.134-3.474-2.996c-0.908-0.359-1.941-0.665-3.071-0.908c-3.939-0.847-9.003-0.847-12.942,0
						c-1.131,0.244-2.165,0.549-3.072,0.908c-2.175,0.861-3.474,1.981-3.474,2.996v1.611c0,0.242-0.088,0.475-0.246,0.657
						c-2.79,3.2-4.326,7.285-4.326,11.502c0,2.79,0.651,5.475,1.937,7.979c0.159,0.31,0.146,0.681-0.036,0.978
						s-0.505,0.479-0.854,0.479h-8.306c-0.553,0-1-0.448-1-1V94.731h-9.292c-0.401,0-0.765-0.241-0.921-0.611
						s-0.076-0.798,0.204-1.086l35.14-36.165c0.375-0.388,1.059-0.388,1.434,0l12.3,12.658v-4.802c0-0.552,0.447-1,1-1h10.831
						c0.553,0,1,0.448,1,1v18.008l10.009,10.301c0.28,0.288,0.36,0.716,0.204,1.086s-0.52,0.611-0.921,0.611h-9.292v15.654
						C89.844,110.938,89.396,111.386,88.844,111.386z M82.104,109.386h5.74V93.731c0-0.552,0.447-1,1-1h7.926l-8.643-8.896
						c-0.182-0.187-0.283-0.437-0.283-0.697V65.726h-8.831v6.267c0,0.407-0.247,0.773-0.624,0.927
						c-0.377,0.152-0.81,0.063-1.093-0.23l-13.3-13.687L31.223,92.731h7.926c0.553,0,1,0.448,1,1v15.654h5.74
						c-0.983-2.365-1.481-4.859-1.481-7.435c0-4.575,1.621-9.009,4.572-12.528V88.18c0-1.921,1.683-3.645,4.737-4.855
						c1.01-0.4,2.149-0.737,3.389-1.004c4.213-0.906,9.573-0.905,13.782,0c1.237,0.266,2.377,0.604,3.388,1.004
						c3.055,1.21,4.737,2.934,4.737,4.855v1.242c2.952,3.519,4.573,7.953,4.573,12.528C83.586,104.526,83.088,107.02,82.104,109.386
						z"/>
				</g>
			</g>
			<g>
				<g>
					<g>
						<g>
							<path class="st5" d="M49.979,102.951c-0.553,0-1-0.448-1-1v-2.668c0-0.552,0.447-1,1-1s1,0.448,1,1
								c0,0.114,0.029,0.251,0.092,0.432c0.051,0.148,0.066,0.307,0.045,0.463c-0.093,0.682-0.137,1.245-0.137,1.773
								C50.979,102.503,50.532,102.951,49.979,102.951z"/>
						</g>
					</g>
					<g>
						<g>
							<path class="st5" d="M73.907,85.255c-0.123,0-0.247-0.023-0.368-0.071c-2.533-1.003-5.922-1.556-9.543-1.556
								c-3.62,0-7.009,0.553-9.543,1.556c-0.512,0.203-1.094-0.047-1.298-0.562c-0.048-0.121-0.07-0.246-0.07-0.368
								c0-0.398,0.239-0.774,0.632-0.93c2.763-1.094,6.414-1.696,10.279-1.696c3.867,0,7.518,0.603,10.279,1.696
								c0.393,0.155,0.632,0.532,0.632,0.93c0,0.123-0.022,0.248-0.07,0.368C74.682,85.016,74.305,85.255,73.907,85.255z"/>
						</g>
					</g>
					<g>
						<g>
							<path class="st5" d="M78.013,102.951c-0.553,0-1-0.448-1-1c0-0.533-0.043-1.097-0.136-1.773
								c-0.021-0.156-0.006-0.314,0.045-0.463c0.062-0.176,0.091-0.317,0.091-0.432c0-0.552,0.447-1,1-1s1,0.448,1,1v2.668
								C79.013,102.503,78.565,102.951,78.013,102.951z"/>
						</g>
					</g>
					<g>
						<g>
							<path class="st5" d="M63.996,116.937c-6.277,0-11.943-3.963-14.098-9.862c-0.163-0.448,0.012-0.949,0.419-1.197
								c0.408-0.248,0.934-0.175,1.257,0.177c1.805,1.961,6.912,3.331,12.422,3.331s10.617-1.37,12.422-3.331
								c0.323-0.352,0.848-0.424,1.257-0.177c0.407,0.248,0.582,0.749,0.419,1.197C75.939,112.974,70.273,116.937,63.996,116.937z
								 M53.488,109.589c2.412,3.294,6.301,5.348,10.508,5.348s8.096-2.053,10.508-5.348c-2.722,1.132-6.452,1.796-10.508,1.796
								S56.21,110.722,53.488,109.589z"/>
						</g>
					</g>
					<g>
						<g>
							<path class="st5" d="M63.996,105.834c-7.61,0-13.702-2.248-14.815-5.466c-0.137-0.397-0.201-0.742-0.201-1.085v-5.551
								c0-0.552,0.447-1,1-1s1,0.448,1,1c0,0.624,0.523,1.2,0.963,1.574c2.123,1.809,6.854,2.978,12.054,2.978
								s9.931-1.168,12.055-2.977l0,0c0.438-0.374,0.962-0.95,0.962-1.574c0-0.552,0.447-1,1-1s1,0.448,1,1v5.551
								c0,0.34-0.065,0.695-0.2,1.085C77.699,103.586,71.607,105.834,63.996,105.834z M50.979,97.096v2.187
								c0,0.114,0.029,0.251,0.092,0.432c0.685,1.981,5.821,4.12,12.925,4.12c7.104,0,12.241-2.139,12.926-4.12
								c0.062-0.176,0.091-0.317,0.091-0.432v-2.186c-2.605,1.973-7.528,3.186-13.017,3.186
								C58.507,100.283,53.584,99.069,50.979,97.096z M76.699,96.067h0.01H76.699z"/>
						</g>
					</g>
					<g>
						<g>
							<path class="st5" d="M63.996,100.283c-5.733,0-10.849-1.324-13.351-3.455c-1.377-1.171-1.666-2.331-1.666-3.097V88.18
								c0-0.552,0.447-1,1-1s1,0.448,1,1c0,1.008,1.288,2.124,3.446,2.984c2.537,1.011,5.936,1.567,9.57,1.567
								s7.033-0.557,9.57-1.568l0,0c2.158-0.859,3.446-1.975,3.446-2.983c0-0.552,0.447-1,1-1s1,0.448,1,1v5.551
								c0,0.766-0.289,1.924-1.665,3.097C74.845,98.959,69.729,100.283,63.996,100.283z M50.979,91.553v2.179
								c0,0.624,0.523,1.2,0.963,1.574c2.123,1.809,6.854,2.978,12.054,2.978s9.931-1.168,12.055-2.977
								c0.438-0.374,0.962-0.95,0.962-1.574v-2.179c-0.721,0.545-1.627,1.039-2.706,1.469l0,0
								c-2.767,1.102-6.429,1.709-10.311,1.709s-7.544-0.607-10.311-1.709C52.606,92.592,51.7,92.097,50.979,91.553z"/>
						</g>
					</g>
					<g>
						<g>
							<path class="st5" d="M63.996,111.386c-6.218,0-11.671-1.561-13.895-3.977c-0.089-0.097-0.158-0.211-0.203-0.334
								c-0.609-1.671-0.919-3.396-0.919-5.124c0-0.622,0.05-1.271,0.156-2.046c0.062-0.458,0.432-0.813,0.893-0.859
								c0.445-0.045,0.892,0.23,1.043,0.668c0.685,1.981,5.821,4.12,12.925,4.12c7.104,0,12.241-2.139,12.926-4.12
								c0.152-0.438,0.603-0.713,1.043-0.668c0.461,0.045,0.83,0.401,0.893,0.859c0.106,0.77,0.155,1.419,0.155,2.046
								c0,1.731-0.31,3.456-0.919,5.125c-0.045,0.124-0.114,0.237-0.203,0.334C75.667,109.825,70.214,111.386,63.996,111.386z
								 M51.707,106.193c1.914,1.887,6.91,3.193,12.289,3.193s10.376-1.306,12.289-3.193c0.402-1.157,0.64-2.341,0.707-3.532
								c-2.566,1.943-7.366,3.173-12.996,3.173s-10.43-1.23-12.996-3.174C51.067,103.85,51.305,105.034,51.707,106.193z"/>
						</g>
					</g>
					<g>
						<g>
							<path class="st5" d="M63.996,94.731c-3.882,0-7.544-0.607-10.311-1.709c-3.035-1.21-4.706-2.929-4.706-4.842
								c0-1.921,1.683-3.645,4.737-4.855c2.763-1.094,6.414-1.696,10.279-1.696c3.867,0,7.518,0.603,10.279,1.696
								c3.055,1.21,4.737,2.934,4.737,4.855c0,1.913-1.671,3.632-4.706,4.842C71.54,94.124,67.878,94.731,63.996,94.731z
								 M63.996,83.629c-3.62,0-7.009,0.553-9.543,1.556c-2.175,0.861-3.474,1.981-3.474,2.996c0,1.008,1.288,2.124,3.446,2.984
								c2.537,1.011,5.936,1.567,9.57,1.567s7.033-0.557,9.57-1.568c2.158-0.859,3.446-1.975,3.446-2.983
								c0-1.014-1.299-2.134-3.474-2.996C71.006,84.182,67.617,83.629,63.996,83.629z"/>
						</g>
					</g>
				</g>
				<g>
					<g>
						<path class="st5" d="M63.996,121.5c-10.802,0-19.589-8.77-19.589-19.549c0-4.701,1.711-9.252,4.818-12.816
							c0.274-0.315,0.717-0.425,1.104-0.279c0.391,0.146,0.649,0.52,0.649,0.937v12.159c0,1.494,0.269,2.987,0.798,4.438
							c1.867,5.113,6.777,8.548,12.219,8.548c5.441,0,10.352-3.435,12.219-8.548c0.529-1.448,0.798-2.941,0.798-4.438V89.792
							c0-0.417,0.259-0.79,0.649-0.937c0.388-0.146,0.829-0.036,1.104,0.279c3.107,3.563,4.819,8.115,4.819,12.816
							C83.586,112.73,74.798,121.5,63.996,121.5z M48.979,92.839c-1.673,2.735-2.572,5.884-2.572,9.112
							c0,9.677,7.891,17.549,17.589,17.549c9.699,0,17.59-7.873,17.59-17.549c0-3.228-0.9-6.378-2.573-9.113v9.113
							c0,1.731-0.31,3.456-0.919,5.125c-2.154,5.898-7.82,9.862-14.098,9.862s-11.943-3.963-14.098-9.862
							c-0.609-1.672-0.919-3.396-0.919-5.125V92.839z"/>
					</g>
				</g>
			</g>
			<g>
				<g>
					<path class="st5" d="M63.996,77.905c-2.343,0-4.248-1.902-4.248-4.241s1.905-4.241,4.248-4.241s4.248,1.903,4.248,4.241
						S66.339,77.905,63.996,77.905z M63.996,71.423c-1.239,0-2.248,1.005-2.248,2.241c0,1.235,1.009,2.241,2.248,2.241
						s2.248-1.005,2.248-2.241C66.244,72.429,65.235,71.423,63.996,71.423z"/>
				</g>
			</g>
		</g>
		<g>
			<g>
				<g>
					<g>
						<path class="st5" d="M107.374,59.564c-0.261,0-0.516-0.102-0.706-0.292l-4.887-4.876c-0.188-0.188-0.294-0.442-0.294-0.708
							c0-2.774-0.496-5.729-1.518-9.035l-0.033-0.117c-0.008-0.021-0.015-0.042-0.021-0.064c-0.166-0.586-0.259-1.22-0.282-1.938
							l-0.001-0.57c0.194-2.021,1.791-3.471,3.719-3.471c0.799,0,1.546,0.248,2.159,0.684c0.546-0.963,1.58-1.614,2.765-1.614h6.611
							c0.432,0,0.814,0.277,0.95,0.688c0.209,0.636,0.315,1.293,0.315,1.951v6.45c0,2.985-2.163,5.577-5.031,6.029
							c-0.758,0.118-1.515,0.096-2.242-0.066v0.54l-0.509,5.503c-0.036,0.386-0.292,0.716-0.656,0.848
							C107.603,59.545,107.488,59.564,107.374,59.564z M103.483,53.27l3.093,3.085l0.307-3.293l-0.004-1.864
							c0-0.349,0.182-0.673,0.479-0.854c0.299-0.182,0.668-0.196,0.979-0.034c0.761,0.394,1.62,0.529,2.473,0.396
							c1.905-0.3,3.342-2.042,3.342-4.053v-6.45c0-0.213-0.017-0.427-0.05-0.639h-5.827c-0.647,0-1.174,0.524-1.174,1.169
							c0,0.355-0.063,0.713-0.188,1.062c-0.146,0.406-0.521,0.685-0.969,0.662c-0.433-0.012-0.808-0.3-0.932-0.714
							c-0.222-0.748-0.89-1.25-1.661-1.25c-0.895,0-1.636,0.675-1.724,1.569l0.005,0.439c0.017,0.494,0.079,0.949,0.189,1.361
							c0.008,0.022,0.016,0.046,0.022,0.07l0.035,0.131C102.911,47.399,103.437,50.416,103.483,53.27z"/>
					</g>
				</g>
				<g>
					<g>
						<path class="st5" d="M107.878,52.197c-0.164,0-0.33-0.04-0.484-0.125c-0.857-0.476-1.597-1.172-2.138-2.013
							c-0.299-0.464-0.165-1.083,0.3-1.382c0.463-0.298,1.084-0.164,1.382,0.3c0.363,0.565,0.856,1.03,1.427,1.346
							c0.482,0.268,0.657,0.876,0.39,1.359C108.571,52.012,108.229,52.197,107.878,52.197z"/>
					</g>
				</g>
				<g>
					<g>
						<path class="st5" d="M108.407,64.254c-4.843,0-9.497-1.789-13.107-5.038c-0.197-0.178-0.316-0.427-0.33-0.692
							c-0.013-0.266,0.08-0.525,0.258-0.723c1.885-2.078,4.276-3.169,4.937-3.445l1.674-1.429c0.396-0.338,0.986-0.315,1.355,0.052
							l3.383,3.375l0.307-3.294c0.036-0.383,0.289-0.712,0.649-0.845c0.363-0.135,0.768-0.047,1.043,0.22l2,1.94
							c1.157,0.299,5.085,1.648,7.109,6.517c0.202,0.484-0.005,1.042-0.474,1.277C114.463,63.553,111.5,64.254,108.407,64.254z
							 M97.446,58.415c3.113,2.483,6.967,3.839,10.961,3.839c2.451,0,4.811-0.49,7.026-1.457c-2.025-3.859-5.492-4.517-5.529-4.523
							c-0.196-0.035-0.378-0.128-0.521-0.267l-0.702-0.681l-0.311,3.332c-0.036,0.386-0.292,0.716-0.656,0.848
							c-0.366,0.131-0.772,0.042-1.046-0.232l-4.233-4.225l-1.096,0.936c-0.087,0.075-0.188,0.134-0.295,0.175
							C101.022,56.167,99.139,56.896,97.446,58.415z"/>
					</g>
				</g>
				<g>
					<g>
						<path class="st5" d="M100.605,43.232c-0.553,0-1-0.448-1-1v-5.449c0-3.264,2.66-5.919,5.931-5.919h12.137
							c0.411,0,0.78,0.252,0.931,0.635c0.15,0.381,0.052,0.816-0.248,1.096l0,0c-0.024,0.023-2.469,2.367-2.469,5.968
							c0,0.552-0.447,1-1,1h-6.611c-0.647,0-1.174,0.524-1.174,1.169c0,0.355-0.063,0.713-0.188,1.062
							c-0.146,0.406-0.521,0.685-0.969,0.662c-0.433-0.012-0.808-0.3-0.932-0.714c-0.222-0.748-0.89-1.25-1.661-1.25
							c-0.963,0-1.746,0.78-1.746,1.74C101.605,42.785,101.158,43.232,100.605,43.232z M103.352,38.493
							c0.799,0,1.546,0.248,2.159,0.684c0.546-0.963,1.58-1.614,2.765-1.614h5.661c0.197-1.989,0.954-3.591,1.666-4.699h-10.066
							c-2.167,0-3.931,1.758-3.931,3.919v2.141C102.127,38.649,102.722,38.493,103.352,38.493z"/>
					</g>
				</g>
			</g>
			<g>
				<g>
					<path class="st5" d="M108.407,64.237c-10.802,0-19.59-8.77-19.59-19.55c0-10.779,8.788-19.549,19.59-19.549
						s19.589,8.77,19.589,19.549C127.996,55.467,119.209,64.237,108.407,64.237z M108.407,27.138c-9.699,0-17.59,7.873-17.59,17.549
						s7.891,17.55,17.59,17.55c9.698,0,17.589-7.873,17.589-17.55S118.105,27.138,108.407,27.138z"/>
				</g>
			</g>
		</g>
		<g>
			<g>
				<g>
					<path class="st5" d="M19.585,64.237c-10.802,0-19.59-8.77-19.59-19.55c0-10.779,8.788-19.549,19.59-19.549
						s19.589,8.77,19.589,19.549C39.174,55.467,30.387,64.237,19.585,64.237z M19.585,27.138c-9.699,0-17.59,7.873-17.59,17.549
						s7.891,17.55,17.59,17.55c9.698,0,17.589-7.873,17.589-17.55S29.283,27.138,19.585,27.138z"/>
				</g>
			</g>
			<g>
				<g>
					<g>
						<path class="st5" d="M28.11,48.192c-0.256,0-0.513-0.098-0.708-0.293c-0.39-0.391-0.39-1.024,0.002-1.415l5.228-5.216
							c0.391-0.39,1.023-0.39,1.414,0.001c0.39,0.391,0.39,1.024-0.002,1.415L28.816,47.9C28.621,48.095,28.366,48.192,28.11,48.192
							z"/>
					</g>
				</g>
				<g>
					<g>
						<path class="st5" d="M24.886,48.192c-0.256,0-0.511-0.097-0.706-0.292l-4.789-4.778c-0.392-0.39-0.392-1.023-0.002-1.414
							c0.391-0.392,1.023-0.392,1.414-0.002l4.789,4.778c0.392,0.39,0.392,1.023,0.002,1.414
							C25.398,48.094,25.142,48.192,24.886,48.192z"/>
					</g>
				</g>
				<g>
					<g>
						<path class="st5" d="M7.494,52.773c-0.256,0-0.513-0.098-0.708-0.293c-0.39-0.391-0.39-1.024,0.002-1.415l9.378-9.358
							c0.391-0.39,1.023-0.39,1.414,0.001c0.39,0.391,0.39,1.024-0.002,1.415L8.2,52.481C8.005,52.676,7.75,52.773,7.494,52.773z"/>
					</g>
				</g>
				<g>
					<g>
						<path class="st5" d="M19.585,59.674c-8.28,0-15.017-6.723-15.017-14.986c0-8.263,6.736-14.986,15.017-14.986
							s15.017,6.723,15.017,14.986C34.602,52.951,27.865,59.674,19.585,59.674z M19.585,31.702c-7.178,0-13.017,5.825-13.017,12.986
							s5.839,12.986,13.017,12.986s13.017-5.826,13.017-12.986S26.763,31.702,19.585,31.702z"/>
					</g>
				</g>
				<g>
					<g>
						<path class="st5" d="M18.484,44.079c-0.84,0-1.68-0.319-2.318-0.957c-0.62-0.619-0.962-1.442-0.962-2.317
							s0.342-1.698,0.962-2.317c1.277-1.275,3.359-1.275,4.637,0c0.62,0.619,0.962,1.442,0.962,2.317s-0.342,1.698-0.962,2.317
							C20.164,43.76,19.324,44.079,18.484,44.079z M18.484,39.531c-0.328,0-0.656,0.125-0.906,0.374
							c-0.241,0.241-0.374,0.561-0.374,0.901s0.133,0.66,0.374,0.901c0.5,0.499,1.312,0.499,1.812,0
							c0.241-0.241,0.374-0.561,0.374-0.901s-0.133-0.66-0.374-0.901C19.141,39.655,18.812,39.531,18.484,39.531z"/>
					</g>
				</g>
				<g>
					<g>
						<path class="st5" d="M26.498,52.075c-0.84,0-1.68-0.319-2.318-0.957l0,0c-0.62-0.619-0.962-1.442-0.962-2.317
							c0-0.875,0.342-1.698,0.962-2.317c1.278-1.277,3.358-1.276,4.637,0c0.62,0.619,0.962,1.442,0.962,2.317
							c0,0.875-0.342,1.699-0.962,2.317C28.177,51.756,27.337,52.075,26.498,52.075z M26.498,47.526
							c-0.328,0-0.656,0.125-0.905,0.374c-0.242,0.241-0.375,0.561-0.375,0.901c0,0.341,0.133,0.661,0.374,0.901v0
							c0.5,0.498,1.312,0.499,1.812,0c0.241-0.241,0.374-0.561,0.374-0.901c0-0.34-0.133-0.66-0.374-0.901
							C27.154,47.651,26.826,47.526,26.498,47.526z"/>
					</g>
				</g>
			</g>
		</g>
		<g>
			<g>
				<g>
					<path class="st5" d="M63.997,45.599c-10.802,0-19.59-8.77-19.59-19.549c0-7.031,3.821-13.553,9.974-17.022
						c0.31-0.175,0.688-0.172,0.996,0.008c0.307,0.179,0.495,0.508,0.495,0.863v26.284c2.307,1.843,5.174,2.853,8.125,2.853
						c2.95,0,5.817-1.01,8.124-2.853V9.898c0-0.355,0.188-0.684,0.495-0.863c0.307-0.18,0.686-0.183,0.996-0.008
						c6.152,3.469,9.974,9.991,9.974,17.022C83.586,36.829,74.799,45.599,63.997,45.599z M53.872,11.711
						c-4.644,3.27-7.465,8.617-7.465,14.338c0,9.677,7.891,17.549,17.59,17.549c9.698,0,17.589-7.873,17.589-17.549
						c0-5.721-2.821-11.068-7.465-14.338v24.941c0,0.292-0.128,0.569-0.349,0.759c-2.726,2.336-6.197,3.624-9.775,3.624
						c-3.579,0-7.051-1.287-9.776-3.624c-0.221-0.19-0.349-0.467-0.349-0.759V11.711z M73.121,36.653h0.01H73.121z"/>
				</g>
			</g>
			<g>
				<g>
					<g>
						<path class="st5" d="M54.872,37.653c-0.234,0-0.466-0.083-0.651-0.241c-3.33-2.856-5.24-6.998-5.24-11.362
							c0-4.364,1.91-8.505,5.24-11.362c0.298-0.255,0.715-0.313,1.069-0.15c0.354,0.163,0.582,0.518,0.582,0.909v21.207
							c0,0.391-0.228,0.746-0.582,0.909C55.156,37.623,55.014,37.653,54.872,37.653z M53.872,17.903
							c-1.857,2.293-2.892,5.16-2.892,8.146s1.034,5.854,2.892,8.147V17.903z"/>
					</g>
				</g>
				<g>
					<g>
						<path class="st5" d="M73.116,37.654c-0.404,0-0.774-0.244-0.929-0.617c-0.155-0.374-0.074-0.804,0.212-1.09l0.01-0.01
							c0.287-0.286,0.716-0.372,1.09-0.217s0.617,0.52,0.617,0.924C74.116,37.197,73.669,37.654,73.116,37.654z M73.823,37.352h0.01
							H73.823z"/>
					</g>
				</g>
				<g>
					<g>
						<path class="st5" d="M73.116,37.645c-0.143,0-0.285-0.03-0.419-0.092c-0.354-0.164-0.581-0.518-0.581-0.908V15.45
							c0-0.39,0.228-0.745,0.581-0.908c0.355-0.163,0.772-0.105,1.068,0.148c3.337,2.853,5.251,6.992,5.251,11.357
							c0,4.376-1.914,8.516-5.252,11.358C73.58,37.563,73.35,37.645,73.116,37.645z M74.116,17.9v16.299
							c1.863-2.287,2.9-5.155,2.9-8.152C77.017,23.059,75.979,20.191,74.116,17.9z"/>
					</g>
				</g>
			</g>
			<g>
				<g>
					<g>
						<path class="st5" d="M63.997,41.036c-3.579,0-7.051-1.287-9.776-3.624c-0.221-0.19-0.349-0.467-0.349-0.759V9.496
							c0-1.652,1.346-2.996,3-2.996h14.249c1.654,0,3,1.344,3,2.996v27.157c0,0.292-0.128,0.569-0.349,0.759
							C71.047,39.749,67.575,41.036,63.997,41.036z M55.872,36.183c2.307,1.843,5.174,2.853,8.125,2.853
							c2.95,0,5.817-1.01,8.124-2.853V9.496c0-0.549-0.448-0.996-1-0.996H56.872c-0.552,0-1,0.447-1,0.996V36.183z M73.121,36.653
							h0.01H73.121z"/>
					</g>
				</g>
				<g>
					<g>
						<g>
							<g>
								<path class="st5" d="M69.297,31.536H58.696c-0.553,0-1-0.448-1-1s0.447-1,1-1h10.601c0.553,0,1,0.448,1,1
									S69.85,31.536,69.297,31.536z"/>
							</g>
						</g>
						<g>
							<g>
								<path class="st5" d="M66.195,36.133h-7.499c-0.553,0-1-0.448-1-1s0.447-1,1-1h7.499c0.553,0,1,0.448,1,1
									S66.748,36.133,66.195,36.133z"/>
							</g>
						</g>
					</g>
					<g>
						<g>
							<g>
								<path class="st5" d="M69.297,12.491H58.696c-0.553,0-1-0.448-1-1s0.447-1,1-1h10.601c0.553,0,1,0.448,1,1
									S69.85,12.491,69.297,12.491z"/>
							</g>
						</g>
						<g>
							<g>
								<path class="st5" d="M66.195,17.089h-7.499c-0.553,0-1-0.448-1-1s0.447-1,1-1h7.499c0.553,0,1,0.448,1,1
									S66.748,17.089,66.195,17.089z"/>
							</g>
						</g>
					</g>
					<g>
						<g>
							<g>
								<path class="st5" d="M69.297,22.014H58.696c-0.553,0-1-0.448-1-1s0.447-1,1-1h10.601c0.553,0,1,0.448,1,1
									S69.85,22.014,69.297,22.014z"/>
							</g>
						</g>
						<g>
							<g>
								<path class="st5" d="M66.195,26.611h-7.499c-0.553,0-1-0.448-1-1s0.447-1,1-1h7.499c0.553,0,1,0.448,1,1
									S66.748,26.611,66.195,26.611z"/>
							</g>
						</g>
					</g>
				</g>
			</g>
		</g>
		<g>
			<path class="st5" d="M108.407,88.46H93.043c-0.553,0-1-0.448-1-1s0.447-1,1-1h14.364V69.224c0-0.552,0.447-1,1-1s1,0.448,1,1
				V87.46C109.407,88.013,108.96,88.46,108.407,88.46z"/>
		</g>
		<g>
			<path class="st5" d="M34.95,88.46H19.586c-0.553,0-1-0.448-1-1V69.224c0-0.552,0.447-1,1-1s1,0.448,1,1V86.46H34.95
				c0.553,0,1,0.448,1,1S35.503,88.46,34.95,88.46z"/>
		</g>
		<g>
			<path class="st5" d="M63.996,58.567c-0.553,0-1-0.448-1-1v-6.981c0-0.552,0.447-1,1-1s1,0.448,1,1v6.981
				C64.996,58.119,64.549,58.567,63.996,58.567z"/>
		</g>
		<g>
			<g>
				<path class="st5" d="M126.996,111.386H88.844c-0.553,0-1-0.448-1-1s0.447-1,1-1h38.152c0.553,0,1,0.448,1,1
					S127.549,111.386,126.996,111.386z"/>
			</g>
			<g>
				<path class="st5" d="M39.148,111.386H0.996c-0.553,0-1-0.448-1-1s0.447-1,1-1h38.152c0.553,0,1,0.448,1,1
					S39.701,111.386,39.148,111.386z"/>
			</g>
		</g>
	</g>
</g>
</svg>
