<?xml version="1.0" encoding="utf-8"?>
<!-- Generator: Adobe Illustrator 22.0.0, SVG Export Plug-In . SVG Version: 6.00 Build 0)  -->
<svg version="1.1" id="MARKET_RESEARCH_ICON_SET" xmlns="http://www.w3.org/2000/svg" xmlns:xlink="http://www.w3.org/1999/xlink"
	 x="0px" y="0px" viewBox="0 0 128 128" style="enable-background:new 0 0 128 128;" xml:space="preserve">
<style type="text/css">
	.st0{fill:#C2D5EC;}
	.st1{fill:#61E1FF;}
	.st2{fill:#7184AF;}
	.st3{fill:#F8F8F8;}
	.st4{fill:#3F4D81;}
	.st5{fill:#3F4D80;}
	.st6{fill:#E9EAEB;}
	.st7{fill:#F79559;}
	.st8{fill:#FFA85A;}
</style>
<g>
	<g>
		
			<ellipse transform="matrix(0.9997 -0.0242 0.0242 0.9997 -1.5231 1.5707)" class="st0" cx="64.005" cy="63.587" rx="50.325" ry="48.363"/>
		<path class="st5" d="M15.396,51.135c2.206,0.928,4.626,1.443,7.167,1.443c10.255,0,18.567-8.347,18.567-18.644
			c0-4.255-1.436-8.165-3.825-11.303c-3.564,2.153-6.906,4.77-9.925,7.855C21.465,36.53,17.48,43.647,15.396,51.135z"/>
		<path class="st5" d="M22.643,84.721c-1.288,0-2.545,0.132-3.76,0.383c2.582,5.017,6.117,9.686,10.608,13.745
			c3.5,3.163,7.353,5.736,11.422,7.751c0.184-1.052,0.298-2.129,0.298-3.234C41.21,93.068,32.898,84.721,22.643,84.721z"/>
		<path class="st5" d="M112.093,49.26c-2.475-7.742-6.999-14.991-13.574-20.934c-1.503-1.359-3.078-2.598-4.699-3.744
			c-0.654,1.906-1.027,3.943-1.027,6.072c0,10.297,8.313,18.644,18.567,18.644C111.607,49.297,111.848,49.27,112.093,49.26z"/>
		<path class="st5" d="M83.529,49.28h-3.784v-1.348c0-1.354-1.093-2.452-2.442-2.452h-26.83c-1.349,0-2.442,1.098-2.442,2.452
			v34.382c0,1.354,1.093,2.452,2.442,2.452h1.343v1.348c0,1.354,1.093,2.452,2.442,2.452h24.934c0.72,0,1.411-0.287,1.92-0.799
			l4.063-4.08c0.509-0.511,0.795-1.205,0.795-1.928V51.732C85.971,50.378,84.877,49.28,83.529,49.28z"/>
		<g>
			<g>
				<path class="st6" d="M18.11,25.75l10.615,10.659c0,0,4.529-4.548,9.055-9.093c-1.675-8.569-9.189-15.035-18.213-15.035
					C9.313,12.281,1,20.628,1,30.925c0,3.444,0.929,6.676,2.551,9.445L18.11,25.75L18.11,25.75z"/>
			</g>
			<g>
				<path class="st2" d="M28.725,36.409L18.11,25.75v0L3.551,40.369c3.227,5.509,9.192,9.2,16.017,9.2
					c10.255,0,18.567-8.347,18.567-18.644c0-1.235-0.126-2.441-0.355-3.609C33.254,31.86,28.725,36.409,28.725,36.409z"/>
			</g>
			<g>
				<ellipse class="st7" cx="18.11" cy="25.75" rx="3.021" ry="3.033"/>
			</g>
			<g>
				<ellipse class="st7" cx="28.725" cy="36.408" rx="3.021" ry="3.033"/>
			</g>
		</g>
		<g>
			<g>
				<path class="st2" d="M48.82,48.724c0-1.354,1.093-2.452,2.442-2.452h25.487v-1.348c0-1.354-1.093-2.452-2.442-2.452h-26.83
					c-1.349,0-2.442,1.098-2.442,2.452v34.382c0,1.354,1.093,2.452,2.442,2.452h1.343V48.724z"/>
			</g>
			<g>
				<path class="st6" d="M77.32,85.557H51.261c-1.349,0-2.442-1.098-2.442-2.452V48.724c0-1.354,1.093-2.452,2.442-2.452h29.271
					c1.349,0,2.442,1.098,2.442,2.452V79.88L77.32,85.557z"/>
			</g>
			<g>
				<path class="st3" d="M82.972,48.723v0.843H53.038c-0.42,0-0.759,0.341-0.759,0.772v35.223H51.26
					c-1.348,0-2.437-1.103-2.437-2.457V48.723c0-1.354,1.089-2.447,2.437-2.447h29.275C81.884,46.276,82.972,47.369,82.972,48.723z"
					/>
			</g>
			<g>
				<polygon class="st5" points="77.32,79.88 82.974,79.88 77.32,85.557 				"/>
			</g>
		</g>
		<g>
			<ellipse class="st5" cx="108.363" cy="54.312" rx="3.244" ry="3.257"/>
			<ellipse class="st5" cx="19.647" cy="72.862" rx="3.244" ry="3.257"/>
			<ellipse class="st5" cx="46.125" cy="30.925" rx="3.244" ry="3.257"/>
			<ellipse class="st5" cx="82.804" cy="96.25" rx="3.244" ry="3.257"/>
		</g>
		<g>
			<g>
				<ellipse class="st2" cx="108.424" cy="96.258" rx="18.576" ry="18.652"/>
			</g>
			<g>
				<g>
					<path class="st3" d="M108.293,90.094c-1.199,0-2.171,0.976-2.171,2.18c0,0.254-0.048,0.498-0.129,0.729
						c-0.336-1.139-1.374-1.975-2.617-1.975c-1.423,0-2.578,1.092-2.715,2.484v0.54c0.02,0.588,0.092,1.163,0.245,1.707l0.003,0
						c0.015,0.053,0.028,0.107,0.044,0.16c0.936,3.049,1.56,6.187,1.56,9.378l4.881,4.901l0.505-5.438v-1.967
						c0.902,0.469,1.962,0.676,3.083,0.498c2.438-0.386,4.182-2.588,4.182-5.067v-4.442V91.74c0-0.576-0.096-1.128-0.266-1.647
						H108.293z"/>
				</g>
				<g>
					<path class="st8" d="M110.095,106.904l-2.198-2.145l-0.505,5.438l-4.881-4.901l-1.796,1.543l0,0c0,0-2.693,1.023-4.715,3.267
						c3.292,2.981,7.642,4.805,12.423,4.805c3.002,0,5.836-0.717,8.345-1.986C114.614,107.71,110.095,106.904,110.095,106.904z"/>
				</g>
				<g>
					<path class="st5" d="M117.679,83.36h-12.122c-2.72,0-4.925,2.214-4.925,4.945v5.477c0-1.521,1.228-2.754,2.743-2.754
						c1.243,0,2.281,0.836,2.617,1.975c0.082-0.23,0.129-0.475,0.129-0.729c0-1.204,0.972-2.18,2.171-2.18h6.603
						C114.896,85.96,117.679,83.36,117.679,83.36z"/>
				</g>
			</g>
		</g>
		<g>
			<g>
				<path class="st8" d="M117.476,11.411v26.891c-2.45,2.114-5.63,3.4-9.114,3.4c-3.484,0-6.664-1.286-9.114-3.4V11.411
					c-5.64,3.2-9.454,9.265-9.454,16.233c0,10.297,8.313,18.644,18.567,18.644c10.254,0,18.567-8.347,18.567-18.644
					C126.93,20.676,123.116,14.611,117.476,11.411z"/>
			</g>
			<g>
				<path class="st2" d="M99.249,16.987c-2.987,2.578-4.886,6.392-4.886,10.657s1.899,8.079,4.886,10.657V16.987z"/>
			</g>
			<g>
				<path class="st2" d="M117.476,16.987v21.315c-0.27,0.233-0.552,0.451-0.838,0.663c3.466-2.559,5.725-6.67,5.725-11.321
					C122.363,23.379,120.464,19.565,117.476,16.987z"/>
			</g>
			<g>
				<path class="st6" d="M115.479,9h-14.232c-1.103,0-1.998,0.898-1.998,2.006v27.296c2.45,2.114,5.63,3.4,9.114,3.4
					c3.484,0,6.664-1.286,9.114-3.4V11.006C117.476,9.898,116.582,9,115.479,9z"/>
			</g>
		</g>
		<g>
			<g>
				<path class="st1" d="M31.607,86.1v22.298c-1.467,2.196-3.519,3.963-5.931,5.082V82.723c-1.891-0.652-3.918-1.011-6.03-1.011
					c-10.255,0-18.567,8.347-18.567,18.644S9.392,119,19.647,119s18.567-8.347,18.567-18.644
					C38.214,94.636,35.646,89.52,31.607,86.1z"/>
			</g>
			<g>
				<g>
					<path class="st3" d="M25.676,87.232c-1.835-0.851-3.876-1.33-6.03-1.33c-7.95,0-14.394,6.471-14.394,14.454
						c0,7.983,6.445,14.454,14.394,14.454c2.154,0,4.195-0.478,6.03-1.33V87.232z"/>
				</g>
				<g>
					<path class="st3" d="M31.607,108.398c1.536-2.299,2.433-5.065,2.433-8.042c0-2.977-0.897-5.743-2.433-8.042V108.398z"/>
				</g>
			</g>
			<g>
				<path class="st8" d="M31.607,108.398V80.323h-5.931v33.157C28.088,112.361,30.14,110.594,31.607,108.398z"/>
			</g>
			<g>
				<path class="st8" d="M13.617,113.48v-13.124H7.686v8.042C9.153,110.594,11.205,112.361,13.617,113.48z"/>
			</g>
			<g>
				<path class="st8" d="M19.647,114.81c1.017,0,2.008-0.107,2.966-0.309V93.419h-5.931v21.082
					C17.638,114.702,18.63,114.81,19.647,114.81z"/>
			</g>
		</g>
	</g>
	<g>
		<g>
			<g>
				<g>
					<g>
						<path class="st5" d="M71.095,80.88h-16.05c-0.553,0-1-0.447-1-1s0.447-1,1-1h16.05c0.553,0,1,0.447,1,1
							S71.647,80.88,71.095,80.88z"/>
					</g>
				</g>
				<g>
					<g>
						<path class="st5" d="M76.748,75.449H55.045c-0.553,0-1-0.447-1-1s0.447-1,1-1h21.703c0.553,0,1,0.447,1,1
							S77.301,75.449,76.748,75.449z"/>
					</g>
				</g>
				<g>
					<g>
						<path class="st5" d="M76.748,59.156H55.045c-0.553,0-1-0.447-1-1s0.447-1,1-1h21.703c0.553,0,1,0.447,1,1
							S77.301,59.156,76.748,59.156z"/>
					</g>
				</g>
				<g>
					<g>
						<path class="st5" d="M76.748,53.726H55.045c-0.553,0-1-0.447-1-1s0.447-1,1-1h21.703c0.553,0,1,0.447,1,1
							S77.301,53.726,76.748,53.726z"/>
					</g>
				</g>
				<g>
					<g>
						<path class="st5" d="M76.748,64.587H55.045c-0.553,0-1-0.447-1-1s0.447-1,1-1h21.703c0.553,0,1,0.447,1,1
							S77.301,64.587,76.748,64.587z"/>
					</g>
				</g>
				<g>
					<g>
						<path class="st5" d="M76.748,70.019H55.045c-0.553,0-1-0.447-1-1s0.447-1,1-1h21.703c0.553,0,1,0.447,1,1
							S77.301,70.019,76.748,70.019z"/>
					</g>
				</g>
			</g>
			<g>
				<g>
					<path class="st5" d="M48.819,82.757h-1.343c-1.897,0-3.441-1.548-3.441-3.451V44.924c0-1.903,1.544-3.452,3.441-3.452h26.83
						c1.897,0,3.441,1.549,3.441,3.452v1.348c0,0.553-0.447,1-1,1H51.262c-0.795,0-1.442,0.651-1.442,1.452v33.033
						C49.819,82.31,49.372,82.757,48.819,82.757z M47.477,43.472c-0.795,0-1.441,0.651-1.441,1.452v34.382
						c0,0.8,0.646,1.451,1.441,1.451h0.343V48.724c0-1.903,1.544-3.452,3.442-3.452h24.486v-0.348c0-0.801-0.646-1.452-1.441-1.452
						H47.477z"/>
				</g>
			</g>
			<g>
				<g>
					<path class="st5" d="M77.32,86.558H51.262c-1.898,0-3.442-1.549-3.442-3.452V48.724c0-1.903,1.544-3.452,3.442-3.452h29.271
						c1.898,0,3.442,1.549,3.442,3.452V79.88c0,0.265-0.104,0.519-0.291,0.706l-5.654,5.678
						C77.841,86.452,77.586,86.558,77.32,86.558z M51.262,47.271c-0.795,0-1.442,0.651-1.442,1.452v34.382
						c0,0.801,0.647,1.452,1.442,1.452h25.644l5.069-5.091V48.724c0-0.801-0.647-1.452-1.442-1.452H51.262z"/>
				</g>
			</g>
			<g>
				<g>
					<path class="st5" d="M77.32,86.558c-0.129,0-0.258-0.024-0.382-0.076c-0.374-0.154-0.618-0.519-0.618-0.924V79.88
						c0-0.553,0.447-1,1-1h5.654c0.404,0,0.769,0.243,0.924,0.616c0.154,0.373,0.07,0.803-0.215,1.09l-5.654,5.678
						C77.838,86.455,77.581,86.558,77.32,86.558z M78.32,80.88v2.257l2.247-2.257H78.32z"/>
				</g>
			</g>
		</g>
		<g>
			<g>
				<path class="st5" d="M65.126,37.942c-0.553,0-1-0.447-1-1v-5.018H49.369c-0.553,0-1-0.447-1-1s0.447-1,1-1h15.757
					c0.553,0,1,0.447,1,1v6.018C66.126,37.495,65.679,37.942,65.126,37.942z"/>
			</g>
			<g>
				<path class="st5" d="M65.126,37.942c-0.553,0-1-0.447-1-1v-5.018H49.369c-0.553,0-1-0.447-1-1s0.447-1,1-1h15.757
					c0.553,0,1,0.447,1,1v6.018C66.126,37.495,65.679,37.942,65.126,37.942z"/>
			</g>
			<g>
				<path class="st5" d="M79.56,97.25H65.126c-0.553,0-1-0.447-1-1v-6.019c0-0.553,0.447-1,1-1s1,0.447,1,1v5.019H79.56
					c0.553,0,1,0.447,1,1S80.112,97.25,79.56,97.25z"/>
			</g>
			<g>
				<path class="st5" d="M19.646,70.604c-0.553,0-1-0.447-1-1v-6.018c0-0.553,0.447-1,1-1h18.944c0.553,0,1,0.447,1,1s-0.447,1-1,1
					H20.646v5.018C20.646,70.157,20.199,70.604,19.646,70.604z"/>
			</g>
			<g>
				<path class="st5" d="M19.646,70.604c-0.553,0-1-0.447-1-1v-6.018c0-0.553,0.447-1,1-1h18.944c0.553,0,1,0.447,1,1s-0.447,1-1,1
					H20.646v5.018C20.646,70.157,20.199,70.604,19.646,70.604z"/>
			</g>
			<g>
				<path class="st5" d="M108.363,64.587H91.661c-0.553,0-1-0.447-1-1s0.447-1,1-1h15.702v-5.018c0-0.553,0.447-1,1-1s1,0.447,1,1
					v6.018C109.363,64.14,108.916,64.587,108.363,64.587z"/>
			</g>
		</g>
		<g>
			<g>
				<g>
					<g>
						<path class="st5" d="M107.393,111.197c-0.262,0-0.518-0.103-0.709-0.294l-4.881-4.901c-0.187-0.188-0.291-0.441-0.291-0.706
							c0-2.79-0.496-5.762-1.517-9.084l-0.032-0.117c-0.008-0.021-0.015-0.043-0.021-0.064c-0.164-0.584-0.257-1.22-0.281-1.943
							l-0.001-0.575c0.194-2.028,1.79-3.483,3.716-3.483c0.797,0,1.543,0.249,2.155,0.685c0.545-0.966,1.579-1.619,2.763-1.619
							h6.604c0.433,0,0.815,0.277,0.95,0.688c0.209,0.639,0.315,1.298,0.315,1.958v6.483c0,2.998-2.161,5.601-5.026,6.054
							c-0.755,0.121-1.511,0.098-2.238-0.064v0.546l-0.509,5.531c-0.036,0.386-0.292,0.717-0.657,0.849
							C107.621,111.178,107.506,111.197,107.393,111.197z M103.509,104.88l3.086,3.099l0.307-3.312l-0.004-1.874
							c0-0.35,0.183-0.674,0.481-0.855c0.3-0.181,0.672-0.193,0.98-0.031c0.758,0.395,1.605,0.531,2.464,0.397
							c1.903-0.302,3.339-2.055,3.339-4.079V91.74c0-0.216-0.017-0.432-0.05-0.646h-5.819c-0.646,0-1.172,0.529-1.172,1.181
							c0,0.354-0.062,0.71-0.186,1.061c-0.143,0.407-0.501,0.657-0.969,0.668c-0.434-0.012-0.811-0.301-0.934-0.716
							c-0.223-0.753-0.889-1.259-1.658-1.259c-0.893,0-1.632,0.68-1.721,1.581l0.005,0.442c0.018,0.501,0.08,0.96,0.189,1.371
							c0.009,0.022,0.016,0.045,0.022,0.068l0.036,0.133C102.937,98.978,103.462,102.011,103.509,104.88z"/>
					</g>
				</g>
				<g>
					<g>
						<path class="st5" d="M107.896,103.792c-0.165,0-0.332-0.041-0.485-0.126c-0.857-0.478-1.596-1.178-2.138-2.023
							c-0.297-0.466-0.161-1.084,0.304-1.382c0.466-0.296,1.083-0.161,1.382,0.304c0.363,0.569,0.856,1.037,1.425,1.354
							c0.482,0.27,0.656,0.878,0.388,1.36C108.588,103.607,108.247,103.792,107.896,103.792z"/>
					</g>
				</g>
				<g>
					<g>
						<path class="st5" d="M108.425,115.91c-4.838,0-9.488-1.798-13.095-5.063c-0.409-0.37-0.441-1.001-0.072-1.411
							c1.883-2.088,4.27-3.185,4.931-3.462l1.672-1.437c0.396-0.34,0.989-0.319,1.36,0.053l3.374,3.389l0.307-3.312
							c0.036-0.384,0.289-0.713,0.651-0.846c0.361-0.132,0.768-0.047,1.043,0.223l1.997,1.95c1.159,0.302,5.08,1.659,7.101,6.549
							c0.2,0.482-0.006,1.038-0.473,1.274C114.474,115.206,111.515,115.91,108.425,115.91z M97.473,110.047
							c3.111,2.498,6.961,3.863,10.952,3.863c2.448,0,4.806-0.493,7.02-1.466c-2.022-3.888-5.488-4.549-5.525-4.556
							c-0.197-0.035-0.379-0.129-0.522-0.269l-0.697-0.681l-0.311,3.351c-0.036,0.386-0.292,0.717-0.657,0.849
							c-0.366,0.128-0.773,0.038-1.048-0.235l-4.225-4.243l-1.092,0.938c-0.087,0.074-0.188,0.135-0.295,0.176
							C101.051,107.781,99.166,108.517,97.473,110.047z"/>
					</g>
				</g>
				<g>
					<g>
						<path class="st5" d="M100.632,94.782c-0.553,0-1-0.447-1-1v-5.477c0-3.278,2.658-5.945,5.925-5.945h12.122
							c0.41,0,0.779,0.251,0.931,0.633c0.15,0.382,0.053,0.815-0.246,1.096c-0.053,0.051-2.467,2.402-2.467,6.005
							c0,0.553-0.447,1-1,1h-6.604c-0.646,0-1.172,0.529-1.172,1.181c0,0.354-0.062,0.71-0.186,1.061
							c-0.143,0.407-0.501,0.657-0.969,0.668c-0.434-0.012-0.811-0.301-0.934-0.716c-0.223-0.753-0.889-1.259-1.658-1.259
							c-0.961,0-1.743,0.787-1.743,1.754C101.632,94.335,101.185,94.782,100.632,94.782z M103.375,90.028
							c0.797,0,1.543,0.249,2.155,0.685c0.545-0.966,1.579-1.619,2.763-1.619h5.652c0.197-2.006,0.957-3.619,1.67-4.733h-10.059
							c-2.164,0-3.925,1.77-3.925,3.945v2.155C102.152,90.185,102.746,90.028,103.375,90.028z"/>
					</g>
				</g>
			</g>
			<g>
				<g>
					<path class="st5" d="M108.425,115.894c-10.789,0-19.567-8.812-19.567-19.644c0-10.832,8.778-19.645,19.567-19.645
						s19.567,8.812,19.567,19.645C127.992,107.081,119.214,115.894,108.425,115.894z M108.425,78.605
						c-9.687,0-17.567,7.915-17.567,17.645c0,9.729,7.881,17.644,17.567,17.644s17.567-7.915,17.567-17.644
						C125.992,86.521,118.111,78.605,108.425,78.605z"/>
				</g>
			</g>
		</g>
		<g>
			<g>
				<g>
					<path class="st5" d="M108.363,47.288c-10.789,0-19.567-8.812-19.567-19.644c0-7.064,3.816-13.618,9.96-17.104
						c0.309-0.176,0.689-0.174,0.996,0.006c0.308,0.18,0.497,0.509,0.497,0.864v26.423c2.304,1.853,5.167,2.868,8.114,2.868
						c2.946,0,5.81-1.016,8.113-2.868V11.411c0-0.355,0.189-0.685,0.497-0.864c0.307-0.18,0.686-0.182,0.996-0.006
						c6.145,3.485,9.961,10.039,9.961,17.104C127.931,38.476,119.152,47.288,108.363,47.288z M98.249,13.23
						c-4.637,3.287-7.453,8.662-7.453,14.414c0,9.729,7.881,17.644,17.567,17.644s17.567-7.915,17.567-17.644
						c0-5.752-2.816-11.127-7.454-14.414v25.071c0,0.291-0.127,0.567-0.347,0.757c-2.723,2.35-6.191,3.644-9.767,3.644
						c-3.576,0-7.045-1.294-9.768-3.644c-0.22-0.189-0.347-0.466-0.347-0.757V13.23z M117.477,38.302h0.01H117.477z"/>
				</g>
			</g>
			<g>
				<g>
					<path class="st5" d="M99.249,39.302c-0.235,0-0.468-0.083-0.653-0.243c-3.325-2.869-5.232-7.03-5.232-11.414
						c0-4.385,1.907-8.546,5.232-11.415c0.298-0.257,0.716-0.313,1.069-0.152c0.355,0.163,0.584,0.518,0.584,0.909v21.315
						c0,0.392-0.229,0.746-0.584,0.909C99.532,39.271,99.391,39.302,99.249,39.302z M98.249,19.455
						c-1.854,2.305-2.886,5.187-2.886,8.189c0,3.002,1.031,5.884,2.886,8.188V19.455z"/>
				</g>
			</g>
			<g>
				<g>
					<path class="st5" d="M116.639,39.965c-0.307,0-0.609-0.141-0.806-0.406c-0.328-0.444-0.233-1.07,0.211-1.398l0,0
						c0.005-0.004,0.01-0.008,0.016-0.011c0.142-0.105,0.28-0.213,0.417-0.322V16.986c0-0.392,0.229-0.746,0.584-0.909
						c0.354-0.161,0.772-0.104,1.069,0.152c3.325,2.869,5.232,7.03,5.232,11.415c0,4.339-1.906,8.49-5.152,11.337
						c-0.025,0.027-0.052,0.053-0.08,0.077c-0.287,0.248-0.587,0.48-0.893,0.706c-0.002,0.002-0.004,0.003-0.006,0.005l0,0
						C117.053,39.901,116.845,39.965,116.639,39.965z M118.477,19.455v16.387c1.86-2.293,2.886-5.151,2.886-8.197
						C121.362,24.642,120.331,21.76,118.477,19.455z"/>
				</g>
			</g>
			<g>
				<g>
					<g>
						<path class="st5" d="M108.363,42.702c-3.576,0-7.045-1.294-9.768-3.644c-0.22-0.189-0.347-0.466-0.347-0.757V11.006
							c0-1.657,1.345-3.006,2.998-3.006h14.231c1.653,0,2.998,1.349,2.998,3.006v27.296c0,0.291-0.127,0.567-0.347,0.757
							C115.407,41.408,111.938,42.702,108.363,42.702z M100.249,37.834c2.304,1.853,5.167,2.868,8.114,2.868
							c2.946,0,5.81-1.016,8.113-2.868V11.006c0-0.555-0.447-1.006-0.998-1.006h-14.231c-0.551,0-0.998,0.451-0.998,1.006V37.834z
							 M117.477,38.302h0.01H117.477z"/>
					</g>
				</g>
				<g>
					<g>
						<g>
							<g>
								<path class="st5" d="M113.657,33.153h-10.589c-0.553,0-1-0.447-1-1s0.447-1,1-1h10.589c0.553,0,1,0.447,1,1
									S114.21,33.153,113.657,33.153z"/>
							</g>
						</g>
						<g>
							<g>
								<path class="st5" d="M110.559,37.774h-7.49c-0.553,0-1-0.447-1-1s0.447-1,1-1h7.49c0.553,0,1,0.447,1,1
									S111.111,37.774,110.559,37.774z"/>
							</g>
						</g>
					</g>
					<g>
						<g>
							<g>
								<path class="st5" d="M113.657,14.012h-10.589c-0.553,0-1-0.447-1-1s0.447-1,1-1h10.589c0.553,0,1,0.447,1,1
									S114.21,14.012,113.657,14.012z"/>
							</g>
						</g>
						<g>
							<g>
								<path class="st5" d="M110.559,18.633h-7.49c-0.553,0-1-0.447-1-1s0.447-1,1-1h7.49c0.553,0,1,0.447,1,1
									S111.111,18.633,110.559,18.633z"/>
							</g>
						</g>
					</g>
					<g>
						<g>
							<g>
								<path class="st5" d="M113.657,23.583h-10.589c-0.553,0-1-0.447-1-1s0.447-1,1-1h10.589c0.553,0,1,0.447,1,1
									S114.21,23.583,113.657,23.583z"/>
							</g>
						</g>
						<g>
							<g>
								<path class="st5" d="M110.559,28.203h-7.49c-0.553,0-1-0.447-1-1s0.447-1,1-1h7.49c0.553,0,1,0.447,1,1
									S111.111,28.203,110.559,28.203z"/>
							</g>
						</g>
					</g>
				</g>
			</g>
		</g>
		<g>
			<g>
				<g>
					<path class="st5" d="M19.646,120c-10.789,0-19.567-8.812-19.567-19.645c0-10.831,8.778-19.644,19.567-19.644
						c2.168,0,4.307,0.358,6.355,1.065c0.403,0.139,0.674,0.519,0.674,0.945v29.083c1.543-0.956,2.882-2.219,3.932-3.717V86.1
						c0-0.39,0.227-0.743,0.579-0.907c0.354-0.164,0.77-0.108,1.067,0.145c4.423,3.745,6.96,9.219,6.96,15.019
						C39.214,111.188,30.436,120,19.646,120z M19.646,82.712c-9.687,0-17.567,7.915-17.567,17.644
						C2.079,110.085,9.96,118,19.646,118s17.567-7.915,17.567-17.645c0-4.441-1.656-8.671-4.606-11.906v19.949
						c0,0.198-0.059,0.392-0.169,0.556c-1.578,2.361-3.771,4.24-6.342,5.433c-0.308,0.145-0.671,0.119-0.959-0.064
						s-0.462-0.501-0.462-0.843V83.45C23.044,82.96,21.355,82.712,19.646,82.712z M31.607,108.398h0.01H31.607z"/>
				</g>
			</g>
			<g>
				<g>
					<g>
						<path class="st5" d="M19.646,115.81c-8.488,0-15.395-6.933-15.395-15.454c0-8.521,6.906-15.453,15.395-15.453
							c2.245,0,4.416,0.479,6.45,1.422c0.354,0.164,0.579,0.518,0.579,0.907v26.248c0,0.39-0.226,0.743-0.579,0.907
							C24.063,115.331,21.893,115.81,19.646,115.81z M19.646,86.902c-7.386,0-13.395,6.035-13.395,13.453
							c0,7.419,6.009,13.454,13.395,13.454c1.742,0,3.431-0.331,5.029-0.984V87.886C23.076,87.233,21.388,86.902,19.646,86.902z"/>
					</g>
				</g>
				<g>
					<g>
						<path class="st5" d="M31.607,109.398c-0.097,0-0.194-0.014-0.29-0.043c-0.422-0.128-0.71-0.517-0.71-0.957V92.313
							c0-0.44,0.288-0.829,0.71-0.957c0.421-0.129,0.877,0.034,1.122,0.401c1.702,2.549,2.602,5.521,2.602,8.598
							s-0.899,6.05-2.602,8.599C32.25,109.237,31.936,109.398,31.607,109.398z M32.607,96.949v6.813
							c0.287-1.104,0.434-2.247,0.434-3.407S32.895,98.053,32.607,96.949z"/>
					</g>
				</g>
			</g>
			<g>
				<g>
					<path class="st5" d="M25.676,114.479c-0.188,0-0.375-0.053-0.538-0.157c-0.288-0.184-0.462-0.501-0.462-0.843V80.322
						c0-0.553,0.447-1,1-1h5.932c0.553,0,1,0.447,1,1v28.076c0,0.198-0.059,0.392-0.169,0.556c-1.578,2.361-3.771,4.24-6.342,5.433
						C25.963,114.449,25.819,114.479,25.676,114.479z M26.676,81.322v30.483c1.543-0.956,2.882-2.219,3.932-3.717V81.322H26.676z
						 M31.607,108.398h0.01H31.607z"/>
				</g>
			</g>
			<g>
				<g>
					<path class="st5" d="M13.617,114.479c-0.144,0-0.287-0.03-0.421-0.093c-2.57-1.192-4.764-3.071-6.342-5.433
						c-0.11-0.164-0.169-0.357-0.169-0.556v-8.043c0-0.553,0.447-1,1-1h5.932c0.553,0,1,0.447,1,1v13.124
						c0,0.342-0.174,0.659-0.462,0.843C13.992,114.427,13.805,114.479,13.617,114.479z M8.686,108.089
						c1.05,1.498,2.389,2.761,3.932,3.717v-10.45H8.686V108.089z"/>
				</g>
			</g>
			<g>
				<g>
					<path class="st5" d="M19.646,115.81c-1.062,0-2.13-0.111-3.172-0.33c-0.463-0.098-0.794-0.506-0.794-0.979V93.419
						c0-0.553,0.447-1,1-1h5.932c0.553,0,1,0.447,1,1v21.082c0,0.473-0.331,0.881-0.794,0.979
						C21.776,115.698,20.709,115.81,19.646,115.81z M17.681,113.664c1.303,0.193,2.629,0.193,3.932,0V94.419h-3.932V113.664z"/>
				</g>
			</g>
		</g>
		<g>
			<g>
				<g>
					<path class="st5" d="M30.861,35.264c-0.255,0-0.511-0.097-0.706-0.291c-0.391-0.39-0.393-1.023-0.003-1.415l6.925-6.954
						c0.39-0.389,1.023-0.393,1.415-0.003c0.391,0.39,0.393,1.023,0.003,1.415L31.57,34.97
						C31.375,35.165,31.118,35.264,30.861,35.264z"/>
				</g>
			</g>
			<g>
				<g>
					<path class="st5" d="M26.589,35.264c-0.257,0-0.513-0.099-0.709-0.294l-6.343-6.369c-0.39-0.392-0.388-1.025,0.003-1.415
						c0.392-0.391,1.023-0.387,1.415,0.003l6.343,6.369c0.39,0.392,0.388,1.025-0.003,1.415
						C27.1,35.167,26.844,35.264,26.589,35.264z"/>
				</g>
			</g>
			<g>
				<g>
					<path class="st5" d="M3.551,41.369c-0.255,0-0.511-0.097-0.706-0.291c-0.391-0.39-0.393-1.023-0.003-1.415l12.423-12.475
						c0.39-0.389,1.023-0.393,1.415-0.003c0.391,0.39,0.393,1.023,0.003,1.415L4.26,41.075C4.064,41.271,3.808,41.369,3.551,41.369z
						"/>
				</g>
			</g>
			<g>
				<g>
					<path class="st5" d="M19.567,50.569C8.778,50.569,0,41.757,0,30.925S8.778,11.28,19.567,11.28s19.567,8.812,19.567,19.645
						S30.356,50.569,19.567,50.569z M19.567,13.28C9.881,13.28,2,21.195,2,30.925s7.881,17.645,17.567,17.645
						s17.567-7.915,17.567-17.645S29.254,13.28,19.567,13.28z"/>
				</g>
			</g>
			<g>
				<g>
					<path class="st5" d="M18.11,29.783c-1.075,0-2.086-0.42-2.846-1.183c-1.565-1.572-1.565-4.13,0-5.702
						c0.76-0.763,1.771-1.183,2.846-1.183c1.074,0,2.085,0.42,2.845,1.183c1.565,1.572,1.565,4.13,0,5.702
						C20.195,29.363,19.185,29.783,18.11,29.783z M18.11,23.716c-0.54,0-1.047,0.211-1.428,0.595c-0.791,0.793-0.791,2.085,0,2.878
						c0.761,0.767,2.092,0.769,2.854,0c0.791-0.793,0.791-2.085,0-2.878C19.156,23.927,18.649,23.716,18.11,23.716z"/>
				</g>
			</g>
			<g>
				<g>
					<path class="st5" d="M28.726,40.441c-1.075,0-2.085-0.42-2.845-1.182c0,0,0,0-0.001,0c-1.565-1.572-1.565-4.13,0-5.702
						c0.76-0.763,1.771-1.183,2.846-1.183c1.074,0,2.085,0.42,2.845,1.183c1.565,1.572,1.565,4.13,0,5.702
						C30.81,40.021,29.8,40.441,28.726,40.441z M27.298,37.848c0.761,0.765,2.091,0.766,2.855,0c0.79-0.793,0.79-2.085-0.001-2.878
						c-0.762-0.768-2.093-0.767-2.854,0C26.507,35.763,26.507,37.055,27.298,37.848L27.298,37.848z"/>
				</g>
			</g>
		</g>
	</g>
</g>
</svg>
