<?xml version="1.0" encoding="utf-8"?>
<!-- Generator: Adobe Illustrator 22.0.0, SVG Export Plug-In . SVG Version: 6.00 Build 0)  -->
<svg version="1.1" id="MARKET_RESEARCH_ICON_SET" xmlns="http://www.w3.org/2000/svg" xmlns:xlink="http://www.w3.org/1999/xlink"
	 x="0px" y="0px" viewBox="0 0 128 128" style="enable-background:new 0 0 128 128;" xml:space="preserve">
<style type="text/css">
	.st0{fill:#C2D5EC;}
	.st1{fill:#61E1FF;}
	.st2{fill:#7184AF;}
	.st3{fill:#F8F8F8;}
	.st4{fill:#3F4D81;}
	.st5{fill:#3F4D80;}
	.st6{fill:#E9EAEB;}
	.st7{fill:#F79559;}
	.st8{fill:#FFA85A;}
</style>
<g>
	<g>
		<g>
			<circle class="st2" cx="19.589" cy="27.592" r="18.589"/>
		</g>
		<g>
			<circle class="st2" cx="64" cy="27.592" r="18.589"/>
		</g>
		<g>
			<circle class="st2" cx="108.411" cy="27.592" r="18.589"/>
		</g>
		<g>
			<g>
				<path class="st0" d="M123,54.331H5c-2.209,0-4,1.791-4,4v48.7c0,2.209,1.791,4,4,4h24.05v-26.03c0-1.66,1.35-3,3-3
					c0.83,0,1.58,0.33,2.12,0.88c0.55,0.54,0.88,1.29,0.88,2.12v-5c0-1.66,1.35-3,3-3c0.83,0,1.58,0.33,2.12,0.88
					c0.55,0.54,0.88,1.29,0.88,2.12v-3c0-1.66,1.35-3,3-3c0.83,0,1.58,0.33,2.12,0.88c0.55,0.54,0.88,1.29,0.88,2.12v4
					c0-1.66,1.35-3,3-3c0.83,0,1.58,0.33,2.12,0.88c0.55,0.54,0.88,1.29,0.88,2.12v21c0,0,3.147-3.929,3.859-11.087
					c0.156-1.567,1.426-2.877,3.001-2.912c1.743-0.038,3.151,1.346,3.151,3.059v0.07c-0.09,4.56-0.68,13.2-3.55,19.9h13.53
					c-2.86-6.7-3.45-15.34-3.55-19.9c-0.03-1.72,1.36-3.13,3.08-3.13c0.79,0,1.52,0.31,2.07,0.81s0.92,1.2,0.99,1.99
					c0.7,7.23,3.87,11.2,3.87,11.2V81.136c0-1.589,1.177-3.007,2.762-3.127c0.924-0.07,1.767,0.269,2.358,0.871
					c0.54,0.54,0.88,1.29,0.88,2.12v-3.864c0-1.589,1.177-3.007,2.762-3.127c0.924-0.07,1.767,0.269,2.358,0.871
					c0.54,0.54,0.88,1.29,0.88,2.12v3c0-1.66,1.34-3,3-3c0.83,0,1.58,0.33,2.12,0.88c0.54,0.54,0.88,1.29,0.88,2.12v5
					c0-1.66,1.34-3,3-3c0.83,0,1.58,0.33,2.12,0.88c0.54,0.54,0.88,1.29,0.88,2.12v26.03l19.501-0.005
					c2.209-0.001,3.999-1.791,3.999-4V58.331C127,56.122,125.209,54.331,123,54.331z"/>
			</g>
			<g>
				<path class="st3" d="M127,58.331v0.05H6.65c-0.8,0-1.45,0.65-1.45,1.45v51.2H5c-2.21,0-4-1.79-4-4v-48.7c0-2.21,1.79-4,4-4h118
					C125.21,54.331,127,56.121,127,58.331z"/>
			</g>
			<g>
				<path class="st4" d="M123,54.331h-4.123c2.209,0,4,1.791,4,4v48.695c0,2.209-1.79,3.999-3.999,4h4.123
					c2.209-0.001,3.999-1.791,3.999-4V58.331C127,56.122,125.209,54.331,123,54.331z"/>
			</g>
			<g>
				<path class="st3" d="M53.054,122.998c0,0,0-3,0-4c8.593-4.687,9.863-20.968,10.007-27.869c0.036-1.722-1.356-3.131-3.078-3.131
					h0c-1.592,0-2.91,1.219-3.062,2.803c-0.693,7.229-3.867,11.197-3.867,11.197v-21c0-1.657-1.343-3-3-3h0c-1.657,0-3,1.343-3,3v-4
					c0-1.657-1.343-3-3-3h0c-1.657,0-3,1.343-3,3v3c0-1.657-1.343-3-3-3h0c-1.657,0-3,1.343-3,3v5c0-1.657-1.343-3-3-3h0
					c-1.657,0-3,1.343-3,3v38H53.054z"/>
			</g>
			<g>
				<path class="st3" d="M103.5,122.998v-38c0-1.657-1.343-3-3-3h0c-1.657,0-3,1.343-3,3v-5c0-1.657-1.343-3-3-3h0
					c-1.657,0-3,1.343-3,3v-3c0-1.657-1.343-3-3-3h0c-1.657,0-3,1.343-3,3v4c0-1.657-1.343-3-3-3h0c-1.657,0-3,1.343-3,3v21
					c0,0-3.174-3.968-3.867-11.197c-0.152-1.584-1.47-2.803-3.062-2.803h0c-1.723,0-3.114,1.408-3.078,3.131
					c0.144,6.901,1.415,23.182,10.007,27.869c0,1,0,4,0,4H103.5z"/>
			</g>
		</g>
		<g>
			<g>
				<path class="st1" d="M117.535,7.406v26.812c-2.453,2.108-5.636,3.39-9.124,3.39c-3.488,0-6.672-1.282-9.124-3.39V7.406
					c-5.646,3.19-9.465,9.238-9.465,16.186c0,10.267,8.323,18.589,18.589,18.589c10.267,0,18.589-8.323,18.589-18.589
					C127,16.644,123.181,10.596,117.535,7.406z"/>
			</g>
			<g>
				<path class="st2" d="M99.286,12.966c-2.991,2.571-4.892,6.373-4.892,10.626s1.901,8.056,4.892,10.626V12.966z"/>
			</g>
			<g>
				<path class="st2" d="M117.535,12.966v21.252c-0.27,0.232-0.552,0.45-0.839,0.661c3.47-2.551,5.731-6.65,5.731-11.287
					C122.427,19.339,120.526,15.536,117.535,12.966z"/>
			</g>
			<g>
				<path class="st6" d="M115.535,5.002h-14.249c-1.105,0-2,0.895-2,2v27.216c2.453,2.108,5.636,3.39,9.124,3.39
					c3.488,0,6.671-1.282,9.124-3.39V7.002C117.535,5.898,116.64,5.002,115.535,5.002z"/>
			</g>
		</g>
		<g>
			<g>
				<circle class="st1" cx="19.589" cy="23.592" r="18.589"/>
			</g>
			<g>
				<path class="st6" d="M26.502,27.714l6.836-6.836c-1.264-6.442-6.936-11.303-13.749-11.303c-7.741,0-14.016,6.275-14.016,14.016
					c0,2.589,0.714,5.006,1.938,7.087l10.978-10.978L26.502,27.714z"/>
			</g>
			<g>
				<path class="st2" d="M26.502,27.714l-8.013-8.013L7.511,30.679c2.436,4.141,6.926,6.929,12.078,6.929
					c7.741,0,14.016-6.275,14.016-14.016c0-0.929-0.095-1.835-0.268-2.713L26.502,27.714z"/>
			</g>
			<g>
				<circle class="st8" cx="18.489" cy="19.701" r="2.28"/>
			</g>
			<g>
				<circle class="st8" cx="26.502" cy="27.714" r="2.28"/>
			</g>
		</g>
		<g>
			<g>
				<circle class="st6" cx="64" cy="23.592" r="18.589"/>
			</g>
			<g>
				<g>
					<path class="st3" d="M63.869,17.454c-1.201,0-2.174,0.973-2.174,2.174c0,0.253-0.048,0.497-0.129,0.726
						c-0.337-1.135-1.376-1.969-2.621-1.969c-1.424,0-2.581,1.088-2.719,2.477V21.4c0.02,0.587,0.092,1.16,0.245,1.702l0.003,0
						c0.015,0.053,0.028,0.107,0.044,0.159c0.937,3.04,1.562,6.168,1.562,9.35l4.887,4.887l0.505-5.422v-1.961
						c0.903,0.468,1.964,0.674,3.086,0.497c2.441-0.385,4.187-2.581,4.187-5.052v-4.429v-2.035c0-0.574-0.096-1.125-0.266-1.642
						H63.869z"/>
				</g>
				<g>
					<path class="st8" d="M64,42.181c3.003,0,5.831-0.729,8.342-1.994c-2.166-5.154-6.669-5.972-6.669-5.972l-2.2-2.139
						l-0.505,5.422l-4.887-4.887l-1.798,1.538l0,0c0,0-2.683,1.028-4.704,3.243C54.872,40.36,59.218,42.181,64,42.181z"/>
				</g>
				<g>
					<path class="st5" d="M73.266,10.741H61.129c-2.723,0-4.93,2.207-4.93,4.93v5.46c0-1.516,1.229-2.746,2.746-2.746
						c1.245,0,2.284,0.833,2.621,1.969c0.082-0.23,0.129-0.473,0.129-0.726c0-1.201,0.973-2.174,2.174-2.174h6.611
						C70.479,13.333,73.266,10.741,73.266,10.741z"/>
				</g>
			</g>
		</g>
	</g>
	<g>
		<g>
			<g>
				<g>
					<path class="st4" d="M103.5,112.031c-0.266,0-0.52-0.105-0.708-0.293s-0.293-0.442-0.293-0.707v-26.03
						c0-0.533-0.208-1.035-0.587-1.413c-0.374-0.381-0.874-0.587-1.413-0.587c-1.103,0-2,0.897-2,2c0,0.552-0.448,1-1,1
						s-1-0.448-1-1v-5c0-0.533-0.208-1.035-0.587-1.413c-0.374-0.381-0.874-0.587-1.413-0.587c-1.103,0-2,0.897-2,2
						c0,0.552-0.448,1-1,1s-1-0.448-1-1v-3c0-0.533-0.208-1.035-0.587-1.413c-0.415-0.422-0.978-0.622-1.577-0.581
						c-1.029,0.078-1.836,1.013-1.836,2.13v3.864c0,0.552-0.448,1-1,1s-1-0.448-1-1c0-0.533-0.208-1.035-0.587-1.413
						c-0.415-0.423-0.978-0.625-1.577-0.581c-1.029,0.078-1.836,1.013-1.836,2.13v20.864c0,0.425-0.269,0.803-0.669,0.944
						c-0.399,0.142-0.846,0.013-1.112-0.32c-0.137-0.172-3.364-4.288-4.084-11.728c-0.046-0.521-0.283-0.997-0.667-1.346
						c-0.82-0.744-2.128-0.692-2.882,0.073c-0.394,0.4-0.605,0.93-0.595,1.49c0.098,4.483,0.68,12.989,3.47,19.524
						c0.132,0.309,0.1,0.664-0.085,0.944s-0.499,0.449-0.834,0.449H59.51c-0.336,0-0.65-0.169-0.835-0.449
						c-0.185-0.281-0.217-0.636-0.084-0.944c2.812-6.565,3.381-15.052,3.47-19.526c0-0.607-0.219-1.128-0.617-1.518
						c-0.402-0.394-0.917-0.58-1.511-0.591c-1.027,0.022-1.917,0.906-2.027,2.011c-0.733,7.369-3.938,11.444-4.074,11.613
						c-0.266,0.331-0.712,0.458-1.111,0.318c-0.401-0.141-0.669-0.519-0.669-0.943v-21c0-0.54-0.206-1.039-0.581-1.407
						c-0.38-0.387-0.88-0.593-1.419-0.593c-1.103,0-2,0.897-2,2c0,0.552-0.448,1-1,1s-1-0.448-1-1v-4
						c0-0.54-0.206-1.039-0.581-1.407c-0.38-0.387-0.88-0.593-1.419-0.593c-1.103,0-2,0.897-2,2v3c0,0.552-0.448,1-1,1s-1-0.448-1-1
						c0-0.54-0.206-1.039-0.581-1.407c-0.38-0.387-0.88-0.593-1.419-0.593c-1.103,0-2,0.897-2,2v5c0,0.552-0.448,1-1,1s-1-0.448-1-1
						c0-0.54-0.206-1.039-0.581-1.407c-0.38-0.387-0.88-0.593-1.419-0.593c-1.103,0-2,0.897-2,2v26.03c0,0.552-0.448,1-1,1H5
						c-2.757,0-5-2.243-5-5v-48.7c0-2.757,2.243-5,5-5h118c2.757,0,5,2.243,5,5v48.695c0,2.756-2.243,5-4.999,5L103.5,112.031z
						 M60.985,110.031h10.581c-2.446-6.605-2.981-14.554-3.077-18.878c-0.019-1.105,0.396-2.145,1.169-2.931
						c0.774-0.788,1.808-1.221,2.911-1.221c1.009,0,1.983,0.38,2.743,1.07c0.757,0.689,1.224,1.627,1.313,2.642
						c0.304,3.142,1.102,5.649,1.874,7.441V81.137c0-2.157,1.619-3.968,3.687-4.124c0.817-0.062,1.625,0.125,2.313,0.522v-0.398
						c0-2.157,1.619-3.968,3.687-4.124c1.182-0.09,2.331,0.336,3.147,1.167c0.644,0.644,1.042,1.475,1.142,2.372
						c0.594-0.35,1.287-0.551,2.025-0.551c1.081,0,2.086,0.419,2.833,1.179c0.75,0.75,1.167,1.754,1.167,2.821v1.537
						c0.589-0.341,1.272-0.537,2-0.537c1.081,0,2.086,0.419,2.833,1.179c0.75,0.75,1.167,1.754,1.167,2.821v25.029l18.5-0.004
						c1.654,0,3-1.346,3-3V58.331c0-1.654-1.346-3-3-3H5c-1.654,0-3,1.346-3,3v48.7c0,1.654,1.346,3,3,3h23.05v-25.03
						c0-2.206,1.794-4,4-4c0.717,0,1.402,0.185,2,0.531v-1.531c0-2.206,1.794-4,4-4c0.728,0,1.422,0.19,2.025,0.546
						c0.226-1.993,1.922-3.546,3.975-3.546c1.081,0,2.086,0.419,2.833,1.179c0.748,0.734,1.167,1.74,1.167,2.821v0.537
						c0.589-0.341,1.272-0.537,2-0.537c1.081,0,2.086,0.419,2.833,1.179c0.748,0.734,1.167,1.74,1.167,2.821v17.162
						c0.766-1.773,1.556-4.248,1.864-7.349c0.211-2.129,1.92-3.768,3.974-3.812c1.098-0.013,2.162,0.388,2.953,1.161
						c0.786,0.769,1.219,1.798,1.219,2.898C63.975,95.458,63.452,103.399,60.985,110.031z"/>
				</g>
			</g>
			<g>
				<g>
					<path class="st4" d="M123.001,112.026h-4.123c-0.552,0-1-0.448-1-1s0.448-1,1-1c1.654,0,2.999-1.346,2.999-3V58.331
						c0-1.654-1.346-3-3-3c-0.552,0-1-0.448-1-1s0.448-1,1-1H123c2.757,0,5,2.243,5,5v48.695
						C128,109.782,125.757,112.025,123.001,112.026z M122.875,110.026h0.126c1.654,0,2.999-1.346,2.999-3V58.331
						c0-1.654-1.346-3-3-3h-0.125c0.629,0.836,1.002,1.875,1.002,3v48.695C123.877,108.15,123.504,109.189,122.875,110.026z"/>
				</g>
			</g>
			<g>
				<g>
					<path class="st4" d="M20.455,73.998h-8c-1.654,0-3-1.346-3-3v-8c0-0.552,0.448-1,1-1s1,0.448,1,1v8c0,0.551,0.449,1,1,1h8
						c0.552,0,1,0.448,1,1S21.007,73.998,20.455,73.998z"/>
				</g>
			</g>
			<g>
				<g>
					<path class="st4" d="M39.055,73.998h-8c-1.654,0-3-1.346-3-3v-8c0-0.552,0.448-1,1-1s1,0.448,1,1v8c0,0.551,0.449,1,1,1h8
						c0.552,0,1,0.448,1,1S39.607,73.998,39.055,73.998z"/>
				</g>
			</g>
			<g>
				<g>
					<path class="st4" d="M57.655,73.998h-8c-1.654,0-3-1.346-3-3v-8c0-0.552,0.448-1,1-1s1,0.448,1,1v8c0,0.551,0.449,1,1,1h8
						c0.552,0,1,0.448,1,1S58.207,73.998,57.655,73.998z"/>
				</g>
			</g>
			<g>
				<g>
					<path class="st4" d="M76.254,73.998h-8c-1.654,0-3-1.346-3-3v-8c0-0.552,0.448-1,1-1s1,0.448,1,1v8c0,0.551,0.449,1,1,1h8
						c0.552,0,1,0.448,1,1S76.807,73.998,76.254,73.998z"/>
				</g>
			</g>
			<g>
				<g>
					<path class="st4" d="M94.854,73.998h-8c-1.654,0-3-1.346-3-3v-8c0-0.552,0.448-1,1-1s1,0.448,1,1v8c0,0.551,0.449,1,1,1h8
						c0.552,0,1,0.448,1,1S95.407,73.998,94.854,73.998z"/>
				</g>
			</g>
			<g>
				<g>
					<path class="st4" d="M113.455,73.998h-8c-1.654,0-3-1.346-3-3v-8c0-0.552,0.448-1,1-1s1,0.448,1,1v8c0,0.551,0.449,1,1,1h8
						c0.552,0,1,0.448,1,1S114.007,73.998,113.455,73.998z"/>
				</g>
			</g>
			<g>
				<g>
					<path class="st4" d="M20.455,88.998h-8c-1.654,0-3-1.346-3-3v-8c0-0.552,0.448-1,1-1s1,0.448,1,1v8c0,0.551,0.449,1,1,1h8
						c0.552,0,1,0.448,1,1S21.007,88.998,20.455,88.998z"/>
				</g>
			</g>
			<g>
				<g>
					<path class="st4" d="M29.055,86.952c-0.552,0-1-0.448-1-1v-7.955c0-0.552,0.448-1,1-1s1,0.448,1,1v7.955
						C30.055,86.504,29.607,86.952,29.055,86.952z"/>
				</g>
			</g>
			<g>
				<g>
					<path class="st4" d="M53.047,89.013c-0.551,0-0.999-0.446-1-0.998c-0.001-0.552,0.445-1.001,0.998-1.002l6.984-0.016
						c0.001,0,0.002,0,0.002,0c0.552,0,0.999,0.446,1,0.998c0.001,0.552-0.445,1.001-0.998,1.002l-6.984,0.016
						C53.048,89.013,53.047,89.013,53.047,89.013z"/>
				</g>
			</g>
			<g>
				<g>
					<path class="st4" d="M76.254,88.998h-8c-1.654,0-3-1.346-3-3v-8c0-0.552,0.448-1,1-1s1,0.448,1,1v8c0,0.551,0.449,1,1,1h8
						c0.552,0,1,0.448,1,1S76.807,88.998,76.254,88.998z"/>
				</g>
			</g>
			<g>
				<g>
					<path class="st4" d="M20.455,103.998h-8c-1.654,0-3-1.346-3-3v-8c0-0.552,0.448-1,1-1s1,0.448,1,1v8c0,0.551,0.449,1,1,1h8
						c0.552,0,1,0.448,1,1S21.007,103.998,20.455,103.998z"/>
				</g>
			</g>
			<g>
				<g>
					<path class="st4" d="M70.682,103.998h-2.428c-1.654,0-3-1.346-3-3v-8c0-0.552,0.448-1,1-1s1,0.448,1,1v8c0,0.551,0.449,1,1,1
						h2.428c0.552,0,1,0.448,1,1S71.234,103.998,70.682,103.998z"/>
				</g>
			</g>
			<g>
				<g>
					<path class="st4" d="M53.054,123.998c-0.552,0-1-0.448-1-1v-4c0-0.366,0.2-0.703,0.521-0.878
						c8.145-4.443,9.348-20.371,9.487-27.012c0.012-0.558-0.197-1.085-0.588-1.485c-0.395-0.403-0.924-0.625-1.49-0.625
						c-1.074,0-1.962,0.816-2.066,1.898c-0.714,7.44-3.945,11.555-4.083,11.726c-0.266,0.332-0.713,0.457-1.112,0.319
						c-0.401-0.141-0.669-0.519-0.669-0.944v-21c0-1.103-0.897-2-2-2s-2,0.897-2,2v18c0,0.552-0.448,1-1,1s-1-0.448-1-1v-22
						c0-1.103-0.897-2-2-2s-2,0.897-2,2v21c0,0.552-0.448,1-1,1s-1-0.448-1-1v-18c0-1.103-0.897-2-2-2s-2,0.897-2,2v18
						c0,0.552-0.448,1-1,1s-1-0.448-1-1v-13c0-1.103-0.897-2-2-2s-2,0.897-2,2v38c0,0.552-0.448,1-1,1s-1-0.448-1-1v-38
						c0-2.206,1.794-4,4-4c0.728,0,1.411,0.195,2,0.537v-1.537c0-2.206,1.794-4,4-4c0.738,0,1.431,0.201,2.025,0.551
						c0.224-1.995,1.921-3.551,3.975-3.551c2.206,0,4,1.794,4,4v0.537c0.589-0.341,1.272-0.537,2-0.537c2.206,0,4,1.794,4,4v17.157
						c0.773-1.792,1.57-4.301,1.872-7.449c0.203-2.113,1.947-3.708,4.057-3.708c1.108,0,2.145,0.435,2.919,1.226
						c0.771,0.787,1.182,1.826,1.16,2.926c-0.144,6.854-1.414,23.132-10.008,28.424v3.424
						C54.054,123.55,53.606,123.998,53.054,123.998z"/>
				</g>
			</g>
			<g>
				<g>
					<path class="st4" d="M103.5,123.998c-0.552,0-1-0.448-1-1v-38c0-1.103-0.897-2-2-2s-2,0.897-2,2v13c0,0.552-0.448,1-1,1
						s-1-0.448-1-1v-18c0-1.103-0.897-2-2-2s-2,0.897-2,2v18c0,0.552-0.448,1-1,1s-1-0.448-1-1v-21c0-1.103-0.897-2-2-2
						s-2,0.897-2,2v22c0,0.552-0.448,1-1,1s-1-0.448-1-1v-18c0-1.103-0.897-2-2-2s-2,0.897-2,2v21c0,0.425-0.268,0.803-0.669,0.944
						c-0.4,0.138-0.847,0.013-1.112-0.319c-0.137-0.171-3.369-4.286-4.082-11.726c-0.104-1.082-0.992-1.898-2.066-1.898
						c-0.566,0-1.095,0.222-1.49,0.625c-0.391,0.399-0.6,0.926-0.588,1.484c0.139,6.642,1.342,22.57,9.486,27.012
						c0.321,0.175,0.521,0.512,0.521,0.878v4c0,0.552-0.448,1-1,1s-1-0.448-1-1v-3.424c-8.593-5.292-9.864-21.57-10.007-28.424
						c-0.023-1.1,0.389-2.139,1.159-2.926c0.774-0.791,1.811-1.226,2.919-1.226c2.11,0,3.854,1.594,4.058,3.708
						c0.303,3.167,1.1,5.676,1.872,7.463V80.998c0-2.206,1.794-4,4-4c0.728,0,1.411,0.195,2,0.537v-0.537c0-2.206,1.794-4,4-4
						c2.054,0,3.751,1.556,3.975,3.551c0.594-0.35,1.287-0.551,2.025-0.551c2.206,0,4,1.794,4,4v1.537
						c0.589-0.341,1.272-0.537,2-0.537c2.206,0,4,1.794,4,4v38C104.5,123.55,104.052,123.998,103.5,123.998z"/>
				</g>
			</g>
			<g>
				<g>
					<path class="st4" d="M113.455,88.998H105.5c-1.682,0-3-1.318-3-3c0-0.552,0.448-1,1-1s1,0.448,1,1c0,0.58,0.42,1,1,1h7.955
						c0.552,0,1,0.448,1,1S114.007,88.998,113.455,88.998z"/>
				</g>
			</g>
			<g>
				<g>
					<path class="st4" d="M113.455,103.998H105.5c-1.682,0-3-1.318-3-3c0-0.552,0.448-1,1-1s1,0.448,1,1c0,0.58,0.42,1,1,1h7.955
						c0.552,0,1,0.448,1,1S114.007,103.998,113.455,103.998z"/>
				</g>
			</g>
		</g>
		<g>
			<g>
				<g>
					<g>
						<path class="st5" d="M62.967,38.499c-0.261,0-0.516-0.102-0.707-0.293l-4.887-4.887c-0.188-0.188-0.293-0.442-0.293-0.707
							c0-2.781-0.497-5.744-1.518-9.056l-0.034-0.12c-0.007-0.02-0.014-0.041-0.02-0.062c-0.166-0.586-0.258-1.221-0.283-1.94
							l0-0.572c0.195-2.024,1.792-3.477,3.719-3.477c0.799,0,1.546,0.249,2.159,0.685c0.545-0.964,1.581-1.616,2.765-1.616h6.611
							c0.432,0,0.814,0.277,0.95,0.687c0.21,0.637,0.316,1.294,0.316,1.956v6.464c0,2.991-2.163,5.587-5.031,6.04
							c-0.757,0.119-1.514,0.096-2.242-0.065v0.542l-0.51,5.515c-0.036,0.386-0.292,0.716-0.656,0.848
							C63.195,38.479,63.081,38.499,62.967,38.499z M59.077,32.194l3.092,3.092l0.308-3.302l-0.004-1.869
							c0-0.349,0.182-0.673,0.48-0.854c0.299-0.181,0.669-0.195,0.979-0.033c0.761,0.395,1.614,0.532,2.471,0.396
							c1.906-0.3,3.343-2.047,3.343-4.064v-6.464c0-0.215-0.017-0.429-0.05-0.642h-5.827c-0.647,0-1.174,0.526-1.174,1.174
							c0,0.355-0.063,0.712-0.187,1.062c-0.146,0.408-0.54,0.688-0.969,0.665c-0.433-0.011-0.809-0.3-0.932-0.715
							c-0.223-0.75-0.891-1.253-1.662-1.253c-0.894,0-1.635,0.677-1.724,1.575l0.005,0.44c0.018,0.497,0.08,0.955,0.191,1.369
							c0.007,0.02,0.013,0.039,0.019,0.06l-0.002,0.001c0,0,0,0,0,0.001l-0.006,0.001l0.046,0.135
							C58.504,26.309,59.03,29.333,59.077,32.194z"/>
					</g>
				</g>
				<g>
					<g>
						<path class="st5" d="M63.471,31.115c-0.164,0-0.331-0.04-0.484-0.125c-0.857-0.476-1.597-1.173-2.139-2.018
							c-0.298-0.465-0.164-1.083,0.301-1.381c0.464-0.299,1.083-0.164,1.381,0.301c0.364,0.566,0.857,1.033,1.427,1.349
							c0.483,0.268,0.657,0.877,0.389,1.36C64.164,30.93,63.823,31.115,63.471,31.115z"/>
					</g>
				</g>
				<g>
					<g>
						<path class="st5" d="M64,43.181c-4.83,0-9.479-1.792-13.091-5.045c-0.198-0.178-0.316-0.428-0.33-0.694
							c-0.013-0.266,0.081-0.526,0.26-0.723c1.881-2.062,4.261-3.158,4.916-3.434l1.675-1.434c0.397-0.339,0.988-0.317,1.357,0.053
							l3.381,3.382l0.308-3.302c0.036-0.383,0.288-0.712,0.649-0.846s0.767-0.047,1.043,0.221l2.001,1.946
							c1.151,0.302,5.062,1.659,7.093,6.495c0.204,0.484-0.002,1.044-0.472,1.28C70.024,42.475,67.066,43.181,64,43.181z
							 M53.057,37.337c3.114,2.486,6.96,3.844,10.943,3.844c2.429,0,4.783-0.495,7.011-1.472c-2.005-3.794-5.37-4.482-5.522-4.511
							c-0.191-0.037-0.374-0.13-0.513-0.266l-0.702-0.682l-0.312,3.341c-0.036,0.386-0.292,0.716-0.656,0.848
							s-0.772,0.041-1.046-0.233l-4.232-4.233l-1.095,0.937c-0.086,0.074-0.186,0.133-0.291,0.173
							C56.62,35.091,54.747,35.828,53.057,37.337z"/>
					</g>
				</g>
				<g>
					<g>
						<path class="st5" d="M56.199,22.131c-0.552,0-1-0.448-1-1v-5.46c0-3.27,2.66-5.93,5.93-5.93h12.137
							c0.411,0,0.78,0.251,0.931,0.634c0.15,0.381,0.052,0.815-0.247,1.096l0,0c-0.024,0.023-2.47,2.373-2.47,5.983
							c0,0.552-0.448,1-1,1h-6.611c-0.647,0-1.174,0.526-1.174,1.174c0,0.355-0.063,0.712-0.187,1.062
							c-0.146,0.408-0.54,0.688-0.969,0.665c-0.433-0.011-0.809-0.3-0.932-0.715c-0.223-0.75-0.891-1.253-1.662-1.253
							c-0.962,0-1.746,0.783-1.746,1.746C57.199,21.684,56.751,22.131,56.199,22.131z M58.944,17.386
							c0.799,0,1.546,0.249,2.159,0.685c0.545-0.964,1.581-1.616,2.765-1.616h5.66c0.198-1.997,0.956-3.603,1.668-4.713H61.129
							c-2.167,0-3.93,1.763-3.93,3.93v2.147C57.72,17.542,58.314,17.386,58.944,17.386z"/>
					</g>
				</g>
			</g>
			<g>
				<g>
					<path class="st5" d="M64,43.181c-10.802,0-19.589-8.788-19.589-19.589S53.198,4.002,64,4.002s19.589,8.788,19.589,19.589
						S74.802,43.181,64,43.181z M64,6.002c-9.699,0-17.589,7.891-17.589,17.589S54.301,41.181,64,41.181s17.589-7.891,17.589-17.589
						S73.699,6.002,64,6.002z"/>
				</g>
			</g>
		</g>
		<g>
			<g>
				<g>
					<path class="st5" d="M19.589,43.181C8.788,43.181,0,34.394,0,23.592S8.788,4.002,19.589,4.002s19.589,8.788,19.589,19.589
						S30.391,43.181,19.589,43.181z M19.589,6.002C9.891,6.002,2,13.893,2,23.592s7.891,17.589,17.589,17.589
						s17.589-7.891,17.589-17.589S29.288,6.002,19.589,6.002z"/>
				</g>
			</g>
			<g>
				<g>
					<g>
						<path class="st5" d="M28.115,27.102c-0.256,0-0.512-0.098-0.707-0.293c-0.391-0.391-0.391-1.023,0-1.414l5.228-5.228
							c0.391-0.391,1.023-0.391,1.414,0s0.391,1.023,0,1.414l-5.228,5.228C28.626,27.004,28.371,27.102,28.115,27.102z"/>
					</g>
				</g>
				<g>
					<g>
						<path class="st5" d="M24.89,27.102c-0.256,0-0.512-0.098-0.707-0.293l-4.789-4.789c-0.391-0.391-0.391-1.023,0-1.414
							s1.023-0.391,1.414,0l4.789,4.789c0.391,0.391,0.391,1.023,0,1.414C25.402,27.004,25.146,27.102,24.89,27.102z"/>
					</g>
				</g>
				<g>
					<g>
						<path class="st5" d="M7.499,31.692c-0.256,0-0.512-0.098-0.707-0.293c-0.391-0.391-0.391-1.023,0-1.414l9.378-9.378
							c0.391-0.391,1.023-0.391,1.414,0s0.391,1.023,0,1.414l-9.378,9.378C8.01,31.594,7.754,31.692,7.499,31.692z"/>
					</g>
				</g>
				<g>
					<g>
						<path class="st5" d="M19.589,38.608c-8.28,0-15.016-6.736-15.016-15.017c0-8.28,6.736-15.016,15.016-15.016
							c8.28,0,15.017,6.736,15.017,15.016C34.606,31.872,27.87,38.608,19.589,38.608z M19.589,10.576
							c-7.177,0-13.016,5.839-13.016,13.016s5.839,13.017,13.016,13.017s13.017-5.839,13.017-13.017S26.767,10.576,19.589,10.576z"
							/>
					</g>
				</g>
				<g>
					<g>
						<path class="st5" d="M18.489,22.981c-0.876,0-1.7-0.341-2.319-0.96l0,0v0c0,0,0,0,0,0c-0.619-0.62-0.96-1.443-0.96-2.319
							c0-0.876,0.341-1.7,0.961-2.319c1.238-1.239,3.399-1.24,4.639,0c0.62,0.62,0.961,1.443,0.961,2.319
							c0,0.876-0.341,1.7-0.961,2.32C20.189,22.64,19.365,22.981,18.489,22.981z M18.489,18.421c-0.342,0-0.664,0.133-0.905,0.375
							c-0.242,0.242-0.375,0.563-0.375,0.905c0,0.342,0.133,0.664,0.375,0.905l0,0c0.482,0.484,1.326,0.484,1.81,0
							c0.242-0.242,0.375-0.563,0.375-0.905c0-0.342-0.133-0.663-0.375-0.905C19.152,18.554,18.831,18.421,18.489,18.421z"/>
					</g>
				</g>
				<g>
					<g>
						<path class="st5" d="M26.502,30.995c-0.876,0-1.7-0.341-2.319-0.96l0,0v0h0c-0.619-0.62-0.96-1.443-0.96-2.319
							c0-0.876,0.341-1.7,0.961-2.319c1.238-1.239,3.399-1.24,4.639,0c0.62,0.62,0.961,1.443,0.961,2.319
							c0,0.876-0.341,1.7-0.961,2.32C28.202,30.653,27.378,30.995,26.502,30.995z M26.502,26.434c-0.342,0-0.664,0.133-0.905,0.375
							c-0.242,0.242-0.375,0.563-0.375,0.905c0,0.342,0.133,0.664,0.375,0.905c0,0,0,0,0,0c0.482,0.483,1.326,0.484,1.81,0
							c0.242-0.242,0.375-0.563,0.375-0.905c0-0.342-0.133-0.663-0.375-0.905C27.166,26.567,26.844,26.434,26.502,26.434z"/>
					</g>
				</g>
			</g>
		</g>
		<g>
			<path class="st5" d="M45.411,24.592h-7.232c-0.552,0-1-0.448-1-1s0.448-1,1-1h7.232c0.552,0,1,0.448,1,1
				S45.963,24.592,45.411,24.592z"/>
		</g>
		<g>
			<path class="st5" d="M89.821,24.592h-7.232c-0.552,0-1-0.448-1-1s0.448-1,1-1h7.232c0.552,0,1,0.448,1,1
				S90.374,24.592,89.821,24.592z"/>
		</g>
		<g>
			<g>
				<g>
					<path class="st5" d="M108.411,43.181c-10.802,0-19.589-8.788-19.589-19.589c0-7.045,3.821-13.581,9.973-17.056
						c0.31-0.175,0.689-0.172,0.996,0.007c0.307,0.179,0.496,0.508,0.496,0.864v26.342c2.307,1.848,5.174,2.86,8.125,2.86
						s5.818-1.012,8.125-2.86V7.406c0-0.355,0.189-0.685,0.496-0.864s0.686-0.182,0.996-0.007C124.179,10.012,128,16.547,128,23.592
						C128,34.394,119.212,43.181,108.411,43.181z M98.286,9.221c-4.644,3.277-7.465,8.636-7.465,14.371
						c0,9.699,7.891,17.589,17.589,17.589S126,33.291,126,23.592c0-5.734-2.821-11.093-7.465-14.37v24.996
						c0,0.292-0.127,0.568-0.348,0.758c-2.725,2.342-6.197,3.632-9.776,3.632s-7.051-1.29-9.776-3.632
						c-0.221-0.19-0.348-0.467-0.348-0.758V9.221z M117.535,34.218h0.01H117.535z"/>
				</g>
			</g>
			<g>
				<g>
					<path class="st5" d="M99.286,35.218c-0.234,0-0.467-0.083-0.652-0.242c-3.33-2.862-5.24-7.012-5.24-11.384
						s1.91-8.522,5.24-11.384c0.297-0.255,0.714-0.313,1.069-0.15s0.583,0.518,0.583,0.909v21.252c0,0.391-0.228,0.746-0.583,0.909
						C99.57,35.188,99.428,35.218,99.286,35.218z M98.286,15.426c-1.858,2.299-2.892,5.172-2.892,8.166s1.034,5.867,2.892,8.166
						V15.426z"/>
				</g>
			</g>
			<g>
				<g>
					<path class="st5" d="M116.696,35.879c-0.307,0-0.61-0.141-0.807-0.407c-0.327-0.445-0.232-1.071,0.213-1.398
						c0.013-0.01,0.027-0.02,0.04-0.03c0.133-0.099,0.264-0.199,0.393-0.302V12.966c0-0.391,0.228-0.746,0.583-0.909
						c0.356-0.163,0.773-0.104,1.069,0.15c3.33,2.862,5.24,7.011,5.24,11.384c0,4.329-1.909,8.47-5.162,11.31
						c-0.024,0.026-0.05,0.051-0.078,0.074c-0.276,0.237-0.563,0.46-0.856,0.677c-0.015,0.011-0.029,0.021-0.044,0.032
						C117.109,35.816,116.902,35.879,116.696,35.879z M118.535,15.426v16.339c1.864-2.286,2.892-5.136,2.892-8.174
						C121.427,20.598,120.393,17.724,118.535,15.426z"/>
				</g>
			</g>
			<g>
				<g>
					<g>
						<path class="st5" d="M108.411,38.608c-3.579,0-7.051-1.29-9.776-3.632c-0.221-0.19-0.348-0.467-0.348-0.758V7.002
							c0-1.654,1.346-3,3-3h14.249c1.654,0,3,1.346,3,3v27.215c0,0.292-0.127,0.568-0.348,0.758
							C115.462,37.318,111.99,38.608,108.411,38.608z M100.286,33.749c2.307,1.848,5.174,2.86,8.125,2.86s5.818-1.012,8.125-2.86
							V7.002c0-0.551-0.449-1-1-1h-14.249c-0.551,0-1,0.449-1,1V33.749z M117.535,34.218h0.01H117.535z"/>
					</g>
				</g>
				<g>
					<g>
						<g>
							<g>
								<path class="st5" d="M113.711,29.088H103.11c-0.552,0-1-0.448-1-1s0.448-1,1-1h10.601c0.552,0,1,0.448,1,1
									S114.263,29.088,113.711,29.088z"/>
							</g>
						</g>
						<g>
							<g>
								<path class="st5" d="M110.609,33.695h-7.5c-0.552,0-1-0.448-1-1s0.448-1,1-1h7.5c0.552,0,1,0.448,1,1
									S111.162,33.695,110.609,33.695z"/>
							</g>
						</g>
					</g>
					<g>
						<g>
							<g>
								<path class="st5" d="M113.711,10.002H103.11c-0.552,0-1-0.448-1-1s0.448-1,1-1h10.601c0.552,0,1,0.448,1,1
									S114.263,10.002,113.711,10.002z"/>
							</g>
						</g>
						<g>
							<g>
								<path class="st5" d="M110.609,14.61h-7.5c-0.552,0-1-0.448-1-1s0.448-1,1-1h7.5c0.552,0,1,0.448,1,1
									S111.162,14.61,110.609,14.61z"/>
							</g>
						</g>
					</g>
					<g>
						<g>
							<g>
								<path class="st5" d="M113.711,19.545H103.11c-0.552,0-1-0.448-1-1s0.448-1,1-1h10.601c0.552,0,1,0.448,1,1
									S114.263,19.545,113.711,19.545z"/>
							</g>
						</g>
						<g>
							<g>
								<path class="st5" d="M110.609,24.152h-7.5c-0.552,0-1-0.448-1-1s0.448-1,1-1h7.5c0.552,0,1,0.448,1,1
									S111.162,24.152,110.609,24.152z"/>
							</g>
						</g>
					</g>
				</g>
			</g>
		</g>
		<g>
			<path class="st5" d="M108.411,55.331c-0.552,0-1-0.448-1-1v-0.15c0-0.552,0.448-1,1-1s1,0.448,1,1v0.15
				C109.411,54.883,108.963,55.331,108.411,55.331z M108.411,51.181c-0.552,0-1-0.448-1-1v-2c0-0.552,0.448-1,1-1s1,0.448,1,1v2
				C109.411,50.733,108.963,51.181,108.411,51.181z M108.411,45.181c-0.552,0-1-0.448-1-1v-2c0-0.552,0.448-1,1-1s1,0.448,1,1v2
				C109.411,44.733,108.963,45.181,108.411,45.181z"/>
		</g>
	</g>
</g>
</svg>
