<?xml version="1.0" encoding="utf-8"?>
<!-- Generator: Adobe Illustrator 22.0.0, SVG Export Plug-In . SVG Version: 6.00 Build 0)  -->
<svg version="1.1" id="MARKET_RESEARCH_ICON_SET" xmlns="http://www.w3.org/2000/svg" xmlns:xlink="http://www.w3.org/1999/xlink"
	 x="0px" y="0px" viewBox="0 0 128 128" style="enable-background:new 0 0 128 128;" xml:space="preserve">
<style type="text/css">
	.st0{fill:#C2D5EC;}
	.st1{fill:#61E1FF;}
	.st2{fill:#7184AF;}
	.st3{fill:#F8F8F8;}
	.st4{fill:#3F4D81;}
	.st5{fill:#3F4D80;}
	.st6{fill:#E9EAEB;}
	.st7{fill:#F79559;}
	.st8{fill:#FFA85A;}
</style>
<g>
	<g>
		<g>
			<polygon class="st0" points="1,111 111.023,111 127,95.095 127,17 16.977,17 1,32.89 			"/>
		</g>
		<g>
			<path class="st5" d="M91.075,44.512h-5.101v-4.538c0-1.604-1.308-2.905-2.921-2.905H42.925c-1.613,0-2.921,1.301-2.921,2.905
				v46.562c0,1.604,1.308,2.905,2.921,2.905h5.101v4.538c0,1.604,1.308,2.905,2.921,2.905h33.728c1.177,0,2.305-0.465,3.137-1.292
				l4.885-4.858c0.832-0.827,1.299-1.95,1.299-3.12V47.417C93.996,45.813,92.689,44.512,91.075,44.512z"/>
		</g>
		<g>
			<g>
				<path class="st6" d="M88.075,41.528H47.947c-1.613,0-2.921,1.301-2.921,2.905v46.562c0,1.604,1.308,2.905,2.921,2.905h35.566
					l7.483-7.443V44.433C90.996,42.829,89.689,41.528,88.075,41.528z"/>
			</g>
			<g>
				<path class="st3" d="M91,44.43v0.666H49.33c-0.36,0-0.66,0.298-0.66,0.656v48.147h-0.72c-1.62,0-2.92-1.303-2.92-2.904V44.43
					c0-1.601,1.3-2.904,2.92-2.904h40.13C89.69,41.526,91,42.829,91,44.43z"/>
			</g>
			<g>
				<polygon class="st2" points="83.513,93.9 83.513,86.458 90.996,86.458 				"/>
			</g>
			<g>
				<path class="st2" d="M45.026,44.433c0-1.604,1.308-2.905,2.921-2.905h35.027v-4.538c0-1.604-1.308-2.905-2.921-2.905H39.925
					c-1.613,0-2.921,1.301-2.921,2.905v46.562c0,1.604,1.308,2.905,2.921,2.905h5.101V44.433z"/>
			</g>
			<g>
				<path class="st8" d="M58.517,54.337l5.286,5.257c0,0,2.256-2.243,4.509-4.485c-0.834-4.226-4.576-7.416-9.07-7.416
					c-5.107,0-9.247,4.117-9.247,9.196c0,1.699,0.471,3.284,1.279,4.65L58.517,54.337L58.517,54.337z"/>
			</g>
			<g>
				<path class="st1" d="M63.804,59.594l-5.286-5.257v0l-7.242,7.203c1.607,2.717,4.569,4.546,7.968,4.546
					c5.107,0,9.247-4.117,9.247-9.196c0-0.609-0.063-1.204-0.177-1.78C66.059,57.351,63.804,59.594,63.804,59.594z"/>
			</g>
			<g>
				<ellipse class="st5" cx="58.517" cy="54.337" rx="1.504" ry="1.496"/>
			</g>
			<g>
				<ellipse class="st5" cx="63.803" cy="59.594" rx="1.504" ry="1.496"/>
			</g>
		</g>
		<g>
			<g>
				<ellipse class="st1" cx="111.023" cy="95.103" rx="15.977" ry="15.897"/>
			</g>
			<g>
				<g>
					<path class="st3" d="M110.91,89.849c-1.032,0-1.869,0.832-1.869,1.858c0,0.216-0.041,0.425-0.111,0.621
						c-0.29-0.97-1.183-1.683-2.252-1.683c-1.224,0-2.219,0.93-2.337,2.117v0.46c0.017,0.501,0.079,0.992,0.211,1.455v0
						c0.013,0.045,0.027,0.091,0.04,0.136c0.806,2.599,1.342,5.273,1.342,7.993l4.2,4.177l0.434-4.635l0-1.676
						c0.776,0.4,1.688,0.576,2.653,0.425c2.098-0.329,3.599-2.206,3.599-4.318v-3.786v-1.74c0-0.491-0.082-0.962-0.229-1.404H110.91
						z"/>
				</g>
				<g>
					<path class="st8" d="M112.46,104.177l-1.891-1.828l-0.434,4.635l-4.2-4.177l-1.545,1.315v0c0,0-2.317,0.872-4.057,2.784
						c2.832,2.54,6.576,4.095,10.69,4.095c2.583,0,5.022-0.611,7.181-1.693C116.349,104.864,112.46,104.177,112.46,104.177z"/>
				</g>
				<g>
					<path class="st5" d="M118.986,84.11h-10.431c-2.34,0-4.238,1.887-4.238,4.214v4.668c0-1.296,1.057-2.347,2.36-2.347
						c1.07,0,1.963,0.712,2.252,1.683c0.07-0.196,0.111-0.405,0.111-0.621c0-1.026,0.837-1.858,1.869-1.858h5.682
						C116.592,86.326,118.986,84.11,118.986,84.11z"/>
				</g>
			</g>
		</g>
		<g>
			<g>
				<path class="st8" d="M24.819,19.055v22.919c-2.108,1.802-4.844,2.898-7.842,2.898c-2.998,0-5.734-1.096-7.842-2.898V19.055
					C4.282,21.782,1,26.951,1,32.89c0,8.776,7.153,15.89,15.977,15.89c8.824,0,15.977-7.114,15.977-15.89
					C32.954,26.951,29.672,21.782,24.819,19.055z"/>
			</g>
			<g>
				<path class="st2" d="M9.135,23.807c-2.57,2.197-4.205,5.448-4.205,9.083s1.634,6.886,4.205,9.083V23.807z"/>
			</g>
			<g>
				<path class="st2" d="M24.819,23.807v18.166c-0.232,0.198-0.475,0.385-0.721,0.565c2.982-2.181,4.926-5.685,4.926-9.648
					C29.024,29.255,27.39,26.004,24.819,23.807z"/>
			</g>
			<g>
				<path class="st6" d="M23.1,17H10.854c-0.949,0-1.719,0.765-1.719,1.71v23.264c2.108,1.802,4.844,2.898,7.842,2.898
					c2.998,0,5.734-1.096,7.842-2.898V18.71C24.819,17.765,24.05,17,23.1,17z"/>
			</g>
		</g>
	</g>
	<g>
		<g>
			<path class="st5" d="M111.022,35.085H39.925c-0.553,0-1-0.448-1-1s0.447-1,1-1h71.098c0.553,0,1,0.448,1,1
				S111.575,35.085,111.022,35.085z"/>
		</g>
		<g>
			<path class="st5" d="M83.513,94.9H16.978c-0.553,0-1-0.448-1-1s0.447-1,1-1h66.535c0.553,0,1,0.448,1,1S84.065,94.9,83.513,94.9z
				"/>
		</g>
		<g>
			<g>
				<g>
					<path class="st5" d="M83.513,94.9H47.947c-2.162,0-3.921-1.752-3.921-3.905V44.433c0-2.153,1.759-3.905,3.921-3.905h40.128
						c2.162,0,3.921,1.751,3.921,3.905v42.024c0,0.266-0.106,0.521-0.295,0.709l-7.483,7.443C84.03,94.796,83.777,94.9,83.513,94.9z
						 M47.947,42.528c-1.06,0-1.921,0.854-1.921,1.905v46.562c0,1.051,0.861,1.905,1.921,1.905H83.1l6.896-6.859V44.433
						c0-1.05-0.861-1.905-1.921-1.905H47.947z M90.996,86.458h0.01H90.996z"/>
				</g>
			</g>
			<g>
				<g>
					<g>
						<path class="st5" d="M86.025,50.211H72.658c-0.553,0-1-0.448-1-1s0.447-1,1-1h13.367c0.553,0,1,0.448,1,1
							S86.578,50.211,86.025,50.211z"/>
					</g>
				</g>
				<g>
					<g>
						<path class="st5" d="M86.025,60.065H72.658c-0.553,0-1-0.448-1-1s0.447-1,1-1h13.367c0.553,0,1,0.448,1,1
							S86.578,60.065,86.025,60.065z"/>
					</g>
				</g>
				<g>
					<g>
						<path class="st5" d="M86.025,55.138H72.658c-0.553,0-1-0.448-1-1s0.447-1,1-1h13.367c0.553,0,1,0.448,1,1
							S86.578,55.138,86.025,55.138z"/>
					</g>
				</g>
				<g>
					<g>
						<path class="st5" d="M86.025,64.993H72.658c-0.553,0-1-0.448-1-1s0.447-1,1-1h13.367c0.553,0,1,0.448,1,1
							S86.578,64.993,86.025,64.993z"/>
					</g>
				</g>
			</g>
			<g>
				<g>
					<g>
						<path class="st5" d="M86.025,82.338H50.17c-0.553,0-1-0.448-1-1s0.447-1,1-1h35.855c0.553,0,1,0.448,1,1
							S86.578,82.338,86.025,82.338z"/>
					</g>
				</g>
				<g>
					<g>
						<path class="st5" d="M77.27,87.458h-27.1c-0.553,0-1-0.448-1-1s0.447-1,1-1h27.1c0.553,0,1,0.448,1,1
							S77.822,87.458,77.27,87.458z"/>
					</g>
				</g>
				<g>
					<g>
						<path class="st5" d="M86.025,72.1H50.17c-0.553,0-1-0.448-1-1s0.447-1,1-1h35.855c0.553,0,1,0.448,1,1
							S86.578,72.1,86.025,72.1z"/>
					</g>
				</g>
				<g>
					<g>
						<path class="st5" d="M86.025,77.219H50.17c-0.553,0-1-0.448-1-1s0.447-1,1-1h35.855c0.553,0,1,0.448,1,1
							S86.578,77.219,86.025,77.219z"/>
					</g>
				</g>
			</g>
			<g>
				<g>
					<path class="st5" d="M83.513,94.9c-0.13,0-0.26-0.025-0.384-0.077c-0.373-0.155-0.616-0.52-0.616-0.923v-7.443
						c0-0.552,0.447-1,1-1h7.483c0.405,0,0.77,0.244,0.925,0.619c0.154,0.374,0.067,0.805-0.22,1.09l-7.483,7.443
						C84.026,94.799,83.771,94.9,83.513,94.9z M84.513,87.458v4.038l4.06-4.038H84.513z"/>
				</g>
			</g>
			<g>
				<g>
					<path class="st5" d="M45.026,87.458h-5.102c-2.162,0-3.921-1.752-3.921-3.905V36.991c0-2.153,1.759-3.905,3.921-3.905h40.128
						c2.162,0,3.921,1.752,3.921,3.905v4.538c0,0.552-0.447,1-1,1H47.947c-1.06,0-1.921,0.854-1.921,1.905v42.024
						C46.026,87.01,45.579,87.458,45.026,87.458z M39.925,35.085c-1.06,0-1.921,0.854-1.921,1.905v46.562
						c0,1.051,0.861,1.905,1.921,1.905h4.102V44.433c0-2.153,1.759-3.905,3.921-3.905h34.026v-3.538
						c0-1.051-0.861-1.905-1.921-1.905H39.925z"/>
				</g>
			</g>
			<g>
				<g>
					<g>
						<path class="st5" d="M64.867,59.536c-0.257,0-0.514-0.098-0.709-0.295c-0.39-0.392-0.388-1.024,0.004-1.414l3.448-3.43
							c0.392-0.39,1.024-0.389,1.414,0.004c0.39,0.392,0.388,1.024-0.004,1.414l-3.448,3.43
							C65.377,59.439,65.122,59.536,64.867,59.536z"/>
					</g>
				</g>
				<g>
					<g>
						<path class="st5" d="M62.74,59.536c-0.255,0-0.51-0.097-0.705-0.291l-3.159-3.142c-0.392-0.389-0.394-1.022-0.004-1.414
							s1.022-0.394,1.414-0.004l3.159,3.142c0.392,0.389,0.394,1.022,0.004,1.414C63.254,59.438,62.997,59.536,62.74,59.536z"/>
					</g>
				</g>
				<g>
					<g>
						<path class="st5" d="M51.267,62.548c-0.257,0-0.514-0.098-0.709-0.295c-0.39-0.392-0.388-1.024,0.004-1.414l6.187-6.153
							c0.392-0.39,1.024-0.389,1.414,0.004c0.39,0.392,0.388,1.024-0.004,1.414l-6.187,6.153
							C51.776,62.451,51.521,62.548,51.267,62.548z"/>
					</g>
				</g>
				<g>
					<g>
						<path class="st5" d="M59.243,67.085c-5.65,0-10.247-4.574-10.247-10.196s4.597-10.196,10.247-10.196
							c5.649,0,10.246,4.574,10.246,10.196S64.893,67.085,59.243,67.085z M59.243,48.693c-4.548,0-8.247,3.677-8.247,8.196
							c0,4.52,3.699,8.196,8.247,8.196c4.547,0,8.246-3.677,8.246-8.196C67.489,52.37,63.79,48.693,59.243,48.693z"/>
					</g>
				</g>
				<g>
					<g>
						<path class="st5" d="M58.517,56.831c-0.641,0-1.281-0.243-1.769-0.728l0,0c-0.474-0.472-0.735-1.099-0.735-1.766
							c0-0.668,0.261-1.295,0.734-1.767c0.977-0.97,2.562-0.97,3.539-0.001c0.475,0.473,0.735,1.1,0.735,1.768
							c0,0.667-0.262,1.294-0.735,1.766C59.799,56.588,59.157,56.831,58.517,56.831z M58.158,54.686
							c0.198,0.197,0.521,0.195,0.718,0c0.126-0.126,0.146-0.272,0.146-0.349s-0.02-0.223-0.146-0.35
							c-0.195-0.195-0.52-0.196-0.717,0.001c-0.126,0.125-0.146,0.272-0.146,0.349S58.032,54.56,58.158,54.686L58.158,54.686z"/>
					</g>
				</g>
				<g>
					<g>
						<path class="st5" d="M63.804,62.088c-0.641,0-1.281-0.242-1.769-0.727l0,0c-0.475-0.472-0.735-1.099-0.735-1.767
							s0.261-1.295,0.735-1.767c0.973-0.969,2.559-0.971,3.537,0c0.475,0.472,0.735,1.1,0.735,1.768s-0.261,1.295-0.735,1.767
							C65.084,61.846,64.443,62.088,63.804,62.088z M63.804,59.098c-0.13,0-0.26,0.049-0.358,0.147
							c-0.127,0.126-0.146,0.273-0.146,0.349s0.019,0.223,0.146,0.349l0,0c0.197,0.196,0.52,0.197,0.717,0
							c0.127-0.126,0.146-0.272,0.146-0.349s-0.019-0.223-0.146-0.349C64.063,59.147,63.934,59.098,63.804,59.098z"/>
					</g>
				</g>
			</g>
		</g>
		<g>
			<path class="st5" d="M106.482,39.601c-0.257,0-0.514-0.098-0.709-0.295c-0.39-0.392-0.388-1.024,0.004-1.414l3.827-3.807
				l-3.827-3.807c-0.392-0.39-0.394-1.022-0.004-1.414s1.022-0.393,1.414-0.004l4.54,4.516c0.188,0.188,0.295,0.443,0.295,0.709
				s-0.106,0.521-0.295,0.709l-4.54,4.516C106.992,39.504,106.737,39.601,106.482,39.601z"/>
		</g>
		<g>
			<path class="st5" d="M21.518,99.416c-0.255,0-0.51-0.097-0.705-0.291l-4.54-4.516c-0.188-0.188-0.295-0.443-0.295-0.709
				s0.106-0.521,0.295-0.709l4.54-4.516c0.392-0.39,1.024-0.389,1.414,0.004c0.39,0.392,0.388,1.024-0.004,1.414L18.396,93.9
				l3.827,3.807c0.392,0.39,0.394,1.022,0.004,1.414C22.031,99.318,21.774,99.416,21.518,99.416z"/>
		</g>
		<g>
			<g>
				<g>
					<g>
						<path class="st5" d="M110.135,107.983c-0.26,0-0.515-0.102-0.705-0.291l-4.2-4.177c-0.188-0.188-0.295-0.443-0.295-0.709
							c0-2.365-0.425-4.882-1.298-7.696l-0.047-0.16c-0.146-0.508-0.227-1.062-0.248-1.692l-0.001-0.495
							c0.177-1.82,1.608-3.117,3.337-3.117c0.664,0,1.287,0.19,1.812,0.528c0.51-0.796,1.404-1.324,2.42-1.324h5.682
							c0.431,0,0.813,0.276,0.949,0.686c0.186,0.559,0.279,1.137,0.279,1.718v5.526c0,2.627-1.91,4.908-4.443,5.306
							c-0.609,0.096-1.218,0.086-1.808-0.022v0.287l-0.438,4.728c-0.036,0.385-0.292,0.715-0.655,0.847
							C110.364,107.963,110.249,107.983,110.135,107.983z M106.931,102.386l2.406,2.394l0.236-2.524l-0.004-1.583
							c0-0.349,0.182-0.672,0.479-0.854s0.669-0.194,0.979-0.035c0.627,0.324,1.334,0.434,2.039,0.325
							c1.57-0.247,2.754-1.678,2.754-3.33v-5.526c0-0.135-0.008-0.27-0.024-0.404h-4.886c-0.479,0-0.869,0.385-0.869,0.858
							c0,0.321-0.058,0.644-0.17,0.958c-0.146,0.406-0.562,0.684-0.969,0.662c-0.432-0.012-0.808-0.3-0.931-0.714
							c-0.173-0.58-0.692-0.969-1.294-0.969c-0.696,0-1.272,0.523-1.342,1.216l0.005,0.361c0.016,0.431,0.072,0.829,0.173,1.182
							l0.035,0.118C106.43,97.362,106.884,99.941,106.931,102.386z"/>
					</g>
				</g>
				<g>
					<g>
						<path class="st5" d="M110.568,101.672c-0.163,0-0.329-0.04-0.482-0.125c-0.759-0.419-1.412-1.032-1.89-1.773
							c-0.299-0.464-0.165-1.083,0.299-1.382c0.466-0.298,1.084-0.164,1.383,0.299c0.298,0.463,0.705,0.845,1.175,1.105
							c0.483,0.267,0.659,0.875,0.392,1.359C111.263,101.485,110.921,101.672,110.568,101.672z"/>
					</g>
				</g>
				<g>
					<g>
						<path class="st5" d="M111.022,112c-4.195,0-8.229-1.545-11.358-4.351c-0.198-0.178-0.317-0.428-0.331-0.694
							s0.08-0.527,0.26-0.724c1.618-1.779,3.667-2.724,4.272-2.978l1.421-1.21c0.396-0.335,0.985-0.314,1.354,0.053l2.697,2.683
							l0.236-2.524c0.036-0.383,0.288-0.711,0.649-0.845c0.359-0.132,0.767-0.048,1.042,0.219l1.692,1.637
							c1.062,0.282,4.427,1.481,6.169,5.655c0.202,0.485-0.005,1.044-0.475,1.279C116.271,111.395,113.704,112,111.022,112z
							 M101.824,106.849c2.628,2.039,5.854,3.151,9.198,3.151c2.036,0,3.996-0.395,5.841-1.175c-1.693-3.084-4.456-3.64-4.583-3.664
							c-0.192-0.037-0.375-0.129-0.516-0.265l-0.394-0.381l-0.24,2.562c-0.036,0.385-0.292,0.715-0.655,0.847
							c-0.364,0.131-0.771,0.042-1.046-0.231l-3.548-3.528l-0.844,0.719c-0.087,0.074-0.188,0.133-0.295,0.173
							C104.726,105.062,103.223,105.644,101.824,106.849z"/>
					</g>
				</g>
				<g>
					<g>
						<path class="st5" d="M104.317,93.992c-0.553,0-1-0.448-1-1v-4.667c0-2.875,2.35-5.214,5.238-5.214h10.431
							c0.411,0,0.781,0.252,0.931,0.635c0.15,0.382,0.051,0.816-0.248,1.096l0,0c-0.021,0.02-2.077,1.989-2.077,5.007
							c0,0.552-0.447,1-1,1h-5.682c-0.479,0-0.869,0.385-0.869,0.858c0,0.321-0.058,0.644-0.17,0.958
							c-0.146,0.406-0.516,0.684-0.969,0.662c-0.432-0.012-0.808-0.3-0.931-0.714c-0.173-0.58-0.692-0.969-1.294-0.969
							c-0.75,0-1.36,0.604-1.36,1.347C105.317,93.544,104.87,93.992,104.317,93.992z M106.678,89.645
							c0.664,0,1.287,0.19,1.812,0.528c0.51-0.796,1.404-1.324,2.42-1.324h4.739c0.177-1.544,0.739-2.812,1.302-3.738h-8.396
							c-1.785,0-3.238,1.442-3.238,3.214v1.607C105.733,89.748,106.193,89.645,106.678,89.645z"/>
					</g>
				</g>
			</g>
			<g>
				<g>
					<path class="st5" d="M111.022,111.986c-9.361,0-16.977-7.577-16.977-16.89s7.615-16.891,16.977-16.891S128,85.782,128,95.096
						S120.384,111.986,111.022,111.986z M111.022,80.205c-8.258,0-14.977,6.68-14.977,14.891c0,8.21,6.719,14.89,14.977,14.89
						c8.259,0,14.978-6.68,14.978-14.89C126,86.885,119.281,80.205,111.022,80.205z"/>
				</g>
			</g>
		</g>
		<g>
			<g>
				<g>
					<path class="st5" d="M16.978,49.781C7.616,49.781,0,42.204,0,32.89c0-6.075,3.312-11.71,8.645-14.707
						c0.31-0.175,0.689-0.171,0.995,0.008c0.307,0.18,0.495,0.508,0.495,0.863V41.5c1.948,1.532,4.36,2.371,6.843,2.371
						c2.481,0,4.894-0.839,6.842-2.371V19.055c0-0.355,0.188-0.684,0.495-0.863c0.305-0.179,0.685-0.183,0.995-0.008
						c5.332,2.996,8.645,8.631,8.645,14.707C33.954,42.204,26.339,49.781,16.978,49.781z M8.135,20.883
						C4.312,23.67,2,28.127,2,32.89c0,8.211,6.719,14.891,14.978,14.891c8.258,0,14.977-6.68,14.977-14.891
						c0-4.763-2.312-9.221-6.135-12.007v21.09c0,0.292-0.128,0.57-0.351,0.76c-2.367,2.023-5.383,3.138-8.491,3.138
						c-3.109,0-6.125-1.114-8.492-3.138c-0.223-0.19-0.351-0.468-0.351-0.76V20.883z M24.819,41.974h0.01H24.819z"/>
				</g>
			</g>
			<g>
				<g>
					<g>
						<path class="st5" d="M9.135,42.974c-0.233,0-0.465-0.082-0.649-0.24c-2.895-2.475-4.555-6.062-4.555-9.844
							c0-3.781,1.66-7.369,4.555-9.843c0.297-0.253,0.712-0.31,1.068-0.148c0.354,0.163,0.581,0.518,0.581,0.908v18.167
							c0,0.39-0.228,0.745-0.581,0.908C9.42,42.943,9.276,42.974,9.135,42.974z M8.135,26.321c-1.419,1.883-2.204,4.181-2.204,6.569
							c0,2.389,0.785,4.687,2.204,6.57V26.321z"/>
					</g>
				</g>
				<g>
					<g>
						<path class="st5" d="M24.82,42.973c-0.142,0-0.284-0.03-0.418-0.092c-0.354-0.163-0.582-0.518-0.582-0.908v-18.17
							c0-0.39,0.228-0.745,0.582-0.908s0.772-0.105,1.068,0.148c2.892,2.474,4.55,6.064,4.55,9.85c0,3.78-1.658,7.367-4.55,9.84
							C25.285,42.891,25.054,42.973,24.82,42.973z M25.82,26.319v13.139c1.417-1.882,2.2-4.178,2.2-6.565
							C28.021,30.502,27.237,28.202,25.82,26.319z"/>
					</g>
				</g>
			</g>
			<g>
				<g>
					<g>
						<path class="st5" d="M16.978,45.872c-3.109,0-6.125-1.114-8.492-3.138c-0.223-0.19-0.351-0.468-0.351-0.76V18.709
							c0-1.494,1.22-2.709,2.719-2.709h12.247c1.499,0,2.719,1.215,2.719,2.709v23.264c0,0.292-0.128,0.57-0.351,0.76
							C23.102,44.757,20.086,45.872,16.978,45.872z M10.135,41.5c1.948,1.532,4.36,2.371,6.843,2.371
							c2.481,0,4.894-0.839,6.842-2.371V18.709c0-0.391-0.322-0.709-0.719-0.709H10.854c-0.396,0-0.719,0.318-0.719,0.709V41.5z
							 M24.819,41.974h0.01H24.819z"/>
					</g>
				</g>
				<g>
					<g>
						<g>
							<g>
								<path class="st5" d="M21.533,37.733h-9.111c-0.553,0-1-0.448-1-1s0.447-1,1-1h9.111c0.553,0,1,0.448,1,1
									S22.086,37.733,21.533,37.733z"/>
							</g>
						</g>
						<g>
							<g>
								<path class="st5" d="M18.867,41.672h-6.445c-0.553,0-1-0.448-1-1s0.447-1,1-1h6.445c0.553,0,1,0.448,1,1
									S19.42,41.672,18.867,41.672z"/>
							</g>
						</g>
					</g>
					<g>
						<g>
							<g>
								<path class="st5" d="M21.533,21.419h-9.111c-0.553,0-1-0.448-1-1s0.447-1,1-1h9.111c0.553,0,1,0.448,1,1
									S22.086,21.419,21.533,21.419z"/>
							</g>
						</g>
						<g>
							<g>
								<path class="st5" d="M18.867,25.357h-6.445c-0.553,0-1-0.448-1-1s0.447-1,1-1h6.445c0.553,0,1,0.448,1,1
									S19.42,25.357,18.867,25.357z"/>
							</g>
						</g>
					</g>
					<g>
						<g>
							<g>
								<path class="st5" d="M21.533,29.577h-9.111c-0.553,0-1-0.448-1-1s0.447-1,1-1h9.111c0.553,0,1,0.448,1,1
									S22.086,29.577,21.533,29.577z"/>
							</g>
						</g>
						<g>
							<g>
								<path class="st5" d="M18.867,33.515h-6.445c-0.553,0-1-0.448-1-1s0.447-1,1-1h6.445c0.553,0,1,0.448,1,1
									S19.42,33.515,18.867,33.515z"/>
							</g>
						</g>
					</g>
				</g>
			</g>
		</g>
		<g>
			<path class="st5" d="M111.022,80.205c-0.553,0-1-0.448-1-1v-2c0-0.552,0.447-1,1-1s1,0.448,1,1v2
				C112.022,79.757,111.575,80.205,111.022,80.205z M111.022,74.205c-0.553,0-1-0.448-1-1v-2c0-0.552,0.447-1,1-1s1,0.448,1,1v2
				C112.022,73.757,111.575,74.205,111.022,74.205z M111.022,68.205c-0.553,0-1-0.448-1-1v-2c0-0.552,0.447-1,1-1s1,0.448,1,1v2
				C112.022,67.757,111.575,68.205,111.022,68.205z M108.234,64.993h-2c-0.553,0-1-0.448-1-1s0.447-1,1-1h2c0.553,0,1,0.448,1,1
				S108.787,64.993,108.234,64.993z M102.234,64.993h-2c-0.553,0-1-0.448-1-1s0.447-1,1-1h2c0.553,0,1,0.448,1,1
				S102.787,64.993,102.234,64.993z"/>
		</g>
		<g>
			<path class="st5" d="M27.766,64.993h-2c-0.553,0-1-0.448-1-1s0.447-1,1-1h2c0.553,0,1,0.448,1,1S28.318,64.993,27.766,64.993z
				 M21.766,64.993h-2c-0.553,0-1-0.448-1-1s0.447-1,1-1h2c0.553,0,1,0.448,1,1S22.318,64.993,21.766,64.993z M16.978,63.78
				c-0.553,0-1-0.448-1-1v-2c0-0.552,0.447-1,1-1s1,0.448,1,1v2C17.978,63.333,17.53,63.78,16.978,63.78z M16.978,57.78
				c-0.553,0-1-0.448-1-1v-2c0-0.552,0.447-1,1-1s1,0.448,1,1v2C17.978,57.333,17.53,57.78,16.978,57.78z M16.978,51.78
				c-0.553,0-1-0.448-1-1v-2c0-0.552,0.447-1,1-1s1,0.448,1,1v2C17.978,51.333,17.53,51.78,16.978,51.78z"/>
		</g>
		<g>
			<path class="st5" d="M127,96.096c-0.553,0-1-0.448-1-1V18H16.978c-0.553,0-1-0.448-1-1s0.447-1,1-1H127c0.553,0,1,0.448,1,1
				v78.096C128,95.648,127.553,96.096,127,96.096z"/>
		</g>
		<g>
			<path class="st5" d="M111.022,111.986H1c-0.553,0-1-0.448-1-1V32.89c0-0.552,0.447-1,1-1s1,0.448,1,1v77.096h109.022
				c0.553,0,1,0.448,1,1S111.575,111.986,111.022,111.986z"/>
		</g>
	</g>
</g>
</svg>
