<?xml version="1.0" encoding="utf-8"?>
<!-- Generator: Adobe Illustrator 22.0.0, SVG Export Plug-In . SVG Version: 6.00 Build 0)  -->
<svg version="1.1" id="MARKET_RESEARCH_ICON_SET" xmlns="http://www.w3.org/2000/svg" xmlns:xlink="http://www.w3.org/1999/xlink"
	 x="0px" y="0px" viewBox="0 0 128 128" style="enable-background:new 0 0 128 128;" xml:space="preserve">
<style type="text/css">
	.st0{fill:#C2D5EC;}
	.st1{fill:#61E1FF;}
	.st2{fill:#7184AF;}
	.st3{fill:#F8F8F8;}
	.st4{fill:#3F4D81;}
	.st5{fill:#3F4D80;}
	.st6{fill:#E9EAEB;}
	.st7{fill:#F79559;}
	.st8{fill:#FFA85A;}
</style>
<g>
	<g>
		<g>
			<ellipse class="st0" cx="64" cy="61.993" rx="49.25" ry="49.418"/>
		</g>
		<g>
			<path class="st4" d="M37.606,87.514c0-1.542-1.569-2.937-4.105-3.947c-2.536-1.01-6.041-1.635-9.911-1.635
				c-1.582,0-3.098,0.109-4.517,0.302c4.596,10.254,12.57,18.646,22.506,23.755c0.378-1.482,0.6-3.027,0.6-4.628
				c0-4.683-1.732-8.952-4.573-12.227V87.514z"/>
		</g>
		<g>
			<path class="st4" d="M96.571,24.94c-1.733,2.835-2.749,6.157-2.749,9.726c0,10.302,8.323,18.653,18.589,18.653
				c0.023,0,0.044-0.003,0.067-0.003C110.495,42.09,104.742,32.178,96.571,24.94z"/>
		</g>
		<g>
			<ellipse class="st4" cx="67" cy="65.003" rx="27.47" ry="27.564"/>
		</g>
		<g>
			<g>
				<path class="st5" d="M67,93.567c-15.698,0-28.47-12.813-28.47-28.563S51.302,36.44,67,36.44s28.47,12.813,28.47,28.563
					S82.698,93.567,67,93.567z M67,38.44c-14.596,0-26.47,11.917-26.47,26.563S52.404,91.567,67,91.567S93.47,79.65,93.47,65.003
					S81.596,38.44,67,38.44z"/>
			</g>
		</g>
		<g>
			<g>
				<g>
					<g>
						<path class="st8" d="M50.532,57.876l-0.13-0.131c-1.438-1.443-1.438-3.784,0-5.227l4.156-4.17
							c1.438-1.443,3.771-1.443,5.209,0l0.13,0.131c6.223-5.261,12.407-8.903,16.553-11.054C72.711,35.514,68.483,34.43,64,34.43
							c-15.171,0-27.47,12.341-27.47,27.564c0,4.499,1.081,8.741,2.986,12.492C41.66,70.326,45.289,64.121,50.532,57.876z"/>
					</g>
				</g>
				<g>
					<g>
						<path class="st8" d="M50.532,57.876l-0.13-0.131c-1.438-1.443-1.438-3.784,0-5.227l4.156-4.17
							c1.438-1.443,3.771-1.443,5.209,0l0.13,0.131c6.223-5.261,12.407-8.903,16.553-11.054C72.711,35.514,68.483,34.43,64,34.43
							c-15.171,0-27.47,12.341-27.47,27.564c0,4.499,1.081,8.741,2.986,12.492C41.66,70.326,45.289,64.121,50.532,57.876z"/>
					</g>
				</g>
				<g>
					<g>
						<path class="st8" d="M78.17,38.377L63.992,52.604c1.36,1.449,1.343,3.725-0.069,5.142l-4.156,4.17
							c-1.412,1.417-3.681,1.434-5.124,0.069L40.464,76.212C45.273,84.208,54.013,89.557,64,89.557
							c15.171,0,27.47-12.341,27.47-27.564C91.47,51.972,86.14,43.202,78.17,38.377z"/>
					</g>
				</g>
				<g>
					<g>
						<path class="st3" d="M40,61.993c0,3.111,0.52,6.101,1.47,8.9c-0.75,1.314-1.4,2.519-1.95,3.592
							c-1.91-3.753-2.99-7.997-2.99-12.493c0-15.222,12.3-27.564,27.47-27.564c0.6,0,1.2,0.02,1.79,0.06
							C51.39,35.353,40,47.333,40,61.993z"/>
					</g>
				</g>
				<g>
					<g>
						<path class="st3" d="M65.66,89.497c-0.55,0.04-1.1,0.06-1.66,0.06c-9.99,0-18.73-5.348-23.54-13.345l2.26-2.268
							c0.08,0.181,0.17,0.361,0.26,0.542l0.95,1.726C48.45,83.727,56.43,88.895,65.66,89.497z"/>
					</g>
				</g>
			</g>
			<g>
				<g>
					<g>
						<path class="st2" d="M50.532,57.876l-0.13-0.131c-1.438-1.443-1.438-3.784,0-5.227l4.156-4.17
							c1.438-1.443,3.771-1.443,5.209,0l0.13,0.131c3.092-2.614,6.175-4.828,9.004-6.659c-1.574-0.384-3.21-0.61-4.901-0.61
							c-11.439,0-20.712,9.305-20.712,20.783c0,1.698,0.225,3.339,0.608,4.918C45.721,64.073,47.927,60.979,50.532,57.876z"/>
					</g>
				</g>
				<g>
					<g>
						<path class="st2" d="M73.18,43.384l-9.188,9.22c1.36,1.449,1.343,3.725-0.069,5.142l-4.156,4.17
							c-1.412,1.417-3.681,1.434-5.124,0.069l-9.188,9.22C48.841,78.055,55.862,82.776,64,82.776
							c11.439,0,20.712-9.305,20.712-20.783C84.712,53.828,80.008,46.782,73.18,43.384z"/>
					</g>
				</g>
			</g>
			<g>
				<g>
					<path class="st6" d="M75.701,79.136c2.109-1.452,3.936-3.285,5.384-5.402L64.537,57.13l-0.614,0.616l-4.156,4.17l-0.614,0.616
						L75.701,79.136z"/>
				</g>
			</g>
			<g>
				<g>
					<g>
						<path class="st6" d="M54.558,61.916l-4.026-4.039c-9.139,10.884-13.384,21.662-13.384,21.662l17.494-17.554
							C54.615,61.96,54.584,61.942,54.558,61.916z"/>
					</g>
				</g>
				<g>
					<g>
						<path class="st6" d="M59.897,48.479l4.026,4.039c0.026,0.026,0.044,0.058,0.069,0.085L81.486,35.05
							C81.486,35.05,70.744,39.309,59.897,48.479z"/>
					</g>
				</g>
			</g>
			<g>
				<g>
					<path class="st1" d="M63.923,57.746l-4.156,4.17c-1.438,1.443-3.771,1.443-5.209,0l-4.156-4.17
						c-1.438-1.443-1.438-3.784,0-5.227l4.156-4.17c1.438-1.443,3.771-1.443,5.209,0l4.156,4.17
						C65.361,53.962,65.361,56.302,63.923,57.746z"/>
				</g>
			</g>
		</g>
		<g>
			<g>
				<g>
					<path class="st1" d="M117.535,14.412v26.903c-2.453,2.115-5.636,3.402-9.124,3.402c-3.488,0-6.672-1.286-9.124-3.402V14.412
						c-5.646,3.201-9.465,9.269-9.465,16.241c0,10.302,8.323,18.653,18.589,18.653c10.267,0,18.589-8.351,18.589-18.653
						C127,23.681,123.181,17.613,117.535,14.412z"/>
				</g>
			</g>
			<g>
				<g>
					<path class="st2" d="M99.286,19.991c-2.991,2.579-4.892,6.395-4.892,10.662s1.901,8.083,4.892,10.662V19.991z"/>
				</g>
			</g>
			<g>
				<g>
					<path class="st2" d="M117.535,19.991v21.325c-0.27,0.233-0.552,0.451-0.839,0.664c3.47-2.56,5.731-6.673,5.731-11.326
						C122.427,26.385,120.526,22.57,117.535,19.991z"/>
				</g>
			</g>
			<g>
				<g>
					<path class="st6" d="M115.535,12h-14.249c-1.105,0-2,0.898-2,2.007v27.308c2.453,2.115,5.636,3.402,9.124,3.402
						c3.488,0,6.671-1.286,9.124-3.402V14.007C117.535,12.898,116.64,12,115.535,12z"/>
				</g>
			</g>
		</g>
		<g>
			<g>
				<g>
					<g>
						<path class="st7" d="M32.747,102.155c-1.959,2.142-7.103,3.674-13.158,3.674s-11.198-1.532-13.158-3.674
							c1.959,5.396,7.103,9.256,13.158,9.256S30.788,107.551,32.747,102.155z"/>
					</g>
				</g>
				<g>
					<g>
						<path class="st2" d="M32.292,91.431c-2.228,1.908-7.071,3.234-12.703,3.234S9.115,93.339,6.887,91.431
							c-0.835-0.715-1.314-1.508-1.314-2.348v5.582c0,0.259,0.06,0.512,0.146,0.762c0.936,2.721,6.781,4.82,13.871,4.82
							s12.935-2.099,13.871-4.82c0.086-0.25,0.146-0.503,0.146-0.762v-5.582C33.606,89.922,33.127,90.716,32.292,91.431z"/>
					</g>
				</g>
				<g>
					<g>
						<path class="st1" d="M29.53,87.434c-2.539,1.017-6.054,1.648-9.94,1.648s-7.401-0.63-9.94-1.648
							c-2.518-1.009-4.076-2.399-4.076-3.934v5.582c0,0.84,0.479,1.634,1.314,2.348c2.228,1.908,7.071,3.234,12.703,3.234
							s10.474-1.326,12.703-3.234c0.835-0.715,1.314-1.508,1.314-2.348V83.5C33.606,85.035,32.048,86.425,29.53,87.434z"/>
					</g>
				</g>
				<g>
					<g>
						<path class="st8" d="M19.589,100.247c-7.09,0-12.935-2.099-13.871-4.82c-0.086,0.63-0.146,1.267-0.146,1.92
							c0,1.691,0.313,3.306,0.858,4.808c1.959,2.142,7.103,3.674,13.158,3.674s11.198-1.532,13.158-3.674
							c0.546-1.502,0.858-3.117,0.858-4.808c0-0.653-0.06-1.291-0.146-1.92C32.524,98.148,26.679,100.247,19.589,100.247z"/>
					</g>
				</g>
				<g>
					<g>
						<path class="st6" d="M29.5,79.553c-2.536-1.01-6.041-1.635-9.911-1.635c-3.87,0-7.375,0.625-9.911,1.635
							c-2.536,1.01-4.105,2.406-4.105,3.947c0,1.535,1.558,2.925,4.076,3.934c2.539,1.017,6.054,1.648,9.94,1.648
							s7.401-0.63,9.94-1.648c2.518-1.009,4.076-2.399,4.076-3.934C33.606,81.958,32.037,80.563,29.5,79.553z"/>
					</g>
				</g>
			</g>
			<g>
				<g>
					<path class="st6" d="M33.606,85.12v3.962v5.582v2.683c0,1.691-0.313,3.306-0.858,4.808c-1.959,5.396-7.103,9.256-13.158,9.256
						s-11.198-3.86-13.158-9.256c-0.546-1.502-0.858-3.117-0.858-4.808v-2.683v-5.582V85.12C2.732,88.396,1,92.664,1,97.347
						C1,107.649,9.323,116,19.589,116s18.589-8.351,18.589-18.653C38.179,92.664,36.446,88.396,33.606,85.12z"/>
				</g>
			</g>
		</g>
	</g>
	<g>
		<g>
			<g>
				<path class="st5" d="M7.382,112.412H1c-0.552,0-1-0.448-1-1s0.448-1,1-1h6.382c0.552,0,1,0.448,1,1S7.935,112.412,7.382,112.412
					z"/>
			</g>
			<g>
				<path class="st5" d="M127,112.412H31.792c-0.552,0-1-0.448-1-1s0.448-1,1-1H127c0.553,0,1,0.448,1,1
					S127.553,112.412,127,112.412z"/>
			</g>
		</g>
		<g>
			<g>
				<g>
					<path class="st4" d="M57.162,63.998c-1.251,0-2.428-0.489-3.313-1.376l-4.156-4.17c-1.824-1.831-1.824-4.809,0-6.639
						l4.156-4.17c0.885-0.888,2.062-1.376,3.313-1.376s2.428,0.489,3.313,1.376l4.156,4.17c1.824,1.831,1.824,4.809,0,6.639l0,0
						l-4.156,4.17C59.59,63.509,58.414,63.998,57.162,63.998z M57.162,48.266c-0.716,0-1.39,0.28-1.896,0.789l-4.156,4.17
						c-1.048,1.052-1.048,2.763,0,3.815l4.156,4.17c1.013,1.018,2.779,1.018,3.792,0l4.156-4.17c1.048-1.052,1.048-2.763,0-3.815
						l-4.156-4.17C58.552,48.546,57.878,48.266,57.162,48.266z M63.923,57.746h0.01H63.923z"/>
				</g>
			</g>
			<g>
				<g>
					<path class="st4" d="M75.701,80.136c-0.258,0-0.515-0.1-0.708-0.294L58.444,63.238c-0.389-0.39-0.389-1.021,0-1.412
						l5.384-5.402c0.188-0.188,0.442-0.294,0.708-0.294l0,0c0.266,0,0.521,0.106,0.708,0.294l16.548,16.604
						c0.34,0.34,0.389,0.874,0.117,1.271c-1.524,2.228-3.423,4.132-5.642,5.661C76.097,80.078,75.898,80.136,75.701,80.136z
						 M60.564,62.532l15.244,15.295c1.509-1.134,2.84-2.47,3.971-3.986L64.537,58.546L60.564,62.532z"/>
				</g>
			</g>
			<g>
				<g>
					<g>
						<path class="st4" d="M37.148,80.539c-0.189,0-0.379-0.054-0.547-0.163c-0.397-0.26-0.557-0.762-0.383-1.203
							c0.176-0.447,4.41-11.055,13.549-21.939c0.18-0.215,0.443-0.344,0.723-0.356c0.274-0.01,0.553,0.095,0.751,0.293l3.995,4.008
							c0.036,0.029,0.081,0.067,0.101,0.086c0.193,0.186,0.303,0.442,0.306,0.71c0.002,0.268-0.103,0.526-0.292,0.716L37.857,80.245
							C37.664,80.439,37.407,80.539,37.148,80.539z M50.601,59.362c-4.715,5.772-8.054,11.464-10.091,15.388l12.713-12.756
							L50.601,59.362z"/>
					</g>
				</g>
				<g>
					<g>
						<path class="st4" d="M63.992,53.604c-0.003,0-0.005,0-0.008,0c-0.269-0.002-0.525-0.113-0.712-0.306
							c-0.03-0.031-0.091-0.105-0.117-0.14l-3.966-3.972c-0.197-0.198-0.303-0.47-0.291-0.749c0.012-0.279,0.14-0.541,0.354-0.721
							c10.847-9.17,21.421-13.419,21.866-13.596c0.439-0.171,0.942-0.017,1.203,0.38c0.261,0.396,0.208,0.92-0.127,1.256
							L64.701,53.31C64.513,53.498,64.258,53.604,63.992,53.604z M61.377,48.547L64,51.179l12.715-12.758
							C72.801,40.468,67.124,43.819,61.377,48.547z"/>
					</g>
				</g>
			</g>
			<g>
				<g>
					<g>
						<path class="st5" d="M39.516,75.485c-0.001,0-0.002,0-0.003,0c-0.375-0.001-0.719-0.212-0.889-0.547
							c-2.053-4.043-3.094-8.398-3.094-12.945c0-15.75,12.771-28.563,28.47-28.563c4.533,0,8.875,1.045,12.905,3.105
							c0.334,0.171,0.544,0.513,0.545,0.888s-0.207,0.718-0.539,0.891c-4.063,2.109-10.202,5.717-16.368,10.93
							c-0.396,0.336-0.984,0.312-1.353-0.057l-0.131-0.131c-1.016-1.02-2.781-1.019-3.793-0.001l-4.156,4.17
							c-1.048,1.052-1.048,2.763,0,3.815l0.13,0.131c0.365,0.367,0.39,0.952,0.057,1.349c-5.194,6.186-8.791,12.346-10.893,16.424
							C40.233,75.276,39.89,75.485,39.516,75.485z M64,35.43c-14.595,0-26.47,11.917-26.47,26.563c0,3.563,0.688,7,2.046,10.244
							c2.128-3.908,5.321-9.089,9.641-14.343c-1.332-1.834-1.173-4.427,0.476-6.081l4.156-4.17c0.885-0.888,2.062-1.376,3.313-1.376
							c1.003,0,1.958,0.314,2.752,0.896c5.239-4.337,10.406-7.542,14.299-9.676C70.98,36.121,67.554,35.43,64,35.43z"/>
					</g>
				</g>
				<g>
					<g>
						<path class="st5" d="M64,90.557c-10.067,0-19.186-5.17-24.393-13.83c-0.236-0.393-0.175-0.896,0.148-1.221l14.178-14.226
							c0.382-0.385,1.001-0.393,1.396-0.021c1.062,1.005,2.7,0.983,3.729-0.049l4.156-4.17c1.031-1.035,1.053-2.683,0.049-3.751
							c-0.369-0.393-0.36-1.008,0.021-1.391l14.178-14.226c0.324-0.328,0.833-0.388,1.226-0.149
							c8.63,5.224,13.782,14.373,13.782,24.471C92.47,77.743,79.698,90.557,64,90.557z M41.731,76.357
							c4.902,7.654,13.169,12.2,22.269,12.2c14.596,0,26.47-11.917,26.47-26.563c0-9.131-4.528-17.426-12.154-22.345L65.313,52.694
							c1.114,1.815,0.88,4.189-0.682,5.757l-4.156,4.17c-1.564,1.568-3.931,1.804-5.741,0.689L41.731,76.357z"/>
					</g>
				</g>
			</g>
			<g>
				<g>
					<g>
						<path class="st5" d="M43.896,67.911c-0.055,0-0.11-0.004-0.166-0.014c-0.395-0.066-0.711-0.362-0.806-0.75
							c-0.422-1.741-0.636-3.475-0.636-5.154c0-12.011,9.74-21.783,21.712-21.783c1.675,0,3.403,0.215,5.139,0.638
							c0.388,0.095,0.683,0.411,0.749,0.805c0.066,0.394-0.107,0.789-0.443,1.006c-3.154,2.042-6.149,4.257-8.901,6.583
							c-0.396,0.336-0.984,0.312-1.353-0.057l-0.131-0.131c-1.016-1.02-2.781-1.019-3.793-0.001l-4.156,4.17
							c-1.048,1.052-1.048,2.763,0,3.815l0.13,0.131c0.365,0.367,0.39,0.952,0.057,1.349c-2.316,2.759-4.524,5.764-6.561,8.933
							C44.551,67.741,44.232,67.911,43.896,67.911z M64,42.21c-10.87,0-19.712,8.875-19.712,19.783c0,0.754,0.048,1.522,0.144,2.298
							c1.522-2.234,3.125-4.376,4.787-6.397c-1.332-1.834-1.173-4.427,0.476-6.081l4.156-4.17c0.885-0.888,2.062-1.376,3.313-1.376
							c1.003,0,1.958,0.314,2.752,0.896c2.017-1.67,4.154-3.279,6.381-4.807C65.521,42.259,64.753,42.21,64,42.21z"/>
					</g>
				</g>
				<g>
					<g>
						<path class="st5" d="M64,83.776c-8.294,0-15.744-4.647-19.442-12.128c-0.19-0.384-0.114-0.846,0.188-1.149l9.188-9.219
							c0.382-0.385,1.001-0.393,1.396-0.021c1.062,1.005,2.7,0.983,3.729-0.049l4.156-4.17c1.031-1.035,1.053-2.683,0.049-3.751
							c-0.369-0.393-0.36-1.008,0.021-1.391l9.189-9.22c0.304-0.304,0.77-0.381,1.153-0.189c7.455,3.71,12.086,11.185,12.086,19.504
							C85.712,74.004,75.972,83.776,64,83.776z M46.677,71.394C50.135,77.816,56.709,81.776,64,81.776
							c10.869,0,19.712-8.875,19.712-19.783c0-7.317-3.943-13.913-10.341-17.384l-8.058,8.085c1.114,1.815,0.88,4.189-0.682,5.757
							l-4.156,4.17c-1.563,1.568-3.93,1.805-5.741,0.689L46.677,71.394z"/>
					</g>
				</g>
			</g>
		</g>
		<g>
			<g>
				<g>
					<path class="st5" d="M108.41,50.306c-10.802,0-19.589-8.816-19.589-19.653c0-7.067,3.821-13.624,9.972-17.111
						c0.311-0.175,0.689-0.173,0.996,0.006c0.308,0.179,0.497,0.508,0.497,0.864v26.435c2.307,1.854,5.174,2.87,8.124,2.87
						c2.951,0,5.818-1.016,8.125-2.87V14.412c0-0.356,0.189-0.685,0.497-0.864c0.308-0.179,0.686-0.181,0.996-0.006
						c6.15,3.487,9.972,10.043,9.972,17.111C128,41.489,119.212,50.306,108.41,50.306z M98.286,16.23
						c-4.644,3.289-7.465,8.667-7.465,14.422c0,9.734,7.891,17.653,17.589,17.653c9.699,0,17.59-7.919,17.59-17.653
						c0-5.755-2.821-11.133-7.465-14.422v25.085c0,0.291-0.127,0.567-0.347,0.757c-2.726,2.35-6.198,3.645-9.778,3.645
						c-3.579,0-7.052-1.294-9.777-3.645c-0.22-0.19-0.347-0.466-0.347-0.757V16.23z M117.535,41.315h0.01H117.535z"/>
				</g>
			</g>
			<g>
				<g>
					<g>
						<path class="st5" d="M99.286,42.315c-0.235,0-0.468-0.083-0.653-0.243c-3.329-2.872-5.238-7.034-5.238-11.42
							s1.909-8.548,5.238-11.419c0.298-0.256,0.716-0.314,1.069-0.152c0.356,0.163,0.584,0.518,0.584,0.909v21.325
							c0,0.391-0.228,0.746-0.584,0.909C99.569,42.286,99.428,42.315,99.286,42.315z M98.286,22.458
							c-1.857,2.307-2.892,5.191-2.892,8.195s1.034,5.888,2.892,8.196V22.458z"/>
					</g>
				</g>
				<g>
					<g>
						<path class="st5" d="M117.53,42.313c-0.142,0-0.284-0.03-0.417-0.091c-0.355-0.163-0.583-0.518-0.583-0.909V19.99
							c0-0.391,0.228-0.746,0.583-0.909c0.353-0.163,0.772-0.104,1.068,0.15c3.335,2.866,5.248,7.03,5.248,11.424
							c0,4.387-1.913,8.548-5.247,11.415C117.997,42.23,117.765,42.313,117.53,42.313z M118.53,22.451v16.401
							c1.863-2.305,2.899-5.189,2.899-8.196C121.43,27.645,120.394,24.757,118.53,22.451z"/>
					</g>
				</g>
			</g>
			<g>
				<g>
					<g>
						<path class="st5" d="M108.41,45.717c-3.579,0-7.052-1.294-9.777-3.645c-0.22-0.19-0.347-0.466-0.347-0.757V14.007
							c0-1.658,1.346-3.007,3-3.007h14.249c1.654,0,3,1.349,3,3.007v27.309c0,0.291-0.127,0.567-0.347,0.757
							C115.463,44.423,111.99,45.717,108.41,45.717z M100.286,40.847c2.307,1.854,5.174,2.87,8.124,2.87
							c2.951,0,5.818-1.016,8.125-2.87v-26.84c0-0.555-0.448-1.007-1-1.007h-14.249c-0.552,0-1,0.452-1,1.007V40.847z
							 M117.535,41.315h0.01H117.535z"/>
					</g>
				</g>
				<g>
					<g>
						<g>
							<g>
								<path class="st5" d="M113.711,36.165H103.11c-0.553,0-1-0.448-1-1s0.447-1,1-1h10.601c0.553,0,1,0.448,1,1
									S114.264,36.165,113.711,36.165z"/>
							</g>
						</g>
						<g>
							<g>
								<path class="st5" d="M110.609,40.788h-7.499c-0.553,0-1-0.448-1-1s0.447-1,1-1h7.499c0.553,0,1,0.448,1,1
									S111.162,40.788,110.609,40.788z"/>
							</g>
						</g>
					</g>
					<g>
						<g>
							<g>
								<path class="st5" d="M113.711,17.014H103.11c-0.553,0-1-0.448-1-1s0.447-1,1-1h10.601c0.553,0,1,0.448,1,1
									S114.264,17.014,113.711,17.014z"/>
							</g>
						</g>
						<g>
							<g>
								<path class="st5" d="M110.609,21.637h-7.499c-0.553,0-1-0.448-1-1s0.447-1,1-1h7.499c0.553,0,1,0.448,1,1
									S111.162,21.637,110.609,21.637z"/>
							</g>
						</g>
					</g>
					<g>
						<g>
							<g>
								<path class="st5" d="M113.711,26.589H103.11c-0.553,0-1-0.448-1-1s0.447-1,1-1h10.601c0.553,0,1,0.448,1,1
									S114.264,26.589,113.711,26.589z"/>
							</g>
						</g>
						<g>
							<g>
								<path class="st5" d="M110.609,31.212h-7.499c-0.553,0-1-0.448-1-1s0.447-1,1-1h7.499c0.553,0,1,0.448,1,1
									S111.162,31.212,110.609,31.212z"/>
							</g>
						</g>
					</g>
				</g>
			</g>
		</g>
		<g>
			<g>
				<g>
					<g>
						<path class="st5" d="M5.573,98.347c-0.552,0-1-0.448-1-1v-2.683c0-0.552,0.448-1,1-1s1,0.448,1,1
							c0,0.117,0.029,0.256,0.091,0.437c0.051,0.148,0.066,0.306,0.045,0.46c-0.093,0.681-0.136,1.249-0.136,1.785
							C6.573,97.899,6.125,98.347,5.573,98.347z"/>
					</g>
				</g>
				<g>
					<g>
						<path class="st5" d="M29.5,80.553c-0.123,0-0.248-0.023-0.37-0.071c-0.002-0.001-0.006-0.002-0.008-0.003
							c-0.017-0.007-0.034-0.014-0.051-0.021c-2.525-0.993-5.889-1.54-9.481-1.54s-6.956,0.547-9.481,1.54
							c-0.017,0.007-0.034,0.014-0.051,0.021c-0.002,0.001-0.006,0.002-0.008,0.003c-0.513,0.205-1.094-0.046-1.299-0.559
							c-0.048-0.122-0.071-0.247-0.071-0.37c0-0.397,0.239-0.773,0.63-0.93c0.013-0.005,0.025-0.01,0.038-0.015
							c2.758-1.09,6.394-1.691,10.243-1.691s7.485,0.601,10.243,1.691c0.013,0.005,0.025,0.01,0.038,0.015
							c0.392,0.156,0.63,0.532,0.63,0.93c0,0.123-0.023,0.248-0.071,0.37C30.273,80.314,29.897,80.553,29.5,80.553z"/>
					</g>
				</g>
				<g>
					<g>
						<path class="st5" d="M33.605,98.347c-0.552,0-1-0.448-1-1c0-0.537-0.043-1.104-0.136-1.785
							c-0.021-0.155-0.006-0.312,0.045-0.46c0.062-0.181,0.091-0.32,0.091-0.437c0-0.552,0.448-1,1-1s1,0.448,1,1v2.683
							C34.605,97.899,34.158,98.347,33.605,98.347z"/>
					</g>
				</g>
				<g>
					<g>
						<path class="st5" d="M19.589,112.412c-6.279,0-11.945-3.984-14.098-9.915c-0.163-0.449,0.014-0.95,0.422-1.197
							c0.407-0.248,0.934-0.171,1.256,0.181c1.804,1.972,6.911,3.349,12.42,3.349s10.616-1.377,12.42-3.349
							c0.321-0.352,0.848-0.428,1.256-0.181c0.408,0.247,0.584,0.748,0.422,1.197C31.534,108.427,25.869,112.412,19.589,112.412z
							 M9.073,105.02c2.41,3.321,6.304,5.392,10.516,5.392s8.106-2.071,10.516-5.392c-2.722,1.141-6.456,1.81-10.516,1.81
							S11.795,106.16,9.073,105.02z"/>
					</g>
				</g>
				<g>
					<g>
						<path class="st5" d="M19.589,101.247c-7.611,0-13.704-2.26-14.816-5.495c-0.136-0.396-0.2-0.742-0.2-1.087v-5.583
							c0-0.552,0.448-1,1-1s1,0.448,1,1c0,0.631,0.524,1.212,0.964,1.589c2.124,1.818,6.854,2.993,12.052,2.993
							s9.929-1.175,12.052-2.993l0,0c0.439-0.377,0.964-0.958,0.964-1.589c0-0.552,0.448-1,1-1s1,0.448,1,1v5.583
							c0,0.345-0.063,0.691-0.2,1.087C33.293,98.987,27.201,101.247,19.589,101.247z M6.573,92.462v2.203
							c0,0.117,0.029,0.256,0.091,0.437c0.685,1.994,5.821,4.145,12.925,4.145s12.24-2.151,12.925-4.145
							c0.062-0.181,0.091-0.32,0.091-0.437v-2.203c-2.606,1.983-7.528,3.203-13.016,3.203S9.18,94.445,6.573,92.462z M32.292,91.431
							h0.01H32.292z"/>
					</g>
				</g>
				<g>
					<g>
						<path class="st5" d="M19.589,95.665c-5.734,0-10.851-1.332-13.353-3.475c-1.375-1.177-1.663-2.34-1.663-3.108V83.5
							c0-0.552,0.448-1,1-1s1,0.448,1,1c0,1.017,1.289,2.141,3.448,3.006c2.537,1.016,5.935,1.576,9.568,1.576
							s7.032-0.56,9.568-1.576l0,0c2.159-0.865,3.448-1.989,3.448-3.006c0-0.552,0.448-1,1-1s1,0.448,1,1v5.582
							c0,0.768-0.289,1.931-1.663,3.108C30.44,94.333,25.324,95.665,19.589,95.665z M6.573,86.887v2.195
							c0,0.631,0.524,1.212,0.964,1.589c2.124,1.818,6.854,2.993,12.052,2.993s9.929-1.175,12.052-2.993
							c0.439-0.377,0.964-0.958,0.964-1.589v-2.195c-0.72,0.547-1.626,1.043-2.704,1.476l0,0c-2.768,1.109-6.43,1.719-10.312,1.719
							s-7.545-0.61-10.312-1.719C8.199,87.931,7.293,87.434,6.573,86.887z M29.53,87.435h0.01H29.53z"/>
					</g>
				</g>
				<g>
					<g>
						<path class="st5" d="M19.589,106.829c-6.219,0-11.673-1.57-13.896-3.999c-0.089-0.097-0.157-0.21-0.202-0.333
							c-0.609-1.677-0.918-3.41-0.918-5.149c0-0.629,0.049-1.283,0.155-2.056c0.062-0.459,0.432-0.815,0.893-0.86
							c0.476-0.044,0.893,0.232,1.043,0.67c0.685,1.994,5.821,4.145,12.925,4.145s12.24-2.151,12.925-4.145
							c0.151-0.438,0.576-0.716,1.043-0.67c0.461,0.045,0.831,0.401,0.893,0.86c0.105,0.773,0.155,1.426,0.155,2.056
							c0,1.74-0.309,3.472-0.918,5.149c-0.045,0.124-0.113,0.237-0.202,0.333C31.263,105.259,25.809,106.829,19.589,106.829z
							 M7.302,101.619c1.911,1.897,6.908,3.21,12.287,3.21s10.376-1.313,12.287-3.21c0.404-1.167,0.642-2.361,0.709-3.561
							c-2.567,1.953-7.366,3.189-12.996,3.189S9.16,100.01,6.593,98.058C6.661,99.258,6.898,100.452,7.302,101.619z"/>
					</g>
				</g>
				<g>
					<g>
						<path class="st5" d="M19.589,90.082c-3.882,0-7.545-0.61-10.312-1.719C6.244,87.147,4.573,85.42,4.573,83.5
							c0-1.928,1.682-3.66,4.735-4.876c2.762-1.1,6.413-1.706,10.281-1.706s7.519,0.606,10.281,1.706
							c3.053,1.216,4.735,2.948,4.735,4.876c0,1.92-1.67,3.647-4.704,4.863C27.134,89.472,23.472,90.082,19.589,90.082z
							 M19.589,78.918c-3.621,0-7.009,0.555-9.541,1.564c-2.176,0.866-3.475,1.995-3.475,3.018c0,1.017,1.289,2.141,3.448,3.006
							c2.537,1.016,5.935,1.576,9.568,1.576s7.032-0.56,9.568-1.576c2.159-0.865,3.448-1.989,3.448-3.006
							c0-1.023-1.299-2.152-3.475-3.018C26.599,79.473,23.21,78.918,19.589,78.918z"/>
					</g>
				</g>
			</g>
			<g>
				<g>
					<path class="st5" d="M19.589,117C8.788,117,0,108.184,0,97.347c0-4.725,1.711-9.3,4.818-12.882
						c0.273-0.316,0.712-0.429,1.105-0.282c0.391,0.146,0.65,0.52,0.65,0.937v12.227c0,1.506,0.269,3.009,0.798,4.467
						c1.867,5.143,6.777,8.598,12.218,8.598s10.351-3.455,12.218-8.598c0.53-1.458,0.798-2.961,0.798-4.467V85.12
						c0-0.417,0.259-0.791,0.65-0.937c0.389-0.146,0.831-0.034,1.105,0.282c3.107,3.582,4.818,8.157,4.818,12.882
						C39.179,108.184,30.391,117,19.589,117z M4.573,88.18C2.9,90.931,2,94.1,2,97.347C2,107.081,9.891,115,19.589,115
						s17.589-7.919,17.589-17.653c0-3.247-0.9-6.416-2.573-9.167v9.167c0,1.74-0.309,3.472-0.918,5.149
						c-2.153,5.931-7.818,9.915-14.098,9.915s-11.945-3.984-14.098-9.915c-0.609-1.677-0.918-3.41-0.918-5.149V88.18z"/>
				</g>
			</g>
		</g>
		<g>
			<path class="st5" d="M60.162,98.718h-2c-0.552,0-1-0.448-1-1s0.448-1,1-1h2c0.552,0,1,0.448,1,1S60.714,98.718,60.162,98.718z
				 M54.162,98.718h-2c-0.552,0-1-0.448-1-1s0.448-1,1-1h2c0.552,0,1,0.448,1,1S54.714,98.718,54.162,98.718z M48.162,98.718h-2
				c-0.552,0-1-0.448-1-1s0.448-1,1-1h2c0.552,0,1,0.448,1,1S48.714,98.718,48.162,98.718z M42.162,98.718h-2c-0.552,0-1-0.448-1-1
				s0.448-1,1-1h2c0.552,0,1,0.448,1,1S42.714,98.718,42.162,98.718z M64,98.557c-0.552,0-1-0.448-1-1v-2c0-0.552,0.448-1,1-1
				s1,0.448,1,1v2C65,98.109,64.552,98.557,64,98.557z M64,92.557c-0.552,0-1-0.448-1-1v-2c0-0.552,0.448-1,1-1s1,0.448,1,1v2
				C65,92.109,64.552,92.557,64,92.557z"/>
		</g>
		<g>
			<path class="st5" d="M64,35.43c-0.552,0-1-0.448-1-1v-2c0-0.552,0.448-1,1-1s1,0.448,1,1v2C65,34.982,64.552,35.43,64,35.43z
				 M64,29.43c-0.552,0-1-0.448-1-1v-2c0-0.552,0.448-1,1-1s1,0.448,1,1v2C65,28.982,64.552,29.43,64,29.43z M87.81,27.24h-2
				c-0.553,0-1-0.448-1-1s0.447-1,1-1h2c0.553,0,1,0.448,1,1S88.362,27.24,87.81,27.24z M81.81,27.24h-2c-0.553,0-1-0.448-1-1
				s0.447-1,1-1h2c0.553,0,1,0.448,1,1S82.362,27.24,81.81,27.24z M75.81,27.24h-1.999c-0.553,0-1-0.448-1-1s0.447-1,1-1h1.999
				c0.553,0,1,0.448,1,1S76.362,27.24,75.81,27.24z M69.811,27.24h-2c-0.553,0-1-0.448-1-1s0.447-1,1-1h2c0.553,0,1,0.448,1,1
				S70.363,27.24,69.811,27.24z"/>
		</g>
		<g>
			<path class="st5" d="M95.403,94.503c-0.255,0-0.511-0.097-0.706-0.292c-0.391-0.39-0.393-1.023-0.002-1.415
				c8.2-8.228,12.716-19.168,12.715-30.804c0-0.552,0.447-1,1-1c0.552,0,1,0.448,1,1c0.001,12.169-4.722,23.61-13.299,32.216
				C95.916,94.405,95.66,94.503,95.403,94.503z"/>
		</g>
		<g>
			<path class="st5" d="M19.589,62.993c-0.552,0-1-0.448-1-1c0-12.169,4.723-23.611,13.299-32.216
				c0.391-0.391,1.023-0.393,1.415-0.002c0.391,0.39,0.392,1.023,0.002,1.415c-8.2,8.228-12.716,19.167-12.716,30.804
				C20.589,62.545,20.142,62.993,19.589,62.993z"/>
		</g>
		<g>
			<path class="st5" d="M104.055,67.365c-0.255,0-0.511-0.097-0.706-0.292c-0.391-0.39-0.393-1.023-0.002-1.414l4.355-4.372
				c0.375-0.377,1.041-0.376,1.416,0l4.356,4.372c0.391,0.392,0.389,1.024-0.002,1.415c-0.393,0.39-1.025,0.387-1.414-0.002
				l-3.648-3.661l-3.647,3.66C104.567,67.267,104.312,67.365,104.055,67.365z"/>
		</g>
		<g>
			<path class="st5" d="M19.589,62.993c-0.266,0-0.521-0.106-0.708-0.294l-4.356-4.372c-0.39-0.392-0.389-1.024,0.002-1.415
				c0.391-0.39,1.024-0.388,1.415,0.002l3.648,3.661l3.648-3.661c0.39-0.391,1.023-0.393,1.415-0.002
				c0.391,0.39,0.392,1.023,0.002,1.415l-4.356,4.372C20.11,62.887,19.855,62.993,19.589,62.993z"/>
		</g>
	</g>
</g>
</svg>
