<?xml version="1.0" encoding="utf-8"?>
<!-- Generator: Adobe Illustrator 22.0.0, SVG Export Plug-In . SVG Version: 6.00 Build 0)  -->
<svg version="1.1" id="MARKET_RESEARCH_ICON_SET" xmlns="http://www.w3.org/2000/svg" xmlns:xlink="http://www.w3.org/1999/xlink"
	 x="0px" y="0px" viewBox="0 0 128 128" style="enable-background:new 0 0 128 128;" xml:space="preserve">
<style type="text/css">
	.st0{fill:#C2D5EC;}
	.st1{fill:#61E1FF;}
	.st2{fill:#7184AF;}
	.st3{fill:#F8F8F8;}
	.st4{fill:#3F4D81;}
	.st5{fill:#3F4D80;}
	.st6{fill:#E9EAEB;}
	.st7{fill:#F79559;}
	.st8{fill:#FFA85A;}
</style>
<g>
	<g>
		<g>
			<path class="st0" d="M109.941,28.152v5.69L100,38.073l-9.941-4.231v-5.69H73.941L64,32.383l-9.941-4.231H37.941v5.69L28,38.073
				l-9.941-4.231v-5.69H5c-2.209,0-4,1.787-4,3.992v77.864C1,112.213,2.791,114,5,114h55c2.209,0,4-1.787,4-3.992l0,0
				c0,2.205,1.791,3.992,4,3.992h55c2.209,0,4-1.787,4-3.992V32.144c0-2.205-1.791-3.992-4-3.992H109.941z"/>
		</g>
		<g>
			<path class="st5" d="M91.773,87.017c0.517-1.981,0.794-4.058,0.794-6.2C92.567,67.275,81.57,56.3,68,56.3
				S43.433,67.275,43.433,80.817c0,2.142,0.277,4.22,0.794,6.2L43,87.539v12.475l12.5,5.32l3.763-1.602
				c2.715,1.031,5.659,1.601,8.737,1.601s6.022-0.57,8.737-1.601l3.763,1.602l12.5-5.32V87.539L91.773,87.017z"/>
		</g>
		<g>
			<path class="st5" d="M80.5,106.334c-0.133,0-0.267-0.027-0.392-0.08l-3.396-1.445c-5.594,2.024-11.83,2.024-17.424,0
				l-3.396,1.445c-0.25,0.106-0.533,0.106-0.783,0l-12.5-5.32c-0.369-0.157-0.608-0.519-0.608-0.92V87.54
				c0-0.401,0.239-0.763,0.608-0.92l0.447-0.19c-0.413-1.837-0.622-3.72-0.622-5.612c0-14.07,11.469-25.518,25.567-25.518
				s25.567,11.447,25.567,25.518c0,1.892-0.209,3.775-0.622,5.612l0.447,0.19C93.761,86.776,94,87.139,94,87.54v12.475
				c0,0.401-0.239,0.763-0.608,0.92l-12.5,5.32C80.767,106.308,80.633,106.334,80.5,106.334z M59.263,102.733
				c0.12,0,0.241,0.021,0.355,0.065c5.367,2.039,11.397,2.039,16.765,0c0.242-0.091,0.509-0.085,0.747,0.015l3.371,1.435L92,99.353
				V88.201l-0.619-0.264c-0.456-0.194-0.701-0.693-0.576-1.172c0.505-1.936,0.762-3.937,0.762-5.948
				c0-12.968-10.572-23.518-23.567-23.518s-23.567,10.55-23.567,23.518c0,2.011,0.256,4.012,0.762,5.948
				c0.125,0.479-0.12,0.979-0.576,1.172L44,88.201v11.152l11.5,4.895l3.371-1.435C58.996,102.76,59.129,102.733,59.263,102.733z"/>
		</g>
		<g>
			<g>
				<polygon class="st3" points="64,14 54.059,18.231 64,22.462 73.941,18.231 				"/>
			</g>
			<g>
				<polygon class="st5" points="73.941,28.152 64,32.383 64,22.462 73.941,18.231 				"/>
			</g>
			<g>
				<polygon class="st6" points="54.059,28.152 64,32.383 64,22.462 54.059,18.231 				"/>
			</g>
		</g>
		<g>
			<g>
				<polygon class="st3" points="28,19.69 18.059,23.921 28,28.152 37.941,23.921 				"/>
			</g>
			<g>
				<polygon class="st5" points="37.941,33.842 28,38.073 28,28.152 37.941,23.921 				"/>
			</g>
			<g>
				<polygon class="st6" points="18.059,33.842 28,38.073 28,28.152 18.059,23.921 				"/>
			</g>
		</g>
		<g>
			<g>
				<polygon class="st3" points="100,19.69 90.059,23.921 100,28.152 109.941,23.921 				"/>
			</g>
			<g>
				<polygon class="st5" points="109.941,33.842 100,38.073 100,28.152 109.941,23.921 				"/>
			</g>
			<g>
				<polygon class="st6" points="90.059,33.842 100,38.073 100,28.152 90.059,23.921 				"/>
			</g>
		</g>
		<g>
			<path class="st3" d="M111.783,82.813h-8c-2.209,0-4-1.787-4-3.992v-7.984c0-2.205,1.791-3.992,4-3.992h8c2.209,0,4,1.787,4,3.992
				v7.984C115.783,81.026,113.993,82.813,111.783,82.813z"/>
		</g>
		<g>
			<path class="st8" d="M24.217,82.813h-8c-2.209,0-4-1.787-4-3.992v-7.984c0-2.205,1.791-3.992,4-3.992h8c2.209,0,4,1.787,4,3.992
				v7.984C28.217,81.026,26.426,82.813,24.217,82.813z"/>
		</g>
		<g>
			<g>
				<g>
					<path class="st1" d="M51.5,78.228V65.753l12.5-5.32l12.5,5.32v12.475l11.273,4.798c0.517-1.981,0.794-4.058,0.794-6.2
						c0-13.542-10.997-24.517-24.567-24.517S39.433,63.283,39.433,76.825c0,2.142,0.277,4.22,0.794,6.2L51.5,78.228z"/>
				</g>
				<g>
					<path class="st3" d="M43.43,76.825c0,1.597,0.15,3.144,0.45,4.651l-3.65,1.547c-0.52-1.976-0.8-4.052-0.8-6.197
						c0-13.543,11-24.521,24.57-24.521c0.67,0,1.34,0.03,2,0.09C53.36,53.402,43.43,63.961,43.43,76.825z"/>
				</g>
				<g>
					<path class="st1" d="M64,96.022l-8.737,3.718c2.715,1.032,5.659,1.601,8.737,1.601c3.078,0,6.022-0.57,8.737-1.601L64,96.022z"
						/>
				</g>
			</g>
			<g>
				<g>
					<polygon class="st6" points="76.5,78.228 64,83.548 76.5,88.867 89,83.548 					"/>
				</g>
				<g>
					<polygon class="st1" points="89,96.022 76.5,101.342 76.5,88.867 89,83.548 					"/>
				</g>
				<g>
					<polygon class="st2" points="64,96.022 76.5,101.342 76.5,88.867 64,83.548 					"/>
				</g>
			</g>
			<g>
				<g>
					<polygon class="st3" points="51.5,78.228 39,83.548 51.5,88.867 64,83.548 					"/>
				</g>
				<g>
					<polygon class="st5" points="64,96.022 51.5,101.342 51.5,88.867 64,83.548 					"/>
				</g>
				<g>
					<polygon class="st6" points="39,96.022 51.5,101.342 51.5,88.867 39,83.548 					"/>
				</g>
			</g>
			<g>
				<g>
					<polygon class="st6" points="64,60.433 51.5,65.753 64,71.073 76.5,65.753 					"/>
				</g>
				<g>
					<polygon class="st7" points="76.5,78.228 64,83.548 64,71.073 76.5,65.753 					"/>
				</g>
				<g>
					<polygon class="st8" points="51.5,78.228 64,83.548 64,71.073 51.5,65.753 					"/>
				</g>
			</g>
		</g>
		<g>
			<ellipse class="st5" cx="107.783" cy="90.797" rx="3.248" ry="3.241"/>
		</g>
		<g>
			<ellipse class="st5" cx="20.217" cy="90.797" rx="3.248" ry="3.241"/>
		</g>
	</g>
	<g>
		<g>
			<g>
				<path class="st5" d="M123,115H68c-1.634,0-3.087-0.786-4-2c-0.913,1.214-2.366,2-4,2H5c-2.757,0-5-2.239-5-4.992V32.144
					c0-2.752,2.243-4.992,5-4.992h13.059c0.552,0,1,0.448,1,1v5.029L28,36.986l8.941-3.805v-5.029c0-0.552,0.448-1,1-1h16.118
					c0.135,0,0.268,0.027,0.392,0.08L64,31.296l9.549-4.064c0.124-0.053,0.257-0.08,0.392-0.08h16.118c0.552,0,1,0.448,1,1v5.029
					L100,36.986l8.941-3.805v-5.029c0-0.552,0.448-1,1-1H123c2.757,0,5,2.239,5,4.992v77.864C128,112.761,125.757,115,123,115z
					 M64,109.008c0.552,0,1,0.448,1,1c0,1.65,1.346,2.992,3,2.992h55c1.654,0,3-1.342,3-2.992V32.144c0-1.649-1.346-2.992-3-2.992
					h-12.059v4.69c0,0.401-0.239,0.763-0.608,0.92l-9.941,4.231c-0.25,0.106-0.533,0.106-0.783,0l-9.941-4.231
					c-0.369-0.157-0.608-0.519-0.608-0.92v-4.69H74.145l-9.753,4.151c-0.25,0.106-0.533,0.106-0.783,0l-9.753-4.151H38.941v4.69
					c0,0.401-0.239,0.763-0.608,0.92l-9.941,4.231c-0.25,0.106-0.533,0.106-0.783,0l-9.941-4.231
					c-0.369-0.157-0.608-0.519-0.608-0.92v-4.69H5c-1.654,0-3,1.342-3,2.992v77.864C2,111.658,3.346,113,5,113h55
					c1.654,0,3-1.342,3-2.992C63,109.456,63.448,109.008,64,109.008z M109.941,33.842h0.01H109.941z"/>
			</g>
		</g>
		<g>
			<g>
				<path class="st5" d="M111.783,83.813h-8c-2.757,0-5-2.239-5-4.992v-7.984c0-2.752,2.243-4.992,5-4.992h8
					c2.757,0,5,2.239,5,4.992v7.984C116.783,81.574,114.54,83.813,111.783,83.813z M103.783,67.845c-1.654,0-3,1.342-3,2.992v7.984
					c0,1.65,1.346,2.992,3,2.992h8c1.654,0,3-1.342,3-2.992v-7.984c0-1.649-1.346-2.992-3-2.992H103.783z"/>
			</g>
		</g>
		<g>
			<g>
				<path class="st5" d="M24.217,83.813h-8c-2.757,0-5-2.239-5-4.992v-7.984c0-2.752,2.243-4.992,5-4.992h8c2.757,0,5,2.239,5,4.992
					v7.984C29.217,81.574,26.974,83.813,24.217,83.813z M16.217,67.845c-1.654,0-3,1.342-3,2.992v7.984c0,1.65,1.346,2.992,3,2.992
					h8c1.654,0,3-1.342,3-2.992v-7.984c0-1.649-1.346-2.992-3-2.992H16.217z"/>
			</g>
		</g>
		<g>
			<g>
				<path class="st5" d="M22.829,78.652c-0.255,0-0.511-0.097-0.707-0.292l-5.657-5.646c-0.391-0.39-0.392-1.023-0.001-1.415
					c0.389-0.392,1.022-0.392,1.415-0.001l5.657,5.646c0.391,0.39,0.392,1.023,0.001,1.415
					C23.341,78.554,23.085,78.652,22.829,78.652z"/>
			</g>
		</g>
		<g>
			<g>
				<path class="st5" d="M106.586,78.652c-0.255,0-0.511-0.097-0.707-0.292l-2.829-2.823c-0.391-0.39-0.392-1.023-0.001-1.415
					c0.39-0.391,1.023-0.392,1.415-0.001l2.122,2.118l4.95-4.941c0.392-0.39,1.025-0.39,1.415,0.001
					c0.39,0.391,0.389,1.024-0.001,1.415l-5.657,5.646C107.097,78.555,106.841,78.652,106.586,78.652z"/>
			</g>
		</g>
		<g>
			<g>
				<path class="st5" d="M17.171,78.652c-0.256,0-0.513-0.098-0.708-0.293c-0.39-0.391-0.389-1.024,0.001-1.415l5.657-5.646
					c0.391-0.39,1.024-0.39,1.415,0.001s0.389,1.024-0.001,1.415l-5.657,5.646C17.683,78.555,17.427,78.652,17.171,78.652z"/>
			</g>
		</g>
		<g>
			<g>
				<g>
					<g>
						<path class="st5" d="M64,72.073c-0.133,0-0.267-0.027-0.392-0.08l-12.5-5.32c-0.369-0.157-0.608-0.519-0.608-0.92
							s0.239-0.763,0.608-0.92l12.5-5.32c0.25-0.106,0.533-0.106,0.783,0l12.5,5.32c0.369,0.157,0.608,0.519,0.608,0.92
							s-0.239,0.763-0.608,0.92l-12.5,5.32C64.267,72.046,64.133,72.073,64,72.073z M54.054,65.753L64,69.986l9.946-4.233L64,61.52
							L54.054,65.753z"/>
					</g>
				</g>
				<g>
					<g>
						<path class="st5" d="M64,84.547c-0.193,0-0.385-0.056-0.552-0.166C63.168,84.196,63,83.883,63,83.547V71.073
							c0-0.401,0.239-0.763,0.608-0.92l12.5-5.32c0.307-0.132,0.662-0.1,0.943,0.086c0.28,0.185,0.448,0.498,0.448,0.834v12.475
							c0,0.401-0.239,0.763-0.608,0.92l-12.5,5.32C64.266,84.521,64.133,84.547,64,84.547z M65,71.734v10.301l10.5-4.469V67.265
							L65,71.734z M76.5,78.228h0.01H76.5z"/>
					</g>
				</g>
				<g>
					<g>
						<path class="st5" d="M64,84.547c-0.133,0-0.266-0.026-0.392-0.08l-12.5-5.32c-0.369-0.157-0.608-0.519-0.608-0.92V65.753
							c0-0.336,0.168-0.649,0.448-0.834c0.28-0.186,0.635-0.218,0.943-0.086l12.5,5.32C64.761,70.31,65,70.672,65,71.073v12.475
							c0,0.336-0.168,0.649-0.448,0.834C64.385,84.491,64.193,84.547,64,84.547z M52.5,77.566L63,82.035V71.734l-10.5-4.469V77.566z
							"/>
					</g>
				</g>
			</g>
			<g>
				<g>
					<g>
						<path class="st5" d="M76.5,89.868c-0.133,0-0.267-0.027-0.392-0.08l-12.5-5.32C63.239,84.311,63,83.948,63,83.547
							s0.239-0.763,0.608-0.92l12.5-5.32c0.25-0.106,0.533-0.106,0.783,0l12.5,5.32C89.761,82.784,90,83.146,90,83.547
							s-0.239,0.763-0.608,0.92l-12.5,5.32C76.767,89.841,76.633,89.868,76.5,89.868z M66.554,83.547l9.946,4.233l9.946-4.233
							L76.5,79.314L66.554,83.547z"/>
					</g>
				</g>
				<g>
					<g>
						<path class="st5" d="M76.5,102.342c-0.193,0-0.385-0.056-0.552-0.166c-0.28-0.185-0.448-0.498-0.448-0.834V88.868
							c0-0.401,0.239-0.763,0.608-0.92l12.5-5.32c0.307-0.132,0.662-0.1,0.943,0.086C89.832,82.898,90,83.211,90,83.547v12.475
							c0,0.401-0.239,0.763-0.608,0.92l-12.5,5.32C76.766,102.316,76.633,102.342,76.5,102.342z M77.5,89.529V99.83L88,95.361V85.06
							L77.5,89.529z M89,96.022h0.01H89z"/>
					</g>
				</g>
				<g>
					<g>
						<path class="st5" d="M76.5,102.342c-0.133,0-0.266-0.026-0.392-0.08l-12.5-5.32C63.239,96.786,63,96.423,63,96.022V83.547
							c0-0.336,0.168-0.649,0.448-0.834c0.28-0.186,0.634-0.218,0.943-0.086l12.5,5.32c0.369,0.157,0.608,0.519,0.608,0.92v12.475
							c0,0.336-0.168,0.649-0.448,0.834C76.885,102.286,76.693,102.342,76.5,102.342z M65,95.361l10.5,4.469V89.529L65,85.06V95.361
							z"/>
					</g>
				</g>
			</g>
			<g>
				<g>
					<g>
						<path class="st5" d="M51.5,89.868c-0.133,0-0.267-0.027-0.392-0.08l-12.5-5.32C38.239,84.311,38,83.948,38,83.547
							s0.239-0.763,0.608-0.92l12.5-5.32c0.25-0.106,0.533-0.106,0.783,0l12.5,5.32C64.761,82.784,65,83.146,65,83.547
							s-0.239,0.763-0.608,0.92l-12.5,5.32C51.767,89.841,51.633,89.868,51.5,89.868z M41.554,83.547l9.946,4.233l9.946-4.233
							L51.5,79.314L41.554,83.547z"/>
					</g>
				</g>
				<g>
					<g>
						<path class="st5" d="M51.5,102.342c-0.193,0-0.385-0.056-0.552-0.166c-0.28-0.185-0.448-0.498-0.448-0.834V88.868
							c0-0.401,0.239-0.763,0.608-0.92l12.5-5.32c0.307-0.132,0.662-0.1,0.943,0.086C64.832,82.898,65,83.211,65,83.547v12.475
							c0,0.401-0.239,0.763-0.608,0.92l-12.5,5.32C51.766,102.316,51.633,102.342,51.5,102.342z M52.5,89.529V99.83L63,95.361V85.06
							L52.5,89.529z M64,96.022h0.01H64z"/>
					</g>
				</g>
				<g>
					<g>
						<path class="st5" d="M51.5,102.342c-0.133,0-0.266-0.026-0.392-0.08l-12.5-5.32C38.239,96.786,38,96.423,38,96.022V83.547
							c0-0.336,0.168-0.649,0.448-0.834c0.28-0.186,0.635-0.218,0.943-0.086l12.5,5.32c0.369,0.157,0.608,0.519,0.608,0.92v12.475
							c0,0.336-0.168,0.649-0.448,0.834C51.885,102.286,51.693,102.342,51.5,102.342z M40,95.361l10.5,4.469V89.529L40,85.06V95.361
							z"/>
					</g>
				</g>
			</g>
			<g>
				<g>
					<g>
						<path class="st5" d="M87.773,84.025c-0.133,0-0.266-0.026-0.392-0.08l-11.273-4.798c-0.369-0.157-0.608-0.519-0.608-0.92
							V66.414L64,61.52l-11.5,4.895v11.813c0,0.401-0.239,0.763-0.608,0.92l-11.273,4.798c-0.267,0.114-0.572,0.107-0.833-0.022
							c-0.261-0.128-0.453-0.364-0.527-0.645c-0.548-2.101-0.826-4.271-0.826-6.453c0-14.07,11.469-25.517,25.567-25.517
							s25.567,11.447,25.567,25.517c0,2.182-0.278,4.353-0.826,6.453c-0.074,0.281-0.266,0.517-0.527,0.645
							C88.075,83.991,87.924,84.025,87.773,84.025z M77.5,77.566l9.571,4.074c0.329-1.58,0.496-3.194,0.496-4.815
							c0-12.967-10.572-23.517-23.567-23.517s-23.567,10.55-23.567,23.517c0,1.621,0.167,3.236,0.496,4.815l9.571-4.074V65.753
							c0-0.401,0.239-0.763,0.608-0.92l12.5-5.32c0.25-0.106,0.533-0.106,0.783,0l12.5,5.32c0.369,0.157,0.608,0.519,0.608,0.92
							V77.566z M51.5,78.228h0.01H51.5z"/>
					</g>
				</g>
				<g>
					<g>
						<path class="st5" d="M64,102.342c-3.123,0-6.182-0.561-9.092-1.667c-0.382-0.145-0.637-0.507-0.645-0.915
							c-0.008-0.408,0.233-0.78,0.608-0.939l8.737-3.718c0.25-0.106,0.533-0.106,0.783,0l8.737,3.718
							c0.375,0.16,0.616,0.532,0.608,0.939c-0.008,0.408-0.263,0.771-0.645,0.915C70.182,101.782,67.123,102.342,64,102.342z
							 M58.136,99.605c3.818,0.979,7.91,0.979,11.729,0L64,97.109L58.136,99.605z"/>
					</g>
				</g>
			</g>
		</g>
		<g>
			<g>
				<path class="st5" d="M103.783,115H68c-2.757,0-5-2.239-5-4.992v-8.666c0-0.552,0.448-1,1-1s1,0.448,1,1v8.666
					c0,1.65,1.346,2.992,3,2.992h35.783c1.654,0,3-1.342,3-2.992V90.797c0-0.552,0.448-1,1-1s1,0.448,1,1v19.211
					C108.783,112.761,106.54,115,103.783,115z"/>
			</g>
		</g>
		<g>
			<g>
				<path class="st5" d="M60,115H24.217c-2.757,0-5-2.239-5-4.992V90.797c0-0.552,0.448-1,1-1s1,0.448,1,1v19.211
					c0,1.65,1.346,2.992,3,2.992H60c1.654,0,3-1.342,3-2.992v-8.666c0-0.552,0.448-1,1-1s1,0.448,1,1v8.666
					C65,112.761,62.757,115,60,115z"/>
			</g>
		</g>
		<g>
			<g>
				<g>
					<path class="st5" d="M64,23.462c-0.133,0-0.267-0.027-0.392-0.08l-9.941-4.231c-0.369-0.157-0.608-0.519-0.608-0.92
						s0.239-0.763,0.608-0.92l9.941-4.231c0.25-0.106,0.533-0.106,0.783,0l9.941,4.231c0.369,0.157,0.608,0.519,0.608,0.92
						s-0.239,0.763-0.608,0.92l-9.941,4.231C64.267,23.435,64.133,23.462,64,23.462z M56.613,18.231L64,21.375l7.387-3.144
						L64,15.087L56.613,18.231z"/>
				</g>
			</g>
			<g>
				<g>
					<path class="st5" d="M64,33.383c-0.193,0-0.385-0.056-0.552-0.166C63.168,33.032,63,32.719,63,32.383v-9.921
						c0-0.401,0.239-0.763,0.608-0.92l9.941-4.231c0.307-0.132,0.663-0.1,0.943,0.086c0.28,0.185,0.448,0.498,0.448,0.834v9.921
						c0,0.401-0.239,0.763-0.608,0.92l-9.941,4.231C64.266,33.356,64.133,33.383,64,33.383z M65,23.123v7.748l7.941-3.38v-7.748
						L65,23.123z M73.941,28.152h0.01H73.941z"/>
				</g>
			</g>
			<g>
				<g>
					<path class="st5" d="M64,33.383c-0.133,0-0.266-0.026-0.392-0.08l-9.941-4.231c-0.369-0.157-0.608-0.519-0.608-0.92v-9.921
						c0-0.336,0.168-0.649,0.448-0.834c0.281-0.186,0.635-0.218,0.943-0.086l9.941,4.231C64.761,21.699,65,22.061,65,22.462v9.921
						c0,0.336-0.168,0.649-0.448,0.834C64.385,33.327,64.193,33.383,64,33.383z M55.059,27.491L63,30.871v-7.748l-7.941-3.38V27.491
						z"/>
				</g>
			</g>
		</g>
		<g>
			<g>
				<g>
					<path class="st5" d="M100,29.152c-0.133,0-0.267-0.027-0.392-0.08l-9.941-4.231c-0.369-0.157-0.608-0.519-0.608-0.92
						s0.239-0.763,0.608-0.92l9.941-4.231c0.25-0.106,0.533-0.106,0.783,0l9.941,4.231c0.369,0.157,0.608,0.519,0.608,0.92
						s-0.239,0.763-0.608,0.92l-9.941,4.231C100.267,29.125,100.133,29.152,100,29.152z M92.613,23.921L100,27.065l7.387-3.144
						L100,20.777L92.613,23.921z"/>
				</g>
			</g>
			<g>
				<g>
					<path class="st5" d="M100,39.073c-0.193,0-0.385-0.056-0.552-0.166C99.168,38.722,99,38.409,99,38.073v-9.921
						c0-0.401,0.239-0.763,0.608-0.92l9.941-4.231c0.307-0.132,0.662-0.099,0.943,0.086c0.28,0.185,0.448,0.498,0.448,0.834v9.921
						c0,0.401-0.239,0.763-0.608,0.92l-9.941,4.231C100.266,39.046,100.133,39.073,100,39.073z M101,28.813v7.748l7.941-3.38v-7.748
						L101,28.813z M109.941,33.842h0.01H109.941z"/>
				</g>
			</g>
			<g>
				<g>
					<path class="st5" d="M100,39.073c-0.133,0-0.266-0.026-0.392-0.08l-9.941-4.231c-0.369-0.157-0.608-0.519-0.608-0.92v-9.921
						c0-0.336,0.168-0.649,0.448-0.834s0.635-0.218,0.943-0.086l9.941,4.231c0.369,0.157,0.608,0.519,0.608,0.92v9.921
						c0,0.336-0.168,0.649-0.448,0.834C100.385,39.017,100.193,39.073,100,39.073z M91.059,33.181L99,36.561v-7.748l-7.941-3.38
						V33.181z"/>
				</g>
			</g>
		</g>
		<g>
			<g>
				<g>
					<path class="st5" d="M28,29.152c-0.133,0-0.267-0.027-0.392-0.08l-9.941-4.231c-0.369-0.157-0.608-0.519-0.608-0.92
						s0.239-0.763,0.608-0.92l9.941-4.231c0.25-0.106,0.533-0.106,0.783,0l9.941,4.231c0.369,0.157,0.608,0.519,0.608,0.92
						s-0.239,0.763-0.608,0.92l-9.941,4.231C28.267,29.125,28.133,29.152,28,29.152z M20.613,23.921L28,27.065l7.387-3.144
						L28,20.777L20.613,23.921z"/>
				</g>
			</g>
			<g>
				<g>
					<path class="st5" d="M28,39.073c-0.193,0-0.385-0.056-0.552-0.166C27.168,38.722,27,38.409,27,38.073v-9.921
						c0-0.401,0.239-0.763,0.608-0.92l9.941-4.231c0.307-0.132,0.662-0.099,0.943,0.086c0.28,0.185,0.448,0.498,0.448,0.834v9.921
						c0,0.401-0.239,0.763-0.608,0.92l-9.941,4.231C28.266,39.046,28.133,39.073,28,39.073z M29,28.813v7.748l7.941-3.38v-7.748
						L29,28.813z M37.941,33.842h0.01H37.941z"/>
				</g>
			</g>
			<g>
				<g>
					<path class="st5" d="M28,39.073c-0.133,0-0.266-0.026-0.392-0.08l-9.941-4.231c-0.369-0.157-0.608-0.519-0.608-0.92v-9.921
						c0-0.336,0.168-0.649,0.448-0.834s0.635-0.218,0.943-0.086l9.941,4.231C28.761,27.389,29,27.751,29,28.152v9.921
						c0,0.336-0.168,0.649-0.448,0.834C28.385,39.017,28.193,39.073,28,39.073z M19.059,33.181L27,36.561v-7.748l-7.941-3.38V33.181
						z"/>
				</g>
			</g>
		</g>
		<g>
			<g>
				<path class="st5" d="M64,47.32c-0.552,0-1-0.448-1-1v-2c0-0.552,0.448-1,1-1s1,0.448,1,1v2C65,46.872,64.552,47.32,64,47.32z
					 M64,41.32c-0.552,0-1-0.448-1-1v-2c0-0.552,0.448-1,1-1s1,0.448,1,1v2C65,40.872,64.552,41.32,64,41.32z"/>
			</g>
		</g>
		<g>
			<g>
				<path class="st5" d="M41.446,53.495c-0.273,0-0.544-0.111-0.742-0.329l-1.342-1.483c-0.371-0.409-0.339-1.042,0.07-1.412
					c0.41-0.371,1.042-0.339,1.412,0.07l1.342,1.483c0.371,0.409,0.339,1.042-0.07,1.412C41.925,53.41,41.685,53.495,41.446,53.495z
					 M37.419,49.047c-0.273,0-0.544-0.111-0.742-0.329l-1.342-1.483c-0.371-0.41-0.339-1.042,0.071-1.413
					c0.41-0.37,1.042-0.339,1.413,0.071l1.342,1.483c0.371,0.41,0.339,1.042-0.071,1.413C37.898,48.961,37.659,49.047,37.419,49.047
					z M33.394,44.598c-0.273,0-0.544-0.111-0.742-0.329l-1.342-1.483c-0.371-0.409-0.339-1.042,0.07-1.412
					c0.41-0.371,1.042-0.339,1.412,0.07l1.342,1.483c0.371,0.409,0.339,1.042-0.07,1.412C33.873,44.513,33.633,44.598,33.394,44.598
					z"/>
			</g>
		</g>
		<g>
			<g>
				<path class="st5" d="M86.763,53.322c-0.244,0-0.488-0.088-0.681-0.268c-0.405-0.375-0.428-1.008-0.052-1.413l1.361-1.465
					c0.376-0.405,1.009-0.428,1.413-0.052c0.405,0.375,0.428,1.008,0.052,1.413l-1.361,1.465
					C87.298,53.214,87.031,53.322,86.763,53.322z M90.847,48.926c-0.244,0-0.488-0.088-0.681-0.268
					c-0.405-0.375-0.428-1.008-0.052-1.413l1.361-1.465c0.375-0.404,1.009-0.428,1.413-0.052c0.405,0.375,0.428,1.008,0.052,1.413
					l-1.361,1.465C91.382,48.819,91.115,48.926,90.847,48.926z M94.93,44.53c-0.244,0-0.488-0.088-0.681-0.268
					c-0.405-0.375-0.428-1.008-0.052-1.413l1.361-1.465c0.376-0.405,1.009-0.428,1.413-0.052c0.405,0.375,0.428,1.008,0.052,1.413
					l-1.361,1.465C95.466,44.423,95.198,44.53,94.93,44.53z"/>
			</g>
		</g>
	</g>
</g>
</svg>
