<?xml version="1.0" encoding="utf-8"?>
<!-- Generator: Adobe Illustrator 22.0.0, SVG Export Plug-In . SVG Version: 6.00 Build 0)  -->
<svg version="1.1" id="MARKET_RESEARCH_ICON_SET" xmlns="http://www.w3.org/2000/svg" xmlns:xlink="http://www.w3.org/1999/xlink"
	 x="0px" y="0px" viewBox="0 0 128 128" style="enable-background:new 0 0 128 128;" xml:space="preserve">
<style type="text/css">
	.st0{fill:#C2D5EC;}
	.st1{fill:#61E1FF;}
	.st2{fill:#7184AF;}
	.st3{fill:#F8F8F8;}
	.st4{fill:#3F4D81;}
	.st5{fill:#3F4D80;}
	.st6{fill:#E9EAEB;}
	.st7{fill:#F79559;}
	.st8{fill:#FFA85A;}
</style>
<g>
	<g>
		<rect x="0" y="40.207" class="st0" width="128" height="43.005"/>
		<g>
			<path class="st2" d="M15.833,49.424H9.864c-2.414,0-4.371,1.957-4.371,4.371v29.417h14.712V53.795
				C20.204,51.381,18.247,49.424,15.833,49.424z"/>
			<g>
				<path class="st2" d="M33.221,63.155c0.222,0.101,0.448,0.193,0.679,0.277c0-0.004,0-0.008,0-0.012
					c-0.229-0.084-0.459-0.168-0.679-0.269V63.155z"/>
				<path class="st2" d="M28.025,56.978c-0.037-0.004-0.07-0.006-0.11-0.012c-0.916-0.138-1.575-0.526-2.021-1.053V70.25
					c1.828-1.253,3.432-1.856,3.432-1.856l0,0.001l3.895-1.921v-3.319C30.677,61.993,28.742,59.731,28.025,56.978z"/>
				<path class="st2" d="M27.007,50.116c0.104,0,0.204,0.009,0.302,0.024v-4.665c0-4.013,3.259-7.266,7.279-7.266h5.058
					c0.356,0,0.669,0.046,0.96,0.114v-0.578c0-2.41-1.957-4.363-4.371-4.363h-5.969c-2.414,0-4.371,1.954-4.371,4.363v12.729
					C26.408,50.128,27.007,50.116,27.007,50.116z"/>
			</g>
			<path class="st2" d="M117.943,54.921h-6.712c-2.209,0-4,1.791-4,4v24.291h14.712V58.921
				C121.943,56.712,120.152,54.921,117.943,54.921z"/>
			<g>
				<path class="st2" d="M98.679,68.394L98.679,68.394c0,0,1.284,0.484,2.862,1.481V56.414c-0.39,0.264-0.863,0.463-1.451,0.552
					c-0.04,0.006-0.073,0.008-0.11,0.012c-0.718,2.753-2.651,5.014-5.195,6.176v3.32L98.679,68.394z"/>
				<path class="st2" d="M94.104,63.42c0.001,0.101,0.008,0.202,0.008,0.303c0,0.001,0,0.003,0,0.004c0-0.001,0-0.003,0-0.004
					c0-0.098-0.006-0.194-0.007-0.292c0.231-0.084,0.458-0.176,0.681-0.278v-0.003C94.564,63.252,94.334,63.336,94.104,63.42z"/>
				<path class="st2" d="M88.358,38.209h5.058c2.524,0,3.326,1.98,3.326,1.98s3.954-1.98,3.954,5.287v4.664
					c0.098-0.014,0.199-0.024,0.302-0.024c0,0,0.24,0.003,0.543,0.088V28.933c0-2.205-1.791-3.993-4-3.993H90.83
					c-2.209,0-4,1.788-4,3.993v9.438C87.322,38.265,87.833,38.209,88.358,38.209z"/>
			</g>
			<g>
				<path class="st2" d="M80.777,50.116c0.104,0,0.204,0.009,0.302,0.024c0,0,0.193,0.21,0.48,0.447v-2.54
					c-3.718-4.146-8.888-6.963-14.712-7.663v3.372c2.261,0.164,3.01,1.949,3.01,1.949s3.954-1.98,3.954,5.287v4.664
					c0.098-0.014,0.199-0.024,0.302-0.024c0,0,1.834,0,1.834,1.839v1.846c0,1.507-0.822,2.875-2.742,3.164
					c-0.04,0.006-0.073,0.008-0.11,0.012c-0.718,2.753-2.651,5.014-5.195,6.176v3.32l3.894,1.92l0,0c0,0,1.649,0.623,3.508,1.921
					c-0.085-0.06-0.172-0.128-0.257-0.184c1.343-3.378,4.578-5.513,6.513-6.535V56.936c-1.825-0.332-2.616-1.663-2.616-3.135v-1.846
					C78.943,50.116,80.777,50.116,80.777,50.116z"/>
				<path class="st2" d="M81.559,39.315V20.493c0-2.205-1.791-3.993-4-3.993h-6.712c-2.209,0-4,1.788-4,3.993v13.312
					C72.307,34.316,77.34,36.285,81.559,39.315z"/>
			</g>
			<g>
				<path class="st2" d="M61.158,33.805v-4.872c0-2.205-1.791-3.993-4-3.993h-6.712c-2.209,0-4,1.788-4,3.993v10.385
					C50.665,36.288,55.698,34.317,61.158,33.805z"/>
				<path class="st2" d="M53.892,55.632c0.104,0,0.204,0.01,0.302,0.024v-4.665c0-3.907,3.091-7.084,6.964-7.25v-3.357
					c-5.824,0.7-10.994,3.517-14.712,7.663v2.54c0.287-0.237,0.48-0.447,0.48-0.447c0.098-0.014,0.199-0.024,0.302-0.024
					c0,0,1.834,0,1.834,1.839v1.846c0,1.472-0.792,2.803-2.616,3.135v12.176c1.935,1.022,5.17,3.157,6.513,6.535
					c-0.084,0.056-0.172,0.124-0.257,0.184c1.859-1.298,3.509-1.921,3.509-1.921l0,0.001l3.895-1.921V68.67
					c-2.544-1.162-4.479-3.423-5.196-6.177c-0.037-0.004-0.07-0.006-0.11-0.012c-1.919-0.29-2.742-1.657-2.742-3.164v-1.846
					C52.058,55.632,53.892,55.632,53.892,55.632z"/>
			</g>
		</g>
		<g>
			<g>
				<path class="st4" d="M15.833,49.424h-3c2.414,0,4.371,1.954,4.371,4.363v29.425h3V53.787
					C20.204,51.377,18.247,49.424,15.833,49.424z"/>
			</g>
			<g>
				<path class="st4" d="M36.234,33.382h-3c2.414,0,4.371,1.953,4.371,4.363v45.467h3V37.745
					C40.605,35.335,38.648,33.382,36.234,33.382z"/>
			</g>
			<g>
				<path class="st4" d="M117.943,54.921h-3c2.209,0,4,1.788,4,3.993v24.298h3V58.913C121.943,56.708,120.152,54.921,117.943,54.921
					z"/>
			</g>
			<g>
				<path class="st4" d="M97.542,24.941h-3c2.209,0,4,1.787,4,3.993v54.278h3V28.933C101.542,26.728,99.751,24.941,97.542,24.941z"
					/>
			</g>
			<g>
				<path class="st4" d="M77.559,16.5h-3c2.209,0,4,1.787,4,3.993v62.719h3V20.493C81.559,18.288,79.768,16.5,77.559,16.5z"/>
			</g>
			<g>
				<path class="st4" d="M57.158,24.941h-3c2.209,0,4,1.787,4,3.993v54.278h3V28.933C61.158,26.728,59.367,24.941,57.158,24.941z"/>
			</g>
		</g>
		<g>
			<g>
				<path class="st6" d="M60.106,68.667v3.323l3.897,7.376L67.9,71.99v-3.323c-1.189,0.542-2.505,0.851-3.897,0.851
					C62.611,69.518,61.295,69.208,60.106,68.667z"/>
			</g>
			<g>
				<path class="st3" d="M74.113,55.632c-0.104,0-0.204,0.009-0.302,0.023v-4.664c0-7.267-3.954-5.287-3.954-5.287
					s-0.802-1.98-3.326-1.98h-5.058c-4.02,0-7.279,3.253-7.279,7.266v4.665c-0.098-0.014-0.198-0.023-0.302-0.023
					c0,0-1.834,0-1.834,1.839v1.846c0,1.507,0.822,2.875,2.742,3.164c0.04,0.006,0.073,0.008,0.11,0.012
					c1.052,4.038,4.718,7.023,9.093,7.023s8.041-2.985,9.093-7.023c0.037-0.004,0.07-0.006,0.11-0.012
					c1.919-0.29,2.742-1.657,2.742-3.164v-1.846C75.947,55.632,74.113,55.632,74.113,55.632z"/>
			</g>
			<g>
				<path class="st5" d="M69.857,45.705c0,0-0.802-1.98-3.326-1.98h-5.058c-4.02,0-7.279,3.253-7.279,7.266v4.664l0,0
					c0,0,3.112,3.417,3.112-1.703c0-1.77,1.437-3.204,3.21-3.204h6.974c1.773,0,3.21,1.434,3.21,3.204
					c0,5.12,3.112,1.703,3.112,1.703v-4.664C73.811,43.725,69.857,45.705,69.857,45.705z"/>
			</g>
			<g>
				<path class="st8" d="M71.794,73.91L71.794,73.91L67.9,71.99l-3.897,7.376l0.001,0.001l-0.002,0.002l-0.001-0.001l0.002-0.002
					l-3.897-7.376l-3.895,1.921l0-0.001c0,0-6.055,2.278-8.04,7.228c4.183,3.791,9.737,6.101,15.832,6.101
					c6.095,0,11.649-2.31,15.832-6.101C77.85,76.187,71.794,73.91,71.794,73.91z"/>
			</g>
		</g>
		<g>
			<g>
				<path class="st6" d="M94.112,63.723c0,1.615-0.134,3.199-0.38,4.745l1.054-1.994v-3.32c-0.222,0.102-0.45,0.193-0.681,0.278
					C94.106,63.529,94.112,63.625,94.112,63.723z"/>
			</g>
			<g>
				<path class="st6" d="M87.318,67.092c0.158-1.101,0.244-2.224,0.244-3.369c0-0.113-0.007-0.225-0.009-0.338
					c-0.19-0.072-0.379-0.147-0.563-0.23v3.319l0,0h0L87.318,67.092z"/>
			</g>
			<g>
				<path class="st7" d="M87.318,67.092l-0.327-0.618l-3.895,1.921l0-0.001c0,0-6.075,2.285-8.049,7.253
					c1.775,1.185,3.784,3.007,4.778,5.5C83.79,77.557,86.521,72.636,87.318,67.092z"/>
			</g>
			<g>
				<path class="st7" d="M87.539,82.457l0.756,0.755h19.234c-0.081-1.592-0.173-3.092-0.173-4.388c0-7.19-8.676-10.43-8.676-10.43
					l0,0l-3.894-1.92l-1.054,1.994C92.897,73.704,90.712,78.49,87.539,82.457z"/>
			</g>
			<g>
				<path class="st3" d="M81.079,50.139c-0.098-0.014-0.198-0.023-0.302-0.023c0,0-1.834,0-1.834,1.839v1.846
					c0,1.507,0.822,2.875,2.742,3.164c0.04,0.006,0.073,0.008,0.11,0.012c0.718,2.753,2.652,5.015,5.196,6.177v-0.004
					c0.183,0.083,0.374,0.15,0.562,0.222c-0.068-4.621-1.469-8.918-3.84-12.526C82.841,52.073,81.079,50.139,81.079,50.139z"/>
			</g>
			<g>
				<path class="st3" d="M97.584,48.437c0-1.769-1.437-3.204-3.21-3.204H87.73c3.936,5.026,6.306,11.33,6.374,18.187
					c0.23-0.084,0.46-0.168,0.681-0.269v0.003c2.544-1.162,4.478-3.423,5.195-6.176c0.037-0.004,0.07-0.006,0.11-0.012
					c1.92-0.29,2.742-1.657,2.742-3.164v-1.846c0-1.839-1.834-1.839-1.834-1.839c-0.104,0-0.204,0.009-0.302,0.023
					C100.696,50.139,97.584,53.557,97.584,48.437z"/>
			</g>
			<g>
				<path class="st5" d="M87.73,45.233h6.644c1.773,0,3.21,1.434,3.21,3.204c0,5.12,3.112,1.703,3.112,1.703v-4.664
					c0-7.267-3.954-5.287-3.954-5.287s-0.802-1.98-3.326-1.98h-5.058c-2.078,0-3.948,0.874-5.274,2.267
					C84.804,41.884,86.359,43.483,87.73,45.233z"/>
			</g>
		</g>
		<g>
			<g>
				<path class="st6" d="M33.893,63.723c0-0.098,0.006-0.194,0.007-0.292c-0.231-0.084-0.457-0.176-0.679-0.277v3.319l1.046,1.98
					C34.023,66.912,33.893,65.333,33.893,63.723z"/>
			</g>
			<g>
				<path class="st6" d="M40.443,63.723c0,1.145,0.086,2.27,0.245,3.371l0.328-0.62v-3.32c-0.184,0.084-0.374,0.159-0.564,0.231
					C40.45,63.498,40.443,63.61,40.443,63.723z"/>
			</g>
			<g>
				<path class="st7" d="M33.221,66.474l-3.895,1.921l0-0.001c0,0-8.676,3.239-8.676,10.43c0,1.297-0.092,2.797-0.173,4.388h20.614
					c-3.514-4.112-5.939-9.178-6.823-14.758L33.221,66.474z"/>
			</g>
			<g>
				<path class="st7" d="M52.959,75.647c-1.974-4.968-8.049-7.253-8.049-7.253l0,0l-3.894-1.92l-0.328,0.621
					c0.798,5.543,3.528,10.463,7.493,14.052C49.175,78.654,51.184,76.832,52.959,75.647z"/>
			</g>
			<g>
				<path class="st5" d="M30.421,48.437c0-1.769,1.437-3.204,3.21-3.204h6.644c1.446-1.847,3.103-3.52,4.936-4.984
					c-1.068-0.637-2.238-0.06-2.238-0.06s-0.802-1.98-3.326-1.98h-5.058c-4.02,0-7.279,3.253-7.279,7.266v4.665
					C27.309,50.139,30.421,53.557,30.421,48.437z"/>
			</g>
			<g>
				<path class="st3" d="M41.015,63.151v0.003c2.544-1.162,4.478-3.423,5.195-6.176c0.037-0.004,0.07-0.006,0.11-0.012
					c1.92-0.29,2.742-1.657,2.742-3.164v-1.846c0-1.839-1.834-1.839-1.834-1.839c-0.104,0-0.204,0.009-0.302,0.023
					c0,0-1.762,1.933-2.634,0.708c-2.371,3.608-3.772,7.905-3.84,12.527C40.641,63.301,40.832,63.234,41.015,63.151z"/>
			</g>
			<g>
				<path class="st3" d="M33.9,63.419c0.068-6.857,2.438-13.161,6.374-18.187h-6.644c-1.773,0-3.21,1.434-3.21,3.204
					c0,5.12-3.112,1.703-3.112,1.703c-0.098-0.014-0.199-0.023-0.302-0.023c0,0-1.834,0-1.834,1.839v1.846
					c0,1.507,0.822,2.875,2.742,3.164c0.04,0.006,0.073,0.008,0.11,0.012c0.718,2.753,2.652,5.015,5.196,6.177v-0.004
					C33.442,63.251,33.671,63.335,33.9,63.419z"/>
			</g>
		</g>
		<g>
			<g>
				<path class="st1" d="M64.003,33.669c-16.629,0-30.11,13.456-30.11,30.054s13.481,30.054,30.11,30.054
					c16.629,0,30.11-13.456,30.11-30.054S80.632,33.669,64.003,33.669z M64.003,87.24c-13.012,0-23.56-10.529-23.56-23.516
					s10.548-23.516,23.56-23.516s23.56,10.529,23.56,23.516S77.014,87.24,64.003,87.24z"/>
			</g>
			<g>
				<path class="st3" d="M37.893,63.723c0-15.927,12.414-28.952,28.11-29.981c-0.662-0.043-1.327-0.073-2-0.073
					c-16.629,0-30.11,13.456-30.11,30.054s13.481,30.054,30.11,30.054c0.673,0,1.338-0.03,2-0.073
					C50.307,92.676,37.893,79.65,37.893,63.723z"/>
			</g>
			<g>
				<path class="st7" d="M92.379,89.259c0.349-0.348,0.751-0.606,1.175-0.797l-6.016-6.005c-1.407,1.758-3.006,3.355-4.768,4.759
					l6.016,6.005c0.191-0.424,0.45-0.825,0.799-1.173L92.379,89.259z"/>
			</g>
			<g>
				<path class="st5" d="M89.561,97.6l12.779,12.755c1.529,1.527,4.009,1.527,5.539,0l2.842-2.837c1.529-1.527,1.529-4.002,0-5.528
					L97.942,89.234c-1.529-1.527-4.009-1.527-5.539,0l-2.842,2.837C88.031,93.598,88.031,96.073,89.561,97.6z"/>
			</g>
		</g>
	</g>
	<g>
		<g>
			<g>
				<g>
					<path class="st5" d="M20.204,84.212H5.492c-0.552,0-1-0.447-1-1V53.795c0-2.962,2.41-5.371,5.372-5.371h5.969
						c2.961,0,5.371,2.409,5.371,5.371v29.417C21.204,83.765,20.756,84.212,20.204,84.212z M6.492,82.212h12.712V53.795
						c0-1.858-1.512-3.371-3.371-3.371H9.864c-1.859,0-3.372,1.513-3.372,3.371V82.212z"/>
				</g>
			</g>
			<g>
				<g>
					<g>
						<path class="st5" d="M33.9,64.432c-0.115,0-0.231-0.02-0.342-0.061c-0.256-0.093-0.507-0.195-0.753-0.308
							c-0.355-0.163-0.583-0.519-0.583-0.909V63.15c0-0.34,0.173-0.657,0.459-0.841c0.287-0.185,0.646-0.211,0.956-0.069
							c0.196,0.09,0.4,0.163,0.603,0.237c0.394,0.145,0.662,0.521,0.662,0.941c0,0.041-0.003,0.096-0.008,0.137
							c-0.038,0.302-0.211,0.57-0.471,0.729C34.262,64.382,34.082,64.432,33.9,64.432z M32.908,63.308l0.229,0.028L32.908,63.308z"
							/>
					</g>
				</g>
				<g>
					<g>
						<path class="st5" d="M25.894,71.25c-0.16,0-0.32-0.038-0.466-0.115c-0.328-0.173-0.534-0.514-0.534-0.885V55.912
							c0-0.42,0.262-0.795,0.656-0.939c0.393-0.145,0.836-0.027,1.107,0.294c0.32,0.379,0.793,0.617,1.407,0.711
							c0.395,0.06,0.827,0.36,0.928,0.748c0.639,2.452,2.332,4.464,4.644,5.519c0.356,0.163,0.585,0.519,0.585,0.91v3.319
							c0,0.381-0.216,0.729-0.558,0.896l-3.896,1.921c-0.035,0.018-0.07,0.032-0.106,0.046c-0.116,0.044-1.55,0.604-3.203,1.738
							C26.29,71.191,26.092,71.25,25.894,71.25z M26.894,57.742v10.714c1.174-0.654,2.03-0.979,2.08-0.998l3.248-1.605v-2.077
							c-2.373-1.266-4.149-3.378-4.983-5.929C27.12,57.815,27.006,57.781,26.894,57.742z M28.024,56.978h0.01H28.024z"/>
					</g>
				</g>
				<g>
					<g>
						<path class="st5" d="M25.894,51.474c-0.161,0-0.323-0.039-0.47-0.117c-0.326-0.174-0.53-0.514-0.53-0.883V37.745
							c0-2.957,2.41-5.363,5.371-5.363h5.969c2.962,0,5.372,2.406,5.372,5.363v0.577c0,0.305-0.139,0.594-0.378,0.783
							c-0.239,0.189-0.553,0.261-0.848,0.19c-0.257-0.06-0.49-0.087-0.733-0.087h-5.058c-3.462,0-6.279,2.811-6.279,6.266v4.665
							c0,0.291-0.127,0.567-0.347,0.758s-0.515,0.272-0.8,0.231c-0.044-0.007-0.089-0.012-0.135-0.013
							c-0.104,0.008-0.373,0.052-0.574,0.188C26.284,51.416,26.089,51.474,25.894,51.474z M30.265,34.382
							c-1.859,0-3.371,1.509-3.371,3.363v4.677c1.219-3.051,4.208-5.213,7.694-5.213h4.975c-0.258-1.601-1.652-2.827-3.329-2.827
							H30.265z"/>
					</g>
				</g>
			</g>
			<g>
				<g>
					<path class="st5" d="M121.943,84.212h-14.712c-0.552,0-1-0.447-1-1V58.921c0-2.757,2.243-5,5-5h6.712c2.757,0,5,2.243,5,5
						v24.291C122.943,83.765,122.495,84.212,121.943,84.212z M108.231,82.212h12.712V58.921c0-1.654-1.346-3-3-3h-6.712
						c-1.654,0-3,1.346-3,3V82.212z"/>
				</g>
			</g>
			<g>
				<g>
					<g>
						<path class="st5" d="M101.542,70.875c-0.186,0-0.372-0.052-0.534-0.154c-1.462-0.925-2.67-1.388-2.682-1.392
							c-0.03-0.012-0.061-0.024-0.089-0.039l-3.894-1.92c-0.341-0.168-0.558-0.516-0.558-0.896v-3.32
							c0-0.392,0.229-0.747,0.584-0.91c2.312-1.055,4.004-3.066,4.643-5.518c0.105-0.403,0.449-0.699,0.863-0.742
							c0.465-0.066,0.805-0.195,1.105-0.397c0.306-0.208,0.702-0.229,1.029-0.055c0.327,0.173,0.531,0.513,0.531,0.883v13.461
							c0,0.364-0.198,0.7-0.518,0.876C101.874,70.834,101.708,70.875,101.542,70.875z M99.119,67.501
							c0.374,0.134,0.893,0.378,1.422,0.654v-9.687c-0.905,2.271-2.58,4.145-4.756,5.306v2.077l3.336,1.646L99.119,67.501z"/>
					</g>
				</g>
				<g>
					<g>
						<path class="st5" d="M94.112,64.728c-0.552,0-1-0.447-1-1c0-0.006,0-0.012,0-0.017l-0.007-0.281
							c-0.004-0.424,0.259-0.804,0.657-0.949c0.206-0.075,0.413-0.149,0.61-0.239c0.5-0.229,1.092-0.008,1.322,0.492
							c0.23,0.5,0.013,1.092-0.486,1.324c-0.005,0.003-0.011,0.005-0.016,0.008l0,0.001c-0.031,0.014-0.062,0.027-0.093,0.041
							c-0.026,0.012-0.052,0.022-0.078,0.034C94.865,64.487,94.517,64.728,94.112,64.728z"/>
					</g>
				</g>
				<g>
					<g>
						<path class="st5" d="M101.542,51.204c-0.09,0-0.181-0.012-0.27-0.037c-0.163-0.046-0.295-0.051-0.297-0.051
							c-0.029,0-0.081,0.005-0.131,0.013c-0.285,0.04-0.58-0.042-0.8-0.231c-0.22-0.19-0.347-0.467-0.347-0.758v-4.664
							c0-2.3-0.442-3.893-1.213-4.369c-0.574-0.354-1.286-0.028-1.293-0.023c-0.25,0.125-0.539,0.14-0.801,0.041
							c-0.261-0.099-0.469-0.302-0.574-0.56c-0.056-0.128-0.644-1.355-2.399-1.355h-5.058c-0.441,0-0.885,0.047-1.319,0.14
							c-0.295,0.066-0.603-0.01-0.838-0.2c-0.235-0.189-0.371-0.476-0.371-0.777v-9.438c0-2.753,2.243-4.993,5-4.993h6.712
							c2.757,0,5,2.24,5,4.993v21.271c0,0.312-0.146,0.607-0.396,0.797C101.97,51.134,101.757,51.204,101.542,51.204z
							 M97.863,38.944c0.534,0,1.12,0.12,1.671,0.461c0.388,0.239,0.724,0.563,1.007,0.97V28.934c0-1.65-1.346-2.993-3-2.993H90.83
							c-1.654,0-3,1.343-3,2.993v8.292c0.176-0.011,0.353-0.017,0.528-0.017h5.058c2.032,0,3.191,1.032,3.771,1.798
							C97.397,38.968,97.625,38.944,97.863,38.944z"/>
					</g>
				</g>
			</g>
			<g>
				<g>
					<g>
						<path class="st5" d="M75.302,76.831c-0.198,0-0.397-0.059-0.571-0.18c-1.724-1.203-3.275-1.8-3.291-1.807l-3.982-1.959
							c-0.341-0.168-0.558-0.516-0.558-0.896V68.67c0-0.392,0.229-0.747,0.584-0.909c2.312-1.057,4.004-3.068,4.643-5.519
							c0.103-0.395,0.434-0.687,0.837-0.739c1.654-0.246,1.982-1.323,1.982-2.186v-1.847c0-0.729-0.522-0.839-0.834-0.839
							c-0.056,0-0.111,0.007-0.164,0.014c-0.29,0.042-0.577-0.045-0.795-0.236c-0.218-0.189-0.343-0.465-0.343-0.754v-4.664
							c0-2.301-0.442-3.893-1.213-4.369c-0.575-0.354-1.287-0.028-1.293-0.023c-0.249,0.123-0.536,0.139-0.795,0.043
							c-0.26-0.096-0.468-0.295-0.575-0.551c-0.018-0.038-0.571-1.223-2.161-1.338c-0.523-0.038-0.928-0.473-0.928-0.997v-3.372
							c0-0.286,0.123-0.559,0.336-0.748s0.5-0.281,0.783-0.245c5.909,0.711,11.355,3.548,15.337,7.988
							c0.165,0.184,0.255,0.422,0.255,0.668v2.54c0,0.388-0.224,0.74-0.574,0.904c-0.35,0.166-0.764,0.113-1.063-0.134
							c-0.099-0.081-0.188-0.16-0.266-0.231c-0.473,0.055-0.713,0.333-0.713,0.829v1.847c0,0.832,0.312,1.881,1.795,2.151
							c0.475,0.086,0.821,0.5,0.821,0.983v12.176c0,0.371-0.205,0.711-0.533,0.885c-1.621,0.855-4.435,2.664-5.799,5.451
							c0.125,0.306,0.098,0.666-0.105,0.956C75.928,76.683,75.617,76.831,75.302,76.831z M72.237,73.014
							c0.01,0,1.031,0.392,2.382,1.19c1.508-2.793,4.139-4.661,5.94-5.684V57.697c-1.634-0.604-2.616-2.034-2.616-3.896v-1.847
							c0-1.954,1.491-2.74,2.616-2.83v-0.69c-3.376-3.642-7.843-6.06-12.712-6.895v1.37c1.229,0.32,2.003,1.043,2.446,1.614
							c0.684-0.127,1.556-0.098,2.356,0.396c1.435,0.886,2.162,2.929,2.162,6.07v3.728c1.027,0.25,2.136,1.067,2.136,2.752v1.847
							c0,2.044-1.16,3.553-3.065,4.046c-0.834,2.549-2.609,4.661-4.982,5.927v2.077L72.237,73.014L72.237,73.014z"/>
					</g>
				</g>
				<g>
					<g>
						<path class="st5" d="M81.559,40.314c-0.206,0-0.41-0.063-0.583-0.188c-4.187-3.006-9.104-4.848-14.222-5.326
							c-0.514-0.049-0.907-0.479-0.907-0.996V20.492c0-2.753,2.243-4.992,5-4.992h6.712c2.757,0,5,2.239,5,4.992v18.822
							c0,0.375-0.21,0.719-0.543,0.89C81.872,40.278,81.715,40.314,81.559,40.314z M67.847,32.907
							c4.514,0.558,8.859,2.108,12.712,4.53V20.492c0-1.649-1.346-2.992-3-2.992h-6.712c-1.654,0-3,1.343-3,2.992V32.907z"/>
					</g>
				</g>
			</g>
			<g>
				<g>
					<g>
						<path class="st5" d="M46.446,40.318c-0.156,0-0.312-0.036-0.457-0.11c-0.333-0.171-0.543-0.515-0.543-0.89V28.934
							c0-2.753,2.243-4.993,5-4.993h6.712c2.757,0,5,2.24,5,4.993v4.872c0,0.517-0.393,0.947-0.907,0.996
							c-5.117,0.479-10.035,2.322-14.222,5.329C46.856,40.255,46.652,40.318,46.446,40.318z M50.446,25.94c-1.654,0-3,1.343-3,2.993
							v8.508c3.853-2.424,8.198-3.975,12.712-4.533v-3.975c0-1.65-1.346-2.993-3-2.993H50.446z M61.158,33.806h0.01H61.158z"/>
					</g>
				</g>
				<g>
					<g>
						<path class="st5" d="M52.703,76.831c-0.315,0-0.626-0.148-0.82-0.427c-0.203-0.29-0.23-0.65-0.105-0.955
							c-1.363-2.787-4.177-4.596-5.799-5.453c-0.328-0.173-0.533-0.513-0.533-0.884V56.937c0-0.483,0.346-0.897,0.821-0.983
							c1.483-0.271,1.795-1.319,1.795-2.151v-1.847c0-0.64-0.401-0.802-0.709-0.833c-0.079,0.072-0.17,0.153-0.271,0.236
							c-0.299,0.244-0.713,0.298-1.062,0.132c-0.35-0.165-0.573-0.518-0.573-0.904v-2.54c0-0.246,0.091-0.484,0.255-0.668
							c3.983-4.44,9.43-7.276,15.337-7.987c0.284-0.035,0.569,0.056,0.783,0.245s0.336,0.462,0.336,0.748v3.356
							c0,0.535-0.422,0.977-0.957,0.999c-3.369,0.145-6.007,2.891-6.007,6.251v4.665c0,0.289-0.125,0.564-0.343,0.754
							c-0.219,0.191-0.505,0.278-0.795,0.236c-0.051-0.007-0.103-0.013-0.156-0.014c-0.558,0.018-0.841,0.3-0.841,0.839v1.847
							c0,0.862,0.328,1.939,1.891,2.175c0.396,0.061,0.828,0.362,0.929,0.75c0.639,2.451,2.331,4.463,4.644,5.518
							c0.356,0.163,0.585,0.519,0.585,0.91v3.319c0,0.381-0.216,0.729-0.558,0.896l-3.895,1.921c-0.03,0.015-0.06,0.028-0.091,0.04
							c-0.046,0.018-1.579,0.611-3.288,1.805C53.1,76.772,52.901,76.831,52.703,76.831z M47.446,68.521
							c1.801,1.023,4.433,2.893,5.939,5.684c1.371-0.81,2.416-1.208,2.471-1.229l3.249-1.606v-2.077
							c-2.374-1.266-4.149-3.378-4.983-5.929c-1.906-0.493-3.065-2.002-3.065-4.045v-1.847c0-1.685,1.109-2.502,2.136-2.752V50.99
							c0-4.111,2.99-7.525,6.964-8.153V41.54c-4.868,0.835-9.335,3.253-12.712,6.894v0.691c1.125,0.09,2.616,0.877,2.616,2.83v1.847
							c0,1.86-0.982,3.292-2.616,3.896V68.521z"/>
					</g>
				</g>
			</g>
		</g>
		<g>
			<g>
				<g>
					<path class="st5" d="M64.003,80.365c-0.371,0-0.711-0.205-0.884-0.533l-3.897-7.375c-0.076-0.144-0.116-0.304-0.116-0.467
						v-3.323c0-0.34,0.173-0.657,0.459-0.841c0.286-0.185,0.646-0.211,0.956-0.069c2.217,1.01,4.749,1.01,6.965,0
						c0.31-0.142,0.67-0.115,0.956,0.069c0.286,0.184,0.459,0.501,0.459,0.841v3.323c0,0.163-0.04,0.323-0.116,0.467l-3.897,7.375
						C64.714,80.16,64.374,80.365,64.003,80.365z M61.106,71.742l2.897,5.482l2.897-5.482v-1.639c-1.881,0.551-3.914,0.551-5.794,0
						V71.742z"/>
				</g>
			</g>
			<g>
				<g>
					<path class="st5" d="M64.002,70.517c-4.515,0-8.49-2.911-9.879-7.153c-1.905-0.493-3.065-2.001-3.065-4.046v-1.847
						c0-1.685,1.109-2.502,2.136-2.752V50.99c0-4.558,3.714-8.266,8.279-8.266h5.058c2.033,0,3.192,1.032,3.772,1.799
						c0.68-0.128,1.549-0.096,2.346,0.397c1.435,0.886,2.162,2.929,2.162,6.07v3.728c1.027,0.25,2.136,1.067,2.136,2.752v1.847
						c0,2.045-1.16,3.554-3.065,4.046C72.492,67.605,68.518,70.517,64.002,70.517z M53.892,56.632
						c-0.549,0.016-0.833,0.298-0.833,0.839v1.847c0,0.862,0.328,1.939,1.891,2.175c0.396,0.06,0.828,0.362,0.929,0.75
						c0.963,3.694,4.304,6.274,8.125,6.274s7.162-2.58,8.125-6.274c0.103-0.395,0.434-0.687,0.837-0.739
						c1.736-0.258,1.982-1.479,1.982-2.186v-1.847c0-0.729-0.522-0.839-0.834-0.839c-0.056,0-0.111,0.007-0.164,0.014
						c-0.29,0.042-0.577-0.045-0.795-0.236c-0.218-0.189-0.343-0.465-0.343-0.754v-4.664c0-2.287-0.438-3.877-1.201-4.361
						c-0.577-0.366-1.307-0.029-1.315-0.025c-0.249,0.115-0.54,0.129-0.796,0.029c-0.256-0.101-0.465-0.299-0.568-0.554
						c-0.056-0.128-0.644-1.355-2.4-1.355h-5.058c-3.462,0-6.279,2.811-6.279,6.266v4.665c0,0.289-0.125,0.564-0.343,0.754
						c-0.219,0.191-0.505,0.278-0.795,0.236C54.002,56.639,53.948,56.632,53.892,56.632z"/>
				</g>
			</g>
			<g>
				<g>
					<path class="st5" d="M56.087,57.772c-1.245,0-2.385-1.172-2.633-1.443c-0.372-0.409-0.342-1.041,0.066-1.413
						c0.408-0.371,1.041-0.343,1.412,0.065c0.364,0.395,0.917,0.778,1.137,0.79c-0.017-0.033,0.237-0.415,0.237-1.819
						c0-2.317,1.888-4.203,4.209-4.203h6.974c2.321,0,4.21,1.886,4.21,4.203c0,1.544,0.306,1.852,0.309,1.854
						c0.124-0.031,0.694-0.424,1.065-0.826c0.374-0.406,1.006-0.435,1.412-0.062c0.407,0.372,0.436,1.002,0.065,1.409
						c-0.292,0.321-1.827,1.889-3.308,1.319c-1.543-0.598-1.543-2.929-1.543-3.695c0-1.215-0.991-2.203-2.21-2.203h-6.974
						c-1.218,0-2.209,0.988-2.209,2.203c0,0.767,0,3.098-1.543,3.695C56.537,57.734,56.311,57.772,56.087,57.772z"/>
				</g>
			</g>
			<g>
				<g>
					<path class="st5" d="M64.002,88.239c-6.116,0-11.977-2.259-16.503-6.359c-0.31-0.281-0.413-0.725-0.257-1.113
						c2.125-5.299,8.352-7.693,8.616-7.792l3.806-1.882c0.484-0.236,1.073-0.049,1.326,0.431l3.014,5.702l3.012-5.702
						c0.253-0.479,0.842-0.67,1.327-0.43l3.853,1.899c0.647,0.252,6.518,2.66,8.567,7.773c0.156,0.389,0.053,0.832-0.257,1.113
						C75.979,85.98,70.119,88.239,64.002,88.239z M49.386,80.875c4.078,3.465,9.24,5.364,14.617,5.364s10.539-1.9,14.617-5.364
						c-2.042-4.059-7.123-6.009-7.177-6.029c-0.031-0.011-0.061-0.024-0.09-0.039l-3.022-1.489l-3.435,6.5
						c-0.22,0.436-0.731,0.657-1.209,0.498c-0.274-0.092-0.482-0.29-0.594-0.533l-3.417-6.465l-3.023,1.489
						c-0.029,0.015-0.06,0.028-0.09,0.04C56.484,74.876,51.419,76.841,49.386,80.875z"/>
				</g>
			</g>
		</g>
		<g>
			<g>
				<g>
					<path class="st5" d="M93.732,69.468c-0.105,0-0.212-0.017-0.316-0.052c-0.464-0.154-0.748-0.622-0.671-1.105
						c0.244-1.533,0.368-3.077,0.368-4.587l-0.007-0.282c-0.004-0.423,0.258-0.803,0.655-0.948c0.207-0.076,0.411-0.158,0.61-0.249
						c0.309-0.141,0.669-0.115,0.956,0.067c0.286,0.185,0.459,0.501,0.459,0.842v3.32c0,0.163-0.04,0.323-0.116,0.467l-1.054,1.994
						C94.439,69.271,94.094,69.468,93.732,69.468z"/>
				</g>
			</g>
			<g>
				<g>
					<path class="st5" d="M87.317,68.092c-0.366,0-0.708-0.201-0.884-0.533l-0.327-0.618c-0.076-0.144-0.116-0.304-0.116-0.467
						v-3.319c0-0.341,0.173-0.657,0.459-0.842c0.288-0.183,0.648-0.207,0.957-0.067c0.164,0.075,0.333,0.141,0.502,0.205
						c0.384,0.146,0.639,0.512,0.645,0.922l0.008,0.352c0,1.155-0.085,2.337-0.254,3.511c-0.062,0.429-0.392,0.769-0.819,0.843
						C87.432,68.087,87.374,68.092,87.317,68.092z"/>
				</g>
			</g>
			<g>
				<g>
					<path class="st5" d="M79.825,82.146c-0.075,0-0.151-0.009-0.226-0.025c-0.319-0.074-0.582-0.3-0.703-0.604
						c-0.944-2.365-2.917-4.045-4.405-5.038c-0.393-0.262-0.548-0.763-0.374-1.201c2.113-5.318,8.362-7.721,8.627-7.82l3.806-1.882
						c0.484-0.236,1.072-0.049,1.326,0.431l0.327,0.618c0.099,0.187,0.136,0.399,0.105,0.609c-0.808,5.62-3.583,10.824-7.812,14.653
						C80.31,82.056,80.07,82.146,79.825,82.146z M76.298,75.306c1.307,0.968,2.788,2.35,3.825,4.167
						c3.088-3.152,5.192-7.152,6.027-11.47l-2.612,1.288c-0.034,0.017-0.067,0.031-0.102,0.044
						C83.225,69.417,78.324,71.351,76.298,75.306z"/>
				</g>
			</g>
			<g>
				<g>
					<path class="st5" d="M107.528,84.212H88.295c-0.265,0-0.519-0.105-0.707-0.292l-0.756-0.755
						c-0.361-0.36-0.393-0.935-0.074-1.333c3.13-3.913,5.201-8.589,5.987-13.521c0.017-0.108,0.052-0.213,0.103-0.31l1.054-1.994
						c0.253-0.479,0.842-0.669,1.327-0.43l3.894,1.92l-0.008,0.015c1.933,0.686,9.242,4.357,9.242,11.312
						c0,1.062,0.064,2.283,0.132,3.575l0.04,0.763c0.014,0.273-0.085,0.541-0.273,0.739C108.064,84.1,107.802,84.212,107.528,84.212
						z M88.99,82.212h17.485c-0.063-1.212-0.12-2.356-0.12-3.389c0-6.422-7.945-9.463-8.025-9.493
						c-0.032-0.012-0.062-0.024-0.093-0.04l-3.022-1.489l-0.522,0.989C93.892,73.643,91.929,78.258,88.99,82.212z"/>
				</g>
			</g>
			<g>
				<g>
					<path class="st5" d="M87.553,64.373c-0.121,0-0.242-0.021-0.358-0.066l-0.133-0.05c-0.134-0.051-0.268-0.102-0.399-0.158
						c-0.029-0.01-0.059-0.021-0.087-0.034c-2.666-1.217-4.667-3.461-5.568-6.218c-1.906-0.494-3.065-2.002-3.065-4.045v-1.847
						c0-2.083,1.695-2.839,2.834-2.839c0.154,0,0.303,0.013,0.449,0.034c0.227,0.034,0.435,0.145,0.589,0.313l0,0
						c0.37,0.4,0.936,0.79,1.147,0.79c0.001,0,0.002,0,0.003,0c0.191-0.27,0.486-0.411,0.8-0.414
						c0.33,0.007,0.602,0.182,0.784,0.458c2.551,3.883,3.936,8.399,4.004,13.061c0.005,0.332-0.155,0.645-0.427,0.835
						C87.956,64.312,87.755,64.373,87.553,64.373z M80.651,51.125c-0.467,0.054-0.708,0.332-0.708,0.83v1.847
						c0,0.862,0.328,1.939,1.891,2.175c0.396,0.061,0.827,0.361,0.928,0.749c0.549,2.107,1.877,3.89,3.707,5.019
						c-0.295-3.376-1.346-6.63-3.083-9.537c-0.098,0.022-0.198,0.037-0.3,0.043C82.074,52.318,81.143,51.582,80.651,51.125z"/>
				</g>
			</g>
			<g>
				<g>
					<path class="st5" d="M94.104,64.42c-0.201,0-0.399-0.061-0.569-0.178c-0.267-0.185-0.428-0.487-0.431-0.812
						c-0.064-6.437-2.195-12.516-6.162-17.581c-0.236-0.301-0.279-0.71-0.112-1.054c0.167-0.345,0.517-0.562,0.899-0.562h6.645
						c2.321,0,4.209,1.886,4.209,4.204c0,1.544,0.306,1.852,0.309,1.854c0.12-0.031,0.711-0.438,1.064-0.825
						c0.155-0.17,0.364-0.281,0.592-0.315c0.146-0.021,0.295-0.034,0.449-0.034c1.139,0,2.834,0.756,2.834,2.839v1.847
						c0,2.044-1.16,3.553-3.065,4.046c-0.901,2.755-2.901,4.999-5.566,6.216c-0.25,0.111-0.502,0.204-0.753,0.296
						C94.336,64.4,94.22,64.42,94.104,64.42z M89.703,46.232c3.194,4.656,5.024,10.01,5.35,15.66
						c1.96-1.115,3.385-2.963,3.959-5.167c0.105-0.403,0.449-0.699,0.863-0.742c1.628-0.242,1.956-1.319,1.956-2.182v-1.847
						c0-0.636-0.396-0.801-0.704-0.832c-0.587,0.547-1.809,1.466-3,1.009c-1.543-0.598-1.543-2.929-1.543-3.695
						c0-1.216-0.991-2.204-2.209-2.204H89.703z"/>
				</g>
			</g>
			<g>
				<g>
					<path class="st5" d="M98.803,52.257c-0.223,0-0.45-0.038-0.675-0.125c-1.543-0.598-1.543-2.929-1.543-3.695
						c0-1.216-0.991-2.204-2.209-2.204H87.73c-0.308,0-0.598-0.142-0.787-0.384c-1.333-1.702-2.845-3.249-4.493-4.599
						c-0.215-0.176-0.347-0.434-0.364-0.711c-0.017-0.278,0.082-0.55,0.273-0.752c1.581-1.662,3.711-2.578,5.999-2.578h5.058
						c2.032,0,3.191,1.032,3.771,1.798c0.682-0.128,1.549-0.095,2.347,0.398c1.435,0.886,2.162,2.929,2.162,6.07v4.664
						c0,0.249-0.093,0.489-0.261,0.674C101.188,51.085,100.048,52.257,98.803,52.257z M88.212,44.232h6.162
						c2.321,0,4.209,1.886,4.209,4.204c0,1.544,0.306,1.852,0.309,1.854c0.094-0.024,0.473-0.276,0.803-0.569v-4.246
						c0-2.3-0.442-3.893-1.213-4.369c-0.574-0.354-1.286-0.028-1.293-0.023c-0.25,0.125-0.539,0.139-0.801,0.041
						c-0.261-0.099-0.469-0.302-0.574-0.56c-0.056-0.128-0.644-1.355-2.399-1.355h-5.058c-1.375,0-2.676,0.438-3.754,1.248
						C85.901,41.605,87.111,42.87,88.212,44.232z"/>
				</g>
			</g>
		</g>
		<g>
			<g>
				<g>
					<path class="st5" d="M34.267,69.454c-0.362,0-0.707-0.197-0.884-0.533l-1.046-1.98c-0.076-0.144-0.116-0.304-0.116-0.467
						v-3.319c0-0.341,0.173-0.657,0.46-0.842c0.287-0.183,0.647-0.207,0.957-0.067c0.197,0.091,0.399,0.172,0.604,0.247
						c0.396,0.145,0.66,0.522,0.658,0.944l-0.007,0.287c0,1.518,0.122,3.056,0.362,4.574c0.076,0.483-0.208,0.95-0.672,1.105
						C34.479,69.438,34.372,69.454,34.267,69.454z"/>
				</g>
			</g>
			<g>
				<g>
					<path class="st5" d="M40.688,68.095c-0.057,0-0.114-0.005-0.171-0.015c-0.427-0.074-0.757-0.414-0.819-0.843
						c-0.169-1.178-0.255-2.359-0.255-3.514l0.008-0.352c0.005-0.411,0.261-0.776,0.645-0.922c0.169-0.064,0.337-0.13,0.501-0.205
						c0.309-0.144,0.67-0.119,0.958,0.066c0.287,0.184,0.46,0.501,0.46,0.842v3.32c0,0.163-0.04,0.323-0.116,0.467l-0.328,0.621
						C41.396,67.894,41.054,68.095,40.688,68.095z"/>
				</g>
			</g>
			<g>
				<g>
					<path class="st5" d="M41.091,84.212H20.477c-0.274,0-0.536-0.112-0.725-0.312c-0.188-0.198-0.288-0.466-0.273-0.739
						l0.038-0.727c0.069-1.307,0.134-2.54,0.134-3.611c0-7.582,8.463-11.033,9.276-11.348l3.854-1.899
						c0.484-0.236,1.073-0.049,1.326,0.431l1.046,1.98c0.051,0.097,0.086,0.202,0.104,0.311c0.833,5.257,3.114,10.189,6.596,14.265
						c0.253,0.297,0.312,0.714,0.148,1.068S41.481,84.212,41.091,84.212z M21.53,82.212h17.484c-2.95-3.966-4.91-8.567-5.708-13.437
						l-0.515-0.975l-3.023,1.49c-0.033,0.017-0.065,0.03-0.099,0.043c-0.188,0.071-8.02,3.12-8.02,9.489
						C21.649,79.855,21.594,81,21.53,82.212z M29.326,68.394h0.01H29.326z"/>
				</g>
			</g>
			<g>
				<g>
					<path class="st5" d="M48.18,82.146c-0.246,0-0.485-0.091-0.671-0.259c-4.229-3.828-7.002-9.03-7.812-14.65
						c-0.03-0.209,0.007-0.423,0.105-0.609l0.328-0.621c0.254-0.479,0.842-0.669,1.327-0.43l3.894,1.92
						c0.175,0.061,6.423,2.463,8.537,7.781c0.174,0.438,0.019,0.939-0.374,1.201c-1.489,0.993-3.461,2.673-4.405,5.038
						c-0.122,0.304-0.384,0.529-0.703,0.604C48.331,82.138,48.255,82.146,48.18,82.146z M41.854,68
						c0.834,4.318,2.938,8.32,6.027,11.473c1.037-1.817,2.518-3.199,3.825-4.167c-2.056-4.007-7.097-5.956-7.15-5.977L41.854,68z"/>
				</g>
			</g>
			<g>
				<g>
					<path class="st5" d="M29.202,52.257c-1.245,0-2.385-1.172-2.633-1.443c-0.168-0.185-0.261-0.425-0.261-0.674v-4.665
						c0-4.558,3.714-8.266,8.279-8.266h5.058c2.036,0,3.196,1.036,3.775,1.802c0.667-0.118,1.517-0.089,2.302,0.38
						c0.282,0.168,0.463,0.463,0.485,0.79c0.022,0.328-0.117,0.646-0.374,0.85c-1.767,1.411-3.373,3.032-4.772,4.819
						c-0.189,0.241-0.48,0.383-0.787,0.383h-6.644c-1.219,0-2.21,0.988-2.21,2.204c0,0.767,0,3.098-1.543,3.695
						C29.652,52.219,29.425,52.257,29.202,52.257z M28.309,49.72c0.329,0.291,0.704,0.527,0.875,0.536
						c-0.017-0.033,0.237-0.415,0.237-1.819c0-2.318,1.889-4.204,4.21-4.204h6.162c0.886-1.095,1.845-2.129,2.868-3.094
						c-0.015-0.005-0.03-0.01-0.045-0.016c-0.259-0.099-0.466-0.302-0.57-0.559c-0.056-0.128-0.644-1.355-2.399-1.355h-5.058
						c-3.462,0-6.279,2.811-6.279,6.266V49.72z"/>
				</g>
			</g>
			<g>
				<g>
					<path class="st5" d="M40.452,64.374c-0.202,0-0.402-0.062-0.573-0.181c-0.272-0.189-0.432-0.502-0.427-0.834
						c0.068-4.662,1.453-9.179,4.004-13.062c0.182-0.276,0.487-0.445,0.817-0.451c0.338,0.021,0.642,0.151,0.833,0.42
						c0.138-0.009,0.728-0.414,1.081-0.801c0.155-0.17,0.364-0.281,0.591-0.315c0.146-0.021,0.295-0.034,0.449-0.034
						c1.139,0,2.834,0.756,2.834,2.839v1.847c0,2.044-1.16,3.553-3.065,4.046c-0.901,2.755-2.901,4.999-5.566,6.216h0
						c0,0-0.001-0.001-0.001-0.001h0c-0.16,0.072-0.324,0.135-0.49,0.196l-0.13,0.049C40.693,64.353,40.572,64.374,40.452,64.374z
						 M44.619,52.207c-1.736,2.906-2.787,6.16-3.083,9.536c1.83-1.128,3.158-2.909,3.707-5.018c0.105-0.403,0.449-0.699,0.863-0.742
						c1.628-0.242,1.956-1.319,1.956-2.182v-1.847c0-0.636-0.397-0.801-0.705-0.832c-0.492,0.456-1.45,1.197-2.438,1.127
						C44.817,52.244,44.717,52.229,44.619,52.207z"/>
				</g>
			</g>
			<g>
				<g>
					<path class="st5" d="M33.9,64.419c-0.116,0-0.232-0.021-0.344-0.062l0.114-0.312c-0.002,0.001-0.004,0.002-0.006,0.003
						l-0.115,0.307c-0.221-0.081-0.442-0.163-0.657-0.257c-0.029-0.01-0.058-0.021-0.086-0.034
						c-2.666-1.217-4.667-3.461-5.568-6.218c-1.906-0.493-3.065-2.001-3.065-4.045v-1.847c0-2.083,1.695-2.839,2.834-2.839
						c0.154,0,0.303,0.013,0.449,0.034c0.228,0.034,0.437,0.146,0.592,0.315c0.362,0.394,0.917,0.778,1.136,0.79
						c-0.017-0.033,0.237-0.415,0.237-1.819c0-2.318,1.889-4.204,4.21-4.204h6.644c0.382,0,0.731,0.218,0.899,0.562
						c0.167,0.344,0.124,0.753-0.112,1.054c-3.967,5.065-6.098,11.145-6.162,17.58c-0.003,0.325-0.164,0.628-0.432,0.812
						C34.299,64.358,34.101,64.419,33.9,64.419z M26.88,51.125c-0.466,0.054-0.707,0.333-0.707,0.83v1.847
						c0,0.862,0.328,1.939,1.891,2.175c0.396,0.061,0.827,0.361,0.928,0.749c0.574,2.203,1.999,4.051,3.959,5.168
						c0.326-5.65,2.156-11.005,5.35-15.661h-4.671c-1.219,0-2.21,0.988-2.21,2.204c0,0.767,0,3.098-1.543,3.695
						C28.687,52.59,27.468,51.674,26.88,51.125z"/>
				</g>
			</g>
		</g>
		<g>
			<g>
				<g>
					<path class="st5" d="M64.002,94.777c-17.154,0-31.11-13.931-31.11-31.054c0-17.124,13.956-31.055,31.11-31.055
						s31.11,13.931,31.11,31.055C95.112,80.847,81.156,94.777,64.002,94.777z M64.002,34.669c-16.051,0-29.11,13.034-29.11,29.055
						s13.059,29.054,29.11,29.054s29.11-13.033,29.11-29.054S80.054,34.669,64.002,34.669z"/>
				</g>
			</g>
			<g>
				<g>
					<path class="st5" d="M64.002,88.239c-13.542,0-24.56-10.998-24.56-24.516c0-13.519,11.018-24.517,24.56-24.517
						s24.56,10.998,24.56,24.517C88.562,77.241,77.544,88.239,64.002,88.239z M64.002,41.207c-12.439,0-22.56,10.101-22.56,22.517
						c0,12.415,10.12,22.516,22.56,22.516s22.56-10.101,22.56-22.516C86.562,51.308,76.442,41.207,64.002,41.207z"/>
				</g>
			</g>
			<g>
				<g>
					<path class="st5" d="M88.787,94.221c-0.263,0-0.517-0.104-0.707-0.292l-6.016-6.005c-0.202-0.201-0.308-0.479-0.292-0.764
						c0.016-0.284,0.152-0.549,0.375-0.727c1.702-1.356,3.253-2.904,4.61-4.602c0.177-0.222,0.441-0.357,0.725-0.373
						c0.279-0.022,0.561,0.089,0.762,0.29l6.016,6.005c0.233,0.232,0.336,0.564,0.277,0.889c-0.059,0.323-0.274,0.598-0.574,0.731
						c-0.344,0.154-0.639,0.354-0.877,0.592l0,0.001l-2.794,2.788c-0.239,0.238-0.439,0.534-0.593,0.877
						c-0.135,0.299-0.408,0.513-0.731,0.572C88.907,94.215,88.847,94.221,88.787,94.221z M84.256,87.285l4.354,4.347
						c0.085-0.102,0.174-0.199,0.268-0.292l2.794-2.789c0.092-0.092,0.189-0.181,0.29-0.266l-4.354-4.346
						C86.578,85.136,85.456,86.256,84.256,87.285z M92.379,89.259h0.01H92.379z"/>
				</g>
			</g>
			<g>
				<g>
					<path class="st5" d="M105.109,112.498c-1.259,0-2.518-0.479-3.476-1.435L88.854,98.308c-0.929-0.927-1.44-2.16-1.441-3.471
						c0-1.312,0.512-2.546,1.441-3.474l2.842-2.837c1.916-1.912,5.035-1.912,6.952,0l12.778,12.755
						c0.929,0.929,1.44,2.162,1.44,3.474c0,1.311-0.512,2.544-1.44,3.471l-2.842,2.838
						C107.626,112.02,106.368,112.498,105.109,112.498z M95.172,89.091c-0.747,0-1.494,0.284-2.062,0.852l-2.842,2.837
						c-0.551,0.55-0.854,1.28-0.854,2.057c0,0.776,0.303,1.507,0.854,2.056l0,0l12.778,12.756c1.138,1.135,2.989,1.135,4.125,0
						l2.842-2.838c0.55-0.549,0.854-1.279,0.854-2.056s-0.303-1.507-0.854-2.057L97.235,89.942
						C96.667,89.375,95.919,89.091,95.172,89.091z"/>
				</g>
			</g>
		</g>
	</g>
</g>
</svg>
