<?xml version="1.0" encoding="utf-8"?>
<!-- Generator: Adobe Illustrator 22.0.0, SVG Export Plug-In . SVG Version: 6.00 Build 0)  -->
<svg version="1.1" id="MARKET_RESEARCH_ICON_SET" xmlns="http://www.w3.org/2000/svg" xmlns:xlink="http://www.w3.org/1999/xlink"
	 x="0px" y="0px" viewBox="0 0 128 128" style="enable-background:new 0 0 128 128;" xml:space="preserve">
<style type="text/css">
	.st0{fill:#C2D5EC;}
	.st1{fill:#61E1FF;}
	.st2{fill:#7184AF;}
	.st3{fill:#F8F8F8;}
	.st4{fill:#3F4D81;}
	.st5{fill:#3F4D80;}
	.st6{fill:#E9EAEB;}
	.st7{fill:#F79559;}
	.st8{fill:#FFA85A;}
</style>
<g>
	<g>
		<g>
			<rect y="60.426" class="st0" width="59.214" height="58.074"/>
		</g>
		<g>
			<rect x="59.214" y="17.674" class="st0" width="68.786" height="58.074"/>
		</g>
		<g>
			<ellipse class="st0" cx="59.214" cy="68.087" rx="50.638" ry="50.413"/>
		</g>
		<g>
			<g>
				<rect x="124.044" y="19.92" class="st8" width="2.956" height="6.733"/>
			</g>
			<g>
				<rect x="118.133" y="16.233" class="st8" width="2.956" height="10.42"/>
			</g>
			<g>
				<rect x="112.222" y="12.866" class="st8" width="2.956" height="13.787"/>
			</g>
			<g>
				<rect x="106.311" y="9.5" class="st8" width="2.956" height="17.153"/>
			</g>
		</g>
		<g>
			<g>
				<rect x="1" y="111.767" class="st8" width="2.956" height="6.733"/>
			</g>
			<g>
				<rect x="6.911" y="108.08" class="st8" width="2.956" height="10.42"/>
			</g>
			<g>
				<rect x="12.822" y="104.713" class="st8" width="2.956" height="13.787"/>
			</g>
			<g>
				<rect x="18.733" y="101.347" class="st8" width="2.956" height="17.153"/>
			</g>
		</g>
		<g>
			<g>
				<g>
					<path class="st6" d="M76.663,65.255v2.516l2.958,5.584l2.958-5.584v-2.516C80.709,66.105,78.533,66.105,76.663,65.255z"/>
				</g>
				<g>
					<path class="st2" d="M92.121,77.12c0-5.444-6.586-7.896-6.586-7.896l0,0l-2.956-1.454l-2.958,5.584l0.001,0.001l-0.002,0.001
						l-0.001-0.001l0.002-0.001l-2.958-5.584l-2.957,1.454l0-0.001c0,0-6.586,2.452-6.586,7.896c0,0.982-0.07,2.117-0.131,3.322
						h25.263C92.19,79.238,92.121,78.102,92.121,77.12z"/>
				</g>
				<g>
					<path class="st5" d="M74.538,54.115c0-1.34,1.091-2.426,2.436-2.426h5.293c1.346,0,2.436,1.086,2.436,2.426
						c0,3.876,2.362,1.289,2.362,1.289v-3.531c0-5.502-3.001-4.003-3.001-4.003s-0.609-1.499-2.525-1.499h-3.839
						c-3.052,0-5.525,2.463-5.525,5.501v3.532l0,0C72.175,55.404,74.538,57.991,74.538,54.115z"/>
				</g>
				<g>
					<path class="st3" d="M87.295,55.386c-0.079,0-0.155,0.007-0.229,0.018c0,0-2.362,2.587-2.362-1.289
						c0-1.34-1.091-2.426-2.436-2.426h-5.293c-1.346,0-2.436,1.086-2.436,2.426c0,3.876-2.362,1.289-2.362,1.289l0,0v0
						c-0.074-0.011-0.151-0.018-0.229-0.018c0,0-1.392,0-1.392,1.392v1.398c0,1.141,0.624,2.176,2.081,2.396
						c0.03,0.005,0.055,0.006,0.083,0.009c0.799,3.057,3.582,5.317,6.902,5.317c3.321,0,6.103-2.26,6.902-5.317
						c0.028-0.003,0.053-0.005,0.083-0.009c1.457-0.219,2.081-1.255,2.081-2.396v-1.398C88.687,55.386,87.295,55.386,87.295,55.386z
						"/>
				</g>
			</g>
			<g>
				<g>
					<path class="st6" d="M35.784,65.255v2.516l2.958,5.584l2.958-5.584v-2.516c-0.902,0.41-1.902,0.644-2.958,0.644
						C37.685,65.899,36.686,65.665,35.784,65.255z"/>
				</g>
				<g>
					<path class="st2" d="M51.37,80.447H34.83c-1.68-3.275-2.72-6.939-2.95-10.802c0.32-0.132,0.624-0.297,0.95-0.418l2.95-1.454
						l1.94,3.654l1.02,1.931l2.96-5.585l2.96,1.454c1.091,0.434,2.123,1.035,3.058,1.743c0.708,0.536,1.359,1.145,1.916,1.837
						c0.223,0.277,1.129,1.911,1.129,1.911c0.291,0.727,0.476,1.52,0.476,2.405C51.24,78.107,51.31,79.242,51.37,80.447z"/>
				</g>
				<g>
					<path class="st5" d="M33.658,54.115c0-1.34,1.091-2.426,2.436-2.426h5.293c1.346,0,2.436,1.086,2.436,2.426
						c0,3.876,2.362,1.289,2.362,1.289v-3.531c0-5.502-3.001-4.003-3.001-4.003s-0.609-1.499-2.525-1.499h-3.839
						c-3.052,0-5.525,2.463-5.525,5.501v3.532l0,0C31.296,55.404,33.658,57.991,33.658,54.115z"/>
				</g>
				<g>
					<path class="st3" d="M46.416,55.386c-0.079,0-0.155,0.007-0.229,0.018c0,0-2.362,2.587-2.362-1.289
						c0-1.34-1.091-2.426-2.436-2.426h-5.293c-1.346,0-2.436,1.086-2.436,2.426c0,3.876-2.362,1.289-2.362,1.289l0,0v0
						c-0.074-0.011-0.151-0.018-0.229-0.018c0,0-1.392,0-1.392,1.392v1.398c0,1.141,0.624,2.176,2.081,2.396
						c0.03,0.005,0.055,0.006,0.083,0.009c0.799,3.057,3.582,5.317,6.902,5.317c3.321,0,6.103-2.26,6.902-5.317
						c0.028-0.003,0.053-0.005,0.083-0.009c1.457-0.219,2.081-1.255,2.081-2.396v-1.398C47.808,55.386,46.416,55.386,46.416,55.386z
						"/>
				</g>
				<g>
					<path class="st5" d="M38.741,66.898c-3.488,0-6.563-2.215-7.686-5.459c-1.464-0.438-2.38-1.667-2.38-3.262v-1.398
						c0-1.755,1.43-2.393,2.392-2.393c0.125,0,0.247,0.011,0.365,0.027c0.232,0.032,0.445,0.144,0.603,0.316
						c0.148,0.16,0.359,0.331,0.523,0.432c0.048-0.18,0.101-0.501,0.101-1.046c0-1.889,1.542-3.426,3.437-3.426h5.293
						c1.895,0,3.436,1.537,3.436,3.426c0,0.544,0.053,0.866,0.101,1.046c0.165-0.102,0.375-0.272,0.525-0.434
						c0.157-0.17,0.371-0.283,0.601-0.314c0.119-0.016,0.24-0.027,0.365-0.027c0.961,0,2.392,0.637,2.392,2.393v1.398
						c0,1.596-0.917,2.825-2.38,3.262C45.305,64.683,42.229,66.898,38.741,66.898z M30.915,56.425
						c-0.24,0.066-0.24,0.229-0.24,0.354v1.398c0,0.811,0.414,1.284,1.23,1.407c0.396,0.06,0.801,0.358,0.902,0.745
						c0.703,2.69,3.144,4.569,5.935,4.569s5.232-1.879,5.935-4.569c0.104-0.397,0.44-0.69,0.848-0.74
						c0.871-0.128,1.284-0.602,1.284-1.412v-1.398c0-0.097,0-0.302-0.222-0.37c-0.514,0.451-1.473,1.104-2.438,0.729
						c-1.324-0.513-1.324-2.402-1.324-3.023c0-0.786-0.644-1.426-1.436-1.426h-5.293c-0.792,0-1.437,0.64-1.437,1.426
						c0,0.621,0,2.51-1.324,3.023C32.381,57.51,31.432,56.876,30.915,56.425z M45,55.361L45,55.361L45,55.361z M32.482,55.361
						L32.482,55.361L32.482,55.361z"/>
				</g>
				<g>
					<path class="st5" d="M44.746,57.25c-0.196,0-0.397-0.033-0.598-0.111c-1.324-0.513-1.324-2.402-1.324-3.023
						c0-0.786-0.644-1.426-1.436-1.426h-5.293c-0.792,0-1.437,0.64-1.437,1.426c0,0.621,0,2.51-1.324,3.023
						c-1.272,0.495-2.536-0.797-2.777-1.06c-0.168-0.184-0.262-0.425-0.262-0.674v-3.531c0-3.584,2.927-6.501,6.525-6.501h3.839
						c1.448,0,2.416,0.669,2.971,1.34c0.505-0.071,1.159-0.037,1.802,0.361c1.18,0.729,1.753,2.3,1.753,4.801v3.53
						c0,0.25-0.093,0.49-0.262,0.674C46.722,56.3,45.793,57.25,44.746,57.25z M32.296,54.972c0.09,0.073,0.181,0.14,0.262,0.189
						c0.048-0.18,0.101-0.501,0.101-1.046c0-1.889,1.542-3.426,3.437-3.426h5.293c1.895,0,3.436,1.537,3.436,3.426
						c0,0.544,0.053,0.866,0.101,1.046c0.081-0.049,0.172-0.116,0.262-0.189v-3.099c0-2.415-0.616-2.983-0.805-3.1
						c-0.317-0.195-0.745-0.011-0.75-0.008c-0.25,0.125-0.541,0.139-0.8,0.041c-0.261-0.098-0.469-0.301-0.573-0.559
						c-0.035-0.075-0.43-0.875-1.599-0.875h-3.839c-2.495,0-4.525,2.019-4.525,4.501V54.972z"/>
				</g>
			</g>
			<g>
				<g>
					<path class="st6" d="M56.255,69.431v2.516l2.958,5.584l2.958-5.584v-2.516c-0.902,0.41-1.902,0.644-2.958,0.644
						C58.157,70.075,57.158,69.841,56.255,69.431z"/>
				</g>
				<g>
					<path class="st8" d="M71.713,81.296c0-5.444-6.586-7.896-6.586-7.896l0,0l-2.956-1.454l-2.958,5.584l0.001,0.001l-0.002,0.001
						l-0.001-0.001l0.002-0.001l-2.958-5.584l-2.957,1.454l0-0.001c0,0-6.586,2.452-6.586,7.896c0,0.982-0.07,2.117-0.131,3.322
						h25.263C71.783,83.414,71.713,82.278,71.713,81.296z"/>
				</g>
				<g>
					<path class="st3" d="M49.713,83.288c0-5.444,6.586-7.896,6.586-7.896l0,0.001l1.414-0.695l-1.457-2.75l-2.957,1.454l0-0.001
						c0,0-6.586,2.452-6.586,7.896c0,0.982-0.07,2.117-0.131,3.322h3.098C49.699,84.153,49.713,83.704,49.713,83.288z"/>
				</g>
				<g>
					<path class="st5" d="M54.13,58.291c0-1.34,1.091-2.426,2.436-2.426h5.293c1.346,0,2.436,1.086,2.436,2.426
						c0,3.876,2.362,1.289,2.362,1.289v-3.531c0-5.502-3.001-4.003-3.001-4.003s-0.609-1.499-2.525-1.499h-3.839
						c-3.052,0-5.525,2.463-5.525,5.501v3.532l0,0C51.768,59.58,54.13,62.167,54.13,58.291z"/>
				</g>
				<g>
					<path class="st3" d="M66.888,59.562c-0.079,0-0.155,0.007-0.229,0.018c0,0-2.362,2.587-2.362-1.289
						c0-1.34-1.091-2.426-2.436-2.426h-5.293c-1.346,0-2.436,1.086-2.436,2.426c0,3.876-2.362,1.289-2.362,1.289l0,0v0
						c-0.074-0.011-0.151-0.018-0.229-0.018c0,0-1.392,0-1.392,1.392v1.398c0,1.141,0.624,2.176,2.081,2.396
						c0.03,0.005,0.055,0.006,0.083,0.009c0.799,3.057,3.582,5.317,6.902,5.317c3.321,0,6.103-2.26,6.902-5.317
						c0.028-0.003,0.053-0.005,0.083-0.009c1.457-0.219,2.081-1.255,2.081-2.396v-1.398C68.28,59.562,66.888,59.562,66.888,59.562z"
						/>
				</g>
			</g>
			<g>
				<path class="st5" d="M71.649,80.443c0.036,0.277,0.064,0.559,0.064,0.854c0,0.982,0.07,2.117,0.131,3.322H46.581
					c0.062-1.205,0.131-2.341,0.131-3.322c0-0.295,0.028-0.576,0.064-0.854H34.804c1.847,3.609,4.475,6.752,7.665,9.211h33.486
					c3.191-2.459,5.819-5.602,7.665-9.211H71.649z"/>
			</g>
		</g>
		<g>
			<g>
				<g>
					<polygon class="st6" points="40.411,37.462 29.461,26.561 29.015,37.342 40.411,48.252 					"/>
				</g>
				<g>
					<path class="st3" d="M59.213,32.197C59.213,32.197,59.213,32.197,59.213,32.197l0.001-15.237
						c-10.328-0.009-20.752,3.103-29.753,9.601l10.95,10.901C45.886,34.124,52.323,32.197,59.213,32.197z"/>
				</g>
			</g>
			<g>
				<path class="st2" d="M40.411,37.462v10.789c4.906-4.616,11.519-7.428,18.802-7.428c0,0,0,0,0.001,0v-8.627c0,0,0,0,0,0
					C52.323,32.197,45.885,34.124,40.411,37.462z"/>
			</g>
			<g>
				<path class="st7" d="M78.627,97.471c0-5.93,4.828-10.737,10.785-10.737c2.487,0,4.77,0.846,6.595,2.254
					c3.753-6.327,5.914-13.701,5.914-21.581H86.581c0.006,0.227,0.017,0.452,0.017,0.68c0,15.057-12.261,27.263-27.385,27.263
					c-7.736,0-14.717-3.198-19.698-8.333L29.015,97.471c7.728,7.694,18.405,12.453,30.198,12.453c7.915,0,15.322-2.152,21.678-5.888
					C79.477,102.22,78.627,99.946,78.627,97.471z"/>
			</g>
			<g>
				<path class="st8" d="M95.631,45.196c-1.712,1.346-3.869,2.155-6.22,2.155c-5.552,0-10.054-4.481-10.054-10.009
					c0-2.34,0.813-4.488,2.165-6.192c-6.493-3.969-14.132-6.26-22.31-6.26h0v15.934h0c14.895,0,27.004,11.841,27.368,26.583h15.339
					C101.92,59.265,99.618,51.66,95.631,45.196z"/>
			</g>
			<g>
				<path class="st5" d="M97.383,48.367c-0.545-1.081-1.119-2.145-1.752-3.171c-1.712,1.346-3.869,2.155-6.22,2.155
					c-2.845,0-5.408-1.181-7.237-3.072c1.539,3.563,5.094,6.059,9.237,6.059C93.651,50.338,95.712,49.6,97.383,48.367z"/>
			</g>
			<g>
				<path class="st1" d="M40.411,48.252L29.015,37.342c-4.571,4.55-8.098,10.133-10.228,16.359c4.452,1.03,7.773,4.995,7.773,9.74
					c0,5.382-4.27,9.759-9.619,9.987c1.329,9.33,5.692,17.688,12.074,24.042l10.501-10.454c-4.756-4.904-7.637-11.574-7.687-18.93
					C31.776,60.365,35.056,53.135,40.411,48.252z"/>
			</g>
			<g>
				<path class="st5" d="M26.56,63.442c0,5.382-4.27,9.759-9.619,9.987c0.142,0.998,0.326,1.982,0.536,2.957
					c0.338,0.034,0.682,0.052,1.029,0.052c5.552,0,10.053-4.481,10.053-10.009c0-2.701-1.08-5.148-2.827-6.949
					C26.261,60.695,26.56,62.032,26.56,63.442z"/>
			</g>
		</g>
		<g>
			<g>
				<ellipse class="st1" cx="89.411" cy="37.343" rx="10.054" ry="10.009"/>
			</g>
			<g>
				<path class="st3" d="M91.767,34.152c-1.609,0-2.36,1.938-2.36,1.938s-0.751-1.938-2.36-1.938c-1.364,0-2.176,1.022-2.176,2.349
					c0,3.419,4.536,6.043,4.536,6.043s4.536-2.624,4.536-6.043C93.943,35.174,93.131,34.152,91.767,34.152z"/>
			</g>
		</g>
		<g>
			<ellipse class="st8" cx="16.506" cy="63.442" rx="10.054" ry="10.009"/>
		</g>
		<g>
			<g>
				<ellipse class="st6" cx="89.411" cy="97.471" rx="10.785" ry="10.737"/>
			</g>
			<g>
				<polygon class="st8" points="89.411,92.037 91.185,95.614 95.15,96.188 92.281,98.973 92.958,102.905 89.411,101.048 
					85.864,102.905 86.542,98.973 83.672,96.188 87.638,95.614 				"/>
			</g>
		</g>
		<g>
			<ellipse class="st5" cx="59.274" cy="16.96" rx="3.248" ry="3.233"/>
		</g>
		<g>
			<ellipse class="st5" cx="59.213" cy="109.924" rx="3.248" ry="3.233"/>
		</g>
	</g>
	<g>
		<g>
			<g>
				<path class="st5" d="M100.311,17.96H59.274c-0.552,0-1-0.448-1-1s0.448-1,1-1h41.037c0.552,0,1,0.448,1,1
					S100.863,17.96,100.311,17.96z"/>
			</g>
		</g>
		<g>
			<g>
				<path class="st5" d="M59.213,110.923H27.689c-0.552,0-1-0.448-1-1s0.448-1,1-1h31.524c0.552,0,1,0.448,1,1
					S59.765,110.923,59.213,110.923z"/>
			</g>
		</g>
		<g>
			<g>
				<g>
					<path class="st5" d="M127,27.653h-2.956c-0.552,0-1-0.448-1-1V19.92c0-0.552,0.448-1,1-1H127c0.552,0,1,0.448,1,1v6.733
						C128,27.205,127.552,27.653,127,27.653z M125.044,25.653H126V20.92h-0.956V25.653z"/>
				</g>
			</g>
			<g>
				<g>
					<path class="st5" d="M121.089,27.653h-2.956c-0.552,0-1-0.448-1-1v-10.42c0-0.552,0.448-1,1-1h2.956c0.552,0,1,0.448,1,1v10.42
						C122.089,27.205,121.641,27.653,121.089,27.653z M119.133,25.653h0.956v-8.42h-0.956V25.653z"/>
				</g>
			</g>
			<g>
				<g>
					<path class="st5" d="M115.178,27.653h-2.956c-0.552,0-1-0.448-1-1V12.866c0-0.552,0.448-1,1-1h2.956c0.552,0,1,0.448,1,1
						v13.787C116.178,27.205,115.73,27.653,115.178,27.653z M113.222,25.653h0.956V13.866h-0.956V25.653z"/>
				</g>
			</g>
			<g>
				<g>
					<path class="st5" d="M109.267,27.653h-2.956c-0.552,0-1-0.448-1-1V9.5c0-0.552,0.448-1,1-1h2.956c0.552,0,1,0.448,1,1v17.153
						C110.267,27.205,109.819,27.653,109.267,27.653z M107.311,25.653h0.956V10.5h-0.956V25.653z"/>
				</g>
			</g>
		</g>
		<g>
			<g>
				<g>
					<path class="st5" d="M3.956,119.5H1c-0.552,0-1-0.448-1-1v-6.733c0-0.552,0.448-1,1-1h2.956c0.552,0,1,0.448,1,1v6.733
						C4.956,119.052,4.508,119.5,3.956,119.5z M2,117.5h0.956v-4.733H2V117.5z"/>
				</g>
			</g>
			<g>
				<g>
					<path class="st5" d="M9.867,119.5H6.911c-0.552,0-1-0.448-1-1v-10.42c0-0.552,0.448-1,1-1h2.956c0.552,0,1,0.448,1,1v10.42
						C10.867,119.052,10.419,119.5,9.867,119.5z M7.911,117.5h0.956v-8.42H7.911V117.5z"/>
				</g>
			</g>
			<g>
				<g>
					<path class="st5" d="M15.778,119.5h-2.956c-0.552,0-1-0.448-1-1v-13.787c0-0.552,0.448-1,1-1h2.956c0.552,0,1,0.448,1,1V118.5
						C16.778,119.052,16.33,119.5,15.778,119.5z M13.822,117.5h0.956v-11.787h-0.956V117.5z"/>
				</g>
			</g>
			<g>
				<g>
					<path class="st5" d="M21.689,119.5h-2.956c-0.552,0-1-0.448-1-1v-17.153c0-0.552,0.448-1,1-1h2.956c0.552,0,1,0.448,1,1V118.5
						C22.689,119.052,22.241,119.5,21.689,119.5z M19.733,117.5h0.956v-15.153h-0.956V117.5z"/>
				</g>
			</g>
		</g>
		<g>
			<g>
				<g>
					<g>
						<path class="st5" d="M83.622,81.443H71.649c-0.502,0-0.926-0.372-0.991-0.87c-0.312-2.372-2.139-4.042-3.617-5.025
							c-0.394-0.262-0.55-0.764-0.375-1.203c1.644-4.125,6.482-5.981,6.688-6.058l2.868-1.415c0.484-0.239,1.071-0.049,1.325,0.429
							l2.074,3.917l2.075-3.917c0.253-0.478,0.841-0.668,1.325-0.429l2.88,1.417c0.275,0.088,0.618,0.258,1.099,0.502
							c0.354,0.18,0.568,0.553,0.545,0.95c-0.228,3.914-1.249,7.667-3.034,11.156C84.341,81.232,83.997,81.443,83.622,81.443z
							 M72.474,79.443h10.529c1.394-2.885,2.233-5.957,2.5-9.149c-0.189-0.084-0.305-0.128-0.318-0.133
							c-0.03-0.011-0.061-0.024-0.09-0.038l-2.085-1.026l-2.494,4.708c-0.206,0.409-0.676,0.635-1.136,0.522
							c-0.303-0.076-0.539-0.282-0.663-0.543l-2.482-4.687l-2.085,1.026c-0.032,0.015-0.063,0.029-0.096,0.041
							c-0.129,0.05-3.643,1.432-5.194,4.224C70.332,75.506,71.895,77.171,72.474,79.443z"/>
					</g>
				</g>
				<g>
					<g>
						<path class="st5" d="M79.621,66.889c-0.986,0-1.971-0.18-2.909-0.54c-2.25-0.862-3.998-2.672-4.777-4.911
							c-1.464-0.438-2.38-1.667-2.38-3.262v-1.398c0-1.321,0.811-2.009,1.621-2.269v-2.638c0-2.866,1.863-5.356,4.636-6.196
							c0.311-0.094,0.649-0.031,0.906,0.169c1.953,1.526,3.692,3.289,5.169,5.239c0,0,0.001,0.001,0.001,0.002
							c2.434,3.214,4.119,6.836,5.008,10.766c0.053,0.232,0.021,0.476-0.09,0.686c-0.925,1.759-2.448,3.115-4.288,3.816
							C81.583,66.71,80.602,66.889,79.621,66.889z M71.794,56.425c-0.24,0.066-0.24,0.229-0.24,0.354v1.398
							c0,0.811,0.414,1.284,1.23,1.407c0.396,0.06,0.8,0.358,0.901,0.745c0.495,1.893,1.894,3.445,3.743,4.153
							c1.41,0.542,2.964,0.542,4.376,0.004c1.274-0.486,2.347-1.389,3.054-2.564c-0.808-3.347-2.243-6.449-4.271-9.232h-3.613
							c-0.792,0-1.437,0.64-1.437,1.426c0,0.621,0,2.51-1.324,3.023C73.261,57.51,72.312,56.876,71.794,56.425z M73.362,55.361
							L73.362,55.361L73.362,55.361z M73.175,54.972c0.09,0.073,0.181,0.14,0.262,0.189c0.048-0.18,0.101-0.501,0.101-1.046
							c0-1.889,1.542-3.426,3.437-3.426h2c-0.936-1.05-1.96-2.029-3.061-2.926c-1.657,0.705-2.739,2.299-2.739,4.109V54.972z"/>
					</g>
				</g>
				<g>
					<g>
						<path class="st5" d="M79.622,74.355L79.622,74.355c-0.37,0-0.71-0.205-0.884-0.532L75.78,68.24
							c-0.076-0.145-0.116-0.305-0.116-0.468v-2.516c0-0.34,0.173-0.657,0.458-0.841c0.287-0.184,0.646-0.208,0.955-0.07
							c1.616,0.735,3.471,0.735,5.089,0c0.309-0.139,0.669-0.114,0.955,0.07c0.286,0.184,0.458,0.501,0.458,0.841v2.516
							c0,0.163-0.04,0.324-0.116,0.468l-2.958,5.584C80.333,74.151,79.992,74.355,79.622,74.355z M77.664,67.523l1.958,3.696
							l1.958-3.696v-0.865c-1.287,0.318-2.631,0.318-3.917,0V67.523z"/>
					</g>
				</g>
			</g>
			<g>
				<g>
					<g>
						<path class="st5" d="M46.71,81.447H34.83c-0.375,0-0.719-0.21-0.89-0.543c-1.795-3.5-2.825-7.268-3.059-11.199
							c-0.026-0.43,0.227-0.829,0.627-0.988c0.125-0.05,0.247-0.108,0.369-0.166c0.183-0.086,0.366-0.172,0.556-0.244l2.904-1.431
							c0.484-0.236,1.072-0.049,1.325,0.428l2.079,3.916l2.075-3.915c0.253-0.478,0.841-0.669,1.325-0.429l2.96,1.454
							c1.058,0.418,2.132,1.023,3.121,1.767c0.82,0.617,1.492,1.242,2.054,1.909c0.436,0.518,1.225,1.985,1.378,2.273
							c0.241,0.454,0.1,1.016-0.328,1.301c-2.156,1.439-3.375,3.122-3.625,4.999C47.635,81.076,47.211,81.447,46.71,81.447z
							 M35.449,79.447h10.439c0.482-1.858,1.701-3.561,3.578-4.996c-0.296-0.521-0.587-1-0.72-1.157
							c-0.464-0.551-1.029-1.074-1.728-1.6c-0.834-0.627-1.778-1.16-2.729-1.539l-2.16-1.058l-2.506,4.729
							c-0.173,0.327-0.514,0.532-0.884,0.532c0,0,0,0-0.001,0c-0.37,0-0.71-0.206-0.883-0.533l-2.504-4.727l-2.08,1.025
							c-0.033,0.016-0.066,0.03-0.101,0.043c-0.083,0.03-0.164,0.065-0.244,0.101C33.201,73.472,34.047,76.554,35.449,79.447z"/>
					</g>
				</g>
				<g>
					<g>
						<path class="st5" d="M38.741,74.357L38.741,74.357c-0.37,0-0.71-0.205-0.884-0.532l-2.958-5.584
							c-0.076-0.145-0.116-0.305-0.116-0.468v-2.516c0-0.34,0.173-0.657,0.458-0.841c0.287-0.184,0.646-0.209,0.955-0.069
							c1.621,0.737,3.47,0.736,5.089,0c0.309-0.141,0.668-0.114,0.955,0.069c0.286,0.184,0.458,0.501,0.458,0.841v2.516
							c0,0.163-0.04,0.324-0.116,0.468l-2.958,5.584C39.452,74.152,39.111,74.357,38.741,74.357z M36.783,67.524l1.958,3.697
							l1.958-3.697v-0.862c-1.276,0.319-2.638,0.319-3.917,0V67.524z"/>
					</g>
				</g>
			</g>
			<g>
				<g>
					<g>
						<path class="st5" d="M59.214,78.531c-0.37,0-0.71-0.205-0.884-0.532l-2.958-5.584c-0.076-0.145-0.116-0.305-0.116-0.468
							v-2.516c0-0.34,0.173-0.657,0.458-0.841c0.287-0.183,0.647-0.209,0.955-0.07c1.621,0.736,3.468,0.736,5.089,0
							c0.309-0.14,0.668-0.114,0.955,0.07c0.286,0.184,0.458,0.501,0.458,0.841v2.516c0,0.163-0.04,0.324-0.116,0.468l-2.958,5.584
							C59.924,78.326,59.584,78.531,59.214,78.531z M57.255,71.698l1.958,3.696l1.958-3.696v-0.863c-1.278,0.319-2.64,0.319-3.917,0
							V71.698z"/>
					</g>
				</g>
				<g>
					<g>
						<path class="st5" d="M71.845,85.619H46.582c-0.274,0-0.536-0.112-0.725-0.311c-0.188-0.199-0.288-0.466-0.273-0.74l0.03-0.581
							c0.051-0.974,0.1-1.894,0.1-2.69c0-5.867,6.488-8.543,7.186-8.814l2.916-1.433c0.483-0.24,1.071-0.049,1.325,0.429
							l2.075,3.917l2.074-3.917c0.252-0.479,0.839-0.67,1.325-0.43l2.956,1.454l-0.011,0.022c1.638,0.609,7.155,3.461,7.155,8.771
							c0,0.806,0.049,1.739,0.102,2.726l0.028,0.545c0.014,0.273-0.084,0.541-0.273,0.74C72.381,85.506,72.119,85.619,71.845,85.619
							z M47.635,83.619h23.156c-0.042-0.826-0.078-1.608-0.078-2.322c0-4.673-5.876-6.937-5.936-6.959l-2.175-1.066l-2.498,4.715
							c-0.026,0.051-0.057,0.1-0.092,0.146c-0.288,0.382-0.817,0.515-1.256,0.288c-0.205-0.105-0.358-0.272-0.449-0.466
							l-2.481-4.683l-2.086,1.026c-0.032,0.016-0.065,0.03-0.098,0.042c-0.168,0.064-5.93,2.321-5.93,6.957
							C47.713,82.011,47.678,82.792,47.635,83.619z"/>
					</g>
				</g>
				<g>
					<g>
						<path class="st5" d="M59.213,71.074c-3.487,0-6.562-2.215-7.686-5.458c-1.461-0.434-2.381-1.665-2.381-3.263v-1.398
							c0-1.321,0.81-2.008,1.621-2.268v-2.638c0-3.584,2.927-6.5,6.525-6.5h3.839c1.448,0,2.415,0.669,2.971,1.34
							c0.504-0.072,1.16-0.037,1.803,0.361c1.18,0.729,1.753,2.3,1.753,4.801v2.637c0.811,0.26,1.621,0.947,1.621,2.268v1.398
							c0,1.596-0.917,2.825-2.38,3.262C65.776,68.859,62.701,71.074,59.213,71.074z M51.625,60.57
							c-0.478,0.009-0.478,0.226-0.478,0.385v1.398c0,0.811,0.414,1.284,1.23,1.407c0.396,0.06,0.801,0.358,0.902,0.745
							c0.703,2.691,3.144,4.57,5.935,4.57c2.792,0,5.232-1.879,5.935-4.57c0.104-0.397,0.44-0.69,0.848-0.74
							c0.871-0.128,1.284-0.602,1.284-1.412v-1.398c0-0.157,0-0.373-0.402-0.392c-0.026,0.001-0.051,0.004-0.076,0.007
							c-0.287,0.042-0.579-0.044-0.797-0.234c-0.22-0.19-0.346-0.466-0.346-0.756v-3.531c0-2.397-0.609-2.975-0.796-3.094
							c-0.325-0.208-0.769-0.009-0.773-0.007c-0.25,0.114-0.541,0.124-0.793,0.024c-0.253-0.101-0.463-0.296-0.565-0.549
							c-0.035-0.075-0.43-0.875-1.599-0.875h-3.839c-2.495,0-4.525,2.019-4.525,4.5v3.532c0,0.29-0.126,0.566-0.346,0.756
							C52.203,60.527,51.907,60.612,51.625,60.57z"/>
					</g>
				</g>
				<g>
					<g>
						<path class="st5" d="M65.218,61.426c-0.196,0-0.397-0.034-0.598-0.111c-1.324-0.514-1.324-2.403-1.324-3.023
							c0-0.786-0.645-1.426-1.437-1.426h-5.293c-0.792,0-1.437,0.64-1.437,1.426c0,0.621,0,2.51-1.324,3.023
							c-1.275,0.494-2.537-0.797-2.777-1.06c-0.373-0.408-0.344-1.041,0.064-1.413c0.408-0.372,1.04-0.344,1.411,0.062
							c0.15,0.162,0.361,0.332,0.525,0.433c0.048-0.18,0.101-0.501,0.101-1.046c0-1.889,1.542-3.426,3.437-3.426h5.293
							c1.895,0,3.437,1.537,3.437,3.426c0,0.545,0.053,0.867,0.101,1.046c0.173-0.107,0.393-0.288,0.523-0.432
							c0.373-0.407,1.004-0.437,1.413-0.064c0.408,0.372,0.437,1.005,0.064,1.413C67.195,60.476,66.266,61.426,65.218,61.426z"/>
					</g>
				</g>
			</g>
			<g>
				<g>
					<path class="st5" d="M75.956,90.653H42.47c-0.221,0-0.436-0.073-0.61-0.208c-3.304-2.546-6.052-5.847-7.945-9.547
						c-0.159-0.31-0.145-0.68,0.037-0.978c0.182-0.297,0.505-0.478,0.853-0.478h11.972c0.288,0,0.562,0.124,0.752,0.341
						s0.277,0.504,0.239,0.79c-0.031,0.235-0.055,0.473-0.055,0.723c0,0.714-0.035,1.496-0.078,2.322h23.156
						c-0.042-0.826-0.078-1.608-0.078-2.322c0-0.25-0.025-0.489-0.056-0.724c-0.037-0.286,0.05-0.573,0.24-0.789
						c0.19-0.216,0.464-0.34,0.751-0.34h11.972c0.348,0,0.671,0.181,0.853,0.478c0.182,0.297,0.196,0.667,0.037,0.978
						c-1.894,3.7-4.641,7.001-7.945,9.547C76.392,90.58,76.177,90.653,75.956,90.653z M42.814,88.653h32.798
						c2.517-1.992,4.674-4.458,6.314-7.21h-9.212c0.005,0.772,0.052,1.651,0.101,2.579l0.028,0.545
						c0.014,0.273-0.084,0.541-0.273,0.74c-0.189,0.199-0.451,0.312-0.725,0.312H46.582c-0.274,0-0.536-0.112-0.725-0.311
						c-0.188-0.199-0.288-0.466-0.273-0.74l0.03-0.582c0.048-0.915,0.094-1.781,0.099-2.543H36.5
						C38.14,84.195,40.297,86.661,42.814,88.653z"/>
				</g>
			</g>
		</g>
		<g>
			<g>
				<g>
					<path class="st5" d="M59.213,110.923c-11.674,0-22.649-4.526-30.903-12.744c-0.188-0.188-0.294-0.442-0.294-0.708
						s0.106-0.521,0.294-0.708l10.5-10.454c0.189-0.189,0.457-0.272,0.714-0.292c0.268,0.002,0.523,0.112,0.709,0.304
						c5.022,5.178,11.762,8.03,18.979,8.03c14.549,0,26.385-11.782,26.385-26.263c0-0.141-0.005-0.28-0.01-0.419l-0.007-0.235
						c-0.007-0.27,0.095-0.531,0.283-0.724c0.188-0.193,0.447-0.302,0.716-0.302h15.339c0.552,0,1,0.448,1,1
						c0,7.774-2.093,15.413-6.054,22.091c-0.146,0.246-0.391,0.418-0.672,0.472c-0.282,0.055-0.572-0.016-0.799-0.19
						c-1.734-1.338-3.803-2.045-5.984-2.045c-5.396,0-9.785,4.368-9.785,9.737c0,2.168,0.71,4.226,2.053,5.951
						c0.177,0.227,0.247,0.519,0.193,0.802c-0.054,0.283-0.228,0.529-0.476,0.675C74.692,108.84,67.021,110.923,59.213,110.923z
						 M30.441,97.462c7.79,7.399,17.967,11.461,28.772,11.461c7.088,0,14.057-1.799,20.227-5.211
						c-1.19-1.871-1.813-4.007-1.813-6.241c0-6.472,5.287-11.737,11.785-11.737c2.246,0,4.393,0.622,6.272,1.81
						c3.267-5.853,5.062-12.427,5.224-19.137H87.596C87.424,83.845,74.758,96.35,59.213,96.35c-7.424,0-14.379-2.806-19.697-7.922
						L30.441,97.462z"/>
				</g>
			</g>
			<g>
				<g>
					<path class="st5" d="M101.92,68.407H86.581c-0.542,0-0.986-0.433-1-0.975c-0.354-14.36-11.937-25.608-26.368-25.608
						c-0.552,0-1-0.448-1-1V24.89c0-0.552,0.448-1,1-1c8.078,0,15.973,2.215,22.832,6.407c0.244,0.149,0.413,0.396,0.463,0.679
						c0.05,0.282-0.023,0.572-0.201,0.796c-1.275,1.607-1.949,3.534-1.949,5.571c0,4.967,4.061,9.009,9.053,9.009
						c2.049,0,3.987-0.671,5.602-1.942c0.225-0.176,0.514-0.25,0.793-0.198c0.281,0.05,0.527,0.217,0.676,0.459
						c4.211,6.83,6.438,14.692,6.438,22.736C102.92,67.959,102.472,68.407,101.92,68.407z M87.54,66.407h13.368
						c-0.167-6.967-2.085-13.762-5.58-19.771c-1.769,1.126-3.793,1.716-5.917,1.716c-6.095,0-11.053-4.938-11.053-11.009
						c0-2.113,0.591-4.127,1.72-5.888c-6.039-3.479-12.865-5.387-19.865-5.553V39.84C74.946,40.336,86.69,51.752,87.54,66.407z"/>
				</g>
			</g>
			<g>
				<g>
					<path class="st5" d="M29.015,98.471c-0.255,0-0.51-0.097-0.706-0.292C21.561,91.461,17.287,82.951,15.95,73.57
						c-0.04-0.28,0.041-0.563,0.221-0.78c0.18-0.217,0.444-0.348,0.727-0.36c4.857-0.207,8.662-4.155,8.662-8.988
						c0-4.208-2.878-7.813-6.999-8.766c-0.275-0.063-0.511-0.241-0.648-0.489c-0.138-0.247-0.164-0.541-0.072-0.809
						c2.145-6.271,5.765-12.062,10.469-16.744c0.385-0.384,1.005-0.389,1.397-0.014l11.396,10.909
						c0.2,0.191,0.312,0.458,0.309,0.734c-0.003,0.277-0.122,0.541-0.327,0.727c-5.293,4.823-8.303,11.781-8.256,19.09
						c0.044,6.884,2.674,13.362,7.405,18.24c0.381,0.393,0.375,1.019-0.012,1.405l-10.5,10.454
						C29.525,98.374,29.271,98.471,29.015,98.471z M18.092,74.326c1.379,8.212,5.14,15.685,10.932,21.726l9.099-9.059
						c-4.666-5.159-7.249-11.831-7.294-18.899c-0.048-7.512,2.904-14.683,8.133-19.845l-9.924-9.5
						c-3.912,4.085-6.984,8.989-8.95,14.285c4.451,1.505,7.473,5.64,7.473,10.41C27.56,68.976,23.483,73.561,18.092,74.326z"/>
				</g>
			</g>
			<g>
				<g>
					<g>
						<path class="st5" d="M40.411,49.251c-0.252,0-0.501-0.096-0.691-0.278L28.324,38.064c-0.208-0.198-0.32-0.477-0.308-0.764
							l0.446-10.781c0.016-0.396,0.265-0.745,0.634-0.89c0.37-0.145,0.789-0.057,1.07,0.223l10.95,10.901
							c0.188,0.188,0.294,0.442,0.294,0.708v10.789c0,0.4-0.239,0.762-0.607,0.919C40.677,49.225,40.544,49.251,40.411,49.251z
							 M30.033,36.932l9.378,8.978v-8.032l-9.045-9.004L30.033,36.932z"/>
					</g>
				</g>
				<g>
					<g>
						<path class="st5" d="M40.412,38.462c-0.258,0-0.513-0.1-0.706-0.292L28.755,27.27c-0.208-0.207-0.314-0.495-0.292-0.788
							c0.023-0.292,0.174-0.56,0.412-0.732c8.873-6.405,19.349-9.79,30.296-9.79c0.542,0,1.042,0.433,1.042,1v15.237
							c0,0.552-0.449,1-1.001,1c-6.467,0-12.789,1.771-18.281,5.12C40.771,38.415,40.59,38.462,40.412,38.462z M31.01,26.692
							l9.556,9.514c5.359-3.113,11.424-4.83,17.646-4.996l0.001-13.241C48.428,18.153,39.068,21.155,31.01,26.692z"/>
					</g>
				</g>
			</g>
			<g>
				<g>
					<path class="st5" d="M59.213,96.35c-15.601,0-28.334-12.677-28.385-28.26c-0.024-7.536,2.886-14.616,8.196-19.938
						c5.358-5.371,12.519-8.329,20.163-8.329c0.009,0,0.018,0,0.027,0c15.651,0.014,28.384,12.693,28.384,28.263
						C87.598,83.671,74.865,96.35,59.213,96.35z M59.187,41.824c-7.109,0-13.766,2.749-18.747,7.741
						c-4.931,4.942-7.634,11.519-7.612,18.519C32.875,82.567,44.711,94.35,59.213,94.35c14.549,0,26.385-11.782,26.385-26.263
						c0-14.468-11.837-26.25-26.386-26.263C59.204,41.824,59.195,41.824,59.187,41.824z"/>
				</g>
			</g>
		</g>
		<g>
			<g>
				<g>
					<path class="st5" d="M89.411,48.352c-6.095,0-11.053-4.938-11.053-11.009s4.958-11.009,11.053-11.009
						c6.095,0,11.054,4.939,11.054,11.009S95.506,48.352,89.411,48.352z M89.411,28.333c-4.992,0-9.053,4.042-9.053,9.009
						c0,4.967,4.061,9.009,9.053,9.009s9.054-4.042,9.054-9.009C98.465,32.375,94.403,28.333,89.411,28.333z"/>
				</g>
			</g>
			<g>
				<g>
					<path class="st4" d="M89.407,43.544c-0.173,0-0.346-0.045-0.501-0.134c-0.206-0.119-5.036-2.959-5.036-6.909
						c0-1.94,1.336-3.349,3.176-3.349c1.004,0,1.793,0.498,2.36,1.105c0.567-0.607,1.356-1.105,2.36-1.105
						c1.84,0,3.176,1.409,3.176,3.349c0,3.95-4.83,6.79-5.036,6.909C89.752,43.499,89.58,43.544,89.407,43.544z M87.046,35.152
						c-1.091,0-1.176,1.033-1.176,1.349c0,2.027,2.226,3.965,3.537,4.859c1.311-0.894,3.537-2.832,3.537-4.859
						c0-0.316-0.085-1.349-1.176-1.349c-0.882,0-1.425,1.292-1.43,1.305c-0.152,0.379-0.521,0.63-0.929,0.63
						c-0.002,0-0.004,0-0.006,0c-0.411-0.002-0.779-0.253-0.928-0.636C88.471,36.443,87.929,35.152,87.046,35.152z"/>
				</g>
			</g>
		</g>
		<g>
			<g>
				<g>
					<path class="st5" d="M16.506,74.451c-6.095,0-11.054-4.938-11.054-11.009s4.958-11.009,11.054-11.009
						S27.56,57.372,27.56,63.442S22.602,74.451,16.506,74.451z M16.506,54.433c-4.992,0-9.054,4.042-9.054,9.009
						s4.062,9.009,9.054,9.009s9.054-4.042,9.054-9.009S21.499,54.433,16.506,54.433z"/>
				</g>
			</g>
			<g>
				<g>
					<path class="st5" d="M16.506,71.519c-0.552,0-1-0.448-1-1v-1.54c0-0.552,0.448-1,1-1s1,0.448,1,1v1.54
						C17.506,71.071,17.059,71.519,16.506,71.519z"/>
				</g>
			</g>
			<g>
				<g>
					<path class="st5" d="M17.168,69.979h-1.33c-1.837,0-3.333-1.493-3.333-3.328c0-0.552,0.448-1,1-1s1,0.448,1,1
						c0,0.732,0.598,1.328,1.333,1.328h1.33c0.738,0,1.338-0.596,1.338-1.328V65.84c0-0.729-0.601-1.323-1.338-1.323h-1.33
						c-1.837,0-3.333-1.49-3.333-3.322v-0.817c0-1.832,1.495-3.323,3.333-3.323h1.33c1.841,0,3.338,1.491,3.338,3.323
						c0,0.552-0.448,1-1,1s-1-0.448-1-1c0-0.729-0.601-1.323-1.338-1.323h-1.33c-0.735,0-1.333,0.593-1.333,1.323v0.817
						c0,0.729,0.598,1.322,1.333,1.322h1.33c1.841,0,3.338,1.491,3.338,3.323v0.812C20.507,68.486,19.009,69.979,17.168,69.979z"/>
				</g>
			</g>
			<g>
				<g>
					<path class="st5" d="M16.506,59.055c-0.552,0-1-0.448-1-1v-1.69c0-0.552,0.448-1,1-1s1,0.448,1,1v1.69
						C17.506,58.607,17.059,59.055,16.506,59.055z"/>
				</g>
			</g>
		</g>
		<g>
			<g>
				<g>
					<path class="st5" d="M89.411,109.208c-6.498,0-11.785-5.265-11.785-11.737s5.287-11.737,11.785-11.737
						c6.499,0,11.785,5.265,11.785,11.737S95.91,109.208,89.411,109.208z M89.411,87.734c-5.396,0-9.785,4.368-9.785,9.737
						s4.389,9.737,9.785,9.737s9.785-4.368,9.785-9.737S94.807,87.734,89.411,87.734z"/>
				</g>
			</g>
			<g>
				<g>
					<path class="st5" d="M85.864,103.905c-0.208,0-0.415-0.064-0.589-0.192c-0.308-0.224-0.461-0.603-0.396-0.978l0.587-3.412
						l-2.49-2.417c-0.273-0.266-0.373-0.664-0.255-1.026c0.117-0.363,0.431-0.627,0.808-0.682l3.446-0.499l1.54-3.107
						c0.338-0.681,1.454-0.681,1.792,0l1.54,3.107l3.446,0.499c0.377,0.055,0.691,0.319,0.808,0.682
						c0.118,0.362,0.019,0.76-0.255,1.026l-2.491,2.417l0.588,3.412c0.065,0.375-0.089,0.754-0.396,0.978s-0.716,0.254-1.053,0.078
						l-3.083-1.614l-3.083,1.613C86.182,103.867,86.023,103.905,85.864,103.905z M85.828,96.887l1.41,1.368
						c0.237,0.23,0.345,0.562,0.289,0.888l-0.333,1.938l1.754-0.918c0.291-0.152,0.637-0.152,0.928,0l1.754,0.918l-0.334-1.938
						c-0.056-0.326,0.052-0.658,0.289-0.888l1.41-1.368l-1.953-0.283c-0.326-0.047-0.607-0.251-0.753-0.545l-0.877-1.771
						l-0.877,1.771c-0.146,0.294-0.427,0.498-0.753,0.545L85.828,96.887z"/>
				</g>
			</g>
		</g>
	</g>
</g>
</svg>
