<?xml version="1.0" encoding="utf-8"?>
<!-- Generator: Adobe Illustrator 22.0.0, SVG Export Plug-In . SVG Version: 6.00 Build 0)  -->
<svg version="1.1" id="MARKET_RESEARCH_ICON_SET" xmlns="http://www.w3.org/2000/svg" xmlns:xlink="http://www.w3.org/1999/xlink"
	 x="0px" y="0px" viewBox="0 0 128 128" style="enable-background:new 0 0 128 128;" xml:space="preserve">
<style type="text/css">
	.st0{fill:#C2D5EC;}
	.st1{fill:#61E1FF;}
	.st2{fill:#7184AF;}
	.st3{fill:#F8F8F8;}
	.st4{fill:#3F4D81;}
	.st5{fill:#3F4D80;}
	.st6{fill:#E9EAEB;}
	.st7{fill:#F79559;}
	.st8{fill:#FFA85A;}
</style>
<g>
	<g>
		<g>
			
				<ellipse transform="matrix(0.9998 -0.0199 0.0199 0.9998 -1.2637 1.2892)" class="st0" cx="63.999" cy="64" rx="57.198" ry="54.499"/>
		</g>
		<g>
			
				<ellipse transform="matrix(0.9998 -0.0199 0.0199 0.9998 -1.2637 1.2892)" class="st2" cx="63.999" cy="64" rx="46.831" ry="44.621"/>
		</g>
		<g>
			<path class="st6" d="M87.838,85.485c-2.209,0-4-1.783-4-3.982V46.497c0-2.199,1.791-3.982,4-3.982h3.028
				c-6.487-7.078-16.113-11.569-26.867-11.569s-20.38,4.491-26.867,11.569h3.03c2.209,0,4,1.783,4,3.982v35.006
				c0,2.199-1.791,3.982-4,3.982h-3.03c6.487,7.078,16.113,11.569,26.867,11.569s20.38-4.491,26.867-11.569H87.838z"/>
		</g>
		<g>
			<path class="st8" d="M40.162,85.485H4.999c-2.209,0-4-1.783-4-3.982V46.497c0-2.199,1.791-3.982,4-3.982h35.162
				c2.209,0,4,1.783,4,3.982v35.007C44.162,83.703,42.371,85.485,40.162,85.485z"/>
		</g>
		<g>
			<path class="st3" d="M44.139,46.12c-0.15-0.01-0.29-0.02-0.44-0.02H5.749c-0.67,0-1.21,0.538-1.21,1.205v37.781
				c0,0.129,0.01,0.249,0.02,0.378c-2-0.219-3.56-1.911-3.56-3.962V46.498c0-2.2,1.79-3.982,4-3.982h35.16
				C42.239,42.516,43.949,44.099,44.139,46.12z"/>
		</g>
		<g>
			<path class="st1" d="M123.001,85.485H87.838c-2.209,0-4-1.783-4-3.982V46.497c0-2.199,1.791-3.982,4-3.982h35.162
				c2.209,0,4,1.783,4,3.982v35.007C127.001,83.703,125.21,85.485,123.001,85.485z"/>
		</g>
		<g>
			<path class="st3" d="M126.989,46.239h-38.07c-0.63,0-1.14,0.508-1.14,1.135v37.861c0,0.08,0,0.169,0.01,0.249
				c-2.19-0.03-3.95-1.802-3.95-3.982V46.498c0-2.2,1.79-3.982,4-3.982h35.16C125.119,42.516,126.859,44.159,126.989,46.239z"/>
		</g>
		<g>
			<ellipse class="st5" cx="22.581" cy="42.515" rx="3.248" ry="3.233"/>
		</g>
		<g>
			<ellipse class="st5" cx="105.42" cy="85.485" rx="3.248" ry="3.233"/>
		</g>
	</g>
	<g>
		<g>
			<g>
				<g>
					<g>
						<g>
							<path class="st5" d="M28.993,71.384c-0.255,0-0.51-0.097-0.706-0.292l-12.657-12.6c-0.391-0.39-0.393-1.022-0.003-1.414
								s1.022-0.393,1.414-0.003l12.657,12.6c0.391,0.39,0.393,1.022,0.003,1.414C29.506,71.286,29.25,71.384,28.993,71.384z"/>
						</g>
					</g>
					<g>
						<g>
							<path class="st5" d="M16.336,71.384c-0.257,0-0.513-0.098-0.708-0.294c-0.39-0.392-0.388-1.024,0.003-1.414l12.657-12.6
								c0.392-0.389,1.025-0.388,1.414,0.003c0.39,0.392,0.388,1.024-0.003,1.414l-12.657,12.6
								C16.846,71.287,16.591,71.384,16.336,71.384z"/>
						</g>
					</g>
				</g>
				<g>
					<g>
						<g>
							<path class="st5" d="M34.112,71.919c-0.177,0-0.355-0.047-0.518-0.145c-0.472-0.287-0.623-0.901-0.336-1.374
								c1.178-1.942,1.801-4.156,1.801-6.401s-0.623-4.458-1.801-6.401c-0.287-0.472-0.136-1.087,0.336-1.374
								c0.473-0.285,1.087-0.135,1.374,0.336c1.368,2.255,2.091,4.827,2.091,7.438s-0.723,5.183-2.091,7.438
								C34.78,71.748,34.45,71.919,34.112,71.919z"/>
						</g>
					</g>
					<g>
						<g>
							<path class="st5" d="M11.048,71.919c-0.338,0-0.668-0.171-0.856-0.481C8.825,69.184,8.102,66.611,8.102,64
								s0.723-5.184,2.091-7.438c0.286-0.473,0.902-0.622,1.374-0.336c0.472,0.287,0.623,0.901,0.336,1.374
								c-1.178,1.942-1.801,4.155-1.801,6.401s0.623,4.459,1.801,6.401c0.287,0.472,0.136,1.087-0.336,1.374
								C11.404,71.873,11.225,71.919,11.048,71.919z"/>
						</g>
					</g>
				</g>
			</g>
			<g>
				<g>
					<path class="st5" d="M40.162,86.485H5c-2.757,0-5-2.235-5-4.982V46.497c0-2.747,2.243-4.982,5-4.982h35.162
						c2.757,0,5,2.235,5,4.982v35.007C45.162,84.25,42.918,86.485,40.162,86.485z M5,43.515c-1.654,0-3,1.338-3,2.982v35.007
						c0,1.644,1.346,2.982,3,2.982h35.162c1.654,0,3-1.338,3-2.982V46.497c0-1.644-1.346-2.982-3-2.982H5z"/>
				</g>
			</g>
		</g>
		<g>
			<g>
				<g>
					<path class="st5" d="M123.001,86.485H87.839c-2.757,0-5-2.235-5-4.982V46.497c0-2.747,2.243-4.982,5-4.982h35.162
						c2.757,0,5,2.235,5,4.982v35.007C128.001,84.25,125.758,86.485,123.001,86.485z M87.839,43.515c-1.654,0-3,1.338-3,2.982
						v35.007c0,1.644,1.346,2.982,3,2.982h35.162c1.654,0,3-1.338,3-2.982V46.497c0-1.644-1.346-2.982-3-2.982H87.839z"/>
				</g>
			</g>
			<g>
				<g>
					<g>
						<g>
							<path class="st5" d="M105.421,65c-0.304,0-0.604-0.137-0.8-0.398l-6.329-8.4c-0.332-0.441-0.244-1.068,0.197-1.4
								c0.441-0.332,1.07-0.244,1.4,0.197l6.329,8.4c0.332,0.441,0.244,1.068-0.197,1.4C105.842,64.935,105.63,65,105.421,65z"/>
						</g>
					</g>
					<g>
						<g>
							<path class="st5" d="M105.419,65c-0.209,0-0.421-0.065-0.601-0.201c-0.441-0.333-0.529-0.959-0.197-1.4l6.328-8.4
								c0.331-0.441,0.96-0.53,1.4-0.197c0.441,0.333,0.529,0.959,0.197,1.4l-6.328,8.4C106.022,64.863,105.723,65,105.419,65z"/>
						</g>
					</g>
					<g>
						<g>
							<path class="st5" d="M105.42,73.4c-0.553,0-1-0.448-1-1V64c0-0.552,0.447-1,1-1s1,0.448,1,1v8.4
								C106.42,72.952,105.973,73.4,105.42,73.4z"/>
						</g>
					</g>
				</g>
				<g>
					<g>
						<g>
							<path class="st5" d="M116.951,71.919c-0.177,0-0.355-0.047-0.518-0.145c-0.473-0.287-0.623-0.902-0.336-1.374
								c1.178-1.941,1.801-4.154,1.801-6.4s-0.623-4.459-1.801-6.4c-0.287-0.472-0.137-1.087,0.336-1.374
								c0.473-0.285,1.087-0.136,1.373,0.336c1.368,2.254,2.092,4.827,2.092,7.438s-0.724,5.184-2.092,7.438
								C117.619,71.748,117.289,71.919,116.951,71.919z"/>
						</g>
					</g>
					<g>
						<g>
							<path class="st5" d="M93.888,71.919c-0.338,0-0.668-0.171-0.855-0.481C91.664,69.184,90.94,66.612,90.94,64
								s0.724-5.184,2.092-7.438c0.285-0.472,0.9-0.622,1.373-0.336c0.473,0.287,0.623,0.902,0.336,1.374
								c-1.178,1.941-1.801,4.154-1.801,6.4s0.623,4.459,1.801,6.4c0.287,0.472,0.137,1.087-0.336,1.374
								C94.243,71.873,94.064,71.919,93.888,71.919z"/>
						</g>
					</g>
				</g>
			</g>
		</g>
		<g>
			<g>
				<path class="st5" d="M82.162,65h-2c-0.553,0-1-0.448-1-1s0.447-1,1-1h2c0.553,0,1,0.448,1,1S82.715,65,82.162,65z M76.162,65
					h-2.001c-0.553,0-1-0.448-1-1s0.447-1,1-1h2.001c0.553,0,1,0.448,1,1S76.715,65,76.162,65z M70.161,65h-1.999
					c-0.553,0-1-0.448-1-1s0.447-1,1-1h1.999c0.553,0,1,0.448,1,1S70.714,65,70.161,65z M64.162,65h-2c-0.552,0-1-0.448-1-1
					s0.448-1,1-1h2c0.552,0,1,0.448,1,1S64.714,65,64.162,65z M58.162,65h-2c-0.552,0-1-0.448-1-1s0.448-1,1-1h2
					c0.552,0,1,0.448,1,1S58.714,65,58.162,65z M52.162,65h-2c-0.552,0-1-0.448-1-1s0.448-1,1-1h2c0.552,0,1,0.448,1,1
					S52.714,65,52.162,65z M46.162,65h-2c-0.552,0-1-0.448-1-1s0.448-1,1-1h2c0.552,0,1,0.448,1,1S46.714,65,46.162,65z"/>
			</g>
		</g>
		<g>
			<g>
				<path class="st5" d="M22.985,43.515c-0.173,0-0.349-0.045-0.509-0.14c-0.475-0.282-0.632-0.895-0.351-1.37
					C30.892,27.21,46.546,18.378,64,18.378c11.785,0,23.203,4.193,32.151,11.806c0.42,0.358,0.471,0.989,0.113,1.41
					c-0.358,0.421-0.989,0.471-1.41,0.114C86.269,24.401,75.311,20.378,64,20.378c-16.74,0-31.751,8.466-40.153,22.646
					C23.66,43.34,23.327,43.515,22.985,43.515z"/>
			</g>
		</g>
		<g>
			<g>
				<path class="st5" d="M64,109.622c-11.785,0-23.203-4.193-32.15-11.806c-0.421-0.358-0.472-0.989-0.114-1.41
					c0.357-0.42,0.99-0.472,1.41-0.114c8.586,7.306,19.544,11.329,30.854,11.329c16.765,0,31.774-8.465,40.151-22.646
					c0.281-0.476,0.895-0.632,1.37-0.352c0.476,0.281,0.633,0.894,0.353,1.37C97.133,100.789,81.479,109.622,64,109.622z"/>
			</g>
		</g>
		<g>
			<g>
				<path class="st5" d="M89.114,32.597c-0.507,0-0.941-0.384-0.994-0.898c-0.056-0.549,0.344-1.041,0.894-1.096l5.392-0.55
					l-0.552-5.364c-0.056-0.55,0.344-1.041,0.893-1.097c0.555-0.063,1.04,0.342,1.098,0.892l0.654,6.359
					c0.026,0.264-0.052,0.528-0.22,0.734c-0.167,0.206-0.41,0.336-0.674,0.363l-6.388,0.651
					C89.183,32.595,89.147,32.597,89.114,32.597z"/>
			</g>
		</g>
		<g>
			<g>
				<path class="st5" d="M33.151,104.414c-0.506,0-0.941-0.383-0.994-0.897l-0.654-6.359c-0.027-0.264,0.052-0.528,0.219-0.734
					c0.167-0.206,0.41-0.336,0.674-0.363l6.388-0.651c0.551-0.068,1.04,0.344,1.096,0.893s-0.344,1.041-0.893,1.096l-5.392,0.55
					l0.552,5.364c0.057,0.55-0.343,1.041-0.892,1.097C33.219,104.413,33.185,104.414,33.151,104.414z"/>
			</g>
		</g>
		<g>
			<g>
				<path class="st5" d="M64,98.055c-10.616,0-20.677-4.335-27.605-11.894c-0.268-0.292-0.338-0.715-0.178-1.079
					c0.16-0.363,0.519-0.597,0.916-0.597h3.03c1.654,0,3-1.338,3-2.982V46.497c0-1.644-1.346-2.982-3-2.982h-3.03
					c-0.396,0-0.756-0.234-0.916-0.597c-0.16-0.363-0.09-0.786,0.178-1.079C43.322,34.28,53.384,29.945,64,29.945
					s20.677,4.335,27.604,11.894c0.268,0.292,0.338,0.715,0.178,1.079c-0.159,0.363-0.519,0.597-0.915,0.597h-3.027
					c-1.654,0-3,1.338-3,2.982v35.006c0,1.645,1.346,2.982,3,2.982h3.028c0.396,0,0.756,0.234,0.915,0.597
					c0.16,0.363,0.09,0.786-0.178,1.079C84.677,93.72,74.615,98.055,64,98.055z M39.518,86.485
					c6.447,6.107,15.24,9.569,24.482,9.569s18.035-3.462,24.482-9.569h-0.643c-2.757,0-5-2.235-5-4.982V46.497
					c0-2.747,2.243-4.982,5-4.982h0.642C82.034,35.407,73.242,31.945,64,31.945c-9.242,0-18.035,3.462-24.482,9.569h0.644
					c2.757,0,5,2.235,5,4.982v35.006c0,2.748-2.243,4.982-5,4.982H39.518z"/>
			</g>
		</g>
	</g>
</g>
</svg>
