<?xml version="1.0" encoding="utf-8"?>
<!-- Generator: Adobe Illustrator 22.0.0, SVG Export Plug-In . SVG Version: 6.00 Build 0)  -->
<svg version="1.1" id="MARKET_RESEARCH_ICON_SET" xmlns="http://www.w3.org/2000/svg" xmlns:xlink="http://www.w3.org/1999/xlink"
	 x="0px" y="0px" viewBox="0 0 128 128" style="enable-background:new 0 0 128 128;" xml:space="preserve">
<style type="text/css">
	.st0{fill:#C2D5EC;}
	.st1{fill:#61E1FF;}
	.st2{fill:#7184AF;}
	.st3{fill:#F8F8F8;}
	.st4{fill:#3F4D81;}
	.st5{fill:#3F4D80;}
	.st6{fill:#E9EAEB;}
	.st7{fill:#F79559;}
	.st8{fill:#FFA85A;}
</style>
<g>
	<g>
		<g>
			<rect x="27.949" y="21.516" class="st0" width="72.102" height="84.967"/>
		</g>
		<g>
			<path class="st5" d="M48.323,83.46h-2.594c-2.037,0-3.688-1.643-3.688-3.669V56.167c0-2.026,1.651-3.669,3.688-3.669h4.214
				c-4.882-6.85-12.91-11.325-21.994-11.325v53.613c8.492,0,16.061-3.911,20.999-10.016C49.373,84.244,49,83.46,48.323,83.46z"/>
		</g>
		<g>
			<path class="st5" d="M85.961,76.712v-17.81c0-1.528-1.245-2.766-2.781-2.766H52.617c-1.536,0-2.781,1.238-2.781,2.766v17.81
				c0,1.528,1.245,2.766,2.781,2.766h6.713c1.536,0,2.781,1.238,2.781,2.766v4.707c0,0.658,0.814,0.972,1.26,0.486l6.482-7.058
				c0.527-0.574,1.272-0.901,2.053-0.901H83.18C84.716,79.478,85.961,78.24,85.961,76.712z"/>
		</g>
		<g>
			<g>
				<path class="st1" d="M82.063,55.095v17.81c0,1.528-1.245,2.766-2.781,2.766H68.007c-0.781,0-1.526,0.327-2.053,0.9l-7.742,8.43
					v-6.565c0-1.528-1.245-2.766-2.781-2.766h-6.713c-1.536,0-2.781-1.238-2.781-2.766v-17.81c0-1.528,1.245-2.766,2.781-2.766
					h30.564C80.818,52.329,82.063,53.568,82.063,55.095z"/>
			</g>
		</g>
		<g>
			<g>
				<path class="st3" d="M82.06,55.097v0.497H50.19c-0.5,0-0.9,0.398-0.9,0.895v19.178h-0.57c-1.54,0-2.78-1.233-2.78-2.765V55.097
					c0-1.532,1.24-2.765,2.78-2.765h30.56C80.82,52.332,82.06,53.566,82.06,55.097z"/>
			</g>
		</g>
		<g>
			<ellipse class="st5" cx="63.691" cy="70.027" rx="1.069" ry="1.064"/>
		</g>
		<g>
			<path class="st6" d="M27.949,37.194c9.084,0,17.112,4.475,21.994,11.325h-4.214c-2.037,0-3.688,1.643-3.688,3.669v23.625
				c0,2.026,1.651,3.669,3.688,3.669h4.214c-4.882,6.85-12.91,11.325-21.993,11.325C13.065,90.806,1,78.805,1,64
				S13.065,37.194,27.949,37.194z"/>
		</g>
		<g>
			<path class="st3" d="M5.31,64.07c0,13.946,10.7,25.405,24.39,26.678c-0.58,0.04-1.16,0.06-1.75,0.06C13.07,90.808,1,78.801,1,64
				s12.07-26.807,26.95-26.807c0.89,0,1.76,0.04,2.62,0.129C16.47,38.177,5.31,49.825,5.31,64.07z"/>
		</g>
		<g>
			<path class="st6" d="M100.051,37.194c-9.084,0-17.112,4.475-21.994,11.325h4.214c2.037,0,3.688,1.643,3.688,3.669v23.625
				c0,2.026-1.651,3.669-3.688,3.669h-4.214c4.882,6.85,12.91,11.325,21.993,11.325C114.935,90.806,127,78.805,127,64
				S114.935,37.194,100.051,37.194z"/>
		</g>
		<g>
			<path class="st3" d="M86.55,79.478h-4.21c2.01-0.04,3.62-1.661,3.62-3.661V52.183c0-1.999-1.61-3.621-3.62-3.661h4.21
				c2.04,0,3.69,1.641,3.69,3.661v23.634C90.24,77.836,88.59,79.478,86.55,79.478z"/>
		</g>
		<g>
			<path class="st3" d="M102.14,90.718c-0.69,0.06-1.39,0.09-2.09,0.09c-9.08,0-17.11-4.476-21.99-11.33h4.28
				C86.82,85.774,93.96,90.062,102.14,90.718z"/>
		</g>
		<g>
			<path class="st3" d="M82.34,48.522h-4.28c4.88-6.854,12.91-11.33,21.99-11.33c0.7,0,1.4,0.03,2.09,0.09
				C93.96,37.939,86.82,42.226,82.34,48.522z"/>
		</g>
		<g>
			<path class="st8" d="M17.432,54.408c3.981,0,5.839,4.79,5.839,4.79s1.858-4.79,5.839-4.79c3.375,0,5.384,2.527,5.384,5.806
				c0,8.45-11.223,14.937-11.223,14.937s-11.223-6.487-11.223-14.937C12.048,56.935,14.057,54.408,17.432,54.408z"/>
		</g>
		<g>
			<path class="st8" d="M98.212,54.408c3.981,0,5.839,4.79,5.839,4.79s1.858-4.79,5.839-4.79c3.375,0,5.384,2.527,5.384,5.806
				c0,8.45-11.223,14.937-11.223,14.937s-11.223-6.487-11.223-14.937C92.828,56.935,94.837,54.408,98.212,54.408z"/>
		</g>
	</g>
	<g>
		<g>
			<g>
				<g>
					<g>
						<path class="st5" d="M58.212,86.002c-0.122,0-0.245-0.022-0.363-0.068c-0.384-0.149-0.637-0.52-0.637-0.932v-6.565
							c0-0.974-0.799-1.766-1.78-1.766h-6.714c-2.084,0-3.78-1.689-3.78-3.766v-17.81c0-2.077,1.696-3.766,3.78-3.766h30.564
							c2.084,0,3.78,1.689,3.78,3.766v17.81c0,2.077-1.696,3.766-3.78,3.766H68.007c-0.5,0-0.979,0.21-1.315,0.577l-7.743,8.431
							C58.755,85.889,58.486,86.002,58.212,86.002z M48.718,53.329c-0.981,0-1.78,0.792-1.78,1.766v17.81
							c0,0.974,0.799,1.766,1.78,1.766h6.714c2.084,0,3.78,1.689,3.78,3.766v3.998l6.006-6.54c0.713-0.778,1.73-1.224,2.789-1.224
							h11.275c0.981,0,1.78-0.792,1.78-1.766v-17.81c0-0.974-0.799-1.766-1.78-1.766H48.718z"/>
					</g>
				</g>
			</g>
			<g>
				<g>
					<g>
						<path class="st5" d="M63.691,67.836c-0.553,0-1-0.448-1-1c0-2.703,1.424-3.753,2.463-4.519
							c0.83-0.611,1.196-0.916,1.196-1.711c0-0.622-0.244-1.207-0.687-1.647c-0.918-0.912-2.41-0.913-3.328,0
							c-0.442,0.44-0.687,1.025-0.687,1.647s0.244,1.208,0.687,1.648c0.392,0.39,0.394,1.022,0.004,1.414
							c-0.389,0.393-1.021,0.394-1.414,0.004c-0.823-0.819-1.276-1.908-1.276-3.066c0-1.158,0.453-2.247,1.276-3.065
							c1.695-1.687,4.453-1.687,6.148,0c0.823,0.818,1.276,1.907,1.276,3.065c0,1.84-1.114,2.661-2.009,3.321
							c-0.922,0.679-1.65,1.216-1.65,2.909C64.691,67.388,64.244,67.836,63.691,67.836z"/>
					</g>
				</g>
			</g>
		</g>
		<g>
			<g>
				<path class="st5" d="M27.949,91.806C12.538,91.806,0,79.333,0,64s12.538-27.806,27.949-27.806
					c9.04,0,17.566,4.391,22.808,11.745c0.217,0.305,0.246,0.706,0.074,1.039c-0.171,0.333-0.515,0.542-0.889,0.542h-4.214
					c-1.482,0-2.688,1.197-2.688,2.669v23.625c0,1.472,1.206,2.669,2.688,2.669h4.214c0.374,0,0.718,0.209,0.889,0.542
					c0.172,0.333,0.143,0.733-0.074,1.039C45.516,87.416,36.989,91.806,27.949,91.806z M27.949,38.194C13.641,38.194,2,49.771,2,64
					s11.641,25.806,25.949,25.806c7.726,0,15.046-3.453,19.958-9.325h-2.179c-2.585,0-4.688-2.094-4.688-4.669V52.188
					c0-2.575,2.104-4.669,4.688-4.669h2.179C42.996,41.646,35.675,38.194,27.949,38.194z"/>
			</g>
		</g>
		<g>
			<g>
				<path class="st5" d="M100.051,91.806c-9.04,0-17.566-4.391-22.808-11.744c-0.217-0.305-0.246-0.706-0.074-1.039
					c0.171-0.333,0.515-0.542,0.889-0.542h4.214c1.482,0,2.688-1.197,2.688-2.669V52.188c0-1.472-1.206-2.669-2.688-2.669h-4.214
					c-0.374,0-0.718-0.209-0.889-0.542c-0.172-0.333-0.143-0.733,0.074-1.039c5.241-7.354,13.768-11.745,22.808-11.745
					C115.462,36.194,128,48.667,128,64S115.462,91.806,100.051,91.806z M80.093,80.481c4.912,5.872,12.232,9.325,19.958,9.325
					C114.359,89.806,126,78.229,126,64s-11.641-25.806-25.949-25.806c-7.726,0-15.047,3.452-19.958,9.325h2.179
					c2.585,0,4.688,2.094,4.688,4.669v23.625c0,2.575-2.104,4.669-4.688,4.669H80.093z"/>
			</g>
		</g>
		<g>
			<g>
				<path class="st5" d="M27.949,38.194c-0.553,0-1-0.448-1-1v-2c0-0.552,0.447-1,1-1s1,0.448,1,1v2
					C28.949,37.746,28.502,38.194,27.949,38.194z M27.949,32.194c-0.553,0-1-0.448-1-1v-2c0-0.552,0.447-1,1-1s1,0.448,1,1v2
					C28.949,31.746,28.502,32.194,27.949,32.194z M27.949,26.194c-0.553,0-1-0.448-1-1v-2c0-0.552,0.447-1,1-1s1,0.448,1,1v2
					C28.949,25.746,28.502,26.194,27.949,26.194z M102.529,22.516h-0.258c-0.553,0-1-0.448-1-1s0.447-1,1-1h0.258
					c0.553,0,1,0.448,1,1S103.082,22.516,102.529,22.516z M98.271,22.516h-2c-0.553,0-1-0.448-1-1s0.447-1,1-1h2
					c0.553,0,1,0.448,1,1S98.824,22.516,98.271,22.516z M92.271,22.516h-2c-0.553,0-1-0.448-1-1s0.447-1,1-1h2c0.553,0,1,0.448,1,1
					S92.824,22.516,92.271,22.516z M86.271,22.516h-2c-0.553,0-1-0.448-1-1s0.447-1,1-1h2c0.553,0,1,0.448,1,1
					S86.824,22.516,86.271,22.516z M80.271,22.516h-2c-0.553,0-1-0.448-1-1s0.447-1,1-1h2c0.553,0,1,0.448,1,1
					S80.824,22.516,80.271,22.516z M74.271,22.516h-2c-0.553,0-1-0.448-1-1s0.447-1,1-1h2c0.553,0,1,0.448,1,1
					S74.824,22.516,74.271,22.516z M68.271,22.516h-2c-0.553,0-1-0.448-1-1s0.447-1,1-1h2c0.553,0,1,0.448,1,1
					S68.824,22.516,68.271,22.516z M62.271,22.516h-2c-0.553,0-1-0.448-1-1s0.447-1,1-1h2c0.553,0,1,0.448,1,1
					S62.824,22.516,62.271,22.516z M56.271,22.516h-2c-0.553,0-1-0.448-1-1s0.447-1,1-1h2c0.553,0,1,0.448,1,1
					S56.824,22.516,56.271,22.516z M50.271,22.516h-2c-0.553,0-1-0.448-1-1s0.447-1,1-1h2c0.553,0,1,0.448,1,1
					S50.824,22.516,50.271,22.516z M44.271,22.516h-2c-0.553,0-1-0.448-1-1s0.447-1,1-1h2c0.553,0,1,0.448,1,1
					S44.824,22.516,44.271,22.516z M38.271,22.516h-2c-0.553,0-1-0.448-1-1s0.447-1,1-1h2c0.553,0,1,0.448,1,1
					S38.824,22.516,38.271,22.516z M32.271,22.516h-2c-0.553,0-1-0.448-1-1s0.447-1,1-1h2c0.553,0,1,0.448,1,1
					S32.824,22.516,32.271,22.516z"/>
			</g>
		</g>
		<g>
			<g>
				<path class="st5" d="M97.988,27.033c-0.257,0-0.514-0.098-0.709-0.295c-0.39-0.392-0.388-1.024,0.004-1.414l3.828-3.808
					l-3.828-3.807c-0.392-0.389-0.394-1.022-0.004-1.414s1.022-0.394,1.414-0.004l4.541,4.516c0.188,0.188,0.295,0.443,0.295,0.709
					s-0.106,0.521-0.295,0.709l-4.541,4.517C98.498,26.936,98.243,27.033,97.988,27.033z"/>
			</g>
		</g>
		<g>
			<g>
				<path class="st5" d="M97.729,107.484h-2c-0.553,0-1-0.448-1-1s0.447-1,1-1h2c0.553,0,1,0.448,1,1S98.281,107.484,97.729,107.484
					z M91.729,107.484h-2c-0.553,0-1-0.448-1-1s0.447-1,1-1h2c0.553,0,1,0.448,1,1S92.281,107.484,91.729,107.484z M85.729,107.484
					h-2c-0.553,0-1-0.448-1-1s0.447-1,1-1h2c0.553,0,1,0.448,1,1S86.281,107.484,85.729,107.484z M79.729,107.484h-2
					c-0.553,0-1-0.448-1-1s0.447-1,1-1h2c0.553,0,1,0.448,1,1S80.281,107.484,79.729,107.484z M73.729,107.484h-2
					c-0.553,0-1-0.448-1-1s0.447-1,1-1h2c0.553,0,1,0.448,1,1S74.281,107.484,73.729,107.484z M67.729,107.484h-2
					c-0.553,0-1-0.448-1-1s0.447-1,1-1h2c0.553,0,1,0.448,1,1S68.281,107.484,67.729,107.484z M61.729,107.484h-2
					c-0.553,0-1-0.448-1-1s0.447-1,1-1h2c0.553,0,1,0.448,1,1S62.281,107.484,61.729,107.484z M55.729,107.484h-2
					c-0.553,0-1-0.448-1-1s0.447-1,1-1h2c0.553,0,1,0.448,1,1S56.281,107.484,55.729,107.484z M49.729,107.484h-2
					c-0.553,0-1-0.448-1-1s0.447-1,1-1h2c0.553,0,1,0.448,1,1S50.281,107.484,49.729,107.484z M43.729,107.484h-2
					c-0.553,0-1-0.448-1-1s0.447-1,1-1h2c0.553,0,1,0.448,1,1S44.281,107.484,43.729,107.484z M37.729,107.484h-2
					c-0.553,0-1-0.448-1-1s0.447-1,1-1h2c0.553,0,1,0.448,1,1S38.281,107.484,37.729,107.484z M31.729,107.484h-2
					c-0.553,0-1-0.448-1-1s0.447-1,1-1h2c0.553,0,1,0.448,1,1S32.281,107.484,31.729,107.484z M25.729,107.484h-0.257
					c-0.553,0-1-0.448-1-1s0.447-1,1-1h0.257c0.553,0,1,0.448,1,1S26.281,107.484,25.729,107.484z M100.051,105.806
					c-0.553,0-1-0.448-1-1v-2c0-0.552,0.447-1,1-1s1,0.448,1,1v2C101.051,105.358,100.604,105.806,100.051,105.806z M100.051,99.806
					c-0.553,0-1-0.448-1-1v-2c0-0.552,0.447-1,1-1s1,0.448,1,1v2C101.051,99.358,100.604,99.806,100.051,99.806z M100.051,93.806
					c-0.553,0-1-0.448-1-1v-2c0-0.552,0.447-1,1-1s1,0.448,1,1v2C101.051,93.358,100.604,93.806,100.051,93.806z"/>
			</g>
		</g>
		<g>
			<g>
				<path class="st5" d="M30.012,112c-0.255,0-0.51-0.097-0.705-0.291l-4.54-4.516c-0.188-0.188-0.295-0.443-0.295-0.709
					s0.106-0.521,0.295-0.709l4.54-4.517c0.392-0.39,1.024-0.389,1.414,0.004c0.39,0.391,0.388,1.024-0.004,1.414l-3.827,3.808
					l3.827,3.807c0.392,0.39,0.394,1.022,0.004,1.414C30.525,111.902,30.269,112,30.012,112z"/>
			</g>
		</g>
		<g>
			<g>
				<path class="st5" d="M23.271,76.151c-0.173,0-0.346-0.045-0.5-0.134c-0.479-0.277-11.724-6.878-11.724-15.803
					c0-4.007,2.625-6.806,6.384-6.806c2.913,0,4.813,2.076,5.84,3.662c1.026-1.586,2.926-3.662,5.839-3.662
					c3.759,0,6.384,2.799,6.384,6.806c0,8.925-11.243,15.526-11.723,15.803C23.617,76.106,23.444,76.151,23.271,76.151z
					 M17.432,55.408c-2.663,0-4.384,1.887-4.384,4.806c0,6.8,8.104,12.412,10.223,13.763c2.118-1.353,10.224-6.975,10.224-13.763
					c0-2.919-1.721-4.806-4.384-4.806c-3.259,0-4.891,4.11-4.906,4.151c-0.149,0.385-0.52,0.639-0.933,0.639
					s-0.783-0.253-0.933-0.638C22.323,59.52,20.67,55.408,17.432,55.408z"/>
			</g>
		</g>
		<g>
			<g>
				<path class="st5" d="M104.051,76.151c-0.173,0-0.346-0.045-0.5-0.134c-0.479-0.277-11.723-6.878-11.723-15.803
					c0-4.007,2.625-6.806,6.384-6.806c2.913,0,4.812,2.076,5.839,3.662c1.026-1.586,2.927-3.662,5.84-3.662
					c3.759,0,6.384,2.799,6.384,6.806c0,8.925-11.244,15.526-11.724,15.803C104.396,76.106,104.224,76.151,104.051,76.151z
					 M98.212,55.408c-2.663,0-4.384,1.887-4.384,4.806c0,6.8,8.104,12.412,10.222,13.763c2.118-1.353,10.225-6.975,10.225-13.763
					c0-2.919-1.721-4.806-4.384-4.806c-3.259,0-4.892,4.11-4.907,4.152c-0.149,0.385-0.52,0.638-0.933,0.638l0,0
					c-0.413,0-0.783-0.253-0.933-0.639C103.103,59.52,101.45,55.408,98.212,55.408z"/>
			</g>
		</g>
		<g>
			<g>
				<g>
					<path class="st5" d="M93.727,73.616c-0.276,0-0.553-0.114-0.75-0.339c-0.365-0.414-0.325-1.046,0.089-1.411l20.649-18.208
						c0.412-0.364,1.046-0.327,1.411,0.089c0.365,0.414,0.325,1.046-0.089,1.411L94.388,73.366
						C94.198,73.533,93.962,73.616,93.727,73.616z"/>
				</g>
			</g>
			<g>
				<g>
					<path class="st5" d="M114.376,73.616c-0.235,0-0.472-0.083-0.661-0.25L93.065,55.158c-0.414-0.365-0.454-0.997-0.089-1.411
						c0.365-0.416,1-0.453,1.411-0.089l20.649,18.208c0.414,0.365,0.454,0.997,0.089,1.411
						C114.929,73.501,114.652,73.616,114.376,73.616z"/>
				</g>
			</g>
		</g>
	</g>
</g>
</svg>
