<?xml version="1.0" encoding="utf-8"?>
<!-- Generator: Adobe Illustrator 22.0.0, SVG Export Plug-In . SVG Version: 6.00 Build 0)  -->
<svg version="1.1" id="MARKET_RESEARCH_ICON_SET" xmlns="http://www.w3.org/2000/svg" xmlns:xlink="http://www.w3.org/1999/xlink"
	 x="0px" y="0px" viewBox="0 0 128 128" style="enable-background:new 0 0 128 128;" xml:space="preserve">
<style type="text/css">
	.st0{fill:#C2D5EC;}
	.st1{fill:#61E1FF;}
	.st2{fill:#7184AF;}
	.st3{fill:#F8F8F8;}
	.st4{fill:#3F4D81;}
	.st5{fill:#3F4D80;}
	.st6{fill:#E9EAEB;}
	.st7{fill:#F79559;}
	.st8{fill:#FFA85A;}
</style>
<g>
	<g>
		<g>
			<path class="st0" d="M110.5,49.825c-9.113,0-16.5-7.348-16.5-16.413c0-2.889,0.756-5.6,2.074-7.958H9.5v54.782
				c2.37-1.31,5.096-2.063,8-2.063c9.113,0,16.5,7.348,16.5,16.413c0,2.889-0.756,5.6-2.074,7.958H118.5V47.763
				C116.13,49.073,113.404,49.825,110.5,49.825z"/>
		</g>
		<g>
			<g>
				<path class="st5" d="M66,51.582c-16.569,0-30,15.402-30,15.402s13.431,15.402,30,15.402c16.568,0,30-15.402,30-15.402
					S82.568,51.582,66,51.582z"/>
			</g>
		</g>
		<g>
			<g>
				<path class="st5" d="M66,83.386c-16.83,0-30.193-15.102-30.754-15.745c-0.328-0.376-0.328-0.938,0-1.314
					C35.807,65.684,49.17,50.582,66,50.582s30.193,15.102,30.754,15.745c0.328,0.376,0.328,0.938,0,1.314
					C96.193,68.284,82.83,83.386,66,83.386z M37.363,66.983C40.14,69.885,52.027,81.386,66,81.386s25.86-11.501,28.636-14.402
					C91.86,64.083,79.973,52.582,66,52.582C52.011,52.582,40.137,64.081,37.363,66.983z"/>
			</g>
		</g>
		<g>
			<g>
				<g>
					<path class="st3" d="M64,48.598C47.431,48.598,34,64,34,64s13.431,15.402,30,15.402C80.568,79.402,94,64,94,64
						S80.568,48.598,64,48.598z"/>
				</g>
			</g>
			<g>
				<ellipse class="st1" cx="64" cy="63.964" rx="15.448" ry="15.366"/>
			</g>
			<g>
				<path class="st3" d="M65.92,79.209c-0.63,0.08-1.27,0.119-1.92,0.119c-8.53,0-15.45-6.873-15.45-15.368
					c0-8.485,6.92-15.358,15.45-15.358c0.65,0,1.29,0.04,1.92,0.119c-7.63,0.935-13.53,7.401-13.53,15.239
					C52.39,71.808,58.29,78.274,65.92,79.209z"/>
			</g>
			<g>
				<ellipse class="st5" cx="64" cy="64" rx="3.248" ry="3.231"/>
			</g>
		</g>
		<g>
			<ellipse class="st5" cx="64" cy="94.587" rx="3.248" ry="3.231"/>
		</g>
		<g>
			<ellipse class="st5" cx="64" cy="33.413" rx="3.248" ry="3.231"/>
		</g>
		<g>
			<g>
				<ellipse class="st8" cx="110.5" cy="33.413" rx="16.5" ry="16.413"/>
			</g>
			<g>
				<polygon class="st3" points="110.5,25.106 113.213,30.575 119.28,31.452 114.89,35.709 115.927,41.719 110.5,38.881 
					105.073,41.719 106.11,35.709 101.72,31.452 107.787,30.575 				"/>
			</g>
		</g>
		<g>
			<g>
				<ellipse class="st8" cx="17.5" cy="94.587" rx="16.5" ry="16.413"/>
			</g>
			<g>
				<polygon class="st3" points="17.5,84.95 7.042,89.386 17.5,93.822 27.958,89.386 				"/>
			</g>
			<g>
				<polygon class="st0" points="27.958,99.789 17.5,104.225 17.5,93.822 27.958,89.386 				"/>
			</g>
			<g>
				<polygon class="st6" points="7.042,99.789 17.5,104.225 17.5,93.822 7.042,89.386 				"/>
			</g>
		</g>
	</g>
	<g>
		<g>
			<g>
				<g>
					<g>
						<g>
							<path class="st5" d="M64,80.402c-16.83,0-30.193-15.102-30.754-15.745c-0.328-0.376-0.328-0.938,0-1.314
								C33.807,62.7,47.17,47.598,64,47.598S94.193,62.7,94.754,63.343c0.328,0.376,0.328,0.938,0,1.314
								C94.193,65.3,80.83,80.402,64,80.402z M35.363,64C38.14,66.901,50.027,78.402,64,78.402
								c13.989,0,25.863-11.499,28.637-14.401C89.86,61.099,77.973,49.598,64,49.598C50.011,49.598,38.137,61.097,35.363,64z"/>
						</g>
					</g>
				</g>
				<g>
					<g>
						<path class="st5" d="M64,80.33c-9.069,0-16.448-7.342-16.448-16.366c0-9.024,7.379-16.366,16.448-16.366
							s16.447,7.342,16.447,16.366C80.447,72.988,73.069,80.33,64,80.33z M64,49.598c-7.967,0-14.448,6.445-14.448,14.366
							S56.033,78.33,64,78.33c7.966,0,14.447-6.444,14.447-14.366S71.966,49.598,64,49.598z"/>
					</g>
				</g>
			</g>
			<g>
				<g>
					<path class="st5" d="M64,57.042c-0.553,0-1-0.448-1-1v-2.888c0-0.552,0.447-1,1-1s1,0.448,1,1v2.888
						C65,56.595,64.553,57.042,64,57.042z"/>
				</g>
			</g>
			<g>
				<g>
					<path class="st5" d="M64,75.846c-0.553,0-1-0.448-1-1v-2.888c0-0.552,0.447-1,1-1s1,0.448,1,1v2.888
						C65,75.398,64.553,75.846,64,75.846z"/>
				</g>
			</g>
			<g>
				<g>
					<path class="st5" d="M74.903,65H72c-0.553,0-1-0.448-1-1s0.447-1,1-1h2.903c0.553,0,1,0.448,1,1S75.456,65,74.903,65z"/>
				</g>
			</g>
			<g>
				<g>
					<path class="st5" d="M56,65h-2.903c-0.553,0-1-0.448-1-1s0.447-1,1-1H56c0.553,0,1,0.448,1,1S56.553,65,56,65z"/>
				</g>
			</g>
			<g>
				<g>
					<path class="st5" d="M86.355,49.598c-0.553,0-1-0.448-1-1v-5.835h-5.871c-0.553,0-1-0.448-1-1s0.447-1,1-1h6.871
						c0.553,0,1,0.448,1,1v6.835C87.355,49.15,86.908,49.598,86.355,49.598z"/>
				</g>
			</g>
			<g>
				<g>
					<path class="st5" d="M48.517,87.237h-6.872c-0.553,0-1-0.448-1-1v-6.835c0-0.552,0.447-1,1-1s1,0.448,1,1v5.835h5.872
						c0.553,0,1,0.448,1,1S49.069,87.237,48.517,87.237z"/>
				</g>
			</g>
			<g>
				<g>
					<path class="st5" d="M86.355,87.237h-6.871c-0.553,0-1-0.448-1-1s0.447-1,1-1h5.871v-5.835c0-0.552,0.447-1,1-1s1,0.448,1,1
						v6.835C87.355,86.789,86.908,87.237,86.355,87.237z"/>
				</g>
			</g>
			<g>
				<g>
					<path class="st5" d="M41.645,49.598c-0.553,0-1-0.448-1-1v-6.835c0-0.552,0.447-1,1-1h6.872c0.553,0,1,0.448,1,1s-0.447,1-1,1
						h-5.872v5.835C42.645,49.15,42.197,49.598,41.645,49.598z"/>
				</g>
			</g>
		</g>
		<g>
			<g>
				<path class="st5" d="M17.5,79.175c-0.553,0-1-0.448-1-1v-2c0-0.552,0.447-1,1-1s1,0.448,1,1v2
					C18.5,78.727,18.053,79.175,17.5,79.175z M17.5,73.175c-0.553,0-1-0.448-1-1v-2c0-0.552,0.447-1,1-1s1,0.448,1,1v2
					C18.5,72.727,18.053,73.175,17.5,73.175z M17.5,67.175c-0.553,0-1-0.448-1-1v-2c0-0.552,0.447-1,1-1s1,0.448,1,1v2
					C18.5,66.727,18.053,67.175,17.5,67.175z M17.5,61.175c-0.553,0-1-0.448-1-1v-2c0-0.552,0.447-1,1-1s1,0.448,1,1v2
					C18.5,60.727,18.053,61.175,17.5,61.175z M17.5,55.175c-0.553,0-1-0.448-1-1v-2c0-0.552,0.447-1,1-1s1,0.448,1,1v2
					C18.5,54.727,18.053,55.175,17.5,55.175z M17.5,49.175c-0.553,0-1-0.448-1-1v-2c0-0.552,0.447-1,1-1s1,0.448,1,1v2
					C18.5,48.727,18.053,49.175,17.5,49.175z M17.5,43.175c-0.553,0-1-0.448-1-1v-2c0-0.552,0.447-1,1-1s1,0.448,1,1v2
					C18.5,42.727,18.053,43.175,17.5,43.175z M17.5,37.175c-0.553,0-1-0.448-1-1v-2c0-0.552,0.447-1,1-1s1,0.448,1,1v2
					C18.5,36.727,18.053,37.175,17.5,37.175z M64,34.413h-1.262c-0.553,0-1-0.448-1-1s0.447-1,1-1H64c0.553,0,1,0.448,1,1
					S64.553,34.413,64,34.413z M58.738,34.413h-2c-0.553,0-1-0.448-1-1s0.447-1,1-1h2c0.553,0,1,0.448,1,1
					S59.291,34.413,58.738,34.413z M52.738,34.413h-2c-0.553,0-1-0.448-1-1s0.447-1,1-1h2c0.553,0,1,0.448,1,1
					S53.291,34.413,52.738,34.413z M46.738,34.413h-2c-0.553,0-1-0.448-1-1s0.447-1,1-1h2c0.553,0,1,0.448,1,1
					S47.291,34.413,46.738,34.413z M40.738,34.413h-2c-0.553,0-1-0.448-1-1s0.447-1,1-1h2c0.553,0,1,0.448,1,1
					S41.291,34.413,40.738,34.413z M34.738,34.413h-2c-0.553,0-1-0.448-1-1s0.447-1,1-1h2c0.553,0,1,0.448,1,1
					S35.291,34.413,34.738,34.413z M28.738,34.413h-2c-0.553,0-1-0.448-1-1s0.447-1,1-1h2c0.553,0,1,0.448,1,1
					S29.291,34.413,28.738,34.413z M22.738,34.413h-2c-0.553,0-1-0.448-1-1s0.447-1,1-1h2c0.553,0,1,0.448,1,1
					S23.291,34.413,22.738,34.413z"/>
			</g>
		</g>
		<g>
			<g>
				<path class="st5" d="M107.262,95.587h-2c-0.553,0-1-0.448-1-1s0.447-1,1-1h2c0.553,0,1,0.448,1,1S107.814,95.587,107.262,95.587
					z M101.262,95.587h-2c-0.553,0-1-0.448-1-1s0.447-1,1-1h2c0.553,0,1,0.448,1,1S101.814,95.587,101.262,95.587z M95.262,95.587
					h-2c-0.553,0-1-0.448-1-1s0.447-1,1-1h2c0.553,0,1,0.448,1,1S95.814,95.587,95.262,95.587z M89.262,95.587h-2
					c-0.553,0-1-0.448-1-1s0.447-1,1-1h2c0.553,0,1,0.448,1,1S89.814,95.587,89.262,95.587z M83.262,95.587h-2c-0.553,0-1-0.448-1-1
					s0.447-1,1-1h2c0.553,0,1,0.448,1,1S83.814,95.587,83.262,95.587z M77.262,95.587h-2c-0.553,0-1-0.448-1-1s0.447-1,1-1h2
					c0.553,0,1,0.448,1,1S77.814,95.587,77.262,95.587z M71.262,95.587h-2c-0.553,0-1-0.448-1-1s0.447-1,1-1h2c0.553,0,1,0.448,1,1
					S71.814,95.587,71.262,95.587z M65.262,95.587H64c-0.553,0-1-0.448-1-1s0.447-1,1-1h1.262c0.553,0,1,0.448,1,1
					S65.814,95.587,65.262,95.587z M110.5,94.825c-0.553,0-1-0.448-1-1v-2c0-0.552,0.447-1,1-1s1,0.448,1,1v2
					C111.5,94.377,111.053,94.825,110.5,94.825z M110.5,88.825c-0.553,0-1-0.448-1-1v-2c0-0.552,0.447-1,1-1s1,0.448,1,1v2
					C111.5,88.377,111.053,88.825,110.5,88.825z M110.5,82.825c-0.553,0-1-0.448-1-1v-2c0-0.552,0.447-1,1-1s1,0.448,1,1v2
					C111.5,82.377,111.053,82.825,110.5,82.825z M110.5,76.825c-0.553,0-1-0.448-1-1v-2c0-0.552,0.447-1,1-1s1,0.448,1,1v2
					C111.5,76.377,111.053,76.825,110.5,76.825z M110.5,70.825c-0.553,0-1-0.448-1-1v-2c0-0.552,0.447-1,1-1s1,0.448,1,1v2
					C111.5,70.377,111.053,70.825,110.5,70.825z M110.5,64.825c-0.553,0-1-0.448-1-1v-2c0-0.552,0.447-1,1-1s1,0.448,1,1v2
					C111.5,64.377,111.053,64.825,110.5,64.825z M110.5,58.825c-0.553,0-1-0.448-1-1v-2c0-0.552,0.447-1,1-1s1,0.448,1,1v2
					C111.5,58.377,111.053,58.825,110.5,58.825z M110.5,52.825c-0.553,0-1-0.448-1-1v-2c0-0.552,0.447-1,1-1s1,0.448,1,1v2
					C111.5,52.377,111.053,52.825,110.5,52.825z"/>
			</g>
		</g>
		<g>
			<g>
				<g>
					<path class="st5" d="M110.5,50.825c-9.649,0-17.5-7.811-17.5-17.413S100.851,16,110.5,16S128,23.811,128,33.413
						S120.149,50.825,110.5,50.825z M110.5,18C101.953,18,95,24.914,95,33.413s6.953,15.413,15.5,15.413S126,41.911,126,33.413
						S119.047,18,110.5,18z"/>
				</g>
			</g>
			<g>
				<g>
					<path class="st5" d="M115.927,42.719c-0.158,0-0.317-0.038-0.464-0.114L110.5,40.01l-4.963,2.596
						c-0.34,0.175-0.747,0.146-1.053-0.078c-0.308-0.224-0.461-0.603-0.396-0.978l0.946-5.49l-4.011-3.89
						c-0.273-0.265-0.372-0.663-0.255-1.026s0.431-0.627,0.809-0.682l5.548-0.802l2.479-4.999c0.338-0.681,1.453-0.681,1.791,0
						l2.479,4.999l5.548,0.802c0.378,0.055,0.691,0.319,0.809,0.682s0.019,0.761-0.255,1.026l-4.011,3.89l0.946,5.49
						c0.064,0.375-0.089,0.754-0.396,0.978C116.342,42.654,116.135,42.719,115.927,42.719z M110.5,37.881
						c0.159,0,0.318,0.038,0.464,0.114l3.634,1.9l-0.692-4.017c-0.057-0.326,0.052-0.658,0.289-0.888l2.929-2.84l-4.053-0.586
						c-0.326-0.047-0.607-0.251-0.753-0.545l-1.817-3.663l-1.817,3.663c-0.146,0.294-0.427,0.499-0.753,0.545l-4.053,0.586
						l2.929,2.84c0.237,0.23,0.346,0.562,0.289,0.888l-0.692,4.017l3.634-1.9C110.182,37.919,110.341,37.881,110.5,37.881z"/>
				</g>
			</g>
		</g>
		<g>
			<g>
				<g>
					<path class="st5" d="M17.5,112C7.851,112,0,104.189,0,94.587s7.851-17.413,17.5-17.413S35,84.986,35,94.587
						S27.149,112,17.5,112z M17.5,79.175C8.953,79.175,2,86.089,2,94.587S8.953,110,17.5,110S33,103.086,33,94.587
						S26.047,79.175,17.5,79.175z"/>
				</g>
			</g>
			<g>
				<g>
					<g>
						<path class="st5" d="M17.5,94.822c-0.133,0-0.266-0.026-0.391-0.08L6.651,90.307c-0.369-0.157-0.609-0.519-0.609-0.92
							s0.24-0.764,0.609-0.92l10.458-4.437c0.25-0.106,0.531-0.106,0.781,0l10.458,4.437c0.369,0.157,0.609,0.519,0.609,0.92
							s-0.24,0.764-0.609,0.92l-10.458,4.436C17.766,94.796,17.633,94.822,17.5,94.822z M9.603,89.386l7.897,3.35l7.897-3.35
							l-7.897-3.35L9.603,89.386z"/>
					</g>
				</g>
				<g>
					<g>
						<path class="st5" d="M17.5,105.225c-0.193,0-0.386-0.056-0.552-0.166c-0.28-0.186-0.448-0.499-0.448-0.834V93.822
							c0-0.401,0.24-0.764,0.609-0.92l10.458-4.436c0.309-0.131,0.663-0.098,0.942,0.086c0.28,0.186,0.448,0.499,0.448,0.834v10.402
							c0,0.401-0.24,0.764-0.609,0.92l-10.458,4.436C17.766,105.198,17.632,105.225,17.5,105.225z M18.5,94.484v8.23l8.458-3.588
							v-8.23L18.5,94.484z M27.958,99.789h0.01H27.958z"/>
					</g>
				</g>
				<g>
					<g>
						<path class="st5" d="M17.5,105.225c-0.133,0-0.265-0.026-0.391-0.08l-10.458-4.436c-0.369-0.157-0.609-0.519-0.609-0.92
							V89.386c0-0.335,0.168-0.648,0.448-0.834s0.633-0.217,0.942-0.086l10.458,4.436c0.369,0.157,0.609,0.519,0.609,0.92v10.402
							c0,0.335-0.168,0.648-0.448,0.834C17.886,105.168,17.693,105.225,17.5,105.225z M8.042,99.126l8.458,3.588v-8.23l-8.458-3.588
							V99.126z"/>
					</g>
				</g>
			</g>
		</g>
		<g>
			<g>
				<path class="st5" d="M118.5,103.545H31.927c-0.354,0-0.683-0.188-0.862-0.494c-0.18-0.306-0.184-0.684-0.011-0.994
					C32.327,99.778,33,97.195,33,94.587c0-8.499-6.953-15.413-15.5-15.413c-2.625,0-5.224,0.67-7.516,1.938
					c-0.311,0.171-0.688,0.166-0.992-0.014C8.687,80.919,8.5,80.591,8.5,80.237V25.455c0-0.552,0.447-1,1-1h86.573
					c0.354,0,0.683,0.188,0.862,0.494c0.18,0.306,0.184,0.684,0.011,0.994C95.673,28.222,95,30.805,95,33.413
					c0,8.499,6.953,15.413,15.5,15.413c2.625,0,5.224-0.67,7.516-1.938c0.311-0.171,0.687-0.167,0.992,0.014
					c0.305,0.18,0.492,0.507,0.492,0.861v54.782C119.5,103.097,119.053,103.545,118.5,103.545z M33.539,101.545H117.5V49.368
					c-2.201,0.957-4.591,1.457-7,1.457c-9.649,0-17.5-7.811-17.5-17.413c0-2.394,0.502-4.77,1.461-6.958H10.5v52.177
					c2.201-0.957,4.591-1.457,7-1.457c9.649,0,17.5,7.811,17.5,17.413C35,96.981,34.498,99.357,33.539,101.545z"/>
			</g>
		</g>
	</g>
</g>
</svg>
