<?xml version="1.0" encoding="utf-8"?>
<!-- Generator: Adobe Illustrator 22.0.0, SVG Export Plug-In . SVG Version: 6.00 Build 0)  -->
<svg version="1.1" id="MARKET_RESEARCH_ICON_SET" xmlns="http://www.w3.org/2000/svg" xmlns:xlink="http://www.w3.org/1999/xlink"
	 x="0px" y="0px" viewBox="0 0 128 128" style="enable-background:new 0 0 128 128;" xml:space="preserve">
<style type="text/css">
	.st0{fill:#C2D5EC;}
	.st1{fill:#61E1FF;}
	.st2{fill:#7184AF;}
	.st3{fill:#F8F8F8;}
	.st4{fill:#3F4D81;}
	.st5{fill:#3F4D80;}
	.st6{fill:#E9EAEB;}
	.st7{fill:#F79559;}
	.st8{fill:#FFA85A;}
</style>
<g>
	<g>
		<g>
			<rect y="58.861" class="st0" width="128" height="55.139"/>
		</g>
		<g>
			<path class="st8" d="M1,33.156v25.704c0,2.205,1.791,3.992,4,3.992h16.22c1.124,0,2.196,0.472,2.953,1.3L35.309,76.32v-9.475
				c0-2.205,1.791-3.992,4-3.992h9.657c2.209,0,4-1.787,4-3.992V33.156c0-2.205-1.791-3.992-4-3.992H5
				C2.791,29.164,1,30.952,1,33.156z"/>
		</g>
		<g>
			<path class="st6" d="M4,61.855V33.636c0-0.816,0.663-1.477,1.48-1.477h46.486c0.308,0,0.604,0.042,0.892,0.108
				c-0.406-1.775-1.991-3.102-3.892-3.102H5c-2.209,0-4,1.787-4,3.992v25.704c0,1.898,1.33,3.479,3.108,3.884
				C4.042,62.458,4,62.162,4,61.855z"/>
		</g>
		<g>
			<path class="st1" d="M127,51.16v25.704c0,2.205-1.791,3.992-4,3.992h-16.22c-1.124,0-2.196,0.472-2.953,1.3L92.691,94.324v-9.475
				c0-2.205-1.791-3.992-4-3.992h-9.657c-2.209,0-4-1.787-4-3.992V51.16c0-2.205,1.791-3.992,4-3.992H123
				C125.209,47.168,127,48.956,127,51.16z"/>
		</g>
		<g>
			<path class="st4" d="M96.256,109.567c0-6.258-3.883-10.743-7.656-13.628c-4.912-4.902-2.217-10.499,0.408-17.28
				c4.221-9.544,7.227-16.505-6.021-31.49h-3.542c-2.209,0-4,1.787-4,3.992v7.7H45.802c-5.255,16.739,11.38,28.075,2.359,37.078
				h0.001c-3.773,2.885-7.656,7.37-7.656,13.628c0,1.357-0.062,2.857-0.14,4.433h56.028
				C96.317,112.424,96.256,110.924,96.256,109.567z"/>
		</g>
		<g>
			<path class="st4" d="M96.256,109.567c0-6.258-3.883-10.743-7.656-13.628c-4.912-4.902-2.217-10.499,0.408-17.28
				c4.221-9.544,7.227-16.505-6.021-31.49h-3.542c-2.209,0-4,1.787-4,3.992v7.7H45.802c-5.255,16.739,11.38,28.075,2.359,37.078
				h0.001c-3.773,2.885-7.656,7.37-7.656,13.628c0,1.357-0.062,2.857-0.14,4.433h56.028
				C96.317,112.424,96.256,110.924,96.256,109.567z"/>
		</g>
		<g>
			<ellipse class="st6" cx="29.833" cy="43.164" rx="8.68" ry="8.662"/>
		</g>
		<g>
			<g>
				<path class="st6" d="M57.405,80.049v5.624l6.597,17.298l6.597-17.298v-5.624c-2.012,0.916-4.241,1.44-6.597,1.44
					C61.645,81.489,59.416,80.965,57.405,80.049z"/>
			</g>
			<g>
				<polygon class="st2" points="64.001,102.971 70.282,102.976 77.195,88.925 70.598,85.673 				"/>
			</g>
			<g>
				<polygon class="st2" points="50.808,88.925 57.715,102.975 64.001,102.971 57.405,85.673 				"/>
			</g>
			<g>
				<path class="st8" d="M91.875,106.573c0-12.169-14.685-17.651-14.685-17.651l-6.907,14.054H57.718l-6.907-14.054
					c0,0-14.685,5.482-14.685,17.651c0,2.195-0.155,4.733-0.293,7.427h56.335C92.03,111.306,91.875,108.768,91.875,106.573z"/>
			</g>
			<g>
				<path class="st3" d="M40.125,109.567c0-9.3,8.572-14.69,12.616-16.717l-1.931-3.928c0,0-14.685,5.482-14.685,17.651
					c0,2.195-0.155,4.733-0.293,7.427h4.154C40.064,112.424,40.125,110.924,40.125,109.567z"/>
			</g>
			<g>
				<path class="st3" d="M79.922,63.812c-10.404,0-10.02-14.087-10.02-14.087s-5.901,14.087-21.824,14.087l0,0v1.785
					c0,8.776,7.128,15.89,15.922,15.89c8.793,0,15.922-7.114,15.922-15.89L79.922,63.812L79.922,63.812L79.922,63.812z"/>
			</g>
			<g>
				<path class="st6" d="M81.114,57.989c-0.175,0-0.345,0.016-0.511,0.04v0.868h-0.024c-0.001,1.703-0.214,3.356-0.657,4.916h0
					v1.785c0,1.386-0.196,2.723-0.53,4.005c0.063-0.007,0.119-0.01,0.186-0.02c3.249-0.49,4.641-2.805,4.641-5.355v-3.125
					C84.218,57.989,81.114,57.989,81.114,57.989z"/>
			</g>
			<g>
				<path class="st6" d="M46.886,57.989c0.175,0,0.345,0.016,0.511,0.04v0.868h0.024c0.001,1.703,0.214,3.356,0.657,4.916h0v1.785
					c0,1.386,0.196,2.723,0.53,4.005c-0.063-0.007-0.119-0.01-0.186-0.02c-3.249-0.49-4.641-2.805-4.641-5.355v-3.125
					C43.782,57.989,46.886,57.989,46.886,57.989z"/>
			</g>
			<g>
				<path class="st4" d="M43.78,92.945h0.001c3.564-2.725,7.029-4.023,7.029-4.023l0.001,0.001l6.593-3.251v-5.624
					c0.009,0.004,0.018,0.007,0.027,0.011c-4.325-1.96-7.606-5.789-8.823-10.458v0c-0.063-0.007-0.119-0.01-0.186-0.02
					c-3.249-0.49-4.641-2.805-4.641-5.355v-3.125c0-3.112,3.104-3.112,3.104-3.112c0.175,0,0.345,0.016,0.511,0.04v0.868h0.024
					c0.001,1.703,0.214,3.356,0.657,4.916c15.923,0,21.824-14.087,21.824-14.087s-0.384,14.087,10.02,14.087l0,0v0
					c0.443-1.56,0.656-3.213,0.657-4.916h0.024v-0.868c0.166-0.024,0.336-0.04,0.511-0.04c0,0,3.104,0,3.104,3.112v3.125
					c0,2.551-1.391,4.865-4.641,5.355c-0.067,0.01-0.123,0.013-0.186,0.02v0c-1.218,4.674-4.504,8.506-8.835,10.464
					c0.014-0.006,0.028-0.01,0.042-0.017v5.624l6.591,3.25l0,0c0,0,3.465,1.298,7.029,4.023
					c-11.357-11.334,17.954-26.366-6.95-51.22v0c-2.248-2.392-5.444-3.887-8.989-3.887h-8.56c-3.546,0-6.741,1.495-8.989,3.887l0,0
					C25.825,66.579,55.137,81.611,43.78,92.945z"/>
			</g>
		</g>
		<g>
			<g>
				<path class="st2" d="M97.481,35.556v3.529c0,0.974,0.791,1.764,1.768,1.764h3.536c0.976,0,1.768-0.79,1.768-1.764v-3.529H97.481
					z"/>
			</g>
			<g>
				<path class="st8" d="M105.688,21.436c-2.645-2.331-6.698-2.331-9.342,0c-2.91,2.565-3.174,6.896-0.791,9.781
					c0.503,0.609,0.96,1.255,1.295,1.969c0.33,0.704,0.632,1.568,0.632,2.37h3.536h3.536c0-0.802,0.302-1.666,0.632-2.37
					c0.335-0.715,0.792-1.361,1.295-1.969C108.862,28.332,108.598,24.001,105.688,21.436z"/>
			</g>
		</g>
		<g>
			<g>
				<rect x="11.99" y="85.698" class="st2" width="3.801" height="10.705"/>
			</g>
			<g>
				<path class="st1" d="M30.447,88.04c0-0.924-0.75-1.673-1.676-1.673c0.98,0,1.763-0.839,1.668-1.837
					c-0.083-0.87-0.865-1.508-1.74-1.508h-4.863v-3.905c0-1.098-0.892-1.988-1.992-1.988c-0.969,0-1.795,0.695-1.962,1.648
					c-0.39,2.223-1.436,6.922-4.091,6.922v10.705h12.98c0.926,0,1.676-0.749,1.676-1.673c0-0.924-0.75-1.673-1.676-1.673
					c0.926,0,1.676-0.749,1.676-1.673c0-0.924-0.75-1.673-1.676-1.673C29.697,89.713,30.447,88.964,30.447,88.04z"/>
			</g>
		</g>
	</g>
	<g>
		<g>
			<g>
				<path class="st5" d="M127,115H1c-0.552,0-1-0.448-1-1s0.448-1,1-1h126c0.553,0,1,0.448,1,1S127.553,115,127,115z"/>
			</g>
		</g>
		<g>
			<g>
				<g>
					<path class="st5" d="M64.001,103.971c-0.415,0-0.787-0.256-0.935-0.644L56.47,86.029c-0.043-0.114-0.065-0.235-0.065-0.356
						v-5.624c0-0.34,0.173-0.657,0.459-0.841s0.646-0.209,0.956-0.069c3.934,1.792,8.43,1.792,12.363,0
						c0.312-0.141,0.67-0.115,0.956,0.069s0.459,0.5,0.459,0.841v5.624c0,0.122-0.022,0.243-0.065,0.356l-6.596,17.298
						C64.788,103.714,64.417,103.971,64.001,103.971z M58.405,85.489l5.597,14.675l5.596-14.675V81.53
						c-3.607,1.273-7.585,1.274-11.193,0V85.489z"/>
				</g>
			</g>
			<g>
				<g>
					<path class="st5" d="M70.282,103.976L70.282,103.976L64,103.971c-0.329,0-0.636-0.162-0.823-0.433s-0.228-0.616-0.111-0.923
						l6.596-17.298c0.101-0.263,0.307-0.472,0.569-0.574c0.261-0.103,0.554-0.09,0.808,0.034l6.597,3.252
						c0.495,0.244,0.698,0.843,0.455,1.338l-6.912,14.05C71.012,103.759,70.663,103.976,70.282,103.976z M65.452,101.972
						l4.208,0.003l6.196-12.595l-4.716-2.325L65.452,101.972z"/>
				</g>
			</g>
			<g>
				<g>
					<path class="st5" d="M57.715,103.975c-0.381,0-0.729-0.217-0.897-0.559l-6.907-14.049c-0.244-0.496-0.04-1.094,0.455-1.338
						l6.597-3.252c0.252-0.124,0.547-0.136,0.808-0.034c0.262,0.103,0.468,0.312,0.569,0.574l6.597,17.298
						c0.117,0.308,0.076,0.653-0.111,0.923c-0.187,0.271-0.494,0.433-0.823,0.433L57.715,103.975L57.715,103.975z M52.146,89.38
						l6.191,12.594l4.213-0.002l-5.688-14.916L52.146,89.38z"/>
				</g>
			</g>
			<g>
				<g>
					<path class="st5" d="M92.168,115H35.832c-0.274,0-0.536-0.112-0.725-0.311c-0.188-0.199-0.288-0.466-0.273-0.74l0.065-1.248
						c0.117-2.212,0.227-4.302,0.227-6.128c0-5.293,2.671-10.194,7.724-14.174c3.751-2.954,7.456-4.355,7.612-4.414
						c0.479-0.177,1.02,0.034,1.247,0.496l6.632,13.494h11.319l6.633-13.494c0.227-0.461,0.763-0.676,1.247-0.496
						c0.156,0.058,3.861,1.459,7.612,4.414c5.053,3.98,7.724,8.881,7.724,14.174c0,1.821,0.109,3.904,0.226,6.109l0.066,1.266
						c0.014,0.274-0.085,0.542-0.274,0.74C92.704,114.888,92.442,115,92.168,115z M36.886,113h54.229l-0.011-0.212
						c-0.117-2.232-0.229-4.34-0.229-6.214c0-9.694-10.188-15.003-13.205-16.362l-6.49,13.205c-0.168,0.342-0.517,0.559-0.897,0.559
						H57.718c-0.381,0-0.729-0.217-0.897-0.559l-6.49-13.205c-3.017,1.359-13.205,6.668-13.205,16.362
						c0,1.879-0.112,3.994-0.229,6.233L36.886,113z"/>
				</g>
			</g>
			<g>
				<g>
					<path class="st5" d="M80.365,115c-0.108,0-0.218-0.018-0.326-0.055c-0.522-0.18-0.799-0.75-0.619-1.271l2.06-5.966
						c0.18-0.522,0.749-0.797,1.271-0.619c0.522,0.18,0.799,0.75,0.619,1.271l-2.06,5.966C81.168,114.74,80.78,115,80.365,115z"/>
				</g>
			</g>
			<g>
				<g>
					<path class="st5" d="M47.635,115c-0.415,0-0.802-0.26-0.945-0.674l-2.06-5.966c-0.18-0.522,0.097-1.091,0.619-1.271
						c0.519-0.18,1.091,0.096,1.271,0.619l2.06,5.966c0.18,0.522-0.097,1.091-0.619,1.271C47.854,114.982,47.744,115,47.635,115z"/>
				</g>
			</g>
			<g>
				<g>
					<path class="st5" d="M64,82.487c-9.331,0-16.922-7.577-16.922-16.89v-1.785c0-0.552,0.448-1,1-1
						c15.044,0,20.67-12.925,20.902-13.475c0.188-0.443,0.661-0.688,1.133-0.589c0.47,0.102,0.801,0.522,0.789,1.003
						c-0.002,0.071-0.142,7.154,3.459,10.848c1.432,1.468,3.302,2.213,5.561,2.213c0.553,0,1,0.448,1,1v1.785
						C80.922,74.91,73.331,82.487,64,82.487z M49.078,64.794v0.803c0,8.21,6.694,14.89,14.922,14.89
						c8.228,0,14.922-6.68,14.922-14.89v-0.827c-2.382-0.201-4.396-1.134-5.998-2.781c-2.452-2.52-3.415-6.19-3.789-8.866
						C66.393,57.301,60.137,64.388,49.078,64.794z"/>
				</g>
			</g>
			<g>
				<g>
					<path class="st5" d="M79.461,70.594c-0.297,0-0.604-0.125-0.796-0.349c-0.211-0.249-0.323-0.581-0.241-0.896
						c0.33-1.267,0.498-2.53,0.498-3.752v-1.785c0-0.092,0.013-0.184,0.038-0.273c0.41-1.447,0.618-3.009,0.618-4.643
						c0-0.076,0.009-0.149,0.024-0.221v-0.647c0-0.497,0.365-0.919,0.857-0.99c0.212-0.031,0.43-0.05,0.654-0.05
						c1.649,0,4.104,1.095,4.104,4.112v3.125c0,3.402-2.104,5.833-5.491,6.344l-0.17,0.02
						C79.524,70.593,79.492,70.594,79.461,70.594z M80.922,63.949v1.648c0,0.873-0.074,1.762-0.222,2.657
						c2.245-0.911,2.518-3.048,2.518-4.028v-3.125c0-1.493-0.998-1.932-1.626-2.06c-0.004,0.027-0.009,0.054-0.015,0.081
						C81.559,60.808,81.339,62.431,80.922,63.949z"/>
				</g>
			</g>
			<g>
				<g>
					<path class="st5" d="M48.608,70.602c-0.038,0-0.077-0.002-0.116-0.007l-0.214-0.023c-3.393-0.513-5.497-2.943-5.497-6.345
						v-3.125c0-3.017,2.455-4.112,4.104-4.112c0.224,0,0.44,0.019,0.653,0.05c0.492,0.071,0.858,0.492,0.858,0.99v0.652
						c0.016,0.069,0.024,0.141,0.024,0.215c0,1.636,0.208,3.198,0.619,4.644c0.025,0.089,0.038,0.181,0.038,0.273v1.785
						c0,1.224,0.167,2.486,0.498,3.752c0.083,0.32,0.003,0.66-0.213,0.909C49.172,70.478,48.896,70.602,48.608,70.602z
						 M46.408,59.04c-0.667,0.129-1.626,0.574-1.626,2.062v3.125c0,0.98,0.273,3.118,2.519,4.028
						c-0.147-0.895-0.222-1.783-0.222-2.657v-1.648c-0.417-1.519-0.638-3.142-0.656-4.833C46.417,59.091,46.412,59.065,46.408,59.04
						z"/>
				</g>
			</g>
			<g>
				<g>
					<path class="st5" d="M43.782,93.945c-0.279,0-0.557-0.117-0.753-0.342c-0.347-0.396-0.327-0.994,0.045-1.366
						c4.114-4.105,2.254-8.841-0.1-14.836c-3.689-9.394-8.28-21.085,7.049-36.384c2.486-2.648,6.028-4.18,9.695-4.18h8.56
						c3.667,0,7.21,1.532,9.719,4.203c15.307,15.276,10.716,26.967,7.027,36.361c-2.354,5.995-4.214,10.73-0.101,14.836
						c0.373,0.372,0.394,0.97,0.047,1.366c-0.348,0.395-0.942,0.456-1.36,0.136c-3.393-2.594-6.739-3.868-6.772-3.881l-6.683-3.289
						c-0.342-0.168-0.558-0.516-0.558-0.897v-5.356c-0.124-0.465,0.096-0.959,0.546-1.163c4.123-1.864,7.142-5.438,8.28-9.805
						c0.104-0.398,0.442-0.693,0.852-0.741l0.302,0.973l-0.149-0.989c3.421-0.517,3.79-3.226,3.79-4.367v-3.125
						c0-1.493-0.998-1.932-1.626-2.06c-0.004,0.027-0.009,0.054-0.015,0.081c-0.019,1.737-0.252,3.405-0.693,4.962
						c-0.122,0.43-0.515,0.727-0.962,0.727c-2.821,0-5.176-0.949-6.998-2.822c-2.452-2.52-3.415-6.19-3.789-8.866
						c-2.823,4.302-9.374,11.688-21.056,11.688c-0.447,0-0.84-0.297-0.962-0.727c-0.442-1.557-0.675-3.228-0.694-4.969
						c-0.006-0.025-0.011-0.051-0.015-0.077c-0.664,0.128-1.626,0.572-1.626,2.062v3.125c0,1.141,0.369,3.85,3.79,4.367
						c0.007,0,0.145,0.015,0.152,0.016c0.41,0.047,0.748,0.342,0.852,0.741c1.137,4.362,4.151,7.934,8.268,9.8
						c0.443,0.201,0.669,0.685,0.561,1.142v5.382c0,0.381-0.216,0.729-0.558,0.897l-6.593,3.25
						c-0.035,0.017-0.069,0.032-0.104,0.044c-0.144,0.054-3.387,1.296-6.76,3.875C44.208,93.877,43.995,93.945,43.782,93.945z
						 M59.718,38.837c-3.163,0-6.096,1.269-8.26,3.572c-14.424,14.396-10.279,24.95-6.623,34.261
						c1.792,4.563,3.51,8.939,2.212,12.95c1.923-1.07,3.321-1.6,3.413-1.634l5.945-2.935v-4.374
						c-4.159-2.086-7.242-5.745-8.585-10.189c-3.123-0.655-5.038-3.017-5.038-6.262v-3.125c0-3.017,2.455-4.112,4.104-4.112
						c0.224,0,0.44,0.019,0.653,0.05c0.492,0.071,0.858,0.492,0.858,0.99v0.652c0.016,0.069,0.024,0.141,0.024,0.215
						c0,1.361,0.145,2.671,0.429,3.905c14.465-0.431,19.901-12.922,20.129-13.463c0.188-0.443,0.661-0.688,1.133-0.589
						c0.47,0.102,0.801,0.522,0.789,1.003c-0.002,0.071-0.142,7.154,3.459,10.848c1.266,1.298,2.875,2.031,4.792,2.183
						c0.282-1.23,0.425-2.534,0.425-3.886c0-0.076,0.009-0.149,0.024-0.221v-0.647c0-0.497,0.365-0.919,0.857-0.99
						c0.212-0.031,0.43-0.05,0.654-0.05c1.649,0,4.104,1.095,4.104,4.112v3.125c0,3.247-1.917,5.61-5.037,6.263
						c-1.344,4.444-4.426,8.102-8.583,10.188v4.375l6.034,2.975c0.034,0.01,1.407,0.529,3.318,1.593
						c-1.297-4.01,0.421-8.386,2.213-12.949c3.656-9.311,7.8-19.865-6.601-34.237c-2.187-2.327-5.121-3.596-8.284-3.596H59.718z"/>
				</g>
			</g>
		</g>
		<g>
			<g>
				<path class="st5" d="M35.31,77.32c-0.275,0-0.544-0.114-0.738-0.325L23.435,64.828c-0.567-0.62-1.375-0.975-2.215-0.975H5
					c-2.757,0-5-2.239-5-4.992V33.156c0-2.752,2.243-4.992,5-4.992h43.967c2.757,0,5,2.239,5,4.992v6.707
					c0,0.337-0.169,0.651-0.451,0.836c-0.782,0.513-1.474,1.088-2.058,1.71c-6.848,6.835-10.14,13.512-10.086,20.436
					c0.002,0.267-0.103,0.523-0.29,0.712c-0.188,0.189-0.443,0.295-0.71,0.295H39.31c-1.654,0-3,1.342-3,2.992v9.475
					c0,0.413-0.253,0.783-0.638,0.932C35.554,77.298,35.431,77.32,35.31,77.32z M5,30.165c-1.654,0-3,1.342-3,2.992v25.705
					c0,1.649,1.346,2.992,3,2.992h16.22c1.401,0,2.746,0.592,3.691,1.625l9.399,10.269v-6.901c0-2.753,2.243-4.992,5-4.992h0.076
					c0.249-7.123,3.737-13.949,10.637-20.835c0.556-0.593,1.212-1.162,1.944-1.682v-6.179c0-1.649-1.346-2.992-3-2.992H5z"/>
			</g>
		</g>
		<g>
			<g>
				<path class="st5" d="M92.69,95.324c-0.122,0-0.244-0.022-0.362-0.068c-0.385-0.149-0.638-0.52-0.638-0.932v-9.475
					c0-1.649-1.346-2.992-3-2.992h-6.034c-0.323,0-0.626-0.156-0.813-0.418s-0.237-0.6-0.133-0.905
					c0.428-1.25,0.925-2.516,1.451-3.857c3.154-8.035,6.729-17.142-1.963-28.914c-0.224-0.303-0.258-0.708-0.088-1.044
					s0.516-0.549,0.893-0.549H123c2.757,0,5,2.239,5,4.992v25.705c0,2.753-2.243,4.992-5,4.992h-16.22
					c-0.841,0-1.648,0.355-2.216,0.975L93.428,94.999C93.235,95.21,92.966,95.324,92.69,95.324z M84.077,79.857h4.613
					c2.757,0,5,2.239,5,4.992v6.901l9.399-10.269c0.944-1.032,2.29-1.624,3.69-1.624H123c1.654,0,3-1.342,3-2.992V51.16
					c0-1.649-1.346-2.992-3-2.992H83.924c7.899,11.917,4.143,21.485,1.1,29.238C84.691,78.25,84.372,79.064,84.077,79.857z"/>
			</g>
		</g>
		<g>
			<g>
				<g>
					<path class="st5" d="M91.973,72.331c-0.256,0-0.513-0.098-0.708-0.293c-0.39-0.391-0.39-1.024,0.002-1.415l4.107-4.099
						c0.391-0.39,1.022-0.389,1.413,0l1.481,1.479l3.913-3.905c0.391-0.39,1.021-0.39,1.412,0l2.821,2.816l10.951-10.928
						c0.391-0.39,1.023-0.39,1.414,0.001c0.39,0.391,0.39,1.024-0.002,1.415l-11.657,11.633c-0.391,0.39-1.022,0.389-1.413,0
						l-2.82-2.816l-3.913,3.904c-0.389,0.39-1.021,0.39-1.412,0l-1.482-1.479l-3.401,3.394
						C92.483,72.233,92.229,72.331,91.973,72.331z"/>
				</g>
			</g>
			<g>
				<g>
					<path class="st5" d="M118.072,61.163c-0.553,0-1-0.448-1-1v-2.468h-2.476c-0.553,0-1-0.448-1-1s0.447-1,1-1h3.476
						c0.553,0,1,0.448,1,1v3.468C119.072,60.715,118.625,61.163,118.072,61.163z"/>
				</g>
			</g>
		</g>
		<g>
			<g>
				<g>
					<path class="st5" d="M29.833,52.822c-2.479,0-4.957-0.942-6.844-2.825c-1.829-1.825-2.835-4.252-2.835-6.833
						c0-2.581,1.007-5.008,2.835-6.833c3.774-3.766,9.914-3.766,13.688,0c1.829,1.825,2.835,4.252,2.835,6.833
						c0,2.582-1.007,5.008-2.835,6.833C34.791,51.88,32.312,52.822,29.833,52.822z M29.833,35.505c-1.967,0-3.934,0.747-5.431,2.242
						c-1.45,1.447-2.249,3.371-2.249,5.417c0,2.046,0.798,3.971,2.249,5.417c2.994,2.989,7.868,2.989,10.862,0
						c1.45-1.447,2.249-3.371,2.249-5.417c0-2.046-0.798-3.97-2.249-5.417C33.768,36.252,31.8,35.505,29.833,35.505z"/>
				</g>
			</g>
			<g>
				<g>
					<path class="st5" d="M15.454,58.515c-0.256,0-0.513-0.098-0.708-0.293c-0.39-0.391-0.389-1.024,0.001-1.415l8.242-8.226
						c0.391-0.391,1.024-0.389,1.415,0.001c0.39,0.391,0.389,1.024-0.001,1.415l-8.242,8.226
						C15.965,58.418,15.709,58.515,15.454,58.515z"/>
				</g>
			</g>
		</g>
		<g>
			<g>
				<g>
					<path class="st5" d="M101.017,17.844c-0.553,0-1-0.448-1-1V14c0-0.552,0.447-1,1-1s1,0.448,1,1v2.844
						C102.017,17.396,101.569,17.844,101.017,17.844z"/>
				</g>
			</g>
			<g>
				<g>
					<path class="st5" d="M108.022,20.74c-0.257,0-0.513-0.098-0.708-0.294c-0.39-0.391-0.39-1.024,0.002-1.414l2.016-2.011
						c0.392-0.39,1.024-0.389,1.414,0.002c0.39,0.391,0.39,1.024-0.002,1.414l-2.016,2.011
						C108.533,20.643,108.278,20.74,108.022,20.74z"/>
				</g>
			</g>
			<g>
				<g>
					<path class="st5" d="M91.995,36.734c-0.257,0-0.513-0.098-0.708-0.294c-0.39-0.391-0.39-1.024,0.002-1.414l2.016-2.011
						c0.392-0.391,1.024-0.389,1.414,0.002s0.39,1.024-0.002,1.414l-2.016,2.011C92.506,36.637,92.251,36.734,91.995,36.734z"/>
				</g>
			</g>
			<g>
				<g>
					<path class="st5" d="M113.774,27.732h-2.85c-0.553,0-1-0.448-1-1s0.447-1,1-1h2.85c0.553,0,1,0.448,1,1
						S114.327,27.732,113.774,27.732z"/>
				</g>
			</g>
			<g>
				<g>
					<path class="st5" d="M91.108,27.731h-2.85c-0.553,0-1-0.448-1-1s0.447-1,1-1h2.85c0.553,0,1,0.448,1,1
						S91.661,27.731,91.108,27.731z"/>
				</g>
			</g>
			<g>
				<g>
					<path class="st5" d="M110.037,36.735c-0.256,0-0.511-0.097-0.706-0.292l-2.015-2.011c-0.392-0.39-0.392-1.023-0.002-1.415
						c0.391-0.392,1.023-0.391,1.414-0.001l2.015,2.011c0.392,0.39,0.392,1.023,0.002,1.415
						C110.55,36.637,110.293,36.735,110.037,36.735z"/>
				</g>
			</g>
			<g>
				<g>
					<path class="st5" d="M94.011,20.74c-0.256,0-0.511-0.097-0.706-0.292l-2.015-2.011c-0.392-0.39-0.392-1.023-0.002-1.415
						c0.391-0.392,1.023-0.391,1.414-0.001l2.015,2.011c0.392,0.39,0.392,1.023,0.002,1.415
						C94.523,20.642,94.267,20.74,94.011,20.74z"/>
				</g>
			</g>
			<g>
				<g>
					<path class="st5" d="M102.785,41.849h-3.536c-1.526,0-2.768-1.24-2.768-2.765v-3.528c0-0.552,0.447-1,1-1h7.071
						c0.553,0,1,0.448,1,1v3.528C105.553,40.609,104.312,41.849,102.785,41.849z M98.481,36.556v2.528
						c0,0.421,0.345,0.765,0.768,0.765h3.536c0.423,0,0.768-0.343,0.768-0.765v-2.528H98.481z"/>
				</g>
			</g>
			<g>
				<g>
					<path class="st5" d="M104.553,36.556h-7.071c-0.553,0-1-0.448-1-1c0-0.521-0.186-1.193-0.538-1.946
						c-0.258-0.552-0.627-1.11-1.16-1.757c-2.78-3.366-2.385-8.271,0.901-11.167c3.038-2.679,7.625-2.68,10.665,0l0,0
						c3.286,2.896,3.682,7.801,0.9,11.167c-0.531,0.644-0.899,1.202-1.16,1.757c-0.352,0.75-0.537,1.422-0.537,1.945
						C105.553,36.108,105.105,36.556,104.553,36.556z M98.373,34.556h5.287c0.115-0.561,0.322-1.161,0.619-1.794
						c0.333-0.712,0.788-1.406,1.429-2.182c2.09-2.529,1.79-6.216-0.681-8.394l0,0c-2.247-1.98-5.771-1.982-8.021,0
						c-2.471,2.178-2.771,5.865-0.682,8.394c0.644,0.78,1.098,1.474,1.43,2.182C98.052,33.397,98.259,33.997,98.373,34.556z"/>
				</g>
			</g>
			<g>
				<g>
					<path class="st5" d="M104.553,39.203h-3.536c-0.553,0-1-0.448-1-1s0.447-1,1-1h3.536c0.553,0,1,0.448,1,1
						S105.105,39.203,104.553,39.203z"/>
				</g>
			</g>
			<g>
				<g>
					<path class="st5" d="M102.785,30.508h-3.536c-0.553,0-1-0.448-1-1s0.447-1,1-1h3.536c0.553,0,1,0.448,1,1
						S103.338,30.508,102.785,30.508z"/>
				</g>
			</g>
			<g>
				<g>
					<path class="st5" d="M101.017,36.556c-0.553,0-1-0.448-1-1v-6.048c0-0.552,0.447-1,1-1s1,0.448,1,1v6.048
						C102.017,36.108,101.569,36.556,101.017,36.556z"/>
				</g>
			</g>
		</g>
		<g>
			<g>
				<g>
					<path class="st5" d="M15.792,97.404H11.99c-0.552,0-1-0.448-1-1V85.698c0-0.552,0.448-1,1-1h3.802c0.552,0,1,0.448,1,1v10.706
						C16.792,96.956,16.344,97.404,15.792,97.404z M12.99,95.404h1.802v-8.706H12.99V95.404z"/>
				</g>
			</g>
			<g>
				<g>
					<path class="st5" d="M28.771,97.404H15.792c-0.552,0-1-0.448-1-1V85.698c0-0.552,0.448-1,1-1c1.275,0,2.437-2.278,3.105-6.094
						c0.252-1.434,1.492-2.475,2.947-2.475c1.65,0,2.992,1.34,2.992,2.988v2.905h3.862c1.405,0,2.606,1.06,2.736,2.414
						c0.066,0.696-0.143,1.392-0.577,1.932c0.369,0.458,0.589,1.04,0.589,1.672c0,0.633-0.221,1.214-0.59,1.673
						c0.369,0.458,0.59,1.04,0.59,1.673c0,0.632-0.221,1.214-0.59,1.672c0.369,0.458,0.59,1.041,0.59,1.673
						C31.447,96.205,30.247,97.404,28.771,97.404z M16.792,95.404h11.979c0.373,0,0.676-0.302,0.676-0.673s-0.303-0.673-0.676-0.673
						c-0.552,0-1-0.448-1-1s0.448-1,1-1c0.373,0,0.676-0.302,0.676-0.672c0-0.371-0.303-0.673-0.676-0.673c-0.552,0-1-0.448-1-1
						s0.448-1,1-1c0.373,0,0.676-0.302,0.676-0.673s-0.303-0.673-0.676-0.673c-0.552,0-1-0.448-1-1s0.448-1,1-1
						c0.193,0,0.372-0.079,0.501-0.222c0.075-0.082,0.196-0.258,0.171-0.52c-0.032-0.333-0.366-0.604-0.745-0.604h-4.862
						c-0.552,0-1-0.448-1-1v-3.905c0-0.545-0.445-0.988-0.992-0.988c-0.483,0-0.894,0.345-0.978,0.821
						c-0.774,4.415-2.142,6.961-4.075,7.593V95.404z"/>
				</g>
			</g>
		</g>
	</g>
</g>
</svg>
