<?xml version="1.0" encoding="utf-8"?>
<!-- Generator: Adobe Illustrator 22.0.0, SVG Export Plug-In . SVG Version: 6.00 Build 0)  -->
<svg version="1.1" id="MARKET_RESEARCH_ICON_SET" xmlns="http://www.w3.org/2000/svg" xmlns:xlink="http://www.w3.org/1999/xlink"
	 x="0px" y="0px" viewBox="0 0 128 128" style="enable-background:new 0 0 128 128;" xml:space="preserve">
<style type="text/css">
	.st0{fill:#C2D5EC;}
	.st1{fill:#61E1FF;}
	.st2{fill:#7184AF;}
	.st3{fill:#F8F8F8;}
	.st4{fill:#3F4D81;}
	.st5{fill:#3F4D80;}
	.st6{fill:#E9EAEB;}
	.st7{fill:#F79559;}
	.st8{fill:#FFA85A;}
</style>
<g>
	<g>
		<g>
			<rect y="31.822" class="st0" width="128" height="73.021"/>
		</g>
		<g>
			<path class="st5" d="M4,31.822v15.253c0,2.011,1.639,3.642,3.661,3.642h34.73c1.028,0,2.009,0.43,2.703,1.186l8.658,9.428
				c0.544,0.592,1.535,0.209,1.535-0.592v-6.38c0-2.011,1.639-3.642,3.661-3.642h10.983c2.022,0,3.661-1.63,3.661-3.642V31.822H4z"
				/>
		</g>
		<g>
			<path class="st5" d="M86.13,47.074c0,2.011,1.639,3.642,3.661,3.642h14.452c1.028,0,2.009,0.43,2.703,1.186l8.658,9.428
				c0.544,0.592,1.535,0.209,1.535-0.592v-6.38c0-2.011,1.639-3.642,3.661-3.642h5.54c0.601,0,1.16-0.158,1.661-0.414V31.822H86.13
				V47.074z"/>
		</g>
		<g>
			<g>
				<path class="st6" d="M59.635,88.605v3.71l4.366,8.234l4.366-8.234v-3.71c-1.332,0.605-2.807,0.95-4.366,0.95
					C62.442,89.555,60.967,89.209,59.635,88.605z"/>
			</g>
			<g>
				<path class="st8" d="M82.448,106.101c0-8.027-9.719-11.643-9.719-11.643l0,0l-4.362-2.144l-4.366,8.234l0.001,0.001L64,100.551
					l-0.001-0.001l0.002-0.002l-4.366-8.234l-4.363,2.144l0-0.001c0,0-9.719,3.616-9.719,11.643c0,1.448-0.103,3.122-0.194,4.899
					h37.284C82.551,109.223,82.448,107.549,82.448,106.101z"/>
			</g>
			<g>
				<path class="st3" d="M48.552,109.085c0-8.027,9.719-11.643,9.719-11.643l0,0.001l3.239-1.592l-1.875-3.537l-4.363,2.144l0-0.001
					c0,0-9.719,3.616-9.719,11.643c0,1.448-0.103,3.122-0.194,4.899h3.147C48.532,110.331,48.552,109.685,48.552,109.085z"/>
			</g>
			<g>
				<path class="st5" d="M56.498,72.178c0-1.975,1.61-3.577,3.596-3.577h7.812c1.986,0,3.596,1.601,3.596,3.577
					c0,5.716,3.486,1.901,3.486,1.901v-5.206c0-8.112-4.429-5.902-4.429-5.902s-0.899-2.21-3.726-2.21h-5.666
					c-4.503,0-8.154,3.631-8.154,8.111v5.207l0,0C53.012,74.079,56.498,77.894,56.498,72.178z"/>
			</g>
			<g>
				<path class="st3" d="M75.326,74.053c-0.116,0-0.228,0.01-0.338,0.026c0,0-3.486,3.815-3.486-1.901
					c0-1.975-1.61-3.577-3.596-3.577h-7.812c-1.986,0-3.596,1.601-3.596,3.577c0,5.716-3.486,1.901-3.486,1.901l0,0v0
					c-0.11-0.016-0.222-0.026-0.338-0.026c0,0-2.054,0-2.054,2.053v2.061c0,1.682,0.921,3.209,3.071,3.532
					c0.045,0.007,0.081,0.009,0.123,0.013c1.179,4.507,5.286,7.84,10.186,7.84c4.9,0,9.007-3.332,10.186-7.84
					c0.042-0.005,0.079-0.007,0.123-0.013c2.15-0.323,3.071-1.85,3.071-3.532v-2.061C77.381,74.053,75.326,74.053,75.326,74.053z"/>
			</g>
		</g>
		<g>
			<g>
				<path class="st7" d="M82.353,104.842h30.406c-0.091-1.777-0.194-3.451-0.194-4.899c0-8.027-9.719-11.643-9.719-11.643l0,0
					l-4.362-2.144l-4.366,8.234l0.002,0.001l-0.002,0.002l-0.002-0.001l0.002-0.002l-4.366-8.234l-4.363,2.144l0-0.001
					c0,0-6.806,2.551-9.017,8.097C78.876,98.064,81.826,100.836,82.353,104.842z"/>
			</g>
			<g>
				<path class="st3" d="M89.753,86.157l-4.363,2.144l0-0.001c0,0-6.817,2.54-9.031,8.082c1.037,0.689,2.151,1.569,3.142,2.648
					c2.348-5.309,8.889-7.746,8.889-7.746l0,0.001l3.239-1.592L89.753,86.157z"/>
			</g>
			<g>
				<path class="st5" d="M86.617,66.023c0-1.975,1.61-3.577,3.596-3.577h7.812c1.986,0,3.596,1.601,3.596,3.577
					c0,5.716,3.486,1.901,3.486,1.901v-5.206c0-8.112-4.429-5.902-4.429-5.902s-0.899-2.21-3.726-2.21h-5.666
					c-4.503,0-8.154,3.631-8.154,8.111v5.207l0,0C83.13,67.923,86.617,71.738,86.617,66.023z"/>
			</g>
			<g>
				<path class="st3" d="M105.445,67.897c-0.116,0-0.228,0.01-0.338,0.026c0,0-3.486,3.815-3.486-1.901
					c0-1.975-1.61-3.577-3.596-3.577h-7.812c-1.986,0-3.596,1.601-3.596,3.577c0,5.716-3.486,1.901-3.486,1.901l0,0v0
					c-0.11-0.016-0.222-0.026-0.338-0.026c0,0-2.054,0-2.054,2.053v2.061c0,1.682,0.921,3.209,3.071,3.532
					c0.045,0.007,0.081,0.009,0.123,0.013c1.179,4.507,5.286,7.84,10.186,7.84c4.9,0,9.007-3.332,10.186-7.84
					c0.042-0.005,0.079-0.007,0.123-0.013c2.15-0.323,3.071-1.85,3.071-3.532V69.95C107.499,67.897,105.445,67.897,105.445,67.897z"
					/>
			</g>
		</g>
		<g>
			<g>
				<path class="st6" d="M29.518,82.447v3.71l4.366,8.234l4.366-8.234v-3.71c-1.332,0.605-2.807,0.95-4.366,0.95
					C32.324,83.397,30.849,83.052,29.518,82.447z"/>
			</g>
			<g>
				<path class="st7" d="M51.629,96.397c-2.212-5.546-9.017-8.097-9.017-8.097l0,0l-4.362-2.144l-4.366,8.234l0.001,0.001
					l-0.002,0.002l-0.001-0.001l0.002-0.002l-4.366-8.234l-4.363,2.144l0-0.001c0,0-9.719,3.616-9.719,11.643
					c0,1.448-0.103,3.122-0.194,4.899h30.406C46.175,100.836,49.124,98.064,51.629,96.397z"/>
			</g>
			<g>
				<path class="st3" d="M18.435,102.927c0-8.027,9.719-11.643,9.719-11.643l0,0.001l3.239-1.592l-1.875-3.537l-4.363,2.144l0-0.001
					c0,0-9.719,3.616-9.719,11.643c0,1.448-0.103,3.122-0.194,4.899h3.147C18.415,104.173,18.435,103.527,18.435,102.927z"/>
			</g>
			<g>
				<path class="st5" d="M26.381,66.023c0-1.975,1.61-3.577,3.596-3.577h7.812c1.986,0,3.596,1.601,3.596,3.577
					c0,5.716,3.486,1.901,3.486,1.901v-5.206c0-8.112-4.429-5.902-4.429-5.902s-0.899-2.21-3.726-2.21h-5.666
					c-4.503,0-8.154,3.631-8.154,8.111v5.207l0,0C22.895,67.923,26.381,71.738,26.381,66.023z"/>
			</g>
			<g>
				<path class="st3" d="M45.209,67.897c-0.116,0-0.228,0.01-0.338,0.026c0,0-3.486,3.815-3.486-1.901
					c0-1.975-1.61-3.577-3.596-3.577h-7.812c-1.986,0-3.596,1.601-3.596,3.577c0,5.716-3.486,1.901-3.486,1.901l0,0v0
					c-0.11-0.016-0.222-0.026-0.338-0.026c0,0-2.054,0-2.054,2.053v2.061c0,1.682,0.921,3.209,3.071,3.532
					c0.045,0.007,0.081,0.009,0.123,0.013c1.179,4.507,5.286,7.84,10.186,7.84c4.9,0,9.007-3.332,10.186-7.84
					c0.042-0.005,0.079-0.007,0.123-0.013c2.15-0.323,3.071-1.85,3.071-3.532V69.95C47.263,67.897,45.209,67.897,45.209,67.897z"/>
			</g>
		</g>
		<g>
			<path class="st6" d="M1,20.642V44.09c0,2.011,1.639,3.642,3.661,3.642h34.73c1.028,0,2.009,0.43,2.703,1.186l10.193,11.1v-8.643
				c0-2.011,1.639-3.642,3.661-3.642h10.983c2.022,0,3.661-1.63,3.661-3.642V20.642c0-2.011-1.639-3.642-3.661-3.642H4.661
				C2.639,17,1,18.63,1,20.642z"/>
		</g>
		<g>
			<path class="st1" d="M83.13,20.642V44.09c0,2.011,1.639,3.642,3.661,3.642h14.452c1.028,0,2.009,0.43,2.703,1.186l10.193,11.1
				v-8.643c0-2.011,1.639-3.642,3.661-3.642h5.54c2.022,0,3.661-1.63,3.661-3.642V20.642c0-2.011-1.639-3.642-3.661-3.642H86.791
				C84.769,17,83.13,18.63,83.13,20.642z"/>
		</g>
		<g>
			<g>
				<path class="st2" d="M104.278,38.754v2.772c0,0.765,0.624,1.386,1.393,1.386h2.787c0.77,0,1.393-0.621,1.393-1.386v-2.772
					H104.278z"/>
			</g>
			<g>
				<path class="st8" d="M110.747,27.662c-2.084-1.831-5.279-1.831-7.363,0c-2.294,2.015-2.501,5.417-0.624,7.683
					c0.396,0.478,0.757,0.986,1.02,1.547c0.26,0.553,0.498,1.232,0.498,1.862h2.787h2.787c0-0.63,0.238-1.308,0.498-1.862
					c0.264-0.561,0.624-1.069,1.02-1.547C113.248,33.079,113.04,29.676,110.747,27.662z"/>
			</g>
		</g>
		<g>
			<g>
				<g>
					<ellipse class="st2" cx="17.804" cy="32.366" rx="9.479" ry="9.429"/>
				</g>
				<g>
					<path class="st8" d="M20.025,29.36c-1.517,0-2.225,1.825-2.225,1.825s-0.708-1.825-2.225-1.825
						c-1.286,0-2.052,0.963-2.052,2.213c0,3.22,4.277,5.693,4.277,5.693s4.277-2.472,4.277-5.693
						C22.077,30.323,21.311,29.36,20.025,29.36z"/>
				</g>
			</g>
			<g>
				<ellipse class="st8" cx="44.352" cy="32.366" rx="9.479" ry="9.429"/>
			</g>
		</g>
	</g>
	<g>
		<g>
			<g>
				<g>
					<path class="st5" d="M15.241,105.843H1c-0.552,0-1-0.447-1-1s0.448-1,1-1h14.241c0.552,0,1,0.447,1,1
						S15.793,105.843,15.241,105.843z"/>
				</g>
			</g>
			<g>
				<g>
					<path class="st5" d="M127,105.843h-14.241c-0.552,0-1-0.447-1-1s0.448-1,1-1H127c0.552,0,1,0.447,1,1
						S127.552,105.843,127,105.843z"/>
				</g>
			</g>
		</g>
		<g>
			<g>
				<path class="st5" d="M52.287,61.017c-0.274,0-0.543-0.113-0.736-0.323l-10.193-11.1c-0.503-0.548-1.221-0.862-1.967-0.862H4.661
					C2.091,48.731,0,46.649,0,44.09V20.642C0,18.082,2.091,16,4.661,16h62.27c2.57,0,4.661,2.082,4.661,4.642V44.09
					c0,2.56-2.091,4.642-4.661,4.642H55.947c-1.467,0-2.661,1.185-2.661,2.642v8.644c0,0.412-0.253,0.782-0.637,0.932
					C52.532,60.994,52.409,61.017,52.287,61.017z M4.661,18C3.194,18,2,19.185,2,20.642V44.09c0,1.457,1.194,2.642,2.661,2.642
					h34.729c1.304,0,2.558,0.55,3.439,1.509l8.457,9.209v-6.076c0-2.56,2.091-4.642,4.661-4.642h10.983
					c1.467,0,2.661-1.185,2.661-2.642V20.642c0-1.457-1.194-2.642-2.661-2.642H4.661z"/>
			</g>
		</g>
		<g>
			<g>
				<path class="st5" d="M114.138,61.017c-0.274,0-0.543-0.113-0.736-0.323l-10.193-11.1c-0.503-0.548-1.22-0.862-1.967-0.862
					H86.791c-2.57,0-4.661-2.082-4.661-4.642V20.642c0-2.56,2.091-4.642,4.661-4.642h36.548c2.57,0,4.661,2.082,4.661,4.642V44.09
					c0,2.56-2.091,4.642-4.661,4.642h-5.54c-1.467,0-2.661,1.185-2.661,2.642v8.644c0,0.412-0.253,0.782-0.637,0.932
					C114.383,60.994,114.26,61.017,114.138,61.017z M86.791,18c-1.467,0-2.661,1.185-2.661,2.642V44.09
					c0,1.457,1.194,2.642,2.661,2.642h14.452c1.305,0,2.559,0.55,3.439,1.509l8.457,9.209v-6.076c0-2.56,2.091-4.642,4.661-4.642
					h5.54c1.467,0,2.661-1.185,2.661-2.642V20.642c0-1.457-1.194-2.642-2.661-2.642H86.791z"/>
			</g>
		</g>
		<g>
			<g>
				<g>
					<path class="st5" d="M92.565,29.033h-31.41c-0.552,0-1-0.447-1-1s0.448-1,1-1h31.41c0.552,0,1,0.447,1,1
						S93.118,29.033,92.565,29.033z"/>
				</g>
			</g>
			<g>
				<g>
					<g>
						<path class="st5" d="M88.209,33.366c-0.257,0-0.514-0.099-0.709-0.295c-0.39-0.392-0.388-1.024,0.004-1.414l3.644-3.624
							l-3.644-3.625c-0.392-0.39-0.394-1.022-0.004-1.414c0.39-0.391,1.023-0.394,1.414-0.004l4.356,4.334
							c0.189,0.188,0.295,0.443,0.295,0.709c0,0.267-0.106,0.521-0.295,0.709l-4.356,4.333
							C88.719,33.27,88.464,33.366,88.209,33.366z"/>
					</g>
				</g>
			</g>
			<g>
				<g>
					<path class="st5" d="M92.565,37.699h-31.41c-0.552,0-1-0.447-1-1s0.448-1,1-1h31.41c0.552,0,1,0.447,1,1
						S93.118,37.699,92.565,37.699z"/>
				</g>
			</g>
			<g>
				<g>
					<g>
						<path class="st5" d="M65.513,42.032c-0.255,0-0.51-0.097-0.705-0.291l-4.357-4.333c-0.189-0.188-0.295-0.442-0.295-0.709
							s0.106-0.521,0.295-0.709l4.357-4.333c0.391-0.391,1.024-0.388,1.414,0.004s0.388,1.024-0.004,1.414l-3.644,3.624l3.644,3.624
							c0.392,0.39,0.394,1.022,0.004,1.414C66.026,41.934,65.77,42.032,65.513,42.032z"/>
					</g>
				</g>
			</g>
		</g>
		<g>
			<g>
				<g>
					<path class="st5" d="M107.065,25.055c-0.552,0-1-0.447-1-1V21.82c0-0.553,0.448-1,1-1s1,0.447,1,1v2.234
						C108.065,24.607,107.617,25.055,107.065,25.055z"/>
				</g>
			</g>
			<g>
				<g>
					<path class="st5" d="M112.586,27.33c-0.257,0-0.514-0.099-0.709-0.295c-0.39-0.392-0.388-1.024,0.004-1.414l1.588-1.58
						c0.391-0.391,1.024-0.388,1.414,0.004s0.388,1.024-0.004,1.414l-1.588,1.58C113.097,27.233,112.841,27.33,112.586,27.33z"/>
				</g>
			</g>
			<g>
				<g>
					<path class="st5" d="M99.955,39.894c-0.257,0-0.514-0.099-0.709-0.295c-0.39-0.392-0.388-1.024,0.004-1.414l1.588-1.579
						c0.392-0.391,1.024-0.388,1.414,0.004s0.388,1.024-0.004,1.414l-1.588,1.579C100.464,39.797,100.209,39.894,99.955,39.894z"/>
				</g>
			</g>
			<g>
				<g>
					<path class="st5" d="M117.12,32.822h-2.246c-0.552,0-1-0.447-1-1s0.448-1,1-1h2.246c0.552,0,1,0.447,1,1
						S117.672,32.822,117.12,32.822z"/>
				</g>
			</g>
			<g>
				<g>
					<path class="st5" d="M99.256,32.821H97.01c-0.552,0-1-0.447-1-1s0.448-1,1-1h2.246c0.552,0,1,0.447,1,1
						S99.808,32.821,99.256,32.821z"/>
				</g>
			</g>
			<g>
				<g>
					<path class="st5" d="M114.174,39.895c-0.255,0-0.51-0.097-0.706-0.291l-1.588-1.58c-0.391-0.39-0.393-1.022-0.003-1.414
						c0.39-0.391,1.023-0.395,1.415-0.004l1.588,1.58c0.391,0.39,0.393,1.022,0.003,1.414
						C114.688,39.796,114.431,39.895,114.174,39.895z"/>
				</g>
			</g>
			<g>
				<g>
					<path class="st5" d="M101.543,27.329c-0.255,0-0.51-0.097-0.705-0.291l-1.588-1.579c-0.392-0.39-0.394-1.022-0.004-1.414
						c0.39-0.391,1.022-0.394,1.414-0.004l1.588,1.579c0.392,0.39,0.394,1.022,0.004,1.414
						C102.057,27.23,101.8,27.329,101.543,27.329z"/>
				</g>
			</g>
			<g>
				<g>
					<path class="st5" d="M108.458,43.911h-2.787c-1.32,0-2.394-1.07-2.394-2.386v-2.771c0-0.553,0.448-1,1-1h5.573
						c0.552,0,1,0.447,1,1v2.771C110.852,42.841,109.778,43.911,108.458,43.911z M105.278,39.754v1.771
						c0,0.213,0.177,0.386,0.394,0.386h2.787c0.217,0,0.393-0.173,0.393-0.386v-1.771H105.278z"/>
				</g>
			</g>
			<g>
				<g>
					<path class="st5" d="M109.852,39.754h-5.573c-0.552,0-1-0.447-1-1c0-0.378-0.139-0.875-0.403-1.436
						c-0.196-0.419-0.478-0.843-0.886-1.336c-2.266-2.734-1.944-6.719,0.734-9.071c2.476-2.176,6.208-2.176,8.684,0
						c2.678,2.353,3,6.337,0.733,9.071c-0.407,0.492-0.688,0.916-0.886,1.336c-0.264,0.561-0.403,1.058-0.403,1.436
						C110.852,39.307,110.404,39.754,109.852,39.754z M105.15,37.754h3.829c0.099-0.407,0.254-0.837,0.465-1.287
						c0.271-0.575,0.638-1.135,1.155-1.76c1.572-1.896,1.346-4.66-0.513-6.294c-1.694-1.488-4.349-1.488-6.043,0
						c-1.859,1.634-2.085,4.397-0.514,6.294c0.519,0.627,0.886,1.186,1.156,1.761C104.896,36.917,105.052,37.347,105.15,37.754z"/>
				</g>
			</g>
			<g>
				<g>
					<path class="st5" d="M108.458,35.003h-2.787c-0.552,0-1-0.447-1-1s0.448-1,1-1h2.787c0.552,0,1,0.447,1,1
						S109.011,35.003,108.458,35.003z"/>
				</g>
			</g>
			<g>
				<g>
					<path class="st5" d="M107.065,39.754c-0.552,0-1-0.447-1-1v-4.751c0-0.553,0.448-1,1-1s1,0.447,1,1v4.751
						C108.065,39.307,107.617,39.754,107.065,39.754z"/>
				</g>
			</g>
		</g>
		<g>
			<g>
				<g>
					<g>
						<path class="st5" d="M17.804,42.795c-5.778,0-10.479-4.679-10.479-10.429s4.701-10.429,10.479-10.429
							c5.778,0,10.479,4.679,10.479,10.429S23.583,42.795,17.804,42.795z M17.804,23.938c-4.675,0-8.479,3.781-8.479,8.429
							s3.803,8.429,8.479,8.429s8.479-3.781,8.479-8.429S22.479,23.938,17.804,23.938z"/>
					</g>
				</g>
				<g>
					<g>
						<path class="st4" d="M17.8,38.266c-0.173,0-0.346-0.045-0.5-0.134c-0.195-0.113-4.776-2.804-4.776-6.559
							c0-1.861,1.283-3.213,3.052-3.213c0.941,0,1.685,0.454,2.225,1.016c0.541-0.562,1.284-1.016,2.226-1.016
							c1.768,0,3.052,1.352,3.052,3.213c0,3.755-4.582,6.445-4.777,6.559C18.146,38.221,17.973,38.266,17.8,38.266z M15.575,30.36
							c-0.949,0-1.052,0.849-1.052,1.213c0,1.878,2.045,3.668,3.275,4.508c1.231-0.844,3.279-2.639,3.279-4.508
							c0-0.364-0.103-1.213-1.052-1.213c-0.793,0-1.291,1.181-1.295,1.192c-0.153,0.379-0.521,0.63-0.929,0.63
							c-0.002,0-0.004,0-0.006,0c-0.41-0.003-0.778-0.253-0.927-0.636C16.865,31.541,16.368,30.36,15.575,30.36z"/>
					</g>
				</g>
			</g>
			<g>
				<g>
					<g>
						<path class="st5" d="M44.352,42.795c-5.778,0-10.479-4.679-10.479-10.429s4.701-10.429,10.479-10.429
							c5.778,0,10.479,4.679,10.479,10.429S50.13,42.795,44.352,42.795z M44.352,23.938c-4.675,0-8.479,3.781-8.479,8.429
							s3.803,8.429,8.479,8.429s8.479-3.781,8.479-8.429S49.027,23.938,44.352,23.938z"/>
					</g>
				</g>
				<g>
					<g>
						<path class="st5" d="M44.352,40.033c-0.552,0-1-0.447-1-1v-1.451c0-0.553,0.448-1,1-1s1,0.447,1,1v1.451
							C45.352,39.586,44.904,40.033,44.352,40.033z"/>
					</g>
				</g>
				<g>
					<g>
						<path class="st5" d="M44.976,38.582h-1.254c-1.764,0-3.2-1.432-3.2-3.192c0-0.553,0.448-1,1-1s1,0.447,1,1
							c0,0.657,0.538,1.192,1.2,1.192h1.254c0.664,0,1.205-0.535,1.205-1.192v-0.765c0-0.655-0.541-1.188-1.205-1.188h-1.254
							c-1.764,0-3.2-1.431-3.2-3.188v-0.77c0-1.758,1.436-3.188,3.2-3.188h1.254c1.767,0,3.205,1.43,3.205,3.188
							c0,0.553-0.448,1-1,1s-1-0.447-1-1c0-0.655-0.541-1.188-1.205-1.188h-1.254c-0.662,0-1.2,0.532-1.2,1.188v0.77
							c0,0.655,0.538,1.188,1.2,1.188h1.254c1.767,0,3.205,1.43,3.205,3.188v0.765C48.181,37.15,46.743,38.582,44.976,38.582z"/>
					</g>
				</g>
				<g>
					<g>
						<path class="st5" d="M44.352,28.292c-0.552,0-1-0.447-1-1v-1.593c0-0.553,0.448-1,1-1s1,0.447,1,1v1.593
							C45.352,27.845,44.904,28.292,44.352,28.292z"/>
					</g>
				</g>
			</g>
		</g>
		<g>
			<g>
				<g>
					<g>
						<path class="st5" d="M64.001,101.549c-0.37,0-0.71-0.204-0.883-0.531l-4.366-8.234c-0.077-0.145-0.117-0.306-0.117-0.469
							v-3.71c0-0.34,0.173-0.656,0.458-0.841c0.287-0.184,0.647-0.21,0.955-0.069c2.516,1.141,5.389,1.141,7.904,0
							c0.309-0.142,0.668-0.114,0.955,0.069c0.286,0.185,0.458,0.501,0.458,0.841v3.71c0,0.163-0.04,0.324-0.117,0.469l-4.366,8.234
							C64.711,101.345,64.371,101.549,64.001,101.549z M60.635,92.065l3.366,6.349l3.366-6.349v-2.015
							c-2.182,0.67-4.55,0.67-6.731,0V92.065z"/>
					</g>
				</g>
				<g>
					<g>
						<path class="st5" d="M82.642,112H45.358c-0.274,0-0.536-0.112-0.725-0.312c-0.189-0.198-0.288-0.466-0.273-0.74l0.043-0.835
							c0.077-1.45,0.149-2.82,0.149-4.013c0-8.405,9.452-12.228,10.32-12.561l4.322-2.123c0.482-0.238,1.07-0.049,1.324,0.429
							l3.483,6.569l3.481-6.568c0.252-0.479,0.84-0.668,1.325-0.43l4.362,2.144l-0.006,0.012
							c2.067,0.715,10.284,4.779,10.284,12.528c0,1.192,0.072,2.562,0.149,4.013l0.043,0.835c0.014,0.274-0.084,0.542-0.273,0.74
							C83.178,111.888,82.916,112,82.642,112z M46.412,110h35.177c-0.074-1.396-0.141-2.715-0.141-3.899
							c0-7.226-8.978-10.672-9.068-10.706l-3.583-1.756l-3.91,7.379c-0.347,0.654-1.42,0.655-1.767,0.001l-3.913-7.379l-3.494,1.717
							c-0.034,0.017-0.068,0.031-0.103,0.044c-0.293,0.111-9.057,3.539-9.057,10.7C46.552,107.285,46.485,108.604,46.412,110z"/>
					</g>
				</g>
				<g>
					<g>
						<path class="st5" d="M64,90.553c-5.027,0-9.449-3.244-10.972-7.965c-2.116-0.519-3.409-2.173-3.409-4.421v-2.061
							c0-1.862,1.262-2.738,2.393-2.981v-4.253c0-5.024,4.106-9.111,9.154-9.111h5.666c2.281,0,3.556,1.181,4.173,2.019
							c0.751-0.151,1.728-0.134,2.622,0.419c1.566,0.969,2.36,3.215,2.36,6.675v4.252c1.131,0.243,2.393,1.119,2.393,2.981v2.061
							c0,2.248-1.292,3.901-3.408,4.421C73.449,87.31,69.027,90.553,64,90.553z M52.674,75.053
							c-0.475,0.012-1.055,0.204-1.055,1.054v2.061c0,0.825,0.289,2.253,2.22,2.544c0.41,0.048,0.838,0.351,0.942,0.749
							c1.092,4.176,4.883,7.093,9.219,7.093c4.335,0,8.126-2.917,9.219-7.093c0.104-0.398,0.441-0.692,0.851-0.74
							c0.005-0.001,0.095-0.009,0.1-0.01c1.923-0.29,2.211-1.718,2.211-2.543v-2.061c0-0.978-0.807-1.054-1.055-1.054
							c-0.068,0-0.133,0.008-0.198,0.017c-0.291,0.042-0.578-0.046-0.796-0.235c-0.219-0.189-0.344-0.465-0.344-0.755v-5.206
							c0-3.55-0.877-4.635-1.4-4.966c-0.707-0.45-1.583-0.043-1.592-0.037c-0.249,0.116-0.541,0.129-0.795,0.03
							c-0.256-0.1-0.465-0.299-0.568-0.553c-0.024-0.055-0.714-1.587-2.8-1.587h-5.666c-3.945,0-7.154,3.19-7.154,7.111v5.207
							c0,0.29-0.125,0.565-0.344,0.755c-0.219,0.19-0.509,0.277-0.796,0.235C52.807,75.061,52.742,75.053,52.674,75.053z"/>
					</g>
				</g>
				<g>
					<g>
						<path class="st5" d="M72.869,76.327c-0.238,0-0.479-0.04-0.717-0.133c-1.649-0.641-1.649-3.181-1.649-4.016
							c0-1.421-1.165-2.577-2.596-2.577h-7.812c-1.431,0-2.595,1.156-2.595,2.577c0,0.835,0,3.375-1.649,4.016
							c-1.589,0.609-3.257-1.092-3.575-1.44c-0.373-0.408-0.344-1.04,0.064-1.413c0.407-0.37,1.039-0.343,1.411,0.062l0,0
							c0.491,0.532,1.156,0.952,1.388,0.924c-0.009-0.004,0.362-0.355,0.362-2.147c0-2.523,2.062-4.577,4.595-4.577h7.812
							c2.534,0,4.596,2.054,4.596,4.577c0,1.82,0.383,2.155,0.387,2.158c0.164-0.015,0.869-0.399,1.362-0.934
							c0.375-0.405,1.007-0.435,1.412-0.06c0.406,0.372,0.435,1.003,0.063,1.41C75.456,75.05,74.21,76.326,72.869,76.327z"/>
					</g>
				</g>
			</g>
			<g>
				<g>
					<g>
						<path class="st3" d="M89.753,82.447v3.71l4.366,8.234l4.366-8.234v-3.71c-1.332,0.605-2.807,0.95-4.366,0.95
							C92.559,83.397,91.084,83.052,89.753,82.447z"/>
					</g>
				</g>
				<g>
					<g>
						<path class="st5" d="M94.118,95.391L94.118,95.391c-0.37,0-0.71-0.204-0.883-0.531l-4.366-8.234
							c-0.077-0.145-0.117-0.306-0.117-0.469v-3.709c0-0.34,0.173-0.656,0.458-0.841c0.286-0.184,0.647-0.21,0.955-0.069
							c2.516,1.141,5.39,1.141,7.905,0c0.309-0.142,0.668-0.114,0.955,0.069c0.286,0.185,0.458,0.501,0.458,0.841v3.709
							c0,0.163-0.04,0.324-0.117,0.469l-4.366,8.234C94.828,95.187,94.488,95.391,94.118,95.391z M90.752,85.907l3.366,6.349
							l3.366-6.349v-2.014c-2.181,0.67-4.55,0.67-6.732,0V85.907z"/>
					</g>
				</g>
				<g>
					<g>
						<path class="st5" d="M112.759,105.843H82.354c-0.502,0-0.926-0.372-0.991-0.869c-0.484-3.673-3.282-6.238-5.544-7.743
							c-0.394-0.263-0.55-0.765-0.375-1.203c2.348-5.89,9.3-8.554,9.595-8.664l4.274-2.104c0.483-0.237,1.071-0.05,1.325,0.43
							l3.481,6.571l3.483-6.572c0.253-0.478,0.84-0.666,1.325-0.429l4.319,2.123c0.869,0.333,10.321,4.156,10.321,12.562
							c0,1.196,0.073,2.57,0.149,4.026l0.043,0.821c0.014,0.274-0.085,0.542-0.273,0.74
							C113.295,105.73,113.033,105.843,112.759,105.843z M83.193,103.843h28.512c-0.074-1.396-0.14-2.716-0.14-3.899
							c0-7.249-8.977-10.673-9.068-10.706c-0.032-0.012-0.062-0.025-0.092-0.04l-3.492-1.716l-3.91,7.379
							c-0.047,0.088-0.106,0.168-0.177,0.238c-0.224,0.225-0.543,0.327-0.856,0.283c-0.314-0.048-0.587-0.239-0.736-0.521
							l-3.911-7.38l-3.493,1.717c-0.033,0.017-0.067,0.031-0.102,0.043c-0.234,0.091-5.841,2.292-8.105,6.809
							C79.898,97.704,82.414,100.27,83.193,103.843z"/>
					</g>
				</g>
				<g>
					<g>
						<path class="st5" d="M94.118,84.396c-5.027,0-9.45-3.244-10.973-7.966c-2.115-0.518-3.408-2.171-3.408-4.42v-2.062
							c0-1.861,1.262-2.737,2.393-2.98v-4.254c0-5.024,4.106-9.111,9.154-9.111h5.667c2.281,0,3.556,1.181,4.173,2.019
							c0.75-0.151,1.727-0.134,2.622,0.419c1.566,0.969,2.36,3.215,2.36,6.675v4.253c1.131,0.243,2.393,1.119,2.393,2.98v2.062
							c0,2.248-1.292,3.901-3.408,4.42C103.567,81.151,99.145,84.396,94.118,84.396z M82.791,68.896
							c-0.475,0.012-1.054,0.204-1.054,1.053v2.062c0,0.825,0.289,2.253,2.22,2.543c0.409,0.049,0.838,0.352,0.942,0.75
							c1.093,4.176,4.884,7.093,9.219,7.093c4.336,0,8.126-2.917,9.219-7.093c0.104-0.398,0.442-0.692,0.852-0.74
							c2.021-0.3,2.31-1.728,2.31-2.553v-2.062c0-0.846-0.576-1.04-1.061-1.053c-0.062,0-0.123,0.006-0.182,0.016
							c-0.288,0.038-0.581-0.041-0.802-0.231c-0.221-0.189-0.348-0.467-0.348-0.758v-5.207c0-3.55-0.877-4.635-1.4-4.966
							c-0.707-0.45-1.583-0.042-1.592-0.037c-0.25,0.116-0.541,0.129-0.795,0.03c-0.256-0.1-0.465-0.299-0.568-0.553
							c-0.024-0.055-0.714-1.587-2.8-1.587h-5.667c-3.945,0-7.154,3.19-7.154,7.111v5.208c0,0.291-0.127,0.568-0.348,0.758
							c-0.221,0.19-0.512,0.271-0.802,0.231C82.918,68.901,82.856,68.896,82.791,68.896z"/>
					</g>
				</g>
				<g>
					<g>
						<path class="st5" d="M102.986,70.169c-0.238,0-0.479-0.04-0.718-0.133c-1.649-0.641-1.649-3.181-1.649-4.016
							c0-1.421-1.165-2.576-2.596-2.576h-7.812c-1.431,0-2.596,1.155-2.596,2.576c0,0.835,0,3.375-1.649,4.016
							c-1.59,0.614-3.257-1.091-3.575-1.439c-0.373-0.408-0.344-1.04,0.063-1.413c0.408-0.37,1.04-0.343,1.411,0.062l0,0
							c0.492,0.534,1.185,0.963,1.388,0.923c-0.009-0.003,0.362-0.355,0.362-2.147c0-2.523,2.062-4.576,4.596-4.576h7.812
							c2.534,0,4.596,2.053,4.596,4.576c0,1.821,0.383,2.155,0.387,2.158c0.187,0.007,0.87-0.399,1.363-0.934
							c0.375-0.405,1.006-0.434,1.412-0.059c0.406,0.373,0.434,1.003,0.062,1.41C105.573,68.893,104.328,70.169,102.986,70.169z"/>
					</g>
				</g>
			</g>
			<g>
				<g>
					<g>
						<path class="st5" d="M33.883,95.391c-0.37,0-0.71-0.204-0.883-0.531l-4.366-8.234c-0.077-0.145-0.117-0.306-0.117-0.469
							v-3.709c0-0.34,0.173-0.656,0.458-0.841c0.287-0.184,0.647-0.21,0.955-0.069c2.516,1.141,5.389,1.141,7.904,0
							c0.309-0.142,0.669-0.114,0.955,0.069c0.286,0.185,0.458,0.501,0.458,0.841v3.709c0,0.163-0.04,0.324-0.117,0.469
							l-4.366,8.234C34.593,95.187,34.253,95.391,33.883,95.391z M30.518,85.907l3.366,6.349l3.366-6.349v-2.014
							c-2.182,0.67-4.55,0.67-6.731,0V85.907z"/>
					</g>
				</g>
				<g>
					<g>
						<path class="st5" d="M45.646,105.843H15.241c-0.274,0-0.536-0.112-0.725-0.312c-0.188-0.198-0.288-0.466-0.273-0.74
							l0.043-0.821c0.077-1.456,0.149-2.83,0.149-4.026c0-8.406,9.453-12.229,10.321-12.562l4.321-2.123
							c0.483-0.237,1.071-0.05,1.325,0.43l3.48,6.569l3.484-6.57c0.253-0.478,0.84-0.666,1.324-0.429l4.362,2.144
							c0.205,0.071,7.157,2.735,9.505,8.625c0.175,0.438,0.019,0.94-0.375,1.203c-2.262,1.505-5.061,4.07-5.544,7.743
							C46.572,105.471,46.148,105.843,45.646,105.843z M16.294,103.843h28.512c0.78-3.573,3.295-6.139,5.57-7.793
							c-2.296-4.571-8.056-6.791-8.117-6.814l-3.581-1.755l-3.913,7.382c-0.173,0.327-0.513,0.531-0.883,0.531l0,0
							c-0.37,0-0.71-0.205-0.884-0.532l-3.911-7.38l-3.493,1.717c-0.034,0.017-0.068,0.031-0.103,0.044
							c-0.288,0.109-9.058,3.537-9.058,10.701C16.435,101.127,16.368,102.446,16.294,103.843z"/>
					</g>
				</g>
				<g>
					<g>
						<path class="st5" d="M33.882,84.396c-5.027,0-9.45-3.244-10.972-7.966c-2.115-0.518-3.408-2.171-3.408-4.42v-2.062
							c0-1.861,1.262-2.737,2.393-2.98v-4.254c0-5.024,4.106-9.111,9.154-9.111h5.666c2.281,0,3.556,1.181,4.174,2.019
							c0.751-0.151,1.728-0.134,2.622,0.419c1.566,0.969,2.36,3.215,2.36,6.675v4.253c1.131,0.243,2.393,1.119,2.393,2.98v2.062
							c0,2.248-1.292,3.901-3.408,4.42C43.333,81.151,38.91,84.396,33.882,84.396z M22.556,68.896
							c-0.475,0.012-1.054,0.204-1.054,1.053v2.062c0,0.825,0.289,2.253,2.22,2.543c0.396,0.06,0.841,0.363,0.942,0.75
							c1.092,4.176,4.883,7.093,9.219,7.093s8.127-2.917,9.219-7.093c0.104-0.398,0.441-0.692,0.851-0.74
							c2.022-0.3,2.311-1.728,2.311-2.553v-2.062c0-0.846-0.576-1.04-1.061-1.053c-0.062,0-0.123,0.006-0.182,0.016
							c-0.288,0.038-0.581-0.041-0.802-0.231c-0.221-0.189-0.348-0.467-0.348-0.758v-5.207c0-3.55-0.877-4.635-1.4-4.966
							c-0.707-0.45-1.583-0.042-1.592-0.037c-0.248,0.117-0.538,0.13-0.795,0.03c-0.256-0.1-0.465-0.298-0.568-0.553
							c-0.024-0.055-0.714-1.587-2.8-1.587h-5.666c-3.945,0-7.154,3.19-7.154,7.111v5.208c0,0.291-0.127,0.568-0.348,0.758
							c-0.221,0.19-0.512,0.271-0.802,0.231C22.684,68.901,22.621,68.896,22.556,68.896z"/>
					</g>
				</g>
				<g>
					<g>
						<path class="st5" d="M42.751,70.169c-0.238,0-0.479-0.04-0.718-0.133c-1.649-0.641-1.649-3.181-1.649-4.016
							c0-1.421-1.165-2.576-2.596-2.576h-7.812c-1.431,0-2.596,1.155-2.596,2.576c0,0.835,0,3.375-1.649,4.016
							c-1.59,0.614-3.257-1.091-3.575-1.439c-0.373-0.408-0.344-1.04,0.063-1.413c0.408-0.37,1.04-0.343,1.411,0.062l0,0
							c0.492,0.534,1.183,0.963,1.388,0.923c-0.009-0.003,0.362-0.355,0.362-2.147c0-2.523,2.062-4.576,4.596-4.576h7.812
							c2.534,0,4.596,2.053,4.596,4.576c0,1.821,0.383,2.155,0.387,2.158c0.184,0.007,0.87-0.399,1.363-0.934
							c0.374-0.405,1.006-0.434,1.412-0.059c0.406,0.373,0.434,1.003,0.062,1.41C45.338,68.893,44.093,70.169,42.751,70.169z"/>
					</g>
				</g>
			</g>
		</g>
	</g>
</g>
</svg>
