<?xml version="1.0" encoding="utf-8"?>
<!-- Generator: Adobe Illustrator 22.0.0, SVG Export Plug-In . SVG Version: 6.00 Build 0)  -->
<svg version="1.1" id="MARKET_RESEARCH_ICON_SET" xmlns="http://www.w3.org/2000/svg" xmlns:xlink="http://www.w3.org/1999/xlink"
	 x="0px" y="0px" viewBox="0 0 128 128" style="enable-background:new 0 0 128 128;" xml:space="preserve">
<style type="text/css">
	.st0{fill:#C2D5EC;}
	.st1{fill:#61E1FF;}
	.st2{fill:#7184AF;}
	.st3{fill:#F8F8F8;}
	.st4{fill:#3F4D81;}
	.st5{fill:#3F4D80;}
	.st6{fill:#E9EAEB;}
	.st7{fill:#F79559;}
	.st8{fill:#FFA85A;}
</style>
<g>
	<g>
		<g>
			<path class="st0" d="M92.951,88.068c-22.167,0-36.093-24.044-56.616-24.044S0,81.305,0,81.305l0.11,30.044H128V62.212
				C128,62.212,115.118,88.068,92.951,88.068z"/>
		</g>
		<g>
			<ellipse class="st6" cx="64" cy="64" rx="47.152" ry="47.251"/>
		</g>
		<g>
			<path class="st3" d="M66.55,111.178c-0.85,0.05-1.7,0.07-2.55,0.07c-26.04,0-47.15-21.154-47.15-47.248S37.96,16.752,64,16.752
				c0.85,0,1.7,0.02,2.55,0.07C41.69,18.145,21.94,38.757,21.94,64S41.69,109.855,66.55,111.178z"/>
		</g>
		<g>
			<path class="st1" d="M99.983,27.942c-19.873-19.914-52.093-19.914-71.966,0C10.868,45.127,8.531,71.52,20.98,91.23l2.71-2.716
				c-11.031-18.183-8.715-42.21,6.968-57.926c18.414-18.452,48.27-18.452,66.684,0c18.414,18.453,18.414,48.37,0,66.823
				s-48.27,18.453-66.684,0c-0.421-0.422-0.822-0.856-1.223-1.289l-2.641,2.646c0.403,0.433,0.802,0.868,1.223,1.29
				c19.873,19.914,52.093,19.914,71.966,0S119.856,47.856,99.983,27.942z"/>
		</g>
		<g>
			<path class="st5" d="M57.822,43c-13.231,0-23.956,10.748-23.956,24.006c0,5.661,1.96,10.86,5.23,14.964l-4.786,4.796
				c0,0,0.001,0,0.001,0c-1.156-0.522-2.561-0.316-3.511,0.636l-10.128,10.15c-1.228,1.23-1.228,3.225,0,4.455l2.223,2.227
				c1.228,1.23,3.218,1.23,4.445,0l10.128-10.15c0.95-0.952,1.156-2.36,0.635-3.519c0,0,0,0.001,0.001,0.001l4.786-4.796
				c4.096,3.277,9.284,5.241,14.933,5.241c13.231,0,23.956-10.748,23.956-24.006C81.778,53.748,71.052,43,57.822,43z"/>
		</g>
		<g>
			<path class="st5" d="M25.116,106.157c-1.107,0-2.147-0.432-2.93-1.215l-2.223-2.229c-1.614-1.617-1.614-4.248,0-5.866
				l10.128-10.149c1.038-1.039,2.558-1.435,3.953-1.079l3.725-3.734c-3.211-4.329-4.903-9.454-4.903-14.878
				C32.865,53.218,44.061,42,57.822,42s24.957,11.218,24.957,25.007S71.583,92.012,57.822,92.012
				c-5.414,0-10.527-1.695-14.847-4.912l-3.725,3.733c0.355,1.399-0.04,2.921-1.075,3.958l-10.128,10.15
				C27.264,105.725,26.223,106.157,25.116,106.157z M33.006,87.483c-0.552,0-1.09,0.216-1.5,0.627L21.379,98.258
				c-0.837,0.84-0.837,2.204,0,3.043l2.223,2.228c0.809,0.81,2.22,0.811,3.03-0.001l10.128-10.149
				c0.633-0.634,0.802-1.577,0.431-2.402c-0.17-0.379-0.089-0.823,0.205-1.116l4.787-4.795c0.358-0.362,0.933-0.394,1.333-0.075
				c4.105,3.286,9.053,5.022,14.308,5.022c12.658,0,22.957-10.32,22.957-23.006S70.48,44,57.822,44S34.865,54.321,34.865,67.006
				c0,5.266,1.733,10.225,5.013,14.341c0.317,0.397,0.285,0.97-0.074,1.329l-4.786,4.796c-0.294,0.296-0.74,0.377-1.12,0.205
				C33.609,87.547,33.306,87.483,33.006,87.483z"/>
		</g>
		<g>
			<g>
				<path class="st6" d="M54.822,39.994c-13.231,0-23.956,10.748-23.956,24.006s10.726,24.006,23.956,24.006
					c13.231,0,23.956-10.748,23.956-24.006S68.052,39.994,54.822,39.994z"/>
			</g>
			<g>
				<g>
					<g>
						<path class="st6" d="M66.651,62.077v1.716l2.004,3.808l2.004-3.808v-1.716c-0.611,0.28-1.289,0.439-2.004,0.439
							C67.939,62.517,67.262,62.357,66.651,62.077z"/>
					</g>
					<g>
						<path class="st2" d="M77.124,70.17c0-3.713-4.462-5.385-4.462-5.385l0,0l-2.003-0.991l-2.004,3.808l0.001,0.001l-0.001,0.001
							l-0.001-0.001l0.001-0.001l-2.004-3.808l-2.003,0.992l0,0c0,0-4.462,1.673-4.462,5.385c0,0.67-0.047,1.444-0.089,2.266h17.117
							C77.172,71.614,77.124,70.839,77.124,70.17z"/>
					</g>
					<g>
						<path class="st5" d="M65.211,54.48c0-0.914,0.739-1.654,1.651-1.654h3.587c0.912,0,1.651,0.741,1.651,1.654
							c0,2.644,1.601,0.879,1.601,0.879v-2.408c0-3.752-2.033-2.73-2.033-2.73s-0.413-1.022-1.711-1.022h-2.601
							c-2.068,0-3.744,1.68-3.744,3.752v2.409l0,0C63.61,55.359,65.211,57.123,65.211,54.48z"/>
					</g>
					<g>
						<path class="st3" d="M73.855,55.347c-0.053,0-0.105,0.005-0.155,0.012c0,0-1.601,1.764-1.601-0.879
							c0-0.914-0.739-1.654-1.651-1.654h-3.587c-0.912,0-1.651,0.741-1.651,1.654c0,2.644-1.601,0.879-1.601,0.879l0,0v0
							c-0.05-0.007-0.102-0.012-0.155-0.012c0,0-0.943,0-0.943,0.95v0.953c0,0.778,0.423,1.484,1.41,1.634
							c0.02,0.003,0.037,0.004,0.057,0.006c0.541,2.085,2.427,3.626,4.677,3.626c2.25,0,4.135-1.541,4.677-3.626
							c0.019-0.002,0.036-0.003,0.057-0.006c0.987-0.15,1.41-0.856,1.41-1.634v-0.953C74.798,55.347,73.855,55.347,73.855,55.347z"
							/>
					</g>
				</g>
				<g>
					<g>
						<path class="st6" d="M38.953,62.077v1.716l2.004,3.808l2.004-3.808v-1.716c-0.611,0.28-1.289,0.439-2.004,0.439
							C40.241,62.517,39.564,62.357,38.953,62.077z"/>
					</g>
					<g>
						<path class="st2" d="M49.426,70.17c0-3.713-4.462-5.385-4.462-5.385l0,0l-2.003-0.991l-2.004,3.808l0.001,0.001l-0.001,0.001
							l-0.001-0.001l0.001-0.001l-2.004-3.808l-2.003,0.992l0,0c0,0-4.462,1.673-4.462,5.385c0,0.67-0.047,1.444-0.089,2.266h17.117
							C49.474,71.614,49.426,70.839,49.426,70.17z"/>
					</g>
					<g>
						<path class="st5" d="M37.513,54.48c0-0.914,0.739-1.654,1.651-1.654h3.587c0.912,0,1.651,0.741,1.651,1.654
							c0,2.644,1.601,0.879,1.601,0.879v-2.408c0-3.752-2.033-2.73-2.033-2.73s-0.413-1.022-1.711-1.022h-2.601
							c-2.068,0-3.744,1.68-3.744,3.752v2.409l0,0C35.912,55.359,37.513,57.123,37.513,54.48z"/>
					</g>
					<g>
						<path class="st3" d="M46.157,55.347c-0.053,0-0.105,0.005-0.155,0.012c0,0-1.601,1.764-1.601-0.879
							c0-0.914-0.739-1.654-1.651-1.654h-3.587c-0.912,0-1.651,0.741-1.651,1.654c0,2.644-1.601,0.879-1.601,0.879l0,0v0
							c-0.05-0.007-0.102-0.012-0.155-0.012c0,0-0.943,0-0.943,0.95v0.953c0,0.778,0.423,1.484,1.41,1.634
							c0.02,0.003,0.037,0.004,0.057,0.006c0.541,2.085,2.427,3.626,4.677,3.626c2.25,0,4.135-1.541,4.677-3.626
							c0.019-0.002,0.036-0.003,0.057-0.006c0.987-0.15,1.41-0.856,1.41-1.634v-0.953C47.1,55.347,46.157,55.347,46.157,55.347z"/>
					</g>
				</g>
				<g>
					<g>
						<path class="st6" d="M52.824,64.925v1.716l2.004,3.808l2.004-3.808v-1.716c-0.611,0.28-1.289,0.439-2.004,0.439
							C54.112,65.365,53.435,65.205,52.824,64.925z"/>
					</g>
					<g>
						<path class="st8" d="M63.297,73.018c0-3.713-4.462-5.385-4.462-5.385l0,0l-2.003-0.991l-2.004,3.808l0.001,0.001l-0.001,0.001
							l-0.001-0.001l0.001-0.001l-2.004-3.808l-2.003,0.992l0,0c0,0-4.462,1.673-4.462,5.385c0,0.67-0.047,1.444-0.089,2.266h17.117
							C63.344,74.462,63.297,73.687,63.297,73.018z"/>
					</g>
					<g>
						<path class="st5" d="M51.383,57.328c0-0.914,0.739-1.654,1.651-1.654h3.587c0.912,0,1.651,0.741,1.651,1.654
							c0,2.644,1.601,0.879,1.601,0.879v-2.408c0-3.752-2.033-2.73-2.033-2.73s-0.413-1.022-1.711-1.022h-2.601
							c-2.068,0-3.744,1.68-3.744,3.752v2.409l0,0C49.783,58.207,51.383,59.971,51.383,57.328z"/>
					</g>
					<g>
						<path class="st3" d="M60.028,58.195c-0.053,0-0.105,0.005-0.155,0.012c0,0-1.601,1.764-1.601-0.879
							c0-0.914-0.739-1.654-1.651-1.654h-3.587c-0.912,0-1.651,0.741-1.651,1.654c0,2.644-1.601,0.879-1.601,0.879l0,0v0
							c-0.05-0.007-0.102-0.012-0.155-0.012c0,0-0.943,0-0.943,0.95v0.953c0,0.778,0.423,1.484,1.41,1.634
							c0.02,0.003,0.037,0.004,0.057,0.006c0.541,2.085,2.427,3.626,4.677,3.626c2.25,0,4.135-1.541,4.677-3.626
							c0.019-0.002,0.036-0.003,0.057-0.006c0.987-0.15,1.41-0.856,1.41-1.634v-0.953C60.971,58.195,60.028,58.195,60.028,58.195z"
							/>
					</g>
				</g>
				<g>
					<path class="st5" d="M63.254,72.435c0.025,0.189,0.043,0.381,0.043,0.582c0,0.67,0.047,1.444,0.089,2.266H46.269
						c0.042-0.822,0.089-1.596,0.089-2.266c0-0.201,0.019-0.393,0.043-0.582h-8.112c1.251,2.461,3.032,4.605,5.194,6.282h22.689
						c2.162-1.677,3.942-3.821,5.194-6.282H63.254z"/>
				</g>
			</g>
			<g>
				<path class="st7" d="M32.245,84.397c-0.278-0.278-0.597-0.484-0.935-0.637l4.786-4.796c1.119,1.405,2.392,2.68,3.793,3.801
					l-4.786,4.796c-0.152-0.339-0.358-0.659-0.635-0.937L32.245,84.397z"/>
			</g>
			<g>
				<path class="st2" d="M34.467,91.079l-10.128,10.15c-1.228,1.23-3.218,1.23-4.445,0l-2.223-2.227
					c-1.228-1.23-1.228-3.225,0-4.455l10.128-10.15c1.228-1.23,3.218-1.23,4.445,0l2.223,2.227
					C35.695,87.854,35.695,89.849,34.467,91.079z"/>
			</g>
			<g>
				<path class="st1" d="M54.822,39.994c-13.231,0-23.956,10.748-23.956,24.006s10.726,24.006,23.956,24.006
					c13.231,0,23.956-10.748,23.956-24.006S68.052,39.994,54.822,39.994z M54.82,82.604c-10.253,0-18.566-8.33-18.566-18.604
					c0-10.275,8.312-18.604,18.566-18.604S73.385,53.725,73.385,64C73.385,74.275,65.073,82.604,54.82,82.604z"/>
			</g>
		</g>
		<g>
			<g>
				<rect x="73.387" y="30.831" class="st8" width="4.874" height="9.162"/>
			</g>
			<g>
				<rect x="83.135" y="25.814" class="st8" width="4.874" height="14.18"/>
			</g>
			<g>
				<rect x="92.882" y="21.232" class="st8" width="4.874" height="18.761"/>
			</g>
			<g>
				<rect x="102.629" y="16.651" class="st8" width="4.874" height="23.342"/>
			</g>
		</g>
		<g>
			<ellipse class="st2" cx="94.964" cy="64" rx="5.442" ry="5.453"/>
		</g>
	</g>
	<g>
		<g>
			<g>
				<g>
					<path class="st5" d="M127,112.349H82.927c-0.552,0-1-0.447-1-1s0.448-1,1-1H127c0.552,0,1,0.447,1,1
						S127.552,112.349,127,112.349z"/>
				</g>
			</g>
			<g>
				<g>
					<path class="st5" d="M45.071,112.349H1c-0.552,0-1-0.447-1-1s0.448-1,1-1h44.071c0.552,0,1,0.447,1,1
						S45.624,112.349,45.071,112.349z"/>
				</g>
			</g>
		</g>
		<g>
			<g>
				<g>
					<g>
						<path class="st5" d="M111.861,82.357c-0.31,0-0.615-0.144-0.811-0.413c-0.324-0.447-0.224-1.073,0.224-1.396
							c0.264-0.191,0.525-0.386,0.783-0.583c0.438-0.335,1.065-0.25,1.402,0.187c0.335,0.439,0.251,1.066-0.188,1.402
							c-0.271,0.207-0.546,0.411-0.824,0.612C112.269,82.296,112.064,82.357,111.861,82.357z"/>
					</g>
				</g>
				<g>
					<g>
						<path class="st5" d="M115.621,79.29c-0.272,0-0.543-0.11-0.74-0.327c-0.372-0.408-0.342-1.041,0.067-1.413
							c0.471-0.428,0.928-0.861,1.373-1.297c0.395-0.389,1.028-0.38,1.414,0.014c0.387,0.394,0.38,1.027-0.014,1.414
							c-0.462,0.453-0.938,0.904-1.427,1.349C116.102,79.204,115.861,79.29,115.621,79.29z M119.672,75.172
							c-0.236,0-0.472-0.083-0.663-0.252c-0.414-0.366-0.452-0.998-0.085-1.411c0.429-0.484,0.841-0.965,1.234-1.438
							c0.353-0.425,0.984-0.481,1.409-0.129c0.424,0.352,0.482,0.983,0.129,1.408c-0.407,0.489-0.833,0.985-1.275,1.485
							C120.223,75.058,119.948,75.172,119.672,75.172z M123.298,70.675c-0.206,0-0.413-0.063-0.591-0.194
							c-0.445-0.326-0.541-0.952-0.214-1.397c0.397-0.541,0.764-1.058,1.1-1.546c0.312-0.454,0.937-0.572,1.391-0.256
							c0.455,0.312,0.57,0.935,0.257,1.39c-0.346,0.503-0.725,1.036-1.135,1.595C123.909,70.533,123.606,70.675,123.298,70.675z"/>
					</g>
				</g>
				<g>
					<g>
						<path class="st5" d="M126.503,65.863c-0.174,0-0.35-0.045-0.51-0.141c-0.475-0.281-0.631-0.895-0.349-1.37
							c0.309-0.519,0.471-0.818,0.477-0.828c0.262-0.487,0.868-0.667,1.355-0.403c0.485,0.262,0.667,0.869,0.404,1.354
							c0,0-0.176,0.325-0.516,0.898C127.177,65.688,126.844,65.863,126.503,65.863z"/>
					</g>
				</g>
			</g>
			<g>
				<g>
					<g>
						<path class="st5" d="M72.536,82.575c-0.175,0-0.353-0.046-0.514-0.143c-0.289-0.174-0.578-0.35-0.866-0.529
							c-0.469-0.291-0.614-0.908-0.322-1.377c0.292-0.47,0.907-0.613,1.377-0.322c0.281,0.174,0.562,0.346,0.842,0.514
							c0.474,0.285,0.626,0.899,0.342,1.373C73.206,82.402,72.875,82.575,72.536,82.575z"/>
					</g>
				</g>
				<g>
					<g>
						<path class="st5" d="M93.651,89.059c-0.541,0-0.986-0.432-0.999-0.975c-0.014-0.553,0.423-1.011,0.976-1.024
							c0.657-0.016,1.316-0.055,1.959-0.117c0.558-0.047,1.039,0.35,1.092,0.898c0.054,0.55-0.349,1.039-0.898,1.092
							c-0.691,0.067-1.398,0.109-2.104,0.127C93.667,89.059,93.659,89.059,93.651,89.059z M89.588,88.883
							c-0.037,0-0.074-0.002-0.111-0.006c-0.692-0.076-1.391-0.176-2.078-0.296c-0.544-0.096-0.908-0.614-0.812-1.158
							c0.095-0.543,0.618-0.901,1.157-0.812c0.648,0.114,1.298,0.207,1.952,0.278c0.549,0.061,0.945,0.555,0.885,1.103
							C90.524,88.504,90.091,88.883,89.588,88.883z M99.692,88.257c-0.449,0-0.857-0.305-0.97-0.761
							c-0.132-0.536,0.195-1.078,0.731-1.21c0.625-0.154,1.263-0.335,1.893-0.536c0.53-0.175,1.089,0.122,1.257,0.647
							c0.168,0.526-0.122,1.089-0.648,1.257c-0.673,0.216-1.354,0.408-2.023,0.573C99.853,88.248,99.772,88.257,99.692,88.257z
							 M83.615,87.651c-0.095,0-0.191-0.014-0.287-0.042c-0.664-0.198-1.325-0.417-1.985-0.654c-0.52-0.187-0.79-0.76-0.603-1.28
							c0.187-0.518,0.76-0.788,1.279-0.602c0.626,0.226,1.253,0.433,1.882,0.621c0.529,0.158,0.83,0.716,0.671,1.245
							C84.443,87.371,84.045,87.651,83.615,87.651z M77.919,85.456c-0.142,0-0.286-0.03-0.422-0.094
							c-0.62-0.29-1.241-0.594-1.862-0.913c-0.491-0.253-0.685-0.855-0.432-1.347c0.253-0.49,0.856-0.684,1.346-0.433
							c0.599,0.308,1.196,0.601,1.793,0.88c0.5,0.233,0.717,0.829,0.483,1.329C78.656,85.242,78.295,85.456,77.919,85.456z"/>
					</g>
				</g>
				<g>
					<g>
						<path class="st5" d="M105.458,86.215c-0.379,0-0.742-0.217-0.91-0.584c-0.23-0.502-0.009-1.096,0.493-1.325
							c0.293-0.135,0.586-0.273,0.879-0.416c0.496-0.241,1.095-0.034,1.336,0.462c0.241,0.497,0.035,1.096-0.462,1.337
							c-0.306,0.148-0.613,0.295-0.921,0.435C105.739,86.186,105.598,86.215,105.458,86.215z"/>
					</g>
				</g>
			</g>
			<g>
				<g>
					<g>
						<path class="st5" d="M17.108,69.836c-0.368,0-0.722-0.203-0.896-0.555c-0.246-0.494-0.044-1.095,0.45-1.341
							c0.301-0.149,0.606-0.298,0.913-0.444c0.498-0.236,1.096-0.026,1.333,0.474c0.237,0.499,0.025,1.096-0.473,1.333
							c-0.296,0.141-0.59,0.283-0.882,0.429C17.41,69.803,17.258,69.836,17.108,69.836z"/>
					</g>
				</g>
				<g>
					<g>
						<path class="st5" d="M22.628,67.499c-0.413,0-0.799-0.257-0.943-0.668c-0.183-0.521,0.091-1.093,0.612-1.275
							c0.797-0.28,1.607-0.542,2.429-0.784c0.527-0.16,1.086,0.146,1.242,0.677c0.156,0.529-0.146,1.085-0.676,1.241
							c-0.789,0.232-1.566,0.484-2.331,0.753C22.85,67.481,22.738,67.499,22.628,67.499z"/>
					</g>
				</g>
				<g>
					<g>
						<path class="st5" d="M29.881,65.585c-0.477,0-0.898-0.342-0.984-0.827c-0.096-0.544,0.268-1.062,0.812-1.158
							c0.335-0.059,0.67-0.114,1.008-0.166c0.538-0.082,1.056,0.289,1.14,0.837c0.084,0.545-0.291,1.056-0.836,1.14
							c-0.323,0.05-0.645,0.104-0.965,0.16C29.997,65.58,29.938,65.585,29.881,65.585z"/>
					</g>
				</g>
			</g>
			<g>
				<g>
					<g>
						<path class="st5" d="M1,81.275c-0.251,0-0.502-0.094-0.696-0.282c-0.396-0.384-0.406-1.017-0.022-1.414
							c0,0,0.256-0.265,0.743-0.725c0.399-0.383,1.032-0.365,1.414,0.036c0.38,0.4,0.364,1.033-0.037,1.413
							c-0.439,0.418-0.675,0.66-0.684,0.669C1.522,81.174,1.261,81.275,1,81.275z"/>
					</g>
				</g>
				<g>
					<g>
						<path class="st5" d="M4.293,78.281c-0.285,0-0.568-0.121-0.766-0.356c-0.355-0.423-0.301-1.054,0.122-1.409
							c0.417-0.351,0.871-0.723,1.357-1.11c0.433-0.344,1.062-0.273,1.405,0.159c0.344,0.433,0.273,1.061-0.159,1.405
							c-0.472,0.376-0.912,0.736-1.316,1.077C4.749,78.204,4.521,78.281,4.293,78.281z M8.386,75.103
							c-0.312,0-0.618-0.145-0.813-0.417c-0.322-0.449-0.219-1.073,0.229-1.395c0.461-0.331,0.94-0.667,1.437-1.005
							c0.457-0.31,1.079-0.191,1.389,0.265c0.311,0.456,0.192,1.078-0.264,1.389c-0.482,0.328-0.947,0.654-1.396,0.975
							C8.792,75.043,8.588,75.103,8.386,75.103z"/>
					</g>
				</g>
				<g>
					<g>
						<path class="st5" d="M12.716,72.244c-0.338,0-0.669-0.172-0.857-0.482c-0.286-0.473-0.134-1.088,0.339-1.373
							c0.287-0.174,0.577-0.346,0.872-0.518c0.478-0.277,1.089-0.118,1.368,0.358s0.118,1.089-0.358,1.368
							c-0.286,0.167-0.569,0.335-0.848,0.503C13.07,72.197,12.892,72.244,12.716,72.244z"/>
					</g>
				</g>
			</g>
		</g>
		<g>
			<g>
				<g>
					<path class="st5" d="M102.629,37.915c-0.32,0-0.628-0.154-0.819-0.427c-1.429-2.042-3.035-3.982-4.771-5.767
						c-0.182-0.187-0.283-0.436-0.283-0.697V25.85c0-0.394,0.231-0.751,0.591-0.912c0.359-0.163,0.781-0.097,1.074,0.165
						c0.861,0.767,1.604,1.465,2.27,2.133c0.851,0.852,1.733,1.814,2.698,2.94c0.155,0.181,0.241,0.412,0.241,0.65v6.089
						c0,0.436-0.283,0.822-0.699,0.954C102.831,37.901,102.729,37.915,102.629,37.915z M98.756,30.621
						c1.004,1.05,1.964,2.149,2.874,3.289v-2.713c-0.837-0.967-1.61-1.803-2.354-2.549c-0.167-0.168-0.34-0.338-0.519-0.511V30.621z
						"/>
				</g>
			</g>
			<g>
				<g>
					<path class="st5" d="M20.98,92.23c-0.037,0-0.073-0.002-0.11-0.006c-0.302-0.034-0.573-0.203-0.735-0.46
						c-12.851-20.347-9.833-47.485,7.175-64.528c17.725-17.762,45.542-20.3,66.142-6.034c0.27,0.187,0.431,0.494,0.431,0.822v4.639
						c0,0.382-0.218,0.73-0.561,0.898c-0.343,0.168-0.752,0.126-1.053-0.109c-18.308-14.257-44.49-12.604-60.901,3.842l0,0
						C16.272,46.42,13.467,69.737,24.545,87.996c0.239,0.394,0.178,0.899-0.147,1.224l-2.71,2.715
						C21.499,92.125,21.244,92.23,20.98,92.23z M64.015,13.993c-12.86,0-25.633,4.977-35.29,14.654
						C12.667,44.74,9.579,70.189,21.168,89.626l1.265-1.267C11.35,69.413,14.39,45.475,29.95,29.882l0,0
						C46.599,13.2,72.88,11.107,91.882,24.67v-2.119C83.401,16.806,73.684,13.993,64.015,13.993z"/>
				</g>
			</g>
			<g>
				<g>
					<path class="st5" d="M64,115.994c-13.86,0-26.891-5.409-36.691-15.23c-0.381-0.382-0.745-0.773-1.109-1.166l-0.138-0.149
						c-0.366-0.394-0.355-1.007,0.024-1.387l2.641-2.646c0.192-0.193,0.459-0.294,0.727-0.294c0.272,0.005,0.53,0.121,0.715,0.32
						c0.438,0.474,0.81,0.874,1.198,1.264c8.717,8.734,20.306,13.545,32.634,13.545s23.917-4.811,32.634-13.545
						c14.902-14.934,17.834-38.046,7.131-56.205c-0.183-0.31-0.185-0.692-0.007-1.004c0.178-0.311,0.509-0.504,0.868-0.504h1.876
						v-1.449c0-0.448,0.299-0.842,0.731-0.963c0.431-0.121,0.892,0.061,1.124,0.444c12.453,20.526,9.3,46.735-7.667,63.738
						C90.891,110.585,77.86,115.994,64,115.994z M28.183,98.792c0.178,0.188,0.358,0.376,0.542,0.56
						c9.422,9.442,21.95,14.642,35.275,14.642s25.853-5.2,35.275-14.642c15.585-15.618,19.049-39.315,8.89-58.609
						c-0.176,0.155-0.408,0.25-0.662,0.25h-1.162c10.142,18.701,6.844,41.958-8.291,57.125c-9.095,9.114-21.188,14.133-34.05,14.133
						s-24.955-5.019-34.05-14.133c-0.183-0.184-0.362-0.369-0.54-0.557L28.183,98.792z"/>
				</g>
			</g>
		</g>
		<g>
			<g>
				<g>
					<path class="st5" d="M54.822,89.007c-13.761,0-24.957-11.218-24.957-25.007s11.195-25.007,24.957-25.007
						S79.778,50.212,79.778,64S68.583,89.007,54.822,89.007z M54.822,40.993c-12.658,0-22.957,10.321-22.957,23.007
						s10.298,23.007,22.957,23.007S77.778,76.686,77.778,64S67.48,40.993,54.822,40.993z"/>
				</g>
			</g>
			<g>
				<g>
					<path class="st5" d="M35.103,88.561c-0.06,0-0.121-0.006-0.181-0.017c-0.324-0.06-0.597-0.274-0.732-0.574
						c-0.112-0.251-0.257-0.467-0.431-0.641l-2.222-2.227c-0.175-0.175-0.384-0.316-0.639-0.431
						c-0.299-0.136-0.513-0.409-0.572-0.731c-0.06-0.323,0.043-0.654,0.275-0.887l4.787-4.796c0.202-0.201,0.486-0.306,0.764-0.292
						c0.285,0.016,0.549,0.152,0.727,0.375c1.071,1.345,2.295,2.57,3.636,3.644c0.222,0.177,0.357,0.44,0.374,0.725
						c0.016,0.284-0.09,0.56-0.291,0.762l-4.787,4.796C35.621,88.458,35.366,88.561,35.103,88.561z M32.871,83.611
						c0.028,0.026,0.055,0.053,0.082,0.08c0,0,0,0,0,0l2.223,2.227c0.026,0.025,0.051,0.052,0.076,0.078l3.159-3.166
						c-0.845-0.74-1.642-1.538-2.381-2.385L32.871,83.611z"/>
				</g>
			</g>
			<g>
				<g>
					<path class="st5" d="M22.116,103.151c-1.107,0-2.148-0.432-2.931-1.217l-2.223-2.227c-1.615-1.618-1.615-4.25,0-5.867
						l10.128-10.149c0.783-0.785,1.824-1.217,2.931-1.217s2.148,0.432,2.931,1.217l2.223,2.227c1.614,1.618,1.614,4.249,0,5.867
						l-10.128,10.149C24.264,102.72,23.223,103.151,22.116,103.151z M30.022,84.474c-0.572,0-1.11,0.224-1.515,0.629l-10.128,10.15
						c-0.838,0.839-0.837,2.203,0,3.043l2.223,2.227c0.81,0.81,2.22,0.81,3.029,0l10.128-10.15c0,0,0,0,0-0.001
						c0.837-0.838,0.837-2.202,0-3.042l-2.223-2.227C31.132,84.698,30.594,84.474,30.022,84.474z"/>
				</g>
			</g>
			<g>
				<g>
					<path class="st5" d="M54.82,83.604c-10.789,0-19.566-8.795-19.566-19.604s8.777-19.604,19.566-19.604S74.385,53.191,74.385,64
						S65.608,83.604,54.82,83.604z M54.82,46.396c-9.686,0-17.566,7.897-17.566,17.604s7.88,17.604,17.566,17.604
						c9.686,0,17.565-7.897,17.565-17.604S64.505,46.396,54.82,46.396z"/>
				</g>
			</g>
			<g>
				<g>
					<g>
						<g>
							<path class="st5" d="M71.367,73.431H63.25c-0.502,0-0.927-0.372-0.992-0.87c-0.196-1.502-1.366-2.573-2.312-3.207
								c-0.391-0.262-0.546-0.762-0.373-1.199c1.165-2.944,4.574-4.26,4.718-4.315l1.915-0.953c0.485-0.238,1.076-0.05,1.328,0.431
								l1.121,2.13l1.121-2.13c0.252-0.48,0.841-0.672,1.329-0.431l1.965,0.973c0.108,0.044,0.377,0.155,0.736,0.339
								c0.353,0.18,0.566,0.552,0.544,0.948c-0.157,2.715-0.86,5.318-2.091,7.737C72.088,73.221,71.744,73.431,71.367,73.431z
								 M64.055,71.432h6.688c0.845-1.812,1.368-3.732,1.559-5.724c-0.027-0.011-0.054-0.022-0.08-0.035l-1.129-0.56l-1.551,2.948
								c-0.345,0.656-1.424,0.656-1.77,0l-1.551-2.948l-1.13,0.56c-0.03,0.015-0.06,0.027-0.09,0.039
								c-0.045,0.018-2.164,0.851-3.222,2.51C62.921,69.151,63.694,70.239,64.055,71.432z"/>
						</g>
					</g>
					<g>
						<g>
							<path class="st5" d="M68.655,63.506c-0.3,0-0.593-0.029-0.881-0.072l-0.209-0.035c-0.275-0.054-0.539-0.12-0.792-0.208
								l-0.164-0.063c-1.605-0.62-2.836-1.87-3.418-3.42c-1.052-0.388-1.682-1.302-1.682-2.469v-0.954
								c0-0.883,0.486-1.481,1.099-1.764v-1.584c0-2.095,1.354-3.917,3.37-4.531c0.315-0.096,0.654-0.032,0.91,0.17
								c1.344,1.057,2.542,2.28,3.563,3.634c0.001,0.001,0.001,0.002,0.002,0.003c1.676,2.23,2.837,4.742,3.449,7.465
								c0.052,0.231,0.021,0.473-0.089,0.683c-0.663,1.269-1.756,2.248-3.077,2.755c-0.088,0.036-0.146,0.06-0.205,0.079
								c-0.246,0.086-0.511,0.152-0.782,0.205l-0.202,0.033C69.219,63.482,68.929,63.506,68.655,63.506z M63.51,56.568l-0.002,0.669
								c0,0.494,0.283,0.604,0.56,0.646c0.396,0.06,0.774,0.356,0.875,0.744c0.31,1.192,1.186,2.171,2.342,2.617l-0.188,1.001
								l0.326-0.945c0.166,0.057,0.338,0.1,0.514,0.134c0.002,0,0.148,0.024,0.15,0.024c0.35,0.053,0.768,0.056,1.148-0.003
								l0.138-0.022c0.174-0.033,0.347-0.076,0.514-0.134c0.006-0.002,0.118-0.048,0.125-0.05c0.763-0.293,1.408-0.822,1.85-1.51
								c-0.53-2.142-1.443-4.133-2.718-5.93H66.86c-0.359,0-0.651,0.294-0.651,0.656c0,0.478,0,1.933-1.106,2.36
								C64.502,57.057,63.933,56.844,63.51,56.568z M66.093,50.506c-0.905,0.465-1.486,1.389-1.486,2.429v0.132
								c0.468-0.754,1.303-1.257,2.253-1.257h0.628C67.048,51.352,66.583,50.917,66.093,50.506z"/>
						</g>
					</g>
				</g>
				<g>
					<g>
						<g>
							<path class="st5" d="M46.345,73.431h-8.117c-0.376,0-0.721-0.211-0.892-0.547c-1.23-2.42-1.934-5.023-2.091-7.737
								c-0.022-0.396,0.191-0.768,0.544-0.948c0.359-0.184,0.628-0.295,0.736-0.339l1.965-0.973c0.488-0.24,1.076-0.05,1.329,0.431
								l1.121,2.13l1.121-2.13c0.251-0.479,0.839-0.672,1.329-0.431l2.004,0.992l-0.008,0.017c1.067,0.397,3.658,1.785,4.637,4.259
								c0.173,0.437,0.018,0.937-0.373,1.199c-0.947,0.634-2.117,1.705-2.312,3.207C47.272,73.059,46.848,73.431,46.345,73.431z
								 M38.854,71.432h6.688c0.36-1.192,1.133-2.281,2.277-3.21c-1.063-1.668-3.199-2.502-3.223-2.511l-1.218-0.6l-1.552,2.95
								c-0.173,0.328-0.514,0.534-0.885,0.534l0,0c-0.372,0-0.712-0.206-0.885-0.534l-1.551-2.948l-1.129,0.56
								c-0.026,0.013-0.053,0.024-0.08,0.035C37.485,67.7,38.008,69.619,38.854,71.432z M36.931,64.776h0.01H36.931z"/>
						</g>
					</g>
					<g>
						<g>
							<path class="st5" d="M40.941,63.506c-0.274,0-0.564-0.024-0.887-0.074l-0.205-0.034c-0.273-0.053-0.538-0.119-0.794-0.208
								c-0.049-0.017-0.107-0.04-0.165-0.063c-1.351-0.519-2.444-1.498-3.107-2.767c-0.11-0.21-0.141-0.451-0.089-0.683
								c0.612-2.723,1.773-5.235,3.449-7.464c0.001-0.001,0.002-0.003,0.003-0.004c1.02-1.354,2.218-2.577,3.562-3.634
								c0.256-0.203,0.595-0.267,0.91-0.17c2.016,0.614,3.37,2.435,3.37,4.531v1.584c0.613,0.283,1.099,0.882,1.099,1.764v0.954
								c0,1.181-0.645,2.103-1.686,2.479c-0.583,1.546-1.809,2.791-3.372,3.393l-0.202,0.08c-0.259,0.089-0.522,0.155-0.791,0.207
								l-0.149,0.025C41.534,63.477,41.241,63.506,40.941,63.506z M41.523,61.455l0.325,0.96l-0.19-0.981
								c0.176-0.034,0.348-0.077,0.514-0.134c0.006-0.003,0.129-0.053,0.135-0.055c1.16-0.447,2.036-1.426,2.346-2.618
								c0.1-0.387,0.421-0.677,0.816-0.737c0.336-0.049,0.619-0.159,0.619-0.653v-0.67c-0.423,0.277-0.993,0.492-1.594,0.259
								c-1.101-0.425-1.106-1.868-1.106-2.353v-0.001c0-0.002,0-0.004,0-0.006c0-0.362-0.292-0.656-0.651-0.656h-2.283
								c-1.275,1.797-2.188,3.787-2.719,5.93c0.442,0.687,1.086,1.217,1.843,1.507l-0.218,0.99l0.342-0.939
								c0.174,0.06,0.347,0.103,0.523,0.136l0.129,0.021C40.747,61.515,41.143,61.514,41.523,61.455z M42.107,51.81h0.628
								c0.95,0,1.785,0.503,2.253,1.257v-0.132c0-1.04-0.581-1.965-1.486-2.429C43.013,50.917,42.547,51.352,42.107,51.81z"/>
						</g>
					</g>
				</g>
				<g>
					<g>
						<g>
							<path class="st5" d="M54.82,71.444L54.82,71.444c-0.371,0-0.712-0.206-0.885-0.534L51.93,67.1
								c-0.076-0.144-0.115-0.304-0.115-0.466v-1.718c0-0.341,0.173-0.657,0.46-0.842c0.287-0.183,0.647-0.208,0.957-0.067
								c1.013,0.465,2.166,0.464,3.178,0c0.309-0.142,0.669-0.116,0.957,0.067c0.287,0.185,0.46,0.501,0.46,0.842v1.718
								c0,0.162-0.04,0.322-0.115,0.466l-2.006,3.81C55.532,71.238,55.191,71.444,54.82,71.444z M53.814,66.387l1.005,1.91
								l1.006-1.91v-0.118c-0.661,0.117-1.35,0.117-2.011,0V66.387z"/>
						</g>
					</g>
					<g>
						<g>
							<path class="st5" d="M63.383,76.282H46.256c-0.274,0-0.536-0.112-0.725-0.311c-0.188-0.198-0.288-0.466-0.273-0.739
								l0.02-0.388c0.035-0.659,0.068-1.28,0.068-1.829c0-4.171,4.492-6.08,5.061-6.305l1.965-0.972
								c0.487-0.24,1.075-0.05,1.328,0.431l1.121,2.129l1.121-2.129c0.252-0.481,0.84-0.672,1.329-0.431l2.004,0.992l-0.001,0.003
								c0.642,0.236,1.674,0.827,2.411,1.411c1.708,1.35,2.611,3.035,2.611,4.87c0,0.549,0.033,1.17,0.068,1.829l0.02,0.388
								c0.014,0.273-0.085,0.541-0.273,0.739C63.919,76.169,63.657,76.282,63.383,76.282z M47.309,74.282h15.022
								c-0.021-0.45-0.037-0.876-0.037-1.267c0-2.988-3.777-4.439-3.815-4.453c-0.031-0.012-0.062-0.025-0.092-0.04l-1.13-0.559
								l-1.552,2.947c-0.173,0.328-0.514,0.534-0.885,0.534l0,0c-0.371,0-0.712-0.206-0.885-0.534l-1.551-2.947l-1.13,0.56
								c-0.034,0.017-0.068,0.031-0.102,0.043c-0.171,0.067-3.807,1.531-3.807,4.449C47.345,73.406,47.33,73.832,47.309,74.282z"/>
						</g>
					</g>
					<g>
						<g>
							<path class="st5" d="M54.82,66.356c-2.45,0-4.615-1.531-5.462-3.791c-1.041-0.375-1.685-1.298-1.685-2.478v-0.954
								c0-0.882,0.486-1.481,1.099-1.763v-1.585c0-2.621,2.129-4.753,4.746-4.753h2.603c1.004,0,1.708,0.431,2.147,0.9
								c0.373-0.028,0.814,0.033,1.254,0.305c0.905,0.559,1.346,1.719,1.346,3.548v1.585c0.613,0.282,1.099,0.882,1.099,1.763v0.954
								c0,1.181-0.645,2.103-1.685,2.478C59.435,64.825,57.269,66.356,54.82,66.356z M49.675,59.19l-0.002,0.897
								c0,0.494,0.283,0.604,0.56,0.646c0.396,0.06,0.774,0.355,0.875,0.743c0.44,1.695,1.966,2.88,3.712,2.88
								c1.745,0,3.271-1.184,3.711-2.88c0.105-0.404,0.45-0.701,0.866-0.744c0.286-0.041,0.569-0.151,0.569-0.645v-0.9
								c-0.254,0.02-0.547-0.076-0.744-0.254c-0.209-0.189-0.355-0.456-0.355-0.738v-2.41c0-1.568-0.389-1.843-0.394-1.845
								c-0.047-0.029-0.173,0.002-0.215,0.019c-0.246,0.106-0.542,0.116-0.791,0.013c-0.249-0.103-0.461-0.293-0.562-0.543
								c-0.037-0.073-0.234-0.396-0.785-0.396h-2.603c-1.514,0-2.746,1.235-2.746,2.754v2.41c0,0.292-0.127,0.569-0.349,0.759
								C50.216,59.132,49.947,59.217,49.675,59.19z M60.04,59.193c0.001,0.001,0.003,0.002,0.005,0.002L60.04,59.193z"/>
						</g>
					</g>
					<g>
						<g>
							<path class="st5" d="M58.898,59.774c-0.17,0-0.347-0.029-0.526-0.099c-1.106-0.427-1.106-1.882-1.106-2.36
								c0-0.361-0.292-0.655-0.652-0.655h-3.588c-0.359,0-0.652,0.294-0.652,0.655c0,0.478,0,1.933-1.106,2.36
								c-1.035,0.398-1.972-0.518-2.236-0.808c-0.371-0.409-0.34-1.041,0.069-1.412c0.361-0.329,0.897-0.343,1.273-0.06
								c0-0.025,0-0.053,0-0.08c0-1.464,1.189-2.655,2.652-2.655h3.588c1.462,0,2.652,1.191,2.652,2.655c0,0.027,0,0.055,0,0.08
								c0.376-0.282,0.912-0.269,1.273,0.06c0.409,0.371,0.44,1.003,0.069,1.412C60.39,59.107,59.71,59.774,58.898,59.774z"/>
						</g>
					</g>
				</g>
				<g>
					<g>
						<path class="st5" d="M66.17,79.717H43.469c-0.222,0-0.438-0.074-0.613-0.21c-2.277-1.766-4.171-4.056-5.476-6.622
							c-0.157-0.31-0.143-0.68,0.039-0.975c0.182-0.297,0.505-0.477,0.853-0.477h8.117c0.288,0,0.562,0.124,0.752,0.341
							c0.189,0.216,0.277,0.504,0.24,0.789c-0.02,0.147-0.035,0.297-0.035,0.453c0,0.392-0.016,0.817-0.037,1.267h15.022
							c-0.021-0.45-0.037-0.876-0.037-1.267c0-0.156-0.016-0.306-0.035-0.453c-0.037-0.285,0.05-0.573,0.24-0.789
							c0.19-0.217,0.464-0.341,0.752-0.341h8.117c0.348,0,0.67,0.181,0.853,0.477c0.182,0.296,0.196,0.666,0.039,0.975
							c-1.305,2.566-3.198,4.856-5.476,6.622C66.608,79.643,66.392,79.717,66.17,79.717z M43.816,77.717h22.006
							c1.493-1.206,2.793-2.665,3.824-4.286h-5.347c0.011,0.439,0.036,0.915,0.062,1.412l0.02,0.388
							c0.014,0.273-0.085,0.541-0.273,0.739c-0.189,0.199-0.451,0.311-0.725,0.311H46.256c-0.274,0-0.536-0.112-0.725-0.311
							c-0.188-0.198-0.288-0.466-0.273-0.739l0.02-0.388c0.026-0.497,0.051-0.973,0.062-1.412h-5.347
							C41.023,75.052,42.323,76.511,43.816,77.717z"/>
					</g>
				</g>
			</g>
		</g>
		<g>
			<g>
				<g>
					<path class="st5" d="M78.261,40.993h-4.874c-0.552,0-1-0.447-1-1v-9.162c0-0.553,0.448-1,1-1h4.874c0.552,0,1,0.447,1,1v9.162
						C79.261,40.546,78.813,40.993,78.261,40.993z M74.387,38.993h2.874v-7.162h-2.874V38.993z"/>
				</g>
			</g>
			<g>
				<g>
					<path class="st5" d="M88.008,40.993h-4.874c-0.552,0-1-0.447-1-1v-14.18c0-0.553,0.448-1,1-1h4.874c0.552,0,1,0.447,1,1v14.18
						C89.008,40.546,88.561,40.993,88.008,40.993z M84.135,38.993h2.874v-12.18h-2.874V38.993z"/>
				</g>
			</g>
			<g>
				<g>
					<path class="st5" d="M97.756,40.993h-4.874c-0.552,0-1-0.447-1-1v-18.76c0-0.553,0.448-1,1-1h4.874c0.552,0,1,0.447,1,1v18.76
						C98.756,40.546,98.308,40.993,97.756,40.993z M93.882,38.993h2.874V22.233h-2.874V38.993z"/>
				</g>
			</g>
			<g>
				<g>
					<path class="st5" d="M107.503,40.993h-4.874c-0.552,0-1-0.447-1-1V16.651c0-0.553,0.448-1,1-1h4.874c0.552,0,1,0.447,1,1
						v23.342C108.503,40.546,108.055,40.993,107.503,40.993z M103.629,38.993h2.874V17.651h-2.874V38.993z"/>
				</g>
			</g>
		</g>
		<g>
			<g>
				<path class="st5" d="M94.964,70.453c-3.552,0-6.442-2.895-6.442-6.453c0-3.558,2.89-6.453,6.442-6.453s6.442,2.895,6.442,6.453
					C101.406,67.558,98.516,70.453,94.964,70.453z M94.964,59.546c-2.449,0-4.442,1.998-4.442,4.454
					c0,2.456,1.993,4.454,4.442,4.454s4.442-1.998,4.442-4.454C99.406,61.544,97.413,59.546,94.964,59.546z"/>
			</g>
		</g>
	</g>
</g>
</svg>
