<?xml version="1.0" encoding="utf-8"?>
<!-- Generator: Adobe Illustrator 22.0.0, SVG Export Plug-In . SVG Version: 6.00 Build 0)  -->
<svg version="1.1" id="MARKET_RESEARCH_ICON_SET" xmlns="http://www.w3.org/2000/svg" xmlns:xlink="http://www.w3.org/1999/xlink"
	 x="0px" y="0px" viewBox="0 0 128 128" style="enable-background:new 0 0 128 128;" xml:space="preserve">
<style type="text/css">
	.st0{fill:#C2D5EC;}
	.st1{fill:#61E1FF;}
	.st2{fill:#7184AF;}
	.st3{fill:#F8F8F8;}
	.st4{fill:#3F4D81;}
	.st5{fill:#3F4D80;}
	.st6{fill:#E9EAEB;}
	.st7{fill:#F79559;}
	.st8{fill:#FFA85A;}
</style>
<g>
	<g>
		<g>
			<path class="st0" d="M77.613,29.588c0.421,1.343,0.657,2.767,0.657,4.248c0,0.505-0.028,1.004-0.08,1.496
				c1.776,0.45,3.095,2.042,3.095,3.954c0,2.261-1.836,4.094-4.101,4.094c-0.768,0-1.478-0.224-2.093-0.591
				c-2.616,3.225-6.61,5.29-11.091,5.29s-8.475-2.065-11.091-5.29c-0.615,0.367-1.325,0.591-2.093,0.591
				c-2.265,0-4.101-1.833-4.101-4.094c0-1.912,1.319-3.505,3.095-3.954c-0.051-0.492-0.08-0.991-0.08-1.496
				c0-1.482,0.236-2.906,0.657-4.248C22.14,35.801,1,60.92,1,90.981v15.34h12.241c0.091-1.783,0.194-3.463,0.194-4.916
				c0-8.054,9.719-11.683,9.719-11.683l0,0l4.362-2.151v-3.722c0.009,0.004,0.019,0.007,0.028,0.011
				c-2.867-1.296-5.041-3.833-5.848-6.926l0,0c-0.042-0.005-0.079-0.007-0.123-0.014c-2.15-0.325-3.071-1.856-3.071-3.545v-2.068
				c0-2.06,2.054-2.06,2.054-2.06c0.116,0,0.228,0.011,0.338,0.026v-2.397c0-6.057,4.919-10.967,10.988-10.967h0
				c6.068,0,10.988,4.91,10.988,10.967v2.397c0.11-0.016,0.222-0.026,0.338-0.026c0,0,2.054,0,2.054,2.06v2.068
				c0,1.688-0.921,3.22-3.071,3.545c-0.045,0.007-0.081,0.009-0.123,0.014l0,0c-0.805,3.091-2.977,5.625-5.839,6.922
				c0.006-0.003,0.012-0.004,0.018-0.007v3.722l4.363,2.152l0-0.001c0,0,7.793,2.914,9.419,9.311
				c2.55-2.125,5.241-3.132,5.241-3.132l0,0.001l4.364-2.152v-3.722c0.006,0.003,0.012,0.004,0.018,0.007
				c-2.862-1.297-5.033-3.831-5.839-6.922v0c-0.042-0.005-0.079-0.007-0.123-0.014c-2.15-0.325-3.071-1.856-3.071-3.545v-2.068
				c0-2.06,2.054-2.06,2.054-2.06c0.116,0,0.228,0.011,0.338,0.026v-5.225c0-4.495,3.651-8.139,8.154-8.139h5.666
				c2.828,0,3.726,2.218,3.726,2.218s4.429-2.218,4.429,5.922v5.224c0.11-0.016,0.222-0.026,0.338-0.026c0,0,2.054,0,2.054,2.06
				v2.068c0,1.688-0.921,3.22-3.071,3.545c-0.044,0.007-0.081,0.009-0.123,0.014v0c-0.806,3.093-2.981,5.63-5.847,6.926
				c0.009-0.004,0.018-0.007,0.027-0.011v3.722l4.362,2.151h0c0,0,2.691,1.006,5.241,3.132c0.78-3.068,2.977-5.326,5.054-6.855
				c-0.096,0.071-0.19,0.133-0.287,0.207h-0.001c7.516-7.502-11.883-17.451,4.599-33.903l0,0c1.488-1.584,3.603-2.573,5.949-2.573
				h5.665c2.347,0,4.462,0.989,5.949,2.573v0c16.482,16.451-2.916,26.401,4.6,33.903c0,0,0,0-0.001,0
				c2.497,1.91,5.068,4.878,5.068,9.021c0,1.453,0.103,3.133,0.194,4.916H127v-15.34C127,60.92,105.86,35.801,77.613,29.588z"/>
		</g>
		<g>
			<path class="st5" d="M81.285,43.28c0-0.732-0.196-1.416-0.535-2.008c-0.701,1.252-2.027,2.109-3.566,2.109
				c-0.768,0-1.478-0.224-2.093-0.591c-2.616,3.225-6.61,5.29-11.091,5.29s-8.475-2.065-11.091-5.29
				c-0.615,0.367-1.325,0.591-2.093,0.591c-1.54,0-2.865-0.857-3.566-2.109c-0.339,0.592-0.535,1.276-0.535,2.008
				c0,2.261,1.836,4.094,4.101,4.094c0.768,0,1.478-0.224,2.093-0.591c2.616,3.225,6.61,5.29,11.091,5.29s8.475-2.065,11.091-5.29
				c0.615,0.367,1.325,0.591,2.093,0.591C79.449,47.373,81.285,45.54,81.285,43.28z"/>
		</g>
		<g>
			<g>
				<path class="st5" d="M64,53.072c-4.356,0-8.449-1.832-11.348-5.053c-0.59,0.232-1.212,0.354-1.835,0.354
					c-2.813,0-5.101-2.285-5.101-5.094c0-0.876,0.23-1.741,0.667-2.504c0.178-0.312,0.509-0.504,0.868-0.504
					c0.001,0,0.003,0,0.004,0c0.36,0.002,0.692,0.197,0.868,0.512c0.824,1.472,2.757,2.052,4.275,1.147
					c0.426-0.253,0.976-0.155,1.288,0.229c2.537,3.126,6.296,4.919,10.314,4.919s7.778-1.793,10.314-4.919
					c0.312-0.386,0.861-0.483,1.288-0.229c1.516,0.905,3.449,0.324,4.275-1.147c0.176-0.314,0.507-0.51,0.867-0.512
					c0.343-0.031,0.693,0.189,0.873,0.503c0.437,0.763,0.667,1.629,0.667,2.505c0,2.809-2.288,5.094-5.102,5.094
					c-0.623,0-1.246-0.121-1.836-0.354C72.448,51.24,68.356,53.072,64,53.072z M52.909,45.782c0.293,0,0.581,0.129,0.777,0.37
					c2.537,3.127,6.296,4.92,10.314,4.92c4.018,0,7.777-1.793,10.314-4.92c0.312-0.386,0.862-0.485,1.289-0.229
					c0.499,0.298,1.03,0.449,1.58,0.449c1.698,0,3.083-1.369,3.102-3.059c-1.358,1.052-3.27,1.369-4.937,0.713
					c-2.899,3.22-6.991,5.052-11.349,5.052s-8.449-1.831-11.349-5.052c-1.668,0.657-3.579,0.34-4.936-0.713
					c0.019,1.689,1.403,3.059,3.101,3.059c0.549,0,1.081-0.151,1.58-0.449C52.556,45.828,52.733,45.782,52.909,45.782z"/>
			</g>
		</g>
		<g>
			<g>
				<g>
					<g>
						<path class="st6" d="M91.753,83.849v3.722l4.366,11.45l4.366-11.45v-3.722c-1.332,0.607-2.807,0.953-4.366,0.953
							C94.559,84.802,93.084,84.456,91.753,83.849z"/>
					</g>
				</g>
				<g>
					<g>
						<path class="st1" d="M82.361,106.321h32.398c-0.091-1.783-0.194-3.463-0.194-4.916c0-8.054-9.719-11.683-9.719-11.683l0,0
							l-4.362-2.151l-4.366,11.45l-4.366-11.45l-4.363,2.152l0-0.001c0,0-7.793,2.914-9.419,9.311
							C80.004,100.728,81.944,103.139,82.361,106.321z"/>
					</g>
				</g>
				<g>
					<g>
						<g>
							<path class="st3" d="M88.378,93.674c1.175-0.64,2.011-0.957,2.011-0.957l0,0.001l2.799-1.38l-1.436-3.766l-4.363,2.152
								l0-0.001c0,0-7.793,2.914-9.419,9.311c0.719,0.599,1.423,1.293,2.056,2.074C82.055,96.712,86.898,94.317,88.378,93.674z"/>
						</g>
					</g>
					<g>
						<g>
							<path class="st3" d="M82.31,106.06c0.014,0.089,0.039,0.171,0.051,0.261c0,0-0.002-0.072-0.008-0.188
								C82.338,106.109,82.325,106.084,82.31,106.06z"/>
						</g>
					</g>
				</g>
				<g>
					<g>
						<path class="st3" d="M106.655,73.102c-6.885,0-6.631-9.324-6.631-9.324s-3.905,9.324-14.443,9.324l0,0v1.182
							c0,5.809,4.718,10.517,10.537,10.517c5.82,0,10.537-4.709,10.537-10.517L106.655,73.102L106.655,73.102L106.655,73.102z"/>
					</g>
				</g>
				<g>
					<g>
						<path class="st6" d="M107.444,69.247c-0.116,0-0.228,0.011-0.338,0.026v0.574h-0.016c0,1.127-0.142,2.221-0.435,3.254h0v1.182
							c0,0.917-0.13,1.802-0.351,2.651c0.042-0.005,0.079-0.007,0.123-0.014c2.15-0.325,3.071-1.856,3.071-3.545v-2.068
							C109.498,69.247,107.444,69.247,107.444,69.247z"/>
					</g>
				</g>
				<g>
					<g>
						<path class="st6" d="M84.791,69.247c0.116,0,0.228,0.011,0.338,0.026v0.574h0.016c0,1.127,0.142,2.221,0.435,3.254h0v1.182
							c0,0.917,0.13,1.802,0.351,2.651c-0.042-0.005-0.079-0.007-0.123-0.014c-2.15-0.325-3.071-1.856-3.071-3.545v-2.068
							C82.737,69.247,84.791,69.247,84.791,69.247z"/>
					</g>
				</g>
				<g>
					<g>
						<path class="st5" d="M82.736,92.385L82.736,92.385c2.359-1.804,4.653-2.663,4.653-2.663l0,0.001l4.363-2.152v-3.722
							c0.006,0.003,0.012,0.004,0.018,0.007c-2.863-1.297-5.034-3.832-5.839-6.922v0c-0.042-0.005-0.079-0.007-0.123-0.014
							c-2.15-0.325-3.071-1.856-3.071-3.545v-2.068c0-2.06,2.054-2.06,2.054-2.06c0.116,0,0.228,0.011,0.338,0.026v0.574h0.016
							c0,1.127,0.142,2.221,0.435,3.254c10.538,0,14.443-9.324,14.443-9.324s-0.254,9.324,6.631,9.324l0,0v0
							c0.293-1.033,0.434-2.126,0.435-3.254h0.016v-0.574c0.11-0.016,0.222-0.026,0.338-0.026c0,0,2.054,0,2.054,2.06v2.068
							c0,1.688-0.921,3.22-3.071,3.545c-0.045,0.007-0.081,0.009-0.123,0.014v0c-0.806,3.094-2.981,5.63-5.847,6.926
							c0.009-0.004,0.019-0.007,0.028-0.011v3.722l4.362,2.151l0,0c0,0,2.293,0.859,4.652,2.663
							c-7.516-7.502,11.882-17.452-4.6-33.903v0c-1.488-1.584-3.603-2.573-5.949-2.573h-5.665c-2.347,0-4.462,0.989-5.949,2.573l0,0
							C70.853,74.933,90.252,84.883,82.736,92.385z"/>
					</g>
				</g>
			</g>
			<g>
				<g>
					<g>
						<path class="st6" d="M36.247,83.849v3.722l-4.366,8.262l-4.366-8.262v-3.722c1.332,0.607,2.807,0.953,4.366,0.953
							C33.441,84.802,34.916,84.456,36.247,83.849z"/>
					</g>
				</g>
				<g>
					<g>
						<path class="st3" d="M24.381,67.366c0-1.982,1.61-3.589,3.596-3.589h7.812c1.986,0,3.596,1.607,3.596,3.589
							c0,5.735,3.035,5.735,3.035,5.735v1.182c0,5.809-4.718,10.517-10.537,10.517c-5.82,0-10.537-4.709-10.537-10.517v-1.182
							C21.345,73.102,24.381,73.102,24.381,67.366z"/>
					</g>
				</g>
				<g>
					<g>
						<path class="st8" d="M31.882,55.909c6.068,0,10.988,4.91,10.988,10.967v2.971h-0.016c0,1.127-0.142,2.221-0.435,3.254
							c0,0-3.02,0-3.035-5.691c-0.005-1.997-1.595-3.633-3.596-3.633h-7.812c-2.001,0-3.59,1.637-3.596,3.633
							c-0.016,5.691-3.035,5.691-3.035,5.691c-0.293-1.033-0.434-2.126-0.435-3.254h-0.016v-2.971
							C20.894,60.819,25.814,55.909,31.882,55.909L31.882,55.909z"/>
					</g>
				</g>
				<g>
					<g>
						<path class="st3" d="M20.556,69.247c0.116,0,0.228,0.011,0.338,0.026v0.574h0.016c0,1.127,0.142,2.221,0.435,3.254h0v1.182
							c0,0.917,0.13,1.802,0.351,2.651c-0.042-0.005-0.079-0.007-0.123-0.014c-2.15-0.325-3.071-1.856-3.071-3.545v-2.068
							C18.502,69.247,20.556,69.247,20.556,69.247z"/>
					</g>
				</g>
				<g>
					<g>
						<path class="st3" d="M43.209,69.247c-0.116,0-0.228,0.011-0.338,0.026v0.574h-0.016c0,1.127-0.142,2.221-0.435,3.254h0v1.182
							c0,0.917-0.13,1.802-0.351,2.651c0.042-0.005,0.079-0.007,0.123-0.014c2.15-0.325,3.071-1.856,3.071-3.545v-2.068
							C45.263,69.247,43.209,69.247,43.209,69.247z"/>
					</g>
				</g>
				<g>
					<g>
						<path class="st2" d="M50.031,99.033c-1.626-6.396-9.419-9.311-9.419-9.311l0,0.001l-4.363-2.152l-4.366,8.262l-4.366-8.262
							l-4.362,2.151l0,0c0,0-9.719,3.629-9.719,11.683c0,1.453-0.103,3.133-0.194,4.916h32.398
							C46.056,103.139,47.996,100.728,50.031,99.033z"/>
					</g>
				</g>
				<g>
					<g>
						<path class="st3" d="M16.435,104.4c0-8.055,9.719-11.683,9.719-11.683l0,0.001l3.239-1.597l-1.875-3.549l-4.363,2.152l0-0.001
							c0,0-9.719,3.628-9.719,11.683c0,1.453-0.103,3.133-0.194,4.916h3.147C16.415,105.65,16.435,105.001,16.435,104.4z"/>
					</g>
				</g>
				<g>
					<g>
						<path class="st3" d="M48.552,110.578c0-8.055,9.719-11.683,9.719-11.683l0,0.001l3.239-1.597l-1.875-3.549l-4.363,2.152
							l0-0.001c0,0-9.719,3.628-9.719,11.683c0,1.453-0.103,3.133-0.194,4.916h3.147C48.532,111.829,48.552,111.18,48.552,110.578z"
							/>
					</g>
				</g>
			</g>
			<g>
				<g>
					<g>
						<path class="st6" d="M59.635,90.028v3.722l4.366,8.262l4.366-8.262v-3.722c-1.332,0.607-2.807,0.953-4.366,0.953
							C62.442,90.981,60.967,90.634,59.635,90.028z"/>
					</g>
				</g>
				<g>
					<g>
						<path class="st8" d="M82.448,107.584c0-8.055-9.719-11.683-9.719-11.683l0,0l-4.362-2.151l-4.366,8.262l0.001,0.001
							L64,102.015l-0.001-0.001l0.002-0.002l-4.366-8.262l-4.363,2.152l0-0.001c0,0-9.719,3.629-9.719,11.683
							c0,1.453-0.103,3.133-0.194,4.916h37.284C82.551,110.717,82.448,109.037,82.448,107.584z"/>
					</g>
				</g>
				<g>
					<g>
						<path class="st3" d="M48.552,110.578c0-8.055,9.719-11.683,9.719-11.683l0,0.001l3.239-1.597l-1.875-3.549l-4.363,2.152
							l0-0.001c0,0-9.719,3.628-9.719,11.683c0,1.453-0.103,3.133-0.194,4.916h3.147C48.532,111.829,48.552,111.18,48.552,110.578z"
							/>
					</g>
				</g>
				<g>
					<g>
						<path class="st5" d="M56.498,73.545c0-1.982,1.61-3.589,3.596-3.589h7.812c1.986,0,3.596,1.607,3.596,3.589
							c0,5.735,3.486,1.907,3.486,1.907v-5.224c0-8.14-4.429-5.923-4.429-5.923s-0.899-2.218-3.726-2.218h-5.666
							c-4.503,0-8.154,3.644-8.154,8.139v5.225l0,0C53.012,75.452,56.498,79.28,56.498,73.545z"/>
					</g>
				</g>
				<g>
					<g>
						<path class="st3" d="M75.326,75.426c-0.116,0-0.228,0.011-0.338,0.026c0,0-3.486,3.828-3.486-1.907
							c0-1.982-1.61-3.589-3.596-3.589h-7.812c-1.986,0-3.596,1.607-3.596,3.589c0,5.735-3.486,1.907-3.486,1.907l0,0v0
							c-0.11-0.016-0.222-0.026-0.338-0.026c0,0-2.054,0-2.054,2.06v2.068c0,1.688,0.921,3.22,3.071,3.545
							c0.045,0.007,0.081,0.009,0.123,0.014C54.993,87.636,59.1,90.979,64,90.979c4.9,0,9.007-3.344,10.186-7.867
							c0.042-0.005,0.079-0.007,0.123-0.014c2.15-0.325,3.071-1.856,3.071-3.545v-2.068C77.381,75.426,75.326,75.426,75.326,75.426z
							"/>
					</g>
				</g>
			</g>
			<g>
				<g>
					<ellipse class="st3" cx="71.681" cy="106.321" rx="2.032" ry="2.028"/>
				</g>
			</g>
			<g>
				<g>
					<rect x="37.532" y="98.115" class="st3" width="4.063" height="4.056"/>
				</g>
			</g>
			<g>
				<g>
					<polygon class="st3" points="103.799,97.275 101.767,102.17 105.83,102.17 					"/>
				</g>
			</g>
		</g>
		<g>
			<g>
				<g>
					<path class="st1" d="M73.082,39.287c0-2.261,1.836-4.093,4.101-4.093c0.349,0,0.683,0.057,1.006,0.139
						c0.051-0.492,0.08-0.991,0.08-1.496c0-6.464-4.317-11.914-10.228-13.655c-0.288,1.979-1.979,3.505-4.042,3.505
						c-2.063,0-3.754-1.525-4.042-3.505c-5.911,1.741-10.228,7.191-10.228,13.655c0,0.506,0.028,1.004,0.08,1.496
						c0.324-0.082,0.657-0.139,1.006-0.139c2.265,0,4.101,1.833,4.101,4.093c0,1.494-0.811,2.788-2.009,3.503
						c2.616,3.225,6.61,5.29,11.091,5.29s8.475-2.065,11.091-5.29C73.893,42.075,73.082,40.781,73.082,39.287z"/>
				</g>
			</g>
			<g>
				<g>
					<ellipse class="st8" cx="64" cy="19.593" rx="4.101" ry="4.093"/>
				</g>
			</g>
			<g>
				<g>
					<ellipse class="st8" cx="50.816" cy="39.287" rx="4.101" ry="4.093"/>
				</g>
			</g>
			<g>
				<g>
					<ellipse class="st8" cx="77.184" cy="39.287" rx="4.101" ry="4.093"/>
				</g>
			</g>
		</g>
	</g>
	<g>
		<g>
			<g>
				<g>
					<g>
						<path class="st5" d="M96.118,100.021L96.118,100.021c-0.415,0-0.786-0.256-0.935-0.644l-4.365-11.449
							c-0.043-0.114-0.065-0.234-0.065-0.356v-3.723c0-0.34,0.173-0.657,0.459-0.841c0.286-0.185,0.646-0.211,0.956-0.069
							c2.515,1.146,5.382,1.147,7.902,0c0.311-0.142,0.67-0.114,0.955,0.069c0.286,0.184,0.459,0.501,0.459,0.841v3.723
							c0,0.122-0.022,0.242-0.065,0.356l-4.366,11.449C96.904,99.765,96.533,100.021,96.118,100.021z M92.753,87.387l3.365,8.827
							l3.366-8.827v-2.09c-2.184,0.672-4.55,0.672-6.731,0V87.387z"/>
					</g>
				</g>
				<g>
					<g>
						<path class="st5" d="M114.76,107.321H82.361c-0.502,0-0.927-0.372-0.991-0.87c-0.32-2.444-1.68-4.683-4.041-6.651
							c-0.296-0.246-0.424-0.641-0.328-1.014c1.734-6.824,9.699-9.875,10.037-10.001l4.272-2.111
							c0.254-0.124,0.548-0.135,0.808-0.033c0.263,0.103,0.469,0.312,0.569,0.574l3.431,8.999l3.432-8.999
							c0.101-0.263,0.307-0.472,0.569-0.574c0.261-0.102,0.555-0.092,0.808,0.034l4.362,2.151l-0.005,0.011
							c0.952,0.339,3.125,1.411,5.042,2.922c3.428,2.7,5.239,6.036,5.239,9.646c0,1.206,0.073,2.592,0.15,4.06l0.043,0.805
							c0.014,0.274-0.085,0.542-0.274,0.74C115.296,107.209,115.034,107.321,114.76,107.321z M83.202,105.321h30.504
							c-0.074-1.402-0.141-2.728-0.141-3.916c0-7.254-8.979-10.713-9.069-10.747l-3.469-1.705l-3.975,10.424
							c-0.148,0.388-0.52,0.644-0.935,0.644l0,0c-0.415,0-0.786-0.256-0.935-0.644L91.21,88.954l-3.379,1.665
							c-0.032,0.017-0.065,0.03-0.099,0.043c-0.167,0.063-6.843,2.652-8.623,8.033C81.304,100.664,82.677,102.888,83.202,105.321z"
							/>
					</g>
				</g>
				<g>
					<g>
						<path class="st5" d="M96.117,85.801c-6.361,0-11.537-5.167-11.537-11.518v-1.182c0-0.553,0.447-1,1-1
							c9.76,0,13.484-8.623,13.521-8.711c0.186-0.443,0.662-0.689,1.132-0.591c0.471,0.101,0.803,0.522,0.791,1.004
							c-0.002,0.045-0.087,4.598,2.195,6.938c0.894,0.915,2.017,1.36,3.436,1.36c0.553,0,1,0.447,1,1v1.182
							C107.654,80.634,102.479,85.801,96.117,85.801z M86.58,74.074v0.209c0,5.248,4.278,9.518,9.537,9.518s9.537-4.27,9.537-9.518
							v-0.242c-1.524-0.191-2.823-0.831-3.873-1.909c-1.439-1.479-2.131-3.528-2.461-5.229
							C97.297,69.706,93.265,73.707,86.58,74.074z"/>
					</g>
				</g>
				<g>
					<g>
						<path class="st5" d="M106.347,77.929c-0.295,0-0.592-0.125-0.782-0.35c-0.212-0.249-0.311-0.583-0.229-0.898
							c0.211-0.807,0.318-1.613,0.318-2.397v-1.182c0-0.093,0.013-0.185,0.038-0.273c0.263-0.924,0.396-1.927,0.397-2.981
							c0-0.06,0.006-0.119,0.016-0.176v-0.397c0-0.498,0.366-0.92,0.859-0.99c0.156-0.022,0.315-0.036,0.479-0.036
							c1.228,0,3.054,0.815,3.054,3.061v2.068c0,2.431-1.503,4.168-3.922,4.533c-0.019,0.002-0.115,0.014-0.133,0.016
							C106.411,77.928,106.379,77.929,106.347,77.929z M107.654,73.238v1.045c0,0.368-0.02,0.74-0.058,1.113
							c0.763-0.577,0.901-1.444,0.901-2.021v-2.068c0-0.487-0.19-0.753-0.42-0.896C108.039,71.396,107.896,72.345,107.654,73.238z
							 M107.105,69.848h0.01H107.105z"/>
					</g>
				</g>
				<g>
					<g>
						<path class="st5" d="M85.932,77.934c-0.038,0-0.077-0.002-0.115-0.007l-0.159-0.019c-2.417-0.364-3.92-2.102-3.92-4.532
							v-2.068c0-2.245,1.826-3.061,3.054-3.061c0.164,0,0.323,0.014,0.479,0.036c0.493,0.07,0.859,0.492,0.859,0.99v0.4
							c0.01,0.056,0.016,0.114,0.016,0.173c0.001,1.054,0.135,2.057,0.396,2.982c0.025,0.089,0.038,0.181,0.038,0.272v1.182
							c0,0.781,0.107,1.588,0.319,2.397c0.083,0.319,0.004,0.659-0.213,0.909C86.495,77.81,86.22,77.934,85.932,77.934z
							 M84.157,70.413c-0.242,0.149-0.42,0.421-0.42,0.895v2.068c0,0.584,0.143,1.469,0.902,2.042
							c-0.039-0.381-0.06-0.76-0.06-1.135v-1.046C84.339,72.345,84.197,71.397,84.157,70.413z"/>
					</g>
				</g>
				<g>
					<g>
						<path class="st5" d="M109.498,93.385c-0.213,0-0.427-0.067-0.607-0.206c-2.215-1.693-4.373-2.513-4.395-2.521l-4.454-2.19
							c-0.342-0.168-0.558-0.516-0.558-0.896v-3.474c-0.108-0.444,0.1-0.919,0.524-1.132c0.011-0.005,0.022-0.011,0.035-0.017l0,0
							c2.636-1.192,4.564-3.477,5.292-6.268c0.104-0.399,0.442-0.693,0.853-0.741c2.021-0.301,2.31-1.735,2.31-2.564v-2.068
							c0-0.487-0.19-0.753-0.42-0.896c-0.042,1.033-0.196,2.027-0.462,2.963c-0.122,0.431-0.515,0.728-0.962,0.728
							c-1.961,0-3.601-0.663-4.873-1.97c-1.439-1.479-2.131-3.528-2.461-5.229c-2.123,2.941-6.454,7.199-13.74,7.199
							c-0.447,0-0.84-0.297-0.962-0.728c-0.265-0.934-0.419-1.927-0.461-2.962c-0.241,0.149-0.42,0.42-0.42,0.896v2.068
							c0,0.829,0.288,2.264,2.22,2.555c0.409,0.048,0.839,0.352,0.942,0.751c0.726,2.787,2.651,5.07,5.284,6.264v0.001
							c0.005,0.002,0.011,0.005,0.017,0.008c0.39,0.195,0.604,0.613,0.553,1.025v3.592c0,0.381-0.216,0.729-0.558,0.896
							l-4.364,2.151c-0.033,0.017-0.067,0.031-0.102,0.044c-0.097,0.036-2.205,0.85-4.386,2.517
							c-0.417,0.319-1.014,0.261-1.36-0.137c-0.347-0.396-0.327-0.994,0.046-1.366c2.446-2.441,1.587-5.053-0.143-9.457
							c-2.347-5.977-5.561-14.162,4.742-24.445c1.701-1.812,4.135-2.865,6.655-2.865h5.665c2.52,0,4.954,1.053,6.678,2.888
							c10.28,10.261,7.066,18.446,4.72,24.423c-1.729,4.404-2.589,7.016-0.143,9.457c0.373,0.372,0.394,0.97,0.047,1.366
							C110.054,93.269,109.776,93.385,109.498,93.385z M105.272,88.86c0.443,0.126,0.98,0.37,1.534,0.662
							c-0.483-2.528,0.577-5.229,1.679-8.033c2.382-6.066,5.081-12.942-4.293-22.299c-1.39-1.479-3.244-2.281-5.243-2.281h-5.665
							c-1.999,0-3.853,0.802-5.221,2.257c-9.396,9.381-6.697,16.257-4.314,22.323c1.101,2.803,2.16,5.502,1.679,8.029
							c0.929-0.476,1.56-0.715,1.61-0.733l3.715-1.835v-2.479c-2.684-1.407-4.686-3.786-5.608-6.664
							c-2.115-0.521-3.407-2.178-3.407-4.432v-2.068c0-2.245,1.826-3.061,3.054-3.061c0.164,0,0.323,0.014,0.479,0.036
							c0.493,0.07,0.859,0.492,0.859,0.99v0.4c0.01,0.056,0.016,0.114,0.016,0.173c0.001,0.776,0.073,1.525,0.217,2.236
							c9.177-0.443,12.703-8.607,12.738-8.692c0.186-0.443,0.662-0.689,1.132-0.591c0.471,0.101,0.803,0.522,0.791,1.004
							c-0.002,0.045-0.087,4.598,2.195,6.938c0.724,0.742,1.599,1.175,2.66,1.312c0.14-0.703,0.21-1.442,0.211-2.207
							c0-0.06,0.006-0.119,0.016-0.176v-0.397c0-0.498,0.366-0.92,0.859-0.99c0.156-0.022,0.315-0.036,0.479-0.036
							c1.228,0,3.054,0.815,3.054,3.061v2.068c0,2.254-1.291,3.911-3.407,4.432c-0.924,2.878-2.925,5.256-5.606,6.663v2.479
							l3.805,1.877L105.272,88.86z"/>
					</g>
				</g>
			</g>
			<g>
				<g>
					<g>
						<path class="st5" d="M31.882,96.834c-0.371,0-0.711-0.205-0.884-0.533l-4.366-8.263c-0.076-0.144-0.116-0.304-0.116-0.467
							v-3.723c0-0.34,0.173-0.657,0.459-0.841c0.287-0.185,0.646-0.208,0.956-0.069c2.511,1.146,5.382,1.147,7.902,0
							c0.31-0.142,0.669-0.115,0.956,0.069c0.286,0.184,0.459,0.501,0.459,0.841v3.723c0,0.163-0.04,0.323-0.116,0.467l-4.366,8.263
							C32.593,96.629,32.252,96.834,31.882,96.834z M28.516,87.323l3.366,6.37l3.366-6.37v-2.026c-2.185,0.672-4.553,0.671-6.732,0
							V87.323z"/>
					</g>
				</g>
				<g>
					<g>
						<path class="st5" d="M31.882,85.801c-6.362,0-11.537-5.167-11.537-11.518v-1.182c0-0.553,0.448-1,1-1
							c0.056-0.005,2.036-0.182,2.036-4.735c0-2.53,2.062-4.589,4.596-4.589h7.812c2.534,0,4.596,2.059,4.596,4.589
							c0,4.554,1.979,4.73,2.064,4.736c0.527,0.033,0.971,0.472,0.971,0.999v1.182C43.419,80.634,38.244,85.801,31.882,85.801z
							 M22.345,73.884v0.399c0,5.248,4.278,9.518,9.537,9.518s9.537-4.27,9.537-9.518v-0.399c-1.197-0.466-3.035-1.929-3.035-6.518
							c0-1.428-1.165-2.589-2.596-2.589h-7.812c-1.431,0-2.596,1.161-2.596,2.589C25.381,71.955,23.542,73.418,22.345,73.884z"/>
					</g>
				</g>
				<g>
					<g>
						<path class="st5" d="M42.42,74.102c-0.164,0-4.018-0.076-4.036-6.688c-0.004-1.454-1.168-2.637-2.596-2.637h-7.812
							c-1.427,0-2.592,1.183-2.596,2.637c-0.018,6.611-3.872,6.688-4.036,6.688c-0.447,0-0.84-0.297-0.962-0.728
							c-0.298-1.049-0.456-2.173-0.471-3.343c-0.012-0.06-0.018-0.121-0.018-0.184v-2.972c0-6.599,5.378-11.967,11.988-11.967
							c6.61,0,11.988,5.368,11.988,11.967v2.972c0,0.063-0.006,0.126-0.018,0.187c-0.016,1.169-0.174,2.292-0.471,3.34
							C43.26,73.805,42.867,74.102,42.42,74.102z M21.895,69.671c0.011,0.058,0.016,0.116,0.016,0.177
							c0,0.658,0.053,1.298,0.156,1.912c0.583-0.478,1.307-1.62,1.314-4.352c0.007-2.554,2.068-4.631,4.596-4.631h7.812
							c2.527,0,4.589,2.077,4.596,4.631c0.007,2.723,0.727,3.866,1.314,4.347c0.103-0.612,0.155-1.25,0.156-1.907
							c0-0.062,0.005-0.122,0.016-0.18v-2.792c0-5.496-4.481-9.967-9.988-9.967s-9.988,4.471-9.988,9.967V69.671z M42.871,69.848
							h0.01H42.871z"/>
					</g>
				</g>
				<g>
					<g>
						<path class="st5" d="M21.696,77.934c-0.038,0-0.077-0.002-0.116-0.007l-0.159-0.019c-2.417-0.364-3.919-2.102-3.919-4.532
							v-2.068c0-2.245,1.827-3.061,3.054-3.061c0.164,0,0.324,0.015,0.479,0.036c0.493,0.07,0.859,0.492,0.859,0.99v0.397
							c0.011,0.058,0.016,0.116,0.016,0.177c0,1.052,0.134,2.055,0.396,2.981c0.025,0.089,0.038,0.181,0.038,0.272v1.182
							c0,0.781,0.107,1.588,0.319,2.397c0.083,0.32,0.003,0.66-0.213,0.909C22.26,77.81,21.984,77.934,21.696,77.934z
							 M19.922,70.413c-0.242,0.149-0.42,0.42-0.42,0.895v2.068c0,0.584,0.143,1.469,0.903,2.042c-0.04-0.381-0.06-0.76-0.06-1.135
							v-1.046C20.104,72.343,19.961,71.396,19.922,70.413z"/>
					</g>
				</g>
				<g>
					<g>
						<path class="st5" d="M42.112,77.929c-0.295,0-0.592-0.125-0.782-0.35c-0.211-0.248-0.311-0.582-0.229-0.898
							c0.211-0.809,0.318-1.615,0.318-2.397v-1.182c0-0.093,0.013-0.185,0.038-0.273c0.263-0.926,0.396-1.929,0.397-2.98
							c0-0.062,0.005-0.121,0.016-0.18v-0.395c0-0.498,0.366-0.92,0.859-0.99c0.155-0.021,0.314-0.036,0.479-0.036
							c1.228,0,3.054,0.815,3.054,3.061v2.068c0,2.431-1.503,4.168-3.922,4.533c-0.018,0.002-0.114,0.014-0.132,0.016
							C42.177,77.928,42.145,77.929,42.112,77.929z M43.419,73.237v1.046c0,0.368-0.019,0.739-0.058,1.113
							c0.762-0.577,0.901-1.444,0.901-2.021v-2.068c0-0.475-0.178-0.745-0.42-0.895C43.804,71.396,43.662,72.344,43.419,73.237z
							 M42.871,69.848h0.01H42.871z"/>
					</g>
				</g>
				<g>
					<g>
						<path class="st5" d="M45.639,107.321H13.241c-0.274,0-0.536-0.112-0.725-0.312c-0.188-0.198-0.288-0.466-0.273-0.739
							l0.043-0.824c0.077-1.461,0.149-2.841,0.149-4.041c0-8.432,9.451-12.267,10.319-12.602l4.319-2.129
							c0.484-0.239,1.073-0.05,1.327,0.43l3.482,6.589l3.481-6.589c0.254-0.479,0.843-0.668,1.327-0.43l4.363,2.151l-0.011,0.021
							c1.571,0.617,8.364,3.674,9.957,9.939c0.095,0.373-0.033,0.768-0.329,1.015c-2.36,1.968-3.72,4.205-4.04,6.65
							C46.565,106.949,46.141,107.321,45.639,107.321z M14.294,105.321h30.504c0.525-2.435,1.898-4.657,4.092-6.626
							c-1.793-5.423-8.559-8.011-8.629-8.037l-3.583-1.761l-3.912,7.403c-0.347,0.656-1.422,0.656-1.769,0l-3.912-7.402l-3.49,1.721
							c-0.032,0.017-0.065,0.03-0.099,0.043c-0.197,0.074-9.063,3.517-9.063,10.743C14.435,102.594,14.368,103.919,14.294,105.321z"
							/>
					</g>
				</g>
			</g>
			<g>
				<g>
					<path class="st5" d="M71.682,109.349c-1.672,0-3.032-1.358-3.032-3.027c0-1.67,1.36-3.028,3.032-3.028s3.031,1.358,3.031,3.028
						C74.713,107.99,73.354,109.349,71.682,109.349z M71.682,105.293c-0.569,0-1.032,0.461-1.032,1.028
						c0,0.566,0.463,1.027,1.032,1.027c0.568,0,1.031-0.461,1.031-1.027C72.713,105.754,72.25,105.293,71.682,105.293z"/>
				</g>
			</g>
			<g>
				<g>
					<path class="st5" d="M41.595,103.17h-4.063c-0.552,0-1-0.447-1-1v-4.056c0-0.553,0.448-1,1-1h4.063c0.552,0,1,0.447,1,1v4.056
						C42.595,102.723,42.147,103.17,41.595,103.17z M38.532,101.17h2.063v-2.056h-2.063V101.17z"/>
				</g>
			</g>
			<g>
				<g>
					<path class="st5" d="M105.83,103.17h-4.063c-0.334,0-0.646-0.167-0.832-0.444c-0.186-0.278-0.22-0.631-0.092-0.939l2.032-4.896
						c0.155-0.373,0.52-0.616,0.924-0.616l0,0c0.404,0,0.769,0.243,0.924,0.617l2.031,4.896c0.128,0.309,0.094,0.66-0.092,0.938
						C106.477,103.003,106.164,103.17,105.83,103.17z M103.265,101.17h1.067l-0.533-1.287L103.265,101.17z"/>
				</g>
			</g>
			<g>
				<g>
					<g>
						<path class="st5" d="M64.001,103.013c-0.371,0-0.711-0.205-0.884-0.533l-4.366-8.263c-0.076-0.144-0.116-0.304-0.116-0.467
							v-3.723c0-0.34,0.173-0.657,0.459-0.841c0.287-0.184,0.646-0.208,0.956-0.069c2.513,1.146,5.386,1.147,7.901,0.001
							c0.312-0.142,0.671-0.114,0.956,0.069c0.286,0.184,0.459,0.501,0.459,0.841v3.722c0,0.163-0.04,0.323-0.116,0.467
							l-4.365,8.263C64.712,102.808,64.372,103.013,64.001,103.013z M60.635,93.502l3.366,6.37l3.365-6.37v-2.025
							c-2.182,0.67-4.55,0.671-6.731-0.001V93.502z"/>
					</g>
				</g>
				<g>
					<g>
						<path class="st5" d="M82.642,113.5H45.358c-0.274,0-0.536-0.112-0.725-0.312c-0.188-0.198-0.288-0.466-0.273-0.739
							l0.044-0.843c0.077-1.453,0.149-2.826,0.149-4.022c0-8.432,9.451-12.267,10.319-12.601l4.321-2.13
							c0.484-0.24,1.073-0.05,1.327,0.43l3.482,6.59l3.479-6.59c0.254-0.479,0.839-0.672,1.327-0.43l4.319,2.13
							c0.87,0.335,10.32,4.17,10.32,12.601c0,1.195,0.072,2.568,0.148,4.021l0.044,0.845c0.014,0.273-0.085,0.541-0.274,0.739
							C83.178,113.388,82.916,113.5,82.642,113.5z M46.412,111.5h35.176c-0.073-1.402-0.14-2.727-0.14-3.916
							c0-7.254-8.979-10.712-9.07-10.746l-3.581-1.762l-3.91,7.404c-0.346,0.655-1.422,0.656-1.769,0l-3.913-7.403l-3.492,1.721
							c-0.03,0.015-0.062,0.029-0.093,0.04c-0.091,0.034-9.069,3.489-9.069,10.746C46.552,108.773,46.485,110.098,46.412,111.5z"/>
					</g>
				</g>
				<g>
					<g>
						<path class="st5" d="M64,91.979c-5.028,0-9.451-3.256-10.973-7.992c-2.116-0.521-3.408-2.179-3.408-4.433v-2.068
							c0-1.866,1.262-2.744,2.393-2.988v-4.271c0-5.039,4.106-9.139,9.154-9.139h5.666c2.282,0,3.558,1.185,4.175,2.025
							c0.751-0.151,1.724-0.135,2.616,0.417c1.569,0.97,2.365,3.223,2.365,6.698v4.271c1.131,0.243,2.393,1.121,2.393,2.987v2.068
							c0,2.253-1.291,3.911-3.407,4.432C73.452,88.725,69.028,91.979,64,91.979z M52.674,76.426
							c-0.475,0.012-1.055,0.206-1.055,1.061v2.068c0,0.829,0.289,2.264,2.221,2.557c0.41,0.047,0.838,0.351,0.942,0.75
							c1.092,4.191,4.883,7.118,9.218,7.118c4.336,0,8.127-2.927,9.219-7.118c0.104-0.399,0.442-0.693,0.853-0.741
							c2.021-0.302,2.31-1.736,2.31-2.565v-2.068c0-0.853-0.576-1.048-1.062-1.061c-0.065,0.001-0.128,0.008-0.189,0.017
							c-0.285,0.043-0.578-0.045-0.797-0.234c-0.219-0.19-0.345-0.466-0.345-0.756v-5.224c0-3.568-0.88-4.657-1.403-4.989
							c-0.703-0.443-1.578-0.039-1.588-0.035c-0.25,0.12-0.539,0.131-0.797,0.031c-0.256-0.101-0.465-0.299-0.568-0.555
							c-0.024-0.055-0.715-1.593-2.8-1.593h-5.666c-3.945,0-7.154,3.202-7.154,7.139v5.226c0,0.29-0.125,0.565-0.344,0.755
							c-0.218,0.19-0.509,0.279-0.796,0.235C52.807,76.434,52.742,76.426,52.674,76.426z"/>
					</g>
				</g>
				<g>
					<g>
						<path class="st5" d="M72.869,77.704c-0.237,0-0.477-0.04-0.715-0.133c-1.652-0.639-1.652-3.188-1.652-4.026
							c0-1.428-1.164-2.589-2.596-2.589h-7.812c-1.431,0-2.595,1.161-2.595,2.589c0,0.838,0,3.388-1.652,4.026
							c-1.589,0.621-3.255-1.096-3.574-1.446c-0.372-0.408-0.342-1.04,0.066-1.412c0.408-0.372,1.039-0.344,1.411,0.064
							c0.491,0.534,1.165,0.956,1.386,0.926c-0.01-0.004,0.362-0.358,0.362-2.158c0-2.53,2.062-4.589,4.595-4.589h7.812
							c2.534,0,4.596,2.059,4.596,4.589c0,1.83,0.385,2.166,0.389,2.169c0.152,0.042,0.867-0.401,1.36-0.937
							c0.374-0.406,1.005-0.435,1.411-0.062c0.407,0.372,0.437,1.002,0.065,1.409C75.457,76.423,74.212,77.704,72.869,77.704z"/>
					</g>
				</g>
			</g>
		</g>
		<g>
			<g>
				<path class="st5" d="M127,107.321h-12.24c-0.532,0-0.972-0.417-0.999-0.948l-0.042-0.803c-0.079-1.494-0.153-2.906-0.153-4.165
					c0-3.087-1.573-5.854-4.676-8.228c-0.035-0.026-0.068-0.056-0.099-0.086c-3.493-3.486-1.945-7.429-0.307-11.603
					c2.383-6.066,5.083-12.941-4.292-22.299c-1.39-1.479-3.244-2.281-5.243-2.281h-5.665c-1.999,0-3.853,0.802-5.221,2.257
					c-9.396,9.381-6.697,16.257-4.314,22.323c1.551,3.95,3.021,7.694,0.211,11.04c-0.065,0.174-0.18,0.331-0.339,0.45l-0.005,0.004
					c-2.513,1.85-4.086,3.968-4.678,6.295c-0.084,0.333-0.334,0.6-0.66,0.705c-0.327,0.106-0.685,0.037-0.949-0.183
					c-2.378-1.982-4.926-2.953-4.952-2.963l-4.453-2.191c-0.342-0.168-0.558-0.516-0.558-0.896v-3.549
					c-0.078-0.437,0.138-0.883,0.562-1.074c2.635-1.191,4.563-3.476,5.291-6.267c0.104-0.399,0.442-0.693,0.853-0.741
					c2.021-0.301,2.31-1.735,2.31-2.564v-2.068c0-0.854-0.58-1.049-1.066-1.061c-0.056,0-0.121,0.007-0.185,0.017
					c-0.285,0.043-0.578-0.045-0.797-0.234c-0.219-0.19-0.345-0.466-0.345-0.756v-5.224c0-3.586-0.888-4.67-1.416-4.997
					c-0.698-0.429-1.557-0.035-1.566-0.031c-0.247,0.125-0.538,0.14-0.801,0.041c-0.261-0.099-0.469-0.302-0.573-0.561
					c-0.024-0.055-0.715-1.593-2.8-1.593h-5.666c-3.945,0-7.154,3.202-7.154,7.139v5.226c0,0.29-0.125,0.565-0.344,0.755
					c-0.218,0.19-0.509,0.279-0.796,0.235c-0.065-0.009-0.13-0.017-0.198-0.017c-0.475,0.012-1.055,0.206-1.055,1.061v2.068
					c0,0.829,0.289,2.264,2.221,2.557c0.409,0.048,0.837,0.35,0.941,0.749c0.727,2.788,2.653,5.071,5.284,6.263
					c0.426,0.193,0.653,0.649,0.57,1.094v3.533c0,0.381-0.216,0.729-0.558,0.896l-4.364,2.151c-0.031,0.016-0.062,0.029-0.094,0.041
					c-0.055,0.021-2.583,0.989-4.95,2.962c-0.264,0.22-0.623,0.289-0.949,0.183c-0.327-0.105-0.576-0.372-0.661-0.705
					c-1.475-5.801-8.728-8.593-8.801-8.62l-4.454-2.189c-0.342-0.169-0.558-0.517-0.558-0.897v-3.539
					c-0.081-0.441,0.145-0.896,0.57-1.088c2.632-1.192,4.558-3.475,5.284-6.263c0.104-0.398,0.442-0.693,0.851-0.741
					c2.022-0.301,2.311-1.735,2.311-2.564v-2.068c0-0.957-0.737-1.061-1.054-1.061c-0.068,0-0.133,0.007-0.198,0.017
					c-0.285,0.043-0.577-0.045-0.796-0.235c-0.219-0.189-0.345-0.465-0.345-0.755v-2.397c0-5.496-4.481-9.967-9.988-9.967
					s-9.988,4.471-9.988,9.967v2.397c0,0.29-0.125,0.565-0.345,0.755c-0.219,0.19-0.51,0.278-0.796,0.235
					c-0.064-0.01-0.13-0.017-0.198-0.017c-0.475,0.012-1.054,0.206-1.054,1.061v2.068c0,0.829,0.289,2.264,2.22,2.555
					c0.41,0.048,0.838,0.352,0.942,0.751c0.727,2.791,2.656,5.075,5.292,6.268l0,0c0.026,0.012,0.052,0.024,0.074,0.037
					c0.4,0.223,0.59,0.682,0.486,1.109v3.476c0,0.381-0.216,0.729-0.558,0.896l-4.362,2.151c-0.033,0.017-0.065,0.03-0.099,0.043
					c-0.212,0.081-9.062,3.522-9.062,10.743c0,1.253-0.074,2.658-0.152,4.146l-0.043,0.82c-0.027,0.532-0.466,0.949-0.999,0.949H1
					c-0.552,0-1-0.447-1-1v-15.34c0-29.745,21.101-55.976,50.173-62.37c0.349-0.076,0.711,0.038,0.952,0.301
					s0.324,0.635,0.217,0.975c-0.406,1.296-0.612,2.625-0.612,3.95c0,0.453,0.025,0.921,0.075,1.392
					c0.052,0.494-0.268,0.952-0.75,1.074c-1.377,0.349-2.34,1.575-2.34,2.984c0,1.706,1.391,3.094,3.101,3.094
					c0.548,0,1.08-0.151,1.581-0.45c0.427-0.253,0.976-0.156,1.288,0.229c2.537,3.126,6.296,4.919,10.314,4.919
					s7.778-1.793,10.314-4.919c0.312-0.386,0.861-0.483,1.288-0.229c0.501,0.299,1.033,0.45,1.581,0.45
					c1.71,0,3.102-1.388,3.102-3.094c0-1.409-0.962-2.636-2.34-2.984c-0.481-0.122-0.801-0.578-0.75-1.072
					c0.05-0.475,0.074-0.943,0.074-1.394c0-1.326-0.206-2.655-0.611-3.95c-0.106-0.34-0.024-0.712,0.217-0.975
					c0.24-0.263,0.604-0.377,0.952-0.301C106.899,35.006,128,61.236,128,90.981v15.34C128,106.874,127.553,107.321,127,107.321z
					 M115.709,105.321H126v-14.34c0-28.269-19.676-53.261-47.015-60.045c0.189,0.96,0.284,1.93,0.284,2.9
					c0,0.264-0.008,0.533-0.022,0.806c1.824,0.803,3.038,2.608,3.038,4.645c0,2.809-2.288,5.094-5.102,5.094
					c-0.623,0-1.245-0.121-1.835-0.354c-2.899,3.22-6.991,5.052-11.349,5.052s-8.449-1.831-11.349-5.052
					c-0.59,0.232-1.213,0.354-1.835,0.354c-2.812,0-5.101-2.285-5.101-5.094c0-2.036,1.213-3.842,3.037-4.645
					c-0.015-0.271-0.022-0.541-0.022-0.806c0-0.97,0.095-1.94,0.284-2.9C21.676,37.721,2,62.713,2,90.981v14.34h10.292
					c0.075-1.414,0.143-2.75,0.143-3.916c0-8.432,9.451-12.267,10.319-12.602l3.762-1.854v-2.479
					c-2.682-1.406-4.683-3.785-5.606-6.663c-2.115-0.52-3.407-2.177-3.407-4.432v-2.068c0-1.866,1.262-2.744,2.393-2.988v-1.443
					c0-6.599,5.378-11.967,11.988-11.967c6.61,0,11.988,5.368,11.988,11.967v1.443c1.131,0.244,2.393,1.122,2.393,2.988v2.068
					c0,2.254-1.292,3.911-3.407,4.432c-0.923,2.879-2.925,5.257-5.608,6.663v2.479l3.806,1.877l-0.011,0.021
					c1.449,0.569,7.337,3.212,9.495,8.532c2.085-1.49,3.99-2.262,4.333-2.395l3.765-1.856v-2.479
					c-2.683-1.405-4.685-3.784-5.609-6.663c-2.115-0.521-3.407-2.178-3.407-4.432v-2.068c0-1.866,1.262-2.744,2.393-2.988v-4.271
					c0-5.039,4.106-9.139,9.154-9.139h5.666c2.282,0,3.558,1.185,4.175,2.025c0.751-0.151,1.724-0.135,2.616,0.417
					c1.569,0.97,2.365,3.223,2.365,6.698v4.271c1.131,0.243,2.393,1.121,2.393,2.987v2.068c0,2.253-1.292,3.911-3.407,4.432
					c-0.924,2.88-2.926,5.258-5.607,6.663v2.479l3.763,1.856c0.343,0.133,2.249,0.904,4.334,2.395
					c0.854-2.102,2.387-4.017,4.576-5.711c2.435-2.439,1.575-5.049-0.151-9.448c-2.348-5.977-5.562-14.162,4.741-24.445
					c1.701-1.812,4.135-2.865,6.655-2.865h5.665c2.52,0,4.954,1.053,6.678,2.888c10.28,10.261,7.066,18.446,4.72,24.423
					c-1.719,4.378-2.578,6.983-0.187,9.412c3.536,2.725,5.405,6.103,5.405,9.773C115.565,102.571,115.634,103.907,115.709,105.321z"
					/>
			</g>
		</g>
		<g>
			<g>
				<path class="st5" d="M123,107.321c-0.553,0-1-0.447-1-1v-2c0-0.553,0.447-1,1-1s1,0.447,1,1v2
					C124,106.874,123.553,107.321,123,107.321z M123,101.321c-0.553,0-1-0.447-1-1v-2c0-0.553,0.447-1,1-1s1,0.447,1,1v2
					C124,100.874,123.553,101.321,123,101.321z M123,95.321c-0.553,0-1-0.447-1-1v-2c0-0.553,0.447-1,1-1s1,0.447,1,1v2
					C124,94.874,123.553,95.321,123,95.321z M122.939,89.322c-0.531,0-0.974-0.418-0.998-0.955c-0.029-0.656-0.07-1.311-0.121-1.962
					c-0.043-0.551,0.368-1.032,0.919-1.075c0.54-0.044,1.032,0.369,1.075,0.919c0.053,0.673,0.094,1.349,0.125,2.028
					c0.025,0.552-0.402,1.019-0.954,1.044C122.971,89.322,122.955,89.322,122.939,89.322z M122.367,83.354
					c-0.488,0-0.915-0.357-0.988-0.854c-0.096-0.65-0.202-1.296-0.32-1.938c-0.1-0.543,0.26-1.064,0.803-1.164
					c0.552-0.104,1.065,0.26,1.164,0.803c0.122,0.666,0.232,1.335,0.332,2.007c0.081,0.547-0.297,1.055-0.843,1.136
					C122.465,83.351,122.415,83.354,122.367,83.354z M121.187,77.477c-0.446,0-0.854-0.301-0.968-0.754
					c-0.162-0.638-0.335-1.271-0.52-1.899c-0.155-0.53,0.149-1.086,0.679-1.241c0.531-0.156,1.086,0.149,1.241,0.679
					c0.19,0.652,0.369,1.309,0.537,1.97c0.137,0.535-0.188,1.079-0.723,1.215C121.353,77.467,121.27,77.477,121.187,77.477z
					 M119.408,71.74c-0.407,0-0.789-0.25-0.938-0.654c-0.228-0.617-0.465-1.229-0.712-1.838c-0.209-0.511,0.037-1.095,0.548-1.303
					c0.513-0.211,1.095,0.036,1.304,0.549c0.257,0.628,0.502,1.262,0.737,1.9c0.19,0.519-0.074,1.093-0.593,1.284
					C119.64,71.721,119.523,71.74,119.408,71.74z M117.05,66.223c-0.37,0-0.726-0.206-0.899-0.561
					c-0.288-0.59-0.587-1.174-0.896-1.753c-0.261-0.487-0.076-1.093,0.411-1.353c0.485-0.26,1.093-0.077,1.353,0.411
					c0.32,0.599,0.629,1.204,0.929,1.815c0.242,0.496,0.037,1.095-0.459,1.338C117.347,66.19,117.197,66.223,117.05,66.223z
					 M114.14,60.975c-0.334,0-0.66-0.167-0.85-0.471c-0.347-0.557-0.703-1.107-1.068-1.65c-0.309-0.458-0.188-1.08,0.271-1.388
					c0.459-0.311,1.08-0.188,1.388,0.271c0.379,0.562,0.747,1.133,1.107,1.709c0.292,0.469,0.149,1.085-0.319,1.378
					C114.504,60.926,114.32,60.975,114.14,60.975z M110.713,56.052c-0.299,0-0.595-0.133-0.792-0.388
					c-0.401-0.519-0.811-1.03-1.229-1.534c-0.353-0.425-0.294-1.055,0.131-1.408c0.424-0.354,1.055-0.294,1.408,0.131
					c0.433,0.521,0.857,1.051,1.272,1.587c0.338,0.437,0.258,1.065-0.179,1.403C111.142,55.983,110.927,56.052,110.713,56.052z
					 M106.805,51.5c-0.265,0-0.528-0.104-0.726-0.312c-0.45-0.475-0.909-0.942-1.376-1.4c-0.395-0.387-0.4-1.021-0.014-1.414
					c0.388-0.396,1.021-0.399,1.414-0.014c0.484,0.476,0.959,0.959,1.427,1.451c0.38,0.4,0.363,1.033-0.037,1.414
					C107.3,51.409,107.052,51.5,106.805,51.5z M102.46,47.366c-0.231,0-0.464-0.079-0.652-0.242c-0.496-0.427-1-0.845-1.511-1.255
					c-0.432-0.345-0.501-0.975-0.155-1.405c0.345-0.431,0.974-0.502,1.405-0.155c0.53,0.424,1.052,0.857,1.565,1.3
					c0.419,0.36,0.466,0.991,0.105,1.41C103.021,47.248,102.74,47.366,102.46,47.366z M97.722,43.693
					c-0.197,0-0.396-0.059-0.571-0.18c-0.536-0.374-1.079-0.74-1.63-1.096c-0.463-0.301-0.596-0.92-0.296-1.384
					c0.3-0.463,0.92-0.596,1.384-0.296c0.568,0.369,1.131,0.747,1.687,1.135c0.453,0.316,0.563,0.939,0.248,1.393
					C98.349,43.544,98.037,43.693,97.722,43.693z M92.639,40.519c-0.164,0-0.331-0.04-0.485-0.126
					c-0.571-0.318-1.148-0.626-1.731-0.926c-0.491-0.253-0.685-0.855-0.433-1.347c0.253-0.49,0.854-0.685,1.347-0.433
					c0.603,0.31,1.199,0.629,1.79,0.957c0.482,0.269,0.656,0.878,0.388,1.36C93.331,40.333,92.99,40.519,92.639,40.519z
					 M87.264,37.874c-0.133,0-0.267-0.026-0.396-0.081c-0.6-0.259-1.204-0.506-1.814-0.744c-0.514-0.201-0.769-0.781-0.567-1.296
					c0.201-0.515,0.78-0.768,1.296-0.567c0.63,0.246,1.256,0.503,1.877,0.77c0.507,0.219,0.741,0.807,0.523,1.314
					C88.02,37.647,87.65,37.874,87.264,37.874z M81.648,35.793c-0.099,0-0.2-0.015-0.3-0.046c-0.623-0.196-1.25-0.381-1.882-0.556
					c-0.532-0.147-0.845-0.698-0.697-1.23c0.148-0.533,0.704-0.842,1.23-0.697c0.653,0.181,1.304,0.373,1.948,0.575
					c0.527,0.166,0.819,0.728,0.654,1.254C82.468,35.52,82.074,35.793,81.648,35.793z"/>
			</g>
		</g>
		<g>
			<g>
				<path class="st5" d="M5,105.814c-0.552,0-1-0.447-1-1v-2c0-0.553,0.448-1,1-1s1,0.447,1,1v2C6,105.367,5.552,105.814,5,105.814z
					 M5,99.814c-0.552,0-1-0.447-1-1v-2c0-0.553,0.448-1,1-1s1,0.447,1,1v2C6,99.367,5.552,99.814,5,99.814z M5,93.814
					c-0.552,0-1-0.447-1-1v-1.999c0-0.553,0.448-1,1-1s1,0.447,1,1v1.999C6,93.367,5.552,93.814,5,93.814z M5.147,87.819
					c-0.023,0-0.047-0.001-0.071-0.003C4.525,87.778,4.11,87.3,4.148,86.749c0.048-0.678,0.107-1.354,0.177-2.025
					c0.057-0.55,0.542-0.955,1.098-0.891c0.549,0.057,0.948,0.549,0.891,1.098c-0.068,0.65-0.125,1.303-0.171,1.959
					C6.106,87.416,5.667,87.819,5.147,87.819z M5.872,81.867c-0.057,0-0.115-0.005-0.173-0.015
					c-0.544-0.096-0.908-0.613-0.812-1.157c0.117-0.671,0.245-1.336,0.383-1.997c0.113-0.541,0.64-0.887,1.184-0.773
					c0.541,0.113,0.887,0.643,0.774,1.184c-0.134,0.64-0.258,1.283-0.371,1.931C6.771,81.525,6.349,81.867,5.872,81.867z
					 M7.202,76.021c-0.09,0-0.182-0.012-0.273-0.038c-0.532-0.15-0.84-0.703-0.689-1.234c0.185-0.653,0.38-1.303,0.586-1.947
					c0.168-0.525,0.728-0.821,1.257-0.647c0.526,0.168,0.816,0.73,0.648,1.257c-0.199,0.623-0.389,1.251-0.568,1.883
					C8.039,75.733,7.638,76.021,7.202,76.021z M9.125,70.345c-0.123,0-0.248-0.022-0.369-0.07c-0.513-0.204-0.764-0.786-0.56-1.299
					c0.25-0.629,0.51-1.254,0.781-1.872c0.221-0.507,0.81-0.74,1.317-0.516c0.506,0.221,0.737,0.811,0.515,1.316
					c-0.261,0.599-0.513,1.202-0.755,1.81C9.899,70.106,9.523,70.345,9.125,70.345z M11.618,64.899
					c-0.156,0-0.313-0.036-0.461-0.113c-0.49-0.256-0.68-0.859-0.424-1.349c0.313-0.602,0.637-1.196,0.969-1.785
					c0.271-0.479,0.882-0.647,1.362-0.379c0.481,0.272,0.65,0.882,0.379,1.363c-0.322,0.569-0.634,1.145-0.937,1.725
					C12.328,64.704,11.979,64.899,11.618,64.899z M14.655,59.733c-0.188,0-0.379-0.053-0.548-0.164
					c-0.461-0.304-0.59-0.924-0.286-1.386c0.373-0.567,0.755-1.126,1.146-1.679c0.319-0.451,0.944-0.559,1.394-0.237
					c0.451,0.318,0.557,0.943,0.238,1.394c-0.378,0.533-0.747,1.074-1.107,1.622C15.3,59.575,14.98,59.733,14.655,59.733z
					 M18.201,54.899c-0.222,0-0.446-0.073-0.632-0.226c-0.428-0.349-0.492-0.979-0.143-1.406c0.428-0.525,0.865-1.044,1.311-1.554
					c0.364-0.416,0.995-0.458,1.411-0.097c0.417,0.363,0.459,0.995,0.096,1.411c-0.431,0.494-0.853,0.995-1.268,1.503
					C18.779,54.773,18.491,54.899,18.201,54.899z M22.219,50.449c-0.256,0-0.512-0.098-0.707-0.293
					c-0.391-0.39-0.391-1.023-0.001-1.414c0.479-0.479,0.966-0.951,1.461-1.414c0.403-0.377,1.036-0.356,1.414,0.046
					c0.377,0.403,0.357,1.036-0.046,1.413c-0.479,0.449-0.95,0.905-1.413,1.369C22.731,50.352,22.475,50.449,22.219,50.449z
					 M26.666,46.424c-0.29,0-0.577-0.125-0.774-0.366c-0.35-0.428-0.287-1.058,0.141-1.407c0.525-0.431,1.058-0.851,1.597-1.262
					c0.44-0.337,1.067-0.25,1.402,0.188c0.334,0.439,0.25,1.066-0.189,1.401c-0.521,0.397-1.036,0.804-1.543,1.219
					C27.113,46.35,26.888,46.424,26.666,46.424z M31.496,42.866c-0.325,0-0.643-0.157-0.835-0.448
					c-0.305-0.461-0.178-1.081,0.282-1.386c0.566-0.374,1.138-0.738,1.716-1.094c0.468-0.291,1.085-0.144,1.375,0.328
					c0.289,0.471,0.142,1.086-0.329,1.375c-0.559,0.344-1.112,0.696-1.66,1.059C31.876,42.812,31.685,42.866,31.496,42.866z
					 M36.662,39.815c-0.36,0-0.708-0.194-0.887-0.536c-0.256-0.489-0.067-1.094,0.421-1.35c0.601-0.314,1.208-0.62,1.82-0.915
					c0.498-0.238,1.095-0.031,1.335,0.468c0.24,0.497,0.031,1.095-0.467,1.335c-0.592,0.285-1.179,0.579-1.759,0.884
					C36.977,39.779,36.818,39.815,36.662,39.815z M42.112,37.304c-0.397,0-0.772-0.237-0.929-0.628
					c-0.206-0.513,0.043-1.095,0.556-1.301c0.63-0.252,1.265-0.493,1.905-0.725c0.519-0.189,1.093,0.081,1.28,0.601
					c0.188,0.52-0.081,1.093-0.601,1.28c-0.619,0.224-1.232,0.457-1.841,0.701C42.362,37.281,42.236,37.304,42.112,37.304z
					 M47.792,35.361c-0.436,0-0.836-0.286-0.961-0.727c-0.151-0.531,0.157-1.084,0.688-1.235c0.652-0.186,1.309-0.361,1.969-0.526
					c0.537-0.128,1.079,0.193,1.212,0.729c0.134,0.536-0.192,1.079-0.728,1.213c-0.64,0.159-1.275,0.329-1.906,0.509
					C47.975,35.35,47.883,35.361,47.792,35.361z"/>
			</g>
		</g>
		<g>
			<g>
				<g>
					<path class="st5" d="M64,49.079c-4.625,0-8.95-2.062-11.868-5.659c-0.183-0.226-0.258-0.519-0.208-0.805
						c0.051-0.285,0.223-0.535,0.472-0.684c0.953-0.568,1.521-1.558,1.521-2.645c0-1.706-1.391-3.094-3.101-3.094
						c-0.226,0-0.467,0.034-0.761,0.109c-0.282,0.071-0.579,0.018-0.817-0.149c-0.238-0.166-0.393-0.427-0.423-0.716
						c-0.057-0.54-0.085-1.078-0.085-1.601c0-6.706,4.501-12.716,10.946-14.614c0.277-0.082,0.578-0.04,0.822,0.117
						c0.244,0.156,0.408,0.411,0.45,0.698c0.22,1.51,1.532,2.648,3.052,2.648c1.521,0,2.833-1.139,3.053-2.648
						c0.041-0.287,0.206-0.542,0.45-0.698c0.243-0.157,0.542-0.199,0.821-0.117c6.444,1.898,10.945,7.908,10.945,14.614
						c0,0.519-0.028,1.056-0.084,1.599c-0.03,0.289-0.185,0.551-0.422,0.717c-0.238,0.168-0.535,0.223-0.818,0.15
						c-0.294-0.074-0.536-0.109-0.762-0.109c-1.71,0-3.102,1.388-3.102,3.094c0,1.087,0.568,2.075,1.521,2.645
						c0.249,0.148,0.421,0.398,0.472,0.684c0.051,0.286-0.025,0.579-0.208,0.805C72.949,47.017,68.624,49.079,64,49.079z
						 M54.363,42.933c2.503,2.647,5.961,4.146,9.637,4.146c3.675,0,7.133-1.499,9.637-4.146c-0.988-0.946-1.555-2.245-1.555-3.646
						c0-2.809,2.288-5.094,5.102-5.094c0.027,0,0.054,0,0.081,0.001c0.003-0.12,0.005-0.239,0.005-0.357
						c0-5.484-3.466-10.433-8.544-12.37c-0.757,1.896-2.62,3.22-4.726,3.22s-3.968-1.322-4.725-3.22
						c-5.078,1.938-8.545,6.886-8.545,12.37c0,0.118,0.002,0.237,0.005,0.357c0.027-0.001,0.055-0.001,0.082-0.001
						c2.812,0,5.101,2.285,5.101,5.094C55.917,40.688,55.352,41.986,54.363,42.933z"/>
				</g>
			</g>
			<g>
				<g>
					<path class="st5" d="M64,24.687c-2.813,0-5.101-2.284-5.101-5.093S61.187,14.5,64,14.5c2.813,0,5.102,2.285,5.102,5.094
						S66.813,24.687,64,24.687z M64,16.5c-1.71,0-3.101,1.388-3.101,3.094c0,1.705,1.391,3.093,3.101,3.093s3.102-1.388,3.102-3.093
						C67.102,17.888,65.71,16.5,64,16.5z"/>
				</g>
			</g>
			<g>
				<g>
					<path class="st5" d="M50.816,44.381c-2.812,0-5.101-2.285-5.101-5.094s2.289-5.094,5.101-5.094s5.101,2.285,5.101,5.094
						S53.629,44.381,50.816,44.381z M50.816,36.193c-1.71,0-3.101,1.388-3.101,3.094s1.391,3.094,3.101,3.094
						s3.101-1.388,3.101-3.094S52.526,36.193,50.816,36.193z"/>
				</g>
			</g>
			<g>
				<g>
					<path class="st5" d="M77.184,44.381c-2.813,0-5.102-2.285-5.102-5.094s2.288-5.094,5.102-5.094s5.102,2.285,5.102,5.094
						S79.997,44.381,77.184,44.381z M77.184,36.193c-1.71,0-3.102,1.388-3.102,3.094s1.392,3.094,3.102,3.094
						s3.102-1.388,3.102-3.094S78.894,36.193,77.184,36.193z"/>
				</g>
			</g>
			<g>
				<g>
					<path class="st5" d="M74.906,36.884c-0.322,0-0.639-0.155-0.832-0.443l-8.627-12.887c-0.308-0.459-0.185-1.08,0.274-1.388
						c0.458-0.307,1.079-0.186,1.388,0.274l8.627,12.887c0.308,0.459,0.185,1.08-0.274,1.388
						C75.291,36.829,75.098,36.884,74.906,36.884z"/>
				</g>
			</g>
			<g>
				<g>
					<path class="st5" d="M53.094,36.884c-0.191,0-0.384-0.055-0.555-0.169c-0.459-0.308-0.582-0.929-0.275-1.388l8.627-12.887
						c0.307-0.459,0.928-0.582,1.387-0.274s0.582,0.929,0.275,1.388L53.926,36.44C53.733,36.729,53.417,36.884,53.094,36.884z"/>
				</g>
			</g>
			<g>
				<g>
					<path class="st5" d="M73.082,40.287H54.917c-0.552,0-1-0.447-1-1s0.448-1,1-1h18.165c0.553,0,1,0.447,1,1
						S73.635,40.287,73.082,40.287z"/>
				</g>
			</g>
		</g>
	</g>
</g>
</svg>
