<?xml version="1.0" encoding="utf-8"?>
<!-- Generator: Adobe Illustrator 22.0.0, SVG Export Plug-In . SVG Version: 6.00 Build 0)  -->
<svg version="1.1" id="MARKET_RESEARCH_ICON_SET" xmlns="http://www.w3.org/2000/svg" xmlns:xlink="http://www.w3.org/1999/xlink"
	 x="0px" y="0px" viewBox="0 0 128 128" style="enable-background:new 0 0 128 128;" xml:space="preserve">
<style type="text/css">
	.st0{fill:#C2D5EC;}
	.st1{fill:#61E1FF;}
	.st2{fill:#7184AF;}
	.st3{fill:#F8F8F8;}
	.st4{fill:#3F4D81;}
	.st5{fill:#3F4D80;}
	.st6{fill:#E9EAEB;}
	.st7{fill:#F79559;}
	.st8{fill:#FFA85A;}
</style>
<g>
	<g>
		<g>
			<path class="st0" d="M77.613,29.588c0.421,1.343,0.657,2.767,0.657,4.248c0,0.505-0.028,1.004-0.08,1.496
				c1.776,0.45,3.095,2.042,3.095,3.954c0,2.261-1.836,4.094-4.101,4.094c-0.768,0-1.478-0.224-2.093-0.591
				c-2.616,3.225-6.61,5.29-11.091,5.29s-8.475-2.065-11.091-5.29c-0.615,0.367-1.325,0.591-2.093,0.591
				c-2.265,0-4.101-1.833-4.101-4.094c0-1.912,1.319-3.505,3.095-3.954c-0.051-0.492-0.08-0.991-0.08-1.496
				c0-1.482,0.236-2.906,0.657-4.248C22.14,35.801,1,60.92,1,90.981v15.34h14.241c0.091-1.783,0.194-3.463,0.194-4.916
				c0-8.055,9.719-11.683,9.719-11.683l0,0.001l4.363-2.152v-3.718c-2.85-1.301-5.017-3.835-5.821-6.919
				c-0.042-0.005-0.079-0.007-0.123-0.014c-2.15-0.325-3.071-1.856-3.071-3.545v-2.068c0-2.06,2.054-2.06,2.054-2.06
				c0.116,0,0.228,0.011,0.338,0.026v-5.225c0-4.495,3.651-8.139,8.154-8.139h5.666c2.828,0,3.726,2.218,3.726,2.218
				s4.429-2.218,4.429,5.922v5.224c0.11-0.016,0.222-0.026,0.338-0.026c0,0,2.054,0,2.054,2.06v2.068
				c0,1.688-0.921,3.22-3.071,3.545c-0.045,0.007-0.081,0.009-0.123,0.014c-0.804,3.084-2.97,5.617-5.82,6.918v3.719l0,0
				l4.362,2.151l0,0c0,0,6.802,2.559,9.015,8.121c1.963-1.312,3.645-1.942,3.645-1.942l0,0.001l4.363-2.152v-3.718
				c-2.85-1.301-5.017-3.835-5.821-6.919c-0.042-0.005-0.079-0.007-0.123-0.014c-2.15-0.325-3.071-1.856-3.071-3.545v-2.068
				c0-2.06,2.054-2.06,2.054-2.06c0.116,0,0.228,0.01,0.338,0.026v-5.226c0-4.495,3.651-8.139,8.154-8.139h5.666
				c2.828,0,3.726,2.218,3.726,2.218s4.429-2.218,4.429,5.923v5.224c0.11-0.016,0.222-0.026,0.338-0.026c0,0,2.054,0,2.054,2.06
				v2.068c0,1.688-0.921,3.22-3.071,3.545c-0.045,0.007-0.081,0.009-0.123,0.014c-0.804,3.084-2.97,5.617-5.82,6.918v3.719
				l4.362,2.151l0,0c0,0,1.681,0.63,3.645,1.942c2.214-5.562,9.015-8.121,9.015-8.121l0,0.001l4.363-2.152v-3.718
				c-2.85-1.301-5.017-3.835-5.821-6.919c-0.042-0.005-0.079-0.007-0.123-0.014c-2.15-0.325-3.071-1.856-3.071-3.545v-2.068
				c0-2.06,2.054-2.06,2.054-2.06c0.116,0,0.228,0.011,0.338,0.026v-5.225c0-4.495,3.651-8.139,8.154-8.139h5.666
				c2.828,0,3.726,2.218,3.726,2.218s4.429-2.218,4.429,5.922v5.224c0.11-0.016,0.222-0.026,0.338-0.026c0,0,2.054,0,2.054,2.06
				v2.068c0,1.688-0.921,3.22-3.071,3.545c-0.045,0.007-0.081,0.009-0.123,0.014c-0.804,3.084-2.97,5.617-5.82,6.918v3.719l0,0
				l4.362,2.151l0,0c0,0,9.719,3.629,9.719,11.683c0,1.452,0.103,3.133,0.194,4.916H127v-15.34
				C127,60.92,105.86,35.801,77.613,29.588z"/>
		</g>
		<g>
			<path class="st5" d="M81.285,43.28c0-0.732-0.196-1.416-0.535-2.008c-0.701,1.252-2.027,2.109-3.566,2.109
				c-0.768,0-1.478-0.224-2.093-0.591c-2.616,3.225-6.61,5.29-11.091,5.29s-8.475-2.065-11.091-5.29
				c-0.615,0.367-1.325,0.591-2.093,0.591c-1.54,0-2.865-0.857-3.566-2.109c-0.339,0.592-0.535,1.276-0.535,2.008
				c0,2.261,1.836,4.094,4.101,4.094c0.768,0,1.478-0.224,2.093-0.591c2.616,3.225,6.61,5.29,11.091,5.29s8.475-2.065,11.091-5.29
				c0.615,0.367,1.325,0.591,2.093,0.591C79.449,47.373,81.285,45.54,81.285,43.28z"/>
		</g>
		<g>
			<g>
				<path class="st5" d="M64,53.072c-4.356,0-8.448-1.832-11.348-5.053c-0.59,0.232-1.213,0.354-1.836,0.354
					c-2.813,0-5.102-2.285-5.102-5.094c0-0.876,0.23-1.742,0.667-2.505c0.179-0.312,0.51-0.503,0.868-0.503c0.002,0,0.003,0,0.005,0
					c0.36,0.002,0.691,0.197,0.867,0.512c0.826,1.472,2.761,2.052,4.275,1.147c0.426-0.253,0.977-0.156,1.288,0.229
					c2.536,3.126,6.296,4.919,10.314,4.919s7.778-1.793,10.314-4.919c0.312-0.386,0.861-0.483,1.288-0.229
					c1.516,0.905,3.45,0.324,4.275-1.147c0.176-0.314,0.507-0.51,0.867-0.512c0.002,0,0.003,0,0.005,0
					c0.358,0,0.689,0.191,0.868,0.503c0.437,0.763,0.667,1.629,0.667,2.505c0,2.809-2.288,5.094-5.102,5.094
					c-0.623,0-1.246-0.121-1.836-0.354C72.448,51.24,68.356,53.072,64,53.072z M52.908,45.782c0.293,0,0.582,0.129,0.777,0.37
					c2.537,3.127,6.297,4.92,10.314,4.92s7.777-1.793,10.314-4.92c0.312-0.386,0.863-0.485,1.289-0.229
					c0.499,0.298,1.03,0.449,1.58,0.449c1.698,0,3.083-1.369,3.102-3.059c-1.357,1.052-3.271,1.369-4.937,0.713
					c-2.899,3.22-6.991,5.052-11.349,5.052s-8.449-1.832-11.349-5.052c-1.666,0.658-3.579,0.34-4.937-0.713
					c0.019,1.689,1.403,3.059,3.102,3.059c0.55,0,1.081-0.151,1.58-0.449C52.556,45.828,52.733,45.782,52.908,45.782z"/>
			</g>
		</g>
		<g>
			<g>
				<g>
					<path class="st1" d="M73.082,39.287c0-2.261,1.836-4.093,4.101-4.093c0.349,0,0.683,0.057,1.006,0.139
						c0.051-0.492,0.08-0.991,0.08-1.496c0-6.464-4.317-11.914-10.228-13.655c-0.288,1.979-1.979,3.505-4.042,3.505
						c-2.063,0-3.754-1.525-4.042-3.505c-5.911,1.741-10.228,7.191-10.228,13.655c0,0.506,0.028,1.004,0.08,1.496
						c0.324-0.082,0.657-0.139,1.006-0.139c2.265,0,4.101,1.833,4.101,4.093c0,1.494-0.811,2.788-2.009,3.503
						c2.616,3.225,6.61,5.29,11.091,5.29s8.475-2.065,11.091-5.29C73.893,42.075,73.082,40.781,73.082,39.287z"/>
				</g>
			</g>
			<g>
				<g>
					<ellipse class="st8" cx="64" cy="19.593" rx="4.101" ry="4.093"/>
				</g>
			</g>
			<g>
				<g>
					<ellipse class="st8" cx="50.816" cy="39.287" rx="4.101" ry="4.093"/>
				</g>
			</g>
			<g>
				<g>
					<ellipse class="st8" cx="77.184" cy="39.287" rx="4.101" ry="4.093"/>
				</g>
			</g>
		</g>
		<g>
			<g>
				<g>
					<g>
						<path class="st6" d="M29.518,83.849v3.722l4.366,8.262l4.366-8.262v-3.722c-1.332,0.607-2.807,0.953-4.366,0.953
							C32.324,84.802,30.849,84.456,29.518,83.849z"/>
					</g>
				</g>
				<g>
					<g>
						<path class="st7" d="M52.33,101.405c0-8.055-9.719-11.683-9.719-11.683l0,0l-4.362-2.151l-4.366,8.262l0.001,0.001
							l-0.002,0.002l-0.001-0.001l0.002-0.002l-4.366-8.262l-4.363,2.152l0-0.001c0,0-9.719,3.629-9.719,11.683
							c0,1.453-0.103,3.133-0.194,4.916h37.284C52.433,104.538,52.33,102.858,52.33,101.405z"/>
					</g>
				</g>
				<g>
					<g>
						<path class="st3" d="M18.435,104.4c0-8.055,9.719-11.683,9.719-11.683l0,0.001l3.239-1.597l-1.875-3.549l-4.363,2.152l0-0.001
							c0,0-9.719,3.628-9.719,11.683c0,1.453-0.103,3.133-0.194,4.916h3.147C18.415,105.65,18.435,105.001,18.435,104.4z"/>
					</g>
				</g>
				<g>
					<g>
						<path class="st5" d="M26.381,67.366c0-1.982,1.61-3.589,3.596-3.589h7.812c1.986,0,3.596,1.607,3.596,3.589
							c0,5.735,3.486,1.907,3.486,1.907v-5.224c0-8.14-4.429-5.923-4.429-5.923s-0.899-2.218-3.726-2.218h-5.666
							c-4.503,0-8.154,3.644-8.154,8.139v5.225l0,0C22.895,69.273,26.381,73.102,26.381,67.366z"/>
					</g>
				</g>
				<g>
					<g>
						<path class="st3" d="M45.209,69.247c-0.116,0-0.228,0.011-0.338,0.026c0,0-3.486,3.828-3.486-1.907
							c0-1.982-1.61-3.589-3.596-3.589h-7.812c-1.986,0-3.596,1.607-3.596,3.589c0,5.735-3.486,1.907-3.486,1.907l0,0v0
							c-0.11-0.016-0.222-0.026-0.338-0.026c0,0-2.054,0-2.054,2.06v2.068c0,1.688,0.921,3.22,3.071,3.545
							c0.045,0.007,0.081,0.009,0.123,0.014c1.179,4.523,5.286,7.867,10.186,7.867c4.9,0,9.007-3.344,10.186-7.867
							c0.042-0.005,0.079-0.007,0.123-0.014c2.15-0.325,3.071-1.856,3.071-3.545v-2.068C47.263,69.247,45.209,69.247,45.209,69.247z
							"/>
					</g>
				</g>
			</g>
			<g>
				<g>
					<g>
						<path class="st6" d="M89.753,83.849v3.722l4.366,8.262l4.366-8.262v-3.722c-1.332,0.607-2.807,0.953-4.366,0.953
							C92.559,84.802,91.084,84.456,89.753,83.849z"/>
					</g>
				</g>
				<g>
					<g>
						<path class="st7" d="M112.565,101.405c0-8.055-9.719-11.683-9.719-11.683l0,0l-4.362-2.151l-4.366,8.262l0.001,0.001
							l-0.002,0.002l-0.001-0.001l0.002-0.002l-4.366-8.262l-4.363,2.152l0-0.001c0,0-9.719,3.629-9.719,11.683
							c0,1.453-0.103,3.133-0.194,4.916h37.284C112.668,104.538,112.565,102.858,112.565,101.405z"/>
					</g>
				</g>
				<g>
					<g>
						<path class="st3" d="M89.753,87.571l-4.363,2.152l0-0.001c0,0-6.817,2.548-9.031,8.11c1.037,0.692,2.151,1.575,3.142,2.657
							c2.348-5.327,8.889-7.773,8.889-7.773l0,0.001l3.239-1.597L89.753,87.571z"/>
					</g>
				</g>
				<g>
					<g>
						<path class="st5" d="M86.616,67.366c0-1.982,1.61-3.589,3.596-3.589h7.812c1.986,0,3.596,1.607,3.596,3.589
							c0,5.735,3.486,1.907,3.486,1.907v-5.224c0-8.14-4.429-5.923-4.429-5.923s-0.899-2.218-3.726-2.218h-5.666
							c-4.503,0-8.154,3.644-8.154,8.139v5.225l0,0C83.13,69.273,86.616,73.102,86.616,67.366z"/>
					</g>
				</g>
				<g>
					<g>
						<path class="st3" d="M105.444,69.247c-0.116,0-0.228,0.011-0.338,0.026c0,0-3.486,3.828-3.486-1.907
							c0-1.982-1.61-3.589-3.596-3.589h-7.812c-1.986,0-3.596,1.607-3.596,3.589c0,5.735-3.486,1.907-3.486,1.907l0,0v0
							c-0.11-0.016-0.222-0.026-0.338-0.026c0,0-2.054,0-2.054,2.06v2.068c0,1.688,0.921,3.22,3.071,3.545
							c0.045,0.007,0.081,0.009,0.123,0.014c1.179,4.523,5.286,7.867,10.186,7.867c4.9,0,9.007-3.344,10.186-7.867
							c0.042-0.005,0.079-0.007,0.123-0.014c2.15-0.325,3.071-1.856,3.071-3.545v-2.068
							C107.498,69.247,105.444,69.247,105.444,69.247z"/>
					</g>
				</g>
			</g>
			<g>
				<g>
					<g>
						<path class="st6" d="M59.635,90.028v3.722l4.366,8.262l4.366-8.262v-3.722c-1.332,0.607-2.807,0.953-4.366,0.953
							C62.442,90.981,60.967,90.634,59.635,90.028z"/>
					</g>
				</g>
				<g>
					<g>
						<path class="st8" d="M82.448,107.584c0-8.055-9.719-11.683-9.719-11.683l0,0l-4.362-2.151l-4.366,8.262l0.001,0.001
							L64,102.015l-0.001-0.001l0.002-0.002l-4.366-8.262l-4.363,2.152l0-0.001c0,0-9.719,3.629-9.719,11.683
							c0,1.453-0.103,3.133-0.194,4.916h37.284C82.551,110.717,82.448,109.037,82.448,107.584z"/>
					</g>
				</g>
				<g>
					<g>
						<path class="st3" d="M48.552,110.578c0-8.055,9.719-11.683,9.719-11.683l0,0.001l3.239-1.597l-1.875-3.549l-4.363,2.152
							l0-0.001c0,0-9.719,3.628-9.719,11.683c0,1.453-0.103,3.133-0.194,4.916h3.147C48.532,111.829,48.552,111.18,48.552,110.578z"
							/>
					</g>
				</g>
				<g>
					<g>
						<path class="st5" d="M56.498,73.545c0-1.982,1.61-3.589,3.596-3.589h7.812c1.986,0,3.596,1.607,3.596,3.589
							c0,5.735,3.486,1.907,3.486,1.907v-5.224c0-8.14-4.429-5.923-4.429-5.923s-0.899-2.218-3.726-2.218h-5.666
							c-4.503,0-8.154,3.644-8.154,8.139v5.225l0,0C53.012,75.452,56.498,79.28,56.498,73.545z"/>
					</g>
				</g>
				<g>
					<g>
						<path class="st3" d="M75.326,75.426c-0.116,0-0.228,0.011-0.338,0.026c0,0-3.486,3.828-3.486-1.907
							c0-1.982-1.61-3.589-3.596-3.589h-7.812c-1.986,0-3.596,1.607-3.596,3.589c0,5.735-3.486,1.907-3.486,1.907l0,0v0
							c-0.11-0.016-0.222-0.026-0.338-0.026c0,0-2.054,0-2.054,2.06v2.068c0,1.688,0.921,3.22,3.071,3.545
							c0.045,0.007,0.081,0.009,0.123,0.014C54.993,87.636,59.1,90.979,64,90.979c4.9,0,9.007-3.344,10.186-7.867
							c0.042-0.005,0.079-0.007,0.123-0.014c2.15-0.325,3.071-1.856,3.071-3.545v-2.068C77.381,75.426,75.326,75.426,75.326,75.426z
							"/>
					</g>
				</g>
			</g>
			<g>
				<g>
					<ellipse class="st3" cx="71.681" cy="106.321" rx="2.032" ry="2.028"/>
				</g>
			</g>
			<g>
				<g>
					<ellipse class="st3" cx="103.799" cy="99.722" rx="2.032" ry="2.028"/>
				</g>
			</g>
			<g>
				<g>
					<ellipse class="st3" cx="39.564" cy="100.142" rx="2.032" ry="2.028"/>
				</g>
			</g>
		</g>
	</g>
	<g>
		<g>
			<g>
				<path class="st5" d="M127,107.321h-14.24c-0.532,0-0.972-0.417-0.999-0.948l-0.042-0.803c-0.079-1.494-0.153-2.906-0.153-4.165
					c0-7.276-8.978-10.713-9.068-10.747c-0.031-0.012-0.062-0.024-0.093-0.04l-4.362-2.15c-0.342-0.168-0.558-0.516-0.558-0.896
					v-3.719c0-0.392,0.229-0.747,0.585-0.909c2.622-1.198,4.542-3.48,5.267-6.262c0.104-0.399,0.442-0.693,0.853-0.741
					c2.021-0.301,2.31-1.735,2.31-2.564v-2.068c0-0.957-0.737-1.061-1.054-1.061c-0.068,0-0.134,0.008-0.198,0.017
					c-0.287,0.043-0.577-0.045-0.796-0.235c-0.219-0.189-0.345-0.465-0.345-0.755v-5.225c0-3.568-0.879-4.656-1.403-4.988
					c-0.707-0.446-1.578-0.04-1.587-0.035c-0.25,0.119-0.54,0.131-0.796,0.031c-0.257-0.1-0.466-0.299-0.569-0.554
					c-0.024-0.055-0.715-1.594-2.8-1.594h-5.666c-3.945,0-7.154,3.202-7.154,7.139v5.226c0,0.29-0.126,0.565-0.345,0.755
					c-0.219,0.19-0.509,0.278-0.796,0.235c-0.064-0.009-0.13-0.017-0.198-0.017c-0.475,0.012-1.054,0.206-1.054,1.061v2.068
					c0,0.829,0.288,2.264,2.221,2.555c0.409,0.048,0.837,0.352,0.941,0.751c0.725,2.782,2.646,5.063,5.269,6.261
					c0.356,0.163,0.585,0.519,0.585,0.91v3.719c0,0.381-0.216,0.729-0.558,0.896l-4.363,2.151c-0.033,0.017-0.066,0.03-0.1,0.043
					c-0.188,0.072-6.422,2.506-8.431,7.551c-0.111,0.28-0.344,0.495-0.632,0.585c-0.289,0.09-0.602,0.044-0.853-0.124
					c-1.832-1.225-3.424-1.83-3.44-1.836l-4.453-2.191c-0.342-0.168-0.558-0.516-0.558-0.896v-3.719
					c0-0.392,0.229-0.747,0.585-0.909c2.623-1.198,4.543-3.48,5.268-6.261c0.104-0.399,0.442-0.693,0.853-0.741
					c2.021-0.302,2.31-1.736,2.31-2.565v-2.068c0-0.854-0.58-1.049-1.066-1.061c-0.056,0-0.121,0.007-0.185,0.017
					c-0.286,0.043-0.578-0.045-0.797-0.234c-0.219-0.19-0.345-0.466-0.345-0.756v-5.224c0-3.586-0.888-4.67-1.416-4.997
					c-0.699-0.429-1.557-0.035-1.566-0.031c-0.247,0.125-0.539,0.14-0.801,0.041c-0.261-0.099-0.469-0.302-0.573-0.561
					c-0.024-0.055-0.715-1.593-2.8-1.593h-5.666c-3.945,0-7.154,3.202-7.154,7.139v5.226c0,0.29-0.126,0.565-0.345,0.756
					c-0.219,0.189-0.51,0.277-0.797,0.234c-0.063-0.01-0.129-0.017-0.196-0.017c-0.475,0.012-1.055,0.206-1.055,1.061v2.068
					c0,0.829,0.288,2.264,2.221,2.557c0.408,0.048,0.837,0.352,0.941,0.749c0.726,2.781,2.646,5.064,5.269,6.263
					c0.356,0.162,0.585,0.518,0.585,0.909v3.718c0,0.381-0.216,0.729-0.558,0.896l-4.363,2.151
					c-0.107,0.046-1.699,0.651-3.531,1.876c-0.251,0.168-0.563,0.214-0.853,0.124c-0.288-0.09-0.521-0.305-0.632-0.585
					c-2.021-5.074-8.376-7.531-8.44-7.556l-4.451-2.189c-0.342-0.168-0.558-0.516-0.558-0.896v-3.719
					c0-0.392,0.229-0.747,0.585-0.909c2.622-1.198,4.542-3.48,5.267-6.262c0.104-0.399,0.442-0.693,0.853-0.741
					c2.022-0.301,2.311-1.735,2.311-2.564v-2.068c0-0.854-0.58-1.049-1.066-1.061c-0.057,0-0.122,0.008-0.187,0.017
					c-0.285,0.043-0.578-0.045-0.796-0.235c-0.219-0.189-0.345-0.465-0.345-0.755v-5.225c0-3.568-0.879-4.656-1.403-4.988
					c-0.705-0.446-1.578-0.04-1.587-0.035c-0.249,0.119-0.539,0.131-0.797,0.031c-0.256-0.101-0.465-0.299-0.568-0.555
					c-0.024-0.055-0.715-1.593-2.8-1.593h-5.666c-3.945,0-7.154,3.202-7.154,7.139v5.226c0,0.29-0.126,0.565-0.345,0.755
					c-0.218,0.19-0.511,0.278-0.796,0.235c-0.064-0.009-0.13-0.017-0.197-0.017c-0.475,0.012-1.055,0.206-1.055,1.061v2.068
					c0,0.829,0.288,2.264,2.221,2.555c0.409,0.048,0.837,0.352,0.941,0.751c0.725,2.782,2.646,5.063,5.269,6.261
					c0.356,0.163,0.585,0.519,0.585,0.91v3.719c0,0.381-0.216,0.729-0.558,0.896l-4.363,2.151c-0.033,0.017-0.067,0.031-0.102,0.044
					c-0.228,0.086-9.061,3.521-9.061,10.742c0,1.259-0.074,2.671-0.153,4.165l-0.042,0.803c-0.027,0.531-0.467,0.948-0.999,0.948H1
					c-0.553,0-1-0.447-1-1v-15.34c0-29.745,21.101-55.976,50.173-62.37c0.348-0.076,0.711,0.038,0.952,0.301
					s0.323,0.635,0.217,0.975c-0.405,1.295-0.611,2.624-0.611,3.95c0,0.45,0.024,0.919,0.074,1.394
					c0.051,0.494-0.269,0.95-0.75,1.072c-1.378,0.349-2.34,1.575-2.34,2.984c0,1.706,1.392,3.094,3.102,3.094
					c0.548,0,1.08-0.151,1.581-0.45c0.426-0.253,0.977-0.156,1.288,0.229c2.536,3.126,6.296,4.919,10.314,4.919
					s7.778-1.793,10.314-4.919c0.312-0.386,0.861-0.483,1.288-0.229c0.501,0.299,1.033,0.45,1.581,0.45
					c1.71,0,3.102-1.388,3.102-3.094c0-1.409-0.962-2.636-2.34-2.984c-0.481-0.122-0.801-0.578-0.75-1.072
					c0.05-0.475,0.074-0.943,0.074-1.394c0-1.326-0.206-2.655-0.611-3.95c-0.106-0.34-0.024-0.712,0.217-0.975
					c0.24-0.263,0.603-0.377,0.952-0.301C106.899,35.006,128,61.236,128,90.981v15.34C128,106.874,127.553,107.321,127,107.321z
					 M113.709,105.321H126v-14.34c0-28.269-19.676-53.261-47.015-60.045c0.189,0.96,0.284,1.93,0.284,2.9
					c0,0.264-0.008,0.533-0.022,0.806c1.824,0.803,3.038,2.608,3.038,4.645c0,2.809-2.288,5.094-5.102,5.094
					c-0.623,0-1.245-0.121-1.835-0.354c-2.899,3.22-6.991,5.052-11.349,5.052s-8.449-1.832-11.349-5.052
					c-0.59,0.232-1.212,0.354-1.835,0.354c-2.813,0-5.102-2.285-5.102-5.094c0-2.036,1.214-3.842,3.038-4.645
					c-0.015-0.272-0.022-0.542-0.022-0.806c0-0.971,0.095-1.94,0.284-2.9C21.676,37.721,2,62.713,2,90.981v14.34h12.291
					c0.075-1.414,0.144-2.75,0.144-3.916c0-8.432,9.45-12.267,10.319-12.602l3.764-1.854v-2.474
					c-2.683-1.409-4.686-3.79-5.608-6.668c-2.114-0.519-3.407-2.177-3.407-4.432v-2.068c0-1.866,1.262-2.744,2.393-2.987v-4.272
					c0-5.039,4.106-9.139,9.154-9.139h5.666c2.282,0,3.558,1.185,4.175,2.025c0.751-0.151,1.725-0.135,2.615,0.417
					c1.569,0.969,2.365,3.223,2.365,6.697v4.271c1.131,0.243,2.394,1.122,2.394,2.988v2.068c0,2.254-1.292,3.911-3.408,4.432
					c-0.923,2.877-2.925,5.258-5.606,6.668v2.474l3.805,1.877l-0.016,0.031c1.8,0.575,6.718,3.187,9.018,7.533
					c1.428-0.85,2.561-1.308,2.814-1.406l3.765-1.856v-2.473c-2.682-1.41-4.685-3.791-5.608-6.669
					c-2.115-0.521-3.407-2.178-3.407-4.432v-2.068c0-1.866,1.262-2.744,2.393-2.987v-4.272c0-5.039,4.106-9.139,9.154-9.139h5.666
					c2.282,0,3.558,1.185,4.175,2.025c0.751-0.151,1.724-0.135,2.616,0.417c1.569,0.97,2.365,3.223,2.365,6.698v4.271
					c1.131,0.243,2.393,1.121,2.393,2.987v2.068c0,2.253-1.291,3.911-3.407,4.432c-0.923,2.877-2.926,5.258-5.607,6.668v2.474
					l3.764,1.856c0.254,0.099,1.386,0.557,2.813,1.405c2.704-5.148,8.817-7.5,9.093-7.604l3.717-1.836v-2.475
					c-2.683-1.409-4.686-3.79-5.608-6.668c-2.114-0.519-3.407-2.177-3.407-4.432v-2.068c0-1.866,1.262-2.744,2.393-2.988v-4.271
					c0-5.039,4.106-9.139,9.154-9.139h5.666c2.282,0,3.557,1.185,4.175,2.025c0.751-0.151,1.725-0.135,2.615,0.417
					c1.569,0.969,2.365,3.223,2.365,6.697v4.271c1.131,0.244,2.393,1.122,2.393,2.988v2.068c0,2.254-1.291,3.911-3.407,4.432
					c-0.923,2.877-2.925,5.258-5.606,6.668v2.474l3.805,1.877l-0.005,0.011c0.952,0.339,3.125,1.411,5.042,2.922
					c3.428,2.7,5.239,6.036,5.239,9.646C113.565,102.571,113.634,103.907,113.709,105.321z"/>
			</g>
		</g>
		<g>
			<g>
				<g>
					<path class="st5" d="M64,49.079c-4.624,0-8.949-2.062-11.867-5.659c-0.183-0.226-0.259-0.519-0.208-0.805
						c0.051-0.285,0.223-0.535,0.472-0.684c0.953-0.569,1.521-1.558,1.521-2.645c0-1.706-1.392-3.094-3.102-3.094
						c-0.226,0-0.468,0.035-0.762,0.109c-0.283,0.07-0.58,0.017-0.818-0.15c-0.237-0.166-0.392-0.428-0.422-0.717
						c-0.056-0.543-0.084-1.08-0.084-1.599c0-6.706,4.501-12.716,10.945-14.614c0.277-0.082,0.578-0.04,0.821,0.117
						c0.244,0.156,0.409,0.411,0.45,0.698c0.22,1.51,1.532,2.648,3.053,2.648s2.833-1.139,3.053-2.648
						c0.041-0.287,0.206-0.542,0.45-0.698c0.242-0.157,0.542-0.199,0.821-0.117c6.444,1.898,10.945,7.908,10.945,14.614
						c0,0.519-0.028,1.056-0.084,1.599c-0.03,0.289-0.185,0.551-0.422,0.717c-0.238,0.168-0.536,0.223-0.818,0.15
						c-0.294-0.074-0.536-0.109-0.762-0.109c-1.71,0-3.102,1.388-3.102,3.094c0,1.087,0.568,2.075,1.521,2.645
						c0.249,0.148,0.421,0.398,0.472,0.684c0.051,0.286-0.025,0.579-0.208,0.805C72.949,47.017,68.624,49.079,64,49.079z
						 M54.363,42.933c2.504,2.647,5.962,4.146,9.637,4.146s7.133-1.499,9.637-4.146c-0.988-0.946-1.555-2.245-1.555-3.646
						c0-2.809,2.288-5.094,5.102-5.094c0.027,0,0.054,0,0.081,0.001c0.003-0.12,0.005-0.239,0.005-0.357
						c0-5.484-3.466-10.433-8.544-12.37c-0.757,1.896-2.62,3.22-4.726,3.22s-3.969-1.323-4.726-3.22
						c-5.078,1.938-8.544,6.886-8.544,12.37c0,0.118,0.002,0.237,0.005,0.357c0.027-0.001,0.054-0.001,0.081-0.001
						c2.813,0,5.102,2.285,5.102,5.094C55.918,40.688,55.352,41.986,54.363,42.933z"/>
				</g>
			</g>
			<g>
				<g>
					<path class="st5" d="M64,24.687c-2.813,0-5.102-2.284-5.102-5.093S61.187,14.5,64,14.5s5.102,2.285,5.102,5.094
						S66.813,24.687,64,24.687z M64,16.5c-1.71,0-3.102,1.388-3.102,3.094c0,1.705,1.392,3.093,3.102,3.093s3.102-1.388,3.102-3.093
						C67.102,17.888,65.71,16.5,64,16.5z"/>
				</g>
			</g>
			<g>
				<g>
					<path class="st5" d="M50.816,44.381c-2.813,0-5.102-2.285-5.102-5.094s2.288-5.094,5.102-5.094s5.102,2.285,5.102,5.094
						S53.63,44.381,50.816,44.381z M50.816,36.193c-1.71,0-3.102,1.388-3.102,3.094s1.392,3.094,3.102,3.094
						s3.102-1.388,3.102-3.094S52.526,36.193,50.816,36.193z"/>
				</g>
			</g>
			<g>
				<g>
					<path class="st5" d="M77.184,44.381c-2.813,0-5.102-2.285-5.102-5.094s2.288-5.094,5.102-5.094s5.102,2.285,5.102,5.094
						S79.997,44.381,77.184,44.381z M77.184,36.193c-1.71,0-3.102,1.388-3.102,3.094s1.392,3.094,3.102,3.094
						s3.102-1.388,3.102-3.094S78.894,36.193,77.184,36.193z"/>
				</g>
			</g>
			<g>
				<g>
					<path class="st5" d="M74.906,36.884c-0.322,0-0.639-0.155-0.832-0.443l-8.627-12.887c-0.308-0.459-0.185-1.08,0.274-1.388
						c0.457-0.307,1.079-0.186,1.388,0.274l8.627,12.887c0.308,0.459,0.185,1.08-0.274,1.388
						C75.291,36.829,75.098,36.884,74.906,36.884z"/>
				</g>
			</g>
			<g>
				<g>
					<path class="st5" d="M53.094,36.884c-0.191,0-0.385-0.055-0.556-0.169c-0.459-0.308-0.582-0.929-0.274-1.388l8.627-12.887
						c0.308-0.459,0.93-0.581,1.388-0.274c0.459,0.308,0.582,0.929,0.274,1.388L53.926,36.44
						C53.732,36.729,53.416,36.884,53.094,36.884z"/>
				</g>
			</g>
			<g>
				<g>
					<path class="st5" d="M73.082,40.287H54.918c-0.553,0-1-0.447-1-1s0.447-1,1-1h18.164c0.553,0,1,0.447,1,1
						S73.635,40.287,73.082,40.287z"/>
				</g>
			</g>
		</g>
		<g>
			<g>
				<path class="st5" d="M123,107.321c-0.553,0-1-0.447-1-1v-2c0-0.553,0.447-1,1-1s1,0.447,1,1v2
					C124,106.874,123.553,107.321,123,107.321z M123,101.321c-0.553,0-1-0.447-1-1v-2c0-0.553,0.447-1,1-1s1,0.447,1,1v2
					C124,100.874,123.553,101.321,123,101.321z M123,95.321c-0.553,0-1-0.447-1-1v-2c0-0.553,0.447-1,1-1s1,0.447,1,1v2
					C124,94.874,123.553,95.321,123,95.321z M122.939,89.322c-0.531,0-0.974-0.418-0.998-0.955c-0.029-0.656-0.07-1.311-0.121-1.962
					c-0.043-0.551,0.368-1.032,0.919-1.075c0.539-0.044,1.032,0.369,1.075,0.919c0.053,0.673,0.094,1.349,0.125,2.028
					c0.025,0.552-0.402,1.019-0.954,1.044C122.971,89.322,122.955,89.322,122.939,89.322z M122.367,83.354
					c-0.488,0-0.915-0.357-0.988-0.854c-0.096-0.65-0.202-1.296-0.32-1.938c-0.1-0.543,0.26-1.064,0.803-1.164
					c0.55-0.104,1.065,0.26,1.164,0.803c0.122,0.666,0.232,1.335,0.332,2.007c0.081,0.547-0.297,1.055-0.843,1.136
					C122.465,83.351,122.415,83.354,122.367,83.354z M121.187,77.477c-0.446,0-0.854-0.301-0.968-0.754
					c-0.162-0.638-0.335-1.271-0.52-1.899c-0.155-0.53,0.149-1.086,0.679-1.241c0.532-0.156,1.086,0.149,1.241,0.679
					c0.19,0.652,0.369,1.309,0.537,1.97c0.137,0.535-0.188,1.079-0.723,1.215C121.353,77.467,121.27,77.477,121.187,77.477z
					 M119.408,71.74c-0.407,0-0.789-0.25-0.938-0.654c-0.228-0.617-0.465-1.229-0.712-1.838c-0.209-0.511,0.037-1.095,0.548-1.303
					c0.512-0.211,1.096,0.036,1.304,0.549c0.257,0.628,0.502,1.262,0.737,1.9c0.19,0.519-0.074,1.093-0.593,1.284
					C119.64,71.721,119.523,71.74,119.408,71.74z M117.05,66.223c-0.37,0-0.726-0.206-0.899-0.561
					c-0.288-0.59-0.587-1.174-0.896-1.753c-0.261-0.487-0.076-1.093,0.411-1.353c0.485-0.26,1.093-0.077,1.353,0.411
					c0.32,0.599,0.629,1.204,0.929,1.815c0.242,0.496,0.037,1.095-0.459,1.338C117.347,66.19,117.197,66.223,117.05,66.223z
					 M114.14,60.975c-0.334,0-0.66-0.167-0.85-0.471c-0.347-0.557-0.703-1.107-1.068-1.65c-0.309-0.458-0.188-1.08,0.271-1.388
					c0.459-0.311,1.08-0.188,1.388,0.271c0.379,0.562,0.747,1.133,1.107,1.709c0.292,0.469,0.149,1.085-0.319,1.378
					C114.504,60.926,114.32,60.975,114.14,60.975z M110.713,56.052c-0.299,0-0.595-0.133-0.792-0.388
					c-0.401-0.519-0.811-1.03-1.229-1.534c-0.353-0.425-0.294-1.055,0.131-1.408s1.055-0.294,1.408,0.131
					c0.433,0.521,0.857,1.051,1.272,1.587c0.338,0.437,0.258,1.065-0.179,1.403C111.142,55.983,110.927,56.052,110.713,56.052z
					 M106.805,51.5c-0.265,0-0.528-0.104-0.726-0.312c-0.45-0.475-0.909-0.942-1.376-1.4c-0.395-0.387-0.4-1.021-0.014-1.414
					c0.388-0.396,1.021-0.399,1.414-0.014c0.484,0.476,0.959,0.959,1.427,1.451c0.38,0.4,0.363,1.033-0.037,1.414
					C107.3,51.409,107.052,51.5,106.805,51.5z M102.46,47.366c-0.231,0-0.464-0.079-0.652-0.242c-0.496-0.427-1-0.845-1.511-1.255
					c-0.432-0.345-0.501-0.975-0.155-1.405s0.974-0.502,1.405-0.155c0.53,0.424,1.052,0.857,1.565,1.3
					c0.419,0.36,0.466,0.991,0.105,1.41C103.021,47.248,102.74,47.366,102.46,47.366z M97.722,43.693
					c-0.197,0-0.396-0.059-0.571-0.18c-0.536-0.374-1.079-0.74-1.63-1.096c-0.463-0.301-0.596-0.92-0.296-1.384
					c0.3-0.463,0.92-0.596,1.384-0.296c0.568,0.369,1.131,0.747,1.687,1.135c0.453,0.316,0.563,0.939,0.248,1.393
					C98.349,43.544,98.037,43.693,97.722,43.693z M92.639,40.519c-0.164,0-0.331-0.04-0.485-0.126
					c-0.571-0.318-1.148-0.626-1.731-0.926c-0.491-0.253-0.685-0.855-0.433-1.347c0.253-0.49,0.854-0.685,1.347-0.433
					c0.603,0.31,1.199,0.629,1.79,0.957c0.482,0.269,0.656,0.878,0.388,1.36C93.331,40.333,92.99,40.519,92.639,40.519z
					 M87.264,37.874c-0.133,0-0.267-0.026-0.396-0.081c-0.6-0.259-1.204-0.506-1.814-0.744c-0.514-0.201-0.769-0.781-0.567-1.296
					c0.201-0.515,0.78-0.768,1.296-0.567c0.63,0.246,1.256,0.503,1.877,0.77c0.507,0.219,0.741,0.807,0.523,1.314
					C88.02,37.647,87.65,37.874,87.264,37.874z M81.648,35.793c-0.099,0-0.2-0.015-0.3-0.046c-0.623-0.196-1.25-0.381-1.882-0.556
					c-0.532-0.147-0.845-0.698-0.697-1.23c0.148-0.533,0.705-0.842,1.23-0.697c0.653,0.181,1.304,0.373,1.948,0.575
					c0.527,0.166,0.819,0.728,0.654,1.254C82.468,35.52,82.074,35.793,81.648,35.793z"/>
			</g>
		</g>
		<g>
			<g>
				<path class="st5" d="M5,105.814c-0.553,0-1-0.447-1-1v-2c0-0.553,0.447-1,1-1s1,0.447,1,1v2C6,105.367,5.553,105.814,5,105.814z
					 M5,99.814c-0.553,0-1-0.447-1-1v-2c0-0.553,0.447-1,1-1s1,0.447,1,1v2C6,99.367,5.553,99.814,5,99.814z M5,93.814
					c-0.553,0-1-0.447-1-1v-1.999c0-0.553,0.447-1,1-1s1,0.447,1,1v1.999C6,93.367,5.553,93.814,5,93.814z M5.147,87.819
					c-0.023,0-0.047-0.001-0.071-0.003C4.525,87.778,4.11,87.3,4.149,86.749c0.047-0.679,0.105-1.354,0.177-2.026
					c0.057-0.549,0.527-0.954,1.099-0.89c0.549,0.058,0.947,0.549,0.89,1.099c-0.067,0.649-0.124,1.303-0.171,1.958
					C6.107,87.416,5.668,87.819,5.147,87.819z M5.872,81.867c-0.057,0-0.114-0.005-0.172-0.015
					c-0.544-0.095-0.909-0.612-0.814-1.156c0.116-0.671,0.244-1.337,0.384-1.999c0.113-0.54,0.646-0.888,1.185-0.772
					c0.54,0.113,0.886,0.644,0.772,1.185c-0.134,0.639-0.258,1.281-0.37,1.929C6.772,81.524,6.35,81.867,5.872,81.867z
					 M7.203,76.022c-0.091,0-0.182-0.012-0.273-0.038c-0.531-0.149-0.84-0.702-0.689-1.234c0.185-0.653,0.38-1.303,0.587-1.948
					c0.168-0.524,0.73-0.813,1.258-0.646c0.525,0.168,0.815,0.731,0.646,1.258c-0.199,0.622-0.389,1.25-0.567,1.882
					C8.04,75.735,7.639,76.022,7.203,76.022z M9.125,70.345c-0.123,0-0.249-0.022-0.37-0.071c-0.513-0.204-0.764-0.785-0.559-1.299
					c0.25-0.629,0.51-1.253,0.781-1.872c0.22-0.506,0.809-0.739,1.317-0.515c0.506,0.222,0.736,0.812,0.515,1.317
					c-0.262,0.598-0.514,1.202-0.756,1.81C9.898,70.106,9.522,70.345,9.125,70.345z M11.618,64.899
					c-0.156,0-0.314-0.036-0.462-0.113c-0.489-0.256-0.679-0.86-0.424-1.35c0.314-0.601,0.637-1.195,0.969-1.784
					c0.273-0.481,0.884-0.648,1.363-0.379c0.48,0.272,0.65,0.882,0.379,1.363c-0.322,0.569-0.635,1.145-0.938,1.726
					C12.327,64.704,11.979,64.899,11.618,64.899z M14.655,59.733c-0.188,0-0.379-0.053-0.548-0.164
					c-0.462-0.304-0.59-0.923-0.287-1.385c0.373-0.567,0.756-1.127,1.147-1.68c0.318-0.452,0.943-0.558,1.394-0.237
					c0.45,0.318,0.557,0.943,0.237,1.394c-0.378,0.533-0.747,1.073-1.106,1.621C15.3,59.575,14.98,59.733,14.655,59.733z
					 M18.202,54.9c-0.222,0-0.445-0.073-0.631-0.225c-0.428-0.349-0.492-0.979-0.144-1.407c0.428-0.525,0.865-1.043,1.31-1.554
					c0.365-0.416,0.997-0.458,1.411-0.097c0.416,0.363,0.46,0.994,0.097,1.411c-0.431,0.493-0.853,0.995-1.267,1.503
					C18.78,54.774,18.493,54.9,18.202,54.9z M22.22,50.449c-0.256,0-0.512-0.098-0.707-0.293c-0.391-0.391-0.391-1.023,0-1.414
					c0.479-0.479,0.966-0.95,1.46-1.414c0.402-0.377,1.035-0.356,1.413,0.046s0.357,1.035-0.046,1.413
					c-0.479,0.448-0.949,0.905-1.413,1.369C22.731,50.352,22.476,50.449,22.22,50.449z M26.666,46.424
					c-0.29,0-0.577-0.125-0.774-0.366c-0.351-0.428-0.287-1.058,0.14-1.407c0.526-0.431,1.059-0.851,1.598-1.262
					c0.442-0.337,1.067-0.25,1.401,0.188c0.335,0.439,0.251,1.066-0.188,1.401c-0.521,0.397-1.036,0.804-1.543,1.219
					C27.112,46.35,26.889,46.424,26.666,46.424z M31.496,42.867c-0.324,0-0.643-0.157-0.835-0.447
					c-0.305-0.461-0.179-1.081,0.281-1.387c0.565-0.374,1.138-0.738,1.717-1.095c0.47-0.288,1.085-0.143,1.376,0.329
					c0.289,0.471,0.142,1.087-0.329,1.376c-0.56,0.343-1.112,0.695-1.658,1.058C31.878,42.813,31.686,42.867,31.496,42.867z
					 M36.662,39.815c-0.36,0-0.708-0.194-0.887-0.536c-0.257-0.489-0.067-1.094,0.422-1.35c0.601-0.314,1.207-0.62,1.82-0.915
					c0.498-0.239,1.095-0.03,1.335,0.468c0.239,0.497,0.03,1.095-0.468,1.335c-0.592,0.285-1.179,0.579-1.76,0.884
					C36.978,39.779,36.818,39.815,36.662,39.815z M42.112,37.304c-0.396,0-0.772-0.237-0.929-0.629
					c-0.205-0.513,0.045-1.095,0.558-1.3c0.63-0.252,1.265-0.493,1.904-0.725c0.518-0.188,1.093,0.081,1.28,0.601
					c0.188,0.519-0.081,1.093-0.601,1.28c-0.618,0.224-1.231,0.457-1.842,0.701C42.362,37.281,42.236,37.304,42.112,37.304z
					 M47.792,35.361c-0.436,0-0.836-0.286-0.961-0.727c-0.151-0.531,0.157-1.084,0.688-1.235c0.651-0.186,1.308-0.361,1.969-0.526
					c0.535-0.13,1.079,0.193,1.213,0.729c0.133,0.536-0.193,1.079-0.729,1.213c-0.64,0.159-1.274,0.329-1.906,0.509
					C47.976,35.35,47.883,35.361,47.792,35.361z"/>
			</g>
		</g>
		<g>
			<g>
				<g>
					<g>
						<path class="st5" d="M64.001,103.013c-0.371,0-0.711-0.205-0.884-0.533l-4.366-8.263c-0.076-0.144-0.116-0.304-0.116-0.467
							v-3.723c0-0.34,0.173-0.657,0.459-0.841c0.287-0.185,0.645-0.209,0.956-0.069c2.514,1.146,5.388,1.147,7.901,0.001
							c0.312-0.142,0.67-0.114,0.956,0.069s0.459,0.501,0.459,0.841v3.722c0,0.163-0.04,0.323-0.116,0.467l-4.365,8.263
							C64.712,102.808,64.372,103.013,64.001,103.013z M60.635,93.502l3.366,6.37l3.365-6.37v-2.025
							c-2.18,0.67-4.55,0.671-6.731-0.001V93.502z"/>
					</g>
				</g>
				<g>
					<g>
						<path class="st5" d="M82.642,113.5H45.358c-0.274,0-0.536-0.112-0.725-0.312c-0.189-0.198-0.288-0.466-0.274-0.739
							l0.044-0.845c0.076-1.452,0.148-2.825,0.148-4.021c0-8.431,9.45-12.266,10.32-12.601l4.32-2.13
							c0.487-0.242,1.073-0.05,1.326,0.43l3.483,6.59l3.48-6.59c0.252-0.479,0.838-0.672,1.326-0.43l4.319,2.13
							c0.87,0.335,10.32,4.17,10.32,12.601c0,1.195,0.072,2.568,0.148,4.021l0.044,0.845c0.014,0.273-0.085,0.541-0.274,0.739
							C83.178,113.388,82.916,113.5,82.642,113.5z M46.412,111.5h35.176c-0.073-1.402-0.14-2.727-0.14-3.916
							c0-7.254-8.979-10.712-9.07-10.746l-3.581-1.762l-3.911,7.404c-0.345,0.655-1.421,0.657-1.768,0l-3.913-7.403l-3.491,1.721
							c-0.183,0.074-9.162,3.532-9.162,10.786C46.552,108.773,46.485,110.098,46.412,111.5z"/>
					</g>
				</g>
				<g>
					<g>
						<path class="st5" d="M64,91.979c-5.028,0-9.452-3.256-10.974-7.993c-2.115-0.521-3.407-2.178-3.407-4.432v-2.068
							c0-1.866,1.262-2.744,2.393-2.987v-4.272c0-5.039,4.106-9.139,9.154-9.139h5.666c2.282,0,3.558,1.185,4.175,2.025
							c0.751-0.151,1.724-0.135,2.616,0.417c1.569,0.97,2.365,3.223,2.365,6.698v4.271c1.131,0.243,2.393,1.121,2.393,2.987v2.068
							c0,2.253-1.291,3.911-3.407,4.432C73.452,88.725,69.028,91.979,64,91.979z M52.674,76.426
							c-0.475,0.012-1.055,0.206-1.055,1.061v2.068c0,0.829,0.288,2.264,2.221,2.557c0.409,0.048,0.838,0.352,0.941,0.75
							c1.092,4.191,4.883,7.118,9.219,7.118s8.127-2.927,9.219-7.118c0.104-0.399,0.442-0.693,0.853-0.741
							c2.021-0.302,2.31-1.736,2.31-2.565v-2.068c0-0.853-0.576-1.048-1.062-1.061c-0.065,0.001-0.128,0.008-0.189,0.017
							c-0.286,0.043-0.578-0.045-0.797-0.234c-0.219-0.19-0.345-0.466-0.345-0.756v-5.224c0-3.568-0.88-4.657-1.403-4.989
							c-0.703-0.443-1.578-0.039-1.588-0.035c-0.25,0.12-0.54,0.131-0.797,0.031c-0.256-0.101-0.465-0.299-0.568-0.555
							c-0.024-0.055-0.715-1.593-2.8-1.593h-5.666c-3.945,0-7.154,3.202-7.154,7.139v5.226c0,0.29-0.126,0.565-0.345,0.756
							c-0.219,0.189-0.51,0.277-0.797,0.234C52.807,76.433,52.741,76.426,52.674,76.426z"/>
					</g>
				</g>
				<g>
					<g>
						<path class="st5" d="M72.869,77.704c-0.237,0-0.477-0.04-0.715-0.133c-1.652-0.639-1.652-3.188-1.652-4.026
							c0-1.428-1.164-2.589-2.596-2.589h-7.812c-1.432,0-2.596,1.161-2.596,2.589c0,0.838,0,3.388-1.652,4.026
							c-1.581,0.618-3.255-1.096-3.573-1.446c-0.372-0.408-0.343-1.04,0.066-1.412c0.406-0.372,1.038-0.344,1.411,0.064
							c0.49,0.534,1.175,0.956,1.386,0.926c-0.01-0.004,0.362-0.358,0.362-2.158c0-2.53,2.062-4.589,4.596-4.589h7.812
							c2.534,0,4.596,2.059,4.596,4.589c0,1.83,0.385,2.166,0.389,2.169c0.149,0.042,0.867-0.401,1.36-0.937
							c0.373-0.406,1.005-0.435,1.411-0.062c0.407,0.372,0.437,1.002,0.065,1.409C75.457,76.423,74.212,77.704,72.869,77.704z"/>
					</g>
				</g>
			</g>
			<g>
				<g>
					<g>
						<path class="st5" d="M94.118,96.834L94.118,96.834c-0.371,0-0.711-0.205-0.884-0.533l-4.365-8.263
							c-0.076-0.144-0.116-0.304-0.116-0.467v-3.723c0-0.34,0.173-0.657,0.459-0.841c0.288-0.184,0.649-0.208,0.956-0.069
							c2.512,1.146,5.388,1.147,7.901,0c0.311-0.141,0.669-0.115,0.956,0.069c0.286,0.184,0.459,0.501,0.459,0.841v3.723
							c0,0.163-0.04,0.323-0.116,0.467l-4.366,8.263C94.829,96.629,94.489,96.834,94.118,96.834z M90.753,87.323l3.365,6.37
							l3.366-6.37v-2.026c-2.182,0.672-4.552,0.671-6.731,0.001V87.323z"/>
					</g>
				</g>
				<g>
					<g>
						<path class="st5" d="M112.76,107.321H82.354c-0.502,0-0.926-0.372-0.991-0.87c-0.485-3.687-3.284-6.262-5.547-7.772
							c-0.392-0.263-0.548-0.763-0.374-1.201c2.349-5.907,9.301-8.581,9.595-8.691l4.274-2.112c0.487-0.237,1.073-0.049,1.327,0.431
							l3.48,6.593l3.482-6.593c0.252-0.479,0.838-0.672,1.326-0.43l4.362,2.151l-0.005,0.011c0.952,0.339,3.125,1.411,5.042,2.922
							c3.428,2.7,5.239,6.036,5.239,9.646c0,1.206,0.073,2.592,0.15,4.06l0.043,0.805c0.014,0.274-0.085,0.542-0.274,0.74
							C113.296,107.209,113.034,107.321,112.76,107.321z M83.193,105.321h28.513c-0.074-1.402-0.141-2.728-0.141-3.916
							c0-7.254-8.979-10.713-9.069-10.747l-3.581-1.761l-3.911,7.404c-0.077,0.147-0.19,0.272-0.329,0.365
							c-0.238,0.159-0.535,0.21-0.812,0.136s-0.512-0.262-0.64-0.519l-3.899-7.386l-3.491,1.721c-0.033,0.017-0.066,0.031-0.1,0.043
							c-0.187,0.071-5.836,2.279-8.111,6.838C79.896,99.16,82.414,101.735,83.193,105.321z"/>
					</g>
				</g>
				<g>
					<g>
						<path class="st5" d="M94.117,85.801c-5.028,0-9.451-3.256-10.973-7.993c-2.115-0.52-3.407-2.178-3.407-4.432v-2.068
							c0-1.866,1.262-2.744,2.393-2.988v-4.271c0-5.039,4.106-9.139,9.154-9.139h5.666c2.282,0,3.557,1.185,4.175,2.025
							c0.748-0.149,1.724-0.135,2.615,0.417c1.569,0.969,2.365,3.223,2.365,6.698v4.27c1.131,0.244,2.393,1.122,2.393,2.988v2.068
							c0,2.254-1.291,3.911-3.407,4.432C103.569,82.545,99.146,85.801,94.117,85.801z M82.791,70.247
							c-0.475,0.012-1.054,0.206-1.054,1.061v2.068c0,0.829,0.288,2.264,2.22,2.555c0.409,0.048,0.838,0.352,0.942,0.751
							c1.092,4.191,4.883,7.119,9.218,7.119c4.336,0,8.127-2.928,9.219-7.119c0.104-0.399,0.442-0.693,0.853-0.741
							c2.021-0.301,2.31-1.735,2.31-2.564v-2.068c0-0.957-0.737-1.061-1.054-1.061c-0.068,0-0.134,0.008-0.198,0.017
							c-0.287,0.043-0.577-0.045-0.796-0.235c-0.219-0.189-0.345-0.465-0.345-0.755V64.05c0-3.568-0.88-4.657-1.403-4.989
							c-0.707-0.446-1.578-0.04-1.587-0.035c-0.25,0.119-0.54,0.131-0.796,0.031c-0.257-0.1-0.466-0.299-0.569-0.554
							c-0.024-0.055-0.715-1.594-2.8-1.594h-5.666c-3.945,0-7.154,3.202-7.154,7.139v5.226c0,0.29-0.126,0.565-0.345,0.755
							c-0.219,0.19-0.509,0.278-0.796,0.235C82.925,70.255,82.859,70.247,82.791,70.247z"/>
					</g>
				</g>
				<g>
					<g>
						<path class="st5" d="M102.986,71.525c-0.237,0-0.477-0.04-0.715-0.133c-1.652-0.639-1.652-3.188-1.652-4.026
							c0-1.428-1.164-2.589-2.596-2.589h-7.812c-1.432,0-2.596,1.161-2.596,2.589c0,0.838,0,3.388-1.652,4.026
							c-1.58,0.616-3.255-1.097-3.573-1.446c-0.372-0.408-0.343-1.04,0.066-1.412c0.408-0.372,1.04-0.341,1.412,0.065
							c0.49,0.533,1.177,0.953,1.385,0.925c-0.01-0.004,0.362-0.358,0.362-2.158c0-2.53,2.062-4.589,4.596-4.589h7.812
							c2.534,0,4.596,2.059,4.596,4.589c0,1.83,0.385,2.166,0.389,2.169c0.152,0.043,0.867-0.401,1.36-0.937
							c0.373-0.406,1.006-0.435,1.411-0.062c0.407,0.372,0.437,1.002,0.065,1.409C105.574,70.244,104.329,71.525,102.986,71.525z"/>
					</g>
				</g>
			</g>
			<g>
				<g>
					<g>
						<path class="st5" d="M33.884,96.834c-0.371,0-0.711-0.205-0.884-0.533l-4.366-8.263c-0.076-0.144-0.116-0.304-0.116-0.467
							v-3.723c0-0.34,0.173-0.657,0.459-0.841c0.288-0.184,0.649-0.208,0.956-0.069c2.512,1.146,5.39,1.146,7.901,0
							c0.307-0.14,0.668-0.115,0.956,0.069c0.286,0.184,0.459,0.501,0.459,0.841v3.723c0,0.163-0.04,0.323-0.116,0.467l-4.365,8.263
							C34.595,96.629,34.255,96.834,33.884,96.834z M30.518,87.323l3.366,6.37l3.365-6.37v-2.025c-2.181,0.67-4.553,0.67-6.731,0
							V87.323z"/>
					</g>
				</g>
				<g>
					<g>
						<path class="st5" d="M45.646,107.321H15.24c-0.274,0-0.536-0.112-0.725-0.312c-0.189-0.198-0.288-0.466-0.274-0.74
							l0.043-0.805c0.077-1.468,0.15-2.854,0.15-4.06c0-8.432,9.45-12.267,10.319-12.602l4.321-2.13
							c0.486-0.237,1.072-0.049,1.327,0.431l3.48,6.592l3.482-6.592c0.252-0.479,0.838-0.672,1.326-0.43l4.362,2.151l-0.016,0.031
							c1.945,0.622,7.533,3.621,9.521,8.62c0.174,0.438,0.018,0.938-0.374,1.201c-2.263,1.511-5.062,4.086-5.547,7.772
							C46.572,106.949,46.148,107.321,45.646,107.321z M16.294,105.321h28.513c0.779-3.586,3.297-6.161,5.572-7.821
							c-2.3-4.607-8.059-6.819-8.12-6.843l-3.579-1.76l-3.913,7.406c-0.147,0.281-0.421,0.475-0.734,0.522
							c-0.314,0.043-0.633-0.057-0.856-0.282c-0.071-0.07-0.133-0.153-0.18-0.242l-3.908-7.403l-3.491,1.721
							c-0.033,0.017-0.067,0.031-0.102,0.044c-0.229,0.087-9.061,3.522-9.061,10.742C16.435,102.594,16.368,103.919,16.294,105.321z
							"/>
					</g>
				</g>
				<g>
					<g>
						<path class="st5" d="M33.883,85.801c-5.028,0-9.452-3.256-10.974-7.993c-2.114-0.519-3.407-2.177-3.407-4.432v-2.068
							c0-1.866,1.262-2.744,2.393-2.987v-4.272c0-5.039,4.106-9.139,9.154-9.139h5.666c2.282,0,3.558,1.185,4.175,2.025
							c0.751-0.151,1.725-0.135,2.615,0.417c1.569,0.969,2.365,3.223,2.365,6.698v4.27c1.131,0.243,2.394,1.122,2.394,2.988v2.068
							c0,2.254-1.292,3.911-3.408,4.432C43.334,82.545,38.911,85.801,33.883,85.801z M22.557,70.247
							c-0.475,0.012-1.055,0.206-1.055,1.061v2.068c0,0.829,0.288,2.264,2.221,2.555c0.409,0.048,0.837,0.352,0.941,0.751
							c1.092,4.191,4.883,7.119,9.219,7.119c4.335,0,8.126-2.928,9.218-7.119c0.104-0.399,0.442-0.693,0.853-0.741
							c2.022-0.301,2.311-1.735,2.311-2.564v-2.068c0-0.853-0.576-1.048-1.062-1.061c-0.065,0.001-0.129,0.008-0.191,0.017
							c-0.285,0.043-0.578-0.045-0.796-0.235c-0.219-0.189-0.345-0.465-0.345-0.755V64.05c0-3.568-0.88-4.657-1.403-4.989
							c-0.705-0.446-1.578-0.04-1.587-0.035c-0.249,0.119-0.539,0.131-0.797,0.031c-0.256-0.101-0.465-0.299-0.568-0.555
							c-0.024-0.055-0.715-1.593-2.8-1.593h-5.666c-3.945,0-7.154,3.202-7.154,7.139v5.226c0,0.29-0.126,0.565-0.345,0.755
							c-0.218,0.19-0.511,0.278-0.796,0.235C22.689,70.255,22.624,70.247,22.557,70.247z"/>
					</g>
				</g>
				<g>
					<g>
						<path class="st5" d="M42.751,71.525c-0.237,0-0.477-0.04-0.715-0.133c-1.652-0.639-1.652-3.188-1.652-4.026
							c0-1.428-1.164-2.589-2.596-2.589h-7.812c-1.432,0-2.596,1.161-2.596,2.589c0,0.838,0,3.388-1.652,4.026
							c-1.58,0.616-3.255-1.097-3.573-1.446c-0.372-0.408-0.343-1.04,0.066-1.412c0.406-0.372,1.038-0.344,1.411,0.064
							c0.49,0.534,1.172,0.954,1.386,0.926c-0.01-0.004,0.362-0.358,0.362-2.158c0-2.53,2.062-4.589,4.596-4.589h7.812
							c2.534,0,4.596,2.059,4.596,4.589c0,1.83,0.385,2.166,0.389,2.169c0.169,0.043,0.867-0.401,1.36-0.937
							c0.374-0.406,1.005-0.435,1.411-0.062c0.407,0.372,0.437,1.002,0.065,1.409C45.339,70.244,44.094,71.525,42.751,71.525z"/>
					</g>
				</g>
			</g>
			<g>
				<g>
					<path class="st5" d="M71.682,109.349c-1.672,0-3.032-1.358-3.032-3.027c0-1.67,1.36-3.028,3.032-3.028s3.031,1.358,3.031,3.028
						C74.713,107.99,73.354,109.349,71.682,109.349z M71.682,105.293c-0.569,0-1.032,0.461-1.032,1.028
						c0,0.566,0.463,1.027,1.032,1.027c0.568,0,1.031-0.461,1.031-1.027C72.713,105.754,72.25,105.293,71.682,105.293z"/>
				</g>
			</g>
			<g>
				<g>
					<path class="st5" d="M103.799,102.75c-1.672,0-3.032-1.358-3.032-3.027c0-1.67,1.36-3.028,3.032-3.028s3.031,1.358,3.031,3.028
						C106.83,101.392,105.471,102.75,103.799,102.75z M103.799,98.694c-0.569,0-1.032,0.461-1.032,1.028
						c0,0.566,0.463,1.027,1.032,1.027c0.568,0,1.031-0.461,1.031-1.027C104.83,99.155,104.367,98.694,103.799,98.694z"/>
				</g>
			</g>
			<g>
				<g>
					<path class="st5" d="M39.563,103.17c-1.672,0-3.031-1.358-3.031-3.027c0-1.67,1.359-3.028,3.031-3.028s3.032,1.358,3.032,3.028
						C42.596,101.812,41.235,103.17,39.563,103.17z M39.563,99.114c-0.568,0-1.031,0.461-1.031,1.028
						c0,0.566,0.463,1.027,1.031,1.027c0.569,0,1.032-0.461,1.032-1.027C40.596,99.575,40.133,99.114,39.563,99.114z"/>
				</g>
			</g>
		</g>
	</g>
</g>
</svg>
