<?xml version="1.0" encoding="utf-8"?>
<!-- Generator: Adobe Illustrator 22.0.0, SVG Export Plug-In . SVG Version: 6.00 Build 0)  -->
<svg version="1.1" id="MARKET_RESEARCH_ICON_SET" xmlns="http://www.w3.org/2000/svg" xmlns:xlink="http://www.w3.org/1999/xlink"
	 x="0px" y="0px" viewBox="0 0 128 128" style="enable-background:new 0 0 128 128;" xml:space="preserve">
<style type="text/css">
	.st0{fill:#C2D5EC;}
	.st1{fill:#61E1FF;}
	.st2{fill:#7184AF;}
	.st3{fill:#F8F8F8;}
	.st4{fill:#3F4D81;}
	.st5{fill:#3F4D80;}
	.st6{fill:#E9EAEB;}
	.st7{fill:#F79559;}
	.st8{fill:#FFA85A;}
</style>
<g>
	<g>
		<g>
			
				<ellipse transform="matrix(0.9998 -0.0199 0.0199 0.9998 -1.2637 1.2892)" class="st0" cx="63.999" cy="64" rx="57.198" ry="54.499"/>
		</g>
		<g>
			
				<ellipse transform="matrix(0.9998 -0.0199 0.0199 0.9998 -1.2637 1.2892)" class="st2" cx="63.999" cy="64" rx="46.831" ry="44.621"/>
		</g>
		<g>
			<path class="st6" d="M87.838,85.485c-2.209,0-4-1.783-4-3.982V46.497c0-2.199,1.791-3.982,4-3.982h3.028
				c-6.487-7.078-16.113-11.569-26.867-11.569s-20.38,4.491-26.867,11.569h3.03c2.209,0,4,1.783,4,3.982v35.006
				c0,2.199-1.791,3.982-4,3.982h-3.03c6.487,7.078,16.113,11.569,26.867,11.569s20.38-4.491,26.867-11.569H87.838z"/>
		</g>
		<g>
			<path class="st8" d="M40.162,85.485H4.999c-2.209,0-4-1.783-4-3.982V46.497c0-2.199,1.791-3.982,4-3.982h35.162
				c2.209,0,4,1.783,4,3.982v35.007C44.162,83.703,42.371,85.485,40.162,85.485z"/>
		</g>
		<g>
			<path class="st3" d="M44.119,45.951c-0.07-0.01-0.13-0.01-0.2-0.01H6.179c-0.79,0-1.42,0.637-1.42,1.424v37.562
				c0,0.189,0.01,0.368,0.04,0.548c-2.12-0.1-3.8-1.842-3.8-3.972V46.498c0-2.2,1.79-3.982,4-3.982h35.16
				C42.189,42.516,43.859,44.009,44.119,45.951z"/>
		</g>
		<g>
			<path class="st1" d="M123.001,85.485H87.838c-2.209,0-4-1.783-4-3.982V46.497c0-2.199,1.791-3.982,4-3.982h35.162
				c2.209,0,4,1.783,4,3.982v35.007C127.001,83.703,125.21,85.485,123.001,85.485z"/>
		</g>
		<g>
			<path class="st3" d="M126.979,46.11c-0.09-0.01-0.19-0.01-0.28-0.01h-37.62c-0.85,0-1.54,0.687-1.54,1.533v37.453
				c0,0.13,0.01,0.259,0.02,0.388c-2.08-0.14-3.72-1.862-3.72-3.972V46.498c0-2.2,1.79-3.982,4-3.982h35.16
				C125.079,42.516,126.789,44.089,126.979,46.11z"/>
		</g>
		<g>
			<ellipse class="st5" cx="22.581" cy="42.515" rx="3.248" ry="3.233"/>
		</g>
		<g>
			<ellipse class="st5" cx="105.42" cy="85.485" rx="3.248" ry="3.233"/>
		</g>
	</g>
	<g>
		<g>
			<g>
				<g>
					<g>
						<g>
							<path class="st5" d="M28.992,71.384c-0.255,0-0.511-0.097-0.705-0.291L15.631,58.492c-0.392-0.39-0.394-1.023-0.004-1.414
								s1.024-0.394,1.414-0.004l12.656,12.601c0.392,0.39,0.394,1.023,0.004,1.414C29.506,71.285,29.249,71.384,28.992,71.384z"/>
						</g>
					</g>
					<g>
						<g>
							<path class="st5" d="M16.336,71.384c-0.257,0-0.514-0.099-0.709-0.295c-0.39-0.391-0.388-1.024,0.004-1.414l12.656-12.601
								c0.39-0.391,1.024-0.388,1.414,0.004c0.39,0.391,0.388,1.024-0.004,1.414L17.041,71.093
								C16.847,71.287,16.591,71.384,16.336,71.384z"/>
						</g>
					</g>
				</g>
				<g>
					<g>
						<g>
							<path class="st5" d="M34.112,71.919c-0.177,0-0.355-0.047-0.519-0.146c-0.472-0.286-0.622-0.901-0.335-1.374
								C34.437,68.46,35.06,66.246,35.06,64s-0.623-4.46-1.801-6.399c-0.287-0.473-0.137-1.088,0.335-1.374
								c0.475-0.286,1.088-0.136,1.374,0.335c1.368,2.254,2.092,4.826,2.092,7.438s-0.724,5.185-2.092,7.438
								C34.78,71.748,34.45,71.919,34.112,71.919z"/>
						</g>
					</g>
					<g>
						<g>
							<path class="st5" d="M11.049,71.919c-0.338,0-0.668-0.171-0.855-0.48C8.825,69.185,8.102,66.612,8.102,64
								s0.724-5.185,2.092-7.438c0.285-0.472,0.899-0.622,1.374-0.335c0.472,0.286,0.622,0.901,0.335,1.374
								c-1.178,1.939-1.801,4.153-1.801,6.399s0.623,4.46,1.801,6.399c0.287,0.473,0.137,1.088-0.335,1.374
								C11.404,71.872,11.226,71.919,11.049,71.919z"/>
						</g>
					</g>
				</g>
			</g>
			<g>
				<g>
					<path class="st5" d="M40.161,86.485H4.999c-2.757,0-5-2.235-5-4.982V46.497c0-2.747,2.243-4.982,5-4.982h35.162
						c2.757,0,5,2.235,5,4.982v35.006C45.161,84.25,42.918,86.485,40.161,86.485z M4.999,43.515c-1.654,0-3,1.338-3,2.982v35.006
						c0,1.645,1.346,2.982,3,2.982h35.162c1.654,0,3-1.338,3-2.982V46.497c0-1.645-1.346-2.982-3-2.982H4.999z"/>
				</g>
			</g>
		</g>
		<g>
			<g>
				<g>
					<path class="st5" d="M123.001,86.485H87.839c-2.757,0-5-2.235-5-4.982V46.497c0-2.747,2.243-4.982,5-4.982h35.162
						c2.757,0,5,2.235,5,4.982v35.006C128.001,84.25,125.758,86.485,123.001,86.485z M87.839,43.515c-1.654,0-3,1.338-3,2.982
						v35.006c0,1.645,1.346,2.982,3,2.982h35.162c1.654,0,3-1.338,3-2.982V46.497c0-1.645-1.346-2.982-3-2.982H87.839z"/>
				</g>
			</g>
			<g>
				<g>
					<g>
						<g>
							<path class="st5" d="M105.421,65c-0.304,0-0.604-0.138-0.8-0.398l-6.329-8.4c-0.332-0.44-0.244-1.068,0.197-1.4
								c0.441-0.333,1.069-0.242,1.4,0.197l6.329,8.4c0.332,0.44,0.244,1.068-0.197,1.4C105.842,64.935,105.63,65,105.421,65z"/>
						</g>
					</g>
					<g>
						<g>
							<path class="st5" d="M105.419,65c-0.209,0-0.421-0.065-0.601-0.201c-0.441-0.332-0.529-0.959-0.197-1.4l6.328-8.4
								c0.331-0.44,0.96-0.53,1.4-0.197c0.441,0.332,0.529,0.959,0.197,1.4l-6.328,8.4C106.022,64.862,105.723,65,105.419,65z"/>
						</g>
					</g>
					<g>
						<g>
							<path class="st5" d="M105.42,73.4c-0.553,0-1-0.447-1-1V64c0-0.553,0.447-1,1-1s1,0.447,1,1v8.4
								C106.42,72.953,105.973,73.4,105.42,73.4z"/>
						</g>
					</g>
				</g>
				<g>
					<g>
						<g>
							<path class="st5" d="M116.951,71.919c-0.177,0-0.355-0.047-0.519-0.146c-0.472-0.286-0.622-0.901-0.335-1.374
								c1.178-1.939,1.801-4.153,1.801-6.399s-0.623-4.46-1.801-6.399c-0.287-0.473-0.137-1.088,0.335-1.374
								c0.477-0.286,1.089-0.136,1.374,0.335c1.368,2.254,2.092,4.826,2.092,7.438s-0.724,5.185-2.092,7.438
								C117.619,71.748,117.289,71.919,116.951,71.919z"/>
						</g>
					</g>
					<g>
						<g>
							<path class="st5" d="M93.888,71.919c-0.338,0-0.668-0.171-0.855-0.48C91.664,69.185,90.94,66.612,90.94,64
								s0.724-5.185,2.092-7.438c0.285-0.472,0.898-0.622,1.374-0.335c0.472,0.286,0.622,0.901,0.335,1.374
								C93.563,59.54,92.94,61.754,92.94,64s0.623,4.46,1.801,6.399c0.287,0.473,0.137,1.088-0.335,1.374
								C94.243,71.872,94.064,71.919,93.888,71.919z"/>
						</g>
					</g>
				</g>
			</g>
		</g>
		<g>
			<g>
				<path class="st5" d="M22.58,43.515c-0.179,0-0.359-0.048-0.522-0.148c-0.471-0.289-0.618-0.904-0.328-1.375
					C30.814,27.205,46.616,18.378,64,18.378c11.785,0,23.203,4.192,32.151,11.806c0.42,0.358,0.471,0.989,0.113,1.41
					c-0.359,0.421-0.989,0.47-1.41,0.113C86.269,24.401,75.311,20.378,64,20.378c-16.684,0-31.849,8.471-40.567,22.66
					C23.244,43.346,22.916,43.515,22.58,43.515z"/>
			</g>
		</g>
		<g>
			<g>
				<path class="st5" d="M64,109.622c-11.785,0-23.203-4.192-32.151-11.806c-0.42-0.358-0.471-0.989-0.113-1.41
					c0.359-0.422,0.99-0.47,1.41-0.113c8.586,7.306,19.544,11.329,30.854,11.329c16.683,0,31.849-8.471,40.568-22.66
					c0.288-0.472,0.904-0.618,1.375-0.328c0.471,0.289,0.618,0.904,0.328,1.375C97.186,100.795,81.383,109.622,64,109.622z"/>
			</g>
		</g>
		<g>
			<g>
				<path class="st5" d="M29.695,101.479c-0.223,0-0.446-0.074-0.632-0.226c-0.428-0.35-0.491-0.979-0.142-1.407l5.733-7.011
					c0.35-0.429,0.98-0.49,1.407-0.142c0.428,0.35,0.491,0.979,0.142,1.407l-5.733,7.011
					C30.272,101.354,29.985,101.479,29.695,101.479z"/>
			</g>
		</g>
		<g>
			<g>
				<path class="st5" d="M92.701,35.37c-0.223,0-0.446-0.074-0.632-0.226c-0.428-0.35-0.491-0.979-0.142-1.407l5.733-7.01
					c0.351-0.429,0.979-0.49,1.407-0.142c0.428,0.35,0.491,0.98,0.142,1.407l-5.733,7.01C93.278,35.245,92.991,35.37,92.701,35.37z"
					/>
			</g>
		</g>
		<g>
			<g>
				<path class="st5" d="M63.488,98.052c-0.005,0-0.01,0-0.015,0c-0.687-0.01-1.369-0.037-2.047-0.081
					c-0.552-0.036-0.97-0.512-0.934-1.062c0.035-0.551,0.518-0.965,1.062-0.934c0.645,0.042,1.294,0.067,1.947,0.077
					c0.552,0.008,0.993,0.462,0.985,1.015C64.48,97.613,64.034,98.052,63.488,98.052z M67.481,97.896
					c-0.511,0-0.947-0.39-0.995-0.908c-0.051-0.55,0.354-1.037,0.904-1.088c0.65-0.06,1.296-0.136,1.934-0.228
					c0.556-0.09,1.055,0.3,1.133,0.846c0.079,0.547-0.3,1.055-0.846,1.133c-0.673,0.098-1.352,0.178-2.037,0.241
					C67.543,97.896,67.512,97.896,67.481,97.896z M57.521,97.5c-0.056,0-0.113-0.005-0.17-0.015
					c-0.679-0.116-1.351-0.252-2.015-0.404c-0.538-0.124-0.875-0.66-0.751-1.198s0.664-0.875,1.198-0.751
					c0.629,0.145,1.264,0.272,1.905,0.383c0.545,0.093,0.91,0.61,0.816,1.154C58.422,97.156,57.999,97.5,57.521,97.5z
					 M73.388,96.876c-0.445,0-0.852-0.3-0.968-0.751c-0.138-0.534,0.185-1.08,0.72-1.218c0.631-0.162,1.255-0.341,1.87-0.535
					c0.531-0.165,1.088,0.127,1.255,0.653c0.166,0.526-0.127,1.089-0.653,1.255c-0.648,0.204-1.308,0.393-1.974,0.564
					C73.555,96.866,73.471,96.876,73.388,96.876z M51.718,96.003c-0.108,0-0.219-0.018-0.327-0.055
					c-0.649-0.225-1.29-0.467-1.921-0.725c-0.512-0.209-0.757-0.793-0.548-1.304c0.209-0.512,0.793-0.757,1.304-0.548
					c0.598,0.244,1.205,0.473,1.819,0.686c0.521,0.181,0.799,0.751,0.618,1.272C52.52,95.743,52.132,96.003,51.718,96.003z
					 M79.055,94.916c-0.385,0-0.751-0.223-0.916-0.597c-0.223-0.506,0.007-1.096,0.512-1.318c0.596-0.263,1.182-0.54,1.757-0.833
					c0.492-0.249,1.094-0.054,1.345,0.438c0.25,0.492,0.054,1.095-0.438,1.345c-0.608,0.309-1.228,0.604-1.856,0.88
					C79.325,94.889,79.188,94.916,79.055,94.916z M46.235,93.584c-0.162,0-0.326-0.039-0.479-0.122
					c-0.603-0.329-1.194-0.673-1.775-1.032c-0.47-0.29-0.614-0.907-0.324-1.377c0.291-0.47,0.907-0.615,1.377-0.324
					c0.55,0.34,1.11,0.666,1.682,0.978c0.484,0.265,0.663,0.872,0.398,1.357C46.933,93.396,46.59,93.584,46.235,93.584z
					 M84.319,92.052c-0.325,0-0.645-0.158-0.837-0.451c-0.303-0.461-0.175-1.081,0.287-1.385c0.542-0.356,1.073-0.728,1.593-1.112
					c0.441-0.329,1.069-0.237,1.398,0.207c0.329,0.443,0.236,1.069-0.207,1.398c-0.549,0.408-1.111,0.801-1.687,1.179
					C84.698,91.999,84.508,92.052,84.319,92.052z M41.232,90.288c-0.217,0-0.435-0.07-0.618-0.215
					c-0.539-0.425-1.065-0.864-1.577-1.317c-0.414-0.366-0.453-0.998-0.087-1.411c0.365-0.414,1-0.451,1.411-0.087
					c0.484,0.428,0.981,0.844,1.491,1.245c0.434,0.342,0.508,0.97,0.166,1.404C41.821,90.157,41.528,90.288,41.232,90.288z
					 M89.027,88.345c-0.267,0-0.532-0.106-0.729-0.315c-0.378-0.403-0.357-1.036,0.045-1.414c0.474-0.443,0.933-0.899,1.377-1.367
					c0.379-0.402,1.013-0.418,1.413-0.038c0.401,0.38,0.418,1.013,0.038,1.413c-0.47,0.497-0.958,0.98-1.46,1.451
					C89.519,88.255,89.272,88.345,89.027,88.345z M87.839,86.485c-0.837,0-1.665-0.21-2.396-0.608
					c-0.484-0.264-0.664-0.871-0.399-1.356c0.265-0.484,0.868-0.664,1.356-0.399c0.438,0.238,0.936,0.364,1.438,0.364
					c0.553,0,1,0.447,1,1S88.392,86.485,87.839,86.485z M39.532,86.485h-2c-0.553,0-1-0.447-1-1s0.447-1,1-1h2c0.553,0,1,0.447,1,1
					S40.085,86.485,39.532,86.485z M43.148,85.151c-0.238,0-0.477-0.084-0.668-0.256c-0.411-0.368-0.445-1.001-0.076-1.412
					c0.335-0.373,0.57-0.827,0.682-1.312c0.123-0.538,0.661-0.876,1.198-0.751c0.538,0.123,0.875,0.66,0.751,1.198
					c-0.187,0.813-0.582,1.574-1.143,2.2C43.695,85.039,43.422,85.151,43.148,85.151z M83.847,82.774
					c-0.522,0-0.963-0.406-0.997-0.935c-0.007-0.111-0.011-0.225-0.011-0.337v-1.729c0-0.553,0.447-1,1-1s1,0.447,1,1v1.729
					c0,0.069,0.002,0.138,0.007,0.206c0.036,0.552-0.382,1.027-0.933,1.063C83.891,82.773,83.868,82.774,83.847,82.774z
					 M44.161,79.404c-0.553,0-1-0.447-1-1v-2c0-0.553,0.447-1,1-1s1,0.447,1,1v2C45.161,78.957,44.714,79.404,44.161,79.404z
					 M83.839,76.774c-0.553,0-1-0.447-1-1v-2c0-0.553,0.447-1,1-1s1,0.447,1,1v2C84.839,76.327,84.392,76.774,83.839,76.774z
					 M44.161,73.404c-0.553,0-1-0.447-1-1v-2c0-0.553,0.447-1,1-1s1,0.447,1,1v2C45.161,72.957,44.714,73.404,44.161,73.404z
					 M83.839,70.774c-0.553,0-1-0.447-1-1v-2c0-0.553,0.447-1,1-1s1,0.447,1,1v2C84.839,70.327,84.392,70.774,83.839,70.774z
					 M44.161,67.404c-0.553,0-1-0.447-1-1v-2c0-0.553,0.447-1,1-1s1,0.447,1,1v2C45.161,66.957,44.714,67.404,44.161,67.404z
					 M83.839,64.774c-0.553,0-1-0.447-1-1v-2c0-0.553,0.447-1,1-1s1,0.447,1,1v2C84.839,64.327,84.392,64.774,83.839,64.774z
					 M44.161,61.404c-0.553,0-1-0.447-1-1v-2c0-0.553,0.447-1,1-1s1,0.447,1,1v2C45.161,60.957,44.714,61.404,44.161,61.404z
					 M83.839,58.774c-0.553,0-1-0.447-1-1v-2c0-0.553,0.447-1,1-1s1,0.447,1,1v2C84.839,58.327,84.392,58.774,83.839,58.774z
					 M44.161,55.404c-0.553,0-1-0.447-1-1v-2c0-0.553,0.447-1,1-1s1,0.447,1,1v2C45.161,54.957,44.714,55.404,44.161,55.404z
					 M83.839,52.774c-0.553,0-1-0.447-1-1v-2c0-0.553,0.447-1,1-1s1,0.447,1,1v2C84.839,52.327,84.392,52.774,83.839,52.774z
					 M44.161,49.404c-0.553,0-1-0.447-1-1v-1.907c0-0.546,0.438-1.038,0.984-1.046c0.542-0.014,0.997,0.376,1.015,0.922
					c0,0.011,0.001,0.113,0.001,0.124v1.907C45.161,48.957,44.714,49.404,44.161,49.404z M83.904,46.779
					c-0.06,0-0.12-0.005-0.181-0.017c-0.544-0.099-0.903-0.62-0.804-1.163c0.15-0.823,0.511-1.601,1.042-2.249
					c0.349-0.426,0.979-0.491,1.407-0.14c0.428,0.35,0.489,0.98,0.14,1.407c-0.317,0.387-0.532,0.851-0.622,1.341
					C84.799,46.441,84.378,46.779,83.904,46.779z M42.233,44.091c-0.176,0-0.354-0.046-0.517-0.145
					c-0.428-0.259-0.919-0.406-1.421-0.429c-0.552-0.024-0.979-0.491-0.955-1.043s0.515-0.991,1.043-0.955
					c0.835,0.036,1.653,0.284,2.368,0.716c0.473,0.285,0.624,0.899,0.338,1.373C42.902,43.919,42.572,44.091,42.233,44.091z
					 M90.289,43.515h-2c-0.553,0-1-0.447-1-1s0.447-1,1-1h2c0.553,0,1,0.447,1,1S90.842,43.515,90.289,43.515z M37.674,42.938
					c-0.249,0-0.499-0.093-0.693-0.279c-0.397-0.383-0.41-1.016-0.027-1.414c0.474-0.493,0.964-0.975,1.468-1.441
					c0.404-0.377,1.037-0.353,1.413,0.054c0.376,0.405,0.352,1.038-0.054,1.413c-0.477,0.441-0.938,0.896-1.386,1.361
					C38.198,42.835,37.937,42.938,37.674,42.938z M88.432,41.111c-0.237,0-0.476-0.084-0.666-0.254
					c-0.482-0.432-0.979-0.849-1.485-1.254c-0.432-0.344-0.502-0.973-0.157-1.405c0.345-0.431,0.973-0.502,1.405-0.157
					c0.536,0.427,1.06,0.869,1.569,1.324c0.412,0.368,0.447,1.001,0.08,1.412C88.979,40.999,88.706,41.111,88.432,41.111z
					 M42.184,38.989c-0.308,0-0.611-0.142-0.808-0.408c-0.326-0.445-0.23-1.071,0.215-1.398c0.551-0.403,1.115-0.794,1.691-1.169
					c0.462-0.302,1.082-0.169,1.384,0.294c0.301,0.463,0.169,1.082-0.294,1.384c-0.545,0.354-1.078,0.723-1.598,1.104
					C42.596,38.927,42.389,38.989,42.184,38.989z M83.64,37.513c-0.182,0-0.364-0.049-0.529-0.152
					c-0.548-0.343-1.107-0.672-1.676-0.984c-0.483-0.268-0.659-0.876-0.393-1.359c0.267-0.482,0.874-0.658,1.359-0.393
					c0.6,0.331,1.19,0.679,1.77,1.041c0.469,0.293,0.61,0.91,0.317,1.378C84.299,37.347,83.973,37.513,83.64,37.513z M47.296,35.861
					c-0.367,0-0.72-0.202-0.896-0.552c-0.247-0.494-0.047-1.095,0.446-1.343c0.611-0.306,1.231-0.597,1.861-0.87
					c0.509-0.221,1.095,0.013,1.315,0.519s-0.012,1.096-0.519,1.315c-0.597,0.26-1.184,0.535-1.762,0.825
					C47.599,35.827,47.446,35.861,47.296,35.861z M78.315,34.77c-0.128,0-0.258-0.024-0.383-0.076
					c-0.597-0.247-1.201-0.479-1.814-0.694c-0.521-0.183-0.796-0.754-0.612-1.274c0.183-0.522,0.756-0.798,1.274-0.612
					c0.648,0.228,1.288,0.473,1.918,0.733c0.51,0.211,0.752,0.796,0.541,1.307C79.08,34.537,78.707,34.77,78.315,34.77z
					 M52.856,33.622c-0.427,0-0.822-0.275-0.955-0.704c-0.163-0.527,0.132-1.088,0.659-1.251c0.65-0.201,1.31-0.387,1.976-0.556
					c0.534-0.133,1.08,0.189,1.215,0.725s-0.189,1.079-0.725,1.215c-0.633,0.159-1.257,0.335-1.874,0.526
					C53.054,33.607,52.954,33.622,52.856,33.622z M72.612,32.934c-0.076,0-0.152-0.009-0.229-0.026
					c-0.628-0.147-1.264-0.278-1.904-0.393c-0.544-0.097-0.906-0.615-0.81-1.159c0.096-0.543,0.616-0.909,1.159-0.81
					c0.678,0.12,1.349,0.259,2.012,0.414c0.537,0.126,0.871,0.664,0.745,1.202C73.477,32.623,73.066,32.934,72.612,32.934z
					 M58.704,32.312c-0.491,0-0.92-0.361-0.989-0.861c-0.076-0.547,0.305-1.053,0.852-1.129c0.674-0.095,1.354-0.172,2.039-0.23
					c0.554-0.062,1.034,0.359,1.082,0.91c0.048,0.55-0.36,1.035-0.91,1.082c-0.65,0.057-1.295,0.13-1.934,0.219
					C58.797,32.31,58.75,32.312,58.704,32.312z M66.686,32.04c-0.023,0-0.048-0.001-0.071-0.003
					c-0.645-0.045-1.293-0.074-1.945-0.086c-0.553-0.011-0.992-0.467-0.981-1.019c0.011-0.552,0.454-1,1.019-0.981
					c0.688,0.014,1.371,0.043,2.049,0.092c0.552,0.039,0.966,0.517,0.927,1.067C67.645,31.638,67.206,32.04,66.686,32.04z"/>
			</g>
		</g>
		<g>
			<g>
				<g>
					<g>
						<path class="st5" d="M63.999,72.771c-0.553,0-1-0.447-1-1v-4.752c0-0.553,0.447-1,1-1s1,0.447,1,1v4.752
							C64.999,72.323,64.552,72.771,63.999,72.771z"/>
					</g>
				</g>
				<g>
					<g>
						<path class="st5" d="M63.999,61.981c-0.553,0-1-0.447-1-1v-4.752c0-0.553,0.447-1,1-1s1,0.447,1,1v4.752
							C64.999,61.534,64.552,61.981,63.999,61.981z"/>
					</g>
				</g>
			</g>
			<g>
				<g>
					<g>
						<path class="st5" d="M60.968,65h-2c-0.553,0-1-0.447-1-1s0.447-1,1-1h2c0.553,0,1,0.447,1,1S61.521,65,60.968,65z M54.968,65
							h-2c-0.553,0-1-0.447-1-1s0.447-1,1-1h2c0.553,0,1,0.447,1,1S55.521,65,54.968,65z M48.968,65h-2c-0.553,0-1-0.447-1-1
							s0.447-1,1-1h2c0.553,0,1,0.447,1,1S49.521,65,48.968,65z"/>
					</g>
				</g>
				<g>
					<g>
						<path class="st5" d="M81.031,65h-2c-0.553,0-1-0.447-1-1s0.447-1,1-1h2c0.553,0,1,0.447,1,1S81.584,65,81.031,65z M75.031,65
							h-2c-0.553,0-1-0.447-1-1s0.447-1,1-1h2c0.553,0,1,0.447,1,1S75.584,65,75.031,65z M69.031,65h-2c-0.553,0-1-0.447-1-1
							s0.447-1,1-1h2c0.553,0,1,0.447,1,1S69.584,65,69.031,65z"/>
					</g>
				</g>
			</g>
			<g>
				<g>
					<g>
						<path class="st5" d="M61.855,62.866c-0.255,0-0.511-0.097-0.706-0.291l-3.375-3.361c-0.391-0.391-0.393-1.023-0.003-1.415
							c0.392-0.389,1.023-0.393,1.415-0.003l3.375,3.361c0.391,0.391,0.393,1.023,0.003,1.415
							C62.368,62.768,62.112,62.866,61.855,62.866z"/>
					</g>
				</g>
				<g>
					<g>
						<path class="st5" d="M69.519,70.495c-0.255,0-0.511-0.097-0.706-0.291l-3.375-3.361c-0.391-0.391-0.393-1.023-0.003-1.415
							c0.392-0.389,1.023-0.393,1.415-0.003l3.375,3.361c0.391,0.391,0.393,1.023,0.003,1.415
							C70.031,70.396,69.775,70.495,69.519,70.495z"/>
					</g>
				</g>
			</g>
			<g>
				<g>
					<g>
						<path class="st5" d="M66.144,62.866c-0.257,0-0.513-0.099-0.709-0.294c-0.39-0.392-0.388-1.024,0.003-1.415l3.375-3.361
							c0.392-0.391,1.023-0.387,1.415,0.003c0.39,0.392,0.388,1.024-0.003,1.415l-3.375,3.361
							C66.654,62.77,66.398,62.866,66.144,62.866z"/>
					</g>
				</g>
				<g>
					<g>
						<path class="st5" d="M58.48,70.495c-0.257,0-0.513-0.099-0.709-0.294c-0.39-0.392-0.388-1.024,0.003-1.415l3.375-3.361
							c0.392-0.391,1.023-0.387,1.415,0.003c0.39,0.392,0.388,1.024-0.003,1.415l-3.375,3.361
							C58.991,70.398,58.735,70.495,58.48,70.495z"/>
					</g>
				</g>
			</g>
		</g>
	</g>
</g>
</svg>
