<?xml version="1.0" encoding="utf-8"?>
<!-- Generator: Adobe Illustrator 22.0.0, SVG Export Plug-In . SVG Version: 6.00 Build 0)  -->
<svg version="1.1" id="MARKET_RESEARCH_ICON_SET" xmlns="http://www.w3.org/2000/svg" xmlns:xlink="http://www.w3.org/1999/xlink"
	 x="0px" y="0px" viewBox="0 0 128 128" style="enable-background:new 0 0 128 128;" xml:space="preserve">
<style type="text/css">
	.st0{fill:#C2D5EC;}
	.st1{fill:#61E1FF;}
	.st2{fill:#7184AF;}
	.st3{fill:#F8F8F8;}
	.st4{fill:#3F4D81;}
	.st5{fill:#3F4D80;}
	.st6{fill:#E9EAEB;}
	.st7{fill:#F79559;}
	.st8{fill:#FFA85A;}
</style>
<g>
	<g>
		<path class="st0" d="M103.928,80.625c0-5.944,4.479-10.835,10.24-11.481c-1.303-5.739-3.557-11.112-6.595-15.946
			c-1.971,1.576-4.465,2.523-7.182,2.523c-6.371,0-11.536-5.175-11.536-11.559c0-2.723,0.946-5.221,2.518-7.197
			c-4.825-3.043-10.187-5.302-15.914-6.608c-0.645,5.772-5.526,10.26-11.458,10.26s-10.813-4.488-11.458-10.26
			c-5.728,1.306-11.09,3.564-15.914,6.608c1.572,1.975,2.518,4.474,2.518,7.197c0,6.384-5.165,11.559-11.536,11.559
			c-2.718,0-5.211-0.948-7.182-2.523c-3.037,4.834-5.292,10.207-6.595,15.946c5.76,0.646,10.24,5.537,10.24,11.481
			s-4.479,10.835-10.24,11.481c0.931,4.099,2.356,8.007,4.196,11.67h27.133c-6.697-5.478-10.976-13.813-10.976-23.151
			c0-16.499,13.348-29.874,29.814-29.874s29.814,13.375,29.814,29.874c0,9.338-4.278,17.673-10.976,23.151h27.133
			c1.84-3.663,3.265-7.572,4.196-11.67C108.408,91.46,103.928,86.569,103.928,80.625z"/>
		<g>
			<g>
				<path class="st4" d="M64,44.626c6.371,0,11.536-5.175,11.536-11.559c0-0.69-0.071-1.363-0.187-2.02
					c-0.942,5.434-5.656,9.571-11.349,9.571s-10.406-4.137-11.349-9.571c-0.116,0.657-0.187,1.33-0.187,2.02
					C52.464,39.45,57.629,44.626,64,44.626z"/>
			</g>
			<g>
				<path class="st4" d="M100.391,59.729c3.466,0,6.567-1.539,8.682-3.964c-0.479-0.87-0.973-1.729-1.499-2.567
					c-1.971,1.576-4.465,2.523-7.182,2.523c-5.688,0-10.403-4.128-11.351-9.555c-0.114,0.652-0.185,1.319-0.185,2.004
					C88.855,54.554,94.02,59.729,100.391,59.729z"/>
			</g>
			<g>
				<path class="st4" d="M27.609,59.729c6.371,0,11.536-5.175,11.536-11.559c0-0.685-0.071-1.352-0.185-2.004
					c-0.949,5.427-5.664,9.555-11.351,9.555c-2.718,0-5.211-0.947-7.182-2.523c-0.527,0.838-1.02,1.698-1.499,2.567
					C21.042,58.19,24.143,59.729,27.609,59.729z"/>
			</g>
			<g>
				<path class="st4" d="M104.11,82.647c-0.112,0.647-0.182,1.308-0.182,1.986c0,5.577,3.942,10.23,9.186,11.318
					c0.394-1.264,0.757-2.54,1.053-3.844C109.077,91.535,104.992,87.646,104.11,82.647z"/>
			</g>
			<g>
				<path class="st4" d="M24.072,84.633c0-0.679-0.07-1.34-0.182-1.987c-0.881,5-4.966,8.889-10.057,9.46
					c0.296,1.304,0.659,2.581,1.053,3.844C20.13,94.863,24.072,90.21,24.072,84.633z"/>
			</g>
		</g>
		<g>
			<g>
				<ellipse class="st8" cx="64" cy="29.059" rx="11.536" ry="11.559"/>
			</g>
			<g>
				<path class="st8" d="M100.391,32.604c-6.371,0-11.536,5.175-11.536,11.559c0,6.384,5.165,11.559,11.536,11.559
					s11.536-5.175,11.536-11.559C111.926,37.778,106.762,32.604,100.391,32.604z"/>
			</g>
			<g>
				<path class="st8" d="M27.609,32.604c-6.371,0-11.536,5.175-11.536,11.559c0,6.384,5.165,11.559,11.536,11.559
					s11.536-5.175,11.536-11.559C39.145,37.778,33.98,32.604,27.609,32.604z"/>
			</g>
			<g>
				<ellipse class="st8" cx="115.464" cy="80.625" rx="11.536" ry="11.559"/>
			</g>
			<g>
				<ellipse class="st8" cx="12.536" cy="80.625" rx="11.536" ry="11.559"/>
			</g>
			<g>
				<path class="st7" d="M12.536,69.067C6.165,69.067,1,74.241,1,80.625c0,6.384,5.165,11.559,11.536,11.559
					s11.536-5.175,11.536-11.559C24.072,74.241,18.907,69.067,12.536,69.067z"/>
			</g>
			<g>
				<g>
					<ellipse class="st5" cx="59.749" cy="26.733" rx="2.321" ry="2.326"/>
				</g>
				<g>
					<ellipse class="st5" cx="68.251" cy="26.733" rx="2.321" ry="2.326"/>
				</g>
			</g>
			<g>
				<g>
					<ellipse class="st5" cx="96.14" cy="41.837" rx="2.321" ry="2.326"/>
				</g>
				<g>
					<ellipse class="st5" cx="104.641" cy="41.837" rx="2.321" ry="2.326"/>
				</g>
			</g>
			<g>
				<g>
					<ellipse class="st5" cx="23.359" cy="41.837" rx="2.321" ry="2.326"/>
				</g>
				<g>
					<ellipse class="st5" cx="31.86" cy="41.837" rx="2.321" ry="2.326"/>
				</g>
			</g>
			<g>
				<g>
					<ellipse class="st5" cx="111.213" cy="78.3" rx="2.321" ry="2.326"/>
				</g>
				<g>
					<ellipse class="st5" cx="119.715" cy="78.3" rx="2.321" ry="2.326"/>
				</g>
			</g>
			<g>
				<path class="st5" d="M115.464,87.981c-1.839,0-3.536-0.929-4.54-2.485c-0.231-0.358-0.248-0.813-0.045-1.187
					c0.203-0.375,0.594-0.608,1.019-0.608h7.131c0.425,0,0.816,0.233,1.019,0.608c0.203,0.374,0.186,0.829-0.045,1.187
					C119,87.052,117.303,87.981,115.464,87.981z"/>
			</g>
		</g>
		<g>
			<g>
				<path class="st1" d="M64,50.752c-16.466,0-29.814,13.375-29.814,29.874S47.534,110.499,64,110.499s29.814-13.375,29.814-29.874
					S80.466,50.752,64,50.752z M64,103.777c-12.761,0-23.105-10.365-23.105-23.151c0-12.786,10.345-23.151,23.105-23.151
					s23.105,10.365,23.105,23.151C87.105,93.411,76.761,103.777,64,103.777z"/>
			</g>
			<g>
				<g>
					<path class="st3" d="M37.66,80.621c0-15.912,12.42-28.917,28.08-29.819c-0.58-0.03-1.16-0.05-1.74-0.05
						c-16.47,0-29.81,13.377-29.81,29.869C34.19,97.123,47.53,110.5,64,110.5c0.58,0,1.16-0.02,1.74-0.05
						C50.08,109.548,37.66,96.542,37.66,80.621z"/>
				</g>
			</g>
			<g>
				<path class="st2" d="M63.818,68.595V57.479c-9.549,0.074-17.717,5.951-21.167,14.286L52.9,76.018
					C54.683,71.71,58.89,68.67,63.818,68.595z"/>
			</g>
			<g>
				<g>
					<path class="st8" d="M77.581,61.914l-5.009,10.288c1.068,1.092,1.935,2.382,2.528,3.817l10.249-4.254
						C83.709,67.802,80.994,64.407,77.581,61.914z"/>
				</g>
				<g>
					<path class="st8" d="M68.493,69.46l7.565-8.569c-3.511-2.16-7.635-3.417-12.058-3.417c-0.061,0-0.121,0.004-0.182,0.005v11.117
						c0.061-0.001,0.121-0.009,0.182-0.009C65.589,68.586,67.105,68.898,68.493,69.46z"/>
				</g>
			</g>
			<g>
				<path class="st7" d="M85.349,71.765L75.1,76.018c0.588,1.42,0.915,2.974,0.915,4.607c0,3.324-1.345,6.334-3.519,8.513
					l7.842,7.857c4.181-4.19,6.767-9.977,6.767-16.37C87.105,77.486,86.479,74.494,85.349,71.765z"/>
			</g>
			<g>
				<path class="st3" d="M51.985,80.625c0-1.632,0.328-3.187,0.915-4.607l-10.249-4.254c-1.13,2.73-1.756,5.721-1.756,8.861
					c0,6.393,2.586,12.181,6.767,16.37l7.842-7.857C53.33,86.96,51.985,83.95,51.985,80.625z"/>
			</g>
			<g>
				<path class="st4" d="M77.908,58.795L61.285,77.625c-0.241,0.219-0.467,0.46-0.657,0.744c-1.244,1.866-0.743,4.388,1.119,5.635
					c1.862,1.246,4.38,0.745,5.624-1.121c0.189-0.284,0.325-0.585,0.435-0.892l11-22.593C79.084,58.825,78.328,58.319,77.908,58.795
					z"/>
			</g>
		</g>
	</g>
	<g>
		<g>
			<g>
				<g>
					<path class="st5" d="M64,111.499c-16.991,0-30.814-13.85-30.814-30.874c0-17.023,13.823-30.873,30.814-30.873
						s30.814,13.85,30.814,30.873C94.814,97.649,80.991,111.499,64,111.499z M64,51.752c-15.888,0-28.814,12.952-28.814,28.873
						S48.112,109.499,64,109.499s28.814-12.953,28.814-28.874S79.888,51.752,64,51.752z"/>
				</g>
			</g>
			<g>
				<g>
					<path class="st5" d="M64,104.776c-13.292,0-24.105-10.834-24.105-24.151S50.708,56.474,64,56.474s24.105,10.834,24.105,24.151
						S77.292,104.776,64,104.776z M64,58.474c-12.189,0-22.105,9.938-22.105,22.151S51.811,102.776,64,102.776
						s22.105-9.938,22.105-22.151S76.189,58.474,64,58.474z"/>
				</g>
			</g>
			<g>
				<g>
					<g>
						<path class="st5" d="M52.9,77.019c-0.13,0-0.261-0.025-0.383-0.076l-10.249-4.254c-0.51-0.212-0.752-0.796-0.541-1.307
							c3.716-8.978,12.384-14.828,22.083-14.903c0.238-0.025,0.523,0.103,0.712,0.29c0.189,0.188,0.295,0.443,0.295,0.71v11.117
							c0,0.547-0.438,0.991-0.985,1c-4.397,0.066-8.326,2.737-10.009,6.806c-0.102,0.245-0.296,0.439-0.542,0.541
							C53.16,76.993,53.03,77.019,52.9,77.019z M43.978,71.232l8.417,3.493c2.025-3.998,5.963-6.673,10.424-7.078v-9.139
							C54.666,58.941,47.439,63.822,43.978,71.232z M63.818,68.596h0.01H63.818z"/>
					</g>
				</g>
				<g>
					<g>
						<g>
							<path class="st5" d="M75.1,77.019c-0.13,0-0.26-0.025-0.382-0.076c-0.246-0.102-0.44-0.296-0.542-0.541
								c-0.538-1.3-1.318-2.478-2.319-3.501c-0.295-0.302-0.369-0.757-0.184-1.137l5.009-10.287
								c0.129-0.267,0.371-0.462,0.658-0.533c0.287-0.07,0.592-0.012,0.831,0.163c3.608,2.635,6.411,6.188,8.103,10.275
								c0.211,0.511-0.031,1.095-0.541,1.307l-10.249,4.254C75.361,76.993,75.23,77.019,75.1,77.019z M73.771,72.023
								c0.728,0.827,1.342,1.731,1.835,2.702l8.417-3.493c-1.408-3.005-3.486-5.662-6.08-7.776L73.771,72.023z"/>
						</g>
					</g>
					<g>
						<g>
							<path class="st5" d="M68.493,70.46c-0.126,0-0.253-0.023-0.375-0.073c-1.311-0.531-2.696-0.801-4.118-0.801l-0.166,0.01
								c-0.258-0.004-0.526-0.099-0.718-0.287c-0.191-0.188-0.298-0.445-0.298-0.713V57.479c0-0.553,0.448-1,1-1L64,56.474
								c4.439,0,8.791,1.232,12.582,3.565c0.251,0.154,0.421,0.412,0.465,0.704c0.043,0.292-0.044,0.588-0.24,0.81l-7.565,8.569
								C69.049,70.342,68.774,70.46,68.493,70.46z M64.818,67.611c1.156,0.072,2.288,0.297,3.381,0.671l6.302-7.138
								c-2.984-1.62-6.295-2.529-9.683-2.655V67.611z"/>
						</g>
					</g>
				</g>
				<g>
					<g>
						<path class="st5" d="M80.338,97.996c-0.266,0-0.52-0.105-0.708-0.294l-7.842-7.857c-0.389-0.39-0.389-1.022,0-1.412
							c2.081-2.085,3.227-4.858,3.227-7.808c0-1.457-0.282-2.878-0.839-4.225c-0.211-0.51,0.031-1.094,0.541-1.306l10.249-4.254
							c0.245-0.102,0.52-0.102,0.766,0c0.245,0.102,0.44,0.296,0.542,0.541c1.216,2.938,1.833,6.047,1.833,9.243
							c0,6.451-2.507,12.516-7.06,17.077C80.858,97.891,80.604,97.996,80.338,97.996z M73.882,89.112l6.44,6.452
							c3.737-4.091,5.783-9.357,5.783-14.939c0-2.596-0.443-5.129-1.318-7.545l-8.416,3.494c0.428,1.307,0.644,2.665,0.644,4.051
							C77.015,83.772,75.91,86.75,73.882,89.112z"/>
					</g>
				</g>
				<g>
					<g>
						<path class="st5" d="M47.662,97.996c-0.266,0-0.52-0.105-0.708-0.294c-4.552-4.562-7.06-10.626-7.06-17.077
							c0-3.196,0.617-6.306,1.833-9.243c0.102-0.245,0.296-0.439,0.542-0.541c0.244-0.103,0.521-0.103,0.766,0l10.249,4.254
							c0.51,0.212,0.751,0.796,0.541,1.306c-0.557,1.347-0.839,2.768-0.839,4.225c0,2.949,1.146,5.723,3.227,7.808
							c0.389,0.39,0.389,1.022,0,1.412l-7.842,7.857C48.182,97.891,47.928,97.996,47.662,97.996z M43.213,73.08
							c-0.875,2.416-1.318,4.949-1.318,7.545c0,5.582,2.046,10.849,5.783,14.939l6.44-6.452c-2.027-2.362-3.133-5.34-3.133-8.487
							c0-1.386,0.216-2.744,0.644-4.051L43.213,73.08z"/>
					</g>
				</g>
				<g>
					<g>
						<path class="st5" d="M63.99,85.689c-0.99,0-1.958-0.292-2.799-0.855c-2.316-1.55-2.941-4.699-1.394-7.021
							c0.206-0.308,0.459-0.6,0.774-0.891l16.587-18.79c0,0,0,0,0,0c0.518-0.585,1.365-0.695,2.015-0.262
							c0.65,0.435,0.874,1.26,0.531,1.963L68.728,82.381c-0.149,0.404-0.321,0.751-0.524,1.057c-0.75,1.126-1.894,1.891-3.219,2.153
							C64.653,85.657,64.32,85.689,63.99,85.689z M76.443,61.965L62.035,78.287c-0.024,0.027-0.05,0.054-0.078,0.079
							c-0.215,0.194-0.373,0.371-0.496,0.557c-0.937,1.405-0.559,3.312,0.843,4.249c0.678,0.454,1.489,0.613,2.291,0.458
							c0.8-0.159,1.491-0.622,1.945-1.302c0.123-0.185,0.226-0.398,0.325-0.675c0.012-0.034,0.026-0.068,0.042-0.101L76.443,61.965z
							 M61.285,77.625h0.01H61.285z M78.657,59.457L78.657,59.457L78.657,59.457z"/>
					</g>
				</g>
			</g>
		</g>
		<g>
			<g>
				<g>
					<path class="st5" d="M64,41.617c-6.912,0-12.536-5.634-12.536-12.559S57.088,16.5,64,16.5s12.536,5.634,12.536,12.559
						S70.912,41.617,64,41.617z M64,18.5c-5.81,0-10.536,4.736-10.536,10.559S58.19,39.617,64,39.617s10.536-4.736,10.536-10.559
						S69.81,18.5,64,18.5z"/>
				</g>
			</g>
			<g>
				<g>
					<path class="st5" d="M68.251,34.299h-8.502c-0.552,0-1-0.447-1-1s0.448-1,1-1h8.502c0.552,0,1,0.447,1,1
						S68.803,34.299,68.251,34.299z"/>
				</g>
			</g>
		</g>
		<g>
			<g>
				<g>
					<path class="st5" d="M100.391,56.721c-6.912,0-12.536-5.634-12.536-12.559s5.624-12.559,12.536-12.559
						s12.536,5.634,12.536,12.559S107.303,56.721,100.391,56.721z M100.391,33.604c-5.81,0-10.536,4.736-10.536,10.559
						s4.726,10.559,10.536,10.559s10.536-4.736,10.536-10.559S106.2,33.604,100.391,33.604z"/>
				</g>
			</g>
			<g>
				<g>
					<path class="st5" d="M100.391,51.355c-1.784,0-3.431-0.901-4.406-2.411c-0.299-0.464-0.166-1.082,0.298-1.382
						c0.465-0.3,1.083-0.168,1.383,0.298c0.604,0.936,1.623,1.495,2.725,1.495s2.121-0.559,2.725-1.495
						c0.3-0.465,0.918-0.598,1.382-0.298c0.464,0.299,0.598,0.918,0.298,1.382C103.822,50.454,102.175,51.355,100.391,51.355z"/>
				</g>
			</g>
		</g>
		<g>
			<g>
				<g>
					<path class="st5" d="M27.609,56.721c-6.912,0-12.536-5.634-12.536-12.559s5.624-12.559,12.536-12.559
						s12.536,5.634,12.536,12.559S34.521,56.721,27.609,56.721z M27.609,33.604c-5.81,0-10.536,4.736-10.536,10.559
						S21.8,54.721,27.609,54.721s10.536-4.736,10.536-10.559S33.419,33.604,27.609,33.604z"/>
				</g>
			</g>
			<g>
				<g>
					<path class="st5" d="M31.176,51.355c-0.328,0-0.65-0.161-0.841-0.458c-0.604-0.936-1.623-1.495-2.725-1.495
						s-2.121,0.559-2.725,1.495c-0.3,0.465-0.919,0.598-1.382,0.298c-0.464-0.299-0.598-0.918-0.298-1.382
						c0.974-1.51,2.621-2.411,4.406-2.411c1.784,0,3.431,0.901,4.406,2.411c0.299,0.464,0.166,1.082-0.298,1.382
						C31.549,51.304,31.361,51.355,31.176,51.355z"/>
				</g>
			</g>
		</g>
		<g>
			<g>
				<g>
					<path class="st5" d="M115.464,93.185c-6.913,0-12.536-5.634-12.536-12.56c0-6.925,5.624-12.559,12.536-12.559
						c6.912,0,12.536,5.634,12.536,12.559C128,87.551,122.376,93.185,115.464,93.185z M115.464,70.066
						c-5.81,0-10.536,4.736-10.536,10.559s4.727,10.56,10.536,10.56S126,86.447,126,80.625S121.274,70.066,115.464,70.066z"/>
				</g>
			</g>
		</g>
		<g>
			<g>
				<g>
					<path class="st5" d="M12.536,93.185C5.624,93.185,0,87.551,0,80.625C0,73.7,5.624,68.066,12.536,68.066
						c6.913,0,12.536,5.634,12.536,12.559C25.072,87.551,19.448,93.185,12.536,93.185z M12.536,70.066
						C6.726,70.066,2,74.803,2,80.625s4.726,10.56,10.536,10.56s10.536-4.737,10.536-10.56S18.345,70.066,12.536,70.066z"/>
				</g>
			</g>
			<g>
				<g>
					<path class="st5" d="M12.536,93.185C5.624,93.185,0,87.551,0,80.625C0,73.7,5.624,68.066,12.536,68.066
						c6.913,0,12.536,5.634,12.536,12.559C25.072,87.551,19.448,93.185,12.536,93.185z M12.536,70.066
						C6.726,70.066,2,74.803,2,80.625s4.726,10.56,10.536,10.56s10.536-4.737,10.536-10.56S18.345,70.066,12.536,70.066z"/>
				</g>
			</g>
			<g>
				<g>
					<path class="st5" d="M10.606,79.3H5.964c-0.552,0-1-0.447-1-1s0.448-1,1-1h4.642c0.552,0,1,0.447,1,1S11.158,79.3,10.606,79.3z
						"/>
				</g>
			</g>
			<g>
				<g>
					<path class="st5" d="M19.108,79.3h-4.642c-0.552,0-1-0.447-1-1s0.448-1,1-1h4.642c0.552,0,1,0.447,1,1S19.66,79.3,19.108,79.3z
						"/>
				</g>
			</g>
			<g>
				<g>
					<path class="st5" d="M16.102,86.842H8.97c-0.552,0-1-0.447-1-1s0.448-1,1-1h7.131c0.552,0,1,0.447,1,1
						S16.654,86.842,16.102,86.842z"/>
				</g>
			</g>
		</g>
		<g>
			<g>
				<g>
					<path class="st5" d="M127,104.776h-17.028c-0.552,0-1-0.447-1-1s0.448-1,1-1H127c0.552,0,1,0.447,1,1
						S127.552,104.776,127,104.776z"/>
				</g>
			</g>
			<g>
				<g>
					<path class="st5" d="M18.028,104.776H1c-0.552,0-1-0.447-1-1s0.448-1,1-1h17.028c0.552,0,1,0.447,1,1
						S18.581,104.776,18.028,104.776z"/>
				</g>
			</g>
		</g>
		<g>
			<g>
				<path class="st5" d="M109.972,104.776H82.838c-0.423,0-0.8-0.266-0.942-0.664c-0.142-0.397-0.019-0.843,0.309-1.11
					c6.743-5.514,10.609-13.67,10.609-22.377c0-15.921-12.926-28.873-28.814-28.873S35.186,64.704,35.186,80.625
					c0,8.707,3.867,16.863,10.609,22.377c0.327,0.268,0.451,0.713,0.309,1.11c-0.142,0.398-0.519,0.664-0.942,0.664H18.028
					c-0.378,0-0.724-0.213-0.894-0.551c-1.909-3.8-3.348-7.803-4.278-11.897c-0.063-0.277-0.005-0.569,0.16-0.801
					c0.165-0.232,0.42-0.383,0.704-0.415c5.331-0.598,9.351-5.106,9.351-10.487s-4.02-9.89-9.351-10.486
					c-0.283-0.032-0.539-0.183-0.704-0.415c-0.165-0.231-0.223-0.523-0.16-0.801c1.311-5.773,3.573-11.242,6.723-16.257
					c0.151-0.241,0.399-0.406,0.68-0.454c0.279-0.045,0.568,0.027,0.791,0.205c1.887,1.507,4.154,2.304,6.559,2.304
					c5.81,0,10.536-4.736,10.536-10.559c0-2.411-0.795-4.684-2.3-6.573c-0.177-0.223-0.251-0.51-0.204-0.79s0.212-0.527,0.452-0.679
					c5.004-3.157,10.463-5.424,16.226-6.737c0.277-0.065,0.569-0.005,0.801,0.159c0.232,0.165,0.383,0.421,0.415,0.704
					c0.597,5.343,5.096,9.371,10.465,9.371s9.868-4.028,10.465-9.371c0.031-0.283,0.182-0.539,0.415-0.704
					c0.232-0.164,0.524-0.226,0.801-0.159c5.763,1.313,11.222,3.58,16.226,6.737c0.24,0.151,0.405,0.398,0.452,0.679
					s-0.026,0.567-0.204,0.79c-1.505,1.89-2.3,4.162-2.3,6.573c0,5.822,4.726,10.559,10.536,10.559c2.404,0,4.672-0.797,6.559-2.304
					c0.223-0.178,0.511-0.249,0.791-0.205c0.281,0.048,0.528,0.213,0.68,0.454c3.15,5.015,5.412,10.483,6.723,16.257
					c0.063,0.277,0.005,0.569-0.16,0.801c-0.165,0.232-0.421,0.383-0.704,0.415c-5.331,0.597-9.351,5.105-9.351,10.486
					s4.02,9.89,9.351,10.487c0.283,0.032,0.539,0.183,0.704,0.415c0.165,0.231,0.223,0.523,0.16,0.801
					c-0.93,4.095-2.369,8.098-4.278,11.897C110.695,104.563,110.35,104.776,109.972,104.776z M85.461,102.776h23.889
					c1.543-3.166,2.75-6.473,3.594-9.852c-5.783-1.177-10.017-6.279-10.017-12.3s4.234-11.123,10.017-12.3
					c-1.203-4.823-3.102-9.416-5.658-13.682c-2.048,1.362-4.411,2.077-6.896,2.077c-6.912,0-12.536-5.634-12.536-12.559
					c0-2.492,0.714-4.859,2.075-6.911c-4.255-2.561-8.839-4.464-13.652-5.67C75.104,37.376,70.01,41.617,64,41.617
					s-11.104-4.241-12.278-10.036c-4.813,1.206-9.396,3.109-13.652,5.67c1.361,2.052,2.075,4.419,2.075,6.911
					c0,6.925-5.624,12.559-12.536,12.559c-2.485,0-4.848-0.715-6.896-2.077c-2.556,4.266-4.455,8.858-5.658,13.682
					c5.783,1.177,10.017,6.279,10.017,12.3s-4.233,11.123-10.017,12.3c0.845,3.379,2.051,6.686,3.594,9.852h23.889
					c-5.974-5.802-9.353-13.736-9.353-22.151c0-17.023,13.823-30.873,30.814-30.873s30.814,13.85,30.814,30.873
					C94.814,89.04,91.436,96.975,85.461,102.776z"/>
			</g>
		</g>
	</g>
</g>
</svg>
