<?xml version="1.0" encoding="utf-8"?>
<!-- Generator: Adobe Illustrator 22.0.0, SVG Export Plug-In . SVG Version: 6.00 Build 0)  -->
<svg version="1.1" id="MARKET_RESEARCH_ICON_SET" xmlns="http://www.w3.org/2000/svg" xmlns:xlink="http://www.w3.org/1999/xlink"
	 x="0px" y="0px" viewBox="0 0 128 128" style="enable-background:new 0 0 128 128;" xml:space="preserve">
<style type="text/css">
	.st0{fill:#C2D5EC;}
	.st1{fill:#61E1FF;}
	.st2{fill:#7184AF;}
	.st3{fill:#F8F8F8;}
	.st4{fill:#3F4D81;}
	.st5{fill:#3F4D80;}
	.st6{fill:#E9EAEB;}
	.st7{fill:#F79559;}
	.st8{fill:#FFA85A;}
</style>
<g>
	<g>
		<g>
			<path class="st0" d="M116.24,64.466v14.906l-2.77,5.511l-2.77-5.511V64.466h-7.906v41.444c0,2.811-2.291,5.09-5.117,5.09H40.681
				c-2.826,0-5.117-2.279-5.117-5.09V88.145c-13.147,0-23.804-10.601-23.804-23.678H1V111h126V64.466H116.24z"/>
		</g>
		<g>
			<path class="st4" d="M116.24,64.466v14.906l-2.02,4.019l1.745,3.472c0.208,0.414,0.802,0.414,1.01,0l2.052-4.082
				c0.14-0.279,0.213-0.587,0.213-0.899V64.466H116.24z"/>
		</g>
		<g>
			<path class="st4" d="M102.793,64.466v41.444c0,2.811-2.291,5.09-5.117,5.09h-5.158h-0.941h15.216V64.466H102.793z"/>
		</g>
		<g>
			<g>
				<path class="st1" d="M97.676,24.464H40.681c-2.826,0-5.117,2.279-5.117,5.09v11.234c4.056,0,7.873,1.012,11.215,2.791
					l5.617-5.588l9.784,9.732l-5.617,5.588c1.789,3.324,2.806,7.121,2.806,11.155c0,13.077-10.658,23.678-23.804,23.678v17.766
					c0,2.811,2.291,5.09,5.117,5.09h56.995c2.826,0,5.117-2.279,5.117-5.09V29.554C102.793,26.743,100.502,24.464,97.676,24.464z"/>
			</g>
			<g>
				<path class="st6" d="M94.845,24.464H43.513c-2.064,0-3.737,1.664-3.737,3.717v12.983c2.489,0.443,4.846,1.266,7.003,2.414
					l5.617-5.588l9.784,9.732l-5.617,5.588c1.789,3.324,2.806,7.121,2.806,11.155c0,11.647-8.456,21.322-19.592,23.301v14.755
					c0,2.053,1.673,3.717,3.737,3.717h45.496v-9.522h9.573V28.181C98.581,26.129,96.909,24.464,94.845,24.464z"/>
			</g>
			<g>
				<path class="st5" d="M61.681,48.221l-5.117,5.09c1.789,3.324,2.806,7.121,2.806,11.155c0,11.647-8.456,21.322-19.592,23.301
					v3.256c12.109-1.11,21.592-11.238,21.592-23.573c0-4.034-1.017-7.831-2.806-11.155l5.617-5.588L61.681,48.221z"/>
			</g>
			<g>
				<path class="st5" d="M39.776,92.023c-0.249,0-0.489-0.093-0.674-0.262c-0.208-0.189-0.326-0.457-0.326-0.738v-3.256
					c0-0.484,0.348-0.899,0.825-0.984c10.875-1.934,18.767-11.319,18.767-22.317c0-3.721-0.929-7.414-2.687-10.682
					c-0.209-0.39-0.138-0.871,0.176-1.183l5.118-5.09c0.39-0.389,1.021-0.389,1.41,0l2.5,2.486c0.189,0.188,0.295,0.442,0.295,0.709
					c0,0.266-0.106,0.521-0.295,0.709l-5.097,5.07c1.69,3.389,2.58,7.163,2.58,10.964c0,12.83-9.673,23.393-22.501,24.569
					C39.837,92.022,39.807,92.023,39.776,92.023z M40.776,88.591v1.312c11.245-1.562,19.592-11.028,19.592-22.452
					c0-0.485-0.016-0.97-0.047-1.452C59.642,77.021,51.678,86.277,40.776,88.591z M57.789,53.502
					c0.242,0.486,0.468,0.979,0.677,1.479l4.297-4.274l-1.082-1.076L57.789,53.502z"/>
			</g>
			<g>
				<polygon class="st8" points="78.838,20.732 78.838,17 59.519,17 59.519,20.732 50.95,20.732 50.95,28.197 87.408,28.197 
					87.408,20.732 				"/>
			</g>
			<g>
				<rect x="50.95" y="24.464" class="st7" width="36.459" height="3.732"/>
			</g>
			<g>
				<polygon class="st5" points="89.009,106.239 89.009,96.717 98.581,96.717 				"/>
			</g>
		</g>
		<g>
			<g>
				<path class="st2" d="M62.181,47.723l-9.784-9.732l-5.617,5.588c-3.342-1.779-7.159-2.791-11.215-2.791
					c-13.147,0-23.804,10.601-23.804,23.678s10.658,23.678,23.804,23.678s23.804-10.601,23.804-23.678
					c0-4.034-1.017-7.831-2.806-11.155L62.181,47.723z"/>
			</g>
			<g>
				<path class="st3" d="M28.54,87.082l0.01,0.02c-9.72-2.974-16.79-11.986-16.79-22.64c0-13.07,10.66-23.674,23.8-23.674
					c0.66,0,1.31,0.03,1.96,0.08c-12.26,0.955-21.91,11.161-21.91,23.594c0,9.181,5.25,17.139,12.93,21.068V87.082z"/>
			</g>
			<g>
				<path class="st1" d="M46.781,53.309c-6.195-6.162-16.238-6.162-22.433,0c-6.195,6.162-6.195,16.152,0,22.314
					c1.26,1.253,2.68,2.247,4.193,2.99v8.472l6.88-6.844c4.107,0.037,8.226-1.501,11.36-4.618
					C52.976,69.461,52.976,59.471,46.781,53.309z"/>
			</g>
			<g>
				<ellipse class="st5" cx="35.286" cy="70.739" rx="1.069" ry="1.064"/>
			</g>
		</g>
		<g>
			<g>
				<rect x="110.699" y="48.627" class="st8" width="5.541" height="30.745"/>
			</g>
			<g>
				<path class="st2" d="M110.699,48.627h5.541v-2.756c0-1.522-1.24-2.756-2.77-2.756l0,0c-1.53,0-2.77,1.234-2.77,2.756V48.627z"/>
			</g>
			<g>
				<polygon class="st7" points="110.699,79.373 113.47,84.884 116.24,79.373 				"/>
			</g>
		</g>
	</g>
	<g>
		<g>
			<path class="st5" d="M85.593,65.466H66.105c-0.552,0-1-0.447-1-1s0.448-1,1-1h19.488c0.552,0,1,0.447,1,1
				S86.146,65.466,85.593,65.466z"/>
		</g>
		<g>
			<path class="st5" d="M85.593,74.195H66.105c-0.552,0-1-0.447-1-1s0.448-1,1-1h19.488c0.552,0,1,0.447,1,1
				S86.146,74.195,85.593,74.195z"/>
		</g>
		<g>
			<path class="st5" d="M85.593,82.924h-24.38c-0.552,0-1-0.447-1-1s0.448-1,1-1h24.38c0.552,0,1,0.447,1,1
				S86.146,82.924,85.593,82.924z"/>
		</g>
		<g>
			<path class="st5" d="M85.593,91.653H52.11c-0.552,0-1-0.447-1-1s0.448-1,1-1h33.483c0.552,0,1,0.447,1,1
				S86.146,91.653,85.593,91.653z"/>
		</g>
		<g>
			<path class="st5" d="M76.021,100.382H42.407c-0.552,0-1-0.447-1-1s0.448-1,1-1h33.614c0.552,0,1,0.447,1,1
				S76.573,100.382,76.021,100.382z"/>
		</g>
		<g>
			<g>
				<g>
					<path class="st5" d="M89.009,107.239c-0.129,0-0.26-0.025-0.384-0.076c-0.373-0.155-0.616-0.52-0.616-0.924v-9.522
						c0-0.553,0.448-1,1-1h9.573c0.405,0,0.77,0.244,0.924,0.618c0.155,0.375,0.068,0.806-0.219,1.091l-9.573,9.522
						C89.523,107.139,89.268,107.239,89.009,107.239z M90.009,97.717v6.117l6.149-6.117H90.009z"/>
				</g>
			</g>
			<g>
				<g>
					<path class="st5" d="M89.009,107.239H43.513c-2.612,0-4.736-2.116-4.736-4.717V87.768c0-0.484,0.348-0.899,0.825-0.984
						c10.875-1.934,18.767-11.319,18.767-22.317c0-3.721-0.929-7.414-2.687-10.682c-0.209-0.39-0.138-0.871,0.176-1.183l4.905-4.878
						l-8.366-8.322l-4.912,4.886c-0.311,0.309-0.787,0.38-1.175,0.174c-2.096-1.115-4.354-1.893-6.708-2.312
						c-0.478-0.085-0.825-0.5-0.825-0.984V28.182c0-2.601,2.125-4.717,4.736-4.717h7.437c0.552,0,1,0.447,1,1v2.732h34.458v-2.732
						c0-0.553,0.448-1,1-1h7.437c2.612,0,4.737,2.116,4.737,4.717v68.535c0,0.553-0.448,1-1,1h-8.573v8.522
						C90.009,106.792,89.561,107.239,89.009,107.239z M40.776,88.591v13.932c0,1.498,1.228,2.717,2.736,2.717h44.496v-8.522
						c0-0.553,0.448-1,1-1h8.573V28.182c0-1.498-1.228-2.717-2.737-2.717h-6.437v2.732c0,0.553-0.448,1-1,1H50.95
						c-0.552,0-1-0.447-1-1v-2.732h-6.437c-1.509,0-2.736,1.219-2.736,2.717v12.16c2.021,0.429,3.97,1.104,5.812,2.015l5.103-5.074
						c0.39-0.389,1.021-0.389,1.41,0l9.784,9.732c0.189,0.188,0.295,0.443,0.295,0.709c0,0.267-0.106,0.521-0.295,0.709
						l-5.097,5.069c1.69,3.39,2.58,7.164,2.58,10.964C60.369,76.155,52.179,86.171,40.776,88.591z"/>
				</g>
			</g>
			<g>
				<g>
					<path class="st5" d="M87.408,29.197H50.95c-0.552,0-1-0.447-1-1v-7.465c0-0.553,0.448-1,1-1h7.57V17c0-0.553,0.448-1,1-1
						h19.318c0.552,0,1,0.447,1,1v2.732h7.57c0.552,0,1,0.447,1,1v7.465C88.408,28.75,87.96,29.197,87.408,29.197z M51.95,27.197
						h34.458v-5.465h-7.57c-0.552,0-1-0.447-1-1V18H60.52v2.732c0,0.553-0.448,1-1,1h-7.57V27.197z"/>
				</g>
			</g>
			<g>
				<g>
					<path class="st5" d="M97.676,112H40.681c-3.373,0-6.117-2.731-6.117-6.09V88.145c0-0.553,0.448-1,1-1
						c12.574,0,22.804-10.174,22.804-22.679c0-3.721-0.929-7.414-2.687-10.682c-0.209-0.39-0.138-0.871,0.176-1.183l4.905-4.878
						l-8.366-8.322l-4.912,4.886c-0.311,0.309-0.787,0.38-1.175,0.174c-3.287-1.749-7.002-2.673-10.745-2.673c-0.552,0-1-0.447-1-1
						V29.555c0-3.358,2.744-6.09,6.117-6.09H50.95c0.552,0,1,0.447,1,1v2.732h34.458v-2.732c0-0.553,0.448-1,1-1h10.268
						c3.373,0,6.117,2.731,6.117,6.09v76.355C103.793,109.269,101.049,112,97.676,112z M36.564,89.125v16.785
						c0,2.255,1.847,4.09,4.117,4.09h56.995c2.27,0,4.117-1.835,4.117-4.09V29.555c0-2.255-1.847-4.09-4.117-4.09h-9.268v2.732
						c0,0.553-0.448,1-1,1H50.95c-0.552,0-1-0.447-1-1v-2.732h-9.269c-2.27,0-4.117,1.835-4.117,4.09v10.254
						c3.481,0.141,6.914,1.013,10.024,2.548l5.103-5.074c0.39-0.389,1.021-0.389,1.41,0l9.784,9.732
						c0.189,0.188,0.295,0.443,0.295,0.709c0,0.267-0.106,0.521-0.295,0.709l-5.097,5.069c1.69,3.39,2.58,7.164,2.58,10.964
						C60.369,77.74,49.78,88.601,36.564,89.125z"/>
				</g>
			</g>
		</g>
		<g>
			<g>
				<g>
					<path class="st5" d="M35.564,89.145c-13.677,0-24.804-11.071-24.804-24.679s11.127-24.678,24.804-24.678
						c3.821,0,7.616,0.886,11.024,2.569l5.103-5.075c0.39-0.389,1.021-0.389,1.41,0l9.784,9.732
						c0.189,0.188,0.295,0.443,0.295,0.709c0,0.267-0.106,0.521-0.295,0.709l-5.097,5.069c1.69,3.39,2.58,7.164,2.58,10.964
						C60.369,78.073,49.242,89.145,35.564,89.145z M35.564,41.788c-12.574,0-22.804,10.173-22.804,22.678
						s10.23,22.679,22.804,22.679s22.804-10.174,22.804-22.679c0-3.721-0.929-7.414-2.687-10.682
						c-0.209-0.39-0.138-0.871,0.176-1.183l4.905-4.878l-8.366-8.322l-4.912,4.886c-0.311,0.309-0.787,0.38-1.175,0.174
						C43.023,42.712,39.308,41.788,35.564,41.788z"/>
				</g>
			</g>
			<g>
				<g>
					<path class="st5" d="M28.541,88.085c-0.129,0-0.26-0.025-0.384-0.076c-0.373-0.155-0.616-0.52-0.616-0.924v-7.861
						c-1.434-0.771-2.743-1.742-3.898-2.892c-3.186-3.169-4.941-7.383-4.941-11.865c0-4.483,1.755-8.697,4.941-11.866
						c6.573-6.54,17.27-6.538,23.843,0c3.187,3.169,4.941,7.383,4.941,11.866c0,4.482-1.754,8.696-4.941,11.865
						c-3.124,3.107-7.248,4.841-11.651,4.908l-6.589,6.554C29.055,87.984,28.8,88.085,28.541,88.085z M35.564,49.694
						c-3.807,0-7.614,1.441-10.512,4.324c-2.806,2.791-4.351,6.501-4.351,10.448c0,3.946,1.545,7.656,4.351,10.447
						c1.149,1.144,2.471,2.086,3.929,2.802c0.342,0.168,0.559,0.517,0.559,0.897v6.066l5.175-5.147
						c0.188-0.187,0.441-0.291,0.705-0.291c0.042-0.001,0.099,0.001,0.148,0.001c3.971,0,7.697-1.534,10.506-4.328
						c2.806-2.791,4.351-6.501,4.351-10.447c0-3.947-1.545-7.657-4.351-10.448l0,0C43.178,51.136,39.371,49.694,35.564,49.694z"/>
				</g>
			</g>
			<g>
				<g>
					<g>
						<path class="st5" d="M35.21,68.719c-0.552,0-1-0.447-1-1c0-3.026,1.599-4.204,2.766-5.064c0.967-0.713,1.432-1.1,1.432-2.082
							c0-0.752-0.295-1.461-0.832-1.994c-1.109-1.104-2.915-1.104-4.024,0c-0.536,0.533-0.831,1.241-0.831,1.995
							c0,0.753,0.295,1.461,0.831,1.993c0.392,0.39,0.394,1.022,0.004,1.414c-0.389,0.392-1.021,0.395-1.414,0.004
							c-0.916-0.91-1.42-2.122-1.421-3.411c0-1.289,0.504-2.502,1.421-3.413c1.888-1.877,4.959-1.877,6.845,0
							c0.917,0.912,1.421,2.124,1.421,3.412c0,2.037-1.245,2.954-2.245,3.691c-1.091,0.804-1.953,1.439-1.953,3.455
							C36.21,68.271,35.762,68.719,35.21,68.719z"/>
					</g>
				</g>
			</g>
			<g>
				<g>
					<path class="st5" d="M73.404,47.292c-0.257,0-0.514-0.099-0.709-0.295c-0.39-0.392-0.388-1.024,0.004-1.414
						c1.116-1.11,1.731-2.587,1.731-4.157s-0.615-3.047-1.731-4.157c-2.309-2.297-6.064-2.297-8.374,0l-6.331,6.298
						c-0.392,0.39-1.025,0.387-1.414-0.004c-0.39-0.392-0.388-1.024,0.004-1.414l6.331-6.298c3.086-3.071,8.108-3.07,11.194,0
						c1.497,1.489,2.321,3.469,2.321,5.575s-0.824,4.086-2.321,5.575C73.914,47.195,73.659,47.292,73.404,47.292z"/>
				</g>
			</g>
			<g>
				<g>
					<g>
						<path class="st5" d="M67.447,53.217c-0.257,0-0.514-0.099-0.709-0.295c-0.39-0.392-0.388-1.024,0.004-1.414l1.781-1.771
							c0.391-0.391,1.024-0.388,1.414,0.004c0.39,0.392,0.388,1.024-0.004,1.414l-1.781,1.771
							C67.958,53.12,67.702,53.217,67.447,53.217z"/>
					</g>
				</g>
				<g>
					<g>
						<g>
							<path class="st5" d="M70.359,48.729c-0.552,0-1-0.447-1-1v-2.505c0-0.553,0.448-1,1-1s1,0.447,1,1v2.505
								C71.359,48.281,70.912,48.729,70.359,48.729z"/>
						</g>
					</g>
					<g>
						<g>
							<path class="st5" d="M70.359,54.416c-0.552,0-1-0.447-1-1v-2.505c0-0.553,0.448-1,1-1s1,0.447,1,1v2.505
								C71.359,53.969,70.912,54.416,70.359,54.416z"/>
						</g>
					</g>
				</g>
				<g>
					<g>
						<g>
							<path class="st5" d="M73.271,53.217c-0.255,0-0.51-0.097-0.705-0.291l-1.781-1.771c-0.392-0.39-0.394-1.022-0.004-1.414
								c0.39-0.39,1.023-0.394,1.414-0.004l1.781,1.771c0.392,0.39,0.394,1.022,0.004,1.414
								C73.785,53.118,73.528,53.217,73.271,53.217z"/>
						</g>
					</g>
					<g>
						<g>
							<path class="st5" d="M69.229,49.194c-0.255,0-0.51-0.097-0.705-0.291l-1.781-1.771c-0.392-0.39-0.394-1.022-0.004-1.414
								c0.39-0.391,1.023-0.394,1.414-0.004l1.781,1.771c0.392,0.39,0.394,1.022,0.004,1.414
								C69.742,49.096,69.485,49.194,69.229,49.194z"/>
						</g>
					</g>
				</g>
				<g>
					<g>
						<g>
							<path class="st5" d="M74.478,50.32h-2.519c-0.552,0-1-0.447-1-1s0.448-1,1-1h2.519c0.552,0,1,0.447,1,1
								S75.03,50.32,74.478,50.32z"/>
						</g>
					</g>
					<g>
						<g>
							<path class="st5" d="M68.76,50.32h-2.519c-0.552,0-1-0.447-1-1s0.448-1,1-1h2.519c0.552,0,1,0.447,1,1
								S69.312,50.32,68.76,50.32z"/>
						</g>
					</g>
				</g>
			</g>
		</g>
		<g>
			<path class="st5" d="M90.772,56.271h-9.573c-0.552,0-1-0.447-1-1s0.448-1,1-1h9.573c0.552,0,1,0.447,1,1
				S91.324,56.271,90.772,56.271z"/>
		</g>
		<g>
			<path class="st5" d="M90.772,47.542h-9.573c-0.552,0-1-0.447-1-1s0.448-1,1-1h9.573c0.552,0,1,0.447,1,1
				S91.324,47.542,90.772,47.542z"/>
		</g>
		<g>
			<path class="st5" d="M90.772,38.813h-9.573c-0.552,0-1-0.447-1-1s0.448-1,1-1h9.573c0.552,0,1,0.447,1,1
				S91.324,38.813,90.772,38.813z"/>
		</g>
		<g>
			<g>
				<g>
					<path class="st5" d="M116.24,80.372h-5.541c-0.552,0-1-0.447-1-1V48.628c0-0.553,0.448-1,1-1h5.541c0.552,0,1,0.447,1,1v30.744
						C117.24,79.925,116.792,80.372,116.24,80.372z M111.699,78.372h3.541V49.628h-3.541V78.372z"/>
				</g>
			</g>
			<g>
				<g>
					<path class="st5" d="M116.24,49.628h-5.541c-0.552,0-1-0.447-1-1v-2.756c0-2.071,1.691-3.756,3.771-3.756
						c2.079,0,3.77,1.685,3.77,3.756v2.756C117.24,49.181,116.792,49.628,116.24,49.628z M111.699,47.628h3.541v-1.756
						c0-0.968-0.794-1.756-1.77-1.756s-1.771,0.788-1.771,1.756V47.628z"/>
				</g>
			</g>
			<g>
				<g>
					<path class="st5" d="M113.47,85.884c-0.378,0-0.724-0.213-0.894-0.551l-2.771-5.512c-0.156-0.311-0.14-0.679,0.042-0.974
						c0.182-0.296,0.504-0.476,0.851-0.476h5.541c0.347,0,0.669,0.18,0.851,0.476c0.182,0.295,0.198,0.663,0.042,0.974l-2.77,5.512
						C114.193,85.671,113.848,85.884,113.47,85.884z M112.321,80.372l1.148,2.285l1.148-2.285H112.321z"/>
				</g>
			</g>
		</g>
		<g>
			<path class="st5" d="M24.398,91.678c-0.127,0-0.256-0.024-0.38-0.075c-0.641-0.265-1.275-0.551-1.883-0.852
				c-0.495-0.245-0.698-0.845-0.454-1.34c0.244-0.495,0.844-0.699,1.339-0.453c0.568,0.28,1.16,0.548,1.759,0.795
				c0.511,0.211,0.754,0.795,0.544,1.306C25.165,91.444,24.792,91.678,24.398,91.678z M19.122,88.847
				c-0.193,0-0.387-0.056-0.559-0.172c-0.568-0.384-1.131-0.794-1.672-1.218c-0.435-0.341-0.511-0.969-0.17-1.403
				c0.34-0.435,0.969-0.512,1.404-0.171c0.505,0.396,1.029,0.777,1.559,1.136c0.458,0.309,0.578,0.931,0.269,1.389
				C19.758,88.692,19.442,88.847,19.122,88.847z M14.536,84.994c-0.261,0-0.522-0.102-0.719-0.305
				c-0.481-0.498-0.948-1.015-1.387-1.538c-0.355-0.423-0.3-1.054,0.124-1.408c0.422-0.354,1.054-0.301,1.409,0.123
				c0.409,0.486,0.843,0.969,1.292,1.433c0.384,0.396,0.374,1.03-0.023,1.414C15.037,84.9,14.787,84.994,14.536,84.994z
				 M10.842,80.281c-0.332,0-0.657-0.165-0.847-0.467c-0.366-0.581-0.716-1.183-1.041-1.788c-0.261-0.486-0.078-1.093,0.409-1.354
				c0.487-0.262,1.093-0.078,1.354,0.408c0.303,0.564,0.629,1.125,0.971,1.667c0.294,0.468,0.154,1.085-0.313,1.379
				C11.208,80.231,11.024,80.281,10.842,80.281z M8.191,74.91c-0.406,0-0.788-0.249-0.938-0.652
				c-0.239-0.645-0.458-1.305-0.652-1.963c-0.156-0.529,0.146-1.085,0.676-1.241c0.528-0.16,1.085,0.146,1.242,0.677
				c0.181,0.614,0.386,1.23,0.609,1.832c0.192,0.518-0.072,1.093-0.589,1.285C8.424,74.891,8.307,74.91,8.191,74.91z M6.695,69.111
				c-0.487,0-0.913-0.355-0.987-0.852c-0.102-0.679-0.181-1.37-0.235-2.056c-0.043-0.551,0.368-1.032,0.918-1.076
				c0.553-0.043,1.033,0.367,1.076,0.918c0.05,0.64,0.124,1.285,0.219,1.917c0.082,0.547-0.294,1.056-0.84,1.138
				C6.795,69.107,6.745,69.111,6.695,69.111z M6.462,63.129c-0.025,0-0.051-0.001-0.076-0.003c-0.551-0.041-0.963-0.521-0.922-1.072
				c0.052-0.685,0.128-1.377,0.227-2.056c0.08-0.548,0.588-0.938,1.134-0.846c0.546,0.079,0.925,0.587,0.846,1.133
				c-0.092,0.635-0.164,1.28-0.212,1.919C7.418,62.729,6.98,63.129,6.462,63.129z M7.527,57.236c-0.092,0-0.186-0.013-0.279-0.04
				c-0.53-0.153-0.835-0.708-0.682-1.239c0.191-0.658,0.409-1.32,0.645-1.965c0.19-0.52,0.763-0.787,1.283-0.595
				c0.519,0.189,0.785,0.764,0.595,1.282c-0.221,0.603-0.423,1.221-0.602,1.836C8.36,56.952,7.96,57.236,7.527,57.236z
				 M9.779,51.688c-0.158,0-0.319-0.037-0.468-0.117c-0.488-0.259-0.673-0.864-0.414-1.353c0.324-0.61,0.672-1.213,1.033-1.791
				c0.292-0.468,0.909-0.611,1.378-0.319c0.468,0.293,0.611,0.91,0.318,1.378c-0.336,0.54-0.661,1.102-0.964,1.672
				C10.483,51.495,10.137,51.688,9.779,51.688z M13.12,46.718c-0.226,0-0.453-0.076-0.64-0.231
				c-0.424-0.354-0.481-0.984-0.128-1.409c0.439-0.527,0.903-1.046,1.378-1.542c0.383-0.397,1.016-0.413,1.414-0.029
				c0.399,0.382,0.412,1.015,0.03,1.414c-0.443,0.462-0.876,0.946-1.286,1.438C13.691,46.596,13.407,46.718,13.12,46.718z
				 M17.411,42.541c-0.295,0-0.588-0.13-0.785-0.38c-0.342-0.434-0.269-1.062,0.165-1.405c0.535-0.422,1.096-0.834,1.667-1.225
				c0.457-0.31,1.078-0.194,1.39,0.262s0.194,1.079-0.262,1.391c-0.533,0.363-1.056,0.748-1.555,1.143
				C17.847,42.471,17.628,42.541,17.411,42.541z M22.469,39.336c-0.368,0-0.721-0.203-0.896-0.555
				c-0.246-0.494-0.045-1.095,0.449-1.341c0.612-0.304,1.244-0.593,1.879-0.858c0.51-0.214,1.095,0.027,1.308,0.537
				s-0.028,1.096-0.538,1.309c-0.599,0.25-1.185,0.519-1.758,0.804C22.771,39.303,22.618,39.336,22.469,39.336z"/>
		</g>
		<g>
			<path class="st5" d="M127,112H1c-0.552,0-1-0.447-1-1s0.448-1,1-1h126c0.552,0,1,0.447,1,1S127.552,112,127,112z"/>
		</g>
		<g>
			<path class="st5" d="M97.676,112H40.681c-3.373,0-6.117-2.731-6.117-6.09V89.125C21.682,88.614,11.295,78.282,10.78,65.466H1
				c-0.552,0-1-0.447-1-1s0.448-1,1-1h10.76c0.552,0,1,0.447,1,1c0,12.505,10.23,22.679,22.805,22.679c0.552,0,1,0.447,1,1v17.766
				c0,2.255,1.847,4.09,4.117,4.09h56.995c2.27,0,4.117-1.835,4.117-4.09V64.466c0-0.553,0.448-1,1-1h7.906c0.552,0,1,0.447,1,1
				v14.67l1.771,3.521l1.771-3.521v-14.67c0-0.553,0.448-1,1-1H127c0.552,0,1,0.447,1,1s-0.448,1-1,1h-9.76v13.907
				c0,0.156-0.037,0.31-0.106,0.449l-2.771,5.511c-0.34,0.676-1.447,0.676-1.787,0l-2.771-5.511c-0.07-0.14-0.106-0.293-0.106-0.449
				V65.466h-5.906v40.444C103.793,109.269,101.049,112,97.676,112z"/>
		</g>
	</g>
</g>
</svg>
