<?xml version="1.0" encoding="utf-8"?>
<!-- Generator: Adobe Illustrator 22.0.0, SVG Export Plug-In . SVG Version: 6.00 Build 0)  -->
<svg version="1.1" id="MARKET_RESEARCH_ICON_SET" xmlns="http://www.w3.org/2000/svg" xmlns:xlink="http://www.w3.org/1999/xlink"
	 x="0px" y="0px" viewBox="0 0 128 128" style="enable-background:new 0 0 128 128;" xml:space="preserve">
<style type="text/css">
	.st0{fill:#C2D5EC;}
	.st1{fill:#61E1FF;}
	.st2{fill:#7184AF;}
	.st3{fill:#F8F8F8;}
	.st4{fill:#3F4D81;}
	.st5{fill:#3F4D80;}
	.st6{fill:#E9EAEB;}
	.st7{fill:#F79559;}
	.st8{fill:#FFA85A;}
</style>
<g>
	<g>
		<g>
			
				<ellipse transform="matrix(0.9998 -0.022 0.022 0.9998 -1.3894 1.4264)" class="st0" cx="64" cy="63.729" rx="50.384" ry="48.228"/>
		</g>
		<g>
			<path class="st5" d="M103.767,67.73c0,5.279,3.244,9.796,7.845,11.678c2.792-7.746,3.469-16.013,2.034-23.99
				C107.996,56.67,103.767,61.702,103.767,67.73z"/>
		</g>
		<g>
			<path class="st5" d="M15.616,55.112c-0.397,0-0.788,0.023-1.175,0.059c-1.588,8.386-0.842,17.074,2.211,25.125
				c6.482-0.528,11.581-5.947,11.581-12.566C28.233,60.761,22.584,55.112,15.616,55.112z"/>
		</g>
		<g>
			<path class="st5" d="M100.37,91.665c-0.994-0.994-2.604-0.994-3.598,0l-0.02,0.02l-5.866-5.867
				c4.138-5.183,6.617-11.748,6.617-18.896c0-16.743-13.57-30.315-30.31-30.315s-30.31,13.573-30.31,30.315
				s13.57,30.315,30.31,30.315c7.147,0,13.711-2.48,18.894-6.619l5.866,5.867l-0.02,0.02c-0.994,0.994-0.994,2.605,0,3.599
				l2.232,2.233c2.732-1.847,5.313-3.983,7.695-6.406c0.462-0.47,0.902-0.952,1.34-1.434L100.37,91.665z"/>
		</g>
		<g>
			<path class="st5" d="M94.166,103.336c-0.258,0-0.514-0.1-0.707-0.293l-2.232-2.232c-1.144-1.145-1.341-2.881-0.592-4.229
				l-4.632-4.632c-5.456,4.116-11.94,6.287-18.81,6.287c-17.265,0-31.31-14.048-31.31-31.315c0-17.267,14.045-31.314,31.31-31.314
				s31.311,14.048,31.311,31.314c0,6.87-2.171,13.354-6.287,18.812l4.633,4.634c1.337-0.75,3.127-0.511,4.228,0.591l0,0l2.83,2.831
				c0.377,0.377,0.392,0.983,0.034,1.379c-0.447,0.492-0.896,0.983-1.368,1.463c-2.382,2.425-5.022,4.623-7.847,6.533
				C94.556,103.279,94.36,103.336,94.166,103.336z M86.087,89.618c0.257,0,0.513,0.099,0.707,0.293l5.866,5.867
				c0.391,0.391,0.391,1.023,0,1.414c-0.621,0.621-0.621,1.602-0.02,2.204l1.644,1.644c2.46-1.724,4.766-3.676,6.862-5.812
				c0.229-0.231,0.451-0.466,0.67-0.702l-2.153-2.154c-0.602-0.602-1.582-0.602-2.184,0c-0.188,0.188-0.451,0.303-0.717,0.303l0,0
				c-0.266,0-0.529-0.096-0.717-0.283l-5.866-5.867c-0.36-0.36-0.393-0.933-0.074-1.331c4.186-5.243,6.398-11.562,6.398-18.272
				c0-16.164-13.148-29.314-29.311-29.314c-16.162,0-29.31,13.15-29.31,29.314c0,16.165,13.148,29.315,29.31,29.315
				c6.71,0,13.027-2.213,18.27-6.399C85.646,89.69,85.867,89.618,86.087,89.618z"/>
		</g>
		<g>
			<g>
				<ellipse class="st1" cx="64" cy="63.729" rx="30.31" ry="30.315"/>
			</g>
			<g>
				<path class="st3" d="M65.98,93.974c-0.65,0.05-1.31,0.07-1.98,0.07c-16.74,0-30.31-13.572-30.31-30.315S47.26,33.415,64,33.415
					c0.67,0,1.33,0.02,1.98,0.07c-15.82,1.01-28.33,14.172-28.33,30.245S50.16,92.964,65.98,93.974z"/>
			</g>
			<g>
				<path class="st7" d="M93.56,88.493l-4.8,4.801l-5.87-5.871c1.78-1.41,3.39-3.02,4.8-4.801L93.56,88.493z"/>
			</g>
			<g>
				<path class="st2" d="M88.74,96.911l14.841,14.843c0.994,0.994,2.605,0.994,3.598,0l4.839-4.839c0.994-0.994,0.994-2.605,0-3.599
					L97.177,88.473c-0.994-0.994-2.605-0.994-3.598,0l-4.839,4.839C87.747,94.306,87.747,95.917,88.74,96.911z"/>
			</g>
		</g>
		<g>
			<polygon class="st3" points="84.047,47.031 64,53.008 64,77.281 84.047,71.303 			"/>
		</g>
		<g>
			<polygon class="st2" points="84.047,71.303 64,77.281 64,80.428 84.047,74.45 			"/>
		</g>
		<g>
			<polygon class="st6" points="43.953,47.031 64,53.008 64,77.281 43.953,71.303 			"/>
		</g>
		<g>
			<polygon class="st2" points="43.953,71.303 64,77.281 64,80.428 43.953,74.45 			"/>
		</g>
		<g>
			<circle class="st8" cx="114.384" cy="63.729" r="12.617"/>
		</g>
		<g>
			<g>
				<circle class="st8" cx="13.616" cy="63.729" r="12.617"/>
			</g>
			<g>
				<g>
					<path class="st6" d="M19.556,55.933H7.677c-0.478,0-0.865,0.387-0.865,0.865V70.66c0,0.478,0.387,0.865,0.865,0.865h10.529
						l2.215-2.216V56.798C20.421,56.321,20.034,55.933,19.556,55.933z"/>
				</g>
				<g>
					<path class="st5" d="M18.206,72.526c-0.129,0-0.259-0.024-0.383-0.076c-0.374-0.154-0.617-0.52-0.617-0.924v-2.216
						c0-0.553,0.448-1,1-1h2.216c0.404,0,0.769,0.243,0.924,0.617c0.155,0.374,0.069,0.804-0.217,1.09l-2.216,2.216
						C18.721,72.424,18.466,72.526,18.206,72.526z"/>
				</g>
			</g>
		</g>
		<g>
			<g>
				<polygon class="st3" points="114.384,57.965 105.598,61.932 114.384,65.899 123.169,61.932 				"/>
			</g>
			<g>
				<path class="st6" d="M114.384,65.899l-4.808-2.171v4.646c3.205,1.493,6.411,1.493,9.616,0v-4.646L114.384,65.899z"/>
			</g>
		</g>
	</g>
	<g>
		<g>
			<g>
				<g>
					<path class="st5" d="M64,95.045c-17.265,0-31.311-14.048-31.311-31.315S46.735,32.414,64,32.414s31.311,14.048,31.311,31.315
						S81.265,95.045,64,95.045z M64,34.414c-16.162,0-29.311,13.15-29.311,29.315S47.838,93.045,64,93.045
						s29.311-13.15,29.311-29.315S80.162,34.414,64,34.414z"/>
				</g>
			</g>
			<g>
				<g>
					<path class="st5" d="M88.76,94.294c-0.266,0-0.52-0.105-0.707-0.293l-5.87-5.871c-0.202-0.202-0.308-0.48-0.291-0.765
						c0.017-0.285,0.153-0.549,0.377-0.727c1.718-1.36,3.277-2.92,4.638-4.638c0.178-0.224,0.441-0.36,0.727-0.377
						c0.284-0.015,0.562,0.089,0.765,0.291l5.869,5.871c0.391,0.391,0.391,1.023,0,1.414l-4.8,4.801
						C89.279,94.188,89.025,94.294,88.76,94.294z M84.376,87.495l4.384,4.385l3.386-3.387l-4.383-4.385
						C86.725,85.323,85.591,86.457,84.376,87.495z"/>
				</g>
			</g>
			<g>
				<g>
					<path class="st5" d="M105.38,113.498c-0.907,0-1.814-0.346-2.506-1.036L88.033,97.618c-0.67-0.669-1.039-1.56-1.039-2.506
						c0-0.947,0.369-1.837,1.039-2.507l4.839-4.839c1.338-1.34,3.674-1.34,5.012,0l14.841,14.843c0.67,0.67,1.039,1.56,1.039,2.507
						s-0.369,1.837-1.039,2.506l-4.838,4.84C107.195,113.152,106.288,113.498,105.38,113.498z M95.378,88.729
						c-0.412,0-0.8,0.16-1.092,0.452l-4.839,4.839c-0.292,0.292-0.453,0.68-0.453,1.093c0,0.412,0.161,0.8,0.453,1.092l0,0
						l14.841,14.844c0.602,0.603,1.583,0.601,2.185,0l4.838-4.84c0.292-0.292,0.453-0.68,0.453-1.092
						c0-0.413-0.161-0.801-0.453-1.093L96.47,89.181C96.178,88.889,95.79,88.729,95.378,88.729z"/>
				</g>
			</g>
		</g>
		<g>
			<g>
				<g>
					<g>
						<path class="st5" d="M64,78.281c-0.213,0-0.423-0.068-0.598-0.198C63.149,77.895,63,77.597,63,77.281V53.009
							c0-0.442,0.291-0.832,0.714-0.958l20.046-5.978c0.304-0.09,0.631-0.032,0.884,0.156s0.402,0.486,0.402,0.802v24.272
							c0,0.442-0.29,0.832-0.714,0.958l-20.047,5.978C64.192,78.268,64.096,78.281,64,78.281z M65,53.754v22.186l18.047-5.381
							V48.373L65,53.754z"/>
					</g>
				</g>
				<g>
					<g>
						<path class="st5" d="M64,81.428c-0.213,0-0.423-0.068-0.598-0.198C63.149,81.041,63,80.743,63,80.428v-3.146
							c0-0.442,0.291-0.832,0.714-0.958l20.046-5.978c0.304-0.091,0.631-0.031,0.884,0.156c0.253,0.188,0.402,0.486,0.402,0.802
							v3.146c0,0.442-0.29,0.832-0.714,0.958l-20.047,5.978C64.192,81.414,64.096,81.428,64,81.428z M65,78.026v1.06l18.047-5.381
							v-1.06L65,78.026z"/>
					</g>
				</g>
				<g>
					<g>
						<path class="st5" d="M66.988,72.535c-0.432,0-0.829-0.28-0.958-0.714c-0.158-0.529,0.143-1.087,0.672-1.244l14.07-4.195
							c0.536-0.159,1.088,0.144,1.244,0.672c0.158,0.529-0.143,1.087-0.672,1.244l-14.07,4.195
							C67.179,72.521,67.082,72.535,66.988,72.535z"/>
					</g>
				</g>
				<g>
					<g>
						<path class="st5" d="M66.988,67.681c-0.432,0-0.829-0.28-0.958-0.714c-0.158-0.529,0.143-1.087,0.672-1.244l14.07-4.195
							c0.536-0.159,1.088,0.144,1.244,0.672c0.158,0.529-0.143,1.087-0.672,1.244l-14.07,4.195
							C67.179,67.667,67.082,67.681,66.988,67.681z"/>
					</g>
				</g>
				<g>
					<g>
						<path class="st5" d="M66.988,57.972c-0.432,0-0.829-0.28-0.958-0.714c-0.158-0.529,0.143-1.087,0.672-1.244l14.07-4.195
							c0.536-0.159,1.088,0.145,1.244,0.672c0.158,0.529-0.143,1.087-0.672,1.244l-14.07,4.195
							C67.179,57.958,67.082,57.972,66.988,57.972z"/>
					</g>
				</g>
				<g>
					<g>
						<path class="st5" d="M66.988,62.826c-0.432,0-0.829-0.28-0.958-0.714c-0.158-0.529,0.143-1.087,0.672-1.244l14.07-4.195
							c0.536-0.159,1.088,0.144,1.244,0.672c0.158,0.529-0.143,1.087-0.672,1.244l-14.07,4.195
							C67.179,62.812,67.082,62.826,66.988,62.826z"/>
					</g>
				</g>
			</g>
			<g>
				<g>
					<g>
						<path class="st5" d="M64,78.281c-0.096,0-0.192-0.014-0.286-0.042l-20.047-5.978c-0.424-0.126-0.714-0.516-0.714-0.958V47.031
							c0-0.315,0.149-0.613,0.402-0.802c0.254-0.188,0.582-0.246,0.883-0.156l20.047,5.978C64.709,52.177,65,52.566,65,53.009
							v24.272c0,0.315-0.149,0.613-0.402,0.802C64.423,78.213,64.213,78.281,64,78.281z M44.953,70.559L63,75.939V53.754
							l-18.047-5.381V70.559z"/>
					</g>
				</g>
				<g>
					<g>
						<path class="st5" d="M64,81.428c-0.096,0-0.192-0.014-0.286-0.042l-20.047-5.978c-0.424-0.126-0.714-0.516-0.714-0.958v-3.146
							c0-0.315,0.149-0.613,0.402-0.802c0.254-0.188,0.582-0.247,0.883-0.156l20.047,5.978C64.709,76.449,65,76.839,65,77.281v3.146
							c0,0.315-0.149,0.613-0.402,0.802C64.423,81.359,64.213,81.428,64,81.428z M44.953,73.705L63,79.086v-1.06l-18.047-5.381
							V73.705z"/>
					</g>
				</g>
				<g>
					<g>
						<path class="st5" d="M61.012,72.535c-0.095,0-0.191-0.014-0.286-0.042l-14.07-4.195c-0.529-0.157-0.831-0.715-0.673-1.244
							s0.714-0.828,1.244-0.672l14.07,4.195c0.529,0.157,0.831,0.715,0.673,1.244C61.841,72.255,61.443,72.535,61.012,72.535z"/>
					</g>
				</g>
				<g>
					<g>
						<path class="st5" d="M61.012,67.681c-0.095,0-0.191-0.014-0.286-0.042l-14.07-4.195c-0.529-0.157-0.831-0.715-0.673-1.244
							s0.714-0.83,1.244-0.672l14.07,4.195c0.529,0.157,0.831,0.715,0.673,1.244C61.841,67.4,61.443,67.681,61.012,67.681z"/>
					</g>
				</g>
				<g>
					<g>
						<path class="st5" d="M61.012,57.972c-0.095,0-0.191-0.014-0.286-0.042l-14.07-4.195c-0.529-0.157-0.831-0.715-0.673-1.244
							s0.714-0.829,1.244-0.672l14.07,4.195c0.529,0.157,0.831,0.715,0.673,1.244C61.841,57.691,61.443,57.972,61.012,57.972z"/>
					</g>
				</g>
				<g>
					<g>
						<path class="st5" d="M61.012,62.826c-0.095,0-0.191-0.014-0.286-0.042l-14.07-4.195c-0.529-0.157-0.831-0.715-0.673-1.244
							s0.714-0.831,1.244-0.672l14.07,4.195c0.529,0.157,0.831,0.715,0.673,1.244C61.841,62.546,61.443,62.826,61.012,62.826z"/>
					</g>
				</g>
			</g>
		</g>
		<g>
			<g>
				<path class="st5" d="M73.881,44.595c-0.148,0-0.299-0.033-0.44-0.103c-2.955-1.454-6.132-2.191-9.44-2.191
					s-6.484,0.737-9.44,2.191c-0.498,0.243-1.095,0.039-1.339-0.456c-0.244-0.495-0.04-1.095,0.456-1.339
					c3.232-1.59,6.706-2.396,10.323-2.396s7.091,0.807,10.323,2.396c0.495,0.244,0.699,0.844,0.456,1.339
					C74.605,44.39,74.25,44.595,73.881,44.595z"/>
			</g>
		</g>
		<g>
			<g>
				<path class="st5" d="M64,87.157c-3.619,0-7.092-0.806-10.323-2.396c-0.496-0.244-0.7-0.844-0.456-1.339
					c0.244-0.495,0.841-0.698,1.339-0.456c2.954,1.453,6.13,2.19,9.44,2.19c3.311,0,6.486-0.737,9.44-2.19
					c0.493-0.241,1.095-0.04,1.339,0.456c0.243,0.495,0.039,1.095-0.456,1.339C71.092,86.352,67.619,87.157,64,87.157z"/>
			</g>
		</g>
		<g>
			<g>
				<path class="st5" d="M101.767,64.729h-7.456c-0.553,0-1-0.447-1-1s0.447-1,1-1h7.456c0.553,0,1,0.447,1,1
					S102.319,64.729,101.767,64.729z"/>
			</g>
		</g>
		<g>
			<g>
				<path class="st5" d="M33.689,64.729h-7.457c-0.552,0-1-0.447-1-1s0.448-1,1-1h7.457c0.552,0,1,0.447,1,1
					S34.242,64.729,33.689,64.729z"/>
			</g>
		</g>
		<g>
			<g>
				<path class="st5" d="M114.384,77.348c-7.509,0-13.617-6.109-13.617-13.618s6.108-13.618,13.617-13.618
					c7.508,0,13.616,6.109,13.616,13.618S121.892,77.348,114.384,77.348z M114.384,52.111c-6.405,0-11.617,5.212-11.617,11.618
					s5.212,11.618,11.617,11.618S126,70.136,126,63.729S120.789,52.111,114.384,52.111z"/>
			</g>
		</g>
		<g>
			<g>
				<path class="st5" d="M13.617,77.348C6.108,77.348,0,71.238,0,63.729s6.108-13.618,13.617-13.618
					c7.508,0,13.616,6.109,13.616,13.618S21.125,77.348,13.617,77.348z M13.617,52.111C7.211,52.111,2,57.323,2,63.729
					s5.211,11.618,11.617,11.618s11.616-5.212,11.616-11.618S20.022,52.111,13.617,52.111z"/>
			</g>
		</g>
		<g>
			<g>
				<path class="st5" d="M64.252,112.959c-19.622,0-37.252-10.238-46.013-26.72c-0.259-0.488-0.074-1.094,0.414-1.353
					c0.488-0.262,1.093-0.074,1.352,0.413c8.413,15.827,25.367,25.659,44.247,25.659c5.581,0,11.48-1.044,17.06-3.019
					c0.523-0.184,1.093,0.089,1.276,0.608c0.185,0.521-0.088,1.093-0.608,1.276C76.187,111.875,70.058,112.959,64.252,112.959z"/>
			</g>
		</g>
		<g>
			<g>
				<path class="st5" d="M109.777,44.466c-0.371,0-0.728-0.207-0.9-0.563C100.668,27,83.541,16.5,64.18,16.5
					c-5.967,0-11.813,1.002-17.376,2.978c-0.52,0.184-1.092-0.088-1.277-0.607c-0.185-0.521,0.087-1.093,0.608-1.277
					C51.913,15.541,57.984,14.5,64.18,14.5c20.134,0,37.95,10.932,46.496,28.529c0.241,0.496,0.034,1.095-0.463,1.336
					C110.072,44.434,109.924,44.466,109.777,44.466z"/>
			</g>
		</g>
		<g>
			<g>
				<g>
					<path class="st5" d="M18.206,72.525H7.676c-1.028,0-1.865-0.837-1.865-1.865V56.798c0-1.028,0.836-1.864,1.865-1.864h11.88
						c1.028,0,1.865,0.836,1.865,1.864V69.31c0,0.266-0.105,0.52-0.293,0.707l-2.216,2.216
						C18.725,72.42,18.471,72.525,18.206,72.525z M7.812,70.525h9.98l1.63-1.63V56.934H7.812V70.525z M19.557,56.934h0.01H19.557z"
						/>
				</g>
			</g>
			<g>
				<g>
					<path class="st5" d="M15.565,68.736H9.668c-0.552,0-1-0.447-1-1s0.448-1,1-1h5.897c0.552,0,1,0.447,1,1
						S16.117,68.736,15.565,68.736z"/>
				</g>
			</g>
			<g>
				<g>
					<path class="st5" d="M17.565,60.723H9.668c-0.552,0-1-0.447-1-1s0.448-1,1-1h7.897c0.552,0,1,0.447,1,1
						S18.117,60.723,17.565,60.723z"/>
				</g>
			</g>
			<g>
				<g>
					<path class="st5" d="M17.565,64.729H9.668c-0.552,0-1-0.447-1-1s0.448-1,1-1h7.897c0.552,0,1,0.447,1,1
						S18.117,64.729,17.565,64.729z"/>
				</g>
			</g>
		</g>
		<g>
			<g>
				<g>
					<path class="st5" d="M114.384,66.899c-0.141,0-0.28-0.029-0.411-0.089l-8.786-3.968c-0.358-0.161-0.589-0.519-0.589-0.911
						c0-0.394,0.23-0.75,0.589-0.911l8.786-3.967c0.262-0.119,0.561-0.119,0.822,0l8.785,3.967c0.358,0.161,0.589,0.518,0.589,0.911
						c0,0.393-0.23,0.75-0.589,0.911l-8.785,3.968C114.665,66.87,114.524,66.899,114.384,66.899z M108.027,61.932l6.356,2.87
						l6.355-2.87l-6.355-2.869L108.027,61.932z"/>
				</g>
			</g>
			<g>
				<g>
					<path class="st5" d="M114.384,70.493c-1.748,0-3.495-0.404-5.23-1.213c-0.353-0.164-0.578-0.518-0.578-0.906v-4.646
						c0-0.34,0.172-0.656,0.458-0.84c0.285-0.185,0.646-0.212,0.953-0.071l4.397,1.984l4.396-1.984
						c0.308-0.142,0.668-0.114,0.953,0.071c0.286,0.184,0.458,0.5,0.458,0.84v4.646c0,0.389-0.226,0.742-0.578,0.906
						C117.879,70.089,116.131,70.493,114.384,70.493z M110.575,67.72c2.557,1.039,5.06,1.039,7.616,0v-2.442l-3.396,1.533
						c-0.262,0.119-0.561,0.119-0.822,0l-3.397-1.533V67.72z"/>
				</g>
			</g>
			<g>
				<g>
					<path class="st5" d="M123.169,67.611c-0.553,0-1-0.447-1-1v-4.68c0-0.553,0.447-1,1-1s1,0.447,1,1v4.68
						C124.169,67.164,123.722,67.611,123.169,67.611z"/>
				</g>
			</g>
		</g>
		<g>
			<g>
				<path class="st5" d="M17.178,92.503c-0.106,0-0.215-0.017-0.321-0.053c-0.523-0.178-0.803-0.745-0.626-1.269l1.944-5.733
					c0.173-0.509,0.721-0.79,1.232-0.637l6.12,1.821c0.529,0.157,0.831,0.714,0.673,1.243c-0.158,0.53-0.716,0.83-1.244,0.673
					l-5.197-1.546l-1.634,4.821C17.984,92.24,17.595,92.503,17.178,92.503z"/>
			</g>
		</g>
		<g>
			<g>
				<path class="st5" d="M109.776,44.466c-0.1,0-0.2-0.015-0.3-0.046l-6.183-1.944c-0.527-0.166-0.819-0.728-0.654-1.254
					c0.166-0.526,0.729-0.818,1.254-0.654l5.234,1.646l1.66-5.175c0.168-0.524,0.729-0.813,1.258-0.646
					c0.525,0.169,0.815,0.731,0.646,1.258l-1.964,6.121C110.593,44.195,110.2,44.466,109.776,44.466z"/>
			</g>
		</g>
		<g>
			<g>
				<path class="st5" d="M13.617,44.595c-4.465,0-8.117-4.806-10.855-14.283c-1.959-6.784-2.724-13.446-2.755-13.727
					c-0.062-0.549,0.333-1.044,0.882-1.106c0.549-0.055,1.043,0.333,1.105,0.882c0.823,7.297,4.515,26.234,11.623,26.234
					c4.343,0,5.718-5.975,7.173-12.301c1.598-6.947,3.409-14.821,10.134-14.821c8.885,0,11.235,17.788,11.331,18.546
					c0.069,0.548-0.319,1.048-0.867,1.117c-0.544,0.062-1.048-0.318-1.118-0.866c-0.592-4.672-3.427-16.797-9.347-16.797
					c-5.133,0-6.615,6.445-8.185,13.27C21.172,37.553,19.552,44.595,13.617,44.595z"/>
			</g>
		</g>
	</g>
</g>
</svg>
