<?xml version="1.0" encoding="utf-8"?>
<!-- Generator: Adobe Illustrator 22.0.0, SVG Export Plug-In . SVG Version: 6.00 Build 0)  -->
<svg version="1.1" id="MARKET_RESEARCH_ICON_SET" xmlns="http://www.w3.org/2000/svg" xmlns:xlink="http://www.w3.org/1999/xlink"
	 x="0px" y="0px" viewBox="0 0 128 128" style="enable-background:new 0 0 128 128;" xml:space="preserve">
<style type="text/css">
	.st0{fill:#C2D5EC;}
	.st1{fill:#61E1FF;}
	.st2{fill:#7184AF;}
	.st3{fill:#F8F8F8;}
	.st4{fill:#3F4D81;}
	.st5{fill:#3F4D80;}
	.st6{fill:#E9EAEB;}
	.st7{fill:#F79559;}
	.st8{fill:#FFA85A;}
</style>
<g>
	<g>
		<g>
			<rect y="58.861" class="st0" width="128" height="55.139"/>
		</g>
		<g>
			<path class="st4" d="M80.866,88.922L80.866,88.922l-6.591-3.249v-5.624c-0.014,0.006-0.028,0.01-0.042,0.017
				c4.331-1.958,7.617-5.79,8.835-10.464v0c0.063-0.007,0.119-0.01,0.186-0.02c3.249-0.49,4.641-2.805,4.641-5.355v-3.125
				c0-1.08-0.377-1.78-0.865-2.24H48.324c-0.488,0.461-0.865,1.16-0.865,2.24v3.125c0,2.551,1.392,4.865,4.641,5.355
				c0.067,0.01,0.123,0.013,0.186,0.02v0c1.217,4.669,4.498,8.498,8.823,10.458c-0.009-0.004-0.018-0.007-0.027-0.011v5.624
				l-6.593,3.251l-0.001-0.001c0,0-14.685,5.482-14.685,17.651c0,2.195-0.155,4.733-0.293,7.427h56.335
				c-0.138-2.694-0.293-5.232-0.293-7.427C95.552,94.404,80.866,88.922,80.866,88.922z"/>
		</g>
		<g>
			<path class="st5" d="M95.842,115H39.507c-0.274,0-0.536-0.112-0.725-0.311c-0.188-0.199-0.288-0.466-0.273-0.74l0.065-1.248
				c0.117-2.212,0.227-4.302,0.227-6.128c0-5.293,2.671-10.194,7.724-14.174c3.562-2.806,7.083-4.21,7.562-4.395l5.993-2.954v-4.374
				c-4.159-2.086-7.242-5.745-8.585-10.189c-3.123-0.655-5.038-3.017-5.038-6.262v-3.125c0-1.231,0.397-2.23,1.179-2.968
				c0.186-0.175,0.431-0.272,0.686-0.272h38.706c0.255,0,0.5,0.098,0.686,0.272c0.782,0.738,1.179,1.736,1.179,2.968v3.125
				c0,3.247-1.917,5.61-5.038,6.263c-1.344,4.444-4.426,8.102-8.583,10.188v4.374l5.991,2.954c0.479,0.184,4,1.589,7.562,4.395
				c5.053,3.98,7.724,8.881,7.724,14.174c0,1.821,0.109,3.904,0.226,6.109l0.066,1.266c0.014,0.274-0.085,0.542-0.273,0.74
				C96.378,114.888,96.116,115,95.842,115z M40.561,113h54.228l-0.011-0.212c-0.118-2.232-0.229-4.34-0.229-6.214
				c0-11.321-13.896-16.662-14.036-16.714c-0.031-0.012-0.062-0.025-0.092-0.04l-6.591-3.25c-0.341-0.168-0.558-0.516-0.558-0.897
				v-5.356c-0.125-0.465,0.096-0.958,0.546-1.162c4.123-1.864,7.141-5.438,8.28-9.805c0.104-0.399,0.442-0.693,0.852-0.741
				l0.302,0.973l-0.149-0.989c3.421-0.517,3.79-3.226,3.79-4.367v-3.125c0-0.51-0.105-0.919-0.32-1.24H48.777
				c-0.215,0.321-0.32,0.73-0.32,1.24v3.125c0,1.141,0.369,3.85,3.79,4.367c0.007,0,0.145,0.015,0.152,0.016
				c0.41,0.047,0.748,0.342,0.852,0.741c1.137,4.362,4.151,7.934,8.268,9.8c0.444,0.201,0.67,0.687,0.56,1.144v5.38
				c0,0.381-0.216,0.729-0.558,0.897l-6.593,3.25c-0.034,0.016-0.067,0.031-0.102,0.043c-0.312,0.118-14.027,5.424-14.027,16.71
				c0,1.879-0.112,3.994-0.229,6.233L40.561,113z"/>
		</g>
		<g>
			<path class="st8" d="M1,33.156v25.704c0,2.205,1.791,3.992,4,3.992h16.22c1.124,0,2.196,0.472,2.953,1.3L35.309,76.32v-9.475
				c0-2.205,1.791-3.992,4-3.992h9.657c2.209,0,4-1.787,4-3.992V33.156c0-2.205-1.791-3.992-4-3.992H5
				C2.791,29.164,1,30.952,1,33.156z"/>
		</g>
		<g>
			<g>
				<path class="st3" d="M4,61.855V33.289c0-0.625,0.507-1.131,1.133-1.131h46.834c0.308,0,0.604,0.042,0.892,0.108
					c-0.406-1.775-1.991-3.102-3.892-3.102H5c-2.209,0-4,1.787-4,3.992v25.704c0,1.898,1.33,3.479,3.108,3.884
					C4.042,62.458,4,62.162,4,61.855z"/>
			</g>
			<g>
				<polygon class="st3" points="26.253,66.425 35.309,76.32 35.309,76.32 				"/>
			</g>
		</g>
		<g>
			<path class="st1" d="M127,51.16v25.704c0,2.205-1.791,3.992-4,3.992h-16.22c-1.124,0-2.196,0.472-2.953,1.3L92.691,94.324v-9.475
				c0-2.205-1.791-3.992-4-3.992h-9.657c-2.209,0-4-1.787-4-3.992V51.16c0-2.205,1.791-3.992,4-3.992H123
				C125.209,47.168,127,48.956,127,51.16z"/>
		</g>
		<g>
			<ellipse class="st6" cx="29.833" cy="43.164" rx="8.68" ry="8.662"/>
		</g>
		<g>
			<path class="st4" d="M75.033,51.16v25.704c0,0.754,0.274,1.679,0.784,2.374c3.668-2.181,6.238-5.743,7.253-9.637v0
				c0.063-0.007,0.119-0.01,0.186-0.02c3.249-0.49,4.641-2.805,4.641-5.355v-3.125c0-3.112-3.104-3.112-3.104-3.112
				c-0.175,0-0.345,0.016-0.511,0.04v-7.893c0-1.114-0.056-2.096-0.156-2.967h-5.092C76.824,47.168,75.033,48.956,75.033,51.16z"/>
		</g>
		<g>
			<path class="st5" d="M75.818,80.239c-0.338,0-0.668-0.172-0.856-0.482l-0.1-0.163c-0.369-0.596-0.829-1.337-0.829-2.729V51.16
				c0-2.752,2.243-4.992,5-4.992h5.092c0.508,0,0.936,0.381,0.994,0.886c0.108,0.94,0.163,1.977,0.163,3.082v6.883
				c1.605,0.195,3.616,1.351,3.616,4.082v3.125c0,3.248-1.917,5.61-5.038,6.263c-1.213,3.988-3.929,7.464-7.53,9.609
				C76.169,80.193,75.992,80.239,75.818,80.239z M79.033,48.168c-1.654,0-3,1.342-3,2.992v25.705c0,0.406,0.054,0.699,0.146,0.952
				c2.899-2.019,5.034-5.054,5.924-8.467c0.104-0.399,0.442-0.693,0.852-0.741l0.302,0.973l-0.149-0.989
				c3.421-0.517,3.79-3.226,3.79-4.367v-3.125c0-1.93-1.616-2.105-2.112-2.112c-0.119,0-0.242,0.012-0.362,0.029
				c-0.288,0.042-0.578-0.044-0.797-0.234c-0.219-0.19-0.345-0.466-0.345-0.756v-7.893c0-0.689-0.022-1.348-0.067-1.967H79.033z"/>
		</g>
		<g>
			<g>
				<path class="st8" d="M91.875,106.573c0-12.169-14.685-17.651-14.685-17.651l-6.907,14.054l-6.278-4.813v-0.007L64,98.16
					l-0.004-0.003v0.007l-6.278,4.813l-6.907-14.054c0,0-14.685,5.482-14.685,17.651c0,2.195-0.155,4.733-0.293,7.427h56.335
					C92.03,111.306,91.875,108.768,91.875,106.573z"/>
			</g>
			<g>
				<path class="st3" d="M40.125,108.406c0-9.3,8.572-13.529,12.616-15.555l-1.931-3.928c0,0-14.685,5.482-14.685,17.651
					c0,2.195-0.155,4.733-0.293,7.427h4.154C40.064,112.424,40.125,109.763,40.125,108.406z"/>
			</g>
			<g>
				<path class="st6" d="M57.405,80.049v5.624l6.597,12.483l6.597-12.483v-5.624c-2.012,0.916-4.241,1.44-6.597,1.44
					C61.645,81.489,59.416,80.965,57.405,80.049z"/>
			</g>
			<g>
				<polygon class="st2" points="64.001,98.155 70.288,102.975 77.195,88.925 70.598,85.673 				"/>
			</g>
			<g>
				<polygon class="st2" points="50.808,88.925 57.715,102.975 64.001,98.155 57.405,85.673 				"/>
			</g>
			<g>
				<path class="st3" d="M75.335,55.147c0-2.995-2.432-5.422-5.433-5.422H58.098c-3.001,0-5.433,2.428-5.433,5.422
					c0,8.665-4.587,8.665-4.587,8.665v1.785c0,8.776,7.128,15.89,15.922,15.89c8.793,0,15.922-7.114,15.922-15.89v-1.785
					C79.922,63.812,75.335,63.812,75.335,55.147z"/>
			</g>
			<g>
				<path class="st4" d="M73.91,41.188c0,0-1.358-3.351-5.631-3.351h-8.562c-6.805,0-12.321,5.505-12.321,12.296v8.762h0.024
					c0.001,1.703,0.214,3.356,0.657,4.916c0,0,4.587,0,4.587-8.665c0-2.995,2.432-5.422,5.433-5.422h11.804
					c3.001,0,5.433,2.427,5.433,5.422c0,8.665,4.587,8.665,4.587,8.665c0.443-1.56,0.656-3.213,0.657-4.916h0.024v-8.76
					C80.603,37.837,73.91,41.188,73.91,41.188z"/>
			</g>
			<g>
				<path class="st6" d="M81.114,57.989c-0.175,0-0.345,0.016-0.511,0.04v0.868h-0.024c-0.001,1.703-0.214,3.356-0.657,4.916h0
					v1.785c0,1.386-0.196,2.723-0.53,4.005c0.063-0.007,0.119-0.01,0.186-0.02c3.249-0.49,4.641-2.805,4.641-5.355v-3.125
					C84.218,57.989,81.114,57.989,81.114,57.989z"/>
			</g>
			<g>
				<path class="st6" d="M46.886,57.989c0.175,0,0.345,0.016,0.511,0.04v0.868h0.024c0.001,1.703,0.214,3.356,0.657,4.916h0v1.785
					c0,1.386,0.196,2.723,0.53,4.005c-0.063-0.007-0.119-0.01-0.186-0.02c-3.249-0.49-4.641-2.805-4.641-5.355v-3.125
					C43.782,57.989,46.886,57.989,46.886,57.989z"/>
			</g>
		</g>
		<g>
			<g>
				<path class="st2" d="M97.481,35.556v3.529c0,0.974,0.791,1.764,1.768,1.764h3.536c0.976,0,1.768-0.79,1.768-1.764v-3.529H97.481
					z"/>
			</g>
			<g>
				<path class="st8" d="M105.688,21.436c-2.645-2.331-6.698-2.331-9.342,0c-2.91,2.565-3.174,6.896-0.791,9.781
					c0.503,0.609,0.96,1.255,1.295,1.969c0.33,0.704,0.632,1.568,0.632,2.37h3.536h3.536c0-0.802,0.302-1.666,0.632-2.37
					c0.335-0.715,0.792-1.361,1.295-1.969C108.862,28.332,108.598,24.001,105.688,21.436z"/>
			</g>
		</g>
		<g>
			<g>
				<rect x="11.99" y="85.698" class="st2" width="3.801" height="10.705"/>
			</g>
			<g>
				<path class="st1" d="M30.447,88.04c0-0.924-0.75-1.673-1.676-1.673c0.98,0,1.763-0.839,1.668-1.837
					c-0.083-0.87-0.865-1.508-1.74-1.508h-4.863v-3.905c0-1.098-0.892-1.988-1.992-1.988c-0.969,0-1.795,0.695-1.962,1.648
					c-0.39,2.223-1.436,6.922-4.091,6.922v10.705h12.98c0.926,0,1.676-0.749,1.676-1.673c0-0.924-0.75-1.673-1.676-1.673
					c0.926,0,1.676-0.749,1.676-1.673c0-0.924-0.75-1.673-1.676-1.673C29.697,89.713,30.447,88.964,30.447,88.04z"/>
			</g>
		</g>
	</g>
	<g>
		<g>
			<g>
				<path class="st5" d="M127,115H1c-0.552,0-1-0.448-1-1s0.448-1,1-1h126c0.552,0,1,0.448,1,1S127.552,115,127,115z"/>
			</g>
		</g>
		<g>
			<g>
				<g>
					<path class="st5" d="M64.001,99.155c-0.371,0-0.711-0.205-0.884-0.533L56.521,86.14c-0.076-0.144-0.116-0.304-0.116-0.467
						v-5.624c0-0.34,0.173-0.657,0.459-0.841c0.287-0.184,0.646-0.209,0.956-0.069c3.933,1.792,8.429,1.792,12.364,0
						c0.31-0.14,0.669-0.115,0.956,0.069s0.459,0.5,0.459,0.841v5.624c0,0.163-0.04,0.323-0.116,0.467l-6.597,12.482
						C64.712,98.95,64.372,99.155,64.001,99.155z M58.405,85.425l5.597,10.59l5.597-10.59V81.53c-3.608,1.274-7.586,1.274-11.193,0
						V85.425z"/>
				</g>
			</g>
			<g>
				<g>
					<path class="st5" d="M70.288,103.975c-0.218,0-0.432-0.071-0.608-0.207l-6.286-4.819c-0.387-0.297-0.503-0.83-0.276-1.261
						l6.597-12.482c0.254-0.479,0.842-0.667,1.327-0.43l6.597,3.252c0.495,0.244,0.699,0.843,0.455,1.338l-6.907,14.049
						c-0.132,0.269-0.378,0.464-0.669,0.532C70.44,103.966,70.364,103.975,70.288,103.975z M65.28,97.875l4.648,3.563l5.929-12.059
						L71.028,87L65.28,97.875z"/>
				</g>
			</g>
			<g>
				<g>
					<path class="st5" d="M57.715,103.975c-0.076,0-0.152-0.009-0.228-0.026c-0.292-0.068-0.537-0.264-0.669-0.532l-6.907-14.049
						c-0.244-0.496-0.04-1.094,0.455-1.338l6.597-3.252c0.484-0.239,1.073-0.049,1.327,0.43l6.597,12.482
						c0.228,0.431,0.111,0.964-0.276,1.261l-6.287,4.819C58.147,103.903,57.933,103.975,57.715,103.975z M52.146,89.38l5.928,12.059
						l4.648-3.563L56.975,87L52.146,89.38z"/>
				</g>
			</g>
			<g>
				<g>
					<path class="st5" d="M47.635,115c-0.552,0-1-0.448-1-1v-5.966c0-0.552,0.448-1,1-1c0.552,0,1,0.448,1,1V114
						C48.635,114.552,48.187,115,47.635,115z"/>
				</g>
			</g>
			<g>
				<g>
					<path class="st5" d="M92.168,115H35.832c-0.274,0-0.536-0.112-0.725-0.311c-0.188-0.199-0.288-0.466-0.273-0.74l0.065-1.248
						c0.117-2.212,0.227-4.302,0.227-6.128c0-5.293,2.671-10.194,7.724-14.174c3.751-2.954,7.456-4.355,7.612-4.414
						c0.479-0.177,1.021,0.034,1.247,0.496l6.369,12.958l5.257-4.03c0.066-0.059,0.141-0.109,0.222-0.149
						c0.154-0.075,0.317-0.111,0.484-0.102c0.137,0.005,0.273,0.038,0.401,0.101c0.085,0.042,0.163,0.094,0.231,0.155l5.25,4.025
						l6.369-12.958c0.226-0.462,0.766-0.676,1.247-0.496c0.156,0.058,3.861,1.459,7.612,4.414c5.053,3.98,7.724,8.881,7.724,14.174
						c0,1.826,0.11,3.916,0.227,6.128l0.065,1.248c0.014,0.274-0.085,0.542-0.273,0.74C92.704,114.888,92.442,115,92.168,115z
						 M36.886,113h54.229l-0.01-0.193c-0.118-2.239-0.229-4.354-0.229-6.233c0-9.713-10.187-15.008-13.204-16.363l-6.491,13.206
						c-0.132,0.269-0.378,0.464-0.669,0.533c-0.292,0.068-0.598,0.002-0.836-0.18L64,99.42l-5.674,4.349
						c-0.238,0.182-0.545,0.248-0.836,0.18c-0.292-0.068-0.537-0.264-0.669-0.533l-6.49-13.205
						c-3.017,1.359-13.205,6.668-13.205,16.362c0,1.879-0.112,3.994-0.229,6.233L36.886,113z"/>
				</g>
			</g>
			<g>
				<g>
					<path class="st5" d="M80.365,115c-0.552,0-1-0.448-1-1v-5.966c0-0.552,0.448-1,1-1c0.552,0,1,0.448,1,1V114
						C81.365,114.552,80.917,115,80.365,115z"/>
				</g>
			</g>
			<g>
				<g>
					<path class="st5" d="M64,82.487c-9.331,0-16.921-7.577-16.921-16.89v-1.785c0-0.552,0.448-1,1-1
						c0.129-0.005,3.586-0.222,3.586-7.666c0-3.541,2.886-6.422,6.433-6.422h11.804c3.547,0,6.433,2.881,6.433,6.422
						c0,7.444,3.458,7.66,3.605,7.666c0.537,0.021,0.982,0.462,0.982,1v1.785C80.922,74.91,73.331,82.487,64,82.487z M49.079,64.636
						v0.961c0,8.21,6.694,14.89,14.921,14.89c8.228,0,14.922-6.68,14.922-14.89v-0.961c-1.611-0.493-4.587-2.369-4.587-9.49
						c0-2.438-1.989-4.422-4.433-4.422H58.098c-2.444,0-4.433,1.984-4.433,4.422C53.665,62.268,50.689,64.143,49.079,64.636z"/>
				</g>
			</g>
			<g>
				<g>
					<path class="st5" d="M79.922,64.812c-0.228,0-5.587-0.11-5.587-9.665c0-2.438-1.989-4.422-4.433-4.422H58.098
						c-2.444,0-4.433,1.984-4.433,4.422c0,9.555-5.359,9.665-5.587,9.665c-0.447,0-0.84-0.297-0.962-0.727
						c-0.442-1.56-0.675-3.23-0.694-4.971c-0.016-0.07-0.025-0.143-0.025-0.218v-8.762c0-7.332,5.976-13.296,13.321-13.296h8.562
						c3.506,0,5.322,1.96,6.093,3.129c0.935-0.247,2.452-0.409,3.9,0.484c2.21,1.365,3.331,4.624,3.331,9.685v8.76
						c0,0.078-0.009,0.154-0.026,0.227c-0.02,1.739-0.252,3.407-0.693,4.962C80.762,64.515,80.369,64.812,79.922,64.812z
						 M48.397,58.683c0.016,0.069,0.024,0.14,0.024,0.213c0,1.29,0.13,2.535,0.387,3.714c1.05-0.478,2.857-2.082,2.857-7.463
						c0-3.542,2.886-6.422,6.433-6.422h11.804c3.547,0,6.433,2.881,6.433,6.422c0,5.326,1.812,6.954,2.86,7.45
						c0.254-1.174,0.383-2.415,0.384-3.701c0-0.076,0.008-0.149,0.024-0.22v-8.54c0-5.364-1.288-7.297-2.367-7.974
						c-1.311-0.821-2.868-0.085-2.884-0.077c-0.248,0.121-0.54,0.135-0.798,0.035c-0.256-0.098-0.463-0.296-0.568-0.549l0,0
						c-0.047-0.111-1.196-2.733-4.707-2.733h-8.562c-6.242,0-11.321,5.067-11.321,11.296V58.683z"/>
				</g>
			</g>
			<g>
				<g>
					<path class="st5" d="M79.46,70.594c-0.297,0-0.604-0.125-0.795-0.349c-0.211-0.249-0.324-0.581-0.242-0.896
						c0.331-1.267,0.498-2.53,0.498-3.752v-1.785c0-0.092,0.013-0.184,0.038-0.273c0.41-1.445,0.618-3.007,0.619-4.644
						c0-0.076,0.008-0.149,0.024-0.22v-0.647c0-0.497,0.365-0.919,0.857-0.99c0.212-0.031,0.43-0.05,0.654-0.05
						c1.65,0,4.104,1.095,4.104,4.112v3.125c0,3.402-2.104,5.833-5.491,6.344l-0.171,0.02C79.524,70.593,79.493,70.594,79.46,70.594
						z M80.922,63.949v1.648c0,0.874-0.075,1.762-0.222,2.657c2.246-0.911,2.519-3.048,2.519-4.028v-3.125
						c0-1.487-0.958-1.932-1.625-2.062c-0.004,0.028-0.009,0.056-0.016,0.083C81.559,60.811,81.338,62.433,80.922,63.949z
						 M80.603,58.896h0.01H80.603z"/>
				</g>
			</g>
			<g>
				<g>
					<path class="st5" d="M48.608,70.602c-0.038,0-0.077-0.002-0.116-0.007l-0.214-0.023c-3.393-0.513-5.497-2.943-5.497-6.345
						v-3.125c0-3.017,2.455-4.112,4.104-4.112c0.224,0,0.44,0.019,0.653,0.05c0.492,0.071,0.858,0.492,0.858,0.99v0.652
						c0.016,0.069,0.024,0.141,0.024,0.215c0,1.636,0.208,3.198,0.619,4.644c0.025,0.089,0.038,0.181,0.038,0.273v1.785
						c0,1.224,0.167,2.486,0.498,3.752c0.083,0.32,0.003,0.66-0.213,0.909C49.172,70.478,48.896,70.602,48.608,70.602z
						 M46.408,59.04c-0.667,0.129-1.626,0.574-1.626,2.062v3.125c0,0.98,0.273,3.118,2.519,4.028
						c-0.147-0.895-0.222-1.783-0.222-2.657v-1.648c-0.417-1.519-0.638-3.142-0.656-4.833C46.417,59.091,46.412,59.065,46.408,59.04
						z"/>
				</g>
			</g>
		</g>
		<g>
			<g>
				<path class="st5" d="M35.31,77.32c-0.275,0-0.544-0.114-0.738-0.325L23.435,64.828c-0.567-0.62-1.375-0.975-2.215-0.975H5
					c-2.757,0-5-2.239-5-4.992V33.156c0-2.752,2.243-4.992,5-4.992h43.967c2.757,0,5,2.239,5,4.992v6.698
					c0,0.337-0.17,0.651-0.452,0.836c-3.205,2.101-5.118,5.631-5.118,9.443v7.895c0,0.29-0.126,0.566-0.345,0.756
					c-0.219,0.189-0.512,0.275-0.797,0.234c-0.12-0.017-0.243-0.029-0.369-0.029c-0.488,0.007-2.104,0.182-2.104,2.112v1.751
					c0,0.552-0.448,1-1,1H39.31c-1.654,0-3,1.342-3,2.992v9.475c0,0.413-0.253,0.783-0.638,0.932
					C35.554,77.298,35.431,77.32,35.31,77.32z M5,30.165c-1.654,0-3,1.342-3,2.992v25.705c0,1.649,1.346,2.992,3,2.992h16.22
					c1.401,0,2.746,0.592,3.691,1.625l9.399,10.269v-6.901c0-2.753,2.243-4.992,5-4.992h3.472v-0.751
					c0-2.731,2.011-3.887,3.616-4.082v-6.885c0-4.307,2.072-8.307,5.569-10.807v-6.171c0-1.649-1.346-2.992-3-2.992H5z"/>
			</g>
		</g>
		<g>
			<g>
				<path class="st5" d="M92.69,95.324c-0.122,0-0.245-0.022-0.362-0.068c-0.384-0.149-0.638-0.52-0.638-0.932v-9.475
					c0-1.649-1.346-2.992-3-2.992h-9.657c-2.699,0-4.888-2.115-4.985-4.815c-0.01-0.283,0.101-0.558,0.305-0.755
					c1.978-1.909,3.386-4.308,4.071-6.938c0.104-0.399,0.442-0.693,0.852-0.741l0.302,0.973l-0.149-0.989
					c3.421-0.517,3.79-3.226,3.79-4.367v-3.125c0-1.93-1.616-2.105-2.111-2.112c-0.119,0-0.242,0.012-0.362,0.029
					c-0.288,0.042-0.578-0.044-0.797-0.234c-0.219-0.19-0.345-0.466-0.345-0.756v-7.893c0-1.029-0.05-1.989-0.15-2.853
					C79.42,47,79.51,46.716,79.7,46.503c0.19-0.213,0.461-0.334,0.747-0.334H123c2.757,0,5,2.239,5,4.992v25.705
					c0,2.753-2.243,4.992-5,4.992h-16.22c-0.841,0-1.648,0.355-2.216,0.975L93.428,94.999C93.235,95.21,92.965,95.324,92.69,95.324z
					 M76.089,77.381c0.244,1.417,1.467,2.476,2.944,2.476h9.657c2.757,0,5,2.239,5,4.992v6.901l9.399-10.269
					c0.945-1.032,2.291-1.624,3.691-1.624H123c1.654,0,3-1.342,3-2.992V51.16c0-1.649-1.346-2.992-3-2.992H81.54
					c0.042,0.625,0.062,1.283,0.062,1.967v6.883c1.605,0.195,3.616,1.351,3.616,4.082v3.125c0,3.247-1.917,5.61-5.038,6.263
					C79.397,73.07,77.995,75.434,76.089,77.381z"/>
			</g>
		</g>
		<g>
			<g>
				<g>
					<path class="st5" d="M91.967,72.331c-0.256,0-0.513-0.098-0.708-0.293c-0.39-0.391-0.389-1.024,0.001-1.415l4.107-4.099
						c0.391-0.389,1.023-0.389,1.413,0l1.482,1.479l3.913-3.905c0.391-0.39,1.023-0.389,1.413,0l2.821,2.816l10.95-10.929
						c0.392-0.391,1.025-0.389,1.415,0.001c0.39,0.391,0.389,1.024-0.001,1.415l-11.656,11.633c-0.391,0.389-1.023,0.389-1.413,0
						l-2.821-2.816l-3.913,3.905c-0.391,0.39-1.023,0.389-1.413,0l-1.482-1.479l-3.4,3.394
						C92.479,72.233,92.223,72.331,91.967,72.331z"/>
				</g>
			</g>
			<g>
				<g>
					<path class="st5" d="M118.066,61.163c-0.552,0-1-0.448-1-1v-2.468h-2.475c-0.552,0-1-0.448-1-1s0.448-1,1-1h3.475
						c0.552,0,1,0.448,1,1v3.468C119.066,60.715,118.618,61.163,118.066,61.163z"/>
				</g>
			</g>
		</g>
		<g>
			<g>
				<g>
					<path class="st5" d="M29.833,52.822c-2.479,0-4.957-0.942-6.844-2.825c-1.829-1.825-2.835-4.252-2.835-6.833
						c0-2.581,1.007-5.008,2.835-6.833c3.774-3.766,9.914-3.766,13.688,0c1.829,1.825,2.835,4.252,2.835,6.833
						c0,2.582-1.007,5.008-2.835,6.833C34.791,51.88,32.312,52.822,29.833,52.822z M29.833,35.505c-1.967,0-3.934,0.747-5.431,2.242
						c-1.45,1.447-2.249,3.371-2.249,5.417c0,2.046,0.798,3.971,2.249,5.417c2.994,2.989,7.868,2.989,10.862,0
						c1.45-1.447,2.249-3.371,2.249-5.417c0-2.046-0.798-3.97-2.249-5.417C33.768,36.252,31.8,35.505,29.833,35.505z"/>
				</g>
			</g>
			<g>
				<g>
					<path class="st5" d="M15.454,58.515c-0.256,0-0.513-0.098-0.708-0.293c-0.39-0.391-0.389-1.024,0.001-1.415l8.242-8.226
						c0.392-0.391,1.025-0.389,1.415,0.001c0.39,0.391,0.389,1.024-0.001,1.415l-8.242,8.226
						C15.965,58.418,15.709,58.515,15.454,58.515z"/>
				</g>
			</g>
		</g>
		<g>
			<g>
				<g>
					<path class="st5" d="M101.017,17.844c-0.552,0-1-0.448-1-1V14c0-0.552,0.448-1,1-1s1,0.448,1,1v2.844
						C102.017,17.396,101.569,17.844,101.017,17.844z"/>
				</g>
			</g>
			<g>
				<g>
					<path class="st5" d="M108.023,20.74c-0.256,0-0.513-0.098-0.708-0.293c-0.39-0.391-0.389-1.024,0.001-1.415l2.015-2.011
						c0.391-0.391,1.024-0.389,1.415,0.001c0.39,0.391,0.389,1.024-0.001,1.415l-2.015,2.011
						C108.534,20.643,108.278,20.74,108.023,20.74z"/>
				</g>
			</g>
			<g>
				<g>
					<path class="st5" d="M91.996,36.734c-0.256,0-0.513-0.098-0.708-0.293c-0.39-0.391-0.389-1.024,0.001-1.415l2.015-2.011
						c0.392-0.39,1.025-0.39,1.415,0.001c0.39,0.391,0.389,1.024-0.001,1.415l-2.015,2.011
						C92.507,36.637,92.251,36.734,91.996,36.734z"/>
				</g>
			</g>
			<g>
				<g>
					<path class="st5" d="M113.774,27.732h-2.85c-0.552,0-1-0.448-1-1s0.448-1,1-1h2.85c0.552,0,1,0.448,1,1
						S114.326,27.732,113.774,27.732z"/>
				</g>
			</g>
			<g>
				<g>
					<path class="st5" d="M91.109,27.731h-2.85c-0.552,0-1-0.448-1-1s0.448-1,1-1h2.85c0.552,0,1,0.448,1,1
						S91.661,27.731,91.109,27.731z"/>
				</g>
			</g>
			<g>
				<g>
					<path class="st5" d="M110.037,36.735c-0.256,0-0.511-0.097-0.707-0.292l-2.015-2.011c-0.391-0.39-0.392-1.023-0.001-1.415
						c0.39-0.392,1.023-0.392,1.415-0.001l2.015,2.011c0.391,0.39,0.392,1.023,0.001,1.415
						C110.55,36.637,110.293,36.735,110.037,36.735z"/>
				</g>
			</g>
			<g>
				<g>
					<path class="st5" d="M94.011,20.74c-0.256,0-0.511-0.097-0.707-0.292l-2.015-2.011c-0.391-0.39-0.392-1.023-0.001-1.415
						c0.39-0.392,1.023-0.392,1.415-0.001l2.015,2.011c0.391,0.39,0.392,1.023,0.001,1.415C94.523,20.642,94.267,20.74,94.011,20.74
						z"/>
				</g>
			</g>
			<g>
				<g>
					<path class="st5" d="M102.785,41.849h-3.536c-1.526,0-2.768-1.24-2.768-2.765v-3.528c0-0.552,0.448-1,1-1h7.071
						c0.552,0,1,0.448,1,1v3.528C105.553,40.609,104.311,41.849,102.785,41.849z M98.481,36.556v2.528
						c0,0.421,0.344,0.765,0.768,0.765h3.536c0.423,0,0.768-0.343,0.768-0.765v-2.528H98.481z"/>
				</g>
			</g>
			<g>
				<g>
					<path class="st5" d="M104.553,36.556h-7.071c-0.552,0-1-0.448-1-1c0-0.522-0.186-1.195-0.538-1.945
						c-0.26-0.555-0.628-1.113-1.161-1.757c-2.78-3.366-2.384-8.272,0.901-11.167c3.04-2.679,7.625-2.68,10.665,0l0,0
						c3.286,2.896,3.682,7.801,0.901,11.167c-0.531,0.644-0.9,1.202-1.16,1.757c-0.352,0.751-0.538,1.424-0.538,1.945
						C105.553,36.108,105.105,36.556,104.553,36.556z M98.374,34.556h5.287c0.115-0.56,0.322-1.16,0.618-1.793
						c0.334-0.712,0.788-1.406,1.43-2.183c2.088-2.529,1.789-6.216-0.682-8.394l0,0c-2.249-1.981-5.771-1.982-8.02,0
						c-2.471,2.178-2.77,5.865-0.682,8.394c0.643,0.778,1.097,1.472,1.43,2.183C98.052,33.396,98.259,33.996,98.374,34.556z"/>
				</g>
			</g>
			<g>
				<g>
					<path class="st5" d="M104.553,39.203h-3.536c-0.552,0-1-0.448-1-1s0.448-1,1-1h3.536c0.552,0,1,0.448,1,1
						S105.105,39.203,104.553,39.203z"/>
				</g>
			</g>
			<g>
				<g>
					<path class="st5" d="M102.785,30.508h-3.536c-0.552,0-1-0.448-1-1s0.448-1,1-1h3.536c0.552,0,1,0.448,1,1
						S103.337,30.508,102.785,30.508z"/>
				</g>
			</g>
			<g>
				<g>
					<path class="st5" d="M101.017,36.556c-0.552,0-1-0.448-1-1v-6.048c0-0.552,0.448-1,1-1s1,0.448,1,1v6.048
						C102.017,36.108,101.569,36.556,101.017,36.556z"/>
				</g>
			</g>
		</g>
		<g>
			<g>
				<g>
					<path class="st5" d="M15.792,97.404H11.99c-0.552,0-1-0.448-1-1V85.698c0-0.552,0.448-1,1-1h3.802c0.552,0,1,0.448,1,1v10.706
						C16.792,96.956,16.344,97.404,15.792,97.404z M12.99,95.404h1.802v-8.706H12.99V95.404z"/>
				</g>
			</g>
			<g>
				<g>
					<path class="st5" d="M28.771,97.404H15.792c-0.552,0-1-0.448-1-1V85.698c0-0.552,0.448-1,1-1c1.275,0,2.437-2.278,3.105-6.094
						c0.252-1.434,1.492-2.475,2.947-2.475c1.65,0,2.992,1.34,2.992,2.988v2.905h3.862c1.405,0,2.606,1.06,2.736,2.414
						c0.066,0.696-0.143,1.392-0.577,1.932c0.369,0.458,0.589,1.04,0.589,1.672c0,0.633-0.221,1.214-0.59,1.673
						c0.369,0.458,0.59,1.04,0.59,1.673c0,0.632-0.221,1.214-0.59,1.672c0.369,0.458,0.59,1.041,0.59,1.673
						C31.447,96.205,30.247,97.404,28.771,97.404z M16.792,95.404h11.979c0.373,0,0.676-0.302,0.676-0.673s-0.303-0.673-0.676-0.673
						c-0.552,0-1-0.448-1-1s0.448-1,1-1c0.373,0,0.676-0.302,0.676-0.672c0-0.371-0.303-0.673-0.676-0.673c-0.552,0-1-0.448-1-1
						s0.448-1,1-1c0.373,0,0.676-0.302,0.676-0.673s-0.303-0.673-0.676-0.673c-0.552,0-1-0.448-1-1s0.448-1,1-1
						c0.193,0,0.372-0.079,0.501-0.222c0.075-0.082,0.196-0.258,0.171-0.52c-0.032-0.333-0.366-0.604-0.745-0.604h-4.862
						c-0.552,0-1-0.448-1-1v-3.905c0-0.545-0.445-0.988-0.992-0.988c-0.483,0-0.894,0.345-0.978,0.821
						c-0.774,4.415-2.142,6.961-4.075,7.593V95.404z"/>
				</g>
			</g>
		</g>
	</g>
</g>
</svg>
