<?xml version="1.0" encoding="utf-8"?>
<!-- Generator: Adobe Illustrator 22.0.0, SVG Export Plug-In . SVG Version: 6.00 Build 0)  -->
<svg version="1.1" id="MARKET_RESEARCH_ICON_SET" xmlns="http://www.w3.org/2000/svg" xmlns:xlink="http://www.w3.org/1999/xlink"
	 x="0px" y="0px" viewBox="0 0 128 128" style="enable-background:new 0 0 128 128;" xml:space="preserve">
<style type="text/css">
	.st0{fill:#C2D5EC;}
	.st1{fill:#61E1FF;}
	.st2{fill:#7184AF;}
	.st3{fill:#F8F8F8;}
	.st4{fill:#3F4D81;}
	.st5{fill:#3F4D80;}
	.st6{fill:#E9EAEB;}
	.st7{fill:#F79559;}
	.st8{fill:#FFA85A;}
</style>
<g>
	<g>
		<g>
			<path class="st0" d="M69.535,16.326c-23.203,0-42.012,19.018-42.012,42.477c0,0.031,0.002,0.062,0.002,0.093H17.427H1v47.478
				h63.486c25.957,0,47.003-21.247,47.059-47.478c0-0.031,0.002-0.062,0.002-0.093C111.547,35.344,92.738,16.326,69.535,16.326z"/>
		</g>
		<g>
			<path class="st5" d="M103.541,55.937c0.664,0,1.182-0.605,1.063-1.266c-0.258-1.438-0.598-2.847-1.013-4.224
				c-3.611-11.959-12.957-21.409-24.785-25.06c-1.759-0.543-3.572-0.957-5.43-1.232v5.564V54.85c0,0.601,0.482,1.087,1.076,1.087
				h24.855H103.541z"/>
		</g>
		<g>
			<path class="st5" d="M67.472,61.906V29.01c-8.941,0-17.048,3.668-22.935,9.591c-1.3-1.183-2.939-0.355-2.939-0.355
				s-0.913-2.283-3.786-2.283h-5.757c-4.576,0-8.285,3.751-8.285,8.377v5.378c-0.112-0.016-0.226-0.027-0.344-0.027
				c0,0-2.087,0-2.087,2.12v2.129c0,1.738,0.936,3.314,3.121,3.648c0.045,0.007,0.083,0.009,0.125,0.014
				c0.818,3.181,3.024,5.789,5.933,7.125c-0.006-0.003-0.012-0.005-0.018-0.007v3.831l-4.434,2.215l0-0.001
				c0,0-9.875,3.735-9.875,12.025c0,1.18-0.065,2.507-0.138,3.916c-0.032,0.622,0.458,1.144,1.074,1.144H47.54
				c5.513,4.34,12.42,6.953,19.932,6.953c7.774,0,14.917-2.774,20.52-7.391l0.777,0.786c0.986,0.997,2.584,0.997,3.57,0l1.136-1.149
				c0.986-0.997,0.986-2.613,0-3.61l-0.777-0.786c4.349-5.396,7.046-12.206,7.291-19.634c0.02-0.61-0.478-1.113-1.081-1.113H67.472z
				"/>
		</g>
		<g>
			<g>
				<path class="st8" d="M100.615,47.438c-3.611-11.959-12.957-21.409-24.785-25.06c-1.759-0.543-3.572-0.957-5.43-1.232v5.564
					v26.219h25.931h5.503C101.561,51.05,101.152,49.216,100.615,47.438z"/>
			</g>
			<g>
				<path class="st3" d="M96.929,39.076c-4.524-5.226-10.447-9.179-17.174-11.245c-1.756-0.552-3.572-0.963-5.427-1.234v26.332
					h-3.929V21.15c1.855,0.271,3.671,0.682,5.427,1.224C84.735,25.122,92.226,31.151,96.929,39.076z"/>
			</g>
			<g>
				<path class="st6" d="M79.074,78.395c-0.984-0.995-0.984-2.608,0-3.603l1.142-1.155c0.984-0.995,2.58-0.995,3.564,0l5.942,6.008
					c4.566-5.665,7.31-12.887,7.31-20.747H64.496V26c-8.944,0-17.055,3.671-22.942,9.597c0.856,0.775,1.568,2.407,1.568,5.735v5.377
					c0.112-0.016,0.226-0.027,0.344-0.027c0,0,2.087,0,2.087,2.12v2.129c0,1.738-0.936,3.314-3.121,3.648
					c-0.045,0.007-0.083,0.009-0.125,0.014l0-0.001c-0.819,3.184-3.028,5.794-5.941,7.129c0.009-0.004,0.018-0.007,0.027-0.011
					v3.831l4.432,2.214h0c0,0,9.875,3.735,9.875,12.025c0,1.495,0.104,3.225,0.197,5.06h-6.336c5.514,4.34,12.42,6.953,19.933,6.953
					c7.774,0,14.917-2.775,20.52-7.391L79.074,78.395z"/>
			</g>
			<g>
				<g>
					<path class="st1" d="M64.496,41.803c-9.338,0-16.907,7.653-16.907,17.094c0,9.441,7.57,17.094,16.907,17.094
						c9.338,0,16.907-7.653,16.907-17.094H64.496V41.803z"/>
				</g>
				<g>
					<path class="st3" d="M64.496,46.682c-6.672,0-12.081,5.469-12.081,12.215c0,6.746,5.409,12.215,12.081,12.215
						c6.672,0,12.082-5.469,12.082-12.215H64.496V46.682z"/>
				</g>
				<g>
					<path class="st7" d="M80.43,73.421c0.196-0.198,0.422-0.345,0.66-0.453l-3.378-3.415c-0.79,1-1.688,1.908-2.677,2.707
						l3.378,3.415c0.107-0.241,0.253-0.469,0.448-0.667L80.43,73.421z"/>
				</g>
				<g>
					<path class="st2" d="M79.077,78.398l6.716,6.79c0.986,0.997,2.584,0.997,3.57,0l1.136-1.149c0.986-0.997,0.986-2.613,0-3.609
						l-6.716-6.79c-0.986-0.997-2.584-0.997-3.57,0l-1.136,1.149C78.092,75.785,78.092,77.401,79.077,78.398z"/>
				</g>
			</g>
			<g>
				<ellipse class="st5" cx="86.117" cy="37.037" rx="3.222" ry="3.258"/>
			</g>
			<g>
				<g>
					<path class="st8" d="M50.702,79.781c0-8.29-9.875-12.025-9.875-12.025l-4.645,9.14l-4.221-2.844v-0.005l-0.003,0.002
						l-0.003-0.002v0.005l-4.221,2.844l-4.645-9.14c0,0-9.875,3.735-9.875,12.025c0,1.495-0.104,3.225-0.197,5.06h37.883
						C50.807,83.006,50.702,81.276,50.702,79.781z"/>
				</g>
				<g>
					<path class="st3" d="M16.19,82.79c0-6.451,5.978-10.143,8.631-11.464l-1.732-3.571c0,0-9.875,3.735-9.875,12.025
						c0,1.495-0.104,3.225-0.197,5.06h3.123C16.168,84.123,16.19,83.432,16.19,82.79z"/>
				</g>
				<g>
					<path class="st6" d="M27.523,61.711v3.831l4.436,8.504l4.436-8.504v-3.831c-1.353,0.624-2.852,0.981-4.436,0.981
						C30.374,62.692,28.876,62.335,27.523,61.711z"/>
				</g>
				<g>
					<polygon class="st2" points="31.959,74.046 36.186,76.896 40.831,67.758 36.395,65.542 					"/>
				</g>
				<g>
					<polygon class="st2" points="23.087,67.758 27.733,76.896 31.959,74.046 27.523,65.542 					"/>
				</g>
				<g>
					<path class="st3" d="M39.58,44.746c0-2.04-1.636-3.694-3.654-3.694h-7.938c-2.018,0-3.653,1.654-3.653,3.694
						c0,5.903-3.084,5.903-3.084,5.903v1.216c0,5.979,4.794,10.825,10.707,10.825c5.913,0,10.707-4.847,10.707-10.825v-1.216
						C42.665,50.649,39.58,50.649,39.58,44.746z"/>
				</g>
				<g>
					<path class="st4" d="M38.622,35.236c0,0-0.913-2.283-3.786-2.283h-5.757c-4.576,0-8.285,3.751-8.285,8.377V47.3h0.016
						c0,1.16,0.144,2.286,0.442,3.349c0,0,3.084,0,3.084-5.903c0-2.04,1.636-3.694,3.653-3.694h7.938
						c2.018,0,3.654,1.654,3.654,3.694c0,5.903,3.084,5.903,3.084,5.903c0.298-1.063,0.441-2.189,0.442-3.349h0.016v-5.968
						C43.123,32.953,38.622,35.236,38.622,35.236z"/>
				</g>
				<g>
					<path class="st6" d="M43.466,46.682c-0.118,0-0.232,0.011-0.344,0.027V47.3h-0.016c0,1.16-0.144,2.286-0.442,3.349h0v1.216
						c0,0.944-0.132,1.855-0.357,2.728c0.042-0.005,0.08-0.007,0.125-0.014c2.185-0.334,3.121-1.911,3.121-3.648v-2.129
						C45.554,46.682,43.466,46.682,43.466,46.682z"/>
				</g>
				<g>
					<path class="st6" d="M20.449,46.682c0.118,0,0.232,0.011,0.344,0.027V47.3h0.016c0,1.16,0.144,2.286,0.442,3.349h0v1.216
						c0,0.944,0.132,1.855,0.357,2.728c-0.042-0.005-0.08-0.007-0.125-0.014c-2.185-0.334-3.121-1.911-3.121-3.648v-2.129
						C18.362,46.682,20.449,46.682,20.449,46.682z"/>
				</g>
			</g>
		</g>
		<g>
			<path class="st1" d="M103.29,34.85c0,0.929,0.744,1.681,1.663,1.681h20.385c0.918,0,1.663-0.753,1.663-1.681V18.77h-23.71V34.85z
				"/>
		</g>
		<g>
			<ellipse class="st1" cx="111.547" cy="58.897" rx="5.786" ry="5.85"/>
		</g>
		<g>
			<ellipse class="st1" cx="97.766" cy="92.536" rx="5.786" ry="5.85"/>
		</g>
		<g>
			<ellipse class="st1" cx="64.496" cy="106.469" rx="5.786" ry="5.85"/>
		</g>
		<g>
			<g>
				<ellipse class="st1" cx="40.444" cy="106.294" rx="10.094" ry="10.206"/>
			</g>
			<g>
				<path class="st8" d="M42.81,103.041c-1.616,0-2.37,1.976-2.37,1.976s-0.754-1.976-2.37-1.976c-1.369,0-2.185,1.042-2.185,2.395
					c0,3.486,4.555,6.162,4.555,6.162s4.555-2.676,4.555-6.162C44.995,104.083,44.179,103.041,42.81,103.041z"/>
			</g>
		</g>
		<g>
			<ellipse class="st8" cx="12.086" cy="106.294" rx="10.094" ry="10.206"/>
		</g>
	</g>
	<g>
		<g>
			<g>
				<g>
					<path class="st5" d="M30.351,107.294h-8.17c-0.553,0-1-0.447-1-1s0.447-1,1-1h8.17c0.553,0,1,0.447,1,1
						S30.903,107.294,30.351,107.294z"/>
				</g>
			</g>
			<g>
				<g>
					<path class="st5" d="M58.71,107.47c-0.007,0-0.015,0-0.021,0l-8.172-0.176c-0.552-0.012-0.99-0.47-0.979-1.021
						c0.013-0.552,0.444-1.008,1.021-0.979l8.172,0.176c0.552,0.012,0.99,0.47,0.979,1.021
						C59.698,107.036,59.253,107.47,58.71,107.47z"/>
				</g>
			</g>
			<g>
				<g>
					<path class="st5" d="M127,107.018H70.282c-0.553,0-1-0.447-1-1s0.447-1,1-1H127c0.553,0,1,0.447,1,1
						S127.553,107.018,127,107.018z"/>
				</g>
			</g>
		</g>
		<g>
			<g>
				<g>
					<path class="st5" d="M101.834,53.928H70.4c-0.553,0-1-0.447-1-1V21.146c0-0.291,0.127-0.567,0.347-0.757
						c0.22-0.19,0.513-0.273,0.8-0.232c1.886,0.279,3.763,0.706,5.578,1.267c12.208,3.769,21.722,13.386,25.447,25.727l0,0
						c0.555,1.84,0.976,3.735,1.251,5.635c0.042,0.287-0.043,0.578-0.233,0.798C102.4,53.802,102.124,53.928,101.834,53.928z
						 M71.4,51.928h29.26c-0.252-1.417-0.588-2.825-1.002-4.2c-3.534-11.703-12.552-20.822-24.123-24.395
						c-1.351-0.416-2.737-0.755-4.135-1.009V51.928z"/>
				</g>
			</g>
			<g>
				<g>
					<path class="st5" d="M64.496,92.794c-7.487,0-14.594-2.479-20.551-7.167c-0.335-0.264-0.466-0.711-0.327-1.113
						c0.14-0.402,0.52-0.673,0.945-0.673h5.283c-0.076-1.454-0.145-2.828-0.145-4.06c0-7.49-9.138-11.056-9.229-11.091
						c-0.031-0.012-0.062-0.025-0.093-0.04l-4.433-2.214c-0.339-0.169-0.553-0.516-0.553-0.895v-3.654
						c-0.079-0.436,0.134-0.882,0.556-1.075c2.685-1.229,4.648-3.588,5.39-6.469c0.105-0.409,0.456-0.708,0.876-0.747
						c2.043-0.309,2.338-1.802,2.338-2.665v-2.13c0-1.039-0.832-1.12-1.087-1.12c-0.068,0-0.134,0.007-0.198,0.017
						c-0.288,0.039-0.58-0.042-0.8-0.232c-0.22-0.189-0.347-0.466-0.347-0.757v-5.377c0-3.2-0.674-4.481-1.239-4.992
						c-0.202-0.184-0.321-0.442-0.329-0.716c-0.007-0.272,0.098-0.537,0.291-0.731C47.181,28.515,55.58,25.001,64.496,25
						c0.265,0,0.52,0.105,0.707,0.293s0.293,0.441,0.293,0.707v31.897h31.536c0.553,0,1,0.447,1,1
						c0,7.758-2.675,15.349-7.532,21.375c-0.179,0.222-0.443,0.356-0.728,0.371s-0.562-0.094-0.762-0.296l-5.941-6.008
						c-0.573-0.579-1.566-0.58-2.142,0l-1.143,1.155c-0.6,0.605-0.6,1.591,0,2.195c0,0.001,0,0.001,0,0.001l5.942,6.008
						c0.197,0.199,0.302,0.474,0.288,0.754c-0.015,0.28-0.146,0.542-0.363,0.721C79.69,90.088,72.177,92.794,64.496,92.794z
						 M47.684,85.841c5.044,3.249,10.798,4.953,16.812,4.953c6.854,0,13.567-2.294,19.026-6.48l-5.159-5.216
						c-1.366-1.38-1.367-3.627,0-5.009l1.143-1.155c1.33-1.347,3.655-1.345,4.985,0l5.141,5.197
						c3.936-5.254,6.178-11.655,6.385-18.233H64.496c-0.553,0-1-0.447-1-1V27.016c-7.706,0.243-14.949,3.287-20.583,8.65
						c0.812,1.236,1.209,3.104,1.209,5.666v4.421c1.146,0.244,2.432,1.139,2.432,3.049v2.13c0,2.307-1.31,4.002-3.455,4.533
						c-0.935,2.967-2.972,5.417-5.704,6.864v2.595l3.837,1.916c0.879,0.343,10.471,4.284,10.471,12.941
						c0,1.234,0.073,2.651,0.151,4.151l0.045,0.857c0.014,0.273-0.086,0.541-0.274,0.74c-0.188,0.198-0.45,0.311-0.725,0.311H47.684
						z"/>
				</g>
			</g>
			<g>
				<g>
					<g>
						<path class="st5" d="M31.959,75.046c-0.372,0-0.714-0.207-0.887-0.537l-4.437-8.504c-0.074-0.144-0.113-0.302-0.113-0.463
							v-3.831c0-0.341,0.174-0.658,0.461-0.842c0.287-0.185,0.648-0.209,0.958-0.066c2.561,1.182,5.476,1.182,8.034,0
							c0.311-0.144,0.672-0.118,0.958,0.065c0.287,0.185,0.461,0.502,0.461,0.843v3.831c0,0.161-0.039,0.319-0.113,0.463
							l-4.436,8.504C32.673,74.839,32.332,75.046,31.959,75.046z M28.522,65.297l3.437,6.587l3.436-6.587v-2.13
							c-2.227,0.697-4.644,0.697-6.872,0V65.297z"/>
					</g>
				</g>
				<g>
					<g>
						<path class="st5" d="M50.899,85.841H13.016c-0.274,0-0.536-0.112-0.725-0.311c-0.188-0.199-0.288-0.467-0.274-0.74
							l0.045-0.857c0.078-1.5,0.151-2.917,0.151-4.151c0-8.657,9.593-12.599,10.472-12.941l4.392-2.192
							c0.485-0.242,1.08-0.051,1.333,0.432l3.551,6.807l3.548-6.806c0.251-0.484,0.845-0.676,1.334-0.433l4.39,2.192
							c0.879,0.343,10.471,4.284,10.471,12.941c0,1.234,0.073,2.651,0.151,4.151l0.045,0.857c0.014,0.273-0.086,0.541-0.274,0.74
							C51.436,85.729,51.174,85.841,50.899,85.841z M14.068,83.841h35.778c-0.076-1.454-0.145-2.828-0.145-4.06
							c0-7.49-9.138-11.056-9.229-11.091c-0.031-0.012-0.062-0.025-0.093-0.04l-3.553-1.774l-3.98,7.634
							c-0.343,0.661-1.427,0.662-1.773,0.001l-3.982-7.635l-3.555,1.775c-0.033,0.017-0.065,0.03-0.1,0.043
							c-0.187,0.072-9.224,3.619-9.224,11.087C14.213,81.013,14.145,82.387,14.068,83.841z"/>
					</g>
				</g>
				<g>
					<g>
						<path class="st5" d="M31.958,63.69c-6.455,0-11.707-5.305-11.707-11.825v-1.216c0-0.553,0.447-1,1-1
							c0.058-0.005,2.084-0.188,2.084-4.903c0-2.589,2.088-4.694,4.654-4.694h7.938c2.565,0,4.653,2.105,4.653,4.694
							c0,4.715,2.026,4.898,2.113,4.904c0.526,0.033,0.971,0.472,0.971,0.999v1.216C43.664,58.386,38.413,63.69,31.958,63.69z
							 M22.251,51.432v0.434c0,5.418,4.354,9.825,9.707,9.825c5.352,0,9.706-4.407,9.706-9.825v-0.434
							c-1.211-0.473-3.084-1.966-3.084-6.686c0-1.485-1.19-2.694-2.653-2.694h-7.938c-1.464,0-2.654,1.209-2.654,2.694
							C25.335,49.466,23.462,50.959,22.251,51.432z"/>
					</g>
				</g>
				<g>
					<g>
						<path class="st5" d="M42.664,51.649c-0.167,0-4.084-0.078-4.084-6.903c0-1.485-1.19-2.694-2.653-2.694h-7.938
							c-1.464,0-2.654,1.209-2.654,2.694c0,6.825-3.917,6.903-4.084,6.903c-0.448,0-0.842-0.299-0.963-0.73
							c-0.302-1.078-0.463-2.232-0.478-3.434c-0.012-0.061-0.018-0.122-0.018-0.186v-5.97c0-5.171,4.165-9.377,9.285-9.377h5.758
							c2.323,0,3.616,1.224,4.238,2.086c0.754-0.154,1.733-0.141,2.633,0.412c1.603,0.983,2.415,3.299,2.415,6.881V47.3
							c0,0.062-0.006,0.124-0.017,0.184c-0.016,1.203-0.177,2.358-0.479,3.436C43.506,51.351,43.112,51.649,42.664,51.649z
							 M21.793,47.124c0.011,0.058,0.017,0.116,0.017,0.176c0,0.692,0.056,1.364,0.165,2.009c0.602-0.489,1.36-1.678,1.36-4.562
							c0-2.589,2.088-4.694,4.654-4.694h7.938c2.565,0,4.653,2.105,4.653,4.694c0,2.875,0.754,4.065,1.361,4.558
							c0.109-0.643,0.164-1.313,0.165-2.005c0-0.06,0.006-0.119,0.016-0.176v-5.791c0-3.724-0.915-4.842-1.461-5.177
							c-0.71-0.436-1.578-0.032-1.587-0.027c-0.25,0.128-0.541,0.143-0.805,0.044c-0.26-0.098-0.467-0.299-0.572-0.556
							c-0.037-0.086-0.747-1.663-2.861-1.663h-5.758c-4.017,0-7.285,3.31-7.285,7.377V47.124z"/>
					</g>
				</g>
				<g>
					<g>
						<path class="st5" d="M42.351,55.589c-0.294,0-0.591-0.125-0.781-0.349c-0.211-0.248-0.312-0.58-0.23-0.896
							c0.216-0.838,0.325-1.672,0.325-2.479v-1.216c0-0.091,0.013-0.182,0.037-0.27c0.268-0.957,0.404-1.994,0.405-3.081
							c0-0.06,0.006-0.119,0.016-0.176v-0.414c0-0.496,0.363-0.917,0.854-0.989c0.16-0.023,0.323-0.038,0.49-0.038
							c1.241,0,3.088,0.831,3.088,3.12v2.13c0,2.485-1.521,4.262-3.97,4.637c-0.02,0.003-0.118,0.015-0.138,0.017
							C42.414,55.588,42.383,55.589,42.351,55.589z M43.664,50.784v1.081c0,0.395-0.021,0.794-0.063,1.195
							c0.807-0.601,0.953-1.521,0.953-2.129v-2.13c0-0.519-0.205-0.802-0.458-0.953C44.058,48.87,43.912,49.855,43.664,50.784z
							 M43.122,47.3h0.01H43.122z"/>
					</g>
				</g>
				<g>
					<g>
						<path class="st5" d="M21.607,55.594c-0.038,0-0.077-0.002-0.115-0.007l-0.16-0.019c-2.449-0.375-3.97-2.152-3.97-4.637v-2.13
							c0-2.289,1.846-3.12,3.087-3.12c0.169,0,0.332,0.015,0.491,0.038c0.49,0.073,0.853,0.494,0.853,0.989v0.411
							c0.011,0.059,0.017,0.118,0.017,0.18c0,1.086,0.136,2.122,0.404,3.08c0.024,0.088,0.037,0.179,0.037,0.27v1.216
							c0,0.808,0.109,1.642,0.325,2.479c0.082,0.319,0.001,0.658-0.215,0.906C22.17,55.47,21.895,55.594,21.607,55.594z
							 M19.819,47.849c-0.252,0.151-0.457,0.435-0.457,0.953v2.13c0,0.616,0.15,1.553,0.955,2.149
							c-0.044-0.408-0.066-0.814-0.066-1.216v-1.081C20.002,49.854,19.857,48.869,19.819,47.849z"/>
					</g>
				</g>
				<g>
					<g>
						<path class="st5" d="M27.733,77.896c-0.084,0-0.168-0.011-0.251-0.032c-0.277-0.072-0.511-0.259-0.641-0.515l-4.645-9.139
							c-0.12-0.237-0.142-0.514-0.058-0.767c0.083-0.253,0.264-0.462,0.502-0.581l4.434-2.215c0.49-0.242,1.081-0.051,1.334,0.432
							l4.438,8.506c0.235,0.451,0.094,1.008-0.328,1.292l-4.227,2.848C28.125,77.837,27.931,77.896,27.733,77.896z M24.437,68.201
							l3.676,7.233l2.548-1.717l-3.569-6.842L24.437,68.201z"/>
					</g>
				</g>
				<g>
					<g>
						<path class="st5" d="M36.183,77.896c-0.197,0-0.393-0.059-0.56-0.171L31.4,74.877c-0.421-0.284-0.562-0.84-0.327-1.291
							l4.435-8.506c0.251-0.484,0.845-0.676,1.334-0.433l4.433,2.214c0.238,0.119,0.419,0.328,0.502,0.581
							c0.084,0.253,0.062,0.529-0.058,0.767l-4.645,9.14c-0.13,0.256-0.363,0.443-0.641,0.515
							C36.351,77.885,36.267,77.896,36.183,77.896z M33.26,73.718l2.544,1.716l3.676-7.233l-2.652-1.324L33.26,73.718z"/>
					</g>
				</g>
			</g>
			<g>
				<g>
					<g>
						<path class="st5" d="M64.496,76.991c-9.874,0-17.907-8.117-17.907-18.094c0-9.978,8.033-18.095,17.907-18.095
							c0.553,0,1,0.447,1,1v16.095h15.907c0.553,0,1,0.447,1,1C82.403,68.874,74.37,76.991,64.496,76.991z M63.496,42.834
							c-8.308,0.523-14.907,7.528-14.907,16.063c0,8.874,7.136,16.094,15.907,16.094c8.439,0,15.365-6.684,15.877-15.094H64.496
							c-0.553,0-1-0.447-1-1V42.834z"/>
					</g>
				</g>
				<g>
					<g>
						<path class="st5" d="M64.496,72.112c-7.213,0-13.081-5.928-13.081-13.215s5.868-13.216,13.081-13.216c0.553,0,1,0.447,1,1
							v11.216h11.081c0.553,0,1,0.447,1,1C77.577,66.185,71.709,72.112,64.496,72.112z M63.496,47.727
							c-5.644,0.514-10.081,5.328-10.081,11.171c0,6.184,4.971,11.215,11.081,11.215c5.777,0,10.536-4.498,11.037-10.215H64.496
							c-0.553,0-1-0.447-1-1V47.727z"/>
					</g>
				</g>
				<g>
					<g>
						<path class="st5" d="M78.413,76.675c-0.265,0-0.521-0.105-0.711-0.297l-3.378-3.415c-0.199-0.201-0.304-0.477-0.287-0.759
							c0.016-0.282,0.149-0.545,0.37-0.723c0.928-0.749,1.776-1.607,2.521-2.549c0.177-0.225,0.442-0.362,0.729-0.378
							c0.283-0.02,0.565,0.091,0.767,0.295l3.378,3.415c0.229,0.232,0.332,0.562,0.272,0.884c-0.059,0.322-0.271,0.594-0.569,0.729
							c-0.144,0.065-0.267,0.148-0.365,0.248l-1.566,1.584c-0.099,0.1-0.179,0.221-0.246,0.372
							c-0.134,0.302-0.408,0.518-0.733,0.576C78.533,76.67,78.473,76.675,78.413,76.675z M76.5,72.318l1.807,1.827l1.271-1.285
							l-1.806-1.826C77.368,71.483,76.944,71.913,76.5,72.318z"/>
					</g>
				</g>
				<g>
					<g>
						<path class="st5" d="M87.578,86.936c-0.943,0-1.829-0.37-2.496-1.043l-6.716-6.791l0,0c-1.367-1.384-1.367-3.634,0-5.016
							l1.137-1.149c1.331-1.345,3.658-1.347,4.991,0l6.716,6.79c1.367,1.384,1.367,3.634,0,5.016l-1.136,1.149
							C89.407,86.565,88.521,86.936,87.578,86.936z M79.788,77.695l6.716,6.79c0.574,0.58,1.574,0.581,2.148-0.001l1.136-1.148
							c0.601-0.607,0.601-1.596,0-2.203l-6.716-6.79c-0.575-0.581-1.574-0.579-2.147,0l-1.137,1.149
							C79.187,76.1,79.187,77.088,79.788,77.695L79.788,77.695z"/>
					</g>
				</g>
			</g>
		</g>
		<g>
			<g>
				<g>
					<path class="st5" d="M125.337,37.531h-20.385c-1.468,0-2.662-1.203-2.662-2.682V18.771c0-0.553,0.447-1,1-1H127
						c0.553,0,1,0.447,1,1V34.85C128,36.328,126.806,37.531,125.337,37.531z M104.29,19.771V34.85c0,0.376,0.297,0.682,0.662,0.682
						h20.385c0.365,0,0.663-0.306,0.663-0.682V19.771H104.29z"/>
				</g>
			</g>
			<g>
				<g>
					<g>
						<path class="st5" d="M121.296,23.49c-0.553,0-1-0.447-1-1v-4.113c0-3.24-2.311-5.877-5.151-5.877
							c-2.84,0-5.15,2.637-5.15,5.877v4.113c0,0.553-0.447,1-1,1s-1-0.447-1-1v-4.113c0-4.344,3.208-7.877,7.15-7.877
							c3.943,0,7.151,3.533,7.151,7.877v4.113C122.296,23.043,121.849,23.49,121.296,23.49z"/>
					</g>
				</g>
			</g>
		</g>
		<g>
			<g>
				<path class="st5" d="M70.227,101.22c-0.491,0-0.919-0.361-0.989-0.861c-0.077-0.547,0.305-1.052,0.852-1.129
					c6.746-0.947,13.193-3.649,18.646-7.812c0.438-0.337,1.066-0.249,1.401,0.188c0.335,0.438,0.251,1.066-0.188,1.401
					c-5.724,4.371-12.495,7.208-19.581,8.203C70.319,101.217,70.272,101.22,70.227,101.22z"/>
			</g>
		</g>
		<g>
			<g>
				<path class="st5" d="M97.445,85.018c-0.208,0-0.418-0.064-0.598-0.199c-0.442-0.33-0.533-0.957-0.202-1.399
					c4.119-5.516,6.792-12.038,7.73-18.862c0.074-0.547,0.576-0.939,1.126-0.854c0.548,0.075,0.93,0.579,0.854,1.126
					c-0.983,7.159-3.788,14.002-8.109,19.788C98.051,84.879,97.75,85.018,97.445,85.018z"/>
			</g>
		</g>
		<g>
			<g>
				<path class="st5" d="M111.547,65.747c-3.742,0-6.786-3.072-6.786-6.85s3.044-6.851,6.786-6.851s6.787,3.073,6.787,6.851
					S115.289,65.747,111.547,65.747z M111.547,54.047c-2.639,0-4.786,2.176-4.786,4.851c0,2.674,2.147,4.85,4.786,4.85
					c2.64,0,4.787-2.176,4.787-4.85C116.334,56.223,114.187,54.047,111.547,54.047z"/>
			</g>
		</g>
		<g>
			<g>
				<path class="st5" d="M97.767,99.386c-1.815,0-3.521-0.714-4.803-2.01c-2.64-2.669-2.64-7.012,0-9.681
					c1.282-1.296,2.988-2.01,4.803-2.01c0,0,0,0,0.001,0c1.814,0,3.52,0.714,4.801,2.01c2.64,2.669,2.64,7.012,0,9.681l-0.711-0.703
					l0.711,0.703C101.287,98.672,99.582,99.386,97.767,99.386C97.767,99.386,97.767,99.386,97.767,99.386z M97.767,87.686
					c-1.276,0-2.478,0.503-3.381,1.416c-1.872,1.894-1.872,4.975,0,6.868c0.903,0.913,2.104,1.416,3.381,1.416
					s2.477-0.503,3.38-1.416c1.872-1.894,1.872-4.975,0-6.868C100.243,88.188,99.043,87.686,97.767,87.686L97.767,87.686z"/>
			</g>
		</g>
		<g>
			<g>
				<path class="st5" d="M64.496,113.319c-3.742,0-6.786-3.072-6.786-6.85s3.044-6.851,6.786-6.851s6.786,3.073,6.786,6.851
					S68.238,113.319,64.496,113.319z M64.496,101.619c-2.639,0-4.786,2.176-4.786,4.851c0,2.674,2.147,4.85,4.786,4.85
					s4.786-2.176,4.786-4.85C69.282,103.795,67.135,101.619,64.496,101.619z"/>
			</g>
		</g>
		<g>
			<g>
				<path class="st5" d="M101.552,89.112c-0.214,0-0.429-0.068-0.611-0.209c-0.437-0.338-0.517-0.966-0.179-1.403
					c5.175-6.688,8.439-14.602,9.441-22.883c0.066-0.549,0.563-0.937,1.113-0.873c0.549,0.066,0.939,0.565,0.873,1.113
					c-1.046,8.64-4.451,16.893-9.846,23.867C102.146,88.979,101.851,89.112,101.552,89.112z"/>
			</g>
		</g>
		<g>
			<g>
				<path class="st5" d="M70.281,107.018c-0.498,0-0.929-0.371-0.991-0.877c-0.068-0.549,0.321-1.048,0.869-1.115
					c8.241-1.02,16.057-4.29,22.602-9.458c0.435-0.342,1.063-0.268,1.405,0.165c0.342,0.434,0.268,1.062-0.165,1.405
					c-6.833,5.395-14.992,8.809-23.596,9.872C70.363,107.016,70.322,107.018,70.281,107.018z"/>
			</g>
		</g>
		<g>
			<g>
				<path class="st5" d="M86.117,38.037c-0.281,0-0.561-0.118-0.758-0.348c-0.36-0.419-0.312-1.051,0.105-1.41l10.915-9.387
					c0.182-0.156,0.413-0.242,0.652-0.242h6.258c0.553,0,1,0.447,1,1s-0.447,1-1,1h-5.887L86.77,37.795
					C86.58,37.958,86.349,38.037,86.117,38.037z"/>
			</g>
		</g>
		<g>
			<g>
				<g>
					<path class="st5" d="M40.444,117.5c-6.117,0-11.094-5.027-11.094-11.206s4.977-11.206,11.094-11.206
						s11.094,5.027,11.094,11.206S46.562,117.5,40.444,117.5z M40.444,97.088c-5.015,0-9.094,4.13-9.094,9.206
						s4.079,9.206,9.094,9.206s9.094-4.13,9.094-9.206S45.459,97.088,40.444,97.088z"/>
				</g>
			</g>
			<g>
				<g>
					<path class="st4" d="M40.439,112.598c-0.175,0-0.351-0.046-0.507-0.138c-0.206-0.121-5.048-3.012-5.048-7.024
						c0-1.967,1.34-3.395,3.186-3.395c1.009,0,1.801,0.507,2.369,1.124c0.568-0.617,1.361-1.124,2.37-1.124
						c1.846,0,3.185,1.428,3.185,3.395c0,4.013-4.842,6.903-5.048,7.024C40.79,112.552,40.614,112.598,40.439,112.598z
						 M38.07,104.041c-1.1,0-1.186,1.067-1.186,1.395c0,2.077,2.235,4.059,3.555,4.973c1.319-0.914,3.555-2.896,3.555-4.973
						c0-0.327-0.085-1.395-1.185-1.395c-0.886,0-1.433,1.324-1.438,1.337c-0.151,0.383-0.521,0.636-0.932,0.636
						c-0.002,0-0.004,0-0.006,0c-0.412-0.002-0.782-0.255-0.93-0.641C39.502,105.365,38.955,104.041,38.07,104.041z"/>
				</g>
			</g>
		</g>
		<g>
			<g>
				<g>
					<path class="st5" d="M12.086,117.5c-6.117,0-11.094-5.027-11.094-11.206s4.977-11.206,11.094-11.206
						s11.095,5.027,11.095,11.206S18.203,117.5,12.086,117.5z M12.086,97.088c-5.015,0-9.094,4.13-9.094,9.206
						s4.079,9.206,9.094,9.206s9.095-4.13,9.095-9.206S17.101,97.088,12.086,97.088z"/>
				</g>
			</g>
			<g>
				<g>
					<path class="st5" d="M12.086,114.511c-0.553,0-1-0.447-1-1v-1.57c0-0.553,0.447-1,1-1s1,0.447,1,1v1.57
						C13.086,114.063,12.639,114.511,12.086,114.511z"/>
				</g>
			</g>
			<g>
				<g>
					<path class="st5" d="M12.751,112.94h-1.335c-1.843,0-3.343-1.513-3.343-3.373c0-0.553,0.447-1,1-1s1,0.447,1,1
						c0,0.757,0.603,1.373,1.343,1.373h1.335c0.743,0,1.348-0.616,1.348-1.373v-0.828c0-0.755-0.604-1.368-1.348-1.368h-1.335
						c-1.843,0-3.343-1.511-3.343-3.368v-0.833c0-1.857,1.5-3.368,3.343-3.368h1.335c1.846,0,3.348,1.511,3.348,3.368
						c0,0.553-0.447,1-1,1s-1-0.447-1-1c0-0.755-0.604-1.368-1.348-1.368h-1.335c-0.74,0-1.343,0.613-1.343,1.368v0.833
						c0,0.755,0.603,1.368,1.343,1.368h1.335c1.846,0,3.348,1.511,3.348,3.368v0.828C16.099,111.428,14.597,112.94,12.751,112.94z"
						/>
				</g>
			</g>
			<g>
				<g>
					<path class="st5" d="M12.086,101.802c-0.553,0-1-0.447-1-1v-1.725c0-0.553,0.447-1,1-1s1,0.447,1,1v1.725
						C13.086,101.354,12.639,101.802,12.086,101.802z"/>
				</g>
			</g>
		</g>
	</g>
</g>
</svg>
