<?xml version="1.0" encoding="utf-8"?>
<!-- Generator: Adobe Illustrator 22.0.0, SVG Export Plug-In . SVG Version: 6.00 Build 0)  -->
<svg version="1.1" id="MARKET_RESEARCH_ICON_SET" xmlns="http://www.w3.org/2000/svg" xmlns:xlink="http://www.w3.org/1999/xlink"
	 x="0px" y="0px" viewBox="0 0 128 128" style="enable-background:new 0 0 128 128;" xml:space="preserve">
<style type="text/css">
	.st0{fill:#C2D5EC;}
	.st1{fill:#61E1FF;}
	.st2{fill:#7184AF;}
	.st3{fill:#F8F8F8;}
	.st4{fill:#3F4D81;}
	.st5{fill:#3F4D80;}
	.st6{fill:#E9EAEB;}
	.st7{fill:#F79559;}
	.st8{fill:#FFA85A;}
</style>
<g>
	<g>
		<g>
			<path class="st0" d="M114.74,83.277h-7.028v-19.42H94.67C89.428,75.643,77.689,83.861,64,83.861s-25.459-8.219-30.7-20.004
				H20.289v19.42H13.26l-8.076,8.107v15.971H64h58.816V91.384L114.74,83.277z"/>
		</g>
		<g>
			<polygon class="st5" points="114.74,87.292 114.74,83.277 107.712,83.277 107.712,75.074 107.711,75.073 100.683,79.146 
				100.683,87.292 107.711,91.365 			"/>
		</g>
		<g>
			<polygon class="st5" points="20.289,91.365 27.317,87.292 27.317,79.146 20.289,75.073 20.289,83.277 13.26,83.277 13.26,87.292 
							"/>
		</g>
		<g>
			<path class="st5" d="M107.711,92.365c-0.173,0-0.346-0.045-0.501-0.135l-7.028-4.073c-0.309-0.179-0.499-0.509-0.499-0.865
				v-8.146c0-0.356,0.19-0.687,0.499-0.865l7.028-4.073c0.309-0.18,0.69-0.18,1-0.001s0.501,0.509,0.501,0.866l0,7.204h6.027
				c0.552,0,1,0.447,1,1v4.015c0,0.356-0.19,0.687-0.499,0.865l-7.028,4.073C108.058,92.32,107.885,92.365,107.711,92.365z
				 M101.684,86.716l6.028,3.493l6.028-3.493v-2.438h-6.027c-0.552,0-1-0.447-1-1v-6.469l-5.028,2.914V86.716z M114.739,87.292h0.01
				H114.739z"/>
		</g>
		<g>
			<path class="st5" d="M20.289,92.365c-0.173,0-0.346-0.045-0.501-0.135l-7.028-4.073c-0.309-0.179-0.499-0.509-0.499-0.865v-4.015
				c0-0.553,0.448-1,1-1h6.028v-7.204c0-0.357,0.191-0.688,0.5-0.866c0.31-0.179,0.691-0.179,1.001,0.001l7.028,4.073
				c0.309,0.179,0.499,0.509,0.499,0.865v8.146c0,0.356-0.19,0.687-0.499,0.865L20.79,92.23
				C20.635,92.32,20.462,92.365,20.289,92.365z M14.261,86.716l6.028,3.493l6.028-3.493v-6.993l-5.028-2.914v6.469
				c0,0.553-0.448,1-1,1h-6.028V86.716z"/>
		</g>
		<g>
			<g>
				<path class="st8" d="M98.576,37.819c-3.502-11.516-12.568-20.616-24.042-24.132c-1.706-0.523-3.465-0.921-5.267-1.186v5.358
					v12.444c6.135,1.798,10.962,6.645,12.751,12.803H94.42h5.338C99.493,41.297,99.096,39.531,98.576,37.819z"/>
			</g>
			<g>
				<path class="st1" d="M64,29.536v-10.28c-16.003,0-29.023,13.068-29.026,29.13H45.22C45.22,37.976,53.628,29.536,64,29.536z"/>
			</g>
			<g>
				<path class="st5" d="M93.026,48.392H82.779C82.777,58.8,74.37,67.237,64,67.237v10.291
					C80.005,77.527,93.026,64.457,93.026,48.392z"/>
			</g>
			<g>
				<path class="st2" d="M45.22,48.387H34.974c0,0.527,0.013,1.058,0.041,1.591c0.78,14.692,12.769,26.726,27.406,27.508
					c0.529,0.028,1.055,0.042,1.578,0.042V67.237C53.628,67.237,45.22,58.797,45.22,48.387z"/>
			</g>
			<g>
				<path class="st3" d="M64,19.255v0.281c-14.12,1.957-25.03,14.153-25.04,28.848h-3.99C34.98,32.324,48,19.255,64,19.255z"/>
			</g>
			<g>
				<path class="st3" d="M64,77.242v0.281c-0.52,0-1.05-0.01-1.58-0.04C47.79,76.7,35.8,64.665,35.02,49.98
					c-0.03-0.532-0.05-1.064-0.05-1.596h3.99c0,0.532,0.02,1.064,0.05,1.596C39.75,63.852,50.48,75.355,64,77.242z"/>
			</g>
			<g>
				<ellipse class="st8" cx="64" cy="48.387" rx="13.369" ry="13.419"/>
			</g>
		</g>
		<g>
			<polygon class="st8" points="64,99.208 56.972,103.281 56.972,111.427 64,115.5 71.028,111.427 71.028,103.281 			"/>
		</g>
		<g>
			<polygon class="st1" points="122.816,102.505 118.632,104.93 118.632,109.779 122.816,112.204 127,109.779 127,104.93 			"/>
		</g>
		<g>
			<polygon class="st1" points="92.607,102.505 88.423,104.93 88.423,109.779 92.607,112.204 96.791,109.779 96.791,104.93 			"/>
		</g>
		<g>
			<polygon class="st8" points="107.711,71.058 100.683,75.131 100.683,83.277 107.711,87.35 114.739,83.277 114.739,75.131 			"/>
		</g>
		<g>
			<polygon class="st1" points="35.393,102.505 31.209,104.93 31.209,109.779 35.393,112.204 39.577,109.779 39.577,104.93 			"/>
		</g>
		<g>
			<polygon class="st1" points="5.184,102.505 1,104.93 1,109.779 5.184,112.204 9.368,109.779 9.368,104.93 			"/>
		</g>
		<g>
			<polygon class="st8" points="20.289,71.058 13.261,75.131 13.261,83.277 20.289,87.35 27.317,83.277 27.317,75.131 			"/>
		</g>
	</g>
	<g>
		<g>
			<g>
				<g>
					<path class="st5" d="M99.758,44.105H82.019c-0.445,0-0.836-0.294-0.96-0.721c-1.682-5.788-6.307-10.434-12.072-12.123
						c-0.426-0.125-0.719-0.516-0.719-0.96V12.5c0-0.291,0.126-0.567,0.347-0.757c0.22-0.19,0.509-0.274,0.799-0.232
						c1.832,0.27,3.653,0.681,5.414,1.22c11.852,3.632,21.088,12.901,24.706,24.797c0,0,0,0,0,0c0.538,1.771,0.947,3.6,1.215,5.434
						c0.042,0.287-0.043,0.579-0.233,0.799S100.048,44.105,99.758,44.105z M82.754,42.105h15.828
						c-0.243-1.35-0.565-2.689-0.962-3.996l0,0c-3.424-11.258-12.164-20.03-23.378-23.467c-1.297-0.397-2.629-0.721-3.974-0.965
						v15.891C76.107,31.533,80.799,36.243,82.754,42.105z"/>
				</g>
			</g>
			<g>
				<g>
					<path class="st5" d="M45.22,49.387H34.974c-0.265,0-0.52-0.105-0.707-0.293s-0.293-0.442-0.293-0.707
						C33.978,31.772,47.447,18.257,64,18.257c0.552,0,1,0.447,1,1v10.279c0,0.553-0.448,1-1,1c-9.804,0-17.78,8.008-17.78,17.851
						C46.22,48.939,45.772,49.387,45.22,49.387z M35.992,47.387h8.253C44.75,37.236,52.887,29.069,63,28.562v-8.287
						C48.342,20.793,36.51,32.671,35.992,47.387z"/>
				</g>
			</g>
			<g>
				<g>
					<path class="st5" d="M64,78.527c-0.552,0-1-0.447-1-1V67.236c0-0.553,0.448-1,1-1c9.801,0,17.776-8.005,17.779-17.845
						c0-0.553,0.448-1,1-1h10.247c0.552,0,1,0.447,1,1C94.026,65.009,80.557,78.527,64,78.527z M65,68.211v8.299
						c14.662-0.519,26.495-12.398,27.009-27.118h-8.254C83.247,59.539,75.11,67.703,65,68.211z"/>
				</g>
			</g>
			<g>
				<g>
					<path class="st5" d="M64,78.527c-0.541,0-1.084-0.014-1.631-0.043C47.274,77.678,34.821,65.179,34.017,50.03
						c-0.029-0.551-0.043-1.099-0.043-1.644c0-0.553,0.448-1,1-1H45.22c0.552,0,1,0.447,1,1c0,9.843,7.976,17.85,17.78,17.85
						c0.552,0,1,0.447,1,1v10.291C65,78.08,64.552,78.527,64,78.527z M35.991,49.387c0.006,0.179,0.014,0.358,0.023,0.538
						c0.75,14.142,12.374,25.81,26.461,26.562c0.175,0.01,0.351,0.018,0.525,0.023v-8.299c-10.113-0.508-18.25-8.675-18.755-18.824
						H35.991z"/>
				</g>
			</g>
			<g>
				<g>
					<g>
						<path class="st5" d="M64,62.806c-7.923,0-14.369-6.469-14.369-14.419S56.077,33.968,64,33.968s14.369,6.469,14.369,14.419
							S71.923,62.806,64,62.806z M64,35.968c-6.82,0-12.369,5.571-12.369,12.419S57.18,60.806,64,60.806s12.369-5.571,12.369-12.419
							S70.82,35.968,64,35.968z"/>
					</g>
				</g>
				<g>
					<g>
						<path class="st5" d="M64,58.875c-0.552,0-1-0.447-1-1v-2.064c0-0.553,0.448-1,1-1s1,0.447,1,1v2.064
							C65,58.428,64.552,58.875,64,58.875z"/>
					</g>
				</g>
				<g>
					<g>
						<path class="st5" d="M64.881,56.811h-1.769c-2.262,0-4.103-1.849-4.103-4.121c0-0.553,0.448-1,1-1s1,0.447,1,1
							c0,1.17,0.943,2.121,2.103,2.121h1.769c1.163,0,2.109-0.951,2.109-2.121v-1.088c0-1.165-0.946-2.113-2.109-2.113h-1.769
							c-2.262,0-4.103-1.846-4.103-4.114v-1.096c0-2.269,1.84-4.113,4.103-4.113h1.769c2.266,0,4.109,1.845,4.109,4.113
							c0,0.553-0.448,1-1,1s-1-0.447-1-1c0-1.165-0.946-2.113-2.109-2.113h-1.769c-1.159,0-2.103,0.948-2.103,2.113v1.096
							c0,1.166,0.943,2.114,2.103,2.114h1.769c2.266,0,4.109,1.845,4.109,4.113v1.088C68.99,54.962,67.147,56.811,64.881,56.811z"/>
					</g>
				</g>
				<g>
					<g>
						<path class="st5" d="M64,42.165c-0.552,0-1-0.447-1-1v-2.267c0-0.553,0.448-1,1-1s1,0.447,1,1v2.267
							C65,41.718,64.552,42.165,64,42.165z"/>
					</g>
				</g>
			</g>
		</g>
		<g>
			<g>
				<path class="st5" d="M64,98.861c-0.552,0-1-0.447-1-1v-2c0-0.553,0.448-1,1-1s1,0.447,1,1v2C65,98.414,64.552,98.861,64,98.861z
					 M64,92.861c-0.552,0-1-0.447-1-1v-2c0-0.553,0.448-1,1-1s1,0.447,1,1v2C65,92.414,64.552,92.861,64,92.861z M64,86.861
					c-0.552,0-1-0.447-1-1v-2c0-0.553,0.448-1,1-1s1,0.447,1,1v2C65,86.414,64.552,86.861,64,86.861z"/>
			</g>
		</g>
		<g>
			<g>
				<path class="st5" d="M64,116.5c-0.173,0-0.346-0.045-0.501-0.135l-7.028-4.073c-0.309-0.179-0.499-0.509-0.499-0.865v-8.146
					c0-0.356,0.19-0.687,0.499-0.865l7.028-4.073c0.311-0.18,0.692-0.18,1.003,0l7.028,4.073c0.309,0.179,0.499,0.509,0.499,0.865
					v8.146c0,0.356-0.19,0.687-0.499,0.865l-7.028,4.073C64.346,116.455,64.173,116.5,64,116.5z M57.972,110.851L64,114.344
					l6.028-3.493v-6.993L64,100.364l-6.028,3.493V110.851z"/>
			</g>
		</g>
		<g>
			<g>
				<path class="st5" d="M122.816,113.204c-0.173,0-0.346-0.045-0.501-0.135l-4.184-2.425c-0.309-0.179-0.499-0.509-0.499-0.865
					v-4.85c0-0.356,0.19-0.687,0.499-0.865l4.184-2.425c0.311-0.18,0.692-0.18,1.003,0l4.184,2.425
					c0.309,0.179,0.499,0.509,0.499,0.865v4.85c0,0.356-0.19,0.687-0.499,0.865l-4.184,2.425
					C123.162,113.159,122.989,113.204,122.816,113.204z M119.632,109.203l3.184,1.845l3.184-1.845v-3.697l-3.184-1.845l-3.184,1.845
					V109.203z"/>
			</g>
		</g>
		<g>
			<g>
				<path class="st5" d="M92.607,113.204c-0.173,0-0.346-0.045-0.501-0.135l-4.184-2.425c-0.309-0.179-0.499-0.509-0.499-0.865
					v-4.85c0-0.356,0.19-0.687,0.499-0.865l4.184-2.425c0.311-0.18,0.692-0.18,1.003,0l4.184,2.425
					c0.309,0.179,0.499,0.509,0.499,0.865v4.85c0,0.356-0.19,0.687-0.499,0.865l-4.184,2.425
					C92.953,113.159,92.78,113.204,92.607,113.204z M89.423,109.203l3.184,1.845l3.184-1.845v-3.697l-3.184-1.845l-3.184,1.845
					V109.203z"/>
			</g>
		</g>
		<g>
			<g>
				<path class="st5" d="M107.711,88.35c-0.173,0-0.346-0.045-0.501-0.135l-7.028-4.072c-0.309-0.179-0.499-0.509-0.499-0.865
					v-8.146c0-0.356,0.19-0.687,0.499-0.865l7.028-4.072c0.311-0.18,0.692-0.18,1.003,0l7.028,4.072
					c0.309,0.179,0.499,0.509,0.499,0.865v8.146c0,0.356-0.19,0.687-0.499,0.865l-7.028,4.072
					C108.058,88.305,107.885,88.35,107.711,88.35z M101.683,82.701l6.028,3.493l6.028-3.493v-6.994l-6.028-3.493l-6.028,3.493
					V82.701z"/>
			</g>
		</g>
		<g>
			<g>
				<path class="st5" d="M92.607,100.941c-0.552,0-1-0.447-1-1v-2c0-0.553,0.448-1,1-1s1,0.447,1,1v2
					C93.607,100.494,93.159,100.941,92.607,100.941z M92.607,94.941c-0.552,0-1-0.447-1-1v-2c0-0.553,0.448-1,1-1s1,0.447,1,1v2
					C93.607,94.494,93.159,94.941,92.607,94.941z M95.037,89.944c-0.255,0-0.511-0.098-0.706-0.292
					c-0.391-0.39-0.392-1.022-0.002-1.414l1.412-1.416c0.389-0.393,1.022-0.393,1.414-0.002c0.391,0.39,0.392,1.022,0.002,1.414
					l-1.412,1.416C95.549,89.847,95.293,89.944,95.037,89.944z M99.271,85.694c-0.255,0-0.511-0.097-0.706-0.292
					c-0.392-0.39-0.393-1.022-0.003-1.414l1.412-1.417c0.39-0.393,1.023-0.394,1.414-0.002c0.392,0.39,0.393,1.022,0.003,1.414
					L99.98,85.4C99.785,85.597,99.528,85.694,99.271,85.694z"/>
			</g>
		</g>
		<g>
			<g>
				<path class="st5" d="M122.816,100.94c-0.552,0-1-0.447-1-1v-2c0-0.553,0.448-1,1-1s1,0.447,1,1v2
					C123.816,100.493,123.368,100.94,122.816,100.94z M122.816,94.94c-0.552,0-1-0.447-1-1v-2c0-0.553,0.448-1,1-1s1,0.447,1,1v2
					C123.816,94.493,123.368,94.94,122.816,94.94z M120.386,89.944c-0.256,0-0.513-0.098-0.708-0.294l-1.412-1.417
					c-0.39-0.392-0.389-1.024,0.003-1.414c0.391-0.392,1.024-0.39,1.414,0.002l1.412,1.417c0.39,0.392,0.389,1.024-0.003,1.414
					C120.896,89.848,120.641,89.944,120.386,89.944z M116.151,85.694c-0.256,0-0.513-0.098-0.708-0.294l-1.412-1.417
					c-0.39-0.392-0.389-1.024,0.003-1.414c0.39-0.391,1.024-0.391,1.414,0.002l1.412,1.417c0.39,0.392,0.389,1.024-0.003,1.414
					C116.662,85.598,116.406,85.694,116.151,85.694z"/>
			</g>
		</g>
		<g>
			<g>
				<path class="st5" d="M35.393,113.204c-0.173,0-0.346-0.045-0.501-0.135l-4.184-2.425c-0.309-0.179-0.499-0.509-0.499-0.865
					v-4.85c0-0.356,0.19-0.687,0.499-0.865l4.184-2.425c0.311-0.18,0.692-0.18,1.003,0l4.184,2.425
					c0.309,0.179,0.499,0.509,0.499,0.865v4.85c0,0.356-0.19,0.687-0.499,0.865l-4.184,2.425
					C35.739,113.159,35.566,113.204,35.393,113.204z M32.209,109.203l3.184,1.845l3.184-1.845v-3.697l-3.184-1.845l-3.184,1.845
					V109.203z"/>
			</g>
		</g>
		<g>
			<g>
				<path class="st5" d="M5.184,113.204c-0.173,0-0.346-0.045-0.501-0.135l-4.184-2.425C0.19,110.466,0,110.136,0,109.779v-4.85
					c0-0.356,0.19-0.687,0.499-0.865l4.184-2.425c0.311-0.18,0.692-0.18,1.003,0l4.184,2.425c0.309,0.179,0.499,0.509,0.499,0.865
					v4.85c0,0.356-0.19,0.687-0.499,0.865l-4.184,2.425C5.53,113.159,5.357,113.204,5.184,113.204z M2,109.203l3.184,1.845
					l3.184-1.845v-3.697l-3.184-1.845L2,105.506V109.203z"/>
			</g>
		</g>
		<g>
			<g>
				<path class="st5" d="M65.038,84.846c-0.538,0-0.982-0.428-0.999-0.97c-0.017-0.552,0.417-1.013,0.969-1.03
					c0.651-0.02,1.296-0.059,1.937-0.116c0.556-0.053,1.037,0.356,1.086,0.906s-0.356,1.036-0.906,1.086
					c-0.679,0.062-1.365,0.103-2.055,0.124C65.059,84.846,65.048,84.846,65.038,84.846z M61.045,84.731
					c-0.029,0-0.059-0.001-0.088-0.004c-0.688-0.061-1.37-0.142-2.045-0.242c-0.546-0.081-0.923-0.59-0.842-1.137
					c0.082-0.547,0.588-0.916,1.137-0.842c0.636,0.095,1.278,0.172,1.925,0.229c0.55,0.048,0.957,0.533,0.909,1.084
					C61.995,84.339,61.558,84.731,61.045,84.731z M70.986,84.131c-0.462,0-0.877-0.321-0.977-0.792
					c-0.115-0.54,0.229-1.071,0.77-1.187c0.636-0.135,1.265-0.289,1.887-0.46c0.533-0.148,1.083,0.166,1.229,0.698
					c0.147,0.532-0.166,1.083-0.698,1.229c-0.66,0.183-1.327,0.345-2.001,0.489C71.125,84.124,71.055,84.131,70.986,84.131z
					 M55.149,83.669c-0.087,0-0.176-0.012-0.265-0.035c-0.664-0.183-1.321-0.385-1.969-0.606c-0.522-0.179-0.801-0.747-0.623-1.27
					c0.179-0.523,0.746-0.799,1.27-0.623c0.609,0.208,1.226,0.398,1.851,0.569c0.532,0.146,0.846,0.696,0.7,1.229
					C55.991,83.378,55.588,83.669,55.149,83.669z M76.714,82.359c-0.394,0-0.767-0.233-0.925-0.62
					c-0.21-0.511,0.034-1.095,0.545-1.305c0.6-0.246,1.19-0.511,1.771-0.791c0.497-0.239,1.095-0.032,1.335,0.466
					c0.24,0.497,0.031,1.096-0.466,1.335c-0.617,0.298-1.244,0.578-1.881,0.84C76.969,82.336,76.84,82.359,76.714,82.359z
					 M49.542,81.564c-0.146,0-0.294-0.031-0.434-0.1c-0.619-0.298-1.229-0.613-1.827-0.946c-0.482-0.269-0.656-0.878-0.388-1.36
					c0.27-0.481,0.878-0.656,1.36-0.388c0.564,0.313,1.138,0.611,1.722,0.894c0.498,0.239,0.707,0.837,0.467,1.335
					C50.271,81.356,49.913,81.564,49.542,81.564z M82.03,79.591c-0.33,0-0.652-0.162-0.843-0.46
					c-0.298-0.465-0.163-1.084,0.302-1.382c0.545-0.35,1.08-0.715,1.603-1.095c0.445-0.325,1.072-0.227,1.396,0.221
					c0.325,0.446,0.226,1.072-0.221,1.396c-0.554,0.403-1.121,0.79-1.7,1.161C82.401,79.54,82.214,79.591,82.03,79.591z
					 M44.396,78.498c-0.203,0-0.407-0.062-0.584-0.189c-0.557-0.402-1.102-0.82-1.633-1.255c-0.427-0.351-0.49-0.98-0.141-1.407
					c0.349-0.428,0.979-0.49,1.407-0.142c0.5,0.409,1.012,0.804,1.537,1.183c0.448,0.323,0.549,0.948,0.225,1.396
					C45.012,78.354,44.707,78.498,44.396,78.498z M86.767,75.923c-0.269,0-0.536-0.107-0.733-0.32
					c-0.375-0.405-0.352-1.037,0.054-1.413c0.474-0.439,0.935-0.894,1.383-1.361c0.383-0.397,1.016-0.412,1.414-0.029
					c0.399,0.382,0.412,1.015,0.03,1.414c-0.475,0.495-0.964,0.977-1.468,1.443C87.254,75.835,87.01,75.923,86.767,75.923z
					 M39.871,74.571c-0.261,0-0.522-0.102-0.719-0.305c-0.477-0.493-0.939-1-1.386-1.521c-0.36-0.419-0.312-1.05,0.106-1.41
					c0.42-0.36,1.051-0.312,1.41,0.107c0.422,0.49,0.858,0.97,1.307,1.434c0.384,0.397,0.374,1.03-0.023,1.414
					C40.372,74.478,40.121,74.571,39.871,74.571z M20.289,72.059c-0.552,0-1-0.447-1-1v-2c0-0.553,0.448-1,1-1s1,0.447,1,1v2
					C21.289,71.611,20.841,72.059,20.289,72.059z M90.779,71.475c-0.209,0-0.42-0.065-0.6-0.201c-0.441-0.332-0.53-0.959-0.198-1.4
					c0.389-0.517,0.763-1.045,1.122-1.584c0.307-0.46,0.929-0.584,1.386-0.279c0.46,0.307,0.585,0.927,0.279,1.387
					c-0.38,0.572-0.777,1.132-1.188,1.68C91.383,71.337,91.083,71.475,90.779,71.475z M107.711,70.121c-0.552,0-1-0.447-1-1v-2
					c0-0.553,0.448-1,1-1s1,0.447,1,1v2C108.711,69.674,108.264,70.121,107.711,70.121z M36.104,69.913
					c-0.321,0-0.637-0.154-0.83-0.44c-0.383-0.569-0.75-1.15-1.099-1.743c-0.28-0.476-0.122-1.089,0.354-1.369
					c0.479-0.278,1.089-0.122,1.37,0.354c0.328,0.558,0.673,1.105,1.034,1.64c0.309,0.458,0.188,1.08-0.27,1.389
					C36.49,69.857,36.296,69.913,36.104,69.913z M93.943,66.389c-0.151,0-0.305-0.034-0.45-0.107
					c-0.493-0.249-0.691-0.851-0.442-1.343c0.247-0.488,0.481-0.984,0.704-1.487c0.161-0.361,0.519-0.594,0.914-0.594h0.305
					c0.552,0,1,0.447,1,1c0,0.421-0.26,0.781-0.628,0.929c-0.165,0.354-0.334,0.706-0.51,1.053
					C94.661,66.188,94.309,66.389,93.943,66.389z M20.289,66.059c-0.552,0-1-0.447-1-1v-1.201c0-0.553,0.448-1,1-1h0.799
					c0.552,0,1,0.447,1,1c0,0.483-0.343,0.887-0.799,0.979v0.222C21.289,65.611,20.841,66.059,20.289,66.059z M106.975,64.857h-2
					c-0.552,0-1-0.447-1-1s0.448-1,1-1h2c0.552,0,1,0.447,1,1S107.527,64.857,106.975,64.857z M100.975,64.857h-2
					c-0.552,0-1-0.447-1-1s0.448-1,1-1h2c0.552,0,1,0.447,1,1S101.527,64.857,100.975,64.857z M33.087,64.857h-2
					c-0.552,0-1-0.447-1-1s0.448-1,1-1h2c0.552,0,1,0.447,1,1S33.64,64.857,33.087,64.857z M27.087,64.857h-2c-0.552,0-1-0.447-1-1
					s0.448-1,1-1h2c0.552,0,1,0.447,1,1S27.64,64.857,27.087,64.857z"/>
			</g>
		</g>
		<g>
			<g>
				<path class="st5" d="M20.289,88.35c-0.173,0-0.346-0.045-0.501-0.135l-7.028-4.072c-0.309-0.179-0.499-0.509-0.499-0.865v-8.146
					c0-0.356,0.19-0.687,0.499-0.865l7.028-4.072c0.311-0.18,0.692-0.18,1.003,0l7.028,4.072c0.309,0.179,0.499,0.509,0.499,0.865
					v8.146c0,0.356-0.19,0.687-0.499,0.865l-7.028,4.072C20.635,88.305,20.462,88.35,20.289,88.35z M14.261,82.701l6.028,3.493
					l6.028-3.493v-6.994l-6.028-3.493l-6.028,3.493V82.701z"/>
			</g>
		</g>
		<g>
			<g>
				<path class="st5" d="M5.184,100.94c-0.552,0-1-0.447-1-1v-2c0-0.553,0.448-1,1-1s1,0.447,1,1v2
					C6.184,100.493,5.736,100.94,5.184,100.94z M5.184,94.94c-0.552,0-1-0.447-1-1v-2c0-0.553,0.448-1,1-1s1,0.447,1,1v2
					C6.184,94.493,5.736,94.94,5.184,94.94z M7.614,89.944c-0.255,0-0.511-0.097-0.706-0.292c-0.392-0.39-0.393-1.022-0.003-1.414
					l1.412-1.417c0.39-0.393,1.023-0.395,1.414-0.002c0.392,0.39,0.393,1.022,0.003,1.414L8.323,89.65
					C8.127,89.847,7.871,89.944,7.614,89.944z M11.849,85.694c-0.255,0-0.511-0.097-0.706-0.292
					c-0.392-0.39-0.393-1.022-0.003-1.414l1.412-1.417c0.389-0.393,1.023-0.394,1.414-0.002c0.392,0.39,0.393,1.022,0.003,1.414
					L12.558,85.4C12.362,85.597,12.105,85.694,11.849,85.694z"/>
			</g>
		</g>
		<g>
			<g>
				<path class="st5" d="M35.393,100.941c-0.552,0-1-0.447-1-1v-2c0-0.553,0.448-1,1-1s1,0.447,1,1v2
					C36.393,100.494,35.945,100.941,35.393,100.941z M35.393,94.941c-0.552,0-1-0.447-1-1v-2c0-0.553,0.448-1,1-1s1,0.447,1,1v2
					C36.393,94.494,35.945,94.941,35.393,94.941z M32.963,89.944c-0.256,0-0.513-0.098-0.708-0.294l-1.412-1.416
					c-0.39-0.392-0.389-1.024,0.002-1.414s1.024-0.39,1.414,0.002l1.412,1.416c0.39,0.392,0.389,1.024-0.002,1.414
					C33.474,89.847,33.219,89.944,32.963,89.944z M28.729,85.694c-0.256,0-0.513-0.098-0.708-0.294l-1.412-1.417
					c-0.39-0.392-0.389-1.024,0.003-1.414c0.391-0.391,1.024-0.391,1.414,0.002l1.412,1.417c0.39,0.392,0.389,1.024-0.003,1.414
					C29.239,85.598,28.984,85.694,28.729,85.694z"/>
			</g>
		</g>
		<g>
			<g>
				<path class="st5" d="M31.209,108.354H9.368c-0.552,0-1-0.447-1-1s0.448-1,1-1h21.841c0.552,0,1,0.447,1,1
					S31.761,108.354,31.209,108.354z"/>
			</g>
		</g>
		<g>
			<g>
				<path class="st5" d="M56.972,108.354H39.577c-0.552,0-1-0.447-1-1s0.448-1,1-1h17.395c0.552,0,1,0.447,1,1
					S57.524,108.354,56.972,108.354z"/>
			</g>
		</g>
		<g>
			<g>
				<path class="st5" d="M118.631,108.354H96.79c-0.552,0-1-0.447-1-1s0.448-1,1-1h21.841c0.552,0,1,0.447,1,1
					S119.184,108.354,118.631,108.354z"/>
			</g>
		</g>
		<g>
			<g>
				<path class="st5" d="M88.422,108.354H71.027c-0.552,0-1-0.447-1-1s0.448-1,1-1h17.395c0.552,0,1,0.447,1,1
					S88.975,108.354,88.422,108.354z"/>
			</g>
		</g>
	</g>
</g>
</svg>
