<?xml version="1.0" encoding="utf-8"?>
<!-- Generator: Adobe Illustrator 22.0.0, SVG Export Plug-In . SVG Version: 6.00 Build 0)  -->
<svg version="1.1" id="MARKET_RESEARCH_ICON_SET" xmlns="http://www.w3.org/2000/svg" xmlns:xlink="http://www.w3.org/1999/xlink"
	 x="0px" y="0px" viewBox="0 0 128 128" style="enable-background:new 0 0 128 128;" xml:space="preserve">
<style type="text/css">
	.st0{fill:#C2D5EC;}
	.st1{fill:#61E1FF;}
	.st2{fill:#7184AF;}
	.st3{fill:#F8F8F8;}
	.st4{fill:#3F4D81;}
	.st5{fill:#3F4D80;}
	.st6{fill:#E9EAEB;}
	.st7{fill:#F79559;}
	.st8{fill:#FFA85A;}
</style>
<g>
	<g>
		<polygon class="st0" points="127,15.5 81.599,61.178 1,61.189 1,112.5 127,112.5 		"/>
		<g>
			<g>
				<path class="st1" d="M103.03,103.802H14.436c-2.175,0-3.938-1.75-3.938-3.908v-60.82c0-2.158,1.763-3.908,3.938-3.908h88.594
					c2.175,0,3.938,1.75,3.938,3.908v60.82C106.967,102.052,105.204,103.802,103.03,103.802z"/>
			</g>
			<g>
				<rect x="15.42" y="40.051" class="st3" width="86.625" height="58.866"/>
			</g>
			<g>
				<path class="st4" d="M18.073,48.934l-2.653-0.022l0,10.301l0,14.314c0.855,0.191,1.74,0.3,2.653,0.3
					c6.666,0,12.07-5.364,12.07-11.98C30.143,55.823,24.739,48.934,18.073,48.934z"/>
			</g>
			<g>
				<path class="st5" d="M18.073,74.826c-0.942,0-1.908-0.109-2.871-0.323c-0.457-0.102-0.782-0.508-0.782-0.976V48.912
					c0-0.267,0.106-0.522,0.296-0.71c0.188-0.186,0.44-0.29,0.704-0.29c0.003,0,0.006,0,0.008,0l2.649,0.022
					c7.358,0.003,13.066,7.48,13.066,13.912C31.144,69.003,25.28,74.826,18.073,74.826z M16.42,72.697
					c6.811,1.041,12.724-4.259,12.724-10.852c0-5.396-4.938-11.912-11.07-11.912c-0.003,0-0.006,0-0.008,0L16.42,49.92V72.697z"/>
			</g>
			<g>
				<polygon class="st4" points="102.045,40.659 82.399,60.5 71.571,49.572 57.533,63.608 50.899,57.023 47.22,60.675 
					23.649,84.055 23.649,91.555 50.899,64.326 53.855,67.259 57.533,70.91 61.212,67.259 71.536,57.012 78.552,63.977 
					82.231,67.628 85.909,63.977 102.045,47.961 				"/>
			</g>
			<g>
				<path class="st5" d="M23.648,92.555c-0.129,0-0.259-0.025-0.383-0.076c-0.374-0.155-0.617-0.52-0.617-0.924v-7.5
					c0-0.267,0.106-0.522,0.296-0.71l27.25-27.031c0.389-0.388,1.02-0.387,1.408,0l5.928,5.883l13.334-13.332
					c0.188-0.188,0.441-0.293,0.707-0.293c0.001,0,0.002,0,0.002,0c0.267,0,0.521,0.107,0.708,0.296l10.118,10.21l18.935-19.124
					c0.286-0.288,0.713-0.375,1.092-0.221c0.374,0.154,0.619,0.52,0.619,0.925v7.302c0,0.267-0.106,0.522-0.296,0.71L82.935,68.338
					c-0.389,0.387-1.02,0.387-1.408,0l-9.99-9.917L58.237,71.621c-0.389,0.387-1.02,0.387-1.408,0L50.9,65.737L24.355,92.263
					C24.164,92.454,23.908,92.555,23.648,92.555z M24.648,84.472v4.67l25.543-25.524c0.39-0.389,1.021-0.39,1.411-0.002l5.931,5.886
					l13.299-13.199c0.389-0.387,1.02-0.387,1.408,0l9.99,9.916l18.814-18.674V43.09L83.11,61.204c-0.377,0.379-1.046,0.379-1.421,0
					L71.568,50.99L58.24,64.315c-0.39,0.39-1.021,0.391-1.411,0.003l-5.931-5.886L24.648,84.472z"/>
			</g>
		</g>
		<g>
			<g>
				<path class="st2" d="M37.977,20.171c-3.414,0-6.182,2.747-6.182,6.136h6.182V20.171z"/>
			</g>
			<g>
				<path class="st6" d="M106.967,74.628H56.523c3.414,0,6.182,2.747,6.182,6.136h-0.001V112.5h50.444V80.764
					C113.149,77.375,110.381,74.628,106.967,74.628z"/>
			</g>
			<g>
				<path class="st3" d="M67.628,80.764c0-3.389-4.737-6.136-8.151-6.136h-2.953c3.414,0,6.182,2.747,6.182,6.136h-0.001V112.5
					h4.923V80.764L67.628,80.764z"/>
			</g>
			<g>
				<path class="st2" d="M56.523,74.628c-3.414,0-6.182,2.747-6.182,6.136v5.601c0,3.389-2.768,6.136-6.182,6.136h7.187h11.36
					V80.764C62.706,77.375,59.938,74.628,56.523,74.628z"/>
			</g>
			<g>
				<path class="st6" d="M82.239,20.171H37.977v66.194c0,3.389,2.768,6.136,6.182,6.136s6.182-2.747,6.182-6.136v-5.601
					c0-3.389,2.768-6.136,6.182-6.136h31.898V26.307C88.421,22.918,85.653,20.171,82.239,20.171z"/>
			</g>
			<g>
				<path class="st6" d="M88.422,26.306V74.63H56.519c-3.406,0-6.182,2.745-6.182,6.136v5.598c0,3.39-2.766,6.136-6.182,6.136
					c-3.367,0-6.182-2.798-6.182-6.136V20.171H82.24c2.617,0,5.025,1.706,5.857,4.172C88.314,24.958,88.422,25.623,88.422,26.306z"
					/>
			</g>
			<g>
				<path class="st3" d="M88.097,24.343c-1.683-0.176-3.248-0.264-3.888-0.264H41.911V92.08c-2.345-0.887-3.938-3.235-3.938-5.716
					V20.171H82.24C84.858,20.171,87.265,21.877,88.097,24.343z"/>
			</g>
			<g>
				<polygon class="st4" points="88.421,54.418 82.399,60.5 71.571,49.572 57.533,63.608 50.899,57.023 47.22,60.675 37.977,69.849 
					37.977,77.245 50.899,64.326 53.855,67.259 57.533,70.91 61.212,67.259 71.536,57.012 78.552,63.977 82.231,67.628 
					85.909,63.977 88.421,61.484 				"/>
			</g>
			<g>
				<path class="st5" d="M37.977,78.245c-0.129,0-0.259-0.025-0.383-0.076c-0.374-0.155-0.617-0.52-0.617-0.924v-7.396
					c0-0.267,0.106-0.522,0.296-0.71l12.922-12.825c0.389-0.388,1.02-0.387,1.408,0l5.928,5.883l13.334-13.332
					c0.188-0.188,0.441-0.293,0.707-0.293c0.001,0,0.002,0,0.002,0c0.267,0,0.521,0.107,0.708,0.296l10.118,10.211l5.311-5.364
					c0.287-0.288,0.715-0.376,1.092-0.221c0.374,0.154,0.619,0.52,0.619,0.925v7.065c0,0.267-0.106,0.522-0.296,0.71l-6.19,6.145
					c-0.389,0.387-1.02,0.387-1.408,0l-9.99-9.917L58.237,71.621c-0.389,0.387-1.02,0.387-1.408,0l-5.928-5.883L38.684,77.952
					C38.492,78.143,38.236,78.245,37.977,78.245z M38.977,70.266v4.565l11.215-11.212c0.39-0.39,1.021-0.391,1.411-0.003
					l5.931,5.886l13.299-13.199c0.389-0.387,1.02-0.387,1.408,0l9.99,9.916l5.19-5.152V56.85l-4.311,4.354
					c-0.377,0.379-1.046,0.379-1.421,0L71.568,50.99L58.24,64.315c-0.39,0.39-1.021,0.391-1.411,0.003l-5.931-5.886L38.977,70.266z"
					/>
			</g>
			<g>
				<polygon class="st8" points="106.967,25.061 110.395,28.463 82.231,56.417 75.214,49.453 71.536,45.802 67.857,49.453 
					57.533,59.7 50.899,53.115 47.22,56.766 23.649,80.162 23.649,87.662 50.899,60.417 53.855,63.351 57.533,67.002 61.212,63.351 
					71.536,53.104 78.552,60.069 82.231,63.72 85.909,60.069 114.073,32.115 117.502,35.517 117.502,25.061 				"/>
			</g>
			<g>
				<polygon class="st3" points="106.967,25.061 109.92,27.992 110.395,28.463 82.231,56.417 75.214,49.453 71.536,45.802 
					67.857,49.453 57.533,59.7 50.899,53.115 47.22,56.766 23.649,80.162 23.649,84.055 50.899,57.023 57.533,63.608 71.571,49.572 
					82.399,60.5 117.502,25.061 				"/>
			</g>
		</g>
		<g>
			<g>
				<path class="st6" d="M7.792,53.703c-1.955,1.94-3.173,4.63-3.173,7.59c0,2.96,1.209,5.64,3.164,7.58l7.637-7.684L7.792,53.703z"
					/>
			</g>
			<g>
				<path class="st1" d="M15.42,50.573v10.617h10.801C26.221,55.269,21.385,50.573,15.42,50.573z"/>
			</g>
			<g>
				<path class="st7" d="M7.782,68.873c1.955,1.94,4.655,3.14,7.637,3.14c5.965,0,10.801-4.903,10.801-10.824H15.42L7.782,68.873z"
					/>
			</g>
			<g>
				<polygon class="st4" points="6.06,48.482 5.92,51.864 15.42,61.189 15.42,57.772 				"/>
			</g>
			<g>
				<path class="st8" d="M6.06,48.482c2.831-2.038,6.111-3.014,9.36-3.011v12.301L6.06,48.482z"/>
			</g>
		</g>
		<g>
			<g>
				<rect x="93.465" y="61.116" class="st2" width="3.434" height="7.799"/>
			</g>
			<g>
				<rect x="100.332" y="56.845" class="st2" width="3.434" height="12.07"/>
			</g>
			<g>
				<rect x="106.967" y="52.946" class="st2" width="3.434" height="15.969"/>
			</g>
			<g>
				<rect x="113.834" y="49.047" class="st2" width="3.434" height="19.868"/>
			</g>
		</g>
	</g>
	<g>
		<path class="st5" d="M127,113.5H1c-0.553,0-1-0.448-1-1s0.447-1,1-1h126c0.553,0,1,0.448,1,1S127.553,113.5,127,113.5z"/>
	</g>
	<g>
		<g>
			<g>
				<g>
					<g>
						<path class="st5" d="M106.967,75.628H88.421c-0.553,0-1-0.448-1-1V57.576c0-0.267,0.106-0.522,0.296-0.71l18.546-18.408
							c0.287-0.284,0.715-0.367,1.089-0.213c0.372,0.155,0.615,0.52,0.615,0.923v35.46C107.967,75.18,107.52,75.628,106.967,75.628z
							 M89.421,73.628h16.546V41.569L89.421,57.992V73.628z M103.767,69.915h-3.435c-0.553,0-1-0.448-1-1v-12.07
							c0-0.552,0.447-1,1-1h3.435c0.553,0,1,0.448,1,1v12.07C104.767,69.467,104.319,69.915,103.767,69.915z M101.332,67.915h1.435
							v-10.07h-1.435V67.915z M96.898,69.915h-3.434c-0.553,0-1-0.448-1-1v-7.799c0-0.552,0.447-1,1-1h3.434c0.553,0,1,0.448,1,1
							v7.799C97.898,69.467,97.451,69.915,96.898,69.915z M94.465,67.915h1.434v-5.799h-1.434V67.915z"/>
					</g>
				</g>
				<g>
					<g>
						<path class="st5" d="M88.421,51.273c-0.13,0-0.26-0.025-0.385-0.077c-0.372-0.155-0.615-0.52-0.615-0.923V35.166
							c0-0.552,0.447-1,1-1h14.608c0.218,0,0.426,0.026,0.634,0.057c0.375,0.054,0.721,0.32,0.84,0.68
							c0.119,0.36,0.057,0.761-0.213,1.029L89.125,50.983C88.935,51.173,88.68,51.273,88.421,51.273z M89.421,36.166v11.707
							l11.794-11.707H89.421z"/>
					</g>
				</g>
				<g>
					<g>
						<path class="st5" d="M62.705,104.802h-48.27c-2.723,0-4.938-2.202-4.938-4.908v-29.01c0-0.552,0.447-1,1-1s1,0.448,1,1v29.01
							c0,1.604,1.317,2.908,2.938,2.908h47.27v-9.301H44.159c-3.961,0-7.183-3.201-7.183-7.136V75.75L24.355,88.369
							c-0.286,0.286-0.717,0.372-1.09,0.217c-0.374-0.155-0.617-0.52-0.617-0.924v-7.5c0-0.267,0.106-0.522,0.296-0.71
							l14.032-13.928V36.166H14.436c-1.62,0-2.938,1.305-2.938,2.908v7.168c0,0.552-0.447,1-1,1s-1-0.448-1-1v-7.168
							c0-2.707,2.215-4.908,4.938-4.908h23.541c0.553,0,1,0.448,1,1v30.775c0,0.267-0.106,0.522-0.296,0.71L24.648,80.579v4.669
							L37.27,72.63c0.287-0.286,0.717-0.372,1.09-0.217c0.374,0.155,0.617,0.52,0.617,0.924v13.028c0,2.832,2.325,5.136,5.183,5.136
							h18.546c0.553,0,1,0.448,1,1v11.301C63.705,104.354,63.258,104.802,62.705,104.802z"/>
					</g>
				</g>
			</g>
			<g>
				<g>
					<g>
						<path class="st5" d="M102.045,75.628H88.421c-0.553,0-1-0.448-1-1V57.576c0-0.267,0.106-0.522,0.296-0.71l13.624-13.522
							c0.286-0.284,0.716-0.368,1.089-0.213c0.372,0.155,0.615,0.52,0.615,0.923v12.792c0,0.552-0.447,1-1,1h-0.713v10.07h0.713
							c0.553,0,1,0.448,1,1v5.713C103.045,75.18,102.598,75.628,102.045,75.628z M89.421,73.628h11.624v-3.713h-0.713
							c-0.553,0-1-0.448-1-1v-12.07c0-0.552,0.447-1,1-1h0.713v-9.391L89.421,57.992V73.628z M96.898,69.915h-3.434
							c-0.553,0-1-0.448-1-1v-7.799c0-0.552,0.447-1,1-1h3.434c0.553,0,1,0.448,1,1v7.799
							C97.898,69.467,97.451,69.915,96.898,69.915z M94.465,67.915h1.434v-5.799h-1.434V67.915z"/>
					</g>
				</g>
				<g>
					<g>
						<path class="st5" d="M88.421,51.273c-0.13,0-0.26-0.025-0.385-0.077c-0.372-0.155-0.615-0.52-0.615-0.923V40.051
							c0-0.552,0.447-1,1-1h10.3c0.405,0,0.771,0.245,0.925,0.619s0.067,0.805-0.221,1.091l-10.3,10.223
							C88.935,51.173,88.68,51.273,88.421,51.273z M89.421,41.051v6.821l6.873-6.821H89.421z"/>
					</g>
				</g>
				<g>
					<g>
						<path class="st5" d="M62.705,99.917H15.42c-0.553,0-1-0.448-1-1V72.013c0-0.552,0.447-1,1-1s1,0.448,1,1v25.904h45.285v-4.416
							H44.159c-3.961,0-7.183-3.201-7.183-7.136V75.75L24.355,88.369c-0.286,0.286-0.717,0.372-1.09,0.217
							c-0.374-0.155-0.617-0.52-0.617-0.924v-7.5c0-0.267,0.106-0.522,0.296-0.71l14.032-13.928V41.051H16.42v6.907
							c0,0.552-0.447,1-1,1s-1-0.448-1-1v-7.907c0-0.552,0.447-1,1-1h22.557c0.553,0,1,0.448,1,1v25.89
							c0,0.267-0.106,0.522-0.296,0.71L24.648,80.579v4.669L37.27,72.63c0.287-0.286,0.717-0.372,1.09-0.217
							c0.374,0.155,0.617,0.52,0.617,0.924v13.028c0,2.832,2.325,5.136,5.183,5.136h18.546c0.553,0,1,0.448,1,1v6.416
							C63.705,99.469,63.258,99.917,62.705,99.917z"/>
					</g>
				</g>
			</g>
		</g>
		<g>
			<g>
				<g>
					<path class="st5" d="M37.977,27.307h-6.182c-0.553,0-1-0.448-1-1c0-3.935,3.222-7.136,7.182-7.136c0.553,0,1,0.448,1,1v6.136
						C38.977,26.859,38.529,27.307,37.977,27.307z M32.894,25.307h4.083v-4.04C34.923,21.667,33.3,23.272,32.894,25.307z"/>
				</g>
			</g>
			<g>
				<g>
					<path class="st5" d="M113.149,113.5H62.705c-0.553,0-1-0.448-1-1V80.764c0-1.371-0.537-2.659-1.515-3.629
						c-0.979-0.972-2.281-1.507-3.667-1.507c-0.553,0-1-0.448-1-1s0.447-1,1-1h50.443c3.961,0,7.183,3.201,7.183,7.136V112.5
						C114.149,113.052,113.702,113.5,113.149,113.5z M63.705,111.5h48.444V80.764c0-2.832-2.325-5.136-5.183-5.136H61.505
						c1.356,1.299,2.201,3.122,2.201,5.136L63.705,111.5z"/>
				</g>
			</g>
			<g>
				<g>
					<path class="st5" d="M62.706,93.501H44.159c-0.553,0-1-0.448-1-1s0.447-1,1-1c2.857,0,5.182-2.304,5.182-5.136v-5.601
						c0-3.935,3.222-7.136,7.183-7.136c3.961,0,7.183,3.201,7.183,7.136v11.737C63.706,93.053,63.259,93.501,62.706,93.501z
						 M49.141,91.501h12.565V80.764c0-2.832-2.325-5.136-5.183-5.136s-5.183,2.304-5.183,5.136v5.601
						C51.341,88.379,50.496,90.202,49.141,91.501z"/>
				</g>
			</g>
			<g>
				<g>
					<g>
						<path class="st5" d="M44.159,93.501c-3.961,0-7.183-3.201-7.183-7.136V73.337c0-0.265,0.105-0.52,0.293-0.707L50.191,59.71
							c0.39-0.39,1.021-0.39,1.411-0.003l5.931,5.886l13.299-13.199c0.389-0.387,1.02-0.387,1.408,0l9.99,9.916l2.975-2.952l0,0
							l2.512-2.493c0.286-0.284,0.716-0.367,1.089-0.213c0.372,0.155,0.615,0.52,0.615,0.923v17.052c0,0.552-0.447,1-1,1H56.523
							c-2.857,0-5.183,2.304-5.183,5.136v5.601C51.341,90.3,48.119,93.501,44.159,93.501z M38.977,73.751v12.614
							c0,2.832,2.325,5.136,5.183,5.136s5.182-2.304,5.182-5.136v-5.601c0-3.935,3.222-7.136,7.183-7.136h30.897V59.977
							l-4.486,4.453c-0.389,0.387-1.02,0.387-1.408,0l-9.99-9.916L58.237,67.712c-0.389,0.387-1.02,0.387-1.408,0l-5.928-5.883
							L38.977,73.751z"/>
					</g>
				</g>
				<g>
					<g>
						<path class="st5" d="M37.977,66.941c-0.13,0-0.26-0.025-0.385-0.077c-0.372-0.155-0.615-0.52-0.615-0.923v-45.77
							c0-0.552,0.447-1,1-1h44.263c3.96,0,7.182,3.201,7.182,7.136v23.967c0,0.267-0.106,0.522-0.296,0.71l-6.19,6.144
							c-0.389,0.387-1.02,0.387-1.408,0l-9.99-9.916L58.237,60.41c-0.389,0.387-1.02,0.387-1.408,0l-5.931-5.886l-2.974,2.952v0
							l-9.244,9.174C38.49,66.84,38.235,66.941,37.977,66.941z M38.977,21.171V63.54l11.218-11.134c0.389-0.388,1.02-0.387,1.408,0
							l5.931,5.886l13.299-13.199c0.389-0.387,1.02-0.387,1.408,0l9.99,9.916l5.19-5.151v-23.55c0-2.832-2.324-5.136-5.182-5.136
							H38.977z M47.221,56.767h0.01H47.221z"/>
					</g>
				</g>
			</g>
			<g>
				<g>
					<path class="st5" d="M23.648,88.662c-0.129,0-0.259-0.025-0.383-0.076c-0.374-0.155-0.617-0.52-0.617-0.924v-7.5
						c0-0.267,0.106-0.522,0.296-0.71l27.25-27.046c0.389-0.388,1.02-0.387,1.408,0l5.931,5.886l13.299-13.199
						c0.389-0.387,1.02-0.387,1.408,0l9.99,9.916l26.744-26.545l-2.712-2.692c-0.288-0.286-0.375-0.716-0.221-1.091
						s0.52-0.619,0.925-0.619h10.535c0.553,0,1,0.448,1,1v10.456c0,0.404-0.243,0.768-0.615,0.923
						c-0.374,0.156-0.802,0.072-1.089-0.213l-2.725-2.704L82.935,64.43c-0.389,0.387-1.02,0.387-1.408,0l-9.99-9.916L58.237,67.712
						c-0.389,0.387-1.02,0.387-1.408,0l-5.928-5.883l-26.546,26.54C24.164,88.56,23.908,88.662,23.648,88.662z M24.648,80.579v4.669
						L50.191,59.71c0.39-0.39,1.021-0.39,1.411-0.003l5.931,5.886l13.299-13.199c0.389-0.387,1.02-0.387,1.408,0l9.99,9.916
						l31.139-30.906c0.389-0.387,1.02-0.387,1.408,0l1.725,1.711v-7.055h-7.108l1.705,1.692c0.189,0.188,0.296,0.443,0.296,0.71
						s-0.106,0.522-0.296,0.71L82.935,57.127c-0.389,0.387-1.02,0.387-1.408,0l-9.99-9.916L58.237,60.41
						c-0.389,0.387-1.02,0.387-1.408,0l-5.931-5.886L24.648,80.579z"/>
				</g>
			</g>
			<g>
				<g>
					<path class="st5" d="M82.239,34.247h-38.08c-0.553,0-1-0.448-1-1s0.447-1,1-1h38.08c0.553,0,1,0.448,1,1
						S82.792,34.247,82.239,34.247z"/>
				</g>
			</g>
			<g>
				<g>
					<path class="st5" d="M82.239,27.307h-38.08c-0.553,0-1-0.448-1-1s0.447-1,1-1h38.08c0.553,0,1,0.448,1,1
						S82.792,27.307,82.239,27.307z"/>
				</g>
			</g>
			<g>
				<g>
					<path class="st5" d="M82.239,41.05h-38.08c-0.553,0-1-0.448-1-1s0.447-1,1-1h38.08c0.553,0,1,0.448,1,1
						S82.792,41.05,82.239,41.05z"/>
				</g>
			</g>
			<g>
				<g>
					<path class="st5" d="M106.967,81.764h-38.08c-0.553,0-1-0.448-1-1s0.447-1,1-1h38.08c0.553,0,1,0.448,1,1
						S107.52,81.764,106.967,81.764z"/>
				</g>
			</g>
			<g>
				<g>
					<path class="st5" d="M106.967,90.227h-38.08c-0.553,0-1-0.448-1-1s0.447-1,1-1h38.08c0.553,0,1,0.448,1,1
						S107.52,90.227,106.967,90.227z"/>
				</g>
			</g>
			<g>
				<g>
					<path class="st5" d="M106.967,98.689h-38.08c-0.553,0-1-0.448-1-1s0.447-1,1-1h38.08c0.553,0,1,0.448,1,1
						S107.52,98.689,106.967,98.689z"/>
				</g>
			</g>
			<g>
				<g>
					<path class="st5" d="M106.967,107.152h-38.08c-0.553,0-1-0.448-1-1s0.447-1,1-1h38.08c0.553,0,1,0.448,1,1
						S107.52,107.152,106.967,107.152z"/>
				</g>
			</g>
		</g>
		<g>
			<g>
				<g>
					<path class="st5" d="M15.42,73.013c-6.507,0-11.801-5.258-11.801-11.72c0-3.132,1.231-6.08,3.469-8.3
						c0.388-0.386,1.015-0.388,1.404-0.004l5.928,5.818v-8.234c0-0.552,0.447-1,1-1c6.507,0,11.801,5.211,11.801,11.617
						C27.221,67.709,21.927,73.013,15.42,73.013z M7.831,55.142c-1.433,1.735-2.212,3.886-2.212,6.151c0,5.36,4.396,9.72,9.801,9.72
						s9.801-4.407,9.801-9.824c0-4.972-3.864-9.074-8.801-9.567v9.567c0,0.403-0.241,0.766-0.613,0.922
						c-0.369,0.157-0.799,0.075-1.087-0.208L7.831,55.142z"/>
				</g>
			</g>
			<g>
				<g>
					<path class="st5" d="M15.42,62.189c-0.257,0-0.51-0.099-0.7-0.287l-9.5-9.326c-0.202-0.198-0.311-0.472-0.299-0.755l0.14-3.381
						c0.017-0.396,0.265-0.745,0.634-0.889c0.368-0.145,0.788-0.059,1.069,0.221l9.36,9.29c0.189,0.188,0.296,0.443,0.296,0.71
						v3.417c0,0.403-0.241,0.766-0.613,0.922C15.682,62.164,15.551,62.189,15.42,62.189z M6.937,51.461l7.482,7.346v-0.618
						L6.965,50.79L6.937,51.461z"/>
				</g>
			</g>
			<g>
				<g>
					<path class="st5" d="M15.42,58.772c-0.259,0-0.514-0.101-0.704-0.29l-9.36-9.29c-0.209-0.208-0.316-0.496-0.293-0.789
						c0.023-0.293,0.175-0.561,0.413-0.732c2.909-2.093,6.344-3.2,9.932-3.2c0.536,0.03,1.014,0.444,1.013,1v12.301
						c0,0.404-0.243,0.768-0.615,0.923C15.68,58.747,15.55,58.772,15.42,58.772z M7.636,48.637l6.784,6.733v-8.868
						C12.008,46.659,9.696,47.386,7.636,48.637z"/>
				</g>
			</g>
			<g>
				<g>
					<path class="st5" d="M7.784,69.871c-0.255,0-0.51-0.097-0.705-0.291c-0.392-0.389-0.394-1.022-0.004-1.414l7.636-7.682
						c0.188-0.189,0.442-0.295,0.709-0.295h10.801c0.553,0,1,0.448,1,1s-0.447,1-1,1H15.836l-7.343,7.387
						C8.298,69.772,8.041,69.871,7.784,69.871z"/>
				</g>
			</g>
		</g>
		<g>
			<g>
				<g>
					<path class="st5" d="M96.898,69.915h-3.434c-0.553,0-1-0.448-1-1v-7.799c0-0.552,0.447-1,1-1h3.434c0.553,0,1,0.448,1,1v7.799
						C97.898,69.467,97.451,69.915,96.898,69.915z M94.465,67.915h1.434v-5.799h-1.434V67.915z"/>
				</g>
			</g>
			<g>
				<g>
					<path class="st5" d="M103.767,69.915h-3.435c-0.553,0-1-0.448-1-1v-12.07c0-0.552,0.447-1,1-1h3.435c0.553,0,1,0.448,1,1v12.07
						C104.767,69.467,104.319,69.915,103.767,69.915z M101.332,67.915h1.435v-10.07h-1.435V67.915z"/>
				</g>
			</g>
			<g>
				<g>
					<path class="st5" d="M110.4,69.915h-3.434c-0.553,0-1-0.448-1-1V52.946c0-0.552,0.447-1,1-1h3.434c0.553,0,1,0.448,1,1v15.969
						C111.4,69.467,110.953,69.915,110.4,69.915z M107.967,67.915h1.434V53.946h-1.434V67.915z"/>
				</g>
			</g>
			<g>
				<g>
					<path class="st5" d="M117.269,69.915h-3.435c-0.553,0-1-0.448-1-1V49.046c0-0.552,0.447-1,1-1h3.435c0.553,0,1,0.448,1,1
						v19.869C118.269,69.467,117.821,69.915,117.269,69.915z M114.834,67.915h1.435V50.046h-1.435V67.915z"/>
				</g>
			</g>
		</g>
	</g>
</g>
</svg>
