<?xml version="1.0" encoding="utf-8"?>
<!-- Generator: Adobe Illustrator 22.0.0, SVG Export Plug-In . SVG Version: 6.00 Build 0)  -->
<svg version="1.1" id="MARKET_RESEARCH_ICON_SET" xmlns="http://www.w3.org/2000/svg" xmlns:xlink="http://www.w3.org/1999/xlink"
	 x="0px" y="0px" viewBox="0 0 128 128" style="enable-background:new 0 0 128 128;" xml:space="preserve">
<style type="text/css">
	.st0{fill:#C2D5EC;}
	.st1{fill:#3F4D80;}
	.st2{fill:#61E1FF;}
	.st3{fill:#7184AF;}
	.st4{fill:#F8F8F8;}
	.st5{fill:#3F4D81;}
	.st6{fill:#E9EAEB;}
	.st7{fill:#F79559;}
	.st8{fill:#FFA85A;}
</style>
<g>
	<g>
		<g>
			<g>
				<path class="st2" d="M123,96.584H5c-2.209,0-4-1.793-4-4.005V30.255c0-2.212,1.791-4.005,4-4.005h118c2.209,0,4,1.793,4,4.005
					V92.58C127,94.791,125.209,96.584,123,96.584z"/>
			</g>
			<g>
				<rect x="6" y="31.256" class="st0" width="116" height="60.322"/>
			</g>
			<g>
				<rect x="54" y="96.584" class="st3" width="20" height="13.406"/>
			</g>
			<g>
				<path class="st2" d="M90.485,109.99h-52.97c-2.209,0-4,1.793-4,4.005v0c0,2.212,1.791,4.005,4,4.005h52.97
					c2.209,0,4-1.793,4-4.005v0C94.485,111.783,92.694,109.99,90.485,109.99z"/>
			</g>
			<g>
				<path class="st4" d="M38.5,116.829c0.73,0.721,1.73,1.171,2.83,1.171h-3.81c-1.1,0-2.1-0.451-2.83-1.171
					c-0.72-0.721-1.17-1.722-1.17-2.833c0-2.213,1.79-4.005,4-4.005h3.81c-2.21,0-4,1.792-4,4.005
					C37.33,115.107,37.78,116.108,38.5,116.829z"/>
			</g>
		</g>
		<g>
			<g>
				<g>
					<path class="st5" d="M114.74,92.099l-12.91-12.885c-1.21-1.211-3.02-1.452-4.5-0.771l-6.08-6.097
						c4.16-5.226,6.65-11.854,6.64-19.063c-0.02-11.764-6.69-21.966-16.44-27.032c-4.22-2.203-9.02-3.444-14.1-3.434
						c-5.05,0.01-9.81,1.241-13.99,3.434c-9.79,5.086-16.46,15.338-16.44,27.142c0.03,16.86,13.7,30.496,30.53,30.466
						c7.18-0.01,13.77-2.513,18.97-6.678l6.09,6.097c0.07-0.15,0.16-0.29,0.25-0.431c-0.93,1.542-0.77,3.584,0.56,4.906l8.82,8.831
						h13.42C116.23,95.113,115.96,93.311,114.74,92.099z"/>
				</g>
			</g>
			<g>
				<path class="st1" d="M115.56,97.584h-13.42c-0.266,0-0.52-0.105-0.708-0.293l-8.82-8.831c-1.304-1.296-1.748-3.182-1.244-4.91
					l-5.031-5.038c-5.478,4.146-11.988,6.336-18.885,6.346c-0.018,0-0.039,0-0.057,0C50.064,84.861,35.951,70.757,35.92,53.395
					c-0.02-11.84,6.486-22.581,16.979-28.032c4.403-2.31,9.401-3.537,14.449-3.547c0.02,0,0.04,0,0.06,0
					c5.043,0,10.057,1.226,14.505,3.547C92.364,30.794,98.87,41.492,98.89,53.281c0.009,6.829-2.226,13.534-6.312,18.98l5.005,5.02
					c1.745-0.519,3.664-0.065,4.954,1.226l12.907,12.882c1.474,1.464,1.886,3.718,1.025,5.609
					C116.308,97.355,115.952,97.584,115.56,97.584z M102.555,95.584h12.291c0.219-0.988-0.075-2.046-0.81-2.776
					c0,0-0.001-0.001-0.002-0.001l-12.91-12.885c-0.869-0.87-2.225-1.1-3.375-0.57c-0.38,0.175-0.83,0.094-1.126-0.203l-6.08-6.097
					c-0.359-0.36-0.391-0.931-0.074-1.329c4.21-5.291,6.432-11.667,6.422-18.439c-0.019-11.041-6.112-21.06-15.901-26.146
					c-4.165-2.173-8.859-3.321-13.581-3.321c-0.019,0-0.038,0-0.056,0c-4.728,0.01-9.405,1.158-13.528,3.32
					c-9.83,5.107-15.923,15.167-15.904,26.255c0.029,16.259,13.247,29.468,29.476,29.468c0.018,0,0.035,0,0.053,0
					c6.739-0.01,13.083-2.243,18.347-6.458c0.399-0.32,0.972-0.287,1.333,0.074l5.396,5.402c0.25-0.062,0.527-0.026,0.765,0.123
					c0.465,0.289,0.611,0.897,0.329,1.365c-0.727,1.206-0.559,2.719,0.409,3.681L102.555,95.584z"/>
			</g>
			<g>
				<ellipse class="st2" cx="63.985" cy="49.919" rx="30.485" ry="30.521"/>
			</g>
			<g>
				<path class="st4" d="M65.88,80.385c-0.61,0.04-1.22,0.06-1.84,0.06C47.2,80.465,33.53,66.829,33.5,49.969
					c-0.03-16.85,13.6-30.546,30.43-30.566c0.63,0,1.26,0.02,1.88,0.06c-15.98,0.961-28.63,14.267-28.6,30.506
					C37.24,66.208,49.91,79.444,65.88,80.385z"/>
			</g>
			<g>
				<g>
					<path class="st6" d="M86.096,41.528c0.208,0.551,0.396,1.112,0.564,1.682C86.492,42.64,86.304,42.079,86.096,41.528z"/>
				</g>
				<g>
					<path class="st6" d="M41.59,57.39c-0.188-0.563-0.358-1.135-0.504-1.716C41.232,56.255,41.402,56.826,41.59,57.39z"/>
				</g>
				<g>
					<path class="st6" d="M54.299,42.445l4.851-4.856L64,42.445l9.252,9.263L85.296,39.65c0.256,0.533,0.488,1.08,0.704,1.634
						C82.558,32.485,74.009,26.25,64,26.25c-13.048,0-23.625,10.59-23.625,23.653c0,1.991,0.249,3.923,0.711,5.77L54.299,42.445z"/>
				</g>
				<g>
					<path class="st6" d="M86.712,43.394c0.349,1.228,0.605,2.495,0.754,3.795C87.317,45.889,87.062,44.622,86.712,43.394z"/>
				</g>
				<g>
					<path class="st3" d="M87.466,47.191l-9.363,9.374l-4.851,4.856l-4.851-4.856l-9.252-9.263l-13.613,13.63l-1.544,1.545
						c4.181,6.654,11.576,11.08,20.008,11.08c13.048,0,23.625-10.59,23.625-23.653C87.625,48.986,87.567,48.082,87.466,47.191z"/>
				</g>
				<g>
					<path class="st6" d="M43.992,62.476c-0.325-0.517-0.63-1.048-0.916-1.591C43.362,61.429,43.667,61.959,43.992,62.476z"/>
				</g>
				<g>
					<path class="st6" d="M43.072,60.876c-0.556-1.06-1.032-2.17-1.425-3.317C42.039,58.707,42.516,59.815,43.072,60.876z"/>
				</g>
			</g>
			<g>
				<path class="st7" d="M92.73,75.836c0.353-0.354,0.76-0.616,1.19-0.81l-6.091-6.098c-1.424,1.786-3.043,3.407-4.827,4.833
					l6.091,6.098c0.193-0.43,0.489-0.861,0.842-1.215L92.73,75.836z"/>
			</g>
			<g>
				<path class="st3" d="M89.901,84.331l12.889,12.904c1.565,1.561,4.097,1.567,5.657,0l2.889-2.897
					c1.559-1.567,1.555-4.102-0.01-5.664L98.416,75.793c-1.565-1.561-4.126-1.523-5.686,0.044l-2.795,2.803
					C88.376,80.205,88.337,82.77,89.901,84.331z"/>
			</g>
		</g>
		<g>
			<g>
				<path class="st7" d="M33.515,49.904c0-0.33,0.014-0.656,0.025-0.983l-1.603-1.605l-4.851,4.856L6,73.284v9.713l25.937-25.968
					l3.469,3.473C34.185,57.2,33.515,53.631,33.515,49.904z"/>
			</g>
			<g>
				<path class="st7" d="M105.87,10l4.521,4.526L90.36,34.58c1.231,2.118,2.214,4.397,2.911,6.799l21.97-21.996l4.521,4.526V10
					H105.87z"/>
			</g>
			<g>
				<path class="st8" d="M85.296,39.65L73.252,51.708L64,42.445l-4.851-4.856l-4.851,4.856L41.086,55.673
					c0.611,2.441,1.603,4.729,2.906,6.803l1.544-1.545l13.613-13.63l9.252,9.263l4.851,4.856l4.851-4.856l9.363-9.374
					C87.161,44.517,86.416,41.977,85.296,39.65z"/>
			</g>
		</g>
	</g>
	<g>
		<g>
			<g>
				<path class="st1" d="M33.515,114.995H1c-0.552,0-1-0.448-1-1s0.448-1,1-1h32.515c0.552,0,1,0.448,1,1
					S34.067,114.995,33.515,114.995z"/>
			</g>
			<g>
				<path class="st1" d="M127,114.995H94.485c-0.552,0-1-0.448-1-1s0.448-1,1-1H127c0.552,0,1,0.448,1,1
					S127.552,114.995,127,114.995z"/>
			</g>
		</g>
		<g>
			<g>
				<g>
					<g>
						<path class="st1" d="M123,97.584h-13.903c-0.404,0-0.769-0.243-0.923-0.617c-0.155-0.373-0.07-0.803,0.215-1.089l2.239-2.247
							c1.168-1.17,1.164-3.076-0.009-4.251L97.709,76.5c-1.126-1.128-3.129-1.101-4.271,0.042l-2.793,2.812
							c-1.187,1.188-1.202,3.103-0.036,4.27l12.238,12.253c0.286,0.286,0.371,0.716,0.216,1.089s-0.52,0.617-0.924,0.617H5
							c-2.757,0-5-2.245-5-5.005V30.255c0-2.76,2.243-5.005,5-5.005h39.738c0.423,0,0.8,0.266,0.942,0.664s0.018,0.843-0.309,1.11
							C38.757,32.43,34.81,40.422,34.54,48.953c-0.013,0.398-0.261,0.751-0.632,0.898c-0.371,0.147-0.793,0.059-1.075-0.223
							l-0.896-0.896L7,73.698v6.882l24.229-24.258c0.375-0.376,1.04-0.376,1.415,0l3.469,3.473c0.102,0.102,0.18,0.225,0.23,0.359
							C40.607,71.681,51.722,79.425,64,79.425c16.258,0,29.485-13.243,29.485-29.521c0-2.785-0.395-5.559-1.175-8.246
							c-0.102-0.35-0.004-0.728,0.253-0.985l15.11-15.128c0.188-0.188,0.442-0.293,0.708-0.293H123c2.757,0,5,2.245,5,5.005V92.58
							C128,95.339,125.757,97.584,123,97.584z M111.505,95.584H123c1.654,0,3-1.348,3-3.005V30.255c0-1.657-1.346-3.005-3-3.005
							h-14.205L94.391,41.672c0.726,2.689,1.094,5.456,1.094,8.232c0,17.381-14.124,31.521-31.485,31.521
							c-13.038,0-24.846-8.177-29.455-20.37l-2.608-2.611L6.708,83.704c-0.287,0.287-0.718,0.371-1.09,0.217
							C5.244,83.766,5,83.402,5,82.997v-9.713c0-0.265,0.105-0.519,0.292-0.707l25.937-25.968c0.375-0.376,1.04-0.376,1.415,0
							l0.046,0.046c0.76-7.377,4.099-14.248,9.421-19.405H5c-1.654,0-3,1.348-3,3.005V92.58c0,1.657,1.346,3.005,3,3.005h94.728
							L89.194,85.038c-1.944-1.946-1.929-5.129,0.034-7.094l2.793-2.812c0.96-0.962,2.236-1.49,3.595-1.49
							c1.331,0,2.577,0.513,3.507,1.445l12.91,12.88c1.952,1.955,1.957,5.13,0.011,7.078L111.505,95.584z"/>
					</g>
				</g>
				<g>
					<g>
						<path class="st1" d="M33.552,52.388c-0.53,0-0.972-0.417-0.998-0.952c-0.024-0.508-0.039-1.019-0.039-1.533
							c0-0.552,0.448-1,1-1s1,0.448,1,1c0,0.479,0.014,0.955,0.036,1.429c0,0.002,0,0.005,0,0.007c0,0,0,0,0,0.001
							c0.026,0.551-0.399,1.02-0.951,1.046C33.584,52.388,33.568,52.388,33.552,52.388z"/>
					</g>
				</g>
				<g>
					<g>
						<path class="st1" d="M90.36,35.581c-0.043,0-0.085-0.003-0.128-0.008c-0.308-0.04-0.58-0.22-0.736-0.489
							c-1.796-3.092-4.107-5.803-6.867-8.059c-0.327-0.268-0.451-0.712-0.309-1.11s0.519-0.664,0.942-0.664H98.68
							c0.404,0,0.769,0.244,0.924,0.617s0.069,0.803-0.216,1.089l-8.319,8.33C90.879,35.476,90.624,35.581,90.36,35.581z
							 M85.889,27.25c1.772,1.716,3.333,3.631,4.665,5.723l5.715-5.723H85.889z"/>
					</g>
				</g>
				<g>
					<g>
						<path class="st1" d="M33.658,53.85c-0.51,0-0.945-0.387-0.995-0.905c-0.031-0.327-0.053-0.657-0.075-0.987
							c-0.001-0.021-0.002-0.043-0.002-0.064c0-0.523,0.406-0.964,0.936-0.998c0.55-0.036,1.027,0.383,1.062,0.934
							c0.02,0.309,0.041,0.618,0.07,0.924c0.003,0.032,0.004,0.064,0.004,0.096c0,0.509-0.387,0.945-0.905,0.995
							C33.722,53.849,33.69,53.85,33.658,53.85z"/>
					</g>
				</g>
				<g>
					<g>
						<path class="st1" d="M35.136,60.722c-0.417,0-0.805-0.262-0.947-0.678l-0.055-0.16c-0.047-0.138-0.095-0.275-0.139-0.415
							c-0.168-0.526,0.123-1.089,0.649-1.256c0.523-0.169,1.088,0.122,1.256,0.648l0.182,0.538c0.036,0.107,0.054,0.215,0.054,0.322
							c0,0.417-0.262,0.805-0.678,0.947C35.352,60.704,35.243,60.722,35.136,60.722z"/>
					</g>
				</g>
				<g>
					<g>
						<path class="st1" d="M33.831,55.286c-0.489,0-0.917-0.359-0.988-0.858c-0.041-0.281-0.075-0.564-0.107-0.848
							c-0.063-0.548,0.329-1.044,0.877-1.108c0.539-0.072,1.044,0.328,1.109,0.876c0.031,0.266,0.063,0.531,0.101,0.795
							c0.007,0.048,0.01,0.096,0.01,0.143c0,0.489-0.359,0.917-0.858,0.989C33.926,55.282,33.878,55.286,33.831,55.286z"/>
					</g>
				</g>
				<g>
					<g>
						<path class="st1" d="M34.369,58.075c-0.451,0-0.86-0.307-0.971-0.765c-0.057-0.235-0.112-0.47-0.163-0.707
							c-0.015-0.071-0.023-0.142-0.022-0.212c0-0.461,0.321-0.875,0.79-0.976c0.538-0.114,1.072,0.227,1.188,0.767
							c0.047,0.22,0.099,0.439,0.151,0.657c0,0,0,0.002,0.001,0.004c0.128,0.537-0.203,1.076-0.739,1.205
							C34.525,58.066,34.446,58.075,34.369,58.075z"/>
					</g>
				</g>
				<g>
					<g>
						<path class="st1" d="M34.727,59.423c-0.434,0-0.834-0.285-0.96-0.723l0.961-0.277L33.767,58.7l-0.033-0.115
							c-0.051-0.177-0.103-0.354-0.15-0.532c-0.141-0.534,0.176-1.081,0.709-1.223c0.535-0.141,1.081,0.176,1.223,0.708
							c0.046,0.171,0.095,0.341,0.145,0.511l0.028,0.096c0.153,0.531-0.153,1.085-0.684,1.238
							C34.912,59.41,34.819,59.423,34.727,59.423z"/>
					</g>
				</g>
				<g>
					<g>
						<path class="st1" d="M34.069,56.696c-0.47,0-0.889-0.333-0.981-0.812c-0.049-0.255-0.094-0.511-0.137-0.768
							c-0.009-0.056-0.014-0.111-0.014-0.167c0-0.479,0.347-0.903,0.835-0.984c0.549-0.09,1.06,0.278,1.151,0.822
							c0.04,0.241,0.083,0.481,0.128,0.72c0.012,0.064,0.018,0.127,0.018,0.189c0,0.47-0.333,0.889-0.812,0.981
							C34.195,56.69,34.132,56.696,34.069,56.696z"/>
					</g>
				</g>
			</g>
			<g>
				<g>
					<path class="st1" d="M74,110.99H54c-0.552,0-1-0.448-1-1V96.584c0-0.552,0.448-1,1-1h20c0.552,0,1,0.448,1,1v13.406
						C75,110.542,74.552,110.99,74,110.99z M55,108.99h18V97.584H55V108.99z"/>
				</g>
			</g>
			<g>
				<g>
					<path class="st1" d="M90.485,119h-52.97c-2.757,0-5-2.245-5-5.005s2.243-5.005,5-5.005h52.97c2.757,0,5,2.245,5,5.005
						S93.242,119,90.485,119z M37.515,110.99c-1.654,0-3,1.348-3,3.005s1.346,3.005,3,3.005h52.97c1.654,0,3-1.348,3-3.005
						s-1.346-3.005-3-3.005H37.515z"/>
				</g>
			</g>
			<g>
				<g>
					<g>
						<path class="st1" d="M122,92.578h-9.554c-0.266,0-0.52-0.105-0.708-0.293c-0.188-0.188-0.292-0.443-0.292-0.708
							c0.001-0.867-0.3-1.667-0.828-2.195L97.709,76.5c-1.126-1.128-3.129-1.101-4.271,0.042l-2.792,2.818
							c-1.186,1.187-1.201,3.099-0.037,4.265l7.238,7.247c0.286,0.286,0.371,0.716,0.216,1.089s-0.52,0.617-0.924,0.617H6
							c-0.552,0-1-0.448-1-1v-8.581c0-0.265,0.105-0.519,0.292-0.707l25.937-25.968c0.375-0.376,1.04-0.376,1.415,0l3.469,3.473
							c0.102,0.102,0.18,0.225,0.23,0.359C40.607,71.681,51.722,79.425,64,79.425c16.258,0,29.485-13.243,29.485-29.521
							c0-2.785-0.395-5.559-1.175-8.246c-0.102-0.35-0.004-0.728,0.253-0.985l10.11-10.123c0.188-0.188,0.442-0.293,0.708-0.293H122
							c0.552,0,1,0.448,1,1v60.322C123,92.13,122.552,92.578,122,92.578z M113.358,90.578H121V32.256h-17.205l-9.404,9.416
							c0.726,2.689,1.094,5.456,1.094,8.232c0,17.381-14.124,31.521-31.485,31.521c-13.038,0-24.846-8.177-29.455-20.37
							l-2.608-2.611L7,83.411v7.167h87.728l-5.534-5.54c-1.943-1.945-1.928-5.125,0.034-7.088l2.792-2.818
							c0.961-0.962,2.237-1.491,3.596-1.491c1.331,0,2.577,0.513,3.507,1.445l12.91,12.88
							C112.714,88.649,113.175,89.568,113.358,90.578z"/>
					</g>
				</g>
				<g>
					<g>
						<path class="st1" d="M90.36,35.58c-0.043,0-0.086-0.003-0.129-0.008c-0.308-0.04-0.58-0.221-0.736-0.489
							c-0.641-1.103-1.37-2.185-2.165-3.215c-0.233-0.302-0.274-0.71-0.106-1.052s0.516-0.559,0.897-0.559h5.558
							c0.404,0,0.769,0.244,0.924,0.617s0.069,0.803-0.216,1.089l-3.319,3.324C90.879,35.476,90.624,35.58,90.36,35.58z
							 M90.08,32.256c0.161,0.238,0.318,0.477,0.472,0.718l0.717-0.718H90.08z"/>
					</g>
				</g>
				<g>
					<g>
						<path class="st1" d="M6,74.284c-0.129,0-0.259-0.025-0.382-0.076C5.244,74.054,5,73.689,5,73.284V31.256c0-0.552,0.448-1,1-1
							h33.873c0.381,0,0.729,0.217,0.897,0.559c0.168,0.342,0.127,0.75-0.106,1.052c-3.809,4.938-5.927,10.845-6.125,17.085
							c-0.013,0.398-0.261,0.751-0.632,0.898c-0.371,0.145-0.793,0.059-1.075-0.224l-0.896-0.896L6.708,73.991
							C6.516,74.183,6.26,74.284,6,74.284z M7,32.256v38.611l24.229-24.258c0.375-0.376,1.04-0.376,1.415,0l0.045,0.045
							c0.527-5.178,2.309-10.088,5.227-14.398H7z"/>
					</g>
				</g>
			</g>
		</g>
		<g>
			<g>
				<g>
					<path class="st1" d="M64,81.425c-17.361,0-31.485-14.14-31.485-31.521S46.639,18.382,64,18.382s31.485,14.141,31.485,31.521
						S81.361,81.425,64,81.425z M64,20.382c-16.258,0-29.485,13.243-29.485,29.521c0,16.278,13.227,29.521,29.485,29.521
						s29.485-13.243,29.485-29.521C93.485,33.625,80.258,20.382,64,20.382z"/>
				</g>
			</g>
			<g>
				<g>
					<path class="st1" d="M64,74.557c-13.578,0-24.625-11.059-24.625-24.653S50.422,25.25,64,25.25s24.625,11.06,24.625,24.653
						S77.578,74.557,64,74.557z M64,27.25c-12.476,0-22.625,10.162-22.625,22.653c0,12.491,10.149,22.653,22.625,22.653
						s22.625-10.162,22.625-22.653C86.625,37.413,76.476,27.25,64,27.25z"/>
				</g>
			</g>
			<g>
				<g>
					<path class="st1" d="M89.093,80.859c-0.263,0-0.518-0.104-0.708-0.293l-6.091-6.098c-0.201-0.201-0.307-0.479-0.291-0.762
						c0.016-0.284,0.152-0.548,0.374-0.726c1.723-1.377,3.294-2.95,4.67-4.675c0.177-0.223,0.441-0.359,0.726-0.375
						c0.287-0.012,0.562,0.09,0.763,0.292l6.091,6.098c0.232,0.232,0.335,0.563,0.276,0.887c-0.06,0.323-0.273,0.596-0.573,0.731
						c-0.349,0.157-0.649,0.36-0.892,0.603l-2.793,2.824c-0.281,0.281-0.501,0.593-0.641,0.904c-0.135,0.3-0.408,0.515-0.732,0.574
						C89.213,80.854,89.153,80.859,89.093,80.859z M84.485,73.831l4.444,4.449c0.095-0.111,0.194-0.22,0.299-0.324l2.792-2.823
						c0.001-0.001,0.002-0.002,0.003-0.003c0.098-0.098,0.2-0.191,0.307-0.281l-4.43-4.435
						C86.85,71.637,85.707,72.781,84.485,73.831z"/>
				</g>
			</g>
			<g>
				<g>
					<path class="st1" d="M105.619,99.408c-1.336,0-2.592-0.521-3.536-1.466L89.194,85.038l0,0
						c-1.939-1.942-1.924-5.116,0.034-7.077l2.791-2.828c0.963-0.964,2.239-1.492,3.598-1.492c1.331,0,2.577,0.513,3.507,1.445
						l12.91,12.88c1.952,1.955,1.957,5.13,0.011,7.078l-2.889,2.897C108.21,98.888,106.954,99.408,105.619,99.408z M90.609,83.625
						l12.889,12.904c1.132,1.133,3.108,1.134,4.242,0l2.889-2.897c1.168-1.17,1.164-3.076-0.009-4.251L97.709,76.5
						c-1.126-1.128-3.129-1.101-4.271,0.042l-2.791,2.828C89.463,80.556,89.448,82.462,90.609,83.625L90.609,83.625z"/>
				</g>
			</g>
		</g>
		<g>
			<g>
				<path class="st1" d="M59.149,74.057c-0.552,0-1-0.448-1-1V47.301c0-0.552,0.448-1,1-1s1,0.448,1,1v25.755
					C60.149,73.609,59.702,74.057,59.149,74.057z"/>
			</g>
			<g>
				<path class="st1" d="M73.252,72.339c-0.552,0-1-0.448-1-1v-9.917c0-0.552,0.448-1,1-1s1,0.448,1,1v9.917
					C74.252,71.891,73.805,72.339,73.252,72.339z"/>
			</g>
			<g>
				<path class="st1" d="M51.821,71.176c-0.552,0-1-0.448-1-1V54.638c0-0.552,0.448-1,1-1s1,0.448,1,1v15.538
					C52.821,70.729,52.374,71.176,51.821,71.176z"/>
			</g>
			<g>
				<path class="st1" d="M66.201,74.456c-0.552,0-1-0.448-1-1V54.361c0-0.552,0.448-1,1-1s1,0.448,1,1v19.094
					C67.201,74.008,66.753,74.456,66.201,74.456z"/>
			</g>
			<g>
				<path class="st1" d="M80.304,68.021c-0.552,0-1-0.448-1-1v-12.66c0-0.552,0.448-1,1-1s1,0.448,1,1v12.66
					C81.304,67.574,80.856,68.021,80.304,68.021z"/>
			</g>
		</g>
		<g>
			<g>
				<g>
					<path class="st1" d="M93.271,42.379c-0.083,0-0.167-0.01-0.249-0.031c-0.343-0.088-0.613-0.351-0.712-0.69
						c-0.666-2.295-1.613-4.507-2.814-6.575c-0.228-0.392-0.163-0.888,0.157-1.209l19.324-19.348l-3.814-3.819
						c-0.286-0.286-0.371-0.716-0.216-1.089S105.465,9,105.87,9h13.892c0.552,0,1,0.448,1,1v13.908c0,0.405-0.244,0.769-0.618,0.924
						c-0.374,0.154-0.804,0.069-1.09-0.217l-3.813-3.817L93.978,42.085C93.788,42.276,93.533,42.379,93.271,42.379z M91.604,34.75
						c0.837,1.525,1.546,3.119,2.119,4.761l20.81-20.834c0.375-0.376,1.04-0.376,1.415,0l2.813,2.816V11h-10.479l2.816,2.819
						c0.39,0.39,0.39,1.023,0,1.413L91.604,34.75z"/>
				</g>
			</g>
			<g>
				<g>
					<path class="st1" d="M43.992,63.477c-0.037,0-0.074-0.002-0.112-0.006c-0.302-0.034-0.573-0.204-0.735-0.462
						c-1.383-2.201-2.402-4.587-3.03-7.092c-0.085-0.341,0.015-0.701,0.263-0.95l18.063-18.085c0.375-0.376,1.04-0.376,1.415,0
						l13.396,13.411l11.336-11.349c0.229-0.229,0.552-0.335,0.875-0.279c0.319,0.054,0.593,0.26,0.733,0.552
						c1.188,2.468,1.949,5.112,2.263,7.861c0.035,0.303-0.071,0.604-0.286,0.82L73.96,62.128c-0.375,0.376-1.04,0.376-1.415,0
						L59.149,48.716L44.7,63.183C44.511,63.372,44.256,63.477,43.992,63.477z M42.199,55.974c0.471,1.699,1.141,3.335,1.998,4.883
						l14.245-14.262c0.375-0.376,1.04-0.376,1.415,0l13.396,13.412L86.413,46.83c-0.254-1.879-0.737-3.702-1.441-5.44L73.96,52.415
						c-0.375,0.376-1.04,0.376-1.415,0L59.149,39.003L42.199,55.974z"/>
				</g>
			</g>
		</g>
	</g>
</g>
</svg>
