<?xml version="1.0" encoding="utf-8"?>
<!-- Generator: Adobe Illustrator 22.0.0, SVG Export Plug-In . SVG Version: 6.00 Build 0)  -->
<svg version="1.1" id="MARKET_RESEARCH_ICON_SET" xmlns="http://www.w3.org/2000/svg" xmlns:xlink="http://www.w3.org/1999/xlink"
	 x="0px" y="0px" viewBox="0 0 128 128" style="enable-background:new 0 0 128 128;" xml:space="preserve">
<style type="text/css">
	.st0{fill:#C2D5EC;}
	.st1{fill:#61E1FF;}
	.st2{fill:#7184AF;}
	.st3{fill:#F8F8F8;}
	.st4{fill:#3F4D81;}
	.st5{fill:#3F4D80;}
	.st6{fill:#E9EAEB;}
	.st7{fill:#F79559;}
	.st8{fill:#FFA85A;}
</style>
<g>
	<g>
		<g>
			
				<ellipse transform="matrix(0.2045 -0.9789 0.9789 0.2045 -11.7356 113.5591)" class="st0" cx="64" cy="64" rx="47.047" ry="46.821"/>
		</g>
		<g>
			<g>
				<path class="st5" d="M98.77,62.069H84.99c-0.62,0-1.19-0.368-1.39-0.946c-0.25-0.707-0.54-1.383-0.88-2.04
					c-1.16-2.279-2.8-4.28-4.81-5.842c0-0.01,0-0.01,0-0.01c-1.61-2.03-3.64-3.702-5.97-4.877v-14.76
					c1.69,0.249,3.34,0.627,4.94,1.105c4.69,1.423,8.95,3.842,12.53,6.996c4.66,4.08,8.17,9.415,10.03,15.456
					c0.32,1.025,0.58,2.07,0.8,3.135C100.42,61.213,99.71,62.069,98.77,62.069z"/>
			</g>
			<g>
				<path class="st5" d="M64.992,84.411c-8.079-0.889-14.609-7.389-15.502-15.429c-1.122-10.112,6.403-18.738,16.145-19.481
					C66.407,49.442,67,48.799,67,48.029v-6.612c0-0.864-0.739-1.535-1.606-1.484c-14.27,0.83-25.625,12.647-25.627,27.053
					c0,0.491,0.012,0.984,0.039,1.48c0.732,13.668,11.981,24.863,25.714,25.591c0.496,0.026,0.99,0.039,1.481,0.039
					c14.478,0,26.353-11.302,27.187-25.506c0.051-0.863-0.623-1.599-1.492-1.599H84.62C84.617,77.332,75.621,85.581,64.992,84.411z"
					/>
			</g>
		</g>
		<g>
			<g>
				<path class="st6" d="M63.015,60.535l7.171,7.137c0,0,3.06-3.045,6.117-6.088C75.172,55.846,70.096,51.517,64,51.517
					c-6.927,0-12.543,5.589-12.543,12.483c0,2.306,0.639,4.459,1.735,6.312L63.015,60.535L63.015,60.535z"/>
			</g>
			<g>
				<path class="st1" d="M70.186,67.672l-7.171-7.137v0l-9.824,9.777c2.18,3.688,6.198,6.171,10.808,6.171
					c6.927,0,12.543-5.589,12.543-12.483c0-0.827-0.085-1.634-0.24-2.416C73.246,64.627,70.186,67.672,70.186,67.672z"/>
			</g>
			<g>
				<ellipse class="st7" cx="63.015" cy="60.535" rx="2.041" ry="2.031"/>
			</g>
			<g>
				<ellipse class="st7" cx="70.186" cy="67.672" rx="2.041" ry="2.031"/>
			</g>
		</g>
		<g>
			<path class="st8" d="M96.441,54.169c-3.286-10.714-11.792-19.18-22.557-22.45c-1.601-0.486-3.251-0.857-4.942-1.104v4.984v11.577
				c5.756,1.672,10.286,6.182,11.964,11.911h11.636h5.008C97.302,57.404,96.929,55.762,96.441,54.169z"/>
		</g>
		<g>
			<path class="st1" d="M64,46.464V36.9c-15.015,0-27.231,12.157-27.234,27.1h9.613C46.38,54.315,54.269,46.464,64,46.464z"/>
		</g>
		<g>
			<path class="st0" d="M91.234,64.005H81.62C81.617,73.688,73.73,81.536,64,81.536v9.573C79.017,91.11,91.234,78.951,91.234,64.005
				z"/>
		</g>
		<g>
			<path class="st2" d="M46.38,64h-9.613c0,0.491,0.012,0.984,0.039,1.48c0.732,13.668,11.981,24.863,25.714,25.591
				c0.496,0.026,0.99,0.039,1.481,0.039v-9.573C54.269,81.536,46.38,73.685,46.38,64z"/>
		</g>
		<g>
			<path class="st3" d="M64,36.9v0.308c-13.06,2-23.08,13.257-23.09,26.792h-4.14C36.77,49.061,48.98,36.9,64,36.9z"/>
		</g>
		<g>
			<path class="st3" d="M64,90.792v0.319c-0.49,0-0.98-0.01-1.48-0.04c-13.73-0.727-24.98-11.923-25.71-25.588
				c-0.03-0.498-0.04-0.995-0.04-1.483h4.14c0,0.488,0.01,0.985,0.04,1.483C41.63,78.252,51.5,88.871,64,90.792z"/>
		</g>
		<g>
			<ellipse class="st8" cx="13.813" cy="64" rx="12.813" ry="12.752"/>
		</g>
		<g>
			<g>
				<polygon class="st1" points="74.804,105.166 72.449,111.025 89.31,111.025 				"/>
			</g>
			<g>
				<path class="st6" d="M97.815,72.262c-1.825,0.012-3.34,1.405-3.497,3.214l-0.986,11.342l-0.001,0.009
					c-0.321-0.436-0.755-0.796-1.295-1.014c-1.55-0.626-3.317,0.117-3.946,1.66l-3.011,7.382L79.727,99.2l-2.785,6.83l10.692,4.319
					l1.6-3.923l9.791-8.216c1.446-1.213,2.283-2.998,2.289-4.88l0.06-17.537C101.38,73.835,99.781,72.249,97.815,72.262z"/>
			</g>
		</g>
		<g>
			<g>
				<polygon class="st1" points="53.196,105.166 55.55,111.025 38.69,111.025 				"/>
			</g>
			<g>
				<path class="st6" d="M48.273,99.2l-5.352-4.345l-3.011-7.382c-0.629-1.543-2.396-2.286-3.946-1.66
					c-0.54,0.218-0.974,0.579-1.295,1.014l-0.001-0.009l-0.986-11.342c-0.157-1.809-1.673-3.202-3.497-3.214
					c-1.966-0.013-3.565,1.573-3.558,3.529l0.06,17.537c0.006,1.882,0.843,3.666,2.289,4.88l9.791,8.216l1.6,3.923l10.692-4.319
					L48.273,99.2z"/>
			</g>
		</g>
	</g>
	<g>
		<g>
			<g>
				<path class="st5" d="M127,112.027H1c-0.553,0-1-0.448-1-1.001s0.447-1.001,1-1.001h126c0.553,0,1,0.448,1,1.001
					S127.553,112.027,127,112.027z"/>
			</g>
		</g>
		<g>
			<g>
				<path class="st5" d="M97.55,60.088H80.906c-0.444,0-0.835-0.293-0.96-0.719c-1.57-5.362-5.895-9.666-11.283-11.232
					c-0.428-0.124-0.722-0.515-0.722-0.961V30.615c0-0.29,0.126-0.567,0.346-0.756c0.219-0.191,0.512-0.276,0.798-0.234
					c1.716,0.249,3.429,0.631,5.089,1.136c11.141,3.386,19.821,12.026,23.223,23.115c0.505,1.645,0.89,3.349,1.143,5.066
					c0.042,0.287-0.042,0.58-0.232,0.799C98.117,59.961,97.841,60.088,97.55,60.088z M81.639,58.086H96.37
					c-0.226-1.227-0.522-2.441-0.886-3.623c0,0,0,0,0-0.001c-3.205-10.45-11.389-18.595-21.892-21.786
					c-1.195-0.363-2.419-0.659-3.651-0.884v14.648C75.403,48.278,79.793,52.648,81.639,58.086z"/>
			</g>
		</g>
		<g>
			<g>
				<path class="st5" d="M46.38,65.001h-9.613c-0.266,0-0.52-0.106-0.707-0.293c-0.188-0.188-0.293-0.443-0.293-0.708
					C35.77,48.505,48.436,35.899,64,35.899c0.553,0,1,0.448,1,1.001v9.563c0,0.553-0.447,1.001-1,1.001
					c-9.164,0-16.62,7.418-16.62,16.536C47.38,64.553,46.933,65.001,46.38,65.001z M37.786,62.999h7.62
					C45.913,53.571,53.528,45.99,63,45.489v-7.57C49.333,38.432,38.307,49.4,37.786,62.999z"/>
			</g>
		</g>
		<g>
			<g>
				<path class="st5" d="M64,92.11c-0.553,0-1-0.448-1-1.001v-9.573c0-0.553,0.447-1.001,1-1.001c9.161,0,16.617-7.416,16.62-16.531
					c0-0.553,0.448-1.001,1-1.001h9.614c0.553,0,1,0.448,1,1.001C92.234,79.503,79.568,92.11,64,92.11z M65,82.511v7.579
					c13.671-0.512,24.698-11.482,25.216-25.084h-7.623C82.084,74.432,74.469,82.009,65,82.511z"/>
			</g>
		</g>
		<g>
			<g>
				<path class="st5" d="M64,92.11c-0.508,0-1.02-0.013-1.533-0.04c-14.193-0.752-25.903-12.407-26.66-26.536
					c-0.027-0.514-0.04-1.025-0.04-1.534c0-0.553,0.447-1.001,1-1.001h9.613c0.553,0,1,0.448,1,1.001
					c0,9.118,7.456,16.536,16.62,16.536c0.553,0,1,0.448,1,1.001v9.573C65,91.663,64.553,92.11,64,92.11z M37.784,65.001
					c0.006,0.142,0.012,0.282,0.02,0.425c0.703,13.122,11.582,23.947,24.769,24.645c0.143,0.008,0.285,0.015,0.428,0.02v-7.579
					c-9.472-0.501-17.087-8.082-17.594-17.51H37.784z"/>
			</g>
		</g>
		<g>
			<g>
				<g>
					<path class="st5" d="M13.813,77.753C6.196,77.753,0,71.583,0,64s6.196-13.753,13.813-13.753c7.616,0,13.812,6.17,13.812,13.753
						S21.43,77.753,13.813,77.753z M13.813,52.248C7.3,52.248,2,57.52,2,64s5.3,11.752,11.813,11.752S25.626,70.48,25.626,64
						S20.327,52.248,13.813,52.248z"/>
				</g>
			</g>
			<g>
				<g>
					<path class="st5" d="M13.813,74.018c-0.553,0-1-0.448-1-1.001v-1.962c0-0.553,0.447-1.001,1-1.001s1,0.448,1,1.001v1.962
						C14.813,73.57,14.366,74.018,13.813,74.018z"/>
				</g>
			</g>
			<g>
				<g>
					<path class="st5" d="M14.657,72.056h-1.695c-2.19,0-3.973-1.78-3.973-3.967c0-0.553,0.447-1.001,1-1.001s1,0.448,1,1.001
						c0,1.084,0.885,1.965,1.973,1.965h1.695c1.092,0,1.98-0.882,1.98-1.965v-1.034c0-1.079-0.889-1.958-1.98-1.958h-1.695
						c-2.19,0-3.973-1.777-3.973-3.96v-1.041c0-2.183,1.782-3.96,3.973-3.96h1.695c2.195,0,3.98,1.777,3.98,3.96
						c0,0.553-0.447,1.001-1,1.001s-1-0.448-1-1.001c0-1.08-0.889-1.959-1.98-1.959h-1.695c-1.088,0-1.973,0.879-1.973,1.959v1.041
						c0,1.08,0.885,1.959,1.973,1.959h1.695c2.195,0,3.98,1.776,3.98,3.959v1.034C18.638,70.276,16.853,72.056,14.657,72.056z"/>
				</g>
			</g>
			<g>
				<g>
					<path class="st5" d="M13.813,58.138c-0.553,0-1-0.448-1-1.001v-2.154c0-0.553,0.447-1.001,1-1.001s1,0.448,1,1.001v2.154
						C14.813,57.69,14.366,58.138,13.813,58.138z"/>
				</g>
			</g>
		</g>
		<g>
			<g>
				<g>
					<path class="st5" d="M71.629,67.237c-0.257,0-0.514-0.099-0.709-0.295c-0.39-0.392-0.388-1.025,0.004-1.415l4.679-4.656
						c0.392-0.391,1.024-0.388,1.414,0.004s0.388,1.025-0.004,1.415l-4.679,4.656C72.139,67.14,71.884,67.237,71.629,67.237z"/>
				</g>
			</g>
			<g>
				<g>
					<path class="st5" d="M68.743,67.237c-0.255,0-0.51-0.097-0.705-0.291l-4.285-4.265c-0.392-0.39-0.394-1.023-0.004-1.415
						c0.39-0.391,1.021-0.394,1.414-0.004l4.285,4.265c0.392,0.39,0.394,1.023,0.004,1.415C69.257,67.138,69,67.237,68.743,67.237z"
						/>
				</g>
			</g>
			<g>
				<g>
					<path class="st5" d="M53.18,71.324c-0.257,0-0.514-0.099-0.709-0.295c-0.39-0.392-0.388-1.025,0.004-1.415l8.393-8.352
						c0.392-0.391,1.024-0.388,1.414,0.004s0.388,1.025-0.004,1.415l-8.393,8.352C53.689,71.227,53.435,71.324,53.18,71.324z"/>
				</g>
			</g>
			<g>
				<g>
					<path class="st5" d="M64,77.484c-7.468,0-13.543-6.049-13.543-13.484S56.532,50.516,64,50.516S77.543,56.564,77.543,64
						S71.468,77.484,64,77.484z M64,52.517c-6.365,0-11.543,5.152-11.543,11.483S57.635,75.483,64,75.483S75.543,70.331,75.543,64
						S70.365,52.517,64,52.517z"/>
				</g>
			</g>
			<g>
				<g>
					<path class="st5" d="M63.016,63.565c-0.778,0-1.556-0.294-2.148-0.884l0,0c-0.575-0.572-0.893-1.334-0.893-2.144
						c0-0.811,0.316-1.574,0.893-2.147c1.184-1.179,3.11-1.179,4.296,0c0.576,0.574,0.893,1.336,0.893,2.147
						c0,0.81-0.317,1.573-0.893,2.144C64.571,63.271,63.793,63.565,63.016,63.565z M63.016,59.505c-0.268,0-0.535,0.101-0.738,0.303
						c-0.195,0.194-0.303,0.453-0.303,0.727c0,0.275,0.107,0.532,0.303,0.726l0,0c0.409,0.405,1.068,0.405,1.476,0
						c0.195-0.194,0.303-0.452,0.303-0.726c0-0.275-0.107-0.533-0.303-0.727C63.55,59.606,63.282,59.505,63.016,59.505z"/>
				</g>
			</g>
			<g>
				<g>
					<path class="st5" d="M70.187,70.702c-0.778,0-1.556-0.294-2.148-0.884l0,0c-0.575-0.573-0.893-1.334-0.893-2.145
						c0-0.811,0.317-1.573,0.893-2.145c1.185-1.182,3.113-1.178,4.296,0c0.575,0.573,0.893,1.334,0.893,2.145
						c0,0.811-0.317,1.573-0.893,2.145C71.742,70.407,70.964,70.702,70.187,70.702z M70.186,66.642
						c-0.267,0-0.534,0.102-0.737,0.304c-0.195,0.194-0.303,0.453-0.303,0.726c0,0.274,0.107,0.532,0.303,0.726l0,0
						c0.408,0.404,1.067,0.406,1.476,0c0.195-0.194,0.303-0.453,0.303-0.726c0-0.274-0.107-0.532-0.303-0.726
						C70.721,66.743,70.453,66.642,70.186,66.642z"/>
				</g>
			</g>
		</g>
		<g>
			<g>
				<g>
					<g>
						<path class="st5" d="M89.31,112.027h-16.86c-0.332,0-0.643-0.165-0.828-0.441c-0.187-0.275-0.224-0.625-0.1-0.933l2.354-5.86
							c0.099-0.246,0.292-0.444,0.536-0.547c0.243-0.105,0.519-0.106,0.766-0.008l14.506,5.86c0.444,0.18,0.699,0.649,0.607,1.119
							C90.2,111.687,89.788,112.027,89.31,112.027z M73.929,110.025h10.232l-8.803-3.557L73.929,110.025z"/>
					</g>
				</g>
				<g>
					<g>
						<path class="st5" d="M87.634,111.349c-0.125,0-0.252-0.023-0.374-0.072l-10.691-4.319c-0.247-0.1-0.443-0.294-0.547-0.539
							c-0.104-0.245-0.105-0.522-0.005-0.768l2.785-6.83c0.063-0.155,0.165-0.293,0.296-0.399l5.152-4.184l2.914-7.144
							c0.837-2.049,3.192-3.043,5.246-2.209c0.028,0.011,0.056,0.022,0.083,0.034l0.829-9.53c0.203-2.338,2.132-4.113,4.486-4.128
							c0.012,0,0.022,0,0.033,0c1.21,0,2.347,0.469,3.204,1.323c0.86,0.857,1.332,1.998,1.328,3.21l-0.06,17.537
							c-0.008,2.181-0.973,4.239-2.647,5.644l-9.601,8.057l-1.507,3.693C88.401,111.115,88.027,111.349,87.634,111.349z
							 M78.248,105.477l8.837,3.57l1.224-3c0.062-0.151,0.158-0.284,0.283-0.389l9.79-8.217c1.223-1.025,1.927-2.526,1.933-4.117
							l0.06-17.536c0.002-0.674-0.261-1.308-0.739-1.786c-0.479-0.478-1.116-0.74-1.794-0.74c-0.006,0-0.013,0-0.019,0
							c-1.316,0.009-2.395,0.998-2.508,2.301l-0.955,10.987c0.095,0.159,0.179,0.325,0.252,0.499
							c0.416,0.986,0.423,2.076,0.018,3.068l-2.457,6.025c-0.199,0.491-0.195,1.051,0.011,1.537l0.462,1.088
							c0.216,0.508-0.021,1.097-0.53,1.313c-0.505,0.214-1.095-0.021-1.312-0.531l-0.461-1.087
							c-0.413-0.973-0.421-2.095-0.021-3.077l2.457-6.025c0.202-0.496,0.199-1.04-0.009-1.533c-0.054-0.127-0.119-0.246-0.195-0.358
							c-0.031-0.037-0.061-0.076-0.086-0.116c-0.215-0.27-0.497-0.48-0.825-0.614c-1.037-0.419-2.226,0.078-2.646,1.11l-3.011,7.382
							c-0.063,0.155-0.165,0.293-0.296,0.399l-5.152,4.184L78.248,105.477z"/>
					</g>
				</g>
			</g>
			<g>
				<g>
					<g>
						<path class="st5" d="M55.55,112.027H38.69c-0.479,0-0.891-0.339-0.981-0.81c-0.092-0.47,0.163-0.939,0.607-1.119l14.506-5.86
							c0.246-0.098,0.521-0.097,0.766,0.008c0.244,0.104,0.438,0.301,0.536,0.547l2.354,5.86c0.124,0.309,0.087,0.659-0.1,0.933
							C56.192,111.861,55.882,112.027,55.55,112.027z M43.839,110.025H54.07l-1.429-3.557L43.839,110.025z"/>
					</g>
				</g>
				<g>
					<g>
						<path class="st5" d="M40.366,111.349c-0.394,0-0.768-0.235-0.926-0.623l-1.507-3.693l-9.601-8.057
							c-1.675-1.405-2.64-3.463-2.647-5.643l-0.06-17.538c-0.004-1.212,0.468-2.352,1.328-3.21c0.864-0.862,2.064-1.324,3.237-1.323
							c2.354,0.016,4.283,1.79,4.486,4.128l0.829,9.53c0.027-0.012,0.055-0.023,0.083-0.034c2.053-0.834,4.409,0.159,5.246,2.209
							l2.914,7.144l5.152,4.184c0.131,0.106,0.232,0.243,0.296,0.399l2.785,6.83c0.101,0.246,0.099,0.523-0.005,0.768
							c-0.104,0.244-0.3,0.439-0.547,0.539l-10.691,4.319C40.618,111.326,40.491,111.349,40.366,111.349z M30.16,73.263
							c-0.679,0-1.315,0.262-1.795,0.74c-0.479,0.478-0.741,1.111-0.739,1.786l0.06,17.537c0.006,1.589,0.71,3.09,1.933,4.116
							l9.79,8.217c0.125,0.105,0.222,0.238,0.283,0.389l1.224,3l8.837-3.57l-2.309-5.662l-5.152-4.184
							c-0.131-0.106-0.232-0.243-0.296-0.399l-3.011-7.382c-0.421-1.031-1.608-1.526-2.646-1.11
							c-0.328,0.134-0.61,0.344-0.825,0.614c-0.025,0.04-0.055,0.079-0.086,0.116c-0.076,0.111-0.142,0.231-0.195,0.358
							c-0.208,0.494-0.211,1.038-0.009,1.533l2.457,6.025c0.399,0.981,0.392,2.103-0.022,3.078l-0.46,1.086
							c-0.217,0.509-0.808,0.745-1.312,0.531c-0.509-0.216-0.746-0.804-0.53-1.313l0.461-1.087c0.207-0.488,0.211-1.048,0.012-1.538
							l-2.457-6.025c-0.405-0.992-0.398-2.082,0.018-3.068c0.073-0.174,0.157-0.34,0.252-0.499l-0.955-10.987
							c-0.113-1.303-1.191-2.292-2.508-2.301C30.172,73.263,30.166,73.263,30.16,73.263z"/>
					</g>
				</g>
			</g>
		</g>
		<g>
			<g>
				<path class="st5" d="M110.83,65.006c-0.552,0-1-0.448-1-1.001c-0.006-18.791-11.047-35.483-28.129-42.525
					c-23.369-9.636-50.318,1.59-60.071,25.022c-0.212,0.511-0.798,0.752-1.308,0.539c-0.51-0.212-0.751-0.798-0.538-1.309
					C29.959,21.286,58.078,9.578,82.463,19.629c17.834,7.352,29.361,24.771,29.367,44.376
					C111.83,64.557,111.383,65.006,110.83,65.006z"/>
			</g>
		</g>
	</g>
</g>
</svg>
