<?xml version="1.0" encoding="utf-8"?>
<!-- Generator: Adobe Illustrator 22.0.0, SVG Export Plug-In . SVG Version: 6.00 Build 0)  -->
<svg version="1.1" id="MARKET_RESEARCH_ICON_SET" xmlns="http://www.w3.org/2000/svg" xmlns:xlink="http://www.w3.org/1999/xlink"
	 x="0px" y="0px" viewBox="0 0 128 128" style="enable-background:new 0 0 128 128;" xml:space="preserve">
<style type="text/css">
	.st0{fill:#C2D5EC;}
	.st1{fill:#61E1FF;}
	.st2{fill:#7184AF;}
	.st3{fill:#F8F8F8;}
	.st4{fill:#3F4D81;}
	.st5{fill:#3F4D80;}
	.st6{fill:#E9EAEB;}
	.st7{fill:#F79559;}
	.st8{fill:#FFA85A;}
</style>
<g>
	<g>
		<g>
			<polygon class="st0" points="10.464,32.852 42.837,54.353 52.301,54.353 84.674,43.603 128,43.603 128,108.764 0,108.764 
				0,32.852 			"/>
		</g>
		<g>
			<path class="st1" d="M64,76.463c2.754,0,5.38,0.536,7.788,1.5V18.112c0-1.995-1.621-3.612-3.621-3.612h-8.333
				c-2,0-3.621,1.617-3.621,3.612v59.851C58.62,76.999,61.246,76.463,64,76.463z"/>
		</g>
		<g>
			<g>
				<path class="st2" d="M60,76.463c-1.295,0-2.559,0.128-3.788,0.354v1.146c1.818-0.728,3.761-1.21,5.788-1.404
					C61.342,76.497,60.675,76.463,60,76.463z"/>
			</g>
			<g>
				<path class="st5" d="M68.167,14.5h-4c2,0,3.621,1.617,3.621,3.612v58.705c1.385,0.254,2.725,0.635,4,1.146V18.112
					C71.788,16.117,70.167,14.5,68.167,14.5z"/>
			</g>
		</g>
		<g>
			<path class="st1" d="M105.837,76.463c2.754,0,5.38,0.536,7.788,1.5V18.112c0-1.995-1.621-3.612-3.621-3.612h-8.333
				c-2,0-3.621,1.617-3.621,3.612v59.851C100.457,76.999,103.084,76.463,105.837,76.463z"/>
		</g>
		<g>
			<g>
				<path class="st2" d="M101.837,76.463c-1.295,0-2.559,0.128-3.788,0.354v1.146c1.818-0.728,3.761-1.21,5.788-1.404
					C103.179,76.497,102.512,76.463,101.837,76.463z"/>
			</g>
			<g>
				<path class="st5" d="M110.004,14.5h-4c2,0,3.621,1.617,3.621,3.612v58.705c1.385,0.254,2.725,0.635,4,1.146V18.112
					C113.625,16.117,112.004,14.5,110.004,14.5z"/>
			</g>
		</g>
		<g>
			<path class="st1" d="M22.163,76.463c2.754,0,5.38,0.536,7.788,1.5V18.112c0-1.995-1.621-3.612-3.621-3.612h-8.333
				c-2,0-3.621,1.617-3.621,3.612v59.851C16.783,76.999,19.409,76.463,22.163,76.463z"/>
		</g>
		<g>
			<g>
				<path class="st2" d="M18.163,76.463c-1.295,0-2.559,0.128-3.788,0.354v1.146c1.818-0.728,3.761-1.21,5.788-1.404
					C19.505,76.497,18.838,76.463,18.163,76.463z"/>
			</g>
			<g>
				<path class="st5" d="M26.329,14.5h-4c2,0,3.621,1.617,3.621,3.612v58.705c1.385,0.254,2.725,0.635,4,1.146V18.112
					C29.951,16.117,28.33,14.5,26.329,14.5z"/>
			</g>
		</g>
		<g>
			<g>
				<ellipse class="st8" cx="105.837" cy="97.329" rx="16.211" ry="16.171"/>
			</g>
			<g>
				<path class="st3" d="M109.636,92.174c-2.595,0-3.806,3.131-3.806,3.131s-1.211-3.131-3.806-3.131
					c-2.199,0-3.509,1.652-3.509,3.795c0,5.523,7.315,9.763,7.315,9.763s7.315-4.24,7.315-9.763
					C113.145,93.826,111.835,92.174,109.636,92.174z"/>
			</g>
		</g>
		<g>
			<ellipse class="st8" cx="22.163" cy="97.329" rx="16.211" ry="16.171"/>
		</g>
		<g>
			<g>
				<ellipse class="st2" cx="64" cy="97.329" rx="16.211" ry="16.171"/>
			</g>
			<g>
				<g>
					<path class="st3" d="M63.885,91.985c-1.047,0-1.895,0.846-1.895,1.89c0,0.22-0.042,0.432-0.113,0.632
						c-0.294-0.987-1.199-1.712-2.284-1.712c-1.241,0-2.25,0.946-2.37,2.153v0.468c0.017,0.51,0.08,1.009,0.214,1.48l0.002,0
						c0.013,0.046,0.025,0.093,0.039,0.138c0.817,2.644,1.362,5.364,1.362,8.13l4.26,4.249l0.44-4.714v-1.705
						c0.787,0.407,1.712,0.586,2.69,0.432c2.128-0.335,3.65-2.244,3.65-4.392v-3.851v-1.77c0-0.499-0.083-0.978-0.232-1.428H63.885z
						"/>
				</g>
				<g>
					<polygon class="st8" points="61.512,110.998 57.272,106.502 58.84,105.165 63.1,109.414 					"/>
				</g>
				<g>
					<polygon class="st8" points="65.16,110.425 65.458,106.559 63.54,104.699 63.1,109.414 					"/>
				</g>
				<g>
					<path class="st8" d="M64,113.5c2.62,0,5.093-0.621,7.283-1.722c-1.881-4.52-5.825-5.219-5.825-5.219l-0.298,3.865l-2.06-1.011
						l-1.588,1.584l-4.239-4.496c0,0-2.35,0.887-4.115,2.832C56.031,111.919,59.827,113.5,64,113.5z"/>
				</g>
				<g>
					<path class="st5" d="M72.077,86.148H61.497c-2.374,0-4.298,1.919-4.298,4.287v4.748c0-1.319,1.072-2.387,2.393-2.387
						c1.085,0,1.991,0.725,2.284,1.712c0.071-0.2,0.113-0.412,0.113-0.632c0-1.044,0.848-1.89,1.895-1.89h5.763
						C69.648,88.402,72.077,86.148,72.077,86.148z"/>
				</g>
			</g>
		</g>
		<g>
			<polygon class="st2" points="84.674,47.294 84.674,39.911 94.138,43.603 			"/>
		</g>
		<g>
			<polygon class="st2" points="42.837,58.044 42.837,50.661 52.301,54.353 			"/>
		</g>
		<g>
			<polygon class="st2" points="1,36.544 1,29.161 10.464,32.852 			"/>
		</g>
	</g>
	<g>
		<g>
			<g>
				<path class="st5" d="M71.788,78.963c-0.125,0-0.252-0.023-0.372-0.071c-4.735-1.896-10.098-1.896-14.833,0
					c-0.308,0.122-0.657,0.084-0.932-0.101c-0.275-0.186-0.439-0.496-0.439-0.828V18.112c0-2.543,2.073-4.612,4.622-4.612h8.333
					c2.548,0,4.622,2.069,4.622,4.612v59.851c0,0.332-0.165,0.643-0.439,0.828C72.181,78.904,71.985,78.963,71.788,78.963z
					 M64,75.463c2.321,0,4.598,0.361,6.788,1.074V18.112c0-1.44-1.176-2.612-2.622-2.612h-8.333c-1.445,0-2.622,1.172-2.622,2.612
					v58.425C59.402,75.824,61.679,75.463,64,75.463z"/>
			</g>
		</g>
		<g>
			<g>
				<path class="st5" d="M113.625,78.963c-0.125,0-0.252-0.023-0.372-0.071c-4.735-1.896-10.097-1.897-14.833,0
					c-0.307,0.122-0.658,0.084-0.932-0.101c-0.275-0.186-0.439-0.496-0.439-0.828V18.112c0-2.543,2.073-4.612,4.621-4.612h8.333
					c2.548,0,4.621,2.069,4.621,4.612v59.851c0,0.332-0.165,0.643-0.439,0.828C114.018,78.904,113.822,78.963,113.625,78.963z
					 M105.837,75.463c2.321,0,4.598,0.361,6.788,1.074V18.112c0-1.44-1.176-2.612-2.621-2.612h-8.333
					c-1.445,0-2.621,1.172-2.621,2.612v58.425C101.24,75.824,103.517,75.463,105.837,75.463z"/>
			</g>
		</g>
		<g>
			<g>
				<path class="st5" d="M29.951,78.963c-0.125,0-0.252-0.023-0.372-0.071c-4.736-1.897-10.098-1.896-14.833,0
					c-0.308,0.122-0.657,0.084-0.932-0.101c-0.275-0.186-0.439-0.496-0.439-0.828V18.112c0-2.543,2.073-4.612,4.621-4.612h8.333
					c2.548,0,4.621,2.069,4.621,4.612v59.851c0,0.332-0.165,0.643-0.439,0.828C30.343,78.904,30.147,78.963,29.951,78.963z
					 M17.996,15.5c-1.445,0-2.621,1.172-2.621,2.612v58.425c4.381-1.425,9.195-1.426,13.576,0V18.112
					c0-1.44-1.176-2.612-2.621-2.612H17.996z"/>
			</g>
		</g>
		<g>
			<g>
				<g>
					<path class="st5" d="M105.709,23.103h-7.66c-0.552,0-1-0.447-1-1s0.448-1,1-1h7.66c0.552,0,1,0.447,1,1
						S106.262,23.103,105.709,23.103z"/>
				</g>
			</g>
			<g>
				<g>
					<path class="st5" d="M101.709,28.478h-3.66c-0.552,0-1-0.447-1-1s0.448-1,1-1h3.66c0.552,0,1,0.447,1,1
						S102.262,28.478,101.709,28.478z"/>
				</g>
			</g>
			<g>
				<g>
					<path class="st5" d="M105.709,33.853h-7.66c-0.552,0-1-0.447-1-1s0.448-1,1-1h7.66c0.552,0,1,0.447,1,1
						S106.262,33.853,105.709,33.853z"/>
				</g>
			</g>
			<g>
				<g>
					<path class="st5" d="M101.709,39.228h-3.66c-0.552,0-1-0.447-1-1s0.448-1,1-1h3.66c0.552,0,1,0.447,1,1
						S102.262,39.228,101.709,39.228z"/>
				</g>
			</g>
			<g>
				<g>
					<path class="st5" d="M105.709,44.603h-7.66c-0.552,0-1-0.447-1-1s0.448-1,1-1h7.66c0.552,0,1,0.447,1,1
						S106.262,44.603,105.709,44.603z"/>
				</g>
			</g>
			<g>
				<g>
					<path class="st5" d="M101.709,49.978h-3.66c-0.552,0-1-0.447-1-1s0.448-1,1-1h3.66c0.552,0,1,0.447,1,1
						S102.262,49.978,101.709,49.978z"/>
				</g>
			</g>
			<g>
				<g>
					<path class="st5" d="M105.709,55.353h-7.66c-0.552,0-1-0.447-1-1s0.448-1,1-1h7.66c0.552,0,1,0.447,1,1
						S106.262,55.353,105.709,55.353z"/>
				</g>
			</g>
			<g>
				<g>
					<path class="st5" d="M101.709,60.728h-3.66c-0.552,0-1-0.447-1-1s0.448-1,1-1h3.66c0.552,0,1,0.447,1,1
						S102.262,60.728,101.709,60.728z"/>
				</g>
			</g>
			<g>
				<g>
					<path class="st5" d="M105.709,66.103h-7.66c-0.552,0-1-0.447-1-1s0.448-1,1-1h7.66c0.552,0,1,0.447,1,1
						S106.262,66.103,105.709,66.103z"/>
				</g>
			</g>
			<g>
				<g>
					<path class="st5" d="M101.709,71.478h-3.66c-0.552,0-1-0.447-1-1s0.448-1,1-1h3.66c0.552,0,1,0.447,1,1
						S102.262,71.478,101.709,71.478z"/>
				</g>
			</g>
		</g>
		<g>
			<g>
				<g>
					<path class="st5" d="M63.872,23.103h-7.66c-0.552,0-1-0.447-1-1s0.448-1,1-1h7.66c0.552,0,1,0.447,1,1
						S64.424,23.103,63.872,23.103z"/>
				</g>
			</g>
			<g>
				<g>
					<path class="st5" d="M59.872,28.478h-3.66c-0.552,0-1-0.447-1-1s0.448-1,1-1h3.66c0.552,0,1,0.447,1,1
						S60.424,28.478,59.872,28.478z"/>
				</g>
			</g>
			<g>
				<g>
					<path class="st5" d="M63.872,33.853h-7.66c-0.552,0-1-0.447-1-1s0.448-1,1-1h7.66c0.552,0,1,0.447,1,1
						S64.424,33.853,63.872,33.853z"/>
				</g>
			</g>
			<g>
				<g>
					<path class="st5" d="M59.872,39.228h-3.66c-0.552,0-1-0.447-1-1s0.448-1,1-1h3.66c0.552,0,1,0.447,1,1
						S60.424,39.228,59.872,39.228z"/>
				</g>
			</g>
			<g>
				<g>
					<path class="st5" d="M63.872,44.603h-7.66c-0.552,0-1-0.447-1-1s0.448-1,1-1h7.66c0.552,0,1,0.447,1,1
						S64.424,44.603,63.872,44.603z"/>
				</g>
			</g>
			<g>
				<g>
					<path class="st5" d="M59.872,49.978h-3.66c-0.552,0-1-0.447-1-1s0.448-1,1-1h3.66c0.552,0,1,0.447,1,1
						S60.424,49.978,59.872,49.978z"/>
				</g>
			</g>
			<g>
				<g>
					<path class="st5" d="M63.872,55.353h-7.66c-0.552,0-1-0.447-1-1s0.448-1,1-1h7.66c0.552,0,1,0.447,1,1
						S64.424,55.353,63.872,55.353z"/>
				</g>
			</g>
			<g>
				<g>
					<path class="st5" d="M59.872,60.728h-3.66c-0.552,0-1-0.447-1-1s0.448-1,1-1h3.66c0.552,0,1,0.447,1,1
						S60.424,60.728,59.872,60.728z"/>
				</g>
			</g>
			<g>
				<g>
					<path class="st5" d="M63.872,66.103h-7.66c-0.552,0-1-0.447-1-1s0.448-1,1-1h7.66c0.552,0,1,0.447,1,1
						S64.424,66.103,63.872,66.103z"/>
				</g>
			</g>
			<g>
				<g>
					<path class="st5" d="M59.872,71.478h-3.66c-0.552,0-1-0.447-1-1s0.448-1,1-1h3.66c0.552,0,1,0.447,1,1
						S60.424,71.478,59.872,71.478z"/>
				</g>
			</g>
		</g>
		<g>
			<g>
				<g>
					<path class="st5" d="M22.035,23.103h-7.66c-0.552,0-1-0.447-1-1s0.448-1,1-1h7.66c0.552,0,1,0.447,1,1
						S22.587,23.103,22.035,23.103z"/>
				</g>
			</g>
			<g>
				<g>
					<path class="st5" d="M18.035,28.478h-3.66c-0.552,0-1-0.447-1-1s0.448-1,1-1h3.66c0.552,0,1,0.447,1,1
						S18.587,28.478,18.035,28.478z"/>
				</g>
			</g>
			<g>
				<g>
					<path class="st5" d="M22.035,33.853h-7.66c-0.552,0-1-0.447-1-1s0.448-1,1-1h7.66c0.552,0,1,0.447,1,1
						S22.587,33.853,22.035,33.853z"/>
				</g>
			</g>
			<g>
				<g>
					<path class="st5" d="M18.035,39.228h-3.66c-0.552,0-1-0.447-1-1s0.448-1,1-1h3.66c0.552,0,1,0.447,1,1
						S18.587,39.228,18.035,39.228z"/>
				</g>
			</g>
			<g>
				<g>
					<path class="st5" d="M22.035,44.603h-7.66c-0.552,0-1-0.447-1-1s0.448-1,1-1h7.66c0.552,0,1,0.447,1,1
						S22.587,44.603,22.035,44.603z"/>
				</g>
			</g>
			<g>
				<g>
					<path class="st5" d="M18.035,49.978h-3.66c-0.552,0-1-0.447-1-1s0.448-1,1-1h3.66c0.552,0,1,0.447,1,1
						S18.587,49.978,18.035,49.978z"/>
				</g>
			</g>
			<g>
				<g>
					<path class="st5" d="M22.035,55.353h-7.66c-0.552,0-1-0.447-1-1s0.448-1,1-1h7.66c0.552,0,1,0.447,1,1
						S22.587,55.353,22.035,55.353z"/>
				</g>
			</g>
			<g>
				<g>
					<path class="st5" d="M18.035,60.728h-3.66c-0.552,0-1-0.447-1-1s0.448-1,1-1h3.66c0.552,0,1,0.447,1,1
						S18.587,60.728,18.035,60.728z"/>
				</g>
			</g>
			<g>
				<g>
					<path class="st5" d="M22.035,66.103h-7.66c-0.552,0-1-0.447-1-1s0.448-1,1-1h7.66c0.552,0,1,0.447,1,1
						S22.587,66.103,22.035,66.103z"/>
				</g>
			</g>
			<g>
				<g>
					<path class="st5" d="M18.035,71.478h-3.66c-0.552,0-1-0.447-1-1s0.448-1,1-1h3.66c0.552,0,1,0.447,1,1
						S18.587,71.478,18.035,71.478z"/>
				</g>
			</g>
		</g>
		<g>
			<g>
				<g>
					<path class="st5" d="M105.837,114.5c-9.49,0-17.211-7.703-17.211-17.171s7.721-17.171,17.211-17.171
						s17.211,7.703,17.211,17.171S115.327,114.5,105.837,114.5z M105.837,82.158c-8.387,0-15.211,6.806-15.211,15.171
						S97.45,112.5,105.837,112.5c8.388,0,15.211-6.806,15.211-15.171S114.225,82.158,105.837,82.158z"/>
				</g>
			</g>
			<g>
				<g>
					<path class="st4" d="M105.83,106.732c-0.173,0-0.346-0.045-0.501-0.135c-0.319-0.185-7.813-4.599-7.813-10.628
						c0-2.823,1.854-4.795,4.509-4.795c1.802,0,3.046,1.116,3.806,2.135c0.76-1.019,2.004-2.135,3.806-2.135
						c2.655,0,4.509,1.972,4.509,4.795c0,6.029-7.495,10.443-7.814,10.628C106.176,106.688,106.003,106.732,105.83,106.732z
						 M102.024,93.175c-1.852,0-2.509,1.506-2.509,2.795c0,4.085,4.739,7.544,6.315,8.581c1.576-1.037,6.315-4.496,6.315-8.581
						c0-1.289-0.657-2.795-2.509-2.795c-1.858,0-2.864,2.466-2.874,2.49c-0.149,0.386-0.52,0.64-0.933,0.64s-0.784-0.254-0.933-0.64
						C104.888,95.644,103.892,93.175,102.024,93.175z"/>
				</g>
			</g>
		</g>
		<g>
			<g>
				<g>
					<path class="st5" d="M22.163,114.5c-9.49,0-17.211-7.703-17.211-17.171s7.721-17.171,17.211-17.171s17.211,7.703,17.211,17.171
						S31.653,114.5,22.163,114.5z M22.163,82.158c-8.388,0-15.211,6.806-15.211,15.171S13.775,112.5,22.163,112.5
						c8.387,0,15.211-6.806,15.211-15.171S30.55,82.158,22.163,82.158z"/>
				</g>
			</g>
			<g>
				<g>
					<path class="st5" d="M22.163,109.764c-0.552,0-1-0.447-1-1v-2.487c0-0.553,0.448-1,1-1s1,0.447,1,1v2.487
						C23.163,109.316,22.715,109.764,22.163,109.764z"/>
				</g>
			</g>
			<g>
				<g>
					<path class="st5" d="M23.231,107.276h-2.145c-2.626,0-4.762-2.136-4.762-4.762c0-0.553,0.448-1,1-1s1,0.447,1,1
						c0,1.522,1.239,2.762,2.762,2.762h2.145c1.528,0,2.771-1.239,2.771-2.762v-1.311c0-1.518-1.243-2.753-2.771-2.753h-2.145
						c-2.626,0-4.762-2.132-4.762-4.752v-1.32c0-2.62,2.136-4.752,4.762-4.752h2.145c2.63,0,4.771,2.132,4.771,4.752
						c0,0.553-0.448,1-1,1s-1-0.447-1-1c0-1.518-1.243-2.752-2.771-2.752h-2.145c-1.523,0-2.762,1.234-2.762,2.752v1.32
						c0,1.518,1.239,2.752,2.762,2.752h2.145c2.63,0,4.771,2.132,4.771,4.753v1.311C28.001,105.141,25.861,107.276,23.231,107.276z"
						/>
				</g>
			</g>
			<g>
				<g>
					<path class="st5" d="M22.163,89.627c-0.552,0-1-0.447-1-1v-2.732c0-0.553,0.448-1,1-1s1,0.447,1,1v2.732
						C23.163,89.18,22.715,89.627,22.163,89.627z"/>
				</g>
			</g>
		</g>
		<g>
			<g>
				<g>
					<g>
						<path class="st5" d="M63.1,110.414c-0.26,0-0.516-0.102-0.706-0.292l-4.26-4.249c-0.188-0.188-0.294-0.442-0.294-0.708
							c0-2.405-0.431-4.968-1.317-7.835c-0.003-0.009-0.021-0.075-0.029-0.102c-0.007-0.02-0.013-0.039-0.019-0.06
							c-0.147-0.519-0.229-1.08-0.251-1.718l0-0.503c0.177-1.84,1.624-3.153,3.37-3.153c0.675,0,1.309,0.195,1.842,0.542
							c0.513-0.812,1.419-1.352,2.45-1.352h5.763c0.431,0,0.813,0.276,0.949,0.686c0.188,0.566,0.283,1.153,0.283,1.742v5.62
							c0,2.664-1.933,4.977-4.495,5.381c-0.62,0.098-1.243,0.088-1.845-0.026v0.312l-0.445,4.808
							c-0.036,0.386-0.292,0.716-0.656,0.848C63.329,110.395,63.214,110.414,63.1,110.414z M59.836,104.746l2.466,2.46l0.243-2.6
							l-0.004-1.612c0-0.349,0.182-0.673,0.48-0.854s0.668-0.195,0.979-0.033c0.639,0.33,1.356,0.444,2.075,0.332
							c1.6-0.252,2.806-1.716,2.806-3.405v-5.62c0-0.143-0.009-0.285-0.026-0.428h-4.969c-0.494,0-0.895,0.399-0.895,0.89
							c0,0.325-0.058,0.651-0.171,0.969c-0.146,0.406-0.517,0.681-0.969,0.663c-0.432-0.013-0.808-0.301-0.931-0.715
							c-0.177-0.597-0.71-0.997-1.326-0.997c-0.713,0-1.304,0.538-1.375,1.252l0.005,0.37c0.015,0.416,0.067,0.802,0.16,1.148
							c0.006,0.018,0.012,0.036,0.018,0.055l-0.002,0.001c0,0.001,0,0.002,0,0.003l-0.015,0.004l-0.906,0.407l0.956-0.295
							C59.329,99.638,59.79,102.262,59.836,104.746z"/>
					</g>
				</g>
				<g>
					<g>
						<path class="st5" d="M63.539,103.994c-0.164,0-0.33-0.04-0.483-0.125c-0.768-0.425-1.428-1.047-1.911-1.798
							c-0.298-0.465-0.164-1.084,0.301-1.383c0.465-0.298,1.083-0.163,1.382,0.301c0.305,0.475,0.718,0.865,1.197,1.13
							c0.483,0.268,0.658,0.876,0.391,1.359C64.232,103.809,63.891,103.994,63.539,103.994z"/>
					</g>
				</g>
				<g>
					<g>
						<path class="st5" d="M64,114.5c-4.253,0-8.341-1.57-11.511-4.422c-0.198-0.178-0.316-0.427-0.33-0.692
							c-0.014-0.266,0.079-0.525,0.258-0.723c1.641-1.811,3.719-2.771,4.329-3.027l1.444-1.231c0.396-0.338,0.986-0.316,1.355,0.053
							l2.756,2.749l0.243-2.6c0.036-0.384,0.288-0.712,0.649-0.846c0.36-0.132,0.766-0.048,1.042,0.221l1.72,1.668
							c1.071,0.284,4.484,1.5,6.25,5.745c0.202,0.484-0.005,1.042-0.474,1.277C69.318,113.885,66.717,114.5,64,114.5z
							 M54.646,109.278c2.67,2.084,5.953,3.222,9.354,3.222c2.072,0,4.067-0.404,5.945-1.203c-1.744-3.2-4.63-3.747-4.662-3.753
							c-0.197-0.034-0.378-0.128-0.522-0.267l-0.42-0.407l-0.247,2.637c-0.036,0.386-0.292,0.716-0.656,0.848
							c-0.362,0.132-0.772,0.042-1.046-0.232l-3.607-3.598l-0.865,0.738c-0.087,0.074-0.188,0.134-0.294,0.174
							C57.609,107.443,56.071,108.041,54.646,109.278z"/>
					</g>
				</g>
				<g>
					<g>
						<path class="st5" d="M57.2,96.183c-0.552,0-1-0.447-1-1v-4.748c0-2.915,2.376-5.287,5.298-5.287h10.579
							c0.411,0,0.781,0.252,0.931,0.635c0.15,0.382,0.052,0.815-0.248,1.096c-0.033,0.031-2.112,2.037-2.112,5.107
							c0,0.553-0.448,1-1,1h-5.763c-0.494,0-0.895,0.399-0.895,0.89c0,0.325-0.058,0.651-0.171,0.969
							c-0.146,0.406-0.517,0.681-0.969,0.663c-0.432-0.012-0.808-0.301-0.931-0.715c-0.177-0.597-0.71-0.997-1.326-0.997
							c-0.769,0-1.394,0.622-1.394,1.388C58.2,95.735,57.752,96.183,57.2,96.183z M59.593,91.795c0.675,0,1.309,0.195,1.842,0.542
							c0.513-0.812,1.419-1.352,2.45-1.352h4.819c0.179-1.59,0.76-2.893,1.337-3.838h-8.543c-1.818,0-3.298,1.475-3.298,3.287v1.659
							C58.625,91.902,59.097,91.795,59.593,91.795z"/>
					</g>
				</g>
			</g>
			<g>
				<g>
					<path class="st5" d="M64,114.485c-9.486,0-17.204-7.699-17.204-17.163S54.514,80.158,64,80.158s17.204,7.7,17.204,17.164
						S73.486,114.485,64,114.485z M64,82.158c-8.384,0-15.204,6.803-15.204,15.164s6.82,15.163,15.204,15.163
						s15.204-6.802,15.204-15.163S72.384,82.158,64,82.158z"/>
				</g>
			</g>
		</g>
		<g>
			<g>
				<path class="st5" d="M10.7,109.764H1c-0.552,0-1-0.447-1-1s0.448-1,1-1h9.7c0.552,0,1,0.447,1,1S11.252,109.764,10.7,109.764z"
					/>
			</g>
		</g>
		<g>
			<g>
				<path class="st5" d="M52.554,109.764H33.626c-0.552,0-1-0.447-1-1s0.448-1,1-1h18.928c0.552,0,1,0.447,1,1
					S53.106,109.764,52.554,109.764z"/>
			</g>
		</g>
		<g>
			<g>
				<path class="st5" d="M94.374,109.764H75.446c-0.552,0-1-0.447-1-1s0.448-1,1-1h18.928c0.552,0,1,0.447,1,1
					S94.926,109.764,94.374,109.764z"/>
			</g>
		</g>
		<g>
			<g>
				<path class="st5" d="M127,109.764h-9.7c-0.552,0-1-0.447-1-1s0.448-1,1-1h9.7c0.552,0,1,0.447,1,1S127.552,109.764,127,109.764z
					"/>
			</g>
		</g>
		<g>
			<g>
				<path class="st5" d="M84.674,48.294c-0.199,0-0.396-0.06-0.564-0.175c-0.273-0.186-0.436-0.495-0.436-0.825v-7.383
					c0-0.33,0.163-0.64,0.436-0.825s0.621-0.227,0.927-0.106l9.464,3.691c0.384,0.149,0.637,0.52,0.637,0.932
					s-0.253,0.782-0.637,0.932l-9.464,3.691C84.92,48.271,84.797,48.294,84.674,48.294z M85.674,41.375v4.455l5.712-2.228
					L85.674,41.375z"/>
			</g>
		</g>
		<g>
			<g>
				<path class="st5" d="M42.837,59.044c-0.199,0-0.396-0.06-0.564-0.175c-0.273-0.186-0.436-0.495-0.436-0.825v-7.383
					c0-0.33,0.163-0.64,0.436-0.825c0.272-0.187,0.621-0.226,0.927-0.106l9.464,3.691c0.384,0.149,0.637,0.52,0.637,0.932
					s-0.253,0.782-0.637,0.932L43.2,58.976C43.083,59.021,42.959,59.044,42.837,59.044z M43.837,52.125v4.455l5.712-2.228
					L43.837,52.125z"/>
			</g>
		</g>
		<g>
			<g>
				<path class="st5" d="M1,37.544c-0.199,0-0.396-0.06-0.564-0.175C0.163,37.184,0,36.874,0,36.544v-7.383
					c0-0.33,0.163-0.64,0.436-0.825s0.62-0.227,0.927-0.106l9.464,3.691c0.384,0.149,0.637,0.52,0.637,0.932
					s-0.253,0.782-0.637,0.932l-9.464,3.691C1.246,37.521,1.123,37.544,1,37.544z M2,30.625v4.455l5.712-2.228L2,30.625z"/>
			</g>
		</g>
	</g>
</g>
</svg>
