<?xml version="1.0" encoding="utf-8"?>
<!-- Generator: Adobe Illustrator 22.0.0, SVG Export Plug-In . SVG Version: 6.00 Build 0)  -->
<svg version="1.1" id="MARKET_RESEARCH_ICON_SET" xmlns="http://www.w3.org/2000/svg" xmlns:xlink="http://www.w3.org/1999/xlink"
	 x="0px" y="0px" viewBox="0 0 128 128" style="enable-background:new 0 0 128 128;" xml:space="preserve">
<style type="text/css">
	.st0{fill:#C2D5EC;}
	.st1{fill:#61E1FF;}
	.st2{fill:#7184AF;}
	.st3{fill:#F8F8F8;}
	.st4{fill:#3F4D81;}
	.st5{fill:#3F4D80;}
	.st6{fill:#E9EAEB;}
	.st7{fill:#F79559;}
	.st8{fill:#FFA85A;}
</style>
<g>
	<g>
		<g>
			<path class="st0" d="M31.854,106.41h64.291c12.51-9.636,20.577-24.751,20.577-41.758c0-29.105-23.605-52.699-52.723-52.699
				S11.277,35.548,11.277,64.652C11.277,81.659,19.345,96.774,31.854,106.41z"/>
		</g>
		<g>
			<path class="st5" d="M84.983,48.357c-9.615-8.487-24.351-8.487-33.966,0c-10.58,9.339-11.539,25.11-2.877,35.615
				c1.827,2.216,3.49,4.569,4.707,7.171c1.199,2.564,2.298,5.711,2.298,8.629v6.638h25.709v-6.638c0-2.919,1.099-6.065,2.298-8.629
				c1.217-2.602,2.88-4.955,4.707-7.171C96.522,73.467,95.563,57.696,84.983,48.357z"/>
			<path class="st5" d="M80.854,107.411H55.146c-0.552,0-1-0.448-1-1.001v-6.638c0-2.286-0.762-5.123-2.204-8.205
				c-1.041-2.227-2.494-4.438-4.573-6.958c-9.196-11.153-7.884-27.406,2.987-37.003c10.059-8.88,25.229-8.881,35.288,0l0,0
				c10.872,9.596,12.184,25.85,2.987,37.003c-2.079,2.522-3.532,4.734-4.573,6.958c-1.441,3.082-2.203,5.919-2.203,8.205v6.638
				C81.854,106.963,81.407,107.411,80.854,107.411z M56.146,105.409h23.709v-5.637c0-2.614,0.805-5.659,2.393-9.053
				c1.113-2.382,2.651-4.728,4.841-7.385c8.506-10.315,7.29-25.349-2.767-34.227l0,0c-9.306-8.214-23.338-8.212-32.643,0
				c-10.058,8.878-11.273,23.912-2.767,34.227c2.188,2.655,3.727,5.002,4.841,7.385c1.587,3.393,2.393,6.438,2.393,9.053V105.409z"
				/>
		</g>
		<g>
			<path class="st2" d="M51.146,96.774v12.849c0,3.548,2.878,6.424,6.427,6.424h12.854c3.55,0,6.427-2.876,6.427-6.424V96.774
				H51.146z"/>
		</g>
		<g>
			<path class="st8" d="M80.983,45.358c-9.615-8.487-24.351-8.487-33.966,0c-10.58,9.339-11.539,25.11-2.877,35.615
				c1.827,2.216,3.49,4.569,4.707,7.171c1.199,2.564,2.298,5.711,2.298,8.629H64h12.854c0-2.919,1.099-6.065,2.298-8.629
				c1.217-2.602,2.88-4.955,4.707-7.171C92.522,70.469,91.563,54.697,80.983,45.358z"/>
		</g>
		<g>
			<path class="st3" d="M62.23,116.046h-4.66c-3.55,0-6.42-2.879-6.42-6.427V96.774h4.66v12.844
				C55.81,113.167,58.68,116.046,62.23,116.046z"/>
		</g>
		<g>
			<path class="st3" d="M53.51,88.148c1.2,2.559,2.3,5.707,2.3,8.626h-4.66c0-2.919-1.1-6.067-2.3-8.626
				c-1.22-2.609-2.88-4.958-4.71-7.177c-8.66-10.505-7.7-26.278,2.88-35.614c5.42-4.788,12.47-6.877,19.31-6.257
				c-5.29,0.47-10.46,2.549-14.65,6.257C41.1,54.694,40.14,70.467,48.8,80.972C50.63,83.191,52.29,85.54,53.51,88.148z"/>
		</g>
		<g>
			<ellipse class="st1" cx="64" cy="64.652" rx="19.069" ry="19.061"/>
		</g>
		<g>
			<ellipse class="st7" cx="64" cy="64.652" rx="11.295" ry="11.29"/>
		</g>
		<g>
			<polygon class="st8" points="105.686,30.641 95.565,40.757 86.676,41.987 87.906,33.102 98.027,22.986 96.796,31.871 			"/>
		</g>
		<g>
			<g>
				<polygon class="st3" points="90.606,34.401 97.384,27.626 98.027,22.986 87.906,33.102 86.676,41.987 90.244,38.42 				"/>
			</g>
		</g>
	</g>
	<g>
		<g>
			<g>
				<g>
					<path class="st5" d="M70.427,117.047H57.573c-4.095,0-7.427-3.331-7.427-7.426V96.773c0-0.553,0.448-1.001,1-1.001h25.709
						c0.553,0,1,0.448,1,1.001v12.848C77.854,113.716,74.522,117.047,70.427,117.047z M52.146,97.774v11.848
						c0,2.991,2.435,5.424,5.427,5.424h12.854c2.993,0,5.428-2.433,5.428-5.424V97.774H52.146z"/>
				</g>
			</g>
			<g>
				<g>
					<path class="st5" d="M76.854,97.774H51.146c-0.552,0-1-0.448-1-1.001c0-2.317-0.742-5.078-2.204-8.205
						c-1.041-2.227-2.494-4.438-4.573-6.958c-9.196-11.153-7.884-27.406,2.987-37.003c10.059-8.88,25.229-8.881,35.288,0l0,0
						c10.872,9.596,12.184,25.85,2.987,37.003c-2.079,2.522-3.532,4.734-4.573,6.958c-1.462,3.127-2.203,5.888-2.203,8.205
						C77.854,97.327,77.407,97.774,76.854,97.774z M52.108,95.772h23.785c0.176-2.379,0.966-5.082,2.354-8.052
						c1.113-2.382,2.651-4.728,4.841-7.385c8.506-10.315,7.29-25.349-2.767-34.227l0,0c-9.306-8.213-23.338-8.213-32.643,0
						c-10.058,8.878-11.273,23.912-2.767,34.227c2.188,2.655,3.727,5.002,4.841,7.385C51.142,90.69,51.932,93.392,52.108,95.772z"/>
				</g>
			</g>
			<g>
				<g>
					<path class="st5" d="M76.854,104.199H64c-0.552,0-1-0.448-1-1.001s0.448-1.001,1-1.001h12.854c0.553,0,1,0.448,1,1.001
						S77.407,104.199,76.854,104.199z"/>
				</g>
			</g>
			<g>
				<g>
					<path class="st5" d="M76.854,110.623H64c-0.552,0-1-0.448-1-1.001s0.448-1.001,1-1.001h12.854c0.553,0,1,0.448,1,1.001
						S77.407,110.623,76.854,110.623z"/>
				</g>
			</g>
		</g>
		<g>
			<g>
				<path class="st5" d="M64,69.38c-1.211,0-2.422-0.46-3.344-1.383c-0.894-0.893-1.386-2.081-1.386-3.345
					c0-1.263,0.492-2.45,1.386-3.344c0.813-0.812,1.891-1.301,3.035-1.375c0.542-0.037,1.027,0.382,1.063,0.934
					c0.036,0.551-0.382,1.027-0.933,1.063c-0.661,0.043-1.283,0.325-1.752,0.794c-0.515,0.515-0.799,1.199-0.799,1.928
					c0,0.729,0.284,1.413,0.799,1.929c1.064,1.063,2.797,1.064,3.862-0.001c0.469-0.468,0.751-1.09,0.794-1.751
					c0.036-0.552,0.514-0.966,1.064-0.932c0.551,0.037,0.968,0.513,0.932,1.065c-0.076,1.145-0.564,2.222-1.376,3.034
					C66.423,68.918,65.211,69.38,64,69.38z"/>
			</g>
		</g>
		<g>
			<g>
				<path class="st5" d="M31.986,107.529c-0.212,0-0.425-0.067-0.606-0.206c-0.54-0.412-1.071-0.836-1.594-1.268
					c-0.426-0.352-0.487-0.982-0.135-1.409c0.352-0.426,0.982-0.485,1.408-0.135c0.504,0.416,1.017,0.824,1.537,1.223
					c0.439,0.335,0.522,0.964,0.187,1.403C32.584,107.394,32.287,107.529,31.986,107.529z M27.436,103.62
					c-0.25,0-0.499-0.093-0.693-0.28c-0.49-0.471-0.971-0.951-1.442-1.442c-0.383-0.398-0.371-1.032,0.027-1.415
					c0.397-0.382,1.031-0.37,1.414,0.027c0.453,0.471,0.916,0.933,1.387,1.387c0.398,0.383,0.411,1.017,0.028,1.415
					C27.96,103.518,27.698,103.62,27.436,103.62z M23.356,99.222c-0.288,0-0.573-0.123-0.771-0.363
					c-0.433-0.523-0.856-1.055-1.27-1.594c-0.336-0.439-0.252-1.067,0.186-1.404c0.437-0.334,1.065-0.253,1.402,0.186
					c0.397,0.52,0.805,1.032,1.222,1.536c0.353,0.425,0.293,1.057-0.132,1.409C23.808,99.147,23.581,99.222,23.356,99.222z
					 M19.8,94.392c-0.327,0-0.647-0.159-0.838-0.455c-0.371-0.568-0.731-1.144-1.081-1.727c-0.284-0.474-0.13-1.089,0.343-1.373
					c0.473-0.284,1.088-0.131,1.372,0.343c0.337,0.562,0.684,1.116,1.041,1.665c0.302,0.462,0.171,1.083-0.291,1.385
					C20.177,94.34,19.988,94.392,19.8,94.392z M16.815,89.188c-0.367,0-0.72-0.202-0.895-0.552
					c-0.304-0.607-0.596-1.221-0.877-1.841c-0.228-0.503-0.005-1.097,0.498-1.325c0.504-0.227,1.096-0.005,1.324,0.498
					c0.27,0.596,0.552,1.187,0.844,1.77c0.248,0.495,0.047,1.096-0.446,1.344C17.118,89.154,16.965,89.188,16.815,89.188z
					 M14.442,83.68c-0.408,0-0.792-0.252-0.939-0.658c-0.232-0.637-0.453-1.28-0.66-1.929c-0.168-0.526,0.121-1.09,0.647-1.258
					c0.529-0.168,1.089,0.121,1.257,0.648c0.2,0.624,0.412,1.241,0.635,1.853c0.189,0.52-0.078,1.094-0.597,1.283
					C14.672,83.66,14.556,83.68,14.442,83.68z M12.716,77.937c-0.452,0-0.862-0.309-0.972-0.768
					c-0.157-0.659-0.303-1.322-0.435-1.99c-0.107-0.541,0.245-1.068,0.786-1.176c0.543-0.114,1.068,0.244,1.176,0.787
					c0.127,0.642,0.267,1.28,0.418,1.914c0.128,0.538-0.203,1.077-0.74,1.206C12.872,77.928,12.793,77.937,12.716,77.937z
					 M11.658,72.034c-0.499,0-0.93-0.372-0.991-0.881c-0.081-0.672-0.15-1.348-0.207-2.029c-0.046-0.551,0.363-1.034,0.914-1.08
					c0.547-0.064,1.034,0.363,1.08,0.914c0.055,0.656,0.121,1.308,0.199,1.955c0.066,0.549-0.325,1.048-0.873,1.114
					C11.738,72.032,11.698,72.034,11.658,72.034z M11.278,66.046c-0.549,0-0.996-0.443-1-0.993l-0.001-0.405
					c0-0.544,0.008-1.092,0.025-1.635c0.017-0.552,0.465-0.957,1.03-0.971c0.552,0.018,0.986,0.479,0.969,1.031
					c-0.016,0.524-0.024,1.05-0.024,1.579l0.001,0.385c0.004,0.553-0.44,1.005-0.993,1.009
					C11.283,66.046,11.28,66.046,11.278,66.046z M11.573,60.052c-0.035,0-0.071-0.002-0.106-0.006
					c-0.549-0.058-0.948-0.55-0.89-1.101c0.072-0.678,0.156-1.353,0.253-2.024c0.08-0.546,0.592-0.934,1.133-0.846
					c0.547,0.079,0.926,0.586,0.847,1.134c-0.093,0.646-0.174,1.295-0.243,1.948C12.511,59.67,12.078,60.052,11.573,60.052z
					 M12.542,54.133c-0.072,0-0.146-0.008-0.219-0.024c-0.539-0.12-0.878-0.655-0.758-1.194c0.148-0.666,0.309-1.325,0.482-1.981
					c0.141-0.535,0.688-0.855,1.222-0.713c0.534,0.141,0.853,0.688,0.712,1.223c-0.166,0.63-0.321,1.267-0.463,1.907
					C13.413,53.816,13,54.133,12.542,54.133z M14.181,48.36c-0.109,0-0.219-0.018-0.328-0.056c-0.521-0.181-0.798-0.752-0.617-1.274
					c0.224-0.645,0.46-1.285,0.708-1.919c0.201-0.514,0.78-0.769,1.296-0.568c0.514,0.202,0.768,0.783,0.566,1.297
					c-0.238,0.61-0.465,1.225-0.681,1.846C14.982,48.101,14.595,48.36,14.181,48.36z M16.475,42.808c-0.146,0-0.294-0.031-0.434-0.1
					c-0.498-0.239-0.707-0.838-0.467-1.336c0.296-0.614,0.604-1.222,0.921-1.822c0.259-0.489,0.862-0.676,1.352-0.416
					c0.488,0.259,0.674,0.865,0.416,1.353c-0.306,0.579-0.603,1.163-0.887,1.755C17.204,42.6,16.847,42.808,16.475,42.808z
					 M19.387,37.555c-0.183,0-0.368-0.05-0.534-0.155c-0.467-0.295-0.605-0.913-0.311-1.38c0.363-0.576,0.737-1.143,1.121-1.704
					c0.312-0.455,0.933-0.574,1.39-0.261c0.456,0.312,0.572,0.935,0.26,1.391c-0.37,0.542-0.73,1.089-1.081,1.643
					C20.042,37.39,19.718,37.555,19.387,37.555z M22.876,32.672c-0.22,0-0.441-0.072-0.626-0.221
					c-0.43-0.347-0.499-0.976-0.152-1.408c0.426-0.53,0.862-1.052,1.307-1.565c0.362-0.418,0.994-0.461,1.411-0.099
					c0.417,0.363,0.461,0.995,0.099,1.412c-0.429,0.494-0.849,0.996-1.258,1.506C23.458,32.544,23.168,32.672,22.876,32.672z
					 M26.894,28.215c-0.258,0-0.515-0.099-0.711-0.297c-0.388-0.393-0.385-1.026,0.007-1.415c0.482-0.478,0.974-0.946,1.474-1.407
					c0.406-0.375,1.04-0.348,1.413,0.06c0.374,0.407,0.347,1.04-0.06,1.414c-0.481,0.443-0.955,0.895-1.42,1.356
					C27.402,28.118,27.148,28.215,26.894,28.215z M31.387,24.244c-0.296,0-0.588-0.131-0.786-0.381
					c-0.342-0.434-0.267-1.063,0.167-1.406c0.533-0.42,1.074-0.831,1.624-1.231c0.446-0.325,1.072-0.227,1.396,0.221
					c0.325,0.447,0.226,1.073-0.221,1.398c-0.528,0.384-1.048,0.779-1.561,1.184C31.822,24.173,31.604,24.244,31.387,24.244z
					 M36.298,20.807c-0.335,0-0.663-0.168-0.852-0.474c-0.291-0.47-0.145-1.088,0.325-1.378c0.576-0.357,1.16-0.702,1.75-1.037
					c0.48-0.274,1.091-0.105,1.363,0.375c0.272,0.481,0.104,1.092-0.376,1.365c-0.569,0.324-1.131,0.657-1.686,1
					C36.66,20.759,36.478,20.807,36.298,20.807z M41.564,17.95c-0.375,0-0.735-0.212-0.906-0.575c-0.235-0.5-0.02-1.097,0.48-1.332
					c0.612-0.287,1.23-0.564,1.854-0.83c0.511-0.218,1.096,0.02,1.312,0.529c0.216,0.508-0.02,1.097-0.528,1.313
					c-0.602,0.256-1.197,0.523-1.787,0.801C41.852,17.92,41.707,17.95,41.564,17.95z M47.116,15.715
					c-0.417,0-0.807-0.263-0.947-0.68c-0.177-0.524,0.104-1.092,0.627-1.269c0.643-0.217,1.291-0.423,1.944-0.615
					c0.527-0.161,1.085,0.147,1.242,0.677c0.156,0.53-0.147,1.087-0.677,1.242c-0.627,0.186-1.25,0.382-1.869,0.591
					C47.33,15.698,47.222,15.715,47.116,15.715z M52.896,14.125c-0.462,0-0.877-0.322-0.977-0.792
					c-0.115-0.541,0.229-1.072,0.77-1.188c0.662-0.142,1.328-0.271,1.999-0.389c0.544-0.088,1.062,0.269,1.157,0.814
					c0.095,0.544-0.269,1.062-0.812,1.158c-0.646,0.112-1.289,0.238-1.927,0.373C53.035,14.118,52.965,14.125,52.896,14.125z
					 M58.819,13.206c-0.509,0-0.944-0.386-0.994-0.904c-0.054-0.549,0.348-1.039,0.898-1.093c0.672-0.065,1.349-0.118,2.029-0.16
					c0.569-0.023,1.026,0.386,1.06,0.937c0.034,0.552-0.386,1.026-0.937,1.061c-0.656,0.04-1.309,0.091-1.958,0.154
					C58.884,13.204,58.851,13.206,58.819,13.206z"/>
			</g>
		</g>
		<g>
			<g>
				<path class="st5" d="M64,84.714c-11.066,0-20.069-8.999-20.069-20.062c0-11.062,9.003-20.061,20.069-20.061
					s20.069,8.999,20.069,20.061C84.069,75.715,75.066,84.714,64,84.714z M64,46.593c-9.963,0-18.069,8.101-18.069,18.059
					S54.037,82.712,64,82.712c9.964,0,18.069-8.102,18.069-18.06S73.964,46.593,64,46.593z"/>
			</g>
		</g>
		<g>
			<g>
				<path class="st5" d="M64,76.943c-6.78,0-12.295-5.514-12.295-12.291c0-6.777,5.516-12.29,12.295-12.29
					c6.779,0,12.295,5.514,12.295,12.29C76.295,71.429,70.779,76.943,64,76.943z M64,54.363c-5.677,0-10.295,4.615-10.295,10.288
					c0,5.674,4.619,10.289,10.295,10.289s10.295-4.615,10.295-10.289C74.295,58.979,69.677,54.363,64,54.363z"/>
			</g>
		</g>
		<g>
			<g>
				<path class="st5" d="M64,65.653c-0.256,0-0.512-0.098-0.708-0.293c-0.39-0.392-0.39-1.025,0.001-1.416l32.795-32.78
					c0.391-0.389,1.024-0.39,1.415,0.001c0.39,0.392,0.39,1.025-0.001,1.416l-32.796,32.78C64.511,65.555,64.256,65.653,64,65.653z"
					/>
			</g>
		</g>
		<g>
			<g>
				<path class="st5" d="M86.676,42.988c-0.264,0-0.519-0.105-0.707-0.293c-0.222-0.222-0.326-0.535-0.283-0.845l1.23-8.886
					c0.029-0.216,0.129-0.416,0.283-0.571L97.32,22.277c0.305-0.303,0.77-0.377,1.152-0.188c0.385,0.192,0.604,0.608,0.545,1.034
					l-1.05,7.575l7.581-1.049c0.431-0.061,0.842,0.161,1.032,0.545c0.191,0.385,0.115,0.85-0.188,1.154l-10.12,10.115
					c-0.154,0.153-0.354,0.253-0.57,0.282l-8.89,1.231C86.767,42.985,86.722,42.988,86.676,42.988z M88.851,33.571l-1.003,7.243
					l7.248-1.003l7.773-7.77l-5.937,0.821c-0.31,0.046-0.622-0.062-0.844-0.283s-0.326-0.535-0.283-0.845l0.822-5.935L88.851,33.571
					z"/>
			</g>
		</g>
		<g>
			<g>
				<path class="st5" d="M64,33.487c-0.552,0-1-0.448-1-1.001v-9.501c0-0.553,0.448-1.001,1-1.001s1,0.448,1,1.001v9.501
					C65,33.04,64.552,33.487,64,33.487z"/>
			</g>
		</g>
		<g>
			<g>
				<path class="st5" d="M41.245,42.909c-0.256,0-0.511-0.098-0.707-0.292l-6.721-6.718c-0.391-0.391-0.391-1.024-0.001-1.416
					c0.39-0.391,1.022-0.39,1.414-0.001l6.721,6.718c0.391,0.391,0.391,1.024,0.001,1.416
					C41.757,42.811,41.501,42.909,41.245,42.909z"/>
			</g>
		</g>
		<g>
			<g>
				<path class="st5" d="M93.477,95.116c-0.256,0-0.512-0.098-0.707-0.292l-4.896-4.894c-0.391-0.391-0.391-1.024-0.001-1.416
					c0.391-0.391,1.024-0.39,1.415-0.001l4.896,4.894c0.391,0.391,0.391,1.024,0.001,1.416
					C93.989,95.018,93.732,95.116,93.477,95.116z"/>
			</g>
		</g>
		<g>
			<g>
				<path class="st5" d="M31.819,65.653h-9.505c-0.552,0-1-0.448-1-1.001s0.448-1.001,1-1.001h9.505c0.552,0,1,0.448,1,1.001
					S32.372,65.653,31.819,65.653z"/>
			</g>
		</g>
		<g>
			<g>
				<path class="st5" d="M105.686,65.653h-7.658c-0.553,0-1-0.448-1-1.001s0.447-1.001,1-1.001h7.658c0.553,0,1,0.448,1,1.001
					S106.238,65.653,105.686,65.653z"/>
			</g>
		</g>
		<g>
			<g>
				<path class="st5" d="M34.524,95.116c-0.256,0-0.512-0.098-0.708-0.293c-0.39-0.392-0.39-1.025,0.001-1.416l6.721-6.718
					c0.391-0.389,1.024-0.39,1.414,0.001c0.39,0.392,0.39,1.025-0.001,1.416l-6.721,6.718C35.035,95.018,34.78,95.116,34.524,95.116
					z"/>
			</g>
		</g>
		<g>
			<g>
				<path class="st5" d="M127,107.411H76.854c-0.553,0-1-0.448-1-1.001s0.447-1.001,1-1.001H127c0.553,0,1,0.448,1,1.001
					S127.553,107.411,127,107.411z"/>
			</g>
		</g>
		<g>
			<g>
				<path class="st5" d="M51.146,107.411H1c-0.552,0-1-0.448-1-1.001s0.448-1.001,1-1.001h50.146c0.552,0,1,0.448,1,1.001
					S51.698,107.411,51.146,107.411z"/>
			</g>
		</g>
		<g>
			<g>
				<path class="st5" d="M63.996,49.73c-0.552,0-1-0.448-1-1.001v-6.275c0-0.553,0.448-1.001,1-1.001s1,0.448,1,1.001v6.275
					C64.996,49.283,64.548,49.73,63.996,49.73z"/>
			</g>
		</g>
		<g>
			<g>
				<path class="st5" d="M64,87.851c-0.552,0-1-0.448-1-1.001v-6.275c0-0.553,0.448-1.001,1-1.001s1,0.448,1,1.001v6.275
					C65,87.404,64.552,87.851,64,87.851z"/>
			</g>
		</g>
		<g>
			<g>
				<path class="st5" d="M86.206,65.651h-6.277c-0.553,0-1-0.448-1-1.001c0-0.553,0.447-1.001,1-1.001h6.277
					c0.553,0,1,0.448,1,1.001C87.206,65.203,86.759,65.651,86.206,65.651z"/>
			</g>
		</g>
		<g>
			<g>
				<path class="st5" d="M48.067,65.656H41.79c-0.552,0-1-0.448-1-1.001s0.448-1.001,1-1.001h6.277c0.552,0,1,0.448,1,1.001
					S48.62,65.656,48.067,65.656z"/>
			</g>
		</g>
	</g>
</g>
</svg>
