<?xml version="1.0" encoding="utf-8"?>
<!-- Generator: Adobe Illustrator 22.0.0, SVG Export Plug-In . SVG Version: 6.00 Build 0)  -->
<svg version="1.1" id="MARKET_RESEARCH_ICON_SET" xmlns="http://www.w3.org/2000/svg" xmlns:xlink="http://www.w3.org/1999/xlink"
	 x="0px" y="0px" viewBox="0 0 128 128" style="enable-background:new 0 0 128 128;" xml:space="preserve">
<style type="text/css">
	.st0{fill:#C2D5EC;}
	.st1{fill:#61E1FF;}
	.st2{fill:#7184AF;}
	.st3{fill:#F8F8F8;}
	.st4{fill:#3F4D81;}
	.st5{fill:#3F4D80;}
	.st6{fill:#E9EAEB;}
	.st7{fill:#F79559;}
	.st8{fill:#FFA85A;}
</style>
<g>
	<g>
		<g>
			<g>
				<path class="st1" d="M123,110.312H5c-2.209,0-4-1.79-4-3.998V40.093c0-2.208,1.791-3.998,4-3.998h118c2.209,0,4,1.79,4,3.998
					v66.221C127,108.522,125.209,110.312,123,110.312z"/>
			</g>
			<g>
				<rect x="6" y="41.093" class="st0" width="116" height="64.221"/>
			</g>
			<g>
				<path class="st5" d="M15.714,41.093v6.479c0,2.149,1.743,3.892,3.894,3.892h43.498c2.15,0,3.894,1.742,3.894,3.892v7.481
					c0,0.622,0.765,0.919,1.185,0.46l9.655-10.565c0.738-0.807,1.781-1.267,2.875-1.267h33.678c2.15,0,3.894-1.742,3.894-3.892
					v-6.479H15.714z"/>
			</g>
			<g>
				<path class="st5" d="M67.686,64.52c-0.205,0-0.412-0.037-0.613-0.115c-0.652-0.253-1.073-0.868-1.073-1.567v-7.481
					c0-1.595-1.298-2.892-2.894-2.892H19.608c-2.698,0-4.894-2.194-4.894-4.892v-6.479c0-0.553,0.447-1,1-1h102.57
					c0.553,0,1,0.447,1,1v6.479c0,2.697-2.195,4.892-4.894,4.892H80.714c-0.811,0-1.589,0.343-2.136,0.941l-9.655,10.565
					C68.596,64.328,68.147,64.52,67.686,64.52z M16.715,42.093v5.479c0,1.595,1.298,2.892,2.894,2.892h43.497
					c2.698,0,4.894,2.194,4.894,4.892v6.661l9.103-9.961c0.925-1.012,2.241-1.592,3.612-1.592h33.678
					c1.596,0,2.894-1.297,2.894-2.892v-5.479H16.715z"/>
			</g>
		</g>
		<g>
			<path class="st2" d="M115.286,19.514v26.309c0,2.149-1.511,3.659-3.661,3.659h-34.73c-1.028,0-2.009,0.432-2.703,1.191
				L63.999,61.827v-9.47c0-2.038-1.656-2.875-3.661-2.875H16.375c-1.869,0-3.661-1.51-3.661-3.659V19.514
				c0-2.149,1.743-3.892,3.894-3.892h94.784C113.542,15.622,115.286,17.364,115.286,19.514z"/>
		</g>
		<g>
			<path class="st3" d="M115.29,19.513v0.34h-97.1c-0.71,0-1.28,0.57-1.28,1.279v28.35h-0.535c-1.869,0-3.665-1.51-3.665-3.659
				v-26.31c0-2.149,1.75-3.888,3.9-3.888l94.78-0.003C113.54,15.622,115.29,17.364,115.29,19.513z"/>
		</g>
		<g>
			<ellipse class="st8" cx="64" cy="32.668" rx="10.174" ry="10.17"/>
		</g>
		<g>
			<g>
				<ellipse class="st3" cx="33.629" cy="32.668" rx="10.914" ry="10.909"/>
			</g>
			<g>
				<polygon class="st8" points="33.629,27.147 35.424,30.782 39.437,31.365 36.533,34.194 37.218,38.189 33.629,36.303 
					30.039,38.189 30.725,34.194 27.821,31.365 31.834,30.782 				"/>
			</g>
		</g>
		<g>
			<g>
				<ellipse class="st1" cx="94.371" cy="32.668" rx="10.914" ry="10.909"/>
			</g>
			<g>
				<polygon class="st3" points="94.371,26.262 87.454,29.211 94.371,32.16 101.289,29.211 				"/>
			</g>
			<g>
				<polygon class="st0" points="101.289,36.125 94.371,39.074 94.371,32.16 101.289,29.211 				"/>
			</g>
			<g>
				<polygon class="st6" points="87.454,36.125 94.371,39.074 94.371,32.16 87.454,29.211 				"/>
			</g>
		</g>
		<g>
			<g>
				<g>
					<path class="st6" d="M59.635,93.995v3.728l4.366,8.274l4.366-8.274v-3.728c-1.332,0.608-2.807,0.955-4.366,0.955
						C62.442,94.95,60.966,94.602,59.635,93.995z"/>
				</g>
				<g>
					<path class="st8" d="M82.448,111.577c0-8.066-9.719-11.7-9.719-11.7l0,0l-4.362-2.154l-4.366,8.274l0.001,0.001L64,106
						l-0.001-0.001l0.002-0.002l-4.366-8.274l-4.364,2.155l0-0.001c0,0-9.719,3.634-9.719,11.7c0,1.455-0.103,3.138-0.194,4.923
						h37.285C82.551,114.714,82.448,113.032,82.448,111.577z"/>
				</g>
				<g>
					<path class="st3" d="M48.552,114.576c0-8.066,9.719-11.7,9.719-11.7l0,0.001l3.239-1.599l-1.875-3.554l-4.363,2.155l0-0.001
						c0,0-9.719,3.634-9.719,11.7c0,1.455-0.103,3.137-0.194,4.923h3.147C48.531,115.828,48.552,115.178,48.552,114.576z"/>
				</g>
				<g>
					<path class="st5" d="M56.498,77.488c0-1.985,1.61-3.594,3.596-3.594h7.812c1.986,0,3.596,1.609,3.596,3.594
						c0,5.744,3.486,1.91,3.486,1.91v-5.232c0-8.152-4.429-5.931-4.429-5.931s-0.899-2.221-3.726-2.221h-5.666
						c-4.504,0-8.155,3.649-8.155,8.151v5.233l0,0C53.012,79.398,56.498,83.232,56.498,77.488z"/>
				</g>
				<g>
					<path class="st3" d="M75.327,79.372c-0.116,0-0.228,0.011-0.338,0.026c0,0-3.486,3.834-3.486-1.91
						c0-1.985-1.61-3.594-3.596-3.594h-7.812c-1.986,0-3.596,1.609-3.596,3.594c0,5.744-3.486,1.91-3.486,1.91l0,0v0
						c-0.11-0.016-0.222-0.026-0.338-0.026c0,0-2.054,0-2.054,2.063v2.071c0,1.691,0.921,3.225,3.071,3.55
						c0.045,0.007,0.081,0.009,0.123,0.014c1.179,4.53,5.286,7.878,10.187,7.878c4.901,0,9.008-3.349,10.187-7.878
						c0.042-0.005,0.079-0.007,0.123-0.014c2.15-0.325,3.071-1.859,3.071-3.55v-2.071C77.381,79.372,75.327,79.372,75.327,79.372z"
						/>
				</g>
			</g>
			<g>
				<g>
					<path class="st7" d="M82.354,110.312h30.407c-0.091-1.786-0.194-3.468-0.194-4.923c0-8.066-9.719-11.7-9.719-11.7l0,0
						l-4.362-2.154l-4.366,8.274l0.002,0.001l-0.002,0.002l-0.002-0.001l0.002-0.002l-4.366-8.274L85.39,93.69l0-0.001
						c0,0-6.806,2.564-9.018,8.137C78.876,103.5,81.826,106.286,82.354,110.312z"/>
				</g>
				<g>
					<path class="st3" d="M89.752,91.536l-4.363,2.155l0-0.001c0,0-6.817,2.552-9.031,8.121c1.037,0.693,2.151,1.577,3.142,2.661
						c2.348-5.335,8.889-7.784,8.889-7.784l0,0.001l3.239-1.599L89.752,91.536z"/>
				</g>
				<g>
					<path class="st5" d="M86.617,71.302c0-1.985,1.61-3.594,3.596-3.594h7.812c1.986,0,3.596,1.609,3.596,3.594
						c0,5.744,3.486,1.91,3.486,1.91V67.98c0-8.152-4.429-5.931-4.429-5.931s-0.899-2.221-3.727-2.221h-5.666
						c-4.504,0-8.155,3.649-8.155,8.151v5.233l0,0C83.131,73.212,86.617,77.046,86.617,71.302z"/>
				</g>
				<g>
					<path class="st6" d="M89.751,87.809v3.728l4.366,8.274l4.366-8.274v-3.728c-1.332,0.608-2.807,0.955-4.366,0.955
						C92.558,88.764,91.083,88.416,89.751,87.809z"/>
				</g>
				<g>
					<path class="st3" d="M105.446,73.186c-0.116,0-0.228,0.011-0.338,0.026c0,0-3.486,3.834-3.486-1.91
						c0-1.985-1.61-3.594-3.596-3.594h-7.812c-1.986,0-3.596,1.609-3.596,3.594c0,5.744-3.486,1.91-3.486,1.91l0,0v0
						c-0.11-0.016-0.222-0.026-0.338-0.026c0,0-2.054,0-2.054,2.063v2.071c0,1.691,0.921,3.225,3.071,3.55
						c0.045,0.007,0.081,0.009,0.123,0.014c1.179,4.53,5.286,7.878,10.187,7.878c4.901,0,9.008-3.349,10.187-7.878
						c0.042-0.005,0.079-0.007,0.123-0.014c2.15-0.325,3.071-1.859,3.071-3.55v-2.071C107.501,73.186,105.446,73.186,105.446,73.186
						z"/>
				</g>
			</g>
			<g>
				<g>
					<path class="st6" d="M29.516,87.807v3.728l4.366,8.274l4.366-8.274v-3.728c-1.332,0.608-2.807,0.955-4.366,0.955
						C32.323,88.762,30.848,88.414,29.516,87.807z"/>
				</g>
				<g>
					<path class="st7" d="M51.628,101.826c-2.212-5.573-9.018-8.137-9.018-8.137l0,0l-4.362-2.154l-4.366,8.274l0.001,0.001
						l-0.002,0.002l-0.001-0.001l0.002-0.002l-4.366-8.274l-4.364,2.155l0-0.001c0,0-9.719,3.634-9.719,11.7
						c0,1.455-0.103,3.138-0.194,4.923h30.407C46.174,106.286,49.124,103.5,51.628,101.826z"/>
				</g>
				<g>
					<path class="st3" d="M18.434,108.388c0-8.066,9.719-11.7,9.719-11.7l0,0.001l3.239-1.599l-1.875-3.554l-4.363,2.155l0-0.001
						c0,0-9.719,3.634-9.719,11.7c0,1.455-0.103,3.137-0.194,4.923h3.147C18.414,109.64,18.434,108.991,18.434,108.388z"/>
				</g>
				<g>
					<path class="st5" d="M26.38,71.302c0-1.985,1.61-3.594,3.596-3.594h7.812c1.986,0,3.596,1.609,3.596,3.594
						c0,5.744,3.486,1.91,3.486,1.91V67.98c0-8.152-4.429-5.931-4.429-5.931s-0.899-2.221-3.726-2.221h-5.666
						c-4.504,0-8.155,3.649-8.155,8.151v5.233l0,0C22.893,73.212,26.38,77.046,26.38,71.302z"/>
				</g>
				<g>
					<path class="st3" d="M45.208,73.186c-0.116,0-0.228,0.011-0.338,0.026c0,0-3.486,3.834-3.486-1.91
						c0-1.985-1.61-3.594-3.596-3.594h-7.812c-1.986,0-3.596,1.609-3.596,3.594c0,5.744-3.486,1.91-3.486,1.91l0,0v0
						c-0.11-0.016-0.222-0.026-0.338-0.026c0,0-2.054,0-2.054,2.063v2.071c0,1.691,0.921,3.225,3.071,3.55
						c0.045,0.007,0.081,0.009,0.123,0.014c1.179,4.53,5.286,7.878,10.187,7.878c4.901,0,9.008-3.349,10.187-7.878
						c0.042-0.005,0.079-0.007,0.123-0.014c2.15-0.325,3.071-1.859,3.071-3.55v-2.071C47.263,73.186,45.208,73.186,45.208,73.186z"
						/>
				</g>
			</g>
		</g>
	</g>
	<g>
		<g>
			<g>
				<g>
					<path class="st5" d="M122,106.314h-9.438c-0.55,0-0.996-0.443-1-0.992c-0.055-7.241-8.977-10.662-9.066-10.696
						c-0.031-0.012-0.062-0.025-0.092-0.04l-3.489-1.723l-3.91,7.414c-0.078,0.147-0.191,0.272-0.33,0.365
						c-0.235,0.156-0.527,0.207-0.803,0.138c-0.274-0.069-0.508-0.251-0.64-0.501l-3.91-7.416l-3.49,1.724
						c-0.032,0.017-0.065,0.03-0.099,0.043c-0.18,0.068-6.421,2.505-8.431,7.562c-0.112,0.281-0.345,0.496-0.633,0.586
						c-0.289,0.091-0.602,0.044-0.854-0.124c-1.832-1.227-3.424-1.834-3.44-1.841l-3.579-1.762l-3.549,6.73
						c-0.173,0.328-0.514,0.533-0.885,0.533h-0.722c-0.371,0-0.711-0.205-0.885-0.533l-3.552-6.73l-3.491,1.724
						c-0.033,0.017-0.067,0.031-0.103,0.044c-0.082,0.031-1.618,0.623-3.428,1.835c-0.251,0.168-0.562,0.215-0.854,0.124
						c-0.288-0.09-0.521-0.305-0.633-0.586c-2.026-5.101-8.375-7.542-8.438-7.566l-3.579-1.763l-3.912,7.417
						c-0.254,0.48-0.846,0.67-1.332,0.428c-0.187-0.094-0.342-0.244-0.439-0.429l-3.909-7.415l-3.49,1.724
						c-0.033,0.017-0.066,0.031-0.101,0.043c-0.234,0.09-9.004,3.511-9.059,10.692c-0.004,0.549-0.45,0.992-1,0.992H6
						c-0.553,0-1-0.447-1-1V41.093c0-0.553,0.447-1,1-1h6.715c0.553,0,1,0.447,1,1v4.729c0,1.467,1.193,2.66,2.66,2.66h43.963
						c2.875,0,4.661,1.484,4.661,3.875v6.894l8.455-9.252c0.88-0.964,2.134-1.517,3.44-1.517h34.73c1.467,0,2.66-1.193,2.66-2.66
						v-4.729c0-0.553,0.447-1,1-1H122c0.553,0,1,0.447,1,1v64.222C123,105.867,122.553,106.314,122,106.314z M113.511,104.314H121
						V42.093h-4.715v3.729c0,2.569-2.091,4.66-4.66,4.66h-34.73c-0.746,0-1.462,0.315-1.964,0.865L64.737,62.502
						c-0.278,0.305-0.716,0.404-1.101,0.258c-0.384-0.149-0.638-0.52-0.638-0.933v-9.47c0-1.55-1.447-1.875-2.661-1.875H16.375
						c-2.569,0-4.66-2.091-4.66-4.66v-3.729H7v62.222h7.489c0.755-7.694,9.434-11.223,10.264-11.543l4.322-2.133
						c0.485-0.242,1.074-0.049,1.327,0.43l3.48,6.602l3.481-6.602c0.252-0.479,0.842-0.67,1.327-0.43l4.362,2.154
						c0.191,0.067,6.3,2.419,9.004,7.575c1.583-0.942,2.802-1.404,2.862-1.428l4.272-2.113c0.483-0.242,1.073-0.05,1.327,0.43
						l3.482,6.599l3.479-6.599c0.253-0.479,0.843-0.669,1.327-0.43l4.362,2.153l0,0c0.011,0,1.208,0.456,2.771,1.388
						c2.705-5.156,8.817-7.511,9.094-7.614l4.274-2.115c0.484-0.242,1.075-0.049,1.327,0.43l3.48,6.603l3.481-6.603
						c0.252-0.479,0.843-0.67,1.327-0.43l4.32,2.133C104.078,93.093,112.756,96.621,113.511,104.314z"/>
				</g>
			</g>
			<g>
				<g>
					<path class="st5" d="M123,111.312h-10.24c-0.532,0-0.972-0.417-0.999-0.948l-0.042-0.806c-0.079-1.496-0.153-2.909-0.153-4.169
						c0-7.288-8.979-10.729-9.069-10.764c-0.031-0.012-0.062-0.025-0.092-0.04l-3.489-1.723l-3.91,7.414
						c-0.078,0.147-0.191,0.272-0.33,0.365c-0.235,0.156-0.527,0.207-0.803,0.138c-0.274-0.069-0.508-0.251-0.64-0.501l-3.91-7.416
						l-3.489,1.724c-0.033,0.017-0.066,0.03-0.101,0.043c-0.191,0.073-6.422,2.51-8.43,7.562c-0.112,0.281-0.345,0.496-0.633,0.586
						c-0.289,0.091-0.602,0.044-0.854-0.124c-1.832-1.227-3.424-1.835-3.44-1.841l-3.579-1.762l-3.91,7.414
						c-0.346,0.656-1.422,0.656-1.77,0l-3.912-7.414l-3.491,1.724c-0.033,0.017-0.067,0.031-0.103,0.044
						c-0.085,0.032-1.619,0.624-3.428,1.835c-0.251,0.168-0.562,0.215-0.854,0.124c-0.288-0.09-0.521-0.305-0.633-0.586
						c-2.02-5.082-8.376-7.542-8.439-7.566l-3.578-1.763l-3.912,7.417c-0.254,0.48-0.846,0.67-1.332,0.428
						c-0.187-0.094-0.342-0.244-0.439-0.429l-3.909-7.415l-3.49,1.724c-0.032,0.017-0.066,0.031-0.101,0.043
						c-0.223,0.085-9.062,3.525-9.062,10.76c0,1.26-0.074,2.673-0.153,4.169l-0.042,0.806c-0.027,0.531-0.467,0.948-0.999,0.948H5
						c-2.757,0-5-2.242-5-4.998V40.094c0-2.756,2.243-4.998,5-4.998h7.715c0.553,0,1,0.447,1,1v9.727c0,1.467,1.193,2.66,2.66,2.66
						h43.963c2.875,0,4.661,1.484,4.661,3.875v6.894l8.455-9.252c0.88-0.964,2.134-1.517,3.44-1.517h34.73
						c1.467,0,2.66-1.193,2.66-2.66v-9.727c0-0.553,0.447-1,1-1H123c2.757,0,5,2.242,5,4.998v66.221
						C128,109.07,125.757,111.312,123,111.312z M113.709,109.312H123c1.654,0,3-1.345,3-2.998V40.094c0-1.653-1.346-2.998-3-2.998
						h-6.715v8.727c0,2.569-2.091,4.66-4.66,4.66h-34.73c-0.746,0-1.462,0.315-1.964,0.865L64.737,62.502
						c-0.278,0.305-0.716,0.404-1.101,0.258c-0.384-0.149-0.638-0.52-0.638-0.933v-9.47c0-1.55-1.447-1.875-2.661-1.875H16.375
						c-2.569,0-4.66-2.091-4.66-4.66v-8.727H5c-1.654,0-3,1.345-3,2.998v66.221c0,1.653,1.346,2.998,3,2.998h9.291
						c0.075-1.417,0.144-2.755,0.144-3.923c0-8.441,9.449-12.282,10.318-12.618l4.322-2.133c0.485-0.242,1.074-0.049,1.327,0.43
						l3.48,6.602l3.481-6.602c0.252-0.479,0.842-0.67,1.327-0.43l4.362,2.154c0.191,0.067,6.3,2.419,9.004,7.575
						c1.583-0.942,2.802-1.404,2.862-1.428l4.272-2.113c0.483-0.242,1.073-0.05,1.327,0.43l3.482,6.599l3.479-6.599
						c0.253-0.479,0.843-0.672,1.327-0.43l4.362,2.153l0,0c0.011,0,1.208,0.456,2.771,1.388c2.705-5.156,8.817-7.511,9.094-7.614
						l4.274-2.115c0.484-0.242,1.075-0.049,1.327,0.43l3.48,6.603l3.481-6.603c0.253-0.478,0.843-0.67,1.327-0.43l4.32,2.133
						c0.87,0.336,10.318,4.177,10.318,12.618C113.565,106.558,113.634,107.896,113.709,109.312z"/>
				</g>
			</g>
		</g>
		<g>
			<g>
				<g>
					<g>
						<path class="st5" d="M64.001,106.997c-0.371,0-0.711-0.205-0.885-0.533L58.75,98.19c-0.075-0.144-0.115-0.304-0.115-0.467
							v-3.729c0-0.34,0.173-0.657,0.459-0.841c0.288-0.185,0.649-0.209,0.956-0.068c2.514,1.146,5.39,1.146,7.901,0
							c0.307-0.14,0.668-0.116,0.956,0.069c0.286,0.184,0.459,0.501,0.459,0.841v3.728c0,0.163-0.04,0.323-0.115,0.467l-4.365,8.273
							C64.712,106.792,64.372,106.997,64.001,106.997z M60.635,97.476l3.366,6.379l3.365-6.379v-2.03
							c-2.18,0.67-4.552,0.671-6.731-0.001V97.476z"/>
					</g>
				</g>
				<g>
					<g>
						<path class="st5" d="M82.642,117.5H45.358c-0.274,0-0.536-0.112-0.725-0.312c-0.189-0.198-0.288-0.466-0.274-0.739
							l0.044-0.842c0.076-1.457,0.148-2.833,0.148-4.03c0-8.442,9.451-12.283,10.319-12.618l4.321-2.132
							c0.483-0.242,1.073-0.05,1.327,0.43l3.482,6.599l3.479-6.599c0.253-0.479,0.843-0.669,1.327-0.43l4.32,2.132
							c0.869,0.336,10.319,4.177,10.319,12.618c0,1.197,0.072,2.573,0.148,4.03l0.044,0.842c0.014,0.273-0.085,0.541-0.274,0.739
							C83.178,117.388,82.916,117.5,82.642,117.5z M46.412,115.5h35.176c-0.073-1.405-0.14-2.732-0.14-3.923
							c0-7.288-8.979-10.729-9.07-10.764c-0.031-0.012-0.062-0.025-0.092-0.04l-3.489-1.722l-3.91,7.414
							c-0.346,0.656-1.422,0.656-1.77,0l-3.912-7.415l-3.491,1.724c-0.032,0.017-0.064,0.03-0.099,0.043
							c-0.199,0.075-9.063,3.522-9.063,10.76C46.552,112.768,46.485,114.095,46.412,115.5z"/>
					</g>
				</g>
				<g>
					<g>
						<path class="st5" d="M64,95.948c-5.029,0-9.452-3.26-10.974-8.004c-2.115-0.521-3.407-2.18-3.407-4.437v-2.072
							c0-1.867,1.262-2.746,2.393-2.989v-4.28c0-5.046,4.106-9.15,9.154-9.15h5.666c2.283,0,3.558,1.187,4.175,2.028
							c0.75-0.153,1.723-0.134,2.614,0.416c1.57,0.97,2.367,3.227,2.367,6.708v4.278c1.131,0.243,2.393,1.122,2.393,2.989v2.072
							c0,2.256-1.291,3.915-3.407,4.436C73.452,92.688,69.029,95.948,64,95.948z M52.674,80.373
							c-0.475,0.012-1.055,0.206-1.055,1.062v2.072c0,0.831,0.288,2.269,2.221,2.56c0.408,0.049,0.838,0.353,0.941,0.751
							c1.092,4.198,4.883,7.13,9.219,7.13s8.127-2.932,9.219-7.13c0.104-0.399,0.442-0.693,0.853-0.741
							c2.021-0.301,2.31-1.738,2.31-2.569v-2.072c0-0.854-0.576-1.049-1.062-1.062c-0.065,0.001-0.128,0.008-0.189,0.017
							c-0.286,0.043-0.578-0.045-0.797-0.234c-0.219-0.19-0.345-0.466-0.345-0.756v-5.231c0-3.576-0.881-4.667-1.405-4.998
							c-0.707-0.446-1.578-0.041-1.585-0.035c-0.249,0.119-0.541,0.13-0.798,0.031c-0.256-0.101-0.465-0.299-0.568-0.555
							c-0.024-0.055-0.715-1.596-2.8-1.596h-5.666c-3.945,0-7.154,3.208-7.154,7.15v5.233c0,0.29-0.126,0.565-0.345,0.756
							c-0.219,0.189-0.51,0.277-0.797,0.234C52.807,80.38,52.741,80.373,52.674,80.373z"/>
					</g>
				</g>
				<g>
					<g>
						<path class="st5" d="M72.869,81.652c-0.237,0-0.477-0.04-0.714-0.132c-1.653-0.639-1.653-3.192-1.653-4.031
							c0-1.431-1.164-2.594-2.596-2.594h-7.812c-1.432,0-2.596,1.163-2.596,2.594c0,0.839,0,3.393-1.653,4.031
							c-1.587,0.614-3.255-1.1-3.573-1.448c-0.371-0.408-0.341-1.041,0.067-1.413c0.408-0.37,1.04-0.342,1.411,0.066
							c0.49,0.534,1.175,0.965,1.385,0.927c-0.009-0.004,0.363-0.36,0.363-2.163c0-2.533,2.062-4.594,4.596-4.594h7.812
							c2.534,0,4.596,2.061,4.596,4.594c0,1.834,0.385,2.171,0.389,2.174c0.242,0.031,0.92-0.454,1.357-0.937
							c0.374-0.408,1.006-0.438,1.413-0.067c0.408,0.372,0.438,1.005,0.067,1.413C75.458,80.369,74.212,81.652,72.869,81.652z"/>
					</g>
				</g>
			</g>
			<g>
				<g>
					<g>
						<path class="st5" d="M94.118,100.81L94.118,100.81c-0.371,0-0.711-0.205-0.885-0.533l-4.365-8.274
							c-0.075-0.144-0.115-0.304-0.115-0.467v-3.728c0-0.34,0.173-0.657,0.459-0.841c0.288-0.184,0.649-0.208,0.956-0.069
							c2.516,1.148,5.384,1.148,7.901,0c0.311-0.141,0.669-0.115,0.956,0.069c0.286,0.184,0.459,0.501,0.459,0.841v3.728
							c0,0.163-0.04,0.323-0.115,0.467l-4.366,8.274C94.829,100.604,94.489,100.81,94.118,100.81z M90.753,91.287l3.365,6.38
							l3.366-6.38v-2.03c-2.184,0.672-4.55,0.672-6.731,0V91.287z"/>
					</g>
				</g>
				<g>
					<g>
						<path class="st5" d="M112.76,111.312H82.354c-0.502,0-0.926-0.372-0.991-0.87c-0.485-3.693-3.284-6.271-5.547-7.785
							c-0.392-0.262-0.548-0.762-0.374-1.2c2.349-5.916,9.3-8.593,9.595-8.703l4.274-2.115c0.484-0.242,1.075-0.049,1.327,0.43
							l3.48,6.603l3.481-6.603c0.253-0.478,0.843-0.67,1.327-0.43l4.32,2.133c0.869,0.336,10.318,4.177,10.318,12.618
							c0,1.207,0.073,2.595,0.15,4.063l0.043,0.808c0.014,0.274-0.085,0.542-0.274,0.74
							C113.296,111.2,113.034,111.312,112.76,111.312z M83.194,109.312h28.512c-0.074-1.405-0.141-2.732-0.141-3.923
							c0-7.288-8.979-10.729-9.069-10.764c-0.031-0.012-0.062-0.025-0.092-0.04l-3.489-1.723l-3.91,7.414
							c-0.078,0.147-0.191,0.272-0.33,0.365c-0.235,0.156-0.527,0.207-0.803,0.138c-0.274-0.069-0.508-0.251-0.64-0.501l-3.91-7.416
							l-3.489,1.724c-0.033,0.017-0.066,0.03-0.101,0.043c-0.189,0.072-5.838,2.283-8.112,6.85
							C79.896,103.142,82.414,105.72,83.194,109.312z"/>
					</g>
				</g>
				<g>
					<g>
						<path class="st5" d="M94.117,89.761c-5.028,0-9.451-3.26-10.973-8.004c-2.115-0.521-3.407-2.181-3.407-4.438v-2.071
							c0-1.867,1.262-2.746,2.393-2.99v-4.279c0-5.046,4.106-9.15,9.154-9.15h5.666c2.282,0,3.558,1.187,4.175,2.028
							c0.749-0.154,1.722-0.134,2.613,0.416c1.571,0.969,2.367,3.226,2.367,6.707v4.278c1.131,0.244,2.393,1.123,2.393,2.99v2.071
							c0,2.256-1.291,3.915-3.407,4.437C103.569,86.501,99.146,89.761,94.117,89.761z M82.791,74.186
							c-0.475,0.012-1.054,0.206-1.054,1.062v2.071c0,0.831,0.288,2.269,2.22,2.562c0.41,0.047,0.839,0.351,0.942,0.75
							c1.093,4.198,4.883,7.13,9.218,7.13s8.126-2.932,9.219-7.13c0.104-0.399,0.442-0.693,0.853-0.741
							c2.021-0.302,2.31-1.739,2.31-2.57v-2.071c0-0.959-0.737-1.062-1.054-1.062c-0.065,0-0.128,0.006-0.19,0.016
							c-0.283,0.039-0.58-0.041-0.801-0.231c-0.221-0.189-0.348-0.467-0.348-0.758v-5.232c0-3.594-0.888-4.679-1.417-5.006
							c-0.697-0.43-1.554-0.033-1.563-0.031c-0.25,0.126-0.541,0.141-0.801,0.042c-0.262-0.099-0.47-0.302-0.574-0.561
							c-0.024-0.055-0.715-1.596-2.8-1.596h-5.666c-3.945,0-7.154,3.208-7.154,7.15v5.233c0,0.291-0.127,0.568-0.348,0.758
							c-0.221,0.19-0.518,0.27-0.801,0.231C82.919,74.191,82.856,74.186,82.791,74.186z"/>
					</g>
				</g>
				<g>
					<g>
						<path class="st5" d="M102.986,75.465c-0.237,0-0.477-0.04-0.714-0.132c-1.653-0.639-1.653-3.192-1.653-4.031
							c0-1.431-1.164-2.595-2.596-2.595h-7.812c-1.432,0-2.596,1.164-2.596,2.595c0,0.839,0,3.393-1.653,4.031
							c-1.585,0.612-3.255-1.1-3.573-1.448c-0.371-0.408-0.341-1.041,0.067-1.413c0.406-0.37,1.037-0.343,1.411,0.065l0,0
							c0.49,0.534,1.178,0.958,1.385,0.928c-0.009-0.004,0.363-0.36,0.363-2.163c0-2.533,2.062-4.595,4.596-4.595h7.812
							c2.534,0,4.596,2.062,4.596,4.595c0,1.834,0.385,2.171,0.389,2.174c0.243,0.003,0.92-0.454,1.357-0.937
							c0.374-0.409,1.006-0.438,1.413-0.067c0.408,0.372,0.438,1.005,0.067,1.413C105.575,74.182,104.329,75.465,102.986,75.465z"/>
					</g>
				</g>
			</g>
			<g>
				<g>
					<g>
						<path class="st5" d="M33.884,100.81c-0.371,0-0.711-0.205-0.885-0.533l-4.366-8.274c-0.075-0.144-0.115-0.304-0.115-0.467
							v-3.728c0-0.34,0.173-0.657,0.459-0.841c0.288-0.184,0.649-0.208,0.956-0.069c2.516,1.148,5.386,1.149,7.901,0
							c0.307-0.14,0.668-0.115,0.956,0.069c0.286,0.184,0.459,0.501,0.459,0.841v3.728c0,0.163-0.04,0.323-0.115,0.467l-4.365,8.274
							C34.595,100.604,34.255,100.81,33.884,100.81z M30.518,91.287l3.366,6.38l3.365-6.38v-2.03c-2.183,0.672-4.551,0.672-6.731,0
							V91.287z"/>
					</g>
				</g>
				<g>
					<g>
						<path class="st5" d="M45.646,111.312H15.24c-0.274,0-0.536-0.112-0.725-0.312c-0.189-0.198-0.288-0.466-0.274-0.74
							l0.043-0.808c0.077-1.469,0.15-2.856,0.15-4.063c0-8.441,9.449-12.282,10.318-12.618l4.322-2.133
							c0.485-0.242,1.074-0.049,1.327,0.43l3.48,6.602l3.481-6.602c0.252-0.479,0.842-0.67,1.327-0.43l4.362,2.154
							c0.205,0.071,7.156,2.748,9.505,8.664c0.174,0.438,0.018,0.938-0.374,1.2c-2.263,1.514-5.062,4.092-5.547,7.785
							C46.572,110.94,46.148,111.312,45.646,111.312z M16.294,109.312h28.512c0.78-3.593,3.298-6.171,5.573-7.833
							c-2.295-4.601-8.061-6.831-8.121-6.854l-3.578-1.763l-3.912,7.417c-0.254,0.48-0.846,0.67-1.332,0.428
							c-0.187-0.094-0.342-0.244-0.439-0.429l-3.909-7.415l-3.489,1.724c-0.034,0.017-0.067,0.031-0.102,0.043
							c-0.235,0.09-9.062,3.53-9.062,10.76C16.435,106.58,16.368,107.907,16.294,109.312z"/>
					</g>
				</g>
				<g>
					<g>
						<path class="st5" d="M33.883,89.761c-5.029,0-9.452-3.26-10.974-8.004c-2.114-0.521-3.407-2.181-3.407-4.438v-2.071
							c0-1.867,1.262-2.746,2.393-2.989v-4.28c0-5.046,4.106-9.15,9.154-9.15h5.666c2.283,0,3.558,1.187,4.175,2.028
							c0.75-0.154,1.722-0.134,2.613,0.416c1.571,0.969,2.367,3.226,2.367,6.707v4.278c1.131,0.244,2.394,1.122,2.394,2.99v2.071
							c0,2.256-1.292,3.916-3.408,4.437C43.334,86.501,38.911,89.761,33.883,89.761z M22.557,74.186
							c-0.475,0.012-1.055,0.206-1.055,1.062v2.071c0,0.831,0.288,2.269,2.221,2.562c0.41,0.047,0.838,0.351,0.941,0.75
							c1.093,4.198,4.884,7.13,9.219,7.13s8.125-2.932,9.218-7.13c0.104-0.399,0.442-0.693,0.853-0.741
							c2.022-0.302,2.311-1.739,2.311-2.57v-2.071c0-0.854-0.576-1.049-1.062-1.062c-0.062,0-0.123,0.006-0.184,0.016
							c-0.283,0.039-0.579-0.041-0.801-0.231c-0.221-0.189-0.348-0.467-0.348-0.758v-5.232c0-3.594-0.888-4.679-1.417-5.006
							c-0.697-0.43-1.554-0.033-1.563-0.031c-0.249,0.126-0.541,0.141-0.801,0.042c-0.262-0.099-0.47-0.302-0.574-0.561
							c-0.024-0.055-0.715-1.596-2.8-1.596h-5.666c-3.945,0-7.154,3.208-7.154,7.15v5.233c0,0.291-0.127,0.568-0.348,0.758
							c-0.221,0.19-0.518,0.27-0.801,0.231C22.684,74.191,22.621,74.186,22.557,74.186z"/>
					</g>
				</g>
				<g>
					<g>
						<path class="st5" d="M42.751,75.465c-0.237,0-0.477-0.04-0.714-0.132c-1.653-0.639-1.653-3.192-1.653-4.031
							c0-1.431-1.164-2.595-2.596-2.595h-7.812c-1.432,0-2.596,1.164-2.596,2.595c0,0.839,0,3.393-1.653,4.031
							c-1.587,0.612-3.255-1.1-3.573-1.448c-0.371-0.408-0.341-1.041,0.067-1.413c0.406-0.37,1.038-0.343,1.411,0.065l0,0
							c0.49,0.534,1.172,0.958,1.385,0.928c-0.009-0.004,0.363-0.36,0.363-2.163c0-2.533,2.062-4.595,4.596-4.595h7.812
							c2.534,0,4.596,2.062,4.596,4.595c0,1.834,0.385,2.171,0.389,2.174c0.242,0.003,0.92-0.454,1.357-0.937
							c0.374-0.409,1.006-0.438,1.413-0.067c0.408,0.372,0.438,1.005,0.067,1.413C45.34,74.182,44.094,75.465,42.751,75.465z"/>
					</g>
				</g>
			</g>
		</g>
		<g>
			<g>
				<path class="st5" d="M63.999,62.827c-0.122,0-0.244-0.022-0.362-0.067c-0.384-0.149-0.638-0.52-0.638-0.933v-9.47
					c0-1.55-1.447-1.875-2.661-1.875H16.375c-2.569,0-4.66-2.091-4.66-4.66V19.514c0-2.651,2.134-4.892,4.66-4.892h67.082
					c0.553,0,1,0.447,1,1s-0.447,1-1,1H16.375c-1.417,0-2.66,1.352-2.66,2.892v26.309c0,1.467,1.193,2.66,2.66,2.66h43.963
					c2.875,0,4.661,1.484,4.661,3.875v6.894l8.455-9.252c0.88-0.964,2.134-1.517,3.44-1.517h34.73c1.467,0,2.66-1.193,2.66-2.66
					V19.514c0-1.54-1.243-2.892-2.66-2.892H94.371c-0.553,0-1-0.447-1-1s0.447-1,1-1h17.254c2.526,0,4.66,2.24,4.66,4.892v26.309
					c0,2.569-2.091,4.66-4.66,4.66h-34.73c-0.746,0-1.462,0.315-1.964,0.865L64.737,62.502
					C64.544,62.713,64.274,62.827,63.999,62.827z"/>
			</g>
			<g>
				<g>
					<path class="st5" d="M79.101,20.853c-0.261,0-0.521-0.102-0.718-0.304c-0.385-0.396-0.375-1.029,0.021-1.414l3.607-3.503
						l-3.599-3.405c-0.401-0.38-0.419-1.013-0.039-1.414c0.382-0.402,1.014-0.418,1.414-0.039l4.356,4.122
						c0.198,0.188,0.311,0.447,0.312,0.72s-0.107,0.534-0.304,0.725l-4.356,4.23C79.603,20.759,79.352,20.853,79.101,20.853z"/>
				</g>
			</g>
		</g>
		<g>
			<g>
				<g>
					<g>
						<path class="st5" d="M64,43.838c-6.161,0-11.174-5.011-11.174-11.17S57.839,21.498,64,21.498s11.174,5.011,11.174,11.17
							S70.161,43.838,64,43.838z M64,23.498c-5.059,0-9.174,4.113-9.174,9.17s4.115,9.17,9.174,9.17s9.174-4.113,9.174-9.17
							S69.059,23.498,64,23.498z"/>
					</g>
				</g>
				<g>
					<g>
						<path class="st5" d="M64,40.859c-0.553,0-1-0.447-1-1v-1.564c0-0.553,0.447-1,1-1s1,0.447,1,1v1.564
							C65,40.412,64.553,40.859,64,40.859z"/>
					</g>
				</g>
				<g>
					<g>
						<path class="st5" d="M64.67,39.295h-1.346c-1.854,0-3.361-1.51-3.361-3.365c0-0.553,0.447-1,1-1s1,0.447,1,1
							c0,0.753,0.61,1.365,1.361,1.365h1.346c0.754,0,1.367-0.612,1.367-1.365v-0.825c0-0.75-0.613-1.359-1.367-1.359h-1.346
							c-1.854,0-3.361-1.508-3.361-3.36v-0.83c0-1.853,1.508-3.359,3.361-3.359h1.346c1.856,0,3.367,1.507,3.367,3.359
							c0,0.553-0.447,1-1,1s-1-0.447-1-1c0-0.75-0.613-1.359-1.367-1.359h-1.346c-0.751,0-1.361,0.609-1.361,1.359v0.83
							c0,0.75,0.61,1.36,1.361,1.36h1.346c1.856,0,3.367,1.507,3.367,3.359v0.825C68.037,37.785,66.526,39.295,64.67,39.295z"/>
					</g>
				</g>
				<g>
					<g>
						<path class="st5" d="M64,28.195c-0.553,0-1-0.447-1-1v-1.718c0-0.553,0.447-1,1-1s1,0.447,1,1v1.718
							C65,27.748,64.553,28.195,64,28.195z"/>
					</g>
				</g>
			</g>
			<g>
				<g>
					<g>
						<path class="st5" d="M33.629,44.577c-6.569,0-11.914-5.343-11.914-11.909s5.345-11.909,11.914-11.909
							s11.914,5.343,11.914,11.909S40.198,44.577,33.629,44.577z M33.629,22.759c-5.467,0-9.914,4.445-9.914,9.909
							s4.447,9.909,9.914,9.909s9.914-4.445,9.914-9.909S39.096,22.759,33.629,22.759z"/>
					</g>
				</g>
				<g>
					<g>
						<path class="st5" d="M37.219,39.189c-0.159,0-0.319-0.038-0.465-0.115l-3.125-1.642l-3.125,1.642
							c-0.334,0.178-0.744,0.149-1.053-0.076c-0.308-0.224-0.462-0.603-0.397-0.978l0.597-3.477l-2.528-2.462
							c-0.272-0.267-0.37-0.664-0.253-1.025c0.117-0.362,0.431-0.626,0.808-0.681l3.493-0.508l1.562-3.164
							c0.336-0.684,1.457-0.684,1.793,0l1.562,3.164l3.492,0.508c0.377,0.055,0.689,0.318,0.808,0.681
							c0.117,0.361,0.02,0.759-0.253,1.024l-2.527,2.463l0.597,3.477c0.064,0.375-0.09,0.754-0.397,0.978
							C37.633,39.125,37.426,39.189,37.219,39.189z M33.629,35.303c0.16,0,0.319,0.038,0.465,0.115l1.797,0.943l-0.343-1.998
							c-0.056-0.324,0.052-0.655,0.287-0.885l1.452-1.415l-2.007-0.292c-0.326-0.047-0.607-0.252-0.753-0.547l-0.898-1.819
							l-0.898,1.819c-0.146,0.295-0.427,0.5-0.753,0.547l-2.008,0.292l1.453,1.414c0.235,0.23,0.343,0.562,0.287,0.886l-0.343,1.998
							l1.797-0.943C33.31,35.341,33.469,35.303,33.629,35.303z"/>
					</g>
				</g>
			</g>
			<g>
				<g>
					<g>
						<path class="st5" d="M94.371,44.577c-6.569,0-11.914-5.343-11.914-11.909s5.345-11.909,11.914-11.909
							s11.914,5.343,11.914,11.909S100.94,44.577,94.371,44.577z M94.371,22.759c-5.467,0-9.914,4.445-9.914,9.909
							s4.447,9.909,9.914,9.909s9.914-4.445,9.914-9.909S99.838,22.759,94.371,22.759z"/>
					</g>
				</g>
				<g>
					<g>
						<g>
							<path class="st5" d="M94.371,33.159c-0.134,0-0.267-0.026-0.393-0.08l-6.917-2.948c-0.368-0.157-0.607-0.52-0.607-0.92
								s0.239-0.763,0.607-0.92l6.917-2.948c0.252-0.107,0.534-0.107,0.784,0l6.918,2.948c0.369,0.157,0.608,0.52,0.608,0.92
								s-0.239,0.763-0.608,0.92l-6.918,2.948C94.638,33.133,94.505,33.159,94.371,33.159z M90.005,29.211l4.366,1.861l4.367-1.861
								l-4.367-1.861L90.005,29.211z"/>
						</g>
					</g>
					<g>
						<g>
							<path class="st5" d="M94.371,40.074c-0.193,0-0.385-0.056-0.552-0.166c-0.279-0.185-0.448-0.498-0.448-0.834v-6.915
								c0-0.4,0.239-0.763,0.608-0.92l6.918-2.948c0.307-0.132,0.662-0.101,0.943,0.086c0.279,0.185,0.448,0.498,0.448,0.834v6.914
								c0,0.4-0.239,0.763-0.607,0.92l-6.918,2.949C94.638,40.048,94.504,40.074,94.371,40.074z M95.371,32.82v4.74l4.918-2.097
								v-4.739L95.371,32.82z M101.289,36.125h0.01H101.289z"/>
						</g>
					</g>
					<g>
						<g>
							<path class="st5" d="M94.371,40.074c-0.133,0-0.267-0.026-0.393-0.08l-6.917-2.949c-0.368-0.157-0.607-0.52-0.607-0.92
								v-6.914c0-0.336,0.169-0.649,0.448-0.834c0.279-0.187,0.635-0.218,0.944-0.086l6.917,2.948
								c0.368,0.157,0.607,0.52,0.607,0.92v6.915c0,0.336-0.169,0.649-0.449,0.834C94.756,40.019,94.564,40.074,94.371,40.074z
								 M88.454,35.464l4.917,2.097v-4.74l-4.917-2.096V35.464z"/>
						</g>
					</g>
				</g>
			</g>
			<g>
				<path class="st5" d="M53.826,33.668h-9.283c-0.553,0-1-0.447-1-1s0.447-1,1-1h9.283c0.553,0,1,0.447,1,1
					S54.379,33.668,53.826,33.668z"/>
			</g>
			<g>
				<path class="st5" d="M83.457,33.668h-9.283c-0.553,0-1-0.447-1-1s0.447-1,1-1h9.283c0.553,0,1,0.447,1,1
					S84.01,33.668,83.457,33.668z"/>
			</g>
			<g>
				<path class="st5" d="M115.285,33.668h-10c-0.553,0-1-0.447-1-1s0.447-1,1-1h10c0.553,0,1,0.447,1,1
					S115.838,33.668,115.285,33.668z"/>
			</g>
		</g>
	</g>
</g>
</svg>
