<?xml version="1.0" encoding="utf-8"?>
<!-- Generator: Adobe Illustrator 22.0.0, SVG Export Plug-In . SVG Version: 6.00 Build 0)  -->
<svg version="1.1" id="MARKET_RESEARCH_ICON_SET" xmlns="http://www.w3.org/2000/svg" xmlns:xlink="http://www.w3.org/1999/xlink"
	 x="0px" y="0px" viewBox="0 0 128 128" style="enable-background:new 0 0 128 128;" xml:space="preserve">
<style type="text/css">
	.st0{fill:#C2D5EC;}
	.st1{fill:#61E1FF;}
	.st2{fill:#7184AF;}
	.st3{fill:#F8F8F8;}
	.st4{fill:#3F4D81;}
	.st5{fill:#3F4D80;}
	.st6{fill:#E9EAEB;}
	.st7{fill:#F79559;}
	.st8{fill:#FFA85A;}
</style>
<g>
	<g>
		<path class="st1" d="M123,93.714H5c-2.209,0-4-1.782-4-3.98V27.787c0-2.198,1.791-3.98,4-3.98h118c2.209,0,4,1.782,4,3.98v61.946
			C127,91.932,125.209,93.714,123,93.714z"/>
	</g>
	<g>
		<rect x="6" y="28.782" class="st0" width="116" height="59.956"/>
	</g>
	<g>
		<polygon class="st4" points="93.689,78.332 93.689,78.332 83.507,71.067 88.122,83.872 90.807,81.199 95.422,85.791 
			98.303,82.923 		"/>
	</g>
	<g>
		<path class="st5" d="M95.422,86.791c-0.255,0-0.511-0.097-0.705-0.291l-3.909-3.89l-1.98,1.971
			c-0.242,0.241-0.593,0.342-0.924,0.267c-0.334-0.075-0.606-0.315-0.722-0.637l-4.614-12.805c-0.148-0.412-0.013-0.872,0.337-1.136
			c0.348-0.264,0.828-0.271,1.185-0.017l10.182,7.264c0.044,0.032,0.086,0.067,0.124,0.105l4.614,4.592
			c0.188,0.188,0.295,0.443,0.295,0.709s-0.106,0.521-0.295,0.709L96.127,86.5C95.933,86.694,95.677,86.791,95.422,86.791z
			 M90.808,80.2c0.255,0,0.511,0.097,0.705,0.291l3.909,3.89l1.464-1.457l-3.844-3.825l-7.508-5.356l2.996,8.313l1.572-1.564
			C90.297,80.297,90.553,80.2,90.808,80.2z"/>
	</g>
	<g>
		<rect x="14.189" y="28.782" class="st4" width="48.622" height="59.956"/>
	</g>
	<g>
		<path class="st5" d="M62.811,89.739H14.189c-0.553,0-1-0.448-1-1V28.783c0-0.552,0.447-1,1-1h48.621c0.553,0,1,0.448,1,1v59.956
			C63.811,89.291,63.363,89.739,62.811,89.739z M15.189,87.739h46.621V29.783H15.189V87.739z"/>
	</g>
	<g>
		<path class="st4" d="M71.502,28.782v17.809c0,2.198,1.791,3.98,4,3.98h6.657c2.209,0,4,1.782,4,3.98V64l11.137-12.132
			c0.758-0.826,1.83-1.296,2.953-1.296h16.22c2.209,0,4-1.782,4-3.98V28.782H71.502z"/>
	</g>
	<g>
		<path class="st5" d="M86.159,65c-0.122,0-0.245-0.022-0.363-0.068c-0.384-0.149-0.637-0.52-0.637-0.932v-9.448
			c0-1.644-1.346-2.98-3-2.98h-6.657c-2.757,0-5-2.234-5-4.98V28.783c0-0.552,0.447-1,1-1h48.966c0.553,0,1,0.448,1,1v17.809
			c0,2.746-2.243,4.98-5,4.98h-16.219c-0.842,0-1.65,0.354-2.218,0.972L86.896,64.676C86.703,64.887,86.434,65,86.159,65z
			 M72.502,29.783v16.809c0,1.644,1.346,2.98,3,2.98h6.657c2.757,0,5,2.234,5,4.98v6.879l9.399-10.24
			c0.944-1.029,2.29-1.62,3.69-1.62h16.219c1.654,0,3-1.337,3-2.98V29.783H72.502z"/>
	</g>
	<g>
		<rect x="54" y="93.714" class="st2" width="20" height="13.325"/>
	</g>
	<g>
		<path class="st1" d="M90.485,107.039h-52.97c-2.209,0-4,1.782-4,3.98v0c0,2.198,1.791,3.98,4,3.98h52.97c2.209,0,4-1.782,4-3.98v0
			C94.485,108.821,92.694,107.039,90.485,107.039z"/>
	</g>
	<g>
		<rect x="10.189" y="16.98" class="st6" width="49.622" height="71.758"/>
	</g>
	<g>
		<polygon class="st3" points="14.189,20.961 59.811,20.961 59.811,16.98 10.189,16.98 10.189,88.739 14.189,88.739 		"/>
	</g>
	<g>
		<path class="st3" d="M21.271,33.758h-2c-2.209,0-4-1.782-4-3.98v-1.99c0-2.198,1.791-3.98,4-3.98h2c2.209,0,4,1.782,4,3.98v1.99
			C25.271,31.976,23.48,33.758,21.271,33.758z"/>
	</g>
	<g>
		<path class="st8" d="M21.271,49.809h-2c-2.209,0-4-1.782-4-3.98v-1.99c0-2.198,1.791-3.98,4-3.98h2c2.209,0,4,1.782,4,3.98v1.99
			C25.271,48.027,23.48,49.809,21.271,49.809z"/>
	</g>
	<g>
		<path class="st3" d="M21.271,65.861h-2c-2.209,0-4-1.782-4-3.98v-1.99c0-2.198,1.791-3.98,4-3.98h2c2.209,0,4,1.782,4,3.98v1.99
			C25.271,64.079,23.48,65.861,21.271,65.861z"/>
	</g>
	<g>
		<path class="st8" d="M21.271,81.912h-2c-2.209,0-4-1.782-4-3.98v-1.99c0-2.198,1.791-3.98,4-3.98h2c2.209,0,4,1.782,4,3.98v1.99
			C25.271,80.13,23.48,81.912,21.271,81.912z"/>
	</g>
	<g>
		<path class="st8" d="M117.811,16.98v25.63c0,2.198-1.791,3.98-4,3.98h-16.22c-1.124,0-2.196,0.47-2.953,1.296L83.501,60.02v-9.448
			c0-2.198-1.791-3.98-4-3.98h-6.657c-2.209,0-4-1.782-4-3.98V16.98c0-2.198,1.791-3.98,4-3.98h40.967
			C116.02,13,117.811,14.782,117.811,16.98z"/>
	</g>
	<g>
		<path class="st3" d="M71.844,45.596V17.259c0-0.704,0.573-1.274,1.28-1.274h43.686c0.308,0,0.604,0.042,0.892,0.107
			c-0.407-1.77-1.991-3.093-3.892-3.093H72.844c-2.209,0-4,1.782-4,3.98v25.63c0,1.892,1.33,3.469,3.108,3.873
			C71.886,46.198,71.844,45.902,71.844,45.596z"/>
	</g>
	<g>
		<ellipse class="st5" cx="93.341" cy="38.475" rx="1.784" ry="1.775"/>
	</g>
	<g>
		<polygon class="st3" points="93.689,75.346 96.375,72.674 83.507,68.082 88.122,80.887 90.807,78.214 95.422,82.806 
			98.303,79.938 		"/>
	</g>
	<g>
		<path class="st5" d="M33.515,112.02H1c-0.553,0-1-0.448-1-1s0.447-1,1-1h32.515c0.553,0,1,0.448,1,1S34.067,112.02,33.515,112.02z
			"/>
	</g>
	<g>
		<path class="st5" d="M127,112.02H94.485c-0.553,0-1-0.448-1-1s0.447-1,1-1H127c0.553,0,1,0.448,1,1S127.553,112.02,127,112.02z"/>
	</g>
	<g>
		<path class="st5" d="M123,94.714H5c-2.757,0-5-2.234-5-4.98V27.788c0-2.746,2.243-4.98,5-4.98h5.189c0.553,0,1,0.448,1,1v63.932
			h47.621V23.807c0-0.552,0.447-1,1-1h9.033c0.553,0,1,0.448,1,1v18.804c0,1.644,1.346,2.98,3,2.98h6.657c2.757,0,5,2.234,5,4.98
			v6.879l9.4-10.24c0.944-1.029,2.289-1.62,3.689-1.62h16.22c1.654,0,3-1.337,3-2.98V23.807c0-0.552,0.447-1,1-1H123
			c2.757,0,5,2.234,5,4.98v61.946C128,92.48,125.757,94.714,123,94.714z M5,24.807c-1.654,0-3,1.337-3,2.98v61.946
			c0,1.644,1.346,2.98,3,2.98h118c1.654,0,3-1.337,3-2.98V27.788c0-1.644-1.346-2.98-3-2.98h-4.189v17.804
			c0,2.746-2.243,4.98-5,4.98h-16.22c-0.842,0-1.649,0.354-2.217,0.972L84.237,60.696c-0.278,0.304-0.716,0.405-1.1,0.255
			s-0.637-0.52-0.637-0.932v-9.448c0-1.644-1.346-2.98-3-2.98h-6.657c-2.757,0-5-2.234-5-4.98V24.807h-7.033v63.932
			c0,0.552-0.447,1-1,1H10.189c-0.553,0-1-0.448-1-1V24.807H5z"/>
	</g>
	<g>
		<path class="st5" d="M10.189,89.739H6c-0.553,0-1-0.448-1-1V28.783c0-0.552,0.447-1,1-1h4.189c0.553,0,1,0.448,1,1v59.956
			C11.189,89.291,10.742,89.739,10.189,89.739z M7,87.739h2.189V29.783H7V87.739z"/>
	</g>
	<g>
		<path class="st5" d="M122,89.739H59.811c-0.553,0-1-0.448-1-1V28.783c0-0.552,0.447-1,1-1h9.033c0.553,0,1,0.448,1,1v13.828
			c0,1.644,1.346,2.98,3,2.98h6.657c2.757,0,5,2.234,5,4.98v6.879l9.4-10.24c0.944-1.029,2.289-1.62,3.689-1.62h16.22
			c1.654,0,3-1.337,3-2.98V28.783c0-0.552,0.447-1,1-1H122c0.553,0,1,0.448,1,1v59.956C123,89.291,122.553,89.739,122,89.739z
			 M60.811,87.739H121V29.783h-2.189v12.828c0,2.746-2.243,4.98-5,4.98h-16.22c-0.842,0-1.649,0.354-2.217,0.972L84.237,60.696
			c-0.278,0.304-0.716,0.405-1.1,0.255s-0.637-0.52-0.637-0.932v-9.448c0-1.644-1.346-2.98-3-2.98h-6.657c-2.757,0-5-2.234-5-4.98
			V29.783h-7.033V87.739z"/>
	</g>
	<g>
		<path class="st5" d="M74,108.039H54c-0.553,0-1-0.448-1-1V93.714c0-0.552,0.447-1,1-1h20c0.553,0,1,0.448,1,1v13.325
			C75,107.591,74.553,108.039,74,108.039z M55,106.039h18V94.714H55V106.039z"/>
	</g>
	<g>
		<path class="st5" d="M90.485,116H37.515c-2.757,0-5-2.234-5-4.98s2.243-4.98,5-4.98h52.971c2.757,0,5,2.234,5,4.98
			S93.242,116,90.485,116z M37.515,108.039c-1.654,0-3,1.337-3,2.98s1.346,2.98,3,2.98h52.971c1.654,0,3-1.337,3-2.98
			s-1.346-2.98-3-2.98H37.515z"/>
	</g>
	<g>
		<path class="st5" d="M59.811,89.739H10.189c-0.553,0-1-0.448-1-1V16.98c0-0.552,0.447-1,1-1h49.621c0.553,0,1,0.448,1,1v71.758
			C60.811,89.291,60.363,89.739,59.811,89.739z M11.189,87.739h47.621V17.98H11.189V87.739z"/>
	</g>
	<g>
		<path class="st5" d="M21.271,34.758h-2c-2.757,0-5-2.234-5-4.98v-1.99c0-2.746,2.243-4.98,5-4.98h2c2.757,0,5,2.234,5,4.98v1.99
			C26.271,32.524,24.027,34.758,21.271,34.758z M19.271,24.807c-1.654,0-3,1.337-3,2.98v1.99c0,1.644,1.346,2.98,3,2.98h2
			c1.654,0,3-1.337,3-2.98v-1.99c0-1.644-1.346-2.98-3-2.98H19.271z"/>
	</g>
	<g>
		<path class="st5" d="M21.271,50.81h-2c-2.757,0-5-2.234-5-4.98v-1.99c0-2.746,2.243-4.98,5-4.98h2c2.757,0,5,2.234,5,4.98v1.99
			C26.271,48.575,24.027,50.81,21.271,50.81z M19.271,40.858c-1.654,0-3,1.337-3,2.98v1.99c0,1.644,1.346,2.98,3,2.98h2
			c1.654,0,3-1.337,3-2.98v-1.99c0-1.644-1.346-2.98-3-2.98H19.271z"/>
	</g>
	<g>
		<path class="st5" d="M21.271,66.861h-2c-2.757,0-5-2.234-5-4.98v-1.99c0-2.746,2.243-4.98,5-4.98h2c2.757,0,5,2.234,5,4.98v1.99
			C26.271,64.626,24.027,66.861,21.271,66.861z M19.271,56.91c-1.654,0-3,1.337-3,2.98v1.99c0,1.644,1.346,2.98,3,2.98h2
			c1.654,0,3-1.337,3-2.98v-1.99c0-1.644-1.346-2.98-3-2.98H19.271z"/>
	</g>
	<g>
		<path class="st5" d="M21.271,82.912h-2c-2.757,0-5-2.234-5-4.98v-1.99c0-2.746,2.243-4.98,5-4.98h2c2.757,0,5,2.234,5,4.98v1.99
			C26.271,80.678,24.027,82.912,21.271,82.912z M19.271,72.961c-1.654,0-3,1.337-3,2.98v1.99c0,1.644,1.346,2.98,3,2.98h2
			c1.654,0,3-1.337,3-2.98v-1.99c0-1.644-1.346-2.98-3-2.98H19.271z"/>
	</g>
	<g>
		<path class="st5" d="M20.271,46.829c-0.233,0-0.466-0.081-0.654-0.244l-2.364-2.044c-0.418-0.361-0.463-0.993-0.103-1.411
			c0.362-0.418,0.993-0.463,1.411-0.102l1.71,1.479l7.303-6.314c0.418-0.361,1.048-0.316,1.411,0.103
			c0.361,0.417,0.315,1.049-0.103,1.41l-7.957,6.879C20.736,46.748,20.504,46.829,20.271,46.829z"/>
	</g>
	<g>
		<path class="st5" d="M20.271,78.932c-0.233,0-0.466-0.081-0.654-0.244l-2.364-2.044c-0.418-0.361-0.464-0.993-0.103-1.41
			c0.362-0.419,0.993-0.463,1.411-0.103l1.71,1.479l7.303-6.313c0.418-0.361,1.048-0.316,1.411,0.103
			c0.361,0.417,0.315,1.049-0.103,1.41l-7.957,6.879C20.736,78.851,20.504,78.932,20.271,78.932z"/>
	</g>
	<g>
		<path class="st5" d="M54.729,29.783H30.096c-0.553,0-1-0.448-1-1s0.447-1,1-1h24.634c0.553,0,1,0.448,1,1
			S55.282,29.783,54.729,29.783z"/>
	</g>
	<g>
		<path class="st5" d="M54.729,45.834H30.096c-0.553,0-1-0.448-1-1s0.447-1,1-1h24.634c0.553,0,1,0.448,1,1
			S55.282,45.834,54.729,45.834z"/>
	</g>
	<g>
		<path class="st5" d="M54.729,61.885H30.096c-0.553,0-1-0.448-1-1s0.447-1,1-1h24.634c0.553,0,1,0.448,1,1
			S55.282,61.885,54.729,61.885z"/>
	</g>
	<g>
		<path class="st5" d="M54.729,77.937H30.096c-0.553,0-1-0.448-1-1s0.447-1,1-1h24.634c0.553,0,1,0.448,1,1
			S55.282,77.937,54.729,77.937z"/>
	</g>
	<g>
		<path class="st5" d="M83.501,61.02c-0.122,0-0.245-0.022-0.363-0.068c-0.384-0.149-0.637-0.52-0.637-0.932v-9.448
			c0-1.644-1.346-2.98-3-2.98h-6.657c-2.757,0-5-2.234-5-4.98V16.98c0-2.746,2.243-4.98,5-4.98h40.967c2.757,0,5,2.234,5,4.98v25.63
			c0,2.746-2.243,4.98-5,4.98h-16.22c-0.842,0-1.649,0.354-2.217,0.972L84.237,60.696C84.045,60.906,83.775,61.02,83.501,61.02z
			 M72.844,14c-1.654,0-3,1.337-3,2.98v25.63c0,1.644,1.346,2.98,3,2.98h6.657c2.757,0,5,2.234,5,4.98v6.879l9.4-10.24
			c0.944-1.029,2.289-1.62,3.689-1.62h16.22c1.654,0,3-1.337,3-2.98V16.98c0-1.644-1.346-2.98-3-2.98H72.844z"/>
	</g>
	<g>
		<path class="st5" d="M93.341,35.043c-0.553,0-1-0.448-1-1c0-3.969,2.022-5.46,3.647-6.659c1.392-1.026,2.118-1.633,2.118-3.161
			c0-1.135-0.444-2.202-1.252-3.005c-1.67-1.661-4.385-1.662-6.055,0c-0.807,0.803-1.251,1.87-1.251,3.005s0.444,2.203,1.251,3.005
			c0.392,0.39,0.394,1.023,0.004,1.415c-0.389,0.392-1.021,0.393-1.414,0.003c-1.188-1.181-1.841-2.752-1.841-4.423
			s0.653-3.242,1.841-4.423c2.447-2.435,6.43-2.436,8.875,0c1.188,1.181,1.842,2.752,1.842,4.423c0,2.609-1.558,3.757-2.932,4.771
			c-1.521,1.121-2.834,2.09-2.834,5.049C94.341,34.596,93.894,35.043,93.341,35.043z"/>
	</g>
	<g>
		<path class="st5" d="M95.422,83.806c-0.255,0-0.511-0.097-0.705-0.291l-3.909-3.89l-1.98,1.971
			c-0.242,0.241-0.593,0.344-0.924,0.267c-0.334-0.075-0.606-0.315-0.722-0.637l-4.614-12.805c-0.132-0.364-0.041-0.771,0.232-1.045
			c0.272-0.274,0.68-0.366,1.044-0.236l12.867,4.592c0.323,0.115,0.565,0.389,0.64,0.724c0.075,0.335-0.027,0.685-0.271,0.927
			l-1.973,1.963l3.901,3.883c0.188,0.188,0.295,0.443,0.295,0.709s-0.106,0.521-0.295,0.709l-2.882,2.868
			C95.933,83.708,95.677,83.806,95.422,83.806z M90.808,77.214c0.255,0,0.511,0.097,0.705,0.291l3.909,3.89l1.464-1.457
			l-3.901-3.883c-0.188-0.188-0.295-0.443-0.295-0.709s0.106-0.521,0.295-0.709l1.562-1.554l-9.379-3.347l3.363,9.334l1.572-1.564
			C90.297,77.312,90.553,77.214,90.808,77.214z"/>
	</g>
	<g>
		<path class="st5" d="M80.125,74.497H65.844c-0.553,0-1-0.448-1-1s0.447-1,1-1h14.281c0.553,0,1,0.448,1,1
			S80.678,74.497,80.125,74.497z"/>
	</g>
	<g>
		<path class="st5" d="M117.811,74.599h-16.436c-0.553,0-1-0.448-1-1s0.447-1,1-1h16.436c0.553,0,1,0.448,1,1
			S118.363,74.599,117.811,74.599z"/>
	</g>
</g>
</svg>
