<?xml version="1.0" encoding="utf-8"?>
<!-- Generator: Adobe Illustrator 22.0.0, SVG Export Plug-In . SVG Version: 6.00 Build 0)  -->
<svg version="1.1" id="MARKET_RESEARCH_ICON_SET" xmlns="http://www.w3.org/2000/svg" xmlns:xlink="http://www.w3.org/1999/xlink"
	 x="0px" y="0px" viewBox="0 0 128 128" style="enable-background:new 0 0 128 128;" xml:space="preserve">
<style type="text/css">
	.st0{fill:#C2D5EC;}
	.st1{fill:#61E1FF;}
	.st2{fill:#7184AF;}
	.st3{fill:#F8F8F8;}
	.st4{fill:#3F4D81;}
	.st5{fill:#3F4D80;}
	.st6{fill:#E9EAEB;}
	.st7{fill:#F79559;}
	.st8{fill:#FFA85A;}
</style>
<g>
	<g>
		<g>
			<path class="st0" d="M128,64.249v33.134H90.04c3.5-5.063,5.55-11.2,5.55-17.805c0-17.358-14.14-31.423-31.59-31.423
				S32.41,62.219,32.41,79.577c0,6.605,2.05,12.742,5.55,17.805H0V45.19c0-16.283,28.65-27.802,42.21-6.127
				c17.2,27.494,15.82-17.119,35.81-2.198c13.42,10.017,11.85-17.636,29.22-17.636S110.97,64.249,128,64.249z"/>
		</g>
		<g>
			<g>
				<path class="st8" d="M16.212,59.652h-5.841C7.957,59.652,6,61.599,6,64v33.378h14.584V64
					C20.584,61.599,18.627,59.652,16.212,59.652z"/>
			</g>
			<g>
				<path class="st8" d="M36.497,43.804h-5.964c-2.38,0-4.31,1.919-4.31,4.287v49.286h14.584V48.091
					C40.807,45.724,38.877,43.804,36.497,43.804z"/>
			</g>
			<g>
				<path class="st8" d="M57.18,29.754h-6.584c-2.209,0-4,1.781-4,3.979v63.645H61.18V33.732
					C61.18,31.535,59.39,29.754,57.18,29.754z"/>
			</g>
			<g>
				<path class="st8" d="M77.404,17H70.82c-2.209,0-4,1.781-4,3.979v76.399h14.584V20.979C81.404,18.781,79.613,17,77.404,17z"/>
			</g>
			<g>
				<path class="st8" d="M97.212,23.349h-6.584c-2.209,0-4,1.781-4,3.979v70.05h14.584v-70.05
					C101.212,25.13,99.421,23.349,97.212,23.349z"/>
			</g>
			<g>
				<path class="st8" d="M117.435,52.965h-6.584c-2.209,0-4,1.781-4,3.979v40.434h14.584V56.944
					C121.435,54.746,119.644,52.965,117.435,52.965z"/>
			</g>
		</g>
		<g>
			<g>
				<path class="st5" d="M16.212,59.652h-4c2.414,0,4.371,1.947,4.371,4.348v33.378h4V64C20.584,61.598,18.627,59.652,16.212,59.652
					z"/>
			</g>
			<g>
				<path class="st5" d="M36.497,43.804h-4c2.38,0,4.31,1.919,4.31,4.287v49.286h4V48.091
					C40.807,45.724,38.877,43.804,36.497,43.804z"/>
			</g>
			<g>
				<path class="st5" d="M57.18,29.753h-4c2.209,0,4,1.781,4,3.979v63.645h4V33.732C61.18,31.535,59.39,29.753,57.18,29.753z"/>
			</g>
			<g>
				<path class="st5" d="M77.404,17h-4c2.209,0,4,1.781,4,3.979v76.399h4V20.979C81.404,18.781,79.613,17,77.404,17z"/>
			</g>
			<g>
				<path class="st5" d="M97.212,23.349h-4c2.209,0,4,1.781,4,3.979v70.05h4v-70.05C101.212,25.13,99.421,23.349,97.212,23.349z"/>
			</g>
			<g>
				<path class="st5" d="M117.435,52.965h-4c2.209,0,4,1.781,4,3.979v40.434h4V56.944C121.435,54.746,119.644,52.965,117.435,52.965
					z"/>
			</g>
		</g>
		<g>
			<ellipse class="st1" cx="64" cy="79.576" rx="31.591" ry="31.424"/>
		</g>
		<g>
			<path class="st3" d="M65.79,110.95C65.2,110.98,64.6,111,64,111c-17.45,0-31.59-14.065-31.59-31.423
				c0-17.358,14.14-31.423,31.59-31.423c0.6,0,1.2,0.02,1.79,0.05c-16.61,0.915-29.81,14.612-29.81,31.373
				C35.98,96.338,49.18,110.035,65.79,110.95z"/>
		</g>
		<g>
			<ellipse class="st3" cx="64" cy="79.576" rx="24.49" ry="24.361"/>
		</g>
	</g>
	<g>
		<g>
			<g>
				<path class="st5" d="M37.971,98.378H1c-0.553,0-1-0.447-1-1s0.447-1,1-1h36.971c0.553,0,1,0.447,1,1
					S38.523,98.378,37.971,98.378z"/>
			</g>
		</g>
		<g>
			<g>
				<path class="st5" d="M127,98.378H90.029c-0.553,0-1-0.447-1-1s0.447-1,1-1H127c0.553,0,1,0.447,1,1S127.553,98.378,127,98.378z"
					/>
			</g>
		</g>
		<g>
			<g>
				<path class="st5" d="M20.584,98.378H6c-0.553,0-1-0.447-1-1V64c0-2.949,2.409-5.349,5.371-5.349h5.841
					c2.962,0,5.372,2.399,5.372,5.349v33.378C21.584,97.931,21.137,98.378,20.584,98.378z M7,96.378h12.584V64
					c0-1.847-1.513-3.349-3.372-3.349h-5.841C8.513,60.651,7,62.153,7,64V96.378z"/>
			</g>
		</g>
		<g>
			<g>
				<path class="st5" d="M37.971,98.378H26.224c-0.553,0-1-0.447-1-1V48.092c0-2.915,2.382-5.287,5.31-5.287h5.964
					c2.928,0,5.31,2.372,5.31,5.287v10.156c0,0.253-0.096,0.496-0.268,0.681c-5.242,5.639-8.13,12.972-8.13,20.647
					c0,6.188,1.861,12.146,5.384,17.232c0.212,0.306,0.236,0.704,0.063,1.033C38.684,98.172,38.343,98.378,37.971,98.378z
					 M27.224,96.378h8.903c-3.092-5.062-4.718-10.832-4.718-16.802c0-8.052,2.979-15.748,8.397-21.718v-9.767
					c0-1.812-1.484-3.287-3.31-3.287h-5.964c-1.825,0-3.31,1.475-3.31,3.287V96.378z"/>
			</g>
		</g>
		<g>
			<g>
				<path class="st5" d="M46.597,54.354c-0.163,0-0.326-0.04-0.475-0.12c-0.323-0.174-0.525-0.512-0.525-0.88V33.732
					c0-2.745,2.243-4.979,5-4.979h6.584c2.757,0,5,2.233,5,4.979v14.552c0,0.519-0.396,0.951-0.912,0.996
					c-5.032,0.443-9.916,2.141-14.122,4.908C46.98,54.298,46.789,54.354,46.597,54.354z M50.597,30.754c-1.654,0-3,1.336-3,2.979
					v17.828c3.85-2.231,8.151-3.662,12.584-4.179V33.732c0-1.643-1.346-2.979-3-2.979H50.597z M61.181,48.284h0.01H61.181z"/>
			</g>
		</g>
		<g>
			<g>
				<path class="st5" d="M81.403,54.354c-0.192,0-0.384-0.056-0.55-0.165c-4.208-2.768-9.091-4.465-14.121-4.908
					c-0.517-0.045-0.912-0.478-0.912-0.996V20.979c0-2.745,2.243-4.979,5-4.979h6.583c2.757,0,5,2.233,5,4.979v32.375
					c0,0.368-0.202,0.706-0.525,0.88C81.729,54.313,81.566,54.354,81.403,54.354z M67.82,47.382
					c4.432,0.517,8.732,1.947,12.583,4.179V20.979c0-1.643-1.346-2.979-3-2.979H70.82c-1.654,0-3,1.336-3,2.979V47.382z"/>
			</g>
		</g>
		<g>
			<g>
				<path class="st5" d="M101.212,98.378H90.029c-0.372,0-0.713-0.206-0.886-0.536c-0.173-0.329-0.148-0.728,0.063-1.033
					c3.522-5.086,5.384-11.045,5.384-17.232c0-7.967-3.082-15.502-8.678-21.218c-0.183-0.187-0.285-0.438-0.285-0.699V27.327
					c0-2.745,2.243-4.979,5-4.979h6.584c2.757,0,5,2.233,5,4.979v70.051C102.212,97.931,101.765,98.378,101.212,98.378z
					 M91.873,96.378h8.339V27.327c0-1.643-1.346-2.979-3-2.979h-6.584c-1.654,0-3,1.336-3,2.979v29.928
					c5.783,6.054,8.963,13.964,8.963,22.321C96.591,85.546,94.965,91.316,91.873,96.378z"/>
			</g>
		</g>
		<g>
			<g>
				<path class="st5" d="M121.436,98.378h-14.584c-0.553,0-1-0.447-1-1V56.943c0-2.745,2.243-4.979,5-4.979h6.584
					c2.757,0,5,2.233,5,4.979v40.435C122.436,97.931,121.988,98.378,121.436,98.378z M107.852,96.378h12.584V56.943
					c0-1.643-1.346-2.979-3-2.979h-6.584c-1.654,0-3,1.336-3,2.979V96.378z"/>
			</g>
		</g>
		<g>
			<g>
				<path class="st5" d="M64,112c-17.971,0-32.591-14.545-32.591-32.424S46.029,47.152,64,47.152s32.591,14.545,32.591,32.424
					S81.971,112,64,112z M64,49.152c-16.868,0-30.591,13.648-30.591,30.424S47.132,110,64,110s30.591-13.648,30.591-30.424
					S80.868,49.152,64,49.152z"/>
			</g>
		</g>
		<g>
			<g>
				<path class="st5" d="M64,104.938c-14.056,0-25.49-11.377-25.49-25.361c0-13.983,11.435-25.36,25.49-25.36
					s25.49,11.377,25.49,25.36C89.49,93.561,78.056,104.938,64,104.938z M64,56.216c-12.952,0-23.49,10.479-23.49,23.36
					c0,12.882,10.538,23.361,23.49,23.361s23.49-10.479,23.49-23.361C87.49,66.695,76.952,56.216,64,56.216z"/>
			</g>
		</g>
		<g>
			<g>
				<g>
					<g>
						<path class="st5" d="M70.637,87.178c-0.255,0-0.51-0.097-0.705-0.291l-13.1-13.03c-0.392-0.39-0.394-1.022-0.004-1.414
							c0.39-0.391,1.022-0.394,1.414-0.004l13.1,13.03c0.392,0.39,0.394,1.022,0.004,1.414
							C71.15,87.079,70.894,87.178,70.637,87.178z"/>
					</g>
				</g>
				<g>
					<g>
						<path class="st5" d="M57.537,87.178c-0.257,0-0.514-0.099-0.709-0.295c-0.39-0.392-0.388-1.024,0.004-1.414l13.1-13.03
							c0.392-0.391,1.024-0.388,1.414,0.004s0.388,1.024-0.004,1.414l-13.1,13.03C58.047,87.081,57.792,87.178,57.537,87.178z"/>
					</g>
				</g>
			</g>
			<g>
				<g>
					<g>
						<path class="st5" d="M75.937,87.732c-0.177,0-0.355-0.047-0.518-0.146c-0.473-0.286-0.623-0.901-0.336-1.373
							c1.222-2.015,1.868-4.31,1.868-6.638s-0.646-4.623-1.868-6.637c-0.287-0.472-0.137-1.087,0.336-1.373s1.088-0.137,1.373,0.336
							c1.413,2.325,2.159,4.979,2.159,7.674s-0.746,5.348-2.159,7.675C76.604,87.562,76.274,87.732,75.937,87.732z"/>
					</g>
				</g>
				<g>
					<g>
						<path class="st5" d="M52.063,87.732c-0.338,0-0.668-0.171-0.855-0.481c-1.413-2.327-2.159-4.98-2.159-7.675
							s0.746-5.349,2.159-7.674c0.286-0.473,0.901-0.623,1.373-0.336c0.473,0.286,0.623,0.901,0.336,1.373
							c-1.222,2.014-1.868,4.309-1.868,6.637s0.646,4.623,1.868,6.638c0.287,0.472,0.137,1.087-0.336,1.373
							C52.419,87.686,52.24,87.732,52.063,87.732z"/>
					</g>
				</g>
			</g>
		</g>
		<g>
			<g>
				<g>
					<path class="st5" d="M6,52.623c-0.257,0-0.514-0.099-0.709-0.295c-0.39-0.392-0.388-1.024,0.004-1.414l34.807-34.623
						c0.392-0.391,1.024-0.388,1.414,0.004s0.388,1.024-0.004,1.414L6.705,52.332C6.51,52.526,6.255,52.623,6,52.623z"/>
				</g>
			</g>
			<g>
				<g>
					<g>
						<path class="st5" d="M40.807,24.129c-0.553,0-1-0.447-1-1V18h-5.161c-0.553,0-1-0.447-1-1s0.447-1,1-1h6.161
							c0.553,0,1,0.447,1,1v6.129C41.807,23.682,41.359,24.129,40.807,24.129z"/>
					</g>
				</g>
			</g>
		</g>
	</g>
</g>
</svg>
