<?xml version="1.0" encoding="utf-8"?>
<!-- Generator: Adobe Illustrator 22.0.0, SVG Export Plug-In . SVG Version: 6.00 Build 0)  -->
<svg version="1.1" id="MARKET_RESEARCH_ICON_SET" xmlns="http://www.w3.org/2000/svg" xmlns:xlink="http://www.w3.org/1999/xlink"
	 x="0px" y="0px" viewBox="0 0 128 128" style="enable-background:new 0 0 128 128;" xml:space="preserve">
<style type="text/css">
	.st0{fill:#C2D5EC;}
	.st1{fill:#61E1FF;}
	.st2{fill:#7184AF;}
	.st3{fill:#F8F8F8;}
	.st4{fill:#3F4D81;}
	.st5{fill:#3F4D80;}
	.st6{fill:#E9EAEB;}
	.st7{fill:#F79559;}
	.st8{fill:#FFA85A;}
</style>
<g>
	<path class="st0" d="M119.486,7.5H19.92c-2.209,0-4,1.798-4,4.017v94.793c0,2.218,1.791,4.017,4,4.017h77.448
		c2.136-2.317,3.941-4.946,5.315-7.826h7.562c2.895,0,5.242-2.357,5.242-5.264V35.324h8V11.517
		C123.486,9.298,121.695,7.5,119.486,7.5z"/>
	<g>
		<g>
			<path class="st2" d="M123.486,35.324h-8v61.912c0,2.907-2.347,5.264-5.242,5.264h-7.562c-1.414,2.964-3.277,5.668-5.495,8.033
				h21.057c2.895,0,5.242-2.357,5.242-5.264V35.324z"/>
		</g>
		<g>
			<g>
				<path class="st6" d="M40.231,102.5h70.013c2.895,0,5.242-2.357,5.242-5.264V12.764c0-2.907-2.347-5.264-5.242-5.264H48.418
					l-13.43,13.486v76.251C34.989,100.144,37.336,102.5,40.231,102.5z"/>
			</g>
			<g>
				<ellipse class="st2" cx="84.821" cy="37.245" rx="12.618" ry="12.671"/>
			</g>
			<g>
				<path class="st2" d="M115.486,24.733c-6.065,0.922-10.719,6.164-10.719,12.512s4.654,11.59,10.719,12.512V24.733z"/>
			</g>
			<g>
				<polygon class="st2" points="48.418,7.5 48.418,20.986 34.989,20.986 				"/>
			</g>
		</g>
		<g>
			<g>
				<path class="st1" d="M94.543,64.643V102.5c-2.491,3.728-5.975,6.728-10.069,8.628V58.909c-3.211-1.107-6.652-1.716-10.237-1.716
					c-17.409,0-31.522,14.172-31.522,31.654S56.828,120.5,74.237,120.5s31.522-14.172,31.522-31.653
					C105.759,79.135,101.4,70.449,94.543,64.643z"/>
			</g>
			<g>
				<path class="st3" d="M76.077,120.445c-0.61,0.03-1.22,0.05-1.84,0.05c-17.41,0-31.52-14.169-31.52-31.652
					c0-17.483,14.11-31.652,31.52-31.652c0.6,0,1.2,0.02,1.79,0.06c-16.52,0.984-29.63,14.751-29.63,31.591
					C46.397,105.704,59.527,119.481,76.077,120.445z"/>
			</g>
			<g>
				<g>
					<path class="st3" d="M90.061,107.539c-0.823,0.702-1.692,1.351-2.603,1.941C88.369,108.889,89.239,108.242,90.061,107.539z"/>
				</g>
				<g>
					<path class="st3" d="M87.388,109.524c-0.93,0.597-1.903,1.134-2.913,1.603C85.485,110.659,86.458,110.122,87.388,109.524z"/>
				</g>
				<g>
					<path class="st3" d="M84.474,66.565c-3.114-1.445-6.58-2.257-10.237-2.257c-13.496,0-24.437,10.987-24.437,24.539
						c0,13.552,10.941,24.539,24.437,24.539c3.656,0,7.122-0.812,10.237-2.257V66.565z"/>
				</g>
				<g>
					<path class="st3" d="M94.543,102.5c2.608-3.904,4.131-8.6,4.131-13.654c0-5.054-1.523-9.75-4.131-13.654V102.5z"/>
				</g>
				<g>
					<path class="st3" d="M91.289,106.416c-0.359,0.351-0.73,0.691-1.11,1.02C90.559,107.107,90.93,106.768,91.289,106.416z"/>
				</g>
				<g>
					<path class="st3" d="M92.571,105.062c0.305-0.348,0.6-0.705,0.886-1.07C93.171,104.357,92.876,104.714,92.571,105.062z"/>
				</g>
				<g>
					<path class="st3" d="M93.629,103.772c0.317-0.414,0.623-0.836,0.914-1.271C94.252,102.935,93.946,103.358,93.629,103.772z"/>
				</g>
				<g>
					<path class="st3" d="M91.364,106.345c0.378-0.373,0.743-0.758,1.097-1.154C92.107,105.587,91.741,105.972,91.364,106.345z"/>
				</g>
			</g>
			<g>
				<path class="st8" d="M94.543,102.5V54.835H84.474v56.294C88.568,109.228,92.052,106.229,94.543,102.5z"/>
			</g>
			<g>
				<path class="st8" d="M64.001,111.128V88.847H53.932V102.5C56.422,106.229,59.906,109.228,64.001,111.128z"/>
			</g>
			<g>
				<path class="st8" d="M74.237,113.386c1.726,0,3.41-0.182,5.035-0.524V77.069H69.203v35.792
					C70.828,113.203,72.511,113.386,74.237,113.386z"/>
			</g>
			<g>
				<path class="st5" d="M90.543,54.835v52.267c1.513-1.362,2.864-2.901,4-4.601V54.835H90.543z"/>
			</g>
			<g>
				<path class="st5" d="M60.001,88.846v19.928c1.252,0.903,2.587,1.698,4,2.354V88.846H60.001z"/>
			</g>
			<g>
				<path class="st5" d="M75.272,77.069v36.289c1.365-0.058,2.702-0.224,4-0.497V77.069H75.272z"/>
			</g>
		</g>
		<g>
			<ellipse class="st8" cx="81.821" cy="33.229" rx="12.618" ry="12.671"/>
		</g>
		<g>
			<g>
				<ellipse class="st1" cx="114.385" cy="33.229" rx="12.618" ry="12.671"/>
			</g>
			<g>
				<g>
					<path class="st3" d="M114.295,29.041c-0.815,0-1.475,0.663-1.475,1.481c0,0.172-0.032,0.339-0.088,0.495
						c-0.229-0.773-0.934-1.341-1.778-1.341c-0.966,0-1.751,0.742-1.845,1.687v0.367c0.014,0.4,0.062,0.79,0.167,1.16l0.002,0
						c0.01,0.036,0.019,0.073,0.03,0.108c0.636,2.071,1.06,4.203,1.06,6.37l3.316,3.33l0.343-3.694v-1.336
						c0.613,0.319,1.332,0.459,2.094,0.338c1.656-0.262,2.841-1.758,2.841-3.442v-3.017V30.16c0-0.391-0.065-0.767-0.181-1.119
						H114.295z"/>
				</g>
				<g>
					<path class="st8" d="M115.519,40.461l-1.493-1.457l-0.343,3.694l-3.316-3.329l-1.22,1.048l0,0c0,0-1.829,0.695-3.203,2.219
						c2.236,2.025,5.191,3.264,8.439,3.264c2.039,0,3.964-0.487,5.668-1.349C118.589,41.008,115.519,40.461,115.519,40.461z"/>
				</g>
				<g>
					<path class="st5" d="M120.671,24.467h-8.234c-1.847,0-3.345,1.504-3.345,3.359v3.72c0-1.033,0.834-1.871,1.863-1.871
						c0.844,0,1.549,0.568,1.778,1.341c0.055-0.156,0.088-0.323,0.088-0.495c0-0.818,0.66-1.481,1.475-1.481h4.485
						C118.781,26.233,120.671,24.467,120.671,24.467z"/>
				</g>
			</g>
		</g>
		<g>
			<ellipse class="st8" cx="15.919" cy="33.229" rx="8.922" ry="8.96"/>
		</g>
		<g>
			<ellipse class="st8" cx="15.919" cy="65.095" rx="8.922" ry="8.96"/>
		</g>
		<g>
			<ellipse class="st8" cx="15.919" cy="96.961" rx="8.922" ry="8.96"/>
		</g>
	</g>
	<g>
		<g>
			<g>
				<g>
					<path class="st5" d="M74.237,121.5c-17.933,0-32.522-14.648-32.522-32.653s14.589-32.653,32.522-32.653
						c3.6,0,7.153,0.596,10.562,1.771c0.404,0.139,0.674,0.519,0.674,0.945v50.593c3.216-1.766,5.981-4.267,8.069-7.309V64.643
						c0-0.39,0.226-0.743,0.58-0.907c0.352-0.164,0.769-0.107,1.067,0.145c7.353,6.227,11.57,15.327,11.57,24.967
						C106.759,106.852,92.17,121.5,74.237,121.5z M74.237,58.193c-16.83,0-30.522,13.751-30.522,30.653S57.407,119.5,74.237,119.5
						s30.522-13.751,30.522-30.653c0-8.305-3.333-16.183-9.216-21.941V102.5c0,0.197-0.059,0.391-0.168,0.556
						c-2.608,3.903-6.232,7.009-10.48,8.979c-0.309,0.145-0.671,0.12-0.959-0.064c-0.288-0.184-0.462-0.501-0.462-0.843V59.631
						C80.482,58.677,77.378,58.193,74.237,58.193z M94.543,102.5h0.01H94.543z"/>
				</g>
			</g>
			<g>
				<g>
					<g>
						<path class="st5" d="M74.237,114.386c-14.026,0-25.437-11.457-25.437-25.539s11.411-25.539,25.437-25.539
							c3.712,0,7.298,0.791,10.657,2.35c0.353,0.164,0.579,0.518,0.579,0.907v44.563c0,0.39-0.226,0.743-0.579,0.907
							C81.534,113.595,77.948,114.386,74.237,114.386z M74.237,65.308c-12.923,0-23.437,10.56-23.437,23.539
							s10.514,23.539,23.437,23.539c3.206,0,6.31-0.641,9.236-1.905V67.212C80.548,65.948,77.444,65.308,74.237,65.308z"/>
					</g>
				</g>
				<g>
					<g>
						<path class="st5" d="M94.543,103.5c-0.097,0-0.194-0.014-0.291-0.043c-0.421-0.128-0.709-0.517-0.709-0.957V75.192
							c0-0.44,0.288-0.829,0.71-0.957c0.42-0.129,0.877,0.034,1.122,0.401c2.813,4.211,4.3,9.124,4.3,14.21s-1.487,9.999-4.3,14.209
							C95.186,103.339,94.871,103.5,94.543,103.5z M95.543,79.027v19.639c1.402-3.062,2.131-6.397,2.131-9.819
							C97.674,85.426,96.945,82.089,95.543,79.027z"/>
					</g>
				</g>
			</g>
			<g>
				<g>
					<path class="st5" d="M84.474,112.128c-0.188,0-0.375-0.053-0.538-0.157c-0.288-0.184-0.462-0.501-0.462-0.843V54.835
						c0-0.553,0.448-1,1-1h10.069c0.552,0,1,0.447,1,1V102.5c0,0.197-0.059,0.391-0.168,0.556c-2.608,3.903-6.232,7.009-10.48,8.979
						C84.761,112.098,84.617,112.128,84.474,112.128z M85.474,55.835v53.667c3.216-1.766,5.981-4.267,8.069-7.309V55.835H85.474z
						 M94.543,102.5h0.01H94.543z"/>
				</g>
			</g>
			<g>
				<g>
					<path class="st5" d="M64.001,112.128c-0.143,0-0.287-0.03-0.421-0.093c-4.248-1.971-7.872-5.076-10.48-8.979
						c-0.11-0.165-0.168-0.358-0.168-0.556V88.847c0-0.553,0.448-1,1-1h10.069c0.552,0,1,0.447,1,1v22.281
						c0,0.342-0.174,0.659-0.462,0.843C64.376,112.075,64.189,112.128,64.001,112.128z M54.932,102.193
						c2.088,3.042,4.854,5.543,8.069,7.309V89.847h-8.069V102.193z"/>
				</g>
			</g>
			<g>
				<g>
					<path class="st5" d="M74.237,114.386c-1.755,0-3.519-0.184-5.241-0.546c-0.462-0.098-0.794-0.506-0.794-0.979V77.069
						c0-0.553,0.448-1,1-1h10.069c0.552,0,1,0.447,1,1v35.792c0,0.473-0.332,0.881-0.794,0.979
						C77.756,114.202,75.993,114.386,74.237,114.386z M70.203,112.035c2.665,0.467,5.404,0.467,8.069,0V78.069h-8.069V112.035z"/>
				</g>
			</g>
		</g>
		<g>
			<g>
				<path class="st5" d="M118.244,111.534H97.187c-0.398,0-0.759-0.236-0.917-0.603c-0.159-0.365-0.084-0.791,0.188-1.081
					c2.177-2.322,3.968-4.94,5.322-7.781c0.166-0.348,0.518-0.569,0.903-0.569h7.562c2.339,0,4.242-1.913,4.242-4.264V45.832
					c0-0.519,0.396-0.951,0.914-0.996c2.796-0.243,5.411-1.504,7.363-3.55c0.282-0.295,0.717-0.389,1.095-0.238
					c0.38,0.152,0.628,0.52,0.628,0.929v63.293C124.486,108.724,121.686,111.534,118.244,111.534z M99.392,109.534h18.853
					c2.339,0,4.242-1.913,4.242-4.265V44.193c-1.764,1.314-3.822,2.184-6,2.524v50.519c0,3.454-2.8,6.264-6.242,6.264h-6.938
					C102.231,105.646,100.919,107.667,99.392,109.534z"/>
			</g>
		</g>
		<g>
			<g>
				<g>
					<path class="st5" d="M48.418,21.985H34.989c-0.404,0-0.769-0.243-0.923-0.616c-0.155-0.373-0.07-0.803,0.215-1.09L47.709,6.794
						c0.286-0.286,0.717-0.375,1.09-0.218c0.374,0.154,0.618,0.519,0.618,0.924v13.485C49.418,21.538,48.97,21.985,48.418,21.985z
						 M37.396,19.985h10.022V9.921L37.396,19.985z"/>
				</g>
			</g>
			<g>
				<g>
					<path class="st5" d="M110.244,103.5h-7.562c-0.343,0-0.663-0.176-0.846-0.467c-0.183-0.29-0.205-0.653-0.057-0.964
						c1.978-4.146,2.98-8.595,2.98-13.223c0-9.051-3.959-17.595-10.863-23.441c-0.224-0.189-0.354-0.469-0.354-0.763v-8.808h-8.069
						v3.074c0,0.323-0.156,0.627-0.419,0.814c-0.263,0.187-0.601,0.237-0.906,0.131c-3.199-1.103-6.533-1.661-9.911-1.661
						c-16.83,0-30.522,13.751-30.522,30.653c0,4.628,1.003,9.077,2.98,13.223c0.147,0.31,0.126,0.674-0.057,0.964
						c-0.183,0.291-0.502,0.467-0.846,0.467H40.23c-3.442,0-6.242-2.81-6.242-6.264V20.985c0-0.265,0.105-0.519,0.292-0.706
						L47.71,6.794C47.897,6.605,48.152,6.5,48.418,6.5h61.826c3.442,0,6.242,2.81,6.242,6.264v7.85c0,0.28-0.118,0.548-0.324,0.736
						c-0.207,0.189-0.478,0.289-0.762,0.26c-0.335-0.028-0.672-0.052-1.015-0.052c-6.403,0-11.612,5.233-11.612,11.665
						c0,6.433,5.209,11.665,11.612,11.665c0.342,0,0.679-0.022,1.013-0.052c0.278-0.026,0.557,0.068,0.764,0.259
						c0.207,0.189,0.325,0.457,0.325,0.737v51.404C116.486,100.69,113.686,103.5,110.244,103.5z M104.226,101.5h6.018
						c2.339,0,4.242-1.913,4.242-4.264v-50.35c-0.034,0.001-0.067,0.001-0.101,0.001c-7.506,0-13.612-6.13-13.612-13.665
						s6.106-13.665,13.612-13.665c0.034,0,0.067,0,0.101,0.001v-6.795c0-2.351-1.903-4.264-4.242-4.264h-61.41L35.989,21.398v75.838
						c0,2.351,1.903,4.264,4.242,4.264h4.019c-1.682-4.004-2.534-8.253-2.534-12.653c0-18.005,14.589-32.653,32.522-32.653
						c3.136,0,6.236,0.452,9.236,1.345v-2.703c0-0.553,0.448-1,1-1h10.069c0.552,0,1,0.447,1,1v9.349
						c7.134,6.217,11.216,15.179,11.216,24.663C106.759,93.247,105.908,97.496,104.226,101.5z"/>
				</g>
			</g>
		</g>
		<g>
			<g>
				<g>
					<g>
						<path class="st5" d="M81.821,46.899c-7.509,0-13.618-6.133-13.618-13.671s6.109-13.671,13.618-13.671
							s13.618,6.133,13.618,13.671S89.33,46.899,81.821,46.899z M81.821,21.558c-6.406,0-11.618,5.235-11.618,11.671
							s5.212,11.671,11.618,11.671s11.618-5.235,11.618-11.671S88.227,21.558,81.821,21.558z"/>
					</g>
				</g>
				<g>
					<g>
						<path class="st5" d="M81.821,43.188c-0.552,0-1-0.447-1-1v-1.949c0-0.553,0.448-1,1-1s1,0.447,1,1v1.949
							C82.821,42.741,82.373,43.188,81.821,43.188z"/>
					</g>
				</g>
				<g>
					<g>
						<path class="st5" d="M82.652,41.239h-1.669c-2.166,0-3.928-1.771-3.928-3.947c0-0.553,0.448-1,1-1s1,0.447,1,1
							c0,1.073,0.865,1.947,1.928,1.947h1.669c1.067,0,1.935-0.874,1.935-1.947v-1.027c0-1.07-0.868-1.94-1.935-1.94h-1.669
							c-2.166,0-3.928-1.768-3.928-3.94V29.35c0-2.173,1.762-3.94,3.928-3.94h1.669c2.17,0,3.935,1.768,3.935,3.94
							c0,0.553-0.448,1-1,1s-1-0.447-1-1c0-1.07-0.868-1.94-1.935-1.94h-1.669c-1.063,0-1.928,0.87-1.928,1.94v1.034
							c0,1.07,0.865,1.94,1.928,1.94h1.669c2.17,0,3.935,1.768,3.935,3.94v1.027C86.587,39.469,84.822,41.239,82.652,41.239z"/>
					</g>
				</g>
				<g>
					<g>
						<path class="st5" d="M81.821,27.409c-0.552,0-1-0.447-1-1v-2.141c0-0.553,0.448-1,1-1s1,0.447,1,1v2.141
							C82.821,26.962,82.373,27.409,81.821,27.409z"/>
					</g>
				</g>
			</g>
			<g>
				<g>
					<g>
						<g>
							<path class="st5" d="M113.684,43.697c-0.261,0-0.518-0.103-0.708-0.294l-3.316-3.329c-0.187-0.188-0.292-0.441-0.292-0.706
								c0-1.862-0.332-3.851-1.016-6.077c-0.003-0.011-0.026-0.09-0.029-0.102c-0.128-0.446-0.195-0.905-0.213-1.426l0-0.4
								c0.15-1.574,1.371-2.688,2.845-2.688c0.493,0,0.961,0.124,1.369,0.348c0.453-0.597,1.168-0.982,1.972-0.982h4.485
								c0.432,0,0.815,0.277,0.95,0.688c0.153,0.466,0.23,0.947,0.23,1.431v4.404c0,2.191-1.584,4.096-3.684,4.429
								c-0.42,0.066-0.84,0.073-1.251,0.021l-0.346,3.776c-0.036,0.386-0.292,0.717-0.657,0.849
								C113.912,43.678,113.798,43.697,113.684,43.697z M111.363,38.95l1.522,1.528l0.146-1.567l-0.004-1.244
								c0-0.35,0.183-0.674,0.481-0.855c0.299-0.18,0.672-0.191,0.981-0.031c0.454,0.236,0.964,0.319,1.476,0.237
								c1.138-0.18,1.997-1.235,1.997-2.453V30.16c0-0.04-0.001-0.079-0.003-0.119h-3.663c-0.262,0-0.475,0.216-0.475,0.481
								c0,0.277-0.049,0.557-0.145,0.829c-0.145,0.408-0.521,0.681-0.969,0.666c-0.433-0.012-0.81-0.301-0.933-0.717
								c-0.11-0.374-0.439-0.625-0.819-0.625c-0.44,0-0.805,0.338-0.85,0.785l0.005,0.269c0.012,0.32,0.054,0.622,0.129,0.889
								C110.956,34.956,111.318,37.009,111.363,38.95z"/>
						</g>
					</g>
					<g>
						<g>
							<path class="st5" d="M114.026,38.667c-0.165,0-0.332-0.041-0.486-0.126c-0.628-0.351-1.169-0.862-1.565-1.481
								c-0.298-0.465-0.162-1.084,0.303-1.382c0.465-0.297,1.083-0.161,1.381,0.304c0.219,0.342,0.514,0.622,0.854,0.812
								c0.482,0.27,0.656,0.878,0.387,1.36C114.718,38.482,114.377,38.667,114.026,38.667z"/>
						</g>
					</g>
					<g>
						<g>
							<path class="st5" d="M114.385,46.899c-3.366,0-6.602-1.251-9.11-3.522c-0.409-0.37-0.44-1.001-0.071-1.41
								c1.276-1.417,2.886-2.187,3.416-2.414l1.098-0.943c0.398-0.34,0.99-0.318,1.36,0.053l1.809,1.816l0.146-1.567
								c0.036-0.384,0.289-0.713,0.65-0.846c0.36-0.133,0.767-0.048,1.044,0.223l1.298,1.268c0.93,0.262,3.576,1.278,4.954,4.612
								c0.2,0.482-0.006,1.038-0.473,1.274C118.593,46.409,116.534,46.899,114.385,46.899z M107.452,42.583
								c2,1.501,4.424,2.316,6.933,2.316c1.499,0,2.946-0.279,4.315-0.832c-1.292-2.195-3.271-2.605-3.364-2.623
								c-0.188-0.037-0.369-0.128-0.508-0.261l-0.149,1.606c-0.036,0.386-0.292,0.717-0.657,0.849
								c-0.363,0.129-0.772,0.039-1.047-0.235l-2.66-2.671l-0.515,0.442c-0.088,0.075-0.188,0.135-0.296,0.176
								C109.493,41.355,108.468,41.757,107.452,42.583z"/>
						</g>
					</g>
					<g>
						<g>
							<path class="st5" d="M109.092,32.547c-0.552,0-1-0.447-1-1v-3.721c0-2.403,1.949-4.359,4.345-4.359h8.234
								c0.411,0,0.779,0.251,0.93,0.633c0.15,0.381,0.053,0.814-0.244,1.095c-0.039,0.038-1.577,1.55-1.577,3.847
								c0,0.553-0.448,1-1,1h-4.485c-0.262,0-0.475,0.216-0.475,0.481c0,0.277-0.049,0.557-0.145,0.829
								c-0.145,0.408-0.521,0.681-0.969,0.666c-0.433-0.012-0.81-0.301-0.933-0.717c-0.11-0.374-0.439-0.625-0.819-0.625
								c-0.476,0-0.863,0.391-0.863,0.871C110.092,32.1,109.644,32.547,109.092,32.547z M110.955,28.676
								c0.493,0,0.961,0.124,1.369,0.348c0.453-0.597,1.168-0.982,1.972-0.982h3.555c0.143-1.022,0.488-1.891,0.86-2.574h-6.273
								c-1.293,0-2.345,1.059-2.345,2.359v0.982C110.364,28.723,110.654,28.676,110.955,28.676z"/>
						</g>
					</g>
				</g>
				<g>
					<g>
						<path class="st5" d="M114.385,46.888c-7.506,0-13.612-6.13-13.612-13.665s6.106-13.665,13.612-13.665
							s13.612,6.13,13.612,13.665S121.891,46.888,114.385,46.888z M114.385,21.558c-6.403,0-11.612,5.233-11.612,11.665
							s5.209,11.665,11.612,11.665s11.612-5.233,11.612-11.665S120.788,21.558,114.385,21.558z"/>
					</g>
				</g>
			</g>
		</g>
		<g>
			<g>
				<path class="st5" d="M51.088,111.326H0.997c-0.552,0-1-0.447-1-1s0.448-1,1-1h50.091c0.552,0,1,0.447,1,1
					S51.641,111.326,51.088,111.326z"/>
			</g>
		</g>
		<g>
			<g>
				<path class="st5" d="M15.919,43.188c-5.471,0-9.922-4.468-9.922-9.96s4.451-9.96,9.922-9.96s9.922,4.468,9.922,9.96
					S21.391,43.188,15.919,43.188z M15.919,25.269c-4.369,0-7.922,3.571-7.922,7.96s3.554,7.96,7.922,7.96s7.922-3.571,7.922-7.96
					S20.288,25.269,15.919,25.269z"/>
			</g>
		</g>
		<g>
			<g>
				<path class="st5" d="M15.919,75.055c-5.471,0-9.922-4.468-9.922-9.96c0-5.491,4.451-9.959,9.922-9.959s9.922,4.468,9.922,9.959
					C25.842,70.587,21.391,75.055,15.919,75.055z M15.919,57.136c-4.369,0-7.922,3.57-7.922,7.959s3.554,7.96,7.922,7.96
					s7.922-3.571,7.922-7.96S20.288,57.136,15.919,57.136z"/>
			</g>
		</g>
		<g>
			<g>
				<path class="st5" d="M15.919,106.921c-5.471,0-9.922-4.468-9.922-9.96c0-5.491,4.451-9.959,9.922-9.959s9.922,4.468,9.922,9.959
					C25.842,102.453,21.391,106.921,15.919,106.921z M15.919,89.002c-4.369,0-7.922,3.57-7.922,7.959s3.554,7.96,7.922,7.96
					s7.922-3.571,7.922-7.96S20.288,89.002,15.919,89.002z"/>
			</g>
		</g>
		<g>
			<g>
				<path class="st5" d="M68.842,34.229h-2c-0.552,0-1-0.447-1-1s0.448-1,1-1h2c0.552,0,1,0.447,1,1S69.394,34.229,68.842,34.229z
					 M62.842,34.229h-2c-0.552,0-1-0.447-1-1s0.448-1,1-1h2c0.552,0,1,0.447,1,1S63.394,34.229,62.842,34.229z M56.842,34.229h-2
					c-0.552,0-1-0.447-1-1s0.448-1,1-1h2c0.552,0,1,0.447,1,1S57.394,34.229,56.842,34.229z M50.842,34.229h-2c-0.552,0-1-0.447-1-1
					s0.448-1,1-1h2c0.552,0,1,0.447,1,1S51.394,34.229,50.842,34.229z M44.842,34.229h-2c-0.552,0-1-0.447-1-1s0.448-1,1-1h2
					c0.552,0,1,0.447,1,1S45.394,34.229,44.842,34.229z M38.842,34.229h-2c-0.552,0-1-0.447-1-1s0.448-1,1-1h2c0.552,0,1,0.447,1,1
					S39.394,34.229,38.842,34.229z M32.842,34.229h-2c-0.552,0-1-0.447-1-1s0.448-1,1-1h2c0.552,0,1,0.447,1,1
					S33.394,34.229,32.842,34.229z M26.842,34.229h-2c-0.552,0-1-0.447-1-1s0.448-1,1-1h2c0.552,0,1,0.447,1,1
					S27.394,34.229,26.842,34.229z"/>
			</g>
		</g>
		<g>
			<g>
				<path class="st5" d="M15.919,57.136c-0.552,0-1-0.447-1-1v-1.947c0-0.553,0.448-1,1-1s1,0.447,1,1v1.947
					C16.919,56.688,16.472,57.136,15.919,57.136z M15.919,51.188c-0.552,0-1-0.447-1-1v-2c0-0.553,0.448-1,1-1s1,0.447,1,1v2
					C16.919,50.741,16.472,51.188,15.919,51.188z M15.919,45.188c-0.552,0-1-0.447-1-1v-2c0-0.553,0.448-1,1-1s1,0.447,1,1v2
					C16.919,44.741,16.472,45.188,15.919,45.188z"/>
			</g>
		</g>
		<g>
			<g>
				<path class="st5" d="M15.919,89.002c-0.552,0-1-0.447-1-1v-1.947c0-0.553,0.448-1,1-1s1,0.447,1,1v1.947
					C16.919,88.555,16.472,89.002,15.919,89.002z M15.919,83.055c-0.552,0-1-0.447-1-1v-2c0-0.553,0.448-1,1-1s1,0.447,1,1v2
					C16.919,82.607,16.472,83.055,15.919,83.055z M15.919,77.055c-0.552,0-1-0.447-1-1v-2c0-0.553,0.448-1,1-1s1,0.447,1,1v2
					C16.919,76.607,16.472,77.055,15.919,77.055z"/>
			</g>
		</g>
		<g>
			<g>
				<path class="st5" d="M14.505,37.068c-0.266,0-0.521-0.105-0.708-0.294l-2.829-2.84c-0.39-0.392-0.389-1.024,0.003-1.415
					c0.39-0.39,1.024-0.389,1.414,0.003l2.12,2.129l4.948-4.969c0.389-0.391,1.023-0.393,1.414-0.003
					c0.392,0.391,0.393,1.023,0.003,1.415l-5.657,5.68C15.026,36.963,14.771,37.068,14.505,37.068z"/>
			</g>
		</g>
		<g>
			<g>
				<path class="st5" d="M14.505,68.936L14.505,68.936c-0.266,0-0.521-0.105-0.708-0.294l-2.829-2.841
					c-0.39-0.392-0.389-1.025,0.003-1.415c0.392-0.389,1.025-0.386,1.414,0.003l2.12,2.13l4.948-4.97
					c0.389-0.391,1.022-0.394,1.414-0.003c0.392,0.39,0.393,1.023,0.003,1.415l-5.657,5.681
					C15.026,68.83,14.771,68.936,14.505,68.936z"/>
			</g>
		</g>
		<g>
			<g>
				<g>
					<path class="st5" d="M13.091,100.802c-0.255,0-0.511-0.097-0.706-0.291c-0.392-0.39-0.393-1.023-0.003-1.415l5.657-5.681
						c0.389-0.39,1.023-0.393,1.414-0.003c0.392,0.391,0.393,1.023,0.003,1.415l-5.657,5.681
						C13.604,100.703,13.348,100.802,13.091,100.802z"/>
				</g>
			</g>
			<g>
				<g>
					<path class="st5" d="M18.748,100.802c-0.257,0-0.513-0.099-0.708-0.294l-5.657-5.681c-0.39-0.392-0.389-1.024,0.003-1.415
						c0.391-0.389,1.025-0.388,1.414,0.003l5.657,5.681c0.39,0.392,0.389,1.025-0.003,1.415
						C19.259,100.705,19.003,100.802,18.748,100.802z"/>
				</g>
			</g>
		</g>
	</g>
</g>
</svg>
