<?xml version="1.0" encoding="utf-8"?>
<!-- Generator: Adobe Illustrator 22.0.0, SVG Export Plug-In . SVG Version: 6.00 Build 0)  -->
<svg version="1.1" id="MARKET_RESEARCH_ICON_SET" xmlns="http://www.w3.org/2000/svg" xmlns:xlink="http://www.w3.org/1999/xlink"
	 x="0px" y="0px" viewBox="0 0 128 128" style="enable-background:new 0 0 128 128;" xml:space="preserve">
<style type="text/css">
	.st0{fill:#C2D5EC;}
	.st1{fill:#61E1FF;}
	.st2{fill:#7184AF;}
	.st3{fill:#F8F8F8;}
	.st4{fill:#3F4D81;}
	.st5{fill:#3F4D80;}
	.st6{fill:#E9EAEB;}
	.st7{fill:#F79559;}
	.st8{fill:#FFA85A;}
</style>
<g>
	<g>
		<g>
			<polygon class="st0" points="127.886,48.003 23.05,48.003 0.114,57.018 0.114,110.912 127.886,110.912 			"/>
		</g>
		<g>
			<path class="st4" d="M115.312,63.591c5.368,0,10.046-2.914,12.574-7.24v-8.348h-89.18v62.909h69.614l3.435-3.438
				c0.511-0.511,0.798-1.204,0.798-1.927v-4.419c0.894,0.172,1.815,0.269,2.759,0.269c5.368,0,10.046-2.914,12.574-7.24V79.471
				c-2.528-4.326-7.206-7.24-12.574-7.24c-0.944,0-1.865,0.097-2.759,0.269v-9.178C113.447,63.493,114.368,63.591,115.312,63.591z"
				/>
		</g>
		<g>
			<g>
				<path class="st6" d="M104.948,24.322H40.321c-2.546,0-4.61,2.066-4.61,4.614v81.95c0,2.548,2.064,4.614,4.61,4.614h57.426
					l11.811-11.822V28.936C109.558,26.388,107.494,24.322,104.948,24.322z"/>
			</g>
			<g>
				<path class="st3" d="M109.549,28.815h-67.5c-0.968,0-1.747,0.779-1.747,1.748v84.814c0,0.04,0,0.08,0.01,0.12
					c-2.546-0.01-4.602-2.068-4.602-4.616V28.935c0-2.548,2.066-4.616,4.612-4.616h64.625
					C107.452,24.319,109.489,26.318,109.549,28.815z"/>
			</g>
			<g>
				<path class="st2" d="M35.711,48.894v39.478C52.197,77.109,48.98,59.135,48.98,59.135C42.282,56.582,38.96,52.197,35.711,48.894z
					"/>
			</g>
			<g>
				<polygon class="st2" points="97.747,115.5 97.747,103.678 109.558,103.678 				"/>
			</g>
			<g>
				<path class="st2" d="M35.711,28.936c0-2.548,2.064-4.614,4.61-4.614h56.575v-7.207c0-2.548-2.064-4.614-4.61-4.614H27.66
					c-2.546,0-4.61,2.066-4.61,4.614v81.95c0,2.548,2.064,4.614,4.61,4.614h8.051V28.936z"/>
			</g>
			<g>
				<path class="st4" d="M23.049,45.348V91.09c1.25,0.62,2.568,1.213,3.993,1.759c3.372-1.292,6.232-2.812,8.669-4.477V48.894
					c-2.456-2.497-4.87-4.376-8.669-4.376C25.518,44.517,24.22,44.825,23.049,45.348z"/>
			</g>
		</g>
		<g>
			<g>
				<path class="st1" d="M44.987,55.139c-11.761-4.483-13.112-14.618-21.938-14.618S12.872,50.655,1.112,55.139
					c0,0-4.249,23.684,21.938,33.713C49.236,78.823,44.987,55.139,44.987,55.139z"/>
			</g>
			<g>
				<path class="st3" d="M23.053,40.525c2.845,0,4.921,1.059,6.808,2.638c-0.928-0.3-1.947-0.47-3.084-0.47
					c-8.824,0-10.182,10.131-21.941,14.617c0,0-3.284,18.324,13.736,29.554C-2.632,76.003,1.112,55.142,1.112,55.142
					C12.871,50.656,14.228,40.525,23.053,40.525z"/>
			</g>
			<g>
				<path class="st3" d="M45.044,55.552c-0.679-0.38-1.308-0.789-1.907-1.209c0.589,0.29,1.198,0.549,1.847,0.799
					C44.984,55.142,45.014,55.282,45.044,55.552z"/>
			</g>
			<g>
				<g>
					<path class="st6" d="M20.651,63.557v2.051l2.399,4.552l2.399-4.552v-2.051c-0.732,0.334-1.542,0.525-2.399,0.525
						C22.193,64.082,21.383,63.891,20.651,63.557z"/>
				</g>
				<g>
					<path class="st8" d="M33.185,73.229c0-4.438-5.34-6.437-5.34-6.437l0,0l-2.397-1.185L23.05,70.16l0.001,0.001l-0.001,0.001
						l-0.001-0.001l0.001-0.001l-2.399-4.552l-2.397,1.185l0,0c0,0-5.34,1.999-5.34,6.437c0,0.8-0.056,1.726-0.107,2.708h20.484
						C33.241,74.955,33.185,74.029,33.185,73.229z"/>
				</g>
				<g>
					<path class="st5" d="M18.928,54.476c0-1.092,0.884-1.977,1.975-1.977h4.292c1.091,0,1.976,0.885,1.976,1.977
						c0,3.16,1.915,1.051,1.915,1.051v-2.878c0-4.485-2.433-3.263-2.433-3.263s-0.494-1.222-2.047-1.222h-3.113
						c-2.474,0-4.48,2.008-4.48,4.484v2.879l0,0C17.013,55.527,18.928,57.636,18.928,54.476z"/>
				</g>
				<g>
					<path class="st3" d="M29.272,55.512c-0.064,0-0.125,0.006-0.186,0.014c0,0-1.915,2.109-1.915-1.051
						c0-1.092-0.884-1.977-1.976-1.977h-4.292c-1.091,0-1.975,0.885-1.975,1.977c0,3.16-1.915,1.051-1.915,1.051l0,0v0
						c-0.06-0.009-0.122-0.014-0.186-0.014c0,0-1.129,0-1.129,1.135v1.14c0,0.93,0.506,1.774,1.687,1.953
						c0.024,0.004,0.045,0.005,0.068,0.007c0.648,2.492,2.904,4.334,5.596,4.334c2.692,0,4.949-1.842,5.596-4.334
						c0.023-0.003,0.043-0.004,0.068-0.007c1.181-0.179,1.687-1.023,1.687-1.953v-1.14C30.401,55.512,29.272,55.512,29.272,55.512z"
						/>
				</g>
			</g>
		</g>
		<g>
			<g>
				<ellipse class="st8" cx="112.317" cy="83.817" rx="14.57" ry="14.583"/>
			</g>
			<g>
				<g>
					<path class="st3" d="M112.317,78.472c-5.715,0-10.347,5.345-10.347,5.345s4.633,5.345,10.347,5.345
						c5.715,0,10.347-5.345,10.347-5.345S118.032,78.472,112.317,78.472z"/>
				</g>
			</g>
			<g>
				
					<ellipse transform="matrix(0.0014 -1 1 0.0014 28.3508 196.0006)" class="st1" cx="112.317" cy="83.804" rx="5.333" ry="5.328"/>
			</g>
		</g>
		<g>
			<g>
				<ellipse class="st8" cx="112.317" cy="46.01" rx="14.57" ry="14.583"/>
			</g>
			<g>
				<path class="st1" d="M108.136,54.891h8.362c1.447,0,2.621-1.174,2.621-2.623v-6.589c0-1.449-1.173-2.623-2.621-2.623h-8.362
					c-1.447,0-2.621,1.174-2.621,2.623v6.589C105.516,53.717,106.689,54.891,108.136,54.891z"/>
			</g>
			<g>
				<circle class="st5" cx="112.317" cy="47.867" r="1.834"/>
			</g>
		</g>
	</g>
	<g>
		<g>
			<g>
				<g>
					<g>
						<path class="st5" d="M93.063,90.307H52.366c-0.551,0-0.998-0.447-0.998-1s0.447-1,0.998-1h40.697c0.551,0,0.998,0.447,0.998,1
							S93.614,90.307,93.063,90.307z"/>
					</g>
				</g>
				<g>
					<g>
						<path class="st5" d="M87.075,102.68h-34.71c-0.551,0-0.998-0.447-0.998-1s0.447-1,0.998-1h34.71c0.551,0,0.998,0.447,0.998,1
							S87.627,102.68,87.075,102.68z"/>
					</g>
				</g>
			</g>
			<g>
				<g>
					<g>
						<path class="st5" d="M93.063,39.522H52.366c-0.551,0-0.998-0.447-0.998-1s0.447-1,0.998-1h40.697c0.551,0,0.998,0.447,0.998,1
							S93.614,39.522,93.063,39.522z"/>
					</g>
				</g>
				<g>
					<g>
						<path class="st5" d="M87.075,51.896h-34.71c-0.551,0-0.998-0.447-0.998-1s0.447-1,0.998-1h34.71c0.551,0,0.998,0.447,0.998,1
							S87.627,51.896,87.075,51.896z"/>
					</g>
				</g>
			</g>
			<g>
				<g>
					<g>
						<path class="st5" d="M93.063,64.724H52.366c-0.551,0-0.998-0.447-0.998-1s0.447-1,0.998-1h40.697c0.551,0,0.998,0.447,0.998,1
							S93.614,64.724,93.063,64.724z"/>
					</g>
				</g>
				<g>
					<g>
						<path class="st5" d="M87.075,77.098h-34.71c-0.551,0-0.998-0.447-0.998-1s0.447-1,0.998-1h34.71c0.551,0,0.998,0.447,0.998,1
							S87.627,77.098,87.075,77.098z"/>
					</g>
				</g>
			</g>
			<g>
				<g>
					<path class="st5" d="M97.747,116.5c-0.129,0-0.259-0.024-0.382-0.076c-0.373-0.155-0.616-0.52-0.616-0.924v-11.821
						c0-0.553,0.447-1,0.998-1h11.811c0.404,0,0.768,0.244,0.922,0.617c0.155,0.374,0.069,0.805-0.217,1.09l-11.811,11.821
						C98.262,116.398,98.006,116.5,97.747,116.5z M98.745,104.679v8.408l8.402-8.408H98.745z"/>
				</g>
			</g>
			<g>
				<g>
					<path class="st5" d="M97.747,116.5H40.321c-3.092,0-5.608-2.519-5.608-5.614V81.177c0-0.277,0.115-0.542,0.317-0.73
						c10.143-9.494,9.361-21.876,9.047-24.592c-4.262-1.733-7.073-4.154-9.062-6.095c-0.193-0.188-0.302-0.447-0.302-0.717V28.936
						c0-3.096,2.516-5.614,5.608-5.614h64.627c3.093,0,5.609,2.519,5.609,5.614v2.761c0,0.479-0.34,0.892-0.81,0.982
						c-6.375,1.224-11.001,6.831-11.001,13.331c0,6.501,4.627,12.108,11.001,13.332c0.47,0.091,0.81,0.503,0.81,0.982v9.179
						c0,0.479-0.34,0.892-0.811,0.982c-6.374,1.224-11.001,6.83-11.001,13.331s4.627,12.108,11.001,13.332
						c0.47,0.091,0.81,0.503,0.81,0.982v5.548c0,0.266-0.105,0.52-0.293,0.707l-11.811,11.821
						C98.265,116.395,98.011,116.5,97.747,116.5z M36.71,81.607v29.278c0,1.993,1.62,3.614,3.612,3.614h57.012l11.227-11.235v-4.33
						c-6.893-1.708-11.811-7.938-11.811-15.118s4.92-13.41,11.811-15.117v-7.571c-6.893-1.708-11.811-7.938-11.811-15.118
						c0-7.18,4.919-13.409,11.811-15.117v-1.957c0-1.993-1.621-3.614-3.612-3.614H40.321c-1.992,0-3.612,1.621-3.612,3.614v19.683
						c1.919,1.837,4.615,4.055,8.632,5.586c0.328,0.125,0.566,0.413,0.628,0.759C46.081,55.586,48.536,70.242,36.71,81.607z"/>
				</g>
			</g>
			<g>
				<g>
					<g>
						<path class="st5" d="M35.711,50.043c-0.255,0-0.506-0.098-0.697-0.283c-0.89-0.868-1.698-1.729-2.479-2.561
							c-2.98-3.173-5.333-5.679-9.487-5.679c-0.551,0-0.998-0.447-0.998-1V17.114c0-3.096,2.516-5.614,5.609-5.614h64.627
							c3.093,0,5.609,2.519,5.609,5.614v7.207c0,0.553-0.447,1-0.998,1H40.321c-1.992,0-3.612,1.621-3.612,3.614v20.107
							c0,0.402-0.24,0.765-0.61,0.921C35.974,50.018,35.842,50.043,35.711,50.043z M24.048,39.561
							c4.396,0.361,6.981,3.114,9.942,6.269c0.238,0.253,0.479,0.51,0.723,0.768V28.936c0-3.096,2.516-5.614,5.608-5.614h55.577
							v-6.207c0-1.993-1.621-3.614-3.612-3.614H27.66c-1.992,0-3.612,1.621-3.612,3.614V39.561z"/>
					</g>
				</g>
				<g>
					<g>
						<path class="st5" d="M35.711,104.679H27.66c-3.093,0-5.609-2.519-5.609-5.615V88.852c0-0.414,0.255-0.786,0.642-0.935
							c4.888-1.871,9.039-4.385,12.337-7.471c0.29-0.272,0.715-0.345,1.079-0.187s0.6,0.519,0.6,0.917v22.502
							C36.71,104.231,36.263,104.679,35.711,104.679z M24.048,89.535v9.528c0,1.993,1.621,3.615,3.612,3.615h7.053V83.376
							C31.695,85.845,28.118,87.91,24.048,89.535z"/>
					</g>
				</g>
			</g>
		</g>
		<g>
			<g>
				<g>
					<path class="st5" d="M23.049,89.852c-0.121,0-0.242-0.022-0.356-0.066C-3.957,79.58,0.085,55.207,0.129,54.962
						c0.062-0.346,0.3-0.633,0.628-0.758c5.437-2.072,8.581-5.422,11.355-8.377c3.177-3.384,5.921-6.307,10.937-6.307
						s7.76,2.923,10.937,6.307c2.774,2.955,5.919,6.305,11.355,8.377c0.328,0.125,0.566,0.412,0.628,0.758
						c0.044,0.245,4.086,24.618-22.564,34.823C23.291,89.829,23.17,89.852,23.049,89.852z M2.014,55.858
						c-0.459,3.579-1.808,22.968,21.035,31.921c10.356-4.058,17.028-10.731,19.835-19.84c1.739-5.643,1.382-10.503,1.195-12.084
						c-5.523-2.242-8.718-5.645-11.547-8.658c-2.978-3.172-5.33-5.677-9.483-5.677s-6.505,2.505-9.483,5.677
						C10.737,50.212,7.542,53.615,2.014,55.858z"/>
				</g>
			</g>
			<g>
				<g>
					<g>
						<path class="st5" d="M23.05,71.159c-0.37,0-0.71-0.205-0.883-0.533l-2.399-4.552c-0.076-0.144-0.116-0.304-0.116-0.467v-2.051
							c0-0.341,0.173-0.657,0.459-0.842c0.286-0.183,0.646-0.209,0.954-0.067c1.26,0.576,2.707,0.576,3.968,0
							c0.309-0.142,0.67-0.115,0.954,0.067c0.286,0.185,0.459,0.501,0.459,0.842v2.051c0,0.163-0.039,0.323-0.116,0.467
							l-2.399,4.552C23.76,70.954,23.42,71.159,23.05,71.159z M21.649,65.359l1.4,2.658l1.4-2.658v-0.424
							c-0.916,0.195-1.884,0.195-2.801,0V65.359z"/>
					</g>
				</g>
				<g>
					<g>
						<path class="st5" d="M33.291,76.938H12.807c-0.273,0-0.535-0.112-0.724-0.312c-0.188-0.198-0.287-0.466-0.273-0.739
							l0.024-0.461c0.041-0.792,0.081-1.538,0.081-2.196c0-4.879,5.313-7.108,5.937-7.354l2.357-1.165
							c0.484-0.241,1.072-0.05,1.324,0.43l1.516,2.877l1.515-2.877c0.252-0.479,0.841-0.67,1.325-0.43l2.356,1.165
							c0.625,0.245,5.937,2.475,5.937,7.354c0,0.658,0.04,1.404,0.081,2.196l0.024,0.461c0.014,0.273-0.085,0.541-0.273,0.739
							C33.826,76.825,33.565,76.938,33.291,76.938z M13.859,74.938H32.24c-0.03-0.609-0.054-1.186-0.054-1.708
							c0-3.701-4.644-5.482-4.691-5.5c-0.032-0.012-0.062-0.025-0.093-0.04l-1.525-0.754l-1.944,3.691
							c-0.346,0.655-1.42,0.656-1.765,0l-1.946-3.692l-1.526,0.755c-0.03,0.015-0.061,0.028-0.092,0.04l0,0
							c-0.047,0.018-4.692,1.819-4.692,5.5C13.912,73.752,13.889,74.328,13.859,74.938z"/>
					</g>
				</g>
				<g>
					<g>
						<path class="st5" d="M23.049,65.081c-2.883,0-5.427-1.823-6.384-4.502c-1.235-0.424-1.966-1.462-1.966-2.792v-1.14
							c0-1.019,0.592-1.693,1.315-1.979v-2.02c0-3.024,2.458-5.484,5.478-5.484h3.113c1.185,0,1.998,0.528,2.486,1.082
							c0.426-0.046,0.957,0.007,1.48,0.33c1.018,0.63,1.513,1.962,1.513,4.072v2.021c0.723,0.285,1.315,0.96,1.315,1.979v1.14
							c0,1.354-0.756,2.405-1.972,2.808C28.466,63.265,25.927,65.081,23.049,65.081z M16.701,56.553
							c0.002,0.005-0.005,0.036-0.005,0.095v1.14c0,0.75,0.479,0.91,0.839,0.965c0.395,0.06,0.783,0.356,0.884,0.743
							c0.549,2.111,2.453,3.586,4.63,3.586s4.082-1.475,4.63-3.586c0.103-0.396,0.435-0.688,0.84-0.74
							c0.405-0.058,0.883-0.218,0.883-0.968v-1.14c0-0.078-0.013-0.108-0.013-0.108c-0.017-0.006-0.117-0.026-0.118-0.026
							l-0.042,0.004c-0.287,0.039-0.578-0.044-0.796-0.233c-0.219-0.189-0.345-0.466-0.345-0.756v-2.879
							c0-1.906-0.466-2.306-0.56-2.367c-0.171-0.108-0.444,0.007-0.447,0.007c-0.247,0.111-0.54,0.12-0.791,0.02
							c-0.251-0.102-0.462-0.295-0.563-0.547c-0.039-0.082-0.318-0.597-1.122-0.597h-3.113c-1.92,0-3.482,1.563-3.482,3.484v2.879
							c0,0.29-0.126,0.566-0.345,0.756c-0.219,0.189-0.511,0.273-0.796,0.233C16.802,56.515,16.73,56.535,16.701,56.553z"/>
					</g>
				</g>
				<g>
					<g>
						<path class="st5" d="M18.171,57.219c-0.891,0-1.652-0.75-1.897-1.019c-0.371-0.408-0.341-1.041,0.067-1.412
							c0.406-0.373,1.035-0.342,1.407,0.062l0,0c0.045,0.05,0.099,0.101,0.155,0.149c0.015-0.133,0.026-0.304,0.026-0.523
							c0-1.642,1.334-2.978,2.974-2.978h4.292c1.64,0,2.974,1.336,2.974,2.978c0,0.22,0.011,0.392,0.026,0.523
							c0.057-0.049,0.111-0.1,0.156-0.149c0.374-0.403,1.005-0.429,1.409-0.058c0.405,0.372,0.434,1,0.065,1.407
							c-0.294,0.323-1.338,1.349-2.458,0.913c-1.195-0.463-1.195-2.099-1.195-2.637c0-0.539-0.438-0.978-0.977-0.978h-4.292
							c-0.539,0-0.977,0.438-0.977,0.978c0,0.538,0,2.174-1.195,2.638C18.541,57.188,18.353,57.219,18.171,57.219z M17.815,55.395
							L17.815,55.395L17.815,55.395z M28.283,55.394L28.283,55.394L28.283,55.394z"/>
					</g>
				</g>
			</g>
		</g>
		<g>
			<g>
				<g>
					<path class="st5" d="M112.318,99.4c-8.585,0-15.569-6.991-15.569-15.584s6.984-15.583,15.569-15.583
						c8.584,0,15.568,6.99,15.568,15.583S120.902,99.4,112.318,99.4z M112.318,70.233c-7.484,0-13.573,6.094-13.573,13.583
						c0,7.49,6.089,13.584,13.573,13.584s13.572-6.094,13.572-13.584C125.89,76.327,119.801,70.233,112.318,70.233z"/>
				</g>
			</g>
			<g>
				<g>
					<g>
						<g>
							<path class="st5" d="M112.318,90.162c-6.1,0-10.9-5.458-11.101-5.69c-0.326-0.376-0.326-0.935,0-1.311
								c0.201-0.232,5.001-5.689,11.101-5.689c6.099,0,10.9,5.457,11.101,5.689c0.326,0.376,0.326,0.935,0,1.311
								C123.217,84.704,118.417,90.162,112.318,90.162z M103.359,83.815c1.397,1.356,4.934,4.347,8.959,4.347
								c4.038,0,7.565-2.987,8.959-4.345c-1.397-1.356-4.934-4.346-8.959-4.346C108.279,79.472,104.752,82.458,103.359,83.815z"/>
						</g>
					</g>
				</g>
				<g>
					<g>
						<path class="st5" d="M112.318,90.138c-3.488,0-6.327-2.841-6.327-6.333s2.838-6.333,6.327-6.333
							c3.488,0,6.326,2.841,6.326,6.333S115.806,90.138,112.318,90.138z M112.318,79.472c-2.388,0-4.33,1.943-4.33,4.333
							s1.942,4.333,4.33,4.333c2.387,0,4.33-1.943,4.33-4.333S114.705,79.472,112.318,79.472z"/>
					</g>
				</g>
			</g>
		</g>
		<g>
			<g>
				<g>
					<path class="st5" d="M112.318,61.594c-8.585,0-15.569-6.991-15.569-15.584s6.984-15.583,15.569-15.583
						c8.584,0,15.568,6.99,15.568,15.583S120.902,61.594,112.318,61.594z M112.318,32.427c-7.484,0-13.573,6.094-13.573,13.583
						c0,7.49,6.089,13.584,13.573,13.584S125.89,53.5,125.89,46.01C125.89,38.521,119.801,32.427,112.318,32.427z"/>
				</g>
			</g>
			<g>
				<g>
					<g>
						<path class="st5" d="M116.499,55.892h-8.363c-1.995,0-3.619-1.625-3.619-3.623v-6.59c0-1.997,1.623-3.622,3.619-3.622h8.363
							c1.995,0,3.619,1.625,3.619,3.622v6.59C120.118,54.267,118.494,55.892,116.499,55.892z M108.136,44.057
							c-0.894,0-1.622,0.728-1.622,1.622v6.59c0,0.895,0.728,1.623,1.622,1.623h8.363c0.895,0,1.623-0.729,1.623-1.623v-6.59
							c0-0.895-0.728-1.622-1.623-1.622H108.136z"/>
					</g>
				</g>
				<g>
					<g>
						<g>
							<path class="st5" d="M115.669,44.057c-0.551,0-0.998-0.447-0.998-1v-2.219c0-1.494-1.055-2.709-2.353-2.709
								s-2.353,1.215-2.353,2.709v2.219c0,0.553-0.447,1-0.998,1c-0.551,0-0.998-0.447-0.998-1v-2.219
								c0-2.597,1.951-4.709,4.35-4.709c2.398,0,4.349,2.112,4.349,4.709v2.219C116.667,43.609,116.22,44.057,115.669,44.057z"/>
						</g>
					</g>
				</g>
				<g>
					<g>
						<g>
							<path class="st5" d="M112.318,50.701c-1.561,0-2.831-1.271-2.831-2.834c0-1.563,1.27-2.835,2.831-2.835
								c1.561,0,2.831,1.271,2.831,2.835C115.148,49.43,113.879,50.701,112.318,50.701z M112.318,47.032
								c-0.46,0-0.834,0.375-0.834,0.835s0.374,0.834,0.834,0.834s0.834-0.374,0.834-0.834S112.778,47.032,112.318,47.032z"/>
						</g>
					</g>
					<g>
						<g>
							<path class="st5" d="M112.318,52.915c-0.551,0-0.998-0.447-0.998-1v-2.214c0-0.553,0.447-1,0.998-1s0.998,0.447,0.998,1
								v2.214C113.316,52.468,112.869,52.915,112.318,52.915z"/>
						</g>
					</g>
				</g>
			</g>
		</g>
		<g>
			<path class="st5" d="M126.888,111.912H102.33c-0.551,0-0.998-0.447-0.998-1s0.447-1,0.998-1h24.557c0.551,0,0.998,0.447,0.998,1
				S127.439,111.912,126.888,111.912z"/>
		</g>
		<g>
			<path class="st5" d="M35.711,111.912H1.112c-0.551,0-0.998-0.447-0.998-1s0.447-1,0.998-1h34.599c0.551,0,0.998,0.447,0.998,1
				S36.263,111.912,35.711,111.912z"/>
		</g>
	</g>
</g>
</svg>
