<?xml version="1.0" encoding="utf-8"?>
<!-- Generator: Adobe Illustrator 22.0.0, SVG Export Plug-In . SVG Version: 6.00 Build 0)  -->
<svg version="1.1" id="MARKET_RESEARCH_ICON_SET" xmlns="http://www.w3.org/2000/svg" xmlns:xlink="http://www.w3.org/1999/xlink"
	 x="0px" y="0px" viewBox="0 0 128 128" style="enable-background:new 0 0 128 128;" xml:space="preserve">
<style type="text/css">
	.st0{fill:#C2D5EC;}
	.st1{fill:#61E1FF;}
	.st2{fill:#7184AF;}
	.st3{fill:#F8F8F8;}
	.st4{fill:#3F4D81;}
	.st5{fill:#3F4D80;}
	.st6{fill:#E9EAEB;}
	.st7{fill:#F79559;}
	.st8{fill:#FFA85A;}
</style>
<g>
	<g>
		<g>
			
				<ellipse transform="matrix(0.9998 -0.0196 0.0196 0.9998 -1.2425 1.2671)" class="st0" cx="64" cy="64" rx="50.384" ry="47.967"/>
		</g>
		<g>
			<path class="st4" d="M68,24.957v11.822c-17.682,0-32.118,13.824-32.982,31.2H13.786c0.971,11.417,6.213,22.535,15.66,30.993
				c10.76,9.634,24.805,13.878,38.469,12.843C67.97,111.552,68,111.28,68,111.001v-8.521c18.239,0,33.024-14.707,33.024-32.85
				c0-0.554-0.015-1.104-0.042-1.651h13.207c1.25-14.077-3.999-28.532-15.635-38.951c-3.715-3.326-7.824-6.004-12.171-8.05H72
				C69.791,20.978,68,22.759,68,24.957z"/>
		</g>
		<g>
			<path class="st8" d="M60,111.001H5c-2.209,0-4-1.781-4-3.979V67.979C1,65.781,2.791,64,5,64h55c2.209,0,4,1.781,4,3.979v39.043
				C64,109.219,62.209,111.001,60,111.001z"/>
		</g>
		<g>
			<path class="st3" d="M64,67.979v0.199H6.5c-0.58,0-1.05,0.467-1.05,1.035v41.788H5c-2.21,0-4-1.781-4-3.979V67.979
				C1,65.781,2.79,64,5,64h55C62.21,64,64,65.781,64,67.979z"/>
		</g>
		<g>
			<path class="st1" d="M123,64H68c-2.209,0-4-1.781-4-3.979V20.978c0-2.197,1.791-3.979,4-3.979h55c2.209,0,4,1.781,4,3.979v39.043
				C127,62.219,125.209,64,123,64z"/>
		</g>
		<g>
			<path class="st3" d="M127,20.978v0.726H69.83c-0.57,0-1.03,0.458-1.03,1.025V64H68c-2.21,0-4-1.781-4-3.979V20.978
				c0-2.198,1.79-3.979,4-3.979h55C125.21,16.999,127,18.78,127,20.978z"/>
		</g>
		<g>
			<path class="st2" d="M31.018,64C31.882,46.624,46.318,32.8,64,32.8V22.727C40.725,22.727,21.765,41.06,20.891,64H31.018z"/>
		</g>
		<g>
			<g>
				<ellipse class="st6" cx="64" cy="65.651" rx="33.024" ry="32.85"/>
			</g>
			<g>
				<path class="st3" d="M63.766,54.725c-2.135,0-3.867,1.722-3.867,3.846c0,0.448-0.085,0.879-0.23,1.285
					c-0.599-2.009-2.447-3.483-4.661-3.483c-2.533,0-4.591,1.925-4.835,4.381v0.952c0.036,1.038,0.163,2.052,0.437,3.011l0.005,0
					c0.027,0.094,0.05,0.189,0.079,0.282c1.667,5.379,2.778,10.913,2.778,16.542l8.692,8.646l0.899-9.592v-3.47
					c1.606,0.828,3.493,1.192,5.489,0.879c4.341-0.681,7.447-4.566,7.447-8.937V61.23V57.63c0-1.016-0.17-1.991-0.474-2.905H63.766z
					"/>
			</g>
			<g>
				<path class="st7" d="M66.975,84.379L66.975,84.379l-3.913-3.784l-0.899,9.592l-8.692-8.646l-3.198,2.722l0,0
					c0,0-4.795,1.804-8.395,5.763C47.74,95.283,55.485,98.501,64,98.501c5.345,0,10.391-1.264,14.859-3.504
					C75.022,85.8,66.975,84.379,66.975,84.379z"/>
			</g>
			<g>
				<path class="st3" d="M50.274,84.263L50.274,84.263c0,0-4.795,1.804-8.395,5.762c1.054,0.945,2.171,1.822,3.341,2.629
					c3.555-3.707,8.054-5.407,8.054-5.407l0,0l3.198-2.722l-3-2.984L50.274,84.263z"/>
			</g>
			<g>
				<path class="st8" d="M64,43.155c4.636,0,8.395,3.739,8.395,8.351h13.727v-3.862h-7.261c-0.36-1.372-0.902-2.668-1.607-3.862
					l5.134-5.106l-5.49-5.461l-5.134,5.107c-1.2-0.701-2.502-1.24-3.882-1.598v-7.223h-7.764v7.223
					c-1.38,0.358-2.682,0.897-3.882,1.598l-5.133-5.106l-5.49,5.461l5.133,5.106c-0.705,1.194-1.247,2.489-1.607,3.862h-7.261v3.862
					h13.727C55.605,46.893,59.363,43.155,64,43.155z"/>
			</g>
			<g>
				<path class="st1" d="M64,43.155c-4.636,0-8.395,3.739-8.395,8.351c0,3.122,1.725,5.838,4.275,7.271
					c0.004-0.069,0.019-0.136,0.019-0.206c0-2.124,1.731-3.846,3.867-3.846h7.98c0.417-0.991,0.648-2.078,0.648-3.219
					C72.395,46.893,68.636,43.155,64,43.155z"/>
			</g>
		</g>
	</g>
	<g>
		<g>
			<g>
				<path class="st5" d="M62.163,91.186c-0.26,0-0.515-0.101-0.706-0.291l-8.691-8.646c-0.188-0.187-0.294-0.443-0.294-0.709
					c0-4.999-0.894-10.312-2.733-16.246l-0.062-0.22c-0.011-0.027-0.02-0.056-0.028-0.085c-0.277-0.974-0.432-2.037-0.474-3.25
					l0-0.987c0.304-3.11,2.811-5.381,5.835-5.381c1.598,0,3.062,0.63,4.131,1.695c0.637-1.938,2.47-3.342,4.627-3.342h11.758
					c0.432,0,0.813,0.276,0.949,0.685c0.348,1.051,0.524,2.134,0.524,3.219v11.437c0,4.917-3.565,9.183-8.293,9.925
					c-1.579,0.245-3.16,0.12-4.644-0.367v1.97l-0.903,9.685c-0.036,0.385-0.292,0.715-0.655,0.847
					C62.392,91.166,62.277,91.186,62.163,91.186z M54.469,81.123l6.896,6.86l0.701-7.481l-0.004-3.377
					c0-0.348,0.182-0.672,0.479-0.853c0.298-0.182,0.669-0.195,0.979-0.035c1.502,0.776,3.19,1.046,4.875,0.779
					c3.765-0.59,6.604-4.008,6.604-7.95V57.629c0-0.638-0.076-1.276-0.228-1.905H63.766c-1.581,0-2.867,1.277-2.867,2.847
					c0,0.54-0.097,1.085-0.289,1.622c-0.146,0.406-0.523,0.631-0.969,0.663c-0.432-0.012-0.808-0.3-0.932-0.714
					c-0.494-1.656-1.982-2.77-3.702-2.77c-1.992,0-3.643,1.497-3.84,3.481l0.005,0.854c0.034,0.979,0.157,1.857,0.374,2.651
					c0.011,0.027,0.021,0.056,0.029,0.085l0.074,0.263C53.497,70.668,54.421,76.045,54.469,81.123z"/>
			</g>
		</g>
		<g>
			<g>
				<path class="st5" d="M63.061,78.124c-0.164,0-0.33-0.04-0.483-0.125c-1.415-0.781-2.634-1.926-3.527-3.311
					c-0.299-0.465-0.166-1.082,0.299-1.382c0.465-0.298,1.084-0.165,1.382,0.299c0.715,1.109,1.688,2.023,2.814,2.646
					c0.483,0.266,0.659,0.874,0.391,1.357C63.754,77.938,63.413,78.124,63.061,78.124z"/>
			</g>
		</g>
		<g>
			<g>
				<path class="st5" d="M64,99.5c-8.419,0-16.513-3.1-22.79-8.73c-0.198-0.178-0.317-0.427-0.331-0.693
					c-0.014-0.265,0.08-0.526,0.259-0.723c3.379-3.714,7.697-5.589,8.613-5.959l3.071-2.614c0.397-0.335,0.985-0.313,1.354,0.053
					l7.188,7.15l0.701-7.481c0.036-0.384,0.288-0.711,0.649-0.844c0.359-0.134,0.765-0.049,1.042,0.219l3.708,3.585
					c1.603,0.375,8.705,2.491,12.318,11.151c0.202,0.484-0.005,1.042-0.475,1.277C74.53,98.286,69.38,99.5,64,99.5z M43.329,89.961
					c5.792,4.87,13.091,7.54,20.671,7.54c4.745,0,9.299-1.003,13.553-2.982c-3.678-7.781-10.458-9.102-10.755-9.156
					c-0.194-0.035-0.377-0.128-0.519-0.265l-2.417-2.337l-0.705,7.519c-0.036,0.385-0.292,0.715-0.655,0.847
					c-0.362,0.133-0.771,0.042-1.046-0.231l-8.039-7.997l-2.497,2.126c-0.087,0.074-0.188,0.133-0.295,0.174
					C50.584,85.214,46.609,86.743,43.329,89.961z"/>
			</g>
		</g>
		<g>
			<g>
				<path class="st5" d="M64,99.47c-18.782,0-34.062-15.202-34.062-33.886c0-3.838,0.64-7.603,1.901-11.192
					c0.183-0.52,0.752-0.795,1.275-0.611c0.521,0.182,0.795,0.753,0.612,1.274c-1.187,3.375-1.788,6.917-1.788,10.529
					c0,17.583,14.383,31.888,32.062,31.888c17.68,0,32.062-14.305,32.062-31.888c0-3.609-0.602-7.151-1.788-10.529
					c-0.184-0.52,0.091-1.091,0.612-1.274c0.52-0.183,1.092,0.09,1.274,0.612c1.262,3.59,1.901,7.355,1.901,11.191
					C98.062,84.269,82.782,99.47,64,99.47z"/>
			</g>
		</g>
		<g>
			<g>
				<path class="st5" d="M86.122,52.505H72.395c-0.553,0-1-0.447-1-0.999c0-4.054-3.317-7.352-7.395-7.352
					c-4.078,0-7.395,3.298-7.395,7.352c0,0.552-0.448,0.999-1,0.999H41.878c-0.552,0-1-0.447-1-0.999v-3.863
					c0-0.552,0.448-0.999,1-0.999h6.508c0.292-0.93,0.666-1.83,1.117-2.688l-4.597-4.572c-0.188-0.187-0.294-0.443-0.294-0.709
					s0.106-0.521,0.294-0.709l5.49-5.461c0.391-0.388,1.021-0.388,1.411,0l4.602,4.577c0.866-0.451,1.772-0.824,2.708-1.114V29.5
					c0-0.552,0.448-0.999,1-0.999h7.764c0.553,0,1,0.447,1,0.999v6.468c0.938,0.292,1.845,0.665,2.708,1.115l4.603-4.578
					c0.389-0.388,1.021-0.388,1.41,0l5.49,5.461c0.188,0.187,0.295,0.443,0.295,0.709s-0.106,0.521-0.295,0.709l-4.597,4.572
					c0.451,0.859,0.825,1.758,1.117,2.688h6.509c0.553,0,1,0.447,1,0.999v3.863C87.122,52.058,86.675,52.505,86.122,52.505z
					 M73.341,50.506h11.781v-1.864H78.86c-0.455,0-0.853-0.306-0.968-0.747c-0.332-1.271-0.837-2.484-1.5-3.607
					c-0.232-0.393-0.168-0.894,0.156-1.216l4.421-4.397l-4.072-4.051l-4.429,4.405c-0.322,0.321-0.819,0.383-1.21,0.154
					c-1.127-0.659-2.348-1.161-3.628-1.494c-0.441-0.114-0.749-0.512-0.749-0.967v-6.223h-5.764v6.223
					c0,0.456-0.308,0.853-0.749,0.967c-1.277,0.331-2.498,0.833-3.629,1.493c-0.392,0.23-0.887,0.165-1.21-0.154l-4.428-4.404
					l-4.073,4.051l4.421,4.397c0.324,0.322,0.388,0.823,0.156,1.216c-0.663,1.122-1.167,2.336-1.501,3.608
					c-0.115,0.439-0.513,0.746-0.967,0.746h-6.261v1.864h11.78c0.503-4.687,4.5-8.351,9.342-8.351
					C68.841,42.155,72.839,45.819,73.341,50.506z"/>
			</g>
		</g>
		<g>
			<g>
				<path class="st5" d="M59.814,59.755c-0.147,0-0.292-0.033-0.424-0.107c-2.951-1.658-4.785-4.779-4.785-8.142
					c0-5.156,4.214-9.35,9.395-9.35c5.18,0,9.395,4.194,9.395,9.35c0,1.247-0.244,2.46-0.727,3.607
					c-0.156,0.371-0.52,0.612-0.922,0.612h-7.98c-1.581,0-2.867,1.277-2.867,2.847c0,0.082-0.008,0.163-0.018,0.244
					c-0.042,0.33-0.25,0.662-0.547,0.811C60.172,59.707,59.992,59.755,59.814,59.755z M64,44.154c-4.077,0-7.395,3.298-7.395,7.352
					c0,2.14,0.946,4.155,2.54,5.537c0.644-1.923,2.472-3.317,4.621-3.317h7.284c0.229-0.715,0.345-1.46,0.345-2.22
					C71.395,47.452,68.077,44.154,64,44.154z"/>
			</g>
		</g>
		<g>
			<g>
				<path class="st5" d="M123,64.999H97.062c-0.553,0-1-0.447-1-0.999c0-0.552,0.447-0.999,1-0.999H123c1.654,0,3-1.337,3-2.979
					V20.978c0-1.642-1.346-2.979-3-2.979H68c-1.654,0-3,1.337-3,2.979V29.5c0,0.552-0.448,0.999-1,0.999s-1-0.447-1-0.999v-8.522
					C63,18.233,65.243,16,68,16h55c2.757,0,5,2.233,5,4.978v39.043C128,62.766,125.757,64.999,123,64.999z"/>
			</g>
		</g>
		<g>
			<g>
				<path class="st5" d="M60,112H5c-2.757,0-5-2.233-5-4.978V67.979c0-2.745,2.243-4.978,5-4.978h25.976c0.552,0,1,0.447,1,0.999
					c0,0.552-0.448,0.999-1,0.999H5c-1.654,0-3,1.337-3,2.979v39.043c0,1.642,1.346,2.979,3,2.979h55c1.654,0,3-1.337,3-2.979
					v-8.551c0-0.552,0.448-0.999,1-0.999s1,0.447,1,0.999v8.551C65,109.767,62.757,112,60,112z"/>
			</g>
		</g>
		<g>
			<g>
				<path class="st5" d="M116.519,28.509H85.5c-0.553,0-1-0.447-1-0.999c0-0.552,0.447-0.999,1-0.999h31.019
					c0.553,0,1,0.447,1,0.999C117.519,28.062,117.071,28.509,116.519,28.509z"/>
			</g>
		</g>
		<g>
			<g>
				<path class="st5" d="M116.519,37.82H91.5c-0.553,0-1-0.447-1-0.999c0-0.552,0.447-0.999,1-0.999h25.019c0.553,0,1,0.447,1,0.999
					C117.519,37.373,117.071,37.82,116.519,37.82z"/>
			</g>
		</g>
		<g>
			<g>
				<path class="st5" d="M116.519,47.131H95.5c-0.553,0-1-0.447-1-0.999s0.447-0.999,1-0.999h21.019c0.553,0,1,0.447,1,0.999
					S117.071,47.131,116.519,47.131z"/>
			</g>
		</g>
		<g>
			<g>
				<path class="st5" d="M36.538,101.489H11.52c-0.552,0-1-0.447-1-0.999c0-0.552,0.448-0.999,1-0.999h25.019
					c0.552,0,1,0.447,1,0.999C37.538,101.043,37.09,101.489,36.538,101.489z"/>
			</g>
		</g>
		<g>
			<g>
				<path class="st5" d="M28.538,92.178H11.52c-0.552,0-1-0.447-1-0.999c0-0.552,0.448-0.999,1-0.999h17.019
					c0.552,0,1,0.447,1,0.999C29.538,91.731,29.09,92.178,28.538,92.178z"/>
			</g>
		</g>
		<g>
			<g>
				<path class="st5" d="M22.538,82.867H11.52c-0.552,0-1-0.447-1-0.999c0-0.552,0.448-0.999,1-0.999h11.019
					c0.552,0,1,0.447,1,0.999C23.538,82.42,23.09,82.867,22.538,82.867z"/>
			</g>
		</g>
		<g>
			<g>
				<path class="st5" d="M20.946,65c-0.012,0-0.024,0-0.037-0.001c-0.552-0.02-0.983-0.483-0.963-1.034
					C20.811,40.281,40.161,21.729,64,21.729c0.552,0,1,0.447,1,0.999c0,0.552-0.448,0.999-1,0.999
					c-22.757,0-41.23,17.706-42.055,40.31C21.925,64.577,21.482,65,20.946,65z"/>
			</g>
		</g>
	</g>
</g>
</svg>
