<?xml version="1.0" encoding="utf-8"?>
<!-- Generator: Adobe Illustrator 22.0.0, SVG Export Plug-In . SVG Version: 6.00 Build 0)  -->
<svg version="1.1" id="MARKET_RESEARCH_ICON_SET" xmlns="http://www.w3.org/2000/svg" xmlns:xlink="http://www.w3.org/1999/xlink"
	 x="0px" y="0px" viewBox="0 0 128 128" style="enable-background:new 0 0 128 128;" xml:space="preserve">
<style type="text/css">
	.st0{fill:#C2D5EC;}
	.st1{fill:#61E1FF;}
	.st2{fill:#7184AF;}
	.st3{fill:#F8F8F8;}
	.st4{fill:#3F4D81;}
	.st5{fill:#3F4D80;}
	.st6{fill:#E9EAEB;}
	.st7{fill:#F79559;}
	.st8{fill:#FFA85A;}
</style>
<g>
	<g>
		<g>
			<polygon class="st0" points="128,35.606 111.12,35.606 85.283,53.464 0,53.464 0,89.808 128,89.808 			"/>
		</g>
		<g>
			<path class="st5" d="M85.283,53.464H59.569v13.554c0,1.641-1.333,2.971-2.978,2.971h-7.19c-1.645,0-2.978,1.33-2.978,2.971v7.051
				l-8.291-9.054c-0.564-0.616-1.362-0.967-2.199-0.967h-6.221c-0.27,1.622-0.418,3.287-0.418,4.985
				c0,5.393,1.424,10.452,3.907,14.834h52.735c2.483-4.382,3.907-9.441,3.907-14.834c0-4.136-0.836-8.077-2.344-11.667
				c0.772,0.071,1.553,0.112,2.344,0.112c13.96,0,25.277-11.289,25.277-25.214c0-0.877-0.045-1.744-0.133-2.598h-3.867
				L85.283,53.464z"/>
		</g>
		<g>
			<g>
				<path class="st1" d="M55.569,40.784c-1.001,0-1.99,0.052-2.967,0.146c1.639,0.006,2.967,1.333,2.967,2.969v19.128
					c0,1.641-1.333,2.971-2.978,2.971h-7.19c-1.645,0-2.978,1.33-2.978,2.971v7.051l-8.291-9.054
					c-0.564-0.616-1.362-0.967-2.199-0.967h-6.221c-0.27,1.622-0.418,3.286-0.418,4.985c0,16.679,13.554,30.2,30.275,30.2
					s30.275-13.521,30.275-30.2C85.844,54.305,72.289,40.784,55.569,40.784z"/>
			</g>
			<g>
				<g>
					<path class="st5" d="M77.914,83.54V64.412c0-1.64-1.333-2.97-2.978-2.97H58.569V46.892c0-1.641-1.333-2.971-2.978-2.971h-0.022
						v19.106c0,1.641-1.333,2.971-2.978,2.971h-7.19c-1.645,0-2.978,1.33-2.978,2.971v7.051l-3.199-3.493V83.54
						c0,1.641,1.333,2.971,2.978,2.971h7.19c1.645,0,2.978,1.33,2.978,2.971v7.051l8.291-9.054c0.564-0.616,1.362-0.967,2.199-0.967
						h12.076C76.58,86.511,77.914,85.181,77.914,83.54z"/>
				</g>
				<g>
					<path class="st5" d="M52.37,97.532c-0.122,0-0.244-0.022-0.362-0.068c-0.385-0.149-0.638-0.52-0.638-0.932v-7.051
						c0-1.087-0.887-1.971-1.978-1.971h-7.19c-2.193,0-3.978-1.781-3.978-3.971V72.526c0-0.412,0.253-0.782,0.638-0.932
						s0.82-0.049,1.1,0.257l1.461,1.595v-4.478c0-2.189,1.785-3.971,3.979-3.971h7.189c1.091,0,1.979-0.884,1.979-1.971V43.922
						c0-0.553,0.447-1,1-1c2.215,0,4,1.781,4,3.971v13.549h15.366c2.193,0,3.979,1.781,3.979,3.971V83.54
						c0,2.189-1.785,3.971-3.979,3.971H62.86c-0.555,0-1.088,0.234-1.462,0.643l-8.291,9.055
						C52.914,97.419,52.646,97.532,52.37,97.532z M40.225,75.1v8.44c0,1.087,0.887,1.971,1.978,1.971h7.19
						c2.193,0,3.978,1.781,3.978,3.971v4.478l6.554-7.157c0.752-0.82,1.822-1.291,2.937-1.291h12.075
						c1.091,0,1.979-0.884,1.979-1.971V64.412c0-1.087-0.888-1.971-1.979-1.971H58.569c-0.553,0-1-0.447-1-1V46.893
						c0-0.732-0.403-1.373-1-1.712v17.847c0,2.189-1.785,3.971-3.979,3.971h-7.189c-1.091,0-1.979,0.884-1.979,1.971v7.051
						c0,0.412-0.253,0.782-0.638,0.932c-0.384,0.149-0.82,0.049-1.1-0.257L40.225,75.1z"/>
				</g>
				<g>
					<path class="st5" d="M34.933,68.991c0.487,0,0.954,0.131,1.376,0.352l-2.177-2.377c-0.564-0.616-1.362-0.967-2.199-0.967
						h-6.221c-0.164,0.981-0.265,1.983-0.333,2.993H34.933z"/>
				</g>
				<g>
					<path class="st5" d="M36.308,70.343c-0.156,0-0.315-0.037-0.463-0.114c-0.301-0.157-0.608-0.237-0.912-0.237H25.38
						c-0.276,0-0.541-0.114-0.73-0.316c-0.188-0.202-0.286-0.474-0.268-0.75c0.077-1.154,0.189-2.165,0.345-3.092
						c0.081-0.481,0.498-0.835,0.986-0.835h6.22c1.113,0,2.184,0.471,2.937,1.291l2.177,2.379c0.328,0.357,0.352,0.899,0.056,1.284
						C36.906,70.206,36.61,70.343,36.308,70.343z M26.464,67.991h7.252l-0.321-0.352c-0.374-0.407-0.907-0.642-1.462-0.642h-5.357
						C26.534,67.316,26.496,67.646,26.464,67.991z"/>
				</g>
			</g>
			<g>
				<path class="st7" d="M84.101,96.642c0.351-0.35,0.755-0.609,1.182-0.801l-6.049-6.034c-1.414,1.767-3.022,3.371-4.794,4.782
					l6.049,6.034c0.192-0.426,0.452-0.829,0.803-1.179L84.101,96.642z"/>
			</g>
			<g>
				<path class="st2" d="M81.252,105.009l12.879,12.847c1.529,1.526,4.009,1.526,5.539,0l2.888-2.881
					c1.529-1.526,1.529-3.999,0-5.525L89.679,96.603c-1.529-1.526-4.009-1.526-5.539,0l-2.888,2.881
					C79.723,101.01,79.723,103.483,81.252,105.009z"/>
			</g>
			<g>
				<path class="st8" d="M71.936,58.449H55.569v4.579c0,1.641-1.333,2.971-2.978,2.971h-7.19c-1.645,0-2.978,1.33-2.978,2.971v7.051
					l-6.199-6.769v11.297c0,1.641,1.333,2.971,2.978,2.971h7.19c1.645,0,2.978,1.33,2.978,2.971v7.051l8.291-9.054
					c0.564-0.616,1.362-0.967,2.199-0.967h12.075c1.645,0,2.978-1.33,2.978-2.971V61.419C74.914,59.779,73.58,58.449,71.936,58.449z
					"/>
			</g>
			<g>
				<path class="st7" d="M55.569,58.449v4.578c0,1.641-1.333,2.971-2.978,2.971h-7.19c-1.645,0-2.978,1.33-2.978,2.971v6.767
					l3,3.276v-7.051c0-1.641,1.333-2.971,2.978-2.971h7.19c1.645,0,2.978-1.33,2.978-2.971v-7.571H55.569z"/>
			</g>
			<g>
				<path class="st7" d="M45.423,80.012c-0.275,0-0.544-0.113-0.737-0.324l-3-3.275c-0.169-0.185-0.263-0.426-0.263-0.676v-6.768
					c0-2.189,1.785-3.971,3.979-3.971h7.189c1.091,0,1.979-0.884,1.979-1.971v-4.578c0-0.553,0.447-1,1-1h3c0.553,0,1,0.447,1,1
					v7.571c0,2.189-1.785,3.971-3.979,3.971h-7.189c-1.091,0-1.979,0.884-1.979,1.97v7.051c0,0.412-0.253,0.782-0.638,0.932
					C45.667,79.989,45.545,80.012,45.423,80.012z M43.423,75.348l1,1.092v-4.479c0-2.188,1.785-3.97,3.979-3.97h7.189
					c1.091,0,1.979-0.884,1.979-1.971v-6.571h-1v3.578c0,2.189-1.785,3.971-3.979,3.971h-7.189c-1.091,0-1.979,0.884-1.979,1.971
					V75.348z"/>
			</g>
			<g>
				<path class="st8" d="M16.88,43.9v19.128c0,1.641,1.333,2.971,2.978,2.971h12.076c0.837,0,1.635,0.351,2.199,0.967l8.291,9.054
					v-7.051c0-1.641,1.333-2.971,2.978-2.971h7.19c1.645,0,2.978-1.33,2.978-2.971V43.9c0-1.641-1.333-2.971-2.978-2.971H19.858
					C18.213,40.929,16.88,42.259,16.88,43.9z"/>
			</g>
			<g>
				<path class="st3" d="M55.57,43.903v0.579H21.8c-0.68,0-1.23,0.549-1.23,1.227v20.29h-0.71c-1.65,0-2.98-1.327-2.98-2.973V43.903
					c0-1.646,1.33-2.973,2.98-2.973h32.73C54.24,40.931,55.57,42.257,55.57,43.903z"/>
			</g>
		</g>
		<g>
			<g>
				<rect x="21.282" y="26.365" class="st1" width="4.269" height="7.989"/>
			</g>
			<g>
				<rect x="29.821" y="21.99" class="st1" width="4.269" height="12.365"/>
			</g>
			<g>
				<rect x="38.359" y="17.995" class="st1" width="4.269" height="16.359"/>
			</g>
			<g>
				<rect x="46.897" y="14.001" class="st1" width="4.269" height="20.354"/>
			</g>
		</g>
		<g>
			<ellipse class="st2" cx="85.844" cy="34.214" rx="25.277" ry="25.214"/>
		</g>
		<g>
			<ellipse class="st3" cx="85.844" cy="34.214" rx="21.071" ry="21.019"/>
		</g>
	</g>
	<g>
		<g>
			<g>
				<g>
					<path class="st5" d="M127,90.808H79.234c-0.553,0-1-0.447-1-1s0.447-1,1-1H127c0.553,0,1,0.447,1,1S127.553,90.808,127,90.808z
						"/>
				</g>
			</g>
			<g>
				<g>
					<path class="st5" d="M31.9,90.808H1c-0.553,0-1-0.447-1-1s0.447-1,1-1h30.9c0.553,0,1,0.447,1,1S32.453,90.808,31.9,90.808z"/>
				</g>
			</g>
		</g>
		<g>
			<g>
				<g>
					<path class="st5" d="M80.488,101.623c-0.263,0-0.517-0.104-0.706-0.292l-6.048-6.033c-0.202-0.201-0.309-0.479-0.292-0.764
						c0.016-0.284,0.152-0.549,0.375-0.727c1.71-1.362,3.271-2.918,4.637-4.625c0.177-0.222,0.44-0.357,0.725-0.373
						c0.277-0.02,0.561,0.089,0.762,0.29l6.048,6.034c0.233,0.232,0.337,0.564,0.277,0.889c-0.06,0.323-0.273,0.597-0.574,0.731
						c-0.346,0.155-0.644,0.356-0.885,0.597l-2.809,2.802c-0.241,0.241-0.442,0.538-0.599,0.883
						c-0.135,0.299-0.408,0.513-0.731,0.571C80.608,101.618,80.548,101.623,80.488,101.623z M75.926,94.659l4.386,4.375
						c0.088-0.104,0.179-0.203,0.274-0.298l2.809-2.802l0,0c0.094-0.094,0.192-0.184,0.295-0.27l-4.386-4.376
						C78.266,92.495,77.135,93.624,75.926,94.659z"/>
				</g>
			</g>
			<g>
				<g>
					<path class="st5" d="M96.9,119.998c-1.259,0-2.518-0.479-3.476-1.435l-12.879-12.847c-0.93-0.927-1.441-2.159-1.441-3.47
						c0-1.312,0.512-2.544,1.441-3.471l2.889-2.882c1.916-1.91,5.034-1.912,6.95,0l12.879,12.848c0.93,0.927,1.44,2.159,1.44,3.47
						c0,1.312-0.511,2.544-1.44,3.471l-2.888,2.881C99.418,119.52,98.159,119.998,96.9,119.998z M86.91,96.46
						c-0.748,0-1.494,0.283-2.063,0.851l-2.889,2.882c-0.55,0.549-0.854,1.278-0.854,2.055c0,0.775,0.304,1.505,0.854,2.054l0,0
						l12.879,12.847c1.139,1.135,2.988,1.137,4.127,0l2.888-2.881c0.55-0.549,0.853-1.278,0.853-2.055
						c0-0.775-0.303-1.505-0.853-2.054L88.973,97.311C88.404,96.743,87.656,96.46,86.91,96.46z"/>
				</g>
			</g>
			<g>
				<g>
					<path class="st5" d="M49.37,94.539c-0.122,0-0.244-0.022-0.362-0.068c-0.385-0.149-0.638-0.52-0.638-0.932v-7.051
						c0-1.087-0.887-1.971-1.978-1.971h-7.19c-2.193,0-3.978-1.781-3.978-3.97V69.25c0-0.412,0.253-0.782,0.638-0.932
						c0.387-0.149,0.821-0.048,1.1,0.256l4.461,4.872v-4.478c0-2.189,1.785-3.971,3.979-3.971h7.189
						c1.091,0,1.979-0.884,1.979-1.971v-4.578c0-0.553,0.447-1,1-1h16.366c2.193,0,3.979,1.781,3.979,3.971v19.128
						c0,2.188-1.785,3.97-3.979,3.97H59.86c-0.555,0-1.087,0.234-1.462,0.644l-8.291,9.054
						C49.914,94.426,49.646,94.539,49.37,94.539z M37.225,71.823v8.725c0,1.086,0.887,1.97,1.978,1.97h7.19
						c2.193,0,3.978,1.781,3.978,3.971v4.479l6.554-7.157c0.752-0.821,1.822-1.292,2.937-1.292h12.075
						c1.091,0,1.979-0.884,1.979-1.97V61.42c0-1.087-0.888-1.971-1.979-1.971H56.569v3.578c0,2.189-1.785,3.971-3.979,3.971h-7.189
						c-1.091,0-1.979,0.884-1.979,1.971v7.051c0,0.412-0.253,0.782-0.638,0.932c-0.384,0.149-0.82,0.049-1.1-0.256L37.225,71.823z"
						/>
				</g>
			</g>
			<g>
				<g>
					<g>
						<path class="st5" d="M42.423,77.02c-0.275,0-0.544-0.113-0.737-0.324l-8.291-9.054c-0.375-0.409-0.907-0.644-1.462-0.644
							H19.857c-2.193,0-3.978-1.781-3.978-3.971V43.899c0-2.189,1.784-3.971,3.978-3.971h32.733c2.193,0,3.979,1.781,3.979,3.971
							v19.128c0,2.189-1.785,3.971-3.979,3.971h-7.189c-1.091,0-1.979,0.884-1.979,1.971v7.051c0,0.412-0.253,0.782-0.638,0.932
							C42.667,76.997,42.545,77.02,42.423,77.02z M19.857,41.929c-1.091,0-1.978,0.884-1.978,1.971v19.128
							c0,1.087,0.887,1.971,1.978,1.971h12.075c1.114,0,2.185,0.471,2.937,1.292l6.554,7.157v-4.479
							c0-2.189,1.785-3.971,3.979-3.971h7.189c1.091,0,1.979-0.884,1.979-1.971V43.899c0-1.087-0.888-1.971-1.979-1.971H19.857z"/>
					</g>
				</g>
				<g>
					<g>
						<path class="st5" d="M48.302,48.305H24.146c-0.553,0-1-0.447-1-1s0.447-1,1-1h24.155c0.553,0,1,0.447,1,1
							S48.854,48.305,48.302,48.305z"/>
					</g>
				</g>
				<g>
					<g>
						<path class="st5" d="M48.302,54.464H24.146c-0.553,0-1-0.447-1-1s0.447-1,1-1h24.155c0.553,0,1,0.447,1,1
							S48.854,54.464,48.302,54.464z"/>
					</g>
				</g>
				<g>
					<g>
						<path class="st5" d="M48.302,60.623H24.146c-0.553,0-1-0.447-1-1s0.447-1,1-1h24.155c0.553,0,1,0.447,1,1
							S48.854,60.623,48.302,60.623z"/>
					</g>
				</g>
			</g>
			<g>
				<g>
					<path class="st5" d="M55.569,102.183c-17.245,0-31.274-13.996-31.274-31.199c0-1.7,0.146-3.433,0.432-5.149
						c0.08-0.482,0.497-0.836,0.986-0.836h6.22c1.113,0,2.184,0.471,2.937,1.291l6.554,7.157v-4.478
						c0-2.189,1.785-3.971,3.979-3.971h7.189c1.091,0,1.979-0.884,1.979-1.971V43.899c0-1.082-0.884-1.965-1.971-1.97
						c-0.533-0.002-0.971-0.422-0.995-0.954c-0.024-0.531,0.372-0.989,0.902-1.041c3.164-0.306,6.278-0.14,9.303,0.472
						c0.362,0.073,0.655,0.341,0.761,0.695c2.792,9.402,11.239,16.321,21.021,17.219c0.367,0.034,0.687,0.268,0.83,0.608
						c1.607,3.825,2.423,7.881,2.423,12.055C86.844,88.187,72.814,102.183,55.569,102.183z M26.572,66.998
						c-0.185,1.333-0.277,2.67-0.277,3.985c0,16.101,13.133,29.199,29.274,29.199s29.274-13.099,29.274-29.199
						c0-3.708-0.688-7.316-2.044-10.734c-10.127-1.173-18.836-8.307-21.967-17.993c-1.604-0.29-3.239-0.447-4.877-0.469
						c0.389,0.612,0.613,1.337,0.613,2.112v19.128c0,2.189-1.785,3.971-3.979,3.971h-7.189c-1.091,0-1.979,0.884-1.979,1.971v7.051
						c0,0.412-0.253,0.782-0.638,0.932c-0.384,0.149-0.82,0.049-1.1-0.256l-8.291-9.055c-0.374-0.408-0.907-0.643-1.462-0.643
						H26.572z"/>
				</g>
			</g>
		</g>
		<g>
			<g>
				<g>
					<path class="st5" d="M25.552,35.354h-4.27c-0.553,0-1-0.447-1-1v-7.989c0-0.553,0.447-1,1-1h4.27c0.553,0,1,0.447,1,1v7.989
						C26.552,34.907,26.104,35.354,25.552,35.354z M22.282,33.354h2.27v-5.989h-2.27V33.354z"/>
				</g>
			</g>
			<g>
				<g>
					<path class="st5" d="M34.09,35.354h-4.27c-0.553,0-1-0.447-1-1V21.99c0-0.553,0.447-1,1-1h4.27c0.553,0,1,0.447,1,1v12.364
						C35.09,34.907,34.643,35.354,34.09,35.354z M30.82,33.354h2.27V22.99h-2.27V33.354z"/>
				</g>
			</g>
			<g>
				<g>
					<path class="st5" d="M42.628,35.354h-4.27c-0.553,0-1-0.447-1-1V17.995c0-0.553,0.447-1,1-1h4.27c0.553,0,1,0.447,1,1v16.359
						C43.628,34.907,43.181,35.354,42.628,35.354z M39.358,33.354h2.27V18.995h-2.27V33.354z"/>
				</g>
			</g>
			<g>
				<g>
					<path class="st5" d="M51.166,35.354h-4.269c-0.553,0-1-0.447-1-1V14.001c0-0.553,0.447-1,1-1h4.269c0.553,0,1,0.447,1,1v20.354
						C52.166,34.907,51.719,35.354,51.166,35.354z M47.897,33.354h2.269V15.001h-2.269V33.354z"/>
				</g>
			</g>
		</g>
		<g>
			<g>
				<path class="st5" d="M85.844,60.429c-14.489,0-26.277-11.76-26.277-26.215C59.566,19.76,71.354,8,85.844,8
					s26.276,11.76,26.276,26.214C112.12,48.669,100.333,60.429,85.844,60.429z M85.844,10c-13.387,0-24.277,10.862-24.277,24.214
					c0,13.353,10.891,24.215,24.277,24.215c13.386,0,24.276-10.862,24.276-24.215C110.12,20.862,99.229,10,85.844,10z"/>
			</g>
		</g>
		<g>
			<g>
				<path class="st5" d="M85.844,56.233c-12.17,0-22.071-9.878-22.071-22.02c0-12.141,9.901-22.019,22.071-22.019
					s22.07,9.878,22.07,22.019C107.914,46.355,98.014,56.233,85.844,56.233z M85.844,14.195c-11.067,0-20.071,8.98-20.071,20.019
					c0,11.039,9.004,20.02,20.071,20.02c11.066,0,20.07-8.98,20.07-20.02C105.914,23.176,96.91,14.195,85.844,14.195z"/>
			</g>
		</g>
		<g>
			<g>
				<g>
					<g>
						<path class="st5" d="M78.156,38.491c-0.256,0-0.511-0.098-0.706-0.292l-6.457-6.441c-0.392-0.39-0.392-1.023-0.002-1.414
							c0.391-0.393,1.023-0.391,1.414-0.002l6.457,6.441c0.392,0.39,0.392,1.023,0.002,1.414
							C78.669,38.394,78.412,38.491,78.156,38.491z"/>
					</g>
				</g>
				<g>
					<g>
						<path class="st5" d="M71.699,38.491c-0.257,0-0.513-0.098-0.708-0.294c-0.39-0.391-0.39-1.024,0.002-1.414l6.457-6.441
							c0.392-0.39,1.024-0.39,1.414,0.002c0.39,0.391,0.39,1.024-0.002,1.414l-6.457,6.441
							C72.21,38.394,71.955,38.491,71.699,38.491z"/>
					</g>
				</g>
			</g>
			<g>
				<g>
					<g>
						<path class="st5" d="M89.297,33.646H83.67c-0.553,0-1-0.447-1-1s0.447-1,1-1h5.627c0.553,0,1,0.447,1,1
							S89.85,33.646,89.297,33.646z"/>
					</g>
				</g>
				<g>
					<g>
						<path class="st5" d="M89.297,37.133H83.67c-0.553,0-1-0.447-1-1s0.447-1,1-1h5.627c0.553,0,1,0.447,1,1
							S89.85,37.133,89.297,37.133z"/>
					</g>
				</g>
			</g>
			<g>
				<g>
					<path class="st5" d="M84.863,39.924c-0.111,0-0.226-0.019-0.337-0.059c-0.52-0.186-0.791-0.758-0.604-1.278l3.24-9.068
						c0.186-0.519,0.757-0.792,1.278-0.604c0.52,0.186,0.791,0.758,0.604,1.278l-3.24,9.068
						C85.659,39.669,85.273,39.924,84.863,39.924z"/>
				</g>
			</g>
			<g>
				<g>
					<path class="st5" d="M97.187,38.704c-2.112,0-3.83-2.03-3.83-4.525c0-2.496,1.718-4.526,3.83-4.526
						c2.111,0,3.829,2.03,3.829,4.526C101.017,36.674,99.299,38.704,97.187,38.704z M97.187,31.652c-0.992,0-1.83,1.157-1.83,2.526
						s0.838,2.525,1.83,2.525c0.991,0,1.829-1.156,1.829-2.525S98.179,31.652,97.187,31.652z"/>
				</g>
			</g>
		</g>
		<g>
			<g>
				<path class="st5" d="M100.003,87.552c-0.11,0-0.223-0.019-0.333-0.058c-0.521-0.184-0.794-0.755-0.609-1.275
					c0.216-0.613,0.42-1.232,0.609-1.858c0.16-0.527,0.713-0.825,1.248-0.666c0.528,0.161,0.826,0.72,0.666,1.248
					c-0.199,0.653-0.411,1.302-0.639,1.942C100.801,87.296,100.415,87.552,100.003,87.552z M101.627,81.78
					c-0.068,0-0.139-0.007-0.208-0.021c-0.54-0.114-0.886-0.646-0.771-1.186c0.135-0.637,0.258-1.278,0.366-1.925
					c0.092-0.544,0.606-0.909,1.152-0.82c0.545,0.092,0.912,0.608,0.82,1.152c-0.114,0.674-0.241,1.343-0.382,2.007
					C102.505,81.458,102.09,81.78,101.627,81.78z M102.495,75.846c-0.027,0-0.055-0.001-0.082-0.003
					c-0.55-0.045-0.96-0.527-0.916-1.078c0.053-0.648,0.092-1.301,0.118-1.955c0.021-0.539,0.464-0.961,0.998-0.961
					c0.014,0,0.027,0,0.04,0.001c0.552,0.021,0.981,0.486,0.96,1.038c-0.026,0.684-0.067,1.363-0.122,2.039
					C103.448,75.449,103.011,75.846,102.495,75.846z M102.603,69.849c-0.531,0-0.974-0.419-0.998-0.955
					c-0.029-0.654-0.072-1.306-0.129-1.953c-0.048-0.551,0.359-1.035,0.909-1.083c0.542-0.063,1.035,0.358,1.083,0.909
					c0.059,0.675,0.104,1.354,0.135,2.037c0.025,0.552-0.402,1.019-0.954,1.044C102.634,69.849,102.618,69.849,102.603,69.849z
					 M101.954,63.889c-0.477,0-0.899-0.342-0.984-0.827c-0.112-0.645-0.238-1.286-0.377-1.922c-0.118-0.539,0.224-1.072,0.764-1.189
					c0.535-0.125,1.072,0.225,1.189,0.764c0.145,0.663,0.276,1.33,0.395,2.002c0.095,0.544-0.269,1.062-0.812,1.158
					C102.069,63.884,102.011,63.889,101.954,63.889z M100.549,58.061c-0.427,0-0.822-0.274-0.955-0.703
					c-0.194-0.625-0.401-1.243-0.621-1.855c-0.187-0.52,0.084-1.093,0.604-1.279c0.516-0.187,1.093,0.083,1.279,0.604
					c0.229,0.64,0.446,1.285,0.648,1.938c0.164,0.528-0.131,1.088-0.658,1.252C100.746,58.046,100.646,58.061,100.549,58.061z"/>
			</g>
		</g>
	</g>
</g>
</svg>
