<?xml version="1.0" encoding="utf-8"?>
<!-- Generator: Adobe Illustrator 22.0.0, SVG Export Plug-In . SVG Version: 6.00 Build 0)  -->
<svg version="1.1" id="MARKET_RESEARCH_ICON_SET" xmlns="http://www.w3.org/2000/svg" xmlns:xlink="http://www.w3.org/1999/xlink"
	 x="0px" y="0px" viewBox="0 0 128 128" style="enable-background:new 0 0 128 128;" xml:space="preserve">
<style type="text/css">
	.st0{fill:#C2D5EC;}
	.st1{fill:#61E1FF;}
	.st2{fill:#7184AF;}
	.st3{fill:#F8F8F8;}
	.st4{fill:#3F4D81;}
	.st5{fill:#3F4D80;}
	.st6{fill:#E9EAEB;}
	.st7{fill:#F79559;}
	.st8{fill:#FFA85A;}
</style>
<g>
	<g>
		<g>
			<ellipse class="st0" cx="21.531" cy="62.996" rx="18.19" ry="18.267"/>
		</g>
		<g>
			<path class="st0" d="M109.815,58.261c0,0.008,0.001,0.015,0.001,0.022c0,5.435-4.387,9.841-9.799,9.841s-9.799-4.406-9.799-9.841
				c0-0.007,0.001-0.015,0.001-0.022H30.913v52.182H127V58.261H109.815z"/>
		</g>
		<g>
			<path class="st5" d="M112.816,61.296c0,3.809-2.159,7.106-5.311,8.741c-0.605-1.243-1.332-2.412-2.155-3.505
				c-1.536,1.003-3.365,1.592-5.333,1.592c-5.412,0-9.799-4.406-9.799-9.841c0-0.007,0.001-0.015,0.001-0.022H77.034v3.011
				c-6.025,3.79-10.045,10.498-10.045,18.164c0,11.841,9.559,21.44,21.35,21.44c5.068,0,9.717-1.782,13.379-4.744
				c-0.025,0.02-0.046,0.044-0.071,0.063l4.265,4.284c-0.464,1.035-0.28,2.291,0.566,3.141l6.794,6.823h8.38
				c0.87-1.104,0.81-2.706-0.205-3.726l-9.026-9.065c-0.847-0.85-2.097-1.035-3.128-0.569l-4.265-4.284
				c-0.02,0.025-0.043,0.046-0.063,0.071c2.95-3.677,4.724-8.346,4.724-13.435c0-0.617-0.041-1.224-0.092-1.827
				c0.721-0.291,1.419-0.627,2.088-1.01l6.5,6.527l6.41-6.437l-6.461-6.488c0.762-1.301,1.36-2.705,1.77-4.192H127v-7.747h-14.664
				C112.645,59.218,112.816,60.236,112.816,61.296z"/>
		</g>
		<g>
			<g>
				<path class="st6" d="M26.773,111.5h53.324c2.895,0,5.242-2.357,5.242-5.264V21.764c0-2.907-2.347-5.264-5.242-5.264H34.96
					L21.531,29.986v76.25C21.531,109.143,23.878,111.5,26.773,111.5z"/>
			</g>
			<g>
				<path class="st2" d="M37.96,30.627V16.5l-3,0L21.531,29.986v3.012h14.068C36.903,32.998,37.96,31.937,37.96,30.627z"/>
			</g>
			<g>
				<path class="st2" d="M85.339,59.236c-10.367,1.468-18.35,10.388-18.35,21.204s7.983,19.736,18.35,21.204V59.236z"/>
			</g>
			<g>
				<path class="st2" d="M32.895,56.461c-3.164-2.806-7.453-3.727-11.364-2.783V91.44h6.165c1.748,0,3.166-1.423,3.166-3.179v-6.358
					c0-1.444,0.541-3.001,1.132-4.27c0.599-1.287,1.418-2.452,2.318-3.548C38.579,68.886,38.106,61.082,32.895,56.461z"/>
			</g>
			<g>
				<polygon class="st2" points="34.96,16.5 34.96,29.986 21.531,29.986 				"/>
			</g>
			<g>
				<path class="st5" d="M80.097,112.5H26.773c-3.442,0-6.242-2.81-6.242-6.264V29.985c0-0.265,0.105-0.519,0.292-0.706
					l13.429-13.485c0.188-0.188,0.442-0.294,0.708-0.294h45.137c3.442,0,6.242,2.81,6.242,6.264v84.473
					C86.339,109.69,83.539,112.5,80.097,112.5z M22.531,30.398v75.838c0,2.351,1.903,4.264,4.242,4.264h53.324
					c2.339,0,4.242-1.913,4.242-4.264V21.764c0-2.351-1.903-4.264-4.242-4.264H35.375L22.531,30.398z"/>
			</g>
		</g>
		<g>
			<path class="st2" d="M100.017,68.124c-5.412,0-9.799-4.406-9.799-9.841s4.387-9.841,9.799-9.841c5.412,0,9.799,4.406,9.799,9.841
				S105.429,68.124,100.017,68.124z M126,62.996v-9.108h-9.009c-0.4-1.526-0.98-2.972-1.74-4.308l6.34-6.366l-6.41-6.437l-6.3,6.326
				c-1.34-0.793-2.79-1.406-4.33-1.817v-8.937h-9.069v8.937c-1.54,0.412-2.99,1.024-4.33,1.817l-6.3-6.326l-6.41,6.437l6.34,6.366
				c-0.76,1.336-1.34,2.781-1.74,4.308h-9.009v4.378c1.43-0.904,2.98-1.647,4.62-2.199c2.808-0.939,5.757-1.238,8.699-0.984
				c1.1,0.11,2.18,0.311,3.23,0.582c0-0.01,0.01-0.02,0.01-0.03c6.13,1.557,11.209,5.784,13.929,11.377
				c1.14,2.32,1.87,4.88,2.09,7.582c0.35-0.141,0.69-0.301,1.03-0.462c0.35-0.171,0.7-0.351,1.04-0.542l6.5,6.527l6.41-6.437
				l-6.46-6.497c0.76-1.295,1.36-2.701,1.77-4.187H126z"/>
		</g>
		<g>
			<g>
				<path class="st2" d="M15.2,78.891v6.358c0,1.756,1.417,3.179,3.166,3.179h6.331c1.748,0,3.166-1.423,3.166-3.179v-6.358H15.2z"
					/>
			</g>
			<g>
				<path class="st8" d="M29.896,53.449c-4.736-4.2-11.993-4.2-16.729,0C7.956,58.07,7.483,65.874,11.75,71.072
					c0.9,1.097,1.719,2.261,2.318,3.549c0.591,1.269,1.132,2.826,1.132,4.27h6.331h6.331c0-1.444,0.541-3.001,1.132-4.27
					c0.599-1.287,1.418-2.452,2.318-3.549C35.579,65.874,35.106,58.07,29.896,53.449z"/>
			</g>
		</g>
		<g>
			<g>
				<path class="st6" d="M21.949,88.432h-3.58c-1.75,0-3.17-1.426-3.17-3.183v-6.356h3.59v6.356
					C18.789,87.006,20.209,88.432,21.949,88.432z"/>
			</g>
			<g>
				<path class="st6" d="M17.659,74.624c0.59,1.265,1.13,2.822,1.13,4.268h-3.59c0-1.446-0.54-3.002-1.13-4.268
					c-0.6-1.295-1.42-2.46-2.32-3.555c-4.27-5.192-3.79-13.004,1.42-17.623c2.84-2.52,6.59-3.525,10.159-3.013
					c-2.38,0.331-4.68,1.336-6.58,3.013c-5.21,4.619-5.68,12.432-1.41,17.623C16.239,72.164,17.059,73.329,17.659,74.624z"/>
			</g>
		</g>
		<g>
			<g>
				<ellipse class="st1" cx="85.339" cy="76.424" rx="21.35" ry="21.44"/>
			</g>
			<g>
				<path class="st1" d="M81.393,55.354c-0.69,0.131-1.37,0.291-2.03,0.492C80.023,55.645,80.703,55.475,81.393,55.354z"/>
			</g>
			<g>
				<path class="st1" d="M90.582,55.665c-1.05-0.271-2.13-0.472-3.23-0.582c1.11,0.1,2.19,0.281,3.24,0.552
					C90.592,55.645,90.582,55.655,90.582,55.665z"/>
			</g>
			<g>
				<path class="st1" d="M106.691,76.422c0,11.839-9.559,21.439-21.349,21.439c-11.799,0-21.349-9.6-21.349-21.439
					c0-7.672,4.01-14.4,10.039-18.186c1.43-0.904,2.98-1.637,4.62-2.169c-1.64,0.552-3.19,1.295-4.62,2.199v4.73h9.099
					c0.41,1.486,1.01,2.892,1.77,4.187l-6.46,6.497l6.41,6.437l6.5-6.527c1.28,0.733,2.67,1.305,4.13,1.697v9.248h9.069v-9.248
					c0.69-0.181,1.36-0.412,2.01-0.673v-0.01c0.02,0,0.04,0,0.05-0.01C106.661,75.196,106.691,75.809,106.691,76.422z"/>
			</g>
			<g>
				<path class="st5" d="M85.339,98.863c-12.324,0-22.35-10.066-22.35-22.439c0-12.374,10.026-22.44,22.35-22.44
					s22.35,10.066,22.35,22.44C107.688,88.797,97.663,98.863,85.339,98.863z M85.339,55.983c-11.221,0-20.35,9.17-20.35,20.44
					s9.129,20.439,20.35,20.439s20.35-9.169,20.35-20.439S96.56,55.983,85.339,55.983z"/>
			</g>
			<g>
				<path class="st6" d="M84.04,71.812l9.459,9.499c0,0,4.036-4.053,8.069-8.103c-1.492-7.636-8.188-13.399-16.229-13.399
					c-9.138,0-16.545,7.439-16.545,16.616c0,3.069,0.843,5.934,2.288,8.401L84.04,71.812L84.04,71.812z"/>
			</g>
			<g>
				<path class="st2" d="M93.499,81.311l-9.459-9.499v0L71.082,84.825c2.875,4.909,8.176,8.214,14.257,8.214
					c9.138,0,16.545-7.439,16.545-16.615c0-1.101-0.113-2.175-0.316-3.216C97.535,77.257,93.499,81.311,93.499,81.311z"/>
			</g>
			<g>
				<path class="st5" d="M71.082,85.825c-0.042,0-0.084-0.003-0.126-0.008c-0.308-0.039-0.58-0.22-0.736-0.487
					c-1.587-2.709-2.425-5.789-2.425-8.906c0-9.714,7.871-17.616,17.545-17.616c8.363,0,15.602,5.976,17.211,14.208
					c0.063,0.325-0.039,0.662-0.273,0.896l-8.069,8.104c-0.188,0.188-0.442,0.294-0.708,0.294l0,0c-0.266,0-0.521-0.105-0.708-0.294
					l-8.75-8.788L71.79,85.531C71.602,85.721,71.346,85.825,71.082,85.825z M85.339,60.808c-8.572,0-15.545,7.006-15.545,15.616
					c0,2.326,0.528,4.631,1.535,6.736l12.003-12.055c0.375-0.377,1.042-0.377,1.417,0l8.75,8.788l6.979-7.009
					C98.857,65.855,92.573,60.808,85.339,60.808z"/>
			</g>
			<g>
				<path class="st5" d="M85.339,94.039c-6.18,0-11.974-3.337-15.12-8.708c-0.229-0.393-0.167-0.89,0.154-1.212l12.958-13.014
					c0.375-0.377,1.042-0.377,1.417,0l8.75,8.788l7.361-7.393c0.261-0.261,0.646-0.359,1-0.251c0.354,0.108,0.62,0.402,0.69,0.766
					c0.222,1.137,0.334,2.284,0.334,3.408C102.884,86.137,95.014,94.039,85.339,94.039z M72.348,84.971
					c2.863,4.379,7.772,7.068,12.991,7.068c8.572,0,15.545-7.005,15.545-15.615c0-0.355-0.013-0.714-0.038-1.074l-6.639,6.667
					c-0.375,0.377-1.042,0.377-1.417,0l-8.75-8.788L72.348,84.971z"/>
			</g>
			<g>
				<ellipse class="st7" cx="84.043" cy="71.812" rx="2.689" ry="2.702"/>
			</g>
			<g>
				<ellipse class="st7" cx="93.499" cy="81.311" rx="2.692" ry="2.703"/>
			</g>
			<g>
				<path class="st7" d="M105.459,94.64c0.247-0.248,0.532-0.433,0.833-0.569l-4.265-4.284c-0.997,1.254-2.131,2.393-3.381,3.395
					l4.265,4.284c0.136-0.302,0.319-0.589,0.566-0.837L105.459,94.64z"/>
			</g>
			<g>
				<path class="st2" d="M103.479,100.608l9.026,9.065c1.094,1.099,2.868,1.099,3.962,0l1.981-1.989c1.094-1.099,1.094-2.88,0-3.978
					l-9.026-9.065c-1.094-1.099-2.868-1.099-3.962,0l-1.981,1.989C102.385,97.728,102.385,99.509,103.479,100.608z"/>
			</g>
			<g>
				<path class="st5" d="M102.912,98.466c-0.264,0-0.519-0.104-0.708-0.294l-4.266-4.283c-0.2-0.201-0.306-0.479-0.29-0.762
					c0.016-0.283,0.151-0.547,0.373-0.725c1.189-0.953,2.273-2.042,3.224-3.237c0.178-0.223,0.442-0.359,0.727-0.375
					c0.287-0.01,0.563,0.091,0.764,0.292l4.266,4.283c0.231,0.233,0.334,0.564,0.275,0.887c-0.06,0.323-0.273,0.597-0.573,0.731
					c-0.21,0.095-0.391,0.217-0.536,0.362l-1.981,1.989c-0.146,0.147-0.266,0.324-0.363,0.541c-0.135,0.3-0.409,0.515-0.733,0.573
					C103.032,98.461,102.972,98.466,102.912,98.466z M100.122,93.246l2.657,2.669l1.969-1.979l-2.657-2.667
					C101.476,91.968,100.817,92.629,100.122,93.246z"/>
			</g>
			<g>
				<path class="st5" d="M114.486,111.496c-1.017,0-1.972-0.397-2.689-1.119l-9.026-9.063c-1.48-1.486-1.48-3.904,0-5.391
					l1.981-1.989c1.436-1.442,3.943-1.443,5.378,0.001l9.026,9.063c1.48,1.486,1.48,3.904,0,5.391l-1.981,1.989
					C116.457,111.099,115.502,111.496,114.486,111.496z M107.44,94.815c-0.48,0-0.932,0.188-1.272,0.529l-1.981,1.99
					c-0.705,0.707-0.705,1.859,0,2.566l0,0l9.026,9.064c0.68,0.684,1.863,0.683,2.544,0.001l1.981-1.99
					c0.705-0.707,0.705-1.859,0-2.566l-9.026-9.064C108.372,95.004,107.92,94.815,107.44,94.815z"/>
			</g>
		</g>
	</g>
	<g>
		<g>
			<g>
				<g>
					<path class="st5" d="M34.96,30.985H21.531c-0.404,0-0.769-0.243-0.923-0.616c-0.155-0.373-0.07-0.803,0.215-1.09l13.429-13.485
						c0.286-0.286,0.718-0.375,1.09-0.218c0.374,0.154,0.618,0.519,0.618,0.924v13.485C35.96,30.538,35.512,30.985,34.96,30.985z
						 M23.938,28.985H33.96V18.922L23.938,28.985z"/>
				</g>
			</g>
		</g>
		<g>
			<g>
				<g>
					<g>
						<path class="st5" d="M95.402,80.399c-0.255,0-0.51-0.097-0.706-0.291c-0.392-0.39-0.393-1.023-0.003-1.415l6.166-6.192
							c0.389-0.39,1.022-0.393,1.414-0.003c0.392,0.39,0.393,1.023,0.003,1.415l-6.166,6.192
							C95.916,80.301,95.659,80.399,95.402,80.399z"/>
					</g>
				</g>
				<g>
					<g>
						<path class="st5" d="M91.596,80.399c-0.257,0-0.513-0.098-0.708-0.294l-5.653-5.677c-0.39-0.392-0.389-1.025,0.003-1.415
							c0.391-0.39,1.025-0.387,1.414,0.003l5.653,5.677c0.39,0.392,0.389,1.025-0.003,1.415
							C92.106,80.303,91.851,80.399,91.596,80.399z"/>
					</g>
				</g>
				<g>
					<g>
						<path class="st5" d="M71.082,85.825c-0.255,0-0.511-0.097-0.706-0.292c-0.392-0.39-0.393-1.022-0.003-1.414l11.062-11.103
							c0.389-0.392,1.023-0.394,1.414-0.002c0.392,0.39,0.393,1.022,0.003,1.414L71.79,85.531
							C71.595,85.728,71.338,85.825,71.082,85.825z"/>
					</g>
				</g>
				<g>
					<g>
						<path class="st5" d="M84.042,75.513L84.042,75.513c-0.986,0-1.912-0.385-2.608-1.085c-1.437-1.442-1.437-3.79,0-5.233
							c1.393-1.398,3.825-1.399,5.218,0.001c1.436,1.442,1.436,3.79-0.001,5.233C85.955,75.128,85.028,75.513,84.042,75.513z
							 M84.043,70.11c-0.45,0-0.873,0.176-1.191,0.495c-0.662,0.665-0.662,1.747,0,2.411l0,0.001
							c0.318,0.319,0.741,0.495,1.19,0.495l0,0c0.45,0,0.873-0.176,1.191-0.496c0.662-0.665,0.663-1.746,0.001-2.41
							C84.917,70.286,84.493,70.11,84.043,70.11z"/>
					</g>
				</g>
				<g>
					<g>
						<path class="st5" d="M93.5,85.012c-0.988,0-1.916-0.385-2.612-1.084c-1.437-1.443-1.437-3.791,0-5.234
							c0.696-0.699,1.624-1.084,2.612-1.084c0,0,0,0,0,0c0.988,0,1.916,0.385,2.612,1.085c1.437,1.442,1.437,3.79,0,5.233
							C95.415,84.627,94.487,85.012,93.5,85.012z M93.499,79.609c-0.452,0-0.876,0.176-1.195,0.496c-0.662,0.664-0.662,1.746,0,2.41
							c0.637,0.641,1.753,0.64,2.389,0.001c0.662-0.665,0.662-1.747,0-2.411C94.375,79.785,93.951,79.609,93.499,79.609
							L93.499,79.609z"/>
					</g>
				</g>
			</g>
		</g>
		<g>
			<g>
				<path class="st5" d="M106.561,75.614c-0.185,0-0.368-0.051-0.53-0.152c-0.292-0.183-0.47-0.503-0.47-0.848
					c0-0.487,0.349-0.901,0.81-0.991c0.378-0.092,0.79,0.042,1.036,0.365c0.297,0.391,0.267,0.94-0.073,1.296
					c-0.07,0.073-0.157,0.137-0.252,0.187l0.002,0.004c-0.037,0.021-0.091,0.044-0.138,0.062
					C106.823,75.589,106.692,75.614,106.561,75.614z"/>
			</g>
		</g>
		<g>
			<g>
				<path class="st5" d="M115.181,81.117c-0.266,0-0.521-0.105-0.708-0.294l-5.975-6.001c-0.139,0.07-0.278,0.141-0.417,0.208
					c-0.368,0.175-0.727,0.343-1.096,0.491c-0.295,0.12-0.628,0.089-0.898-0.077c-0.27-0.167-0.445-0.453-0.471-0.77
					c-0.206-2.521-0.875-4.951-1.991-7.221c-0.24-0.488-0.046-1.078,0.437-1.329c2.937-1.525,4.761-4.529,4.761-7.839
					c0-4.875-3.948-8.841-8.8-8.841c-3.93,0-7.411,2.655-8.465,6.457l-0.001-0.001c-0.007,0.026-0.015,0.053-0.024,0.078
					c-0.062,0.187-0.178,0.353-0.336,0.476c-0.245,0.19-0.563,0.252-0.862,0.179c-1.039-0.269-2.075-0.455-3.08-0.556
					c-2.886-0.248-5.677,0.066-8.283,0.938c-1.542,0.519-3.024,1.225-4.402,2.096c-0.309,0.195-0.698,0.208-1.017,0.031
					c-0.319-0.176-0.518-0.512-0.518-0.876v-4.379c0-0.553,0.448-1,1-1h8.253c0.333-1.094,0.756-2.142,1.263-3.129l-5.815-5.839
					c-0.389-0.391-0.389-1.021,0-1.412l6.41-6.437c0.375-0.377,1.042-0.377,1.417,0l5.763,5.788
					c1.006-0.539,2.063-0.982,3.158-1.325v-8.186c0-0.553,0.448-1,1-1h9.069c0.552,0,1,0.447,1,1v8.186
					c1.095,0.343,2.152,0.786,3.158,1.325l5.763-5.788c0.375-0.377,1.042-0.377,1.417,0l6.41,6.437c0.389,0.391,0.389,1.021,0,1.412
					l-5.815,5.839c0.507,0.988,0.93,2.035,1.263,3.129H126c0.552,0,1,0.447,1,1v9.108c0,0.553-0.448,1-1,1h-8.354
					c-0.334,1.04-0.761,2.051-1.275,3.017l5.928,5.963c0.388,0.391,0.388,1.021,0,1.411l-6.41,6.437
					C115.702,81.012,115.447,81.117,115.181,81.117z M108.681,72.59c0.26,0,0.517,0.101,0.709,0.294l5.791,5.816l4.999-5.021
					l-5.758-5.791c-0.32-0.322-0.383-0.819-0.154-1.211c0.727-1.238,1.288-2.566,1.669-3.947c0.12-0.434,0.514-0.734,0.964-0.734
					H125v-7.108h-8.009c-0.455,0-0.852-0.307-0.967-0.746c-0.38-1.453-0.933-2.821-1.642-4.067c-0.222-0.391-0.157-0.881,0.161-1.2
					l5.637-5.66l-4.999-5.02l-5.591,5.615c-0.324,0.324-0.825,0.386-1.218,0.154c-1.269-0.752-2.642-1.328-4.079-1.713
					c-0.438-0.117-0.742-0.513-0.742-0.966v-7.937h-7.069v7.937c0,0.453-0.304,0.849-0.742,0.966
					c-1.438,0.385-2.81,0.961-4.078,1.713c-0.395,0.233-0.896,0.169-1.218-0.154l-5.591-5.615l-4.999,5.02l5.637,5.66
					c0.317,0.319,0.383,0.81,0.161,1.2c-0.69,1.214-1.233,2.545-1.613,3.959c1.116-0.063,2.25-0.046,3.4,0.054
					c0.819,0.082,1.647,0.214,2.478,0.393c1.561-4.185,5.592-7.034,10.105-7.034c5.955,0,10.8,4.863,10.8,10.841
					c0,3.736-1.896,7.155-5.007,9.135c0.801,1.819,1.349,3.726,1.635,5.69c0.248-0.125,0.498-0.257,0.743-0.394
					C108.346,72.632,108.514,72.59,108.681,72.59z M75.033,54.888v1.646c1.061-0.559,2.166-1.032,3.301-1.415
					c0.244-0.081,0.49-0.158,0.737-0.231H75.033z"/>
			</g>
		</g>
		<g>
			<g>
				<g>
					<g>
						<path class="st5" d="M24.697,89.428h-6.331c-2.297,0-4.166-1.875-4.166-4.18v-6.357c0-0.553,0.448-1,1-1h12.662
							c0.552,0,1,0.447,1,1v6.357C28.862,87.553,26.994,89.428,24.697,89.428z M16.2,79.891v5.357c0,1.202,0.972,2.18,2.166,2.18
							h6.331c1.194,0,2.166-0.978,2.166-2.18v-5.357H16.2z"/>
					</g>
				</g>
				<g>
					<g>
						<path class="st5" d="M27.862,79.891H15.2c-0.265,0-0.52-0.105-0.707-0.293S14.2,79.156,14.2,78.891
							c0-1.058-0.359-2.388-1.039-3.848c-0.494-1.062-1.188-2.123-2.185-3.336C6.275,65.979,6.946,57.63,12.503,52.7
							c5.147-4.563,12.91-4.564,18.056,0l0,0c5.557,4.93,6.228,13.278,1.526,19.007c-0.997,1.215-1.691,2.274-2.185,3.336
							c-0.68,1.459-1.039,2.789-1.039,3.848c0,0.266-0.105,0.52-0.293,0.707S28.127,79.891,27.862,79.891z M16.132,77.891h10.799
							c0.148-1.12,0.535-2.356,1.157-3.691c0.566-1.218,1.346-2.413,2.452-3.762c4.017-4.894,3.442-12.028-1.308-16.241l0,0
							c-4.39-3.894-11.012-3.892-15.402,0c-4.75,4.213-5.324,11.348-1.308,16.241c1.105,1.347,1.885,2.542,2.452,3.762
							C15.596,75.534,15.984,76.771,16.132,77.891z"/>
					</g>
				</g>
				<g>
					<g>
						<path class="st5" d="M27.862,83.069h-6.331c-0.552,0-1-0.447-1-1s0.448-1,1-1h6.331c0.552,0,1,0.447,1,1
							S28.415,83.069,27.862,83.069z"/>
					</g>
				</g>
				<g>
					<g>
						<path class="st5" d="M27.862,86.248h-6.331c-0.552,0-1-0.447-1-1s0.448-1,1-1h6.331c0.552,0,1,0.447,1,1
							S28.415,86.248,27.862,86.248z"/>
					</g>
				</g>
			</g>
			<g>
				<g>
					<path class="st5" d="M21.531,48.079c-0.552,0-1-0.447-1-1v-4.701c0-0.553,0.448-1,1-1s1,0.447,1,1v4.701
						C22.531,47.632,22.083,48.079,21.531,48.079z"/>
				</g>
			</g>
			<g>
				<g>
					<path class="st5" d="M10.324,52.741c-0.257,0-0.513-0.098-0.708-0.294l-3.311-3.324c-0.39-0.392-0.389-1.024,0.003-1.415
						c0.391-0.39,1.025-0.389,1.414,0.003l3.311,3.324c0.39,0.392,0.389,1.024-0.003,1.415
						C10.834,52.645,10.579,52.741,10.324,52.741z"/>
				</g>
			</g>
			<g>
				<g>
					<path class="st5" d="M36.049,78.575c-0.257,0-0.513-0.098-0.708-0.294l-3.311-3.324c-0.39-0.392-0.389-1.024,0.003-1.415
						c0.392-0.389,1.025-0.388,1.414,0.003l3.311,3.324c0.39,0.392,0.389,1.024-0.003,1.415
						C36.56,78.479,36.304,78.575,36.049,78.575z"/>
				</g>
			</g>
			<g>
				<g>
					<path class="st5" d="M5.682,63.996H1c-0.552,0-1-0.447-1-1s0.448-1,1-1h4.682c0.552,0,1,0.447,1,1S6.234,63.996,5.682,63.996z"
						/>
				</g>
			</g>
			<g>
				<g>
					<path class="st5" d="M42.062,63.996h-4.681c-0.552,0-1-0.447-1-1s0.448-1,1-1h4.681c0.552,0,1,0.447,1,1
						S42.614,63.996,42.062,63.996z"/>
				</g>
			</g>
			<g>
				<g>
					<path class="st5" d="M7.013,78.575c-0.255,0-0.511-0.097-0.706-0.291c-0.392-0.391-0.393-1.023-0.003-1.415l3.311-3.324
						c0.39-0.39,1.023-0.393,1.414-0.003c0.392,0.391,0.393,1.023,0.003,1.415l-3.311,3.324C7.526,78.477,7.27,78.575,7.013,78.575z
						"/>
				</g>
			</g>
			<g>
				<g>
					<path class="st5" d="M32.738,52.741c-0.255,0-0.511-0.097-0.706-0.291c-0.392-0.391-0.393-1.023-0.003-1.415l3.311-3.324
						c0.39-0.39,1.023-0.393,1.414-0.003c0.392,0.391,0.393,1.023,0.003,1.415l-3.311,3.324
						C33.251,52.643,32.995,52.741,32.738,52.741z"/>
				</g>
			</g>
		</g>
		<g>
			<g>
				<g>
					<path class="st5" d="M69.489,39.361H37.381c-0.552,0-1-0.447-1-1s0.448-1,1-1h32.108c0.552,0,1,0.447,1,1
						S70.042,39.361,69.489,39.361z"/>
				</g>
			</g>
			<g>
				<g>
					<path class="st5" d="M64.03,51.679H42.062c-0.552,0-1-0.447-1-1s0.448-1,1-1H64.03c0.552,0,1,0.447,1,1
						S64.582,51.679,64.03,51.679z"/>
				</g>
			</g>
			<g>
				<g>
					<path class="st5" d="M59.004,63.996h-10.35c-0.552,0-1-0.447-1-1s0.448-1,1-1h10.35c0.552,0,1,0.447,1,1
						S59.557,63.996,59.004,63.996z"/>
				</g>
			</g>
			<g>
				<g>
					<path class="st5" d="M59.004,76.313H42.062c-0.552,0-1-0.447-1-1s0.448-1,1-1h16.942c0.552,0,1,0.447,1,1
						S59.557,76.313,59.004,76.313z"/>
				</g>
			</g>
			<g>
				<g>
					<path class="st5" d="M59.004,88.631H37.381c-0.552,0-1-0.447-1-1s0.448-1,1-1h21.624c0.552,0,1,0.447,1,1
						S59.557,88.631,59.004,88.631z"/>
				</g>
			</g>
			<g>
				<g>
					<path class="st5" d="M69.489,100.948H37.381c-0.552,0-1-0.447-1-1s0.448-1,1-1h32.108c0.552,0,1,0.447,1,1
						S70.042,100.948,69.489,100.948z"/>
				</g>
			</g>
		</g>
	</g>
</g>
</svg>
