<?xml version="1.0" encoding="utf-8"?>
<!-- Generator: Adobe Illustrator 22.0.0, SVG Export Plug-In . SVG Version: 6.00 Build 0)  -->
<svg version="1.1" id="MARKET_RESEARCH_ICON_SET" xmlns="http://www.w3.org/2000/svg" xmlns:xlink="http://www.w3.org/1999/xlink"
	 x="0px" y="0px" viewBox="0 0 128 128" style="enable-background:new 0 0 128 128;" xml:space="preserve">
<style type="text/css">
	.st0{fill:#C2D5EC;}
	.st1{fill:#61E1FF;}
	.st2{fill:#7184AF;}
	.st3{fill:#F8F8F8;}
	.st4{fill:#3F4D81;}
	.st5{fill:#3F4D80;}
	.st6{fill:#E9EAEB;}
	.st7{fill:#F79559;}
	.st8{fill:#FFA85A;}
</style>
<g>
	<g>
		<g>
			<g>
				<rect x="0.492" y="60.559" class="st0" width="127.007" height="46.105"/>
			</g>
			<g>
				<ellipse class="st0" cx="48.096" cy="60.286" rx="36.2" ry="36.336"/>
			</g>
		</g>
		<g>
			<g>
				<path class="st5" d="M64.505,106.664V96.267c0-3.063,1.148-6.364,2.402-9.055c1.271-2.73,3.009-5.199,4.919-7.525
					c9.051-11.023,8.049-27.573-3.006-37.372c-10.047-8.906-25.446-8.906-35.493,0c-11.056,9.8-12.058,26.349-3.006,37.372
					c1.91,2.326,3.647,4.795,4.919,7.525c1.253,2.691,2.402,5.992,2.402,9.055v10.397H64.505z"/>
			</g>
			<g>
				<path class="st5" d="M85.661,60.559v8.917c0,1.267,1.023,2.295,2.286,2.295h7.014c0.642,0,1.255,0.271,1.688,0.747l5.125,5.631
					c0.439,0.482,1.24,0.171,1.24-0.483v-3.601c0-1.267,1.023-2.294,2.286-2.294h9.956c1.262,0,2.286-1.027,2.286-2.294v-8.917
					H85.661z"/>
			</g>
		</g>
		<g>
			<path class="st8" d="M64.993,40.323c-10.047-8.906-25.446-8.906-35.493,0c-11.056,9.8-12.058,26.349-3.006,37.372
				c1.91,2.326,3.647,4.795,4.919,7.525c1.253,2.691,2.402,5.992,2.402,9.055h13.432h13.432c0-3.063,1.148-6.364,2.402-9.055
				c1.271-2.73,3.009-5.199,4.919-7.525C77.051,66.672,76.049,50.122,64.993,40.323z"/>
		</g>
		<g>
			<path class="st2" d="M34.664,94.275v13.483c0,3.723,3.007,6.741,6.716,6.741h13.432c3.709,0,6.716-3.018,6.716-6.741V94.275
				H34.664z"/>
		</g>
		<g>
			<path class="st3" d="M36.908,85.219c1.26,2.689,2.401,5.996,2.401,9.053h-5.497c0-3.058-1.141-6.364-2.401-9.053
				c-1.27-2.729-3.006-5.199-4.912-7.52c-9.059-11.025-8.057-27.578,3.006-37.378c5.745-5.089,13.237-7.27,20.48-6.533
				c-5.418,0.548-10.687,2.729-14.983,6.533c-11.064,9.8-12.066,26.353-3.007,37.378C33.901,80.02,35.638,82.49,36.908,85.219z"/>
		</g>
		<g>
			<path class="st3" d="M46.374,114.5h-4.991c-3.711,0-6.718-3.018-6.718-6.743V94.272h4.991v13.485
				C39.656,111.482,42.663,114.5,46.374,114.5z"/>
		</g>
		<g>
			<g>
				<polygon class="st3" points="43.1,58.969 43.1,94.275 48.096,94.275 53.091,94.275 53.091,58.969 				"/>
			</g>
			<g>
				<path class="st3" d="M56.533,47.131v47.144h4.996c0-3.063,1.148-6.364,2.402-9.055c0.727-1.561,1.617-3.029,2.594-4.442V47.131
					H56.533z"/>
			</g>
			<g>
				<path class="st3" d="M29.669,70.703v10.076c0.977,1.412,1.867,2.881,2.594,4.441c1.253,2.691,2.402,5.992,2.402,9.055h4.996
					V70.703H29.669z"/>
			</g>
		</g>
		<g>
			<path class="st1" d="M82.684,52.71v14.774c0,1.267,1.023,2.294,2.286,2.294h7.014c0.642,0,1.255,0.271,1.688,0.747l6.364,6.993
				v-5.446c0-1.267,1.023-2.294,2.286-2.294h9.956c1.262,0,2.286-1.027,2.286-2.294V52.71c0-1.267-1.023-2.294-2.286-2.294H84.97
				C83.708,50.415,82.684,51.443,82.684,52.71z"/>
		</g>
		<g>
			<path class="st3" d="M114.561,52.711v0.926H86.907c-0.427,0-0.774,0.348-0.774,0.777v15.368h-1.161
				c-1.26,0-2.292-1.026-2.292-2.301v-14.77c0-1.265,1.032-2.291,2.292-2.291h27.307C113.539,50.42,114.561,51.446,114.561,52.711z"
				/>
		</g>
		<g>
			<g>
				<ellipse class="st5" cx="98.624" cy="60.559" rx="2.395" ry="2.404"/>
			</g>
			<g>
				<ellipse class="st5" cx="89.724" cy="60.559" rx="2.395" ry="2.404"/>
			</g>
			<g>
				<ellipse class="st5" cx="107.524" cy="60.559" rx="2.395" ry="2.404"/>
			</g>
		</g>
		<g>
			<g>
				<path class="st6" d="M111.767,92.185v2.398l2.797,7.377l2.797-7.377v-2.398c-0.853,0.391-1.798,0.614-2.797,0.614
					C113.566,92.799,112.621,92.576,111.767,92.185z"/>
			</g>
			<g>
				<path class="st8" d="M126.383,103.496c0-5.189-6.227-7.527-6.227-7.527l0,0l-2.795-1.386l-2.797,7.377l0,0l-2.797-7.377
					l-2.796,1.386l0-0.001c0,0-6.227,2.338-6.227,7.527c0,0.936-0.066,2.019-0.124,3.167h23.887
					C126.449,105.515,126.383,104.432,126.383,103.496z"/>
			</g>
			<g>
				<path class="st3" d="M121.315,85.26c-4.411,0-4.248-6.008-4.248-6.008s-2.502,6.008-9.254,6.008l0,0v0.761
					c0,3.742,3.023,6.776,6.751,6.776c3.729,0,6.751-3.034,6.751-6.776L121.315,85.26L121.315,85.26L121.315,85.26z"/>
			</g>
			<g>
				<path class="st6" d="M121.821,82.777c-0.074,0-0.146,0.007-0.217,0.017v0.37h-0.01c0,0.726-0.091,1.431-0.278,2.096h0v0.761
					c0,0.591-0.083,1.161-0.225,1.708c0.027-0.003,0.05-0.004,0.079-0.009c1.378-0.209,1.968-1.196,1.968-2.284v-1.333
					C123.137,82.777,121.821,82.777,121.821,82.777z"/>
			</g>
			<g>
				<path class="st6" d="M107.307,82.777c0.074,0,0.146,0.007,0.217,0.017v0.37h0.01c0,0.726,0.091,1.431,0.278,2.096h0v0.761
					c0,0.591,0.083,1.161,0.225,1.708c-0.027-0.003-0.05-0.004-0.079-0.009c-1.378-0.209-1.968-1.196-1.968-2.284v-1.333
					C105.991,82.777,107.307,82.777,107.307,82.777z"/>
			</g>
			<g>
				<path class="st5" d="M105.991,97.685L105.991,97.685c1.512-1.162,2.981-1.716,2.981-1.716l0,0.001l2.796-1.386v-2.398
					c0.004,0.002,0.008,0.003,0.011,0.005c-1.834-0.836-3.225-2.469-3.741-4.46v0c-0.027-0.003-0.05-0.004-0.079-0.009
					c-1.378-0.209-1.968-1.196-1.968-2.284v-1.333c0-1.327,1.316-1.327,1.316-1.327c0.074,0,0.146,0.007,0.217,0.017v0.37h0.01
					c0,0.726,0.091,1.431,0.278,2.096c6.752,0,9.254-6.008,9.254-6.008s-0.163,6.008,4.248,6.008l0,0v0
					c0.188-0.665,0.278-1.37,0.278-2.096h0.01v-0.37c0.07-0.01,0.143-0.017,0.217-0.017c0,0,1.316,0,1.316,1.327v1.333
					c0,1.088-0.59,2.075-1.968,2.284c-0.029,0.004-0.052,0.006-0.079,0.009v0c-0.517,1.993-1.91,3.627-3.746,4.462
					c0.006-0.003,0.012-0.004,0.018-0.007v2.398l2.795,1.386l0,0c0,0,1.469,0.553,2.98,1.715
					c-4.815-4.833,7.613-11.244-2.947-21.843v0c-0.953-1.02-2.308-1.658-3.812-1.658h-3.63c-1.503,0-2.858,0.637-3.812,1.658l0,0
					C98.377,86.441,110.806,92.851,105.991,97.685z"/>
			</g>
		</g>
		<g>
			<g>
				<path class="st6" d="M79.888,92.185v2.398l2.797,5.323l2.797-5.323v-2.398c-0.853,0.391-1.798,0.614-2.797,0.614
					C81.686,92.799,80.741,92.576,79.888,92.185z"/>
			</g>
			<g>
				<path class="st8" d="M94.504,103.496c0-5.19-6.227-7.527-6.227-7.527l0,0l-2.795-1.386l-2.797,5.323l0.001,0.001l-0.001,0.001
					l-0.001-0.001l0.001-0.001l-2.797-5.323l-2.796,1.386l0-0.001c0,0-6.227,2.338-6.227,7.527c0,0.936-0.066,2.019-0.124,3.167
					h23.887C94.57,105.515,94.504,104.432,94.504,103.496z"/>
			</g>
			<g>
				<path class="st5" d="M77.878,81.565c0-1.277,1.031-2.312,2.304-2.312h5.005c1.272,0,2.304,1.035,2.304,2.312
					c0,3.695,2.234,1.229,2.234,1.229v-3.366c0-5.245-2.838-3.816-2.838-3.816s-0.576-1.429-2.387-1.429h-3.63
					c-2.885,0-5.224,2.348-5.224,5.244v3.367C75.645,82.794,77.878,85.26,77.878,81.565z"/>
			</g>
			<g>
				<path class="st3" d="M89.941,82.777c-0.074,0-0.146,0.007-0.217,0.017c0,0-2.234,2.466-2.234-1.229
					c0-1.277-1.031-2.312-2.304-2.312h-5.005c-1.272,0-2.304,1.035-2.304,2.312c0,3.695-2.234,1.229-2.234,1.229
					c-0.07-0.01-0.142-0.017-0.217-0.017c0,0-1.316,0-1.316,1.327v1.333c0,1.088,0.59,2.075,1.968,2.284
					c0.029,0.004,0.052,0.006,0.079,0.009c0.755,2.914,3.387,5.068,6.526,5.068s5.771-2.154,6.526-5.068
					c0.027-0.003,0.05-0.004,0.079-0.009c1.378-0.209,1.968-1.196,1.968-2.284v-1.333C91.257,82.777,89.941,82.777,89.941,82.777z"
					/>
			</g>
		</g>
	</g>
	<g>
		<g>
			<g>
				<path class="st5" d="M48.096,24.95c-0.548,0-0.992-0.447-0.992-1V13.5c0-0.553,0.444-1,0.992-1c0.548,0,0.992,0.447,0.992,1
					v10.45C49.089,24.503,48.644,24.95,48.096,24.95z"/>
			</g>
		</g>
		<g>
			<g>
				<path class="st5" d="M73.693,35.594c-0.255,0-0.509-0.099-0.703-0.294c-0.387-0.392-0.385-1.024,0.003-1.415l7.362-7.39
					c0.389-0.391,1.015-0.387,1.404,0.003c0.387,0.392,0.385,1.024-0.003,1.415l-7.362,7.39
					C74.2,35.497,73.946,35.594,73.693,35.594z"/>
			</g>
		</g>
		<g>
			<g>
				<path class="st5" d="M15.136,94.366c-0.255,0-0.509-0.099-0.703-0.294c-0.387-0.392-0.386-1.024,0.003-1.415l7.362-7.39
					c0.388-0.389,1.017-0.386,1.403,0.003c0.387,0.392,0.386,1.024-0.003,1.415l-7.362,7.39
					C15.643,94.27,15.389,94.366,15.136,94.366z"/>
			</g>
		</g>
		<g>
			<g>
				<path class="st5" d="M11.896,61.284H1.485c-0.548,0-0.992-0.447-0.992-1s0.444-1,0.992-1h10.412c0.548,0,0.992,0.447,0.992,1
					S12.444,61.284,11.896,61.284z"/>
			</g>
		</g>
		<g>
			<g>
				<path class="st5" d="M22.5,35.592c-0.253,0-0.507-0.097-0.7-0.291l-7.362-7.39c-0.389-0.391-0.39-1.023-0.003-1.415
					c0.387-0.391,1.016-0.393,1.403-0.003l7.362,7.39c0.389,0.391,0.39,1.023,0.003,1.415C23.009,35.493,22.754,35.592,22.5,35.592z
					"/>
			</g>
		</g>
		<g>
			<g>
				<path class="st5" d="M54.813,115.499H41.38c-4.25,0-7.708-3.473-7.708-7.742V94.274c0-0.553,0.444-1,0.992-1h26.864
					c0.548,0,0.992,0.447,0.992,1v13.482C62.521,112.026,59.063,115.499,54.813,115.499z M35.657,95.274v12.482
					c0,3.166,2.568,5.742,5.724,5.742h13.432c3.156,0,5.724-2.576,5.724-5.742V95.274H35.657z"/>
			</g>
		</g>
		<g>
			<g>
				<path class="st5" d="M61.529,95.274H34.664c-0.548,0-0.992-0.447-0.992-1c0-2.438-0.776-5.342-2.308-8.63
					c-1.091-2.342-2.611-4.665-4.785-7.312c-9.593-11.684-8.225-28.709,3.115-38.762c10.492-9.3,26.314-9.298,36.804,0l0,0
					c11.34,10.052,12.708,27.078,3.115,38.762c-2.173,2.646-3.694,4.969-4.785,7.312c-1.531,3.288-2.308,6.191-2.308,8.63
					C62.521,94.827,62.077,95.274,61.529,95.274z M35.621,93.274h24.951c0.177-2.502,1.002-5.349,2.46-8.479
					c1.164-2.499,2.769-4.958,5.052-7.737c8.905-10.845,7.633-26.651-2.896-35.984l0,0c-9.744-8.637-24.439-8.637-34.183,0
					c-10.529,9.334-11.801,25.14-2.896,35.984c2.282,2.78,3.888,5.238,5.052,7.737C34.619,87.926,35.444,90.772,35.621,93.274z"/>
			</g>
		</g>
		<g>
			<g>
				<path class="st5" d="M61.529,107.663H48.096c-0.548,0-0.992-0.447-0.992-1s0.444-1,0.992-1h13.432c0.548,0,0.992,0.447,0.992,1
					S62.077,107.663,61.529,107.663z"/>
			</g>
		</g>
		<g>
			<g>
				<path class="st5" d="M61.529,101.469H48.096c-0.548,0-0.992-0.447-0.992-1s0.444-1,0.992-1h13.432c0.548,0,0.992,0.447,0.992,1
					S62.077,101.469,61.529,101.469z"/>
			</g>
		</g>
		<g>
			<g>
				<g>
					<path class="st5" d="M53.091,95.274H43.1c-0.548,0-0.992-0.447-0.992-1V58.969c0-0.553,0.444-1,0.992-1h9.991
						c0.548,0,0.992,0.447,0.992,1v35.306C54.083,94.827,53.639,95.274,53.091,95.274z M44.092,93.274h8.007V59.969h-8.007V93.274z"
						/>
				</g>
			</g>
			<g>
				<g>
					<path class="st5" d="M61.529,95.274h-4.996c-0.548,0-0.992-0.447-0.992-1V47.131c0-0.553,0.444-1,0.992-1h9.991
						c0.548,0,0.992,0.447,0.992,1v33.647c0,0.204-0.062,0.404-0.178,0.572c-1.048,1.516-1.87,2.921-2.51,4.294
						c-1.531,3.288-2.308,6.191-2.308,8.63C62.521,94.827,62.077,95.274,61.529,95.274z M57.525,93.274h3.047
						c0.177-2.502,1.002-5.349,2.46-8.479c0.651-1.397,1.47-2.816,2.5-4.329V48.131h-8.007V93.274z"/>
				</g>
			</g>
			<g>
				<g>
					<path class="st5" d="M39.66,95.274h-4.996c-0.548,0-0.992-0.447-0.992-1c0-2.438-0.776-5.342-2.308-8.63
						c-0.64-1.373-1.461-2.778-2.51-4.294c-0.116-0.168-0.178-0.368-0.178-0.572V70.703c0-0.553,0.444-1,0.992-1h9.991
						c0.548,0,0.992,0.447,0.992,1v23.571C40.652,94.827,40.208,95.274,39.66,95.274z M35.621,93.274h3.047V71.703h-8.007v8.763
						c1.03,1.513,1.848,2.932,2.5,4.329C34.619,87.926,35.444,90.772,35.621,93.274z"/>
				</g>
			</g>
		</g>
		<g>
			<g>
				<g>
					<path class="st5" d="M82.684,100.906L82.684,100.906c-0.367,0-0.705-0.205-0.877-0.532l-2.797-5.323
						c-0.076-0.144-0.115-0.305-0.115-0.468v-2.398c0-0.34,0.172-0.657,0.455-0.841c0.284-0.185,0.641-0.211,0.949-0.069
						c1.514,0.695,3.257,0.695,4.77,0c0.309-0.142,0.666-0.114,0.949,0.069c0.284,0.184,0.455,0.501,0.455,0.841v2.398
						c0,0.163-0.04,0.324-0.115,0.468l-2.797,5.323C83.389,100.701,83.051,100.906,82.684,100.906z M80.88,94.335l1.804,3.435
						l1.805-3.435v-0.751c-1.175,0.286-2.432,0.286-3.609,0V94.335z"/>
				</g>
			</g>
			<g>
				<g>
					<path class="st5" d="M94.628,107.663H70.741c-0.272,0-0.532-0.112-0.719-0.312c-0.188-0.198-0.286-0.466-0.272-0.739
						l0.029-0.553c0.048-0.928,0.094-1.805,0.094-2.563c0-5.617,6.147-8.181,6.822-8.445l2.755-1.365
						c0.481-0.239,1.064-0.048,1.315,0.43l1.922,3.655l1.92-3.655c0.25-0.478,0.833-0.669,1.315-0.43l2.754,1.365
						c0.675,0.265,6.822,2.828,6.822,8.445c0,0.759,0.046,1.636,0.094,2.563l0.029,0.553c0.014,0.273-0.084,0.541-0.272,0.739
						C95.16,107.551,94.9,107.663,94.628,107.663z M71.787,105.663h21.795c-0.039-0.77-0.071-1.499-0.071-2.167
						c0-4.443-5.525-6.569-5.58-6.59c-0.032-0.012-0.062-0.025-0.092-0.04l-1.93-0.957l-2.346,4.464
						c-0.002,0.003-0.004,0.006-0.005,0.009l-0.001,0.001v0.001c-0.001,0.001-0.001,0.002-0.002,0.003l0,0
						c-0.258,0.476-0.848,0.656-1.325,0.409c-0.203-0.105-0.356-0.271-0.446-0.466l-2.324-4.421l-1.931,0.958
						c-0.032,0.016-0.064,0.029-0.097,0.042c-0.147,0.057-5.576,2.193-5.576,6.587C71.858,104.164,71.826,104.894,71.787,105.663z"
						/>
				</g>
			</g>
			<g>
				<g>
					<path class="st5" d="M82.684,93.798c-3.309,0-6.228-2.113-7.303-5.211c-1.385-0.422-2.262-1.609-2.262-3.149v-1.333
						c0-1.268,0.761-1.936,1.533-2.195v-2.481c0-3.443,2.789-6.244,6.217-6.244h3.63c1.371,0,2.294,0.633,2.828,1.274
						c0.484-0.063,1.102-0.025,1.709,0.354c1.131,0.704,1.68,2.215,1.68,4.616v2.481c0.772,0.26,1.533,0.928,1.533,2.195v1.333
						c0,1.535-0.87,2.72-2.262,3.147C88.914,91.684,85.994,93.798,82.684,93.798z M75.51,83.785
						c-0.406,0.007-0.406,0.166-0.406,0.319v1.333c0,0.746,0.378,1.182,1.123,1.294c0.392,0.06,0.791,0.358,0.891,0.745
						c0.66,2.544,2.949,4.321,5.566,4.321c2.618,0,4.907-1.776,5.566-4.321c0.105-0.401,0.445-0.697,0.855-0.741
						c0.783-0.116,1.161-0.552,1.161-1.298v-1.333c0-0.122,0-0.327-0.325-0.327c-0.027,0-0.054,0.004-0.079,0.007
						c-0.284,0.043-0.572-0.045-0.788-0.236c-0.217-0.189-0.341-0.465-0.341-0.754v-3.366c0-2.277-0.566-2.807-0.739-2.915
						c-0.273-0.17-0.66-0.007-0.663-0.006c-0.247,0.125-0.535,0.14-0.795,0.041c-0.259-0.099-0.464-0.301-0.569-0.56
						c-0.03-0.066-0.394-0.805-1.468-0.805h-3.63c-2.334,0-4.233,1.904-4.233,4.244v3.366c0,0.289-0.124,0.563-0.34,0.754
						C76.08,83.736,75.793,83.823,75.51,83.785z"/>
				</g>
			</g>
			<g>
				<g>
					<path class="st5" d="M88.361,84.601c-0.191,0-0.386-0.033-0.581-0.109c-1.282-0.501-1.282-2.326-1.282-2.926
						c0-0.724-0.588-1.312-1.311-1.312h-5.005c-0.724,0-1.312,0.589-1.312,1.312c0,0.6,0,2.425-1.282,2.926
						c-1.233,0.478-2.446-0.769-2.676-1.023c-0.37-0.408-0.341-1.04,0.064-1.412c0.403-0.372,1.031-0.345,1.401,0.063
						c0.122,0.133,0.289,0.272,0.43,0.368c0.04-0.176,0.078-0.465,0.078-0.922c0-1.826,1.479-3.312,3.297-3.312h5.005
						c1.817,0,3.296,1.486,3.296,3.312c0,0.457,0.039,0.747,0.078,0.923c0.142-0.097,0.311-0.238,0.433-0.371
						c0.37-0.404,0.998-0.433,1.401-0.058c0.402,0.373,0.431,1.002,0.062,1.408C90.264,83.683,89.372,84.601,88.361,84.601z"/>
				</g>
			</g>
		</g>
		<g>
			<g>
				<g>
					<path class="st5" d="M114.565,102.96c-0.411,0-0.78-0.256-0.927-0.643l-2.797-7.377c-0.043-0.114-0.065-0.235-0.065-0.357
						v-2.398c0-0.34,0.172-0.657,0.455-0.841c0.284-0.185,0.641-0.211,0.948-0.069c1.517,0.695,3.258,0.694,4.771,0
						c0.309-0.142,0.666-0.114,0.949,0.069c0.284,0.184,0.455,0.501,0.455,0.841v2.398c0,0.122-0.022,0.243-0.065,0.356
						l-2.797,7.377C115.345,102.704,114.977,102.96,114.565,102.96z M112.76,94.398l1.805,4.76l1.804-4.76v-0.814
						c-1.176,0.285-2.431,0.286-3.609-0.001V94.398z"/>
				</g>
			</g>
			<g>
				<g>
					<path class="st5" d="M126.508,107.663H102.62c-0.272,0-0.532-0.112-0.72-0.312c-0.187-0.199-0.285-0.467-0.271-0.74
						l0.027-0.515c0.05-0.941,0.097-1.831,0.097-2.601c0-5.617,6.147-8.181,6.822-8.445l2.755-1.365
						c0.251-0.124,0.544-0.135,0.8-0.033c0.26,0.103,0.465,0.311,0.565,0.573l1.87,4.933l1.869-4.932
						c0.1-0.263,0.305-0.472,0.565-0.574c0.259-0.102,0.55-0.091,0.8,0.033l2.755,1.365c0.674,0.265,6.822,2.828,6.822,8.445
						c0,0.759,0.046,1.636,0.094,2.563l0.029,0.553c0.014,0.273-0.084,0.541-0.272,0.739
						C127.04,107.551,126.78,107.663,126.508,107.663z M103.666,105.663h21.796c-0.039-0.77-0.071-1.499-0.071-2.167
						c0-4.443-5.525-6.569-5.58-6.59c-0.032-0.012-0.062-0.025-0.092-0.04l-1.819-0.901l-2.408,6.352
						c-0.147,0.388-0.516,0.644-0.927,0.644c-0.411,0-0.78-0.256-0.927-0.643l-2.409-6.353l-1.819,0.902
						c-0.032,0.016-0.064,0.029-0.097,0.042c-0.147,0.057-5.576,2.193-5.576,6.587C103.737,104.164,103.705,104.894,103.666,105.663
						z"/>
				</g>
			</g>
			<g>
				<g>
					<path class="st5" d="M114.564,93.798c-4.269,0-7.743-3.488-7.743-7.776v-0.761c0-0.553,0.444-1,0.992-1
						c6.022,0,8.317-5.341,8.339-5.395c0.185-0.443,0.651-0.695,1.124-0.591c0.467,0.102,0.796,0.523,0.783,1.005
						c-0.001,0.026-0.049,2.812,1.305,4.21c0.503,0.519,1.141,0.771,1.951,0.771c0.548,0,0.992,0.447,0.992,1v0.761
						C122.307,90.31,118.833,93.798,114.564,93.798z M108.808,86.221c0.106,3.093,2.647,5.577,5.756,5.577
						c3.126,0,5.678-2.511,5.757-5.627c-0.925-0.176-1.724-0.607-2.383-1.29c-0.766-0.794-1.218-1.82-1.484-2.78
						C115.055,83.839,112.618,85.908,108.808,86.221z"/>
				</g>
			</g>
			<g>
				<g>
					<path class="st5" d="M121.114,88.728c-0.293,0-0.58-0.128-0.769-0.354c-0.208-0.248-0.297-0.583-0.214-0.897
						c0.127-0.49,0.192-0.979,0.192-1.454v-0.761c0-0.093,0.013-0.185,0.038-0.273c0.159-0.564,0.24-1.178,0.241-1.824
						c0-0.048,0.003-0.094,0.01-0.14v-0.229c0-0.5,0.366-0.923,0.858-0.991c0.114-0.016,0.231-0.025,0.352-0.025
						c0.927,0,2.308,0.62,2.308,2.327v1.333c0,1.729-1.104,3.013-2.812,3.272c-0.019,0.003-0.094,0.012-0.114,0.014
						C121.173,88.726,121.143,88.728,121.114,88.728z M121.604,83.164h0.01H121.604z"/>
				</g>
			</g>
			<g>
				<g>
					<path class="st5" d="M108.038,88.729c-0.037,0-0.073-0.002-0.109-0.006c-0.019-0.003-0.118-0.014-0.138-0.018
						c-1.688-0.256-2.792-1.54-2.792-3.269v-1.333c0-1.707,1.381-2.327,2.308-2.327c0.121,0,0.237,0.01,0.352,0.025
						c0.491,0.068,0.858,0.491,0.858,0.991v0.225c0.007,0.048,0.011,0.096,0.011,0.146c0,0.645,0.08,1.258,0.24,1.823
						c0.025,0.089,0.038,0.181,0.038,0.273v0.761c0,0.479,0.063,0.954,0.193,1.456c0.082,0.318,0.004,0.657-0.21,0.906
						C108.599,88.604,108.324,88.729,108.038,88.729z"/>
				</g>
			</g>
			<g>
				<g>
					<path class="st5" d="M105.991,98.685c-0.277,0-0.552-0.117-0.748-0.343c-0.344-0.396-0.324-0.994,0.047-1.366
						c1.414-1.419,0.914-2.934-0.17-5.71c-1.54-3.943-3.648-9.343,3.116-16.134c1.15-1.229,2.802-1.948,4.513-1.948h3.63
						c1.709,0,3.361,0.719,4.533,1.972c6.743,6.768,4.636,12.168,3.096,16.11c-1.084,2.776-1.584,4.292-0.171,5.711
						c0.37,0.371,0.391,0.969,0.047,1.365c-0.342,0.397-0.931,0.459-1.349,0.138c-1.378-1.06-2.712-1.569-2.726-1.574l-2.886-1.425
						c-0.339-0.168-0.554-0.517-0.554-0.897V92.38c-0.081-0.43,0.125-0.877,0.531-1.082c0.012-0.006,0.023-0.012,0.036-0.017
						c1.591-0.725,2.755-2.111,3.194-3.805c0.105-0.402,0.445-0.697,0.855-0.741c0.609-0.091,0.973-0.375,1.104-0.849
						c-0.184,0.231-0.465,0.374-0.773,0.374c-1.357,0-2.492-0.464-3.377-1.38c-0.766-0.794-1.218-1.82-1.484-2.78
						c-1.516,1.885-4.255,4.16-8.64,4.16c-0.308,0-0.59-0.143-0.774-0.374c0.13,0.474,0.487,0.757,1.068,0.845
						c0.392,0.06,0.791,0.358,0.891,0.745c0.439,1.692,1.602,3.078,3.19,3.802l0,0c0.008,0.004,0.016,0.008,0.023,0.012
						c0.38,0.191,0.589,0.597,0.548,1.001v2.292c0,0.381-0.215,0.729-0.554,0.897l-2.796,1.387c-0.033,0.017-0.067,0.03-0.101,0.043
						c-0.078,0.03-1.376,0.539-2.716,1.569C106.414,98.617,106.202,98.685,105.991,98.685z M106.028,87.897
						c0.266,0.912,0.607,1.786,0.938,2.636c0.612,1.567,1.236,3.167,1.168,4.708c0.289-0.133,0.469-0.201,0.49-0.209l2.151-1.07
						v-1.164c-1.649-0.928-2.893-2.418-3.515-4.211C106.785,88.442,106.369,88.207,106.028,87.897z M120.595,95.071
						c0.004,0,0.151,0.056,0.399,0.168c-0.07-1.54,0.554-3.139,1.167-4.706c0.332-0.851,0.674-1.726,0.94-2.639
						c-0.34,0.308-0.756,0.544-1.233,0.69c-0.621,1.793-1.864,3.284-3.515,4.213v1.162L120.595,95.071L120.595,95.071z
						 M108.516,83.019c0.007,0.048,0.011,0.096,0.011,0.146c0,0.366,0.026,0.723,0.078,1.065c5.433-0.439,7.526-5.312,7.547-5.363
						c0.185-0.443,0.651-0.695,1.124-0.591c0.467,0.102,0.796,0.523,0.783,1.005c-0.001,0.026-0.049,2.812,1.305,4.21
						c0.328,0.338,0.714,0.563,1.168,0.679c0.046-0.324,0.07-0.66,0.07-1.006c0-0.048,0.003-0.094,0.01-0.14v-0.229
						c0-0.5,0.366-0.923,0.858-0.991c0.513-0.069,1.166,0.018,1.728,0.404c-0.528-1.725-1.652-3.595-3.707-5.657
						c-0.831-0.89-1.928-1.366-3.11-1.366h-3.63c-1.182,0-2.28,0.477-3.09,1.343c-2.064,2.072-3.193,3.949-3.724,5.678
						c0.561-0.385,1.211-0.471,1.724-0.401c0.491,0.068,0.858,0.491,0.858,0.991V83.019z"/>
				</g>
			</g>
		</g>
		<g>
			<g>
				<path class="st5" d="M100.036,78.519c-0.272,0-0.54-0.113-0.732-0.324l-6.364-6.993c-0.244-0.269-0.592-0.423-0.955-0.423H84.97
					c-1.807,0-3.278-1.479-3.278-3.295V52.71c0-1.816,1.471-3.295,3.278-3.295h27.308c1.807,0,3.278,1.479,3.278,3.295v14.773
					c0,1.816-1.471,3.295-3.278,3.295h-9.956c-0.713,0-1.294,0.58-1.294,1.294v5.446c0,0.412-0.251,0.782-0.633,0.932
					C100.279,78.496,100.157,78.519,100.036,78.519z M84.97,51.415c-0.713,0-1.294,0.581-1.294,1.295v14.773
					c0,0.714,0.58,1.295,1.294,1.295h7.015c0.919,0,1.799,0.391,2.419,1.071l4.64,5.1v-2.877c0-1.816,1.471-3.294,3.278-3.294h9.956
					c0.713,0,1.294-0.581,1.294-1.295V52.71c0-0.714-0.58-1.295-1.294-1.295H84.97z"/>
			</g>
		</g>
		<g>
			<g>
				<path class="st5" d="M126.508,107.663H61.529c-0.548,0-0.992-0.447-0.992-1s0.444-1,0.992-1h64.979c0.548,0,0.992,0.447,0.992,1
					S127.056,107.663,126.508,107.663z"/>
			</g>
		</g>
		<g>
			<g>
				<path class="st5" d="M34.664,107.663H0.492c-0.548,0-0.992-0.447-0.992-1s0.444-1,0.992-1h34.172c0.548,0,0.992,0.447,0.992,1
					S35.212,107.663,34.664,107.663z"/>
			</g>
		</g>
	</g>
</g>
</svg>
