<?xml version="1.0" encoding="utf-8"?>
<!-- Generator: Adobe Illustrator 22.0.0, SVG Export Plug-In . SVG Version: 6.00 Build 0)  -->
<svg version="1.1" id="MARKET_RESEARCH_ICON_SET" xmlns="http://www.w3.org/2000/svg" xmlns:xlink="http://www.w3.org/1999/xlink"
	 x="0px" y="0px" viewBox="0 0 128 128" style="enable-background:new 0 0 128 128;" xml:space="preserve">
<style type="text/css">
	.st0{fill:#C2D5EC;}
	.st1{fill:#61E1FF;}
	.st2{fill:#7184AF;}
	.st3{fill:#F8F8F8;}
	.st4{fill:#3F4D81;}
	.st5{fill:#3F4D80;}
	.st6{fill:#E9EAEB;}
	.st7{fill:#F79559;}
	.st8{fill:#FFA85A;}
</style>
<g>
	<g>
		<g>
			<rect x="5.356" y="34.85" class="st0" width="122.644" height="58.3"/>
		</g>
		<g>
			<path class="st5" d="M22.456,34.85v58.3h91.088V81.534c2.995-3.686,4.795-8.389,4.795-13.517c0-5.128-1.8-9.831-4.795-13.517
				V34.85H22.456z"/>
		</g>
		<g>
			<path class="st6" d="M105.544,111.5H22.456c-2.209,0-4-1.798-4-4.017V20.517c0-2.218,1.791-4.017,4-4.017h83.088
				c2.209,0,4,1.798,4,4.017v86.967C109.544,109.702,107.753,111.5,105.544,111.5z"/>
		</g>
		<g>
			<g>
				<rect x="58.673" y="58.651" class="st2" width="16.654" height="16.724"/>
			</g>
			<g>
				<rect x="29.644" y="29.501" class="st2" width="16.654" height="16.724"/>
			</g>
			<g>
				<rect x="87.702" y="29.501" class="st2" width="16.654" height="16.724"/>
			</g>
			<g>
				<ellipse class="st2" cx="37.971" cy="67.013" rx="8.327" ry="8.362"/>
			</g>
			<g>
				<rect x="87.702" y="87.801" class="st2" width="16.654" height="16.724"/>
			</g>
			<g>
				<rect x="29.644" y="87.801" class="st2" width="16.654" height="16.724"/>
			</g>
			<g>
				<ellipse class="st0" cx="67" cy="96.162" rx="8.327" ry="8.362"/>
			</g>
			<g>
				<ellipse class="st0" cx="96.029" cy="67.013" rx="8.327" ry="8.362"/>
			</g>
			<g>
				<ellipse class="st2" cx="67" cy="37.863" rx="8.327" ry="8.362"/>
			</g>
		</g>
		<g>
			<g>
				<rect x="55.673" y="55.638" class="st2" width="16.654" height="16.724"/>
			</g>
			<g>
				<path class="st5" d="M72.327,73.362H55.673c-0.552,0-1-0.447-1-1V55.638c0-0.553,0.448-1,1-1h16.654c0.552,0,1,0.447,1,1v16.725
					C73.327,72.915,72.879,73.362,72.327,73.362z M56.673,71.362h14.654V56.638H56.673V71.362z"/>
			</g>
			<g>
				<rect x="26.644" y="26.488" class="st8" width="16.654" height="16.724"/>
			</g>
			<g>
				<rect x="84.702" y="26.488" class="st2" width="16.654" height="16.724"/>
			</g>
			<g>
				<ellipse class="st1" cx="34.971" cy="64" rx="8.327" ry="8.362"/>
			</g>
			<g>
				<ellipse class="st1" cx="64" cy="34.85" rx="8.327" ry="8.362"/>
			</g>
			<g>
				<rect x="84.702" y="84.788" class="st2" width="16.654" height="16.724"/>
			</g>
			<g>
				<rect x="26.644" y="84.788" class="st1" width="16.654" height="16.724"/>
			</g>
			<g>
				<ellipse class="st8" cx="64" cy="93.15" rx="8.327" ry="8.362"/>
			</g>
		</g>
		<g>
			<ellipse class="st1" cx="93.029" cy="64" rx="21.31" ry="21.399"/>
		</g>
		<g>
			<path class="st6" d="M95.17,85.288c-0.7,0.07-1.42,0.111-2.14,0.111c-11.77,0-21.31-9.58-21.31-21.399s9.54-21.399,21.31-21.399
				c0.72,0,1.44,0.04,2.14,0.111C84.4,43.776,75.99,52.904,75.99,64S84.4,84.224,95.17,85.288z"/>
		</g>
		<g>
			<path class="st6" d="M95.17,85.288c-0.7,0.07-1.42,0.111-2.14,0.111c-11.77,0-21.31-9.58-21.31-21.399s9.54-21.399,21.31-21.399
				c0.72,0,1.44,0.04,2.14,0.111C84.4,43.776,75.99,52.904,75.99,64S84.4,84.224,95.17,85.288z"/>
		</g>
		<g>
			<ellipse class="st6" cx="93.029" cy="64" rx="16.515" ry="16.584"/>
		</g>
		<g>
			<ellipse class="st2" cx="96.029" cy="67.013" rx="8.327" ry="8.362"/>
		</g>
		<g>
			<ellipse class="st8" cx="93.029" cy="64" rx="8.327" ry="8.362"/>
		</g>
		<g>
			<path class="st7" d="M113.112,82.182c0.247-0.248,0.531-0.432,0.832-0.568l-4.258-4.275c-0.996,1.252-2.127,2.389-3.374,3.388
				l4.258,4.275c0.135-0.302,0.318-0.587,0.565-0.835L113.112,82.182z"/>
		</g>
		<g>
			<path class="st2" d="M110.957,87.96l9.366,9.405c0.994,0.998,2.605,0.998,3.598,0l2.334-2.343c0.994-0.998,0.994-2.615,0-3.613
				l-9.366-9.405c-0.994-0.998-2.605-0.998-3.598,0l-2.334,2.343C109.964,85.344,109.964,86.962,110.957,87.96z"/>
		</g>
	</g>
	<g>
		<g>
			<g>
				<g>
					<path class="st5" d="M43.298,44.212H26.644c-0.552,0-1-0.447-1-1V26.488c0-0.553,0.448-1,1-1h16.654c0.552,0,1,0.447,1,1
						v16.724C44.298,43.765,43.851,44.212,43.298,44.212z M27.644,42.212h14.654V27.488H27.644V42.212z"/>
				</g>
			</g>
			<g>
				<g>
					<g>
						<path class="st5" d="M32.143,38.69c-0.255,0-0.511-0.097-0.706-0.291c-0.392-0.39-0.393-1.023-0.003-1.415l5.657-5.681
							c0.39-0.39,1.023-0.393,1.414-0.003c0.392,0.391,0.393,1.023,0.003,1.415l-5.657,5.681
							C32.656,38.592,32.399,38.69,32.143,38.69z"/>
					</g>
				</g>
				<g>
					<g>
						<path class="st5" d="M37.8,38.69c-0.257,0-0.513-0.099-0.708-0.294l-5.657-5.681c-0.39-0.392-0.389-1.024,0.003-1.415
							c0.391-0.39,1.025-0.389,1.414,0.003l5.657,5.681c0.39,0.392,0.389,1.025-0.003,1.415C38.311,38.594,38.055,38.69,37.8,38.69z
							"/>
					</g>
				</g>
			</g>
			<g>
				<g>
					<g>
						<path class="st5" d="M61.171,96.99c-0.255,0-0.511-0.097-0.706-0.291c-0.392-0.391-0.393-1.023-0.003-1.415l5.657-5.681
							c0.39-0.39,1.023-0.393,1.414-0.003c0.392,0.39,0.393,1.023,0.003,1.415l-5.657,5.681
							C61.685,96.892,61.428,96.99,61.171,96.99z"/>
					</g>
				</g>
				<g>
					<g>
						<path class="st5" d="M66.829,96.99c-0.257,0-0.513-0.098-0.708-0.294l-5.657-5.681c-0.39-0.392-0.389-1.025,0.003-1.415
							c0.391-0.389,1.025-0.386,1.414,0.003l5.657,5.681c0.39,0.392,0.389,1.024-0.003,1.415
							C67.339,96.894,67.084,96.99,66.829,96.99z"/>
					</g>
				</g>
			</g>
			<g>
				<g>
					<path class="st5" d="M101.356,44.212h-3.348c-0.079,0-0.157-0.01-0.234-0.027c-3.22-0.775-6.271-0.775-9.49,0
						c-0.077,0.018-0.155,0.027-0.234,0.027h-3.348c-0.552,0-1-0.447-1-1V26.488c0-0.553,0.448-1,1-1h16.654c0.552,0,1,0.447,1,1
						v16.724C102.356,43.765,101.908,44.212,101.356,44.212z M98.125,42.212h2.231V27.488H85.702v14.724h2.231
						C91.38,41.401,94.678,41.401,98.125,42.212z"/>
				</g>
			</g>
			<g>
				<g>
					<path class="st5" d="M93.029,73.362c-5.143,0-9.327-4.2-9.327-9.362s4.184-9.362,9.327-9.362s9.327,4.2,9.327,9.362
						S98.172,73.362,93.029,73.362z M93.029,56.638c-4.04,0-7.327,3.303-7.327,7.362s3.287,7.362,7.327,7.362
						s7.327-3.303,7.327-7.362S97.069,56.638,93.029,56.638z"/>
				</g>
			</g>
			<g>
				<g>
					<path class="st5" d="M34.971,73.362c-5.143,0-9.327-4.2-9.327-9.362s4.184-9.362,9.327-9.362s9.327,4.2,9.327,9.362
						S40.114,73.362,34.971,73.362z M34.971,56.638c-4.04,0-7.327,3.303-7.327,7.362s3.287,7.362,7.327,7.362
						S42.298,68.06,42.298,64S39.011,56.638,34.971,56.638z"/>
				</g>
			</g>
			<g>
				<g>
					<path class="st5" d="M64,44.212c-5.143,0-9.327-4.2-9.327-9.362s4.184-9.361,9.327-9.361s9.327,4.199,9.327,9.361
						S69.143,44.212,64,44.212z M64,27.488c-4.04,0-7.327,3.303-7.327,7.361c0,4.06,3.287,7.362,7.327,7.362
						s7.327-3.303,7.327-7.362C71.327,30.791,68.04,27.488,64,27.488z"/>
				</g>
			</g>
			<g>
				<g>
					<path class="st5" d="M101.356,102.512H84.702c-0.552,0-1-0.447-1-1V84.788c0-0.553,0.448-1,1-1h3.348
						c0.079,0,0.157,0.01,0.234,0.027c3.221,0.775,6.27,0.775,9.49,0c0.077-0.018,0.155-0.027,0.234-0.027h3.348
						c0.552,0,1,0.447,1,1v16.724C102.356,102.064,101.908,102.512,101.356,102.512z M85.702,100.512h14.654V85.788h-2.231
						c-3.448,0.811-6.744,0.811-10.192,0h-2.231V100.512z"/>
				</g>
			</g>
			<g>
				<g>
					<path class="st5" d="M43.298,102.512H26.644c-0.552,0-1-0.447-1-1V84.788c0-0.553,0.448-1,1-1h16.654c0.552,0,1,0.447,1,1
						v16.724C44.298,102.064,43.851,102.512,43.298,102.512z M27.644,100.512h14.654V85.788H27.644V100.512z"/>
				</g>
			</g>
			<g>
				<g>
					<path class="st5" d="M64,102.512c-5.143,0-9.327-4.199-9.327-9.361s4.184-9.362,9.327-9.362s9.327,4.2,9.327,9.362
						S69.143,102.512,64,102.512z M64,85.788c-4.04,0-7.327,3.303-7.327,7.362c0,4.059,3.287,7.361,7.327,7.361
						s7.327-3.303,7.327-7.361C71.327,89.091,68.04,85.788,64,85.788z"/>
				</g>
			</g>
			<g>
				<g>
					<g>
						<path class="st5" d="M90.2,67.84c-0.255,0-0.511-0.097-0.706-0.291c-0.392-0.391-0.393-1.023-0.003-1.415l5.657-5.68
							c0.389-0.393,1.023-0.394,1.414-0.003c0.392,0.391,0.393,1.023,0.003,1.415l-5.657,5.68
							C90.713,67.742,90.457,67.84,90.2,67.84z"/>
					</g>
				</g>
				<g>
					<g>
						<path class="st5" d="M95.857,67.84c-0.257,0-0.513-0.098-0.708-0.294l-5.657-5.68c-0.39-0.392-0.389-1.024,0.003-1.415
							c0.391-0.39,1.025-0.388,1.414,0.003l5.657,5.68c0.39,0.392,0.389,1.024-0.003,1.415C96.368,67.743,96.113,67.84,95.857,67.84
							z"/>
					</g>
				</g>
			</g>
		</g>
		<g>
			<g>
				<path class="st5" d="M93.029,86.399c-12.302,0-22.311-10.048-22.311-22.399s10.008-22.399,22.311-22.399
					S115.339,51.648,115.339,64S105.331,86.399,93.029,86.399z M93.029,43.601c-11.199,0-20.311,9.151-20.311,20.399
					s9.111,20.399,20.311,20.399S113.339,75.248,113.339,64S104.228,43.601,93.029,43.601z"/>
			</g>
		</g>
		<g>
			<g>
				<path class="st5" d="M93.029,81.584c-9.658,0-17.515-7.888-17.515-17.584s7.857-17.584,17.515-17.584S110.544,54.304,110.544,64
					S102.687,81.584,93.029,81.584z M93.029,48.416c-8.555,0-15.515,6.991-15.515,15.584s6.96,15.584,15.515,15.584
					S108.544,72.593,108.544,64S101.584,48.416,93.029,48.416z"/>
			</g>
		</g>
		<g>
			<g>
				<path class="st5" d="M110.57,86.003c-0.264,0-0.519-0.104-0.708-0.294l-4.257-4.275c-0.2-0.201-0.306-0.479-0.29-0.762
					c0.016-0.283,0.151-0.547,0.373-0.725c1.187-0.952,2.27-2.039,3.217-3.23c0.178-0.224,0.442-0.36,0.727-0.376
					c0.285-0.013,0.563,0.091,0.764,0.292l4.258,4.275c0.231,0.232,0.334,0.563,0.275,0.887c-0.059,0.322-0.272,0.596-0.571,0.73
					c-0.214,0.097-0.39,0.215-0.536,0.362l-1.977,1.985c-0.145,0.145-0.266,0.326-0.361,0.539c-0.135,0.301-0.409,0.516-0.732,0.574
					C110.69,85.998,110.629,86.003,110.57,86.003z M107.787,80.791l2.649,2.66l1.963-1.971l-2.649-2.66
					C109.137,79.517,108.481,80.176,107.787,80.791z"/>
			</g>
		</g>
		<g>
			<g>
				<path class="st5" d="M122.123,99.113c-0.948,0-1.838-0.371-2.508-1.044l-9.366-9.403c0,0,0,0,0-0.001
					c-1.38-1.386-1.38-3.64,0-5.024l2.333-2.343c1.339-1.347,3.676-1.346,5.015,0l9.366,9.404c1.379,1.386,1.379,3.64,0,5.024
					l-2.333,2.344C123.96,98.742,123.07,99.113,122.123,99.113z M111.666,87.254l9.366,9.404c0.582,0.585,1.597,0.584,2.181,0.001
					l2.333-2.344c0.604-0.606,0.604-1.595,0-2.202l-9.366-9.404c-0.583-0.586-1.598-0.586-2.181-0.001l-2.333,2.344
					C111.061,85.659,111.061,86.647,111.666,87.254L111.666,87.254z"/>
			</g>
		</g>
		<g>
			<g>
				<path class="st5" d="M105.544,112.5H22.456c-2.757,0-5-2.25-5-5.017V20.517c0-2.767,2.243-5.017,5-5.017h83.088
					c2.757,0,5,2.25,5,5.017v29.967c0,0.423-0.267,0.801-0.666,0.942c-0.396,0.143-0.843,0.018-1.11-0.312
					c-3.88-4.775-9.617-7.514-15.739-7.514c-11.199,0-20.311,9.151-20.311,20.399s9.111,20.399,20.311,20.399
					c4.659,0,9.043-1.546,12.678-4.471c0.42-0.338,1.03-0.282,1.382,0.124c0.038,0.044,0.072,0.091,0.101,0.139l3.062,3.075
					c0.187,0.188,0.292,0.441,0.292,0.706v23.511C110.544,110.25,108.301,112.5,105.544,112.5z M22.456,17.5
					c-1.654,0-3,1.354-3,3.017v86.967c0,1.663,1.346,3.017,3,3.017h83.088c1.654,0,3-1.354,3-3.017V84.386l-2.32-2.33
					c-3.843,2.845-8.386,4.344-13.195,4.344c-12.302,0-22.311-10.048-22.311-22.399s10.008-22.399,22.311-22.399
					c5.846,0,11.371,2.271,15.515,6.309V20.517c0-1.663-1.346-3.017-3-3.017H22.456z"/>
			</g>
		</g>
		<g>
			<g>
				<path class="st5" d="M23.768,94.15h-2c-0.552,0-1-0.447-1-1s0.448-1,1-1h2c0.552,0,1,0.447,1,1S24.32,94.15,23.768,94.15z
					 M17.768,94.15h-2c-0.552,0-1-0.447-1-1s0.448-1,1-1h2c0.552,0,1,0.447,1,1S18.32,94.15,17.768,94.15z M11.768,94.15h-2
					c-0.552,0-1-0.447-1-1s0.448-1,1-1h2c0.552,0,1,0.447,1,1S12.32,94.15,11.768,94.15z M5.768,94.15H5.356c-0.552,0-1-0.447-1-1
					v-1.588c0-0.553,0.448-1,1-1s1,0.447,1,1v0.779c0.25,0.182,0.412,0.477,0.412,0.809C6.768,93.703,6.32,94.15,5.768,94.15z
					 M5.356,88.562c-0.552,0-1-0.447-1-1v-2c0-0.553,0.448-1,1-1s1,0.447,1,1v2C6.356,88.115,5.909,88.562,5.356,88.562z
					 M5.356,82.562c-0.552,0-1-0.447-1-1v-2c0-0.553,0.448-1,1-1s1,0.447,1,1v2C6.356,82.115,5.909,82.562,5.356,82.562z
					 M5.356,76.562c-0.552,0-1-0.447-1-1v-2c0-0.553,0.448-1,1-1s1,0.447,1,1v2C6.356,76.115,5.909,76.562,5.356,76.562z
					 M5.356,70.562c-0.552,0-1-0.447-1-1v-2c0-0.553,0.448-1,1-1s1,0.447,1,1v2C6.356,70.115,5.909,70.562,5.356,70.562z
					 M5.356,64.562c-0.552,0-1-0.447-1-1v-2c0-0.553,0.448-1,1-1s1,0.447,1,1v2C6.356,64.115,5.909,64.562,5.356,64.562z
					 M5.356,58.562c-0.552,0-1-0.447-1-1v-2c0-0.553,0.448-1,1-1s1,0.447,1,1v2C6.356,58.115,5.909,58.562,5.356,58.562z
					 M5.356,52.562c-0.552,0-1-0.447-1-1v-2c0-0.553,0.448-1,1-1s1,0.447,1,1v2C6.356,52.115,5.909,52.562,5.356,52.562z
					 M5.356,46.562c-0.552,0-1-0.447-1-1v-2c0-0.553,0.448-1,1-1s1,0.447,1,1v2C6.356,46.115,5.909,46.562,5.356,46.562z
					 M5.356,40.562c-0.552,0-1-0.447-1-1v-2c0-0.553,0.448-1,1-1s1,0.447,1,1v2C6.356,40.115,5.909,40.562,5.356,40.562z
					 M26.644,35.85h-2c-0.552,0-1-0.447-1-1s0.448-1,1-1h2c0.552,0,1,0.447,1,1S27.196,35.85,26.644,35.85z M20.644,35.85h-2
					c-0.552,0-1-0.447-1-1s0.448-1,1-1h2c0.552,0,1,0.447,1,1S21.196,35.85,20.644,35.85z M14.644,35.85h-2c-0.552,0-1-0.447-1-1
					s0.448-1,1-1h2c0.552,0,1,0.447,1,1S15.196,35.85,14.644,35.85z M8.644,35.85h-2c-0.552,0-1-0.447-1-1s0.448-1,1-1h2
					c0.552,0,1,0.447,1,1S9.196,35.85,8.644,35.85z"/>
			</g>
		</g>
		<g>
			<g>
				<g>
					<path class="st5" d="M5.356,64.641c-0.266,0-0.521-0.105-0.708-0.294l-4.356-4.375c-0.39-0.392-0.389-1.025,0.003-1.415
						c0.392-0.389,1.025-0.386,1.414,0.003l3.648,3.664l3.647-3.663c0.39-0.391,1.022-0.394,1.414-0.004s0.393,1.023,0.003,1.414
						l-4.356,4.375C5.877,64.534,5.623,64.641,5.356,64.641z"/>
				</g>
			</g>
		</g>
	</g>
</g>
</svg>
