<?xml version="1.0" encoding="utf-8"?>
<!-- Generator: Adobe Illustrator 22.0.0, SVG Export Plug-In . SVG Version: 6.00 Build 0)  -->
<svg version="1.1" id="MARKET_RESEARCH_ICON_SET" xmlns="http://www.w3.org/2000/svg" xmlns:xlink="http://www.w3.org/1999/xlink"
	 x="0px" y="0px" viewBox="0 0 128 128" style="enable-background:new 0 0 128 128;" xml:space="preserve">
<style type="text/css">
	.st0{fill:#C2D5EC;}
	.st1{fill:#61E1FF;}
	.st2{fill:#7184AF;}
	.st3{fill:#F8F8F8;}
	.st4{fill:#3F4D81;}
	.st5{fill:#3F4D80;}
	.st6{fill:#E9EAEB;}
	.st7{fill:#F79559;}
	.st8{fill:#FFA85A;}
</style>
<g>
	<g>
		<g>
			<rect x="30.423" y="57.941" class="st0" width="97.063" height="51.85"/>
			<path class="st5" d="M127.485,107.389l-7.435-7.42c-0.824-0.822-2.068-0.952-3.037-0.41l-4.311-4.302
				c2.988-3.735,4.778-8.465,4.778-13.616c0-5.42-1.982-10.375-5.257-14.193l0,0c0.089-0.269,0.178-0.537,0.255-0.812h9.094v-8.696
				h-17.051c0.554,1.226,0.87,2.581,0.87,4.013c0,0.051-0.007,0.101-0.008,0.152c-2.947-1.474-6.27-2.308-9.79-2.308
				c-12.088,0-21.887,9.78-21.887,21.843c0,12.064,9.799,21.843,21.887,21.843c5.161,0,9.901-1.787,13.643-4.769l4.311,4.302
				c-0.543,0.967-0.413,2.209,0.411,3.031l3.749,3.742h7.533L127.485,107.389z"/>
			<ellipse class="st0" cx="25.039" cy="63.986" rx="24.519" ry="24.471"/>
		</g>
		<g>
			<g>
				<path class="st2" d="M108.562,53.6c-0.391-1.518-0.972-2.957-1.731-4.286l6.339-6.326l-6.409-6.396l-6.3,6.287
					c-1.342-0.787-2.795-1.397-4.334-1.808v-8.875h-4.532v15.989c5.411,0,9.798,4.378,9.798,9.778c0,0.051-0.007,0.101-0.008,0.152
					c2.626,1.313,4.948,3.137,6.84,5.342c0.089-0.269,0.178-0.537,0.255-0.812h9.094V53.6H108.562z"/>
			</g>
			<g>
				<path class="st2" d="M113.059,73.368l0.11-0.11l-0.169-0.168C113.021,73.183,113.041,73.275,113.059,73.368z"/>
			</g>
		</g>
		<g>
			<g>
				<path class="st6" d="M30.423,109.791h55.789c2.973,0,5.384-2.406,5.384-5.373V20.873c0-2.967-2.41-5.373-5.384-5.373h-47.38
					L25.039,29.265v75.152C25.039,107.385,27.449,109.791,30.423,109.791z"/>
			</g>
			<g>
				<polygon class="st2" points="41.831,32.259 41.831,15.5 38.832,15.5 25.039,29.265 25.039,32.259 				"/>
			</g>
			<g>
				<path class="st2" d="M28.038,49.755c-1.025,0-2.023,0.106-2.999,0.277v33.894c0.976,0.171,1.974,0.277,2.999,0.277
					c9.531,0,17.258-7.711,17.258-17.224C45.297,57.466,37.57,49.755,28.038,49.755z"/>
			</g>
			<g>
				<polygon class="st2" points="38.832,15.5 38.832,29.265 25.039,29.265 				"/>
			</g>
		</g>
		<g>
			<g>
				<ellipse class="st1" cx="91.596" cy="77.65" rx="21.887" ry="21.843"/>
			</g>
			<g>
				<path class="st6" d="M93.593,99.404c-0.66,0.06-1.33,0.09-2,0.09c-12.087,0-21.885-9.778-21.885-21.841
					c0-12.063,9.798-21.842,21.885-21.842c0.67,0,1.34,0.03,2,0.09c-11.147,1.008-19.885,10.357-19.885,21.752
					C73.708,89.047,82.446,98.396,93.593,99.404z"/>
			</g>
			<g>
				<g>
					<ellipse class="st8" cx="64.075" cy="99.089" rx="2.759" ry="2.754"/>
				</g>
				<g>
					<ellipse class="st8" cx="53.021" cy="87.018" rx="2.759" ry="2.754"/>
				</g>
				<g>
					<ellipse class="st8" cx="41.776" cy="98.241" rx="2.759" ry="2.754"/>
				</g>
				<g>
					<path class="st6" d="M90.264,72.952l9.697,9.678c0,0,4.138-4.129,8.272-8.256c-1.53-7.78-8.394-13.651-16.638-13.651
						c-9.368,0-16.962,7.579-16.962,16.928c0,3.127,0.864,6.046,2.346,8.559L90.264,72.952L90.264,72.952z"/>
				</g>
				<g>
					<path class="st2" d="M99.961,82.63l-9.697-9.678v0L76.98,86.21c2.948,5.002,8.381,8.369,14.616,8.369
						c9.368,0,16.962-7.579,16.962-16.928c0-1.122-0.115-2.216-0.324-3.277C104.099,78.5,99.961,82.63,99.961,82.63z"/>
				</g>
				<g>
					<ellipse class="st7" cx="90.264" cy="72.952" rx="2.759" ry="2.754"/>
				</g>
				<g>
					<ellipse class="st7" cx="99.961" cy="82.63" rx="2.759" ry="2.754"/>
				</g>
			</g>
			<g>
				<path class="st7" d="M112.222,96.21c0.254-0.253,0.546-0.441,0.854-0.579l-4.373-4.364c-1.023,1.278-2.185,2.438-3.466,3.459
					l4.373,4.364c0.139-0.308,0.327-0.6,0.581-0.853L112.222,96.21z"/>
			</g>
			<g>
				<path class="st2" d="M109.96,102.058l9.718,9.698c0.993,0.991,2.604,0.991,3.597,0l2.495-2.49c0.993-0.991,0.993-2.599,0-3.59
					l-9.718-9.698c-0.993-0.991-2.604-0.991-3.597,0l-2.495,2.49C108.966,99.459,108.966,101.067,109.96,102.058z"/>
			</g>
		</g>
		<g>
			<g>
				<path class="st8" d="M33.51,48.989v24.843c-2.277,1.953-5.233,3.141-8.471,3.141c-3.238,0-6.194-1.188-8.471-3.141V48.989
					c-5.242,2.956-8.787,8.559-8.787,14.997c0,9.513,7.727,17.224,17.258,17.224c9.531,0,17.258-7.711,17.258-17.224
					C42.297,57.548,38.752,51.945,33.51,48.989z"/>
			</g>
			<g>
				<path class="st2" d="M16.568,54.14c-2.777,2.382-4.542,5.905-4.542,9.846s1.765,7.464,4.542,9.846V54.14z"/>
			</g>
			<g>
				<path class="st2" d="M33.51,54.14v19.691c-0.251,0.215-0.513,0.417-0.779,0.613c3.221-2.364,5.321-6.162,5.321-10.458
					C38.052,60.045,36.286,56.522,33.51,54.14z"/>
			</g>
			<g>
				<path class="st6" d="M31.653,46.762H18.425c-1.025,0-1.857,0.83-1.857,1.853v25.217c2.277,1.953,5.233,3.141,8.471,3.141
					c3.238,0,6.194-1.188,8.471-3.141V48.615C33.51,47.591,32.679,46.762,31.653,46.762z"/>
			</g>
		</g>
	</g>
	<g>
		<g>
			<g>
				<g>
					<path class="st5" d="M108.21,64.436c-0.283,0-0.557-0.109-0.744-0.327c-1.829-2.132-4.024-3.848-6.528-5.099
						c-0.339-0.169-0.553-0.516-0.553-0.895c0-0.025,0.005-0.128,0.007-0.153c0.001-4.84-3.946-8.777-8.798-8.777
						c-0.553,0-1-0.447-1-1V32.195c0-0.553,0.447-1,1-1h4.532c0.553,0,1,0.447,1,1v8.124c1.094,0.342,2.154,0.783,3.162,1.318
						l5.765-5.754c0.391-0.389,1.021-0.389,1.412,0l6.409,6.396c0.188,0.188,0.294,0.442,0.294,0.708s-0.105,0.521-0.294,0.708
						l-5.809,5.798c0.509,0.987,0.929,2.028,1.255,3.107h8.254c0.553,0,1,0.447,1,1v9.045c0,0.553-0.447,1-1,1h-8.358
						c-0.009,0.026-0.018,0.053-0.026,0.078c-0.113,0.343-0.41,0.621-0.763,0.69C108.355,64.429,108.282,64.436,108.21,64.436z
						 M102.384,57.506c2.097,1.119,3.988,2.544,5.641,4.249c0.138-0.07,0.293-0.109,0.455-0.109h8.095v-7.045h-8.013
						c-0.456,0-0.854-0.309-0.969-0.751c-0.367-1.43-0.916-2.789-1.63-4.04c-0.224-0.392-0.157-0.885,0.162-1.204l5.629-5.618
						l-4.993-4.982l-5.593,5.582c-0.322,0.322-0.82,0.386-1.212,0.154c-1.274-0.747-2.649-1.32-4.086-1.704
						c-0.437-0.116-0.742-0.513-0.742-0.966v-7.876h-2.533V47.23C97.933,47.722,102.157,52.106,102.384,57.506z"/>
				</g>
			</g>
			<g>
				<g>
					<path class="st5" d="M113.059,74.368c-0.097,0-0.194-0.014-0.29-0.043c-0.352-0.106-0.618-0.399-0.69-0.761l-0.056-0.269
						c-0.091-0.433,0.113-0.875,0.502-1.085c0.391-0.211,0.87-0.142,1.183,0.172l0.168,0.168c0.391,0.391,0.391,1.023,0,1.414
						l-0.11,0.11C113.575,74.266,113.321,74.368,113.059,74.368z"/>
				</g>
			</g>
		</g>
		<g>
			<g>
				<g>
					<path class="st5" d="M86.212,110.791H30.423c-3.52,0-6.383-2.859-6.383-6.373V81.21c0-0.553,0.448-1,1-1
						c8.965,0,16.258-7.278,16.258-16.225c0-5.834-3.172-11.246-8.279-14.125c-0.314-0.177-0.509-0.51-0.509-0.871v-0.375
						c0-0.47-0.384-0.853-0.857-0.853h-6.614c-0.552,0-1-0.447-1-1V29.266c0-0.266,0.105-0.521,0.293-0.708l13.793-13.766
						c0.187-0.187,0.442-0.292,0.706-0.292h47.38c3.52,0,6.383,2.859,6.383,6.373v34.934c0,0.553-0.447,1-1,1
						c-11.517,0-20.887,9.351-20.887,20.844s9.37,20.844,20.887,20.844c0.553,0,1,0.447,1,1v4.924
						C92.595,107.932,89.731,110.791,86.212,110.791z M26.039,82.183v22.235c0,2.411,1.966,4.373,4.384,4.373h55.789
						c2.417,0,4.384-1.962,4.384-4.373v-3.945C78.438,99.948,68.709,89.912,68.709,77.65s9.729-22.298,21.887-22.822V20.873
						c0-2.411-1.966-4.373-4.384-4.373H39.245L26.039,29.681v16.081h5.614c1.506,0,2.744,1.171,2.849,2.649
						c5.44,3.299,8.795,9.213,8.795,15.574C43.297,73.699,35.643,81.663,26.039,82.183z"/>
				</g>
			</g>
			<g>
				<g>
					<path class="st5" d="M38.832,30.266H25.039c-0.405,0-0.769-0.244-0.924-0.618c-0.154-0.374-0.068-0.804,0.218-1.09
						l13.793-13.766c0.287-0.285,0.717-0.368,1.09-0.216c0.373,0.155,0.617,0.52,0.617,0.924v13.766
						C39.832,29.818,39.384,30.266,38.832,30.266z M27.456,28.266h10.376V17.91L27.456,28.266z"/>
				</g>
			</g>
		</g>
		<g>
			<g>
				<g>
					<g>
						<path class="st5" d="M91.595,100.494c-12.619,0-22.886-10.248-22.886-22.844s10.267-22.844,22.886-22.844
							c12.62,0,22.887,10.248,22.887,22.844S104.215,100.494,91.595,100.494z M91.595,56.807c-11.517,0-20.887,9.351-20.887,20.844
							s9.37,20.844,20.887,20.844c11.518,0,20.888-9.351,20.888-20.844S103.113,56.807,91.595,56.807z"/>
					</g>
				</g>
				<g>
					<g>
						<g>
							<path class="st5" d="M101.912,81.683c-0.256,0-0.513-0.098-0.708-0.294c-0.39-0.391-0.39-1.023,0.002-1.414l6.327-6.314
								c0.391-0.389,1.023-0.391,1.414,0.002c0.39,0.391,0.39,1.023-0.002,1.414l-6.327,6.314
								C102.423,81.585,102.168,81.683,101.912,81.683z"/>
						</g>
					</g>
					<g>
						<g>
							<path class="st5" d="M98.01,81.683c-0.256,0-0.511-0.098-0.706-0.292l-5.795-5.783c-0.392-0.391-0.392-1.023-0.002-1.414
								c0.391-0.393,1.023-0.391,1.414-0.002l5.795,5.783c0.392,0.391,0.392,1.023,0.002,1.414
								C98.522,81.585,98.265,81.683,98.01,81.683z"/>
						</g>
					</g>
					<g>
						<g>
							<path class="st5" d="M76.968,87.223c-0.256,0-0.513-0.098-0.708-0.294c-0.39-0.391-0.39-1.023,0.002-1.414l11.345-11.323
								c0.391-0.389,1.023-0.391,1.414,0.002c0.39,0.391,0.39,1.023-0.002,1.414L77.674,86.931
								C77.478,87.125,77.223,87.223,76.968,87.223z"/>
						</g>
					</g>
					<g>
						<g>
							<path class="st5" d="M66.026,98.142c-0.256,0-0.513-0.098-0.708-0.294c-0.39-0.391-0.389-1.024,0.002-1.414l7.37-7.354
								c0.391-0.389,1.023-0.391,1.414,0.002c0.39,0.391,0.39,1.024-0.002,1.414l-7.37,7.354
								C66.536,98.044,66.282,98.142,66.026,98.142z"/>
						</g>
					</g>
					<g>
						<g>
							<path class="st5" d="M91.595,95.579c-9.904,0-17.961-8.043-17.961-17.929s8.057-17.928,17.961-17.928
								s17.962,8.042,17.962,17.928S101.499,95.579,91.595,95.579z M91.595,61.723c-8.801,0-15.961,7.146-15.961,15.928
								c0,8.783,7.16,15.929,15.961,15.929c8.802,0,15.962-7.146,15.962-15.929C107.557,68.868,100.397,61.723,91.595,61.723z"/>
						</g>
					</g>
					<g>
						<g>
							<path class="st5" d="M90.264,76.704c-0.963,0-1.924-0.365-2.658-1.097c0,0-0.001,0-0.001-0.001
								c-0.71-0.709-1.1-1.652-1.1-2.654c0-1.003,0.391-1.946,1.1-2.655c1.466-1.463,3.851-1.462,5.315-0.001
								c0.711,0.71,1.102,1.652,1.102,2.656c0,1.003-0.392,1.945-1.102,2.655C92.189,76.338,91.227,76.704,90.264,76.704z
								 M89.019,74.191c0.687,0.686,1.803,0.686,2.491,0c0.332-0.331,0.515-0.771,0.515-1.239c0-0.469-0.183-0.909-0.515-1.24
								c-0.687-0.686-1.803-0.686-2.491,0c-0.331,0.331-0.514,0.771-0.514,1.24C88.505,73.42,88.688,73.86,89.019,74.191z"/>
						</g>
					</g>
					<g>
						<g>
							<path class="st5" d="M64.075,102.842c-0.963,0-1.925-0.366-2.658-1.098c-0.71-0.709-1.102-1.652-1.102-2.655
								s0.392-1.946,1.102-2.655c1.465-1.463,3.849-1.463,5.314,0c0.711,0.709,1.102,1.652,1.102,2.655s-0.392,1.946-1.102,2.655
								C65.999,102.476,65.037,102.842,64.075,102.842z M64.075,97.336c-0.451,0-0.901,0.171-1.244,0.514
								c-0.332,0.331-0.515,0.771-0.515,1.239s0.183,0.908,0.515,1.239h0c0.686,0.686,1.803,0.686,2.489,0
								c0.333-0.331,0.516-0.771,0.516-1.239s-0.183-0.908-0.515-1.239C64.977,97.507,64.526,97.336,64.075,97.336z"/>
						</g>
					</g>
					<g>
						<g>
							<path class="st5" d="M53.02,90.771c-0.962,0-1.924-0.366-2.657-1.097l0,0c-0.711-0.71-1.102-1.653-1.102-2.656
								s0.392-1.945,1.102-2.654c1.465-1.464,3.848-1.464,5.315,0c0.71,0.709,1.101,1.651,1.101,2.654
								c0,1.003-0.391,1.946-1.101,2.656C54.946,90.404,53.983,90.771,53.02,90.771z M51.776,88.258c0.686,0.685,1.802,0.687,2.49,0
								c0.331-0.331,0.514-0.771,0.514-1.24c0-0.468-0.183-0.907-0.515-1.238c-0.687-0.687-1.804-0.686-2.49,0
								c-0.332,0.331-0.515,0.771-0.515,1.238C51.261,87.486,51.444,87.927,51.776,88.258L51.776,88.258z"/>
						</g>
					</g>
					<g>
						<g>
							<path class="st5" d="M41.776,101.993c-0.963,0-1.925-0.365-2.658-1.097l0,0c-0.71-0.71-1.102-1.652-1.102-2.655
								c0-1.004,0.392-1.946,1.102-2.656c1.465-1.464,3.849-1.464,5.315,0c0.71,0.71,1.102,1.652,1.102,2.656
								c0,1.003-0.392,1.945-1.102,2.655C43.701,101.628,42.738,101.993,41.776,101.993z M40.531,99.48
								c0.686,0.686,1.803,0.686,2.49,0c0.332-0.331,0.515-0.771,0.515-1.239c0-0.469-0.183-0.909-0.515-1.24
								c-0.686-0.686-1.803-0.686-2.49,0c-0.332,0.331-0.515,0.771-0.515,1.24C40.016,98.709,40.199,99.149,40.531,99.48
								L40.531,99.48z"/>
						</g>
					</g>
					<g>
						<g>
							<path class="st5" d="M99.961,86.382c-0.963,0-1.924-0.365-2.658-1.097c0,0-0.001,0-0.001-0.001
								c-0.71-0.709-1.1-1.652-1.1-2.655s0.392-1.945,1.101-2.654c1.465-1.463,3.849-1.464,5.315,0.001
								c0.71,0.708,1.101,1.65,1.101,2.653s-0.392,1.946-1.102,2.656C101.886,86.016,100.924,86.382,99.961,86.382z M98.716,83.869
								c0.687,0.686,1.803,0.686,2.491,0c0.332-0.331,0.515-0.771,0.515-1.24c0-0.468-0.183-0.907-0.515-1.238
								c-0.687-0.686-1.803-0.684-2.491,0c-0.331,0.331-0.514,0.771-0.514,1.238C98.202,83.098,98.385,83.537,98.716,83.869z"/>
						</g>
					</g>
					<g>
						<g>
							<path class="st5" d="M43.727,97.293c-0.256,0-0.513-0.098-0.708-0.294c-0.39-0.391-0.389-1.023,0.002-1.414l7.343-7.327
								c0.39-0.39,1.023-0.39,1.414,0.002c0.39,0.391,0.389,1.023-0.002,1.414l-7.343,7.327
								C44.238,97.195,43.982,97.293,43.727,97.293z"/>
						</g>
					</g>
					<g>
						<g>
							<path class="st5" d="M62.124,98.142c-0.278,0-0.555-0.115-0.753-0.342l-7.152-8.176c-0.364-0.415-0.322-1.047,0.094-1.411
								c0.416-0.365,1.047-0.322,1.411,0.095l7.152,8.176c0.364,0.415,0.322,1.047-0.094,1.411
								C62.592,98.061,62.358,98.142,62.124,98.142z"/>
						</g>
					</g>
				</g>
				<g>
					<g>
						<path class="st5" d="M109.612,100.089c-0.263,0-0.517-0.104-0.706-0.292l-4.373-4.364c-0.202-0.201-0.309-0.479-0.292-0.764
							c0.016-0.285,0.152-0.549,0.375-0.727c1.219-0.972,2.331-2.082,3.308-3.301c0.177-0.222,0.44-0.357,0.724-0.373
							c0.277-0.024,0.56,0.089,0.762,0.29l4.373,4.363c0.233,0.232,0.337,0.564,0.277,0.888c-0.059,0.324-0.273,0.598-0.573,0.732
							c-0.219,0.098-0.406,0.225-0.558,0.376l-2.031,2.026c-0.149,0.149-0.276,0.337-0.374,0.556
							c-0.136,0.299-0.408,0.513-0.731,0.572C109.732,100.083,109.671,100.089,109.612,100.089z M106.719,94.789l2.756,2.75
							c0.003-0.003,0.006-0.007,0.01-0.01l2.032-2.027l0,0c0.003-0.003,0.006-0.006,0.008-0.008l-2.756-2.751
							C108.128,93.468,107.443,94.151,106.719,94.789z"/>
					</g>
				</g>
				<g>
					<g>
						<path class="st5" d="M121.476,113.499c-0.907,0-1.814-0.345-2.504-1.034l-9.717-9.698l0,0c-0.671-0.669-1.04-1.559-1.04-2.505
							c0.001-0.945,0.37-1.834,1.04-2.502l2.495-2.489c1.381-1.379,3.627-1.38,5.01,0.001l9.717,9.697
							c0.67,0.668,1.04,1.558,1.04,2.503s-0.37,1.835-1.04,2.503l-2.495,2.49C123.29,113.154,122.383,113.499,121.476,113.499z
							 M110.666,101.351l9.718,9.698c0.603,0.602,1.582,0.602,2.185,0l2.495-2.49c0.291-0.291,0.452-0.677,0.452-1.087
							s-0.161-0.796-0.452-1.087l-9.717-9.698c-0.603-0.602-1.583-0.603-2.184-0.001l-2.496,2.49
							c-0.291,0.29-0.451,0.677-0.452,1.087C110.214,100.673,110.375,101.06,110.666,101.351L110.666,101.351z"/>
					</g>
				</g>
			</g>
			<g>
				<g>
					<g>
						<path class="st5" d="M25.039,82.21c-10.068,0-18.258-8.176-18.258-18.225c0-6.555,3.562-12.635,9.296-15.868
							c0.31-0.174,0.688-0.171,0.995,0.008s0.495,0.508,0.495,0.863V73.36c2.124,1.688,4.759,2.612,7.471,2.612
							s5.347-0.925,7.471-2.612V48.988c0-0.355,0.188-0.685,0.495-0.863c0.307-0.179,0.685-0.183,0.995-0.008
							c5.734,3.233,9.296,9.313,9.296,15.868C43.297,74.034,35.107,82.21,25.039,82.21z M15.568,50.811
							c-4.226,3.029-6.788,7.932-6.788,13.175c0,8.946,7.294,16.225,16.258,16.225s16.258-7.278,16.258-16.225
							c0-5.243-2.562-10.146-6.788-13.176v23.021c0,0.292-0.127,0.569-0.349,0.759c-2.542,2.182-5.781,3.383-9.121,3.383
							c-3.341,0-6.58-1.201-9.122-3.383c-0.222-0.189-0.349-0.467-0.349-0.759V50.811z M33.51,73.831h0.01H33.51z"/>
					</g>
				</g>
				<g>
					<g>
						<g>
							<path class="st5" d="M16.568,74.831c-0.234,0-0.466-0.082-0.651-0.241c-3.108-2.666-4.89-6.531-4.89-10.604
								s1.782-7.938,4.89-10.604c0.296-0.255,0.713-0.312,1.069-0.149c0.354,0.163,0.582,0.518,0.582,0.908v19.691
								c0,0.391-0.227,0.745-0.582,0.908C16.852,74.801,16.709,74.831,16.568,74.831z M15.568,56.625
								c-1.635,2.089-2.542,4.672-2.542,7.36s0.907,5.271,2.542,7.36V56.625z"/>
						</g>
					</g>
					<g>
						<g>
							<path class="st5" d="M32.732,75.444c-0.308,0-0.611-0.142-0.806-0.408c-0.327-0.444-0.232-1.069,0.213-1.397
								c0.031-0.022,0.062-0.045,0.092-0.068c0.095-0.07,0.188-0.143,0.28-0.215V54.14c0-0.391,0.227-0.745,0.582-0.908
								c0.355-0.162,0.773-0.105,1.069,0.149c3.108,2.666,4.891,6.531,4.891,10.604c0,4.033-1.782,7.892-4.819,10.537
								c-0.022,0.023-0.046,0.046-0.072,0.067c-0.239,0.205-0.488,0.399-0.741,0.589c-0.032,0.023-0.065,0.048-0.097,0.072
								C33.144,75.382,32.937,75.444,32.732,75.444z M34.51,56.625v14.73c1.64-2.078,2.542-4.643,2.542-7.37
								C37.052,61.297,36.145,58.714,34.51,56.625z"/>
						</g>
					</g>
				</g>
				<g>
					<g>
						<g>
							<path class="st5" d="M25.039,77.973c-3.341,0-6.58-1.201-9.122-3.383c-0.222-0.189-0.349-0.467-0.349-0.759V48.614
								c0-1.573,1.281-2.853,2.857-2.853h13.228c1.575,0,2.856,1.279,2.856,2.853v25.217c0,0.292-0.127,0.569-0.349,0.759
								C31.619,76.771,28.379,77.973,25.039,77.973z M17.568,73.36c2.124,1.688,4.759,2.612,7.471,2.612s5.347-0.925,7.471-2.612
								V48.614c0-0.47-0.384-0.853-0.857-0.853H18.425c-0.473,0-0.857,0.383-0.857,0.853V73.36z M33.51,73.831h0.01H33.51z"/>
						</g>
					</g>
					<g>
						<g>
							<g>
								<g>
									<path class="st5" d="M29.96,69.151h-9.842c-0.552,0-1-0.447-1-1s0.448-1,1-1h9.842c0.552,0,1,0.447,1,1
										S30.512,69.151,29.96,69.151z"/>
								</g>
							</g>
							<g>
								<g>
									<path class="st5" d="M27.08,73.421h-6.962c-0.552,0-1-0.447-1-1s0.448-1,1-1h6.962c0.552,0,1,0.447,1,1
										S27.632,73.421,27.08,73.421z"/>
								</g>
							</g>
						</g>
						<g>
							<g>
								<g>
									<path class="st5" d="M29.96,51.468h-9.842c-0.552,0-1-0.447-1-1s0.448-1,1-1h9.842c0.552,0,1,0.447,1,1
										S30.512,51.468,29.96,51.468z"/>
								</g>
							</g>
							<g>
								<g>
									<path class="st5" d="M27.08,55.736h-6.962c-0.552,0-1-0.447-1-1s0.448-1,1-1h6.962c0.552,0,1,0.447,1,1
										S27.632,55.736,27.08,55.736z"/>
								</g>
							</g>
						</g>
						<g>
							<g>
								<g>
									<path class="st5" d="M29.96,60.31h-9.842c-0.552,0-1-0.447-1-1s0.448-1,1-1h9.842c0.552,0,1,0.447,1,1
										S30.512,60.31,29.96,60.31z"/>
								</g>
							</g>
							<g>
								<g>
									<path class="st5" d="M27.08,64.578h-6.962c-0.552,0-1-0.447-1-1s0.448-1,1-1h6.962c0.552,0,1,0.447,1,1
										S27.632,64.578,27.08,64.578z"/>
								</g>
							</g>
						</g>
					</g>
				</g>
			</g>
			<g>
				<path class="st5" d="M25.039,89.462c-0.552,0-1-0.447-1-1s0.448-1,1-1c12.972,0,23.524-10.531,23.524-23.477
					c0-0.553,0.448-1,1-1s1,0.447,1,1C50.563,78.033,39.113,89.462,25.039,89.462z"/>
			</g>
			<g>
				<path class="st5" d="M0.514,64.985c-0.552,0-1-0.447-1-1c0-14.047,11.45-25.476,25.524-25.476c0.552,0,1,0.447,1,1s-0.448,1-1,1
					c-12.972,0-23.525,10.531-23.525,23.476C1.514,64.538,1.067,64.985,0.514,64.985z"/>
			</g>
			<g>
				<path class="st5" d="M0.514,64.985c-0.256,0-0.513-0.098-0.708-0.294c-0.39-0.391-0.389-1.023,0.002-1.414l4.474-4.465
					c0.39-0.389,1.024-0.391,1.414,0.002c0.39,0.391,0.389,1.023-0.002,1.414L1.22,64.693C1.026,64.888,0.77,64.985,0.514,64.985z"
					/>
			</g>
			<g>
				<path class="st5" d="M45.089,69.451c-0.256,0-0.513-0.098-0.708-0.294c-0.39-0.391-0.389-1.023,0.001-1.414l4.474-4.466
					c0.391-0.39,1.024-0.39,1.414,0.002c0.39,0.391,0.389,1.023-0.001,1.414l-4.474,4.466C45.6,69.354,45.344,69.451,45.089,69.451z
					"/>
			</g>
			<g>
				<path class="st5" d="M80.235,59.978c-0.456,0-0.868-0.313-0.973-0.777l-0.084-0.354c-0.132-0.537,0.195-1.078,0.731-1.21
					c0.543-0.137,1.078,0.195,1.21,0.731l0.092,0.387c0.123,0.538-0.214,1.074-0.752,1.197C80.384,59.97,80.31,59.978,80.235,59.978
					z M78.851,55.833c-0.382,0-0.746-0.22-0.913-0.59c-0.262-0.582-0.551-1.157-0.859-1.707c-0.27-0.482-0.099-1.092,0.383-1.361
					c0.485-0.271,1.091-0.099,1.361,0.383c0.338,0.602,0.653,1.229,0.939,1.865c0.227,0.504,0.002,1.096-0.502,1.322
					C79.127,55.805,78.988,55.833,78.851,55.833z M38.552,54.286c-0.162,0-0.326-0.039-0.477-0.122
					c-0.485-0.264-0.664-0.871-0.399-1.356c0.333-0.611,0.697-1.213,1.08-1.788c0.307-0.458,0.928-0.581,1.386-0.276
					c0.459,0.308,0.583,0.928,0.276,1.388c-0.351,0.524-0.682,1.074-0.988,1.634C39.249,54.098,38.906,54.286,38.552,54.286z
					 M75.695,50.75c-0.289,0-0.575-0.124-0.773-0.364c-0.405-0.492-0.834-0.97-1.276-1.418c-0.388-0.394-0.384-1.026,0.01-1.414
					c0.395-0.388,1.028-0.382,1.414,0.01c0.484,0.491,0.954,1.013,1.397,1.551c0.351,0.427,0.289,1.057-0.137,1.408
					C76.144,50.676,75.919,50.75,75.695,50.75z M42.087,49.461c-0.249,0-0.499-0.093-0.693-0.279
					c-0.398-0.383-0.411-1.016-0.028-1.414c0.481-0.501,0.99-0.984,1.511-1.438c0.416-0.363,1.048-0.319,1.411,0.098
					c0.362,0.416,0.319,1.048-0.098,1.41c-0.477,0.416-0.942,0.858-1.383,1.317C42.612,49.358,42.35,49.461,42.087,49.461z
					 M71.315,46.678c-0.2,0-0.401-0.06-0.577-0.185c-0.519-0.368-1.06-0.716-1.605-1.033c-0.477-0.277-0.639-0.89-0.361-1.367
					c0.278-0.478,0.89-0.638,1.367-0.361c0.597,0.348,1.187,0.728,1.755,1.131c0.45,0.318,0.557,0.943,0.237,1.394
					C71.937,46.531,71.628,46.678,71.315,46.678z M46.766,45.734c-0.34,0-0.671-0.173-0.859-0.486
					c-0.284-0.474-0.13-1.088,0.344-1.371c0.598-0.358,1.215-0.692,1.836-0.993c0.496-0.236,1.095-0.032,1.336,0.465
					c0.24,0.497,0.032,1.096-0.465,1.336c-0.568,0.274-1.133,0.58-1.679,0.907C47.118,45.688,46.94,45.734,46.766,45.734z
					 M66.02,43.9c-0.113,0-0.228-0.02-0.341-0.06c-0.599-0.218-1.213-0.41-1.823-0.572c-0.534-0.142-0.852-0.689-0.71-1.224
					c0.143-0.533,0.69-0.849,1.223-0.71c0.667,0.178,1.338,0.388,1.992,0.625c0.519,0.188,0.788,0.763,0.599,1.281
					C66.812,43.648,66.429,43.9,66.02,43.9z M52.257,43.374c-0.438,0-0.84-0.289-0.963-0.731c-0.148-0.532,0.163-1.084,0.695-1.231
					c0.665-0.186,1.349-0.344,2.033-0.471c0.544-0.107,1.065,0.258,1.165,0.802c0.101,0.543-0.258,1.064-0.801,1.165
					c-0.626,0.116-1.252,0.261-1.861,0.43C52.436,43.362,52.346,43.374,52.257,43.374z M60.177,42.624
					c-0.027,0-0.054-0.001-0.082-0.003c-0.587-0.048-1.186-0.072-1.778-0.072l-0.138,0.001c-0.552,0-1-0.447-1-1s0.448-1,1-1
					l0.116-0.001c0.003,0,0.006,0,0.008,0c0.665,0,1.315,0.026,1.953,0.078c0.55,0.045,0.96,0.527,0.915,1.078
					C61.13,42.228,60.693,42.624,60.177,42.624z"/>
			</g>
		</g>
	</g>
</g>
</svg>
