<?xml version="1.0" encoding="utf-8"?>
<!-- Generator: Adobe Illustrator 22.0.0, SVG Export Plug-In . SVG Version: 6.00 Build 0)  -->
<svg version="1.1" id="MARKET_RESEARCH_ICON_SET" xmlns="http://www.w3.org/2000/svg" xmlns:xlink="http://www.w3.org/1999/xlink"
	 x="0px" y="0px" viewBox="0 0 128 128" style="enable-background:new 0 0 128 128;" xml:space="preserve">
<style type="text/css">
	.st0{fill:#C2D5EC;}
	.st1{fill:#61E1FF;}
	.st2{fill:#7184AF;}
	.st3{fill:#F8F8F8;}
	.st4{fill:#3F4D81;}
	.st5{fill:#3F4D80;}
	.st6{fill:#E9EAEB;}
	.st7{fill:#F79559;}
	.st8{fill:#FFA85A;}
</style>
<g>
	<g>
		<g>
			<g>
				<path class="st1" d="M123.039,17H4.961c-2.192,0-3.969,1.781-3.969,3.979v56.633c0,2.197,1.777,3.979,3.969,3.979H18.98
					l2.864-2.871c-1.114-1.899-1.988-3.949-2.589-6.12H5.953V59.315h13.181c0.572-2.23,1.422-4.349,2.532-6.302l-9.271-9.295
					l9.374-9.397l9.214,9.237c1.962-1.156,4.088-2.053,6.339-2.656v-13.04h13.256v13.04c2.251,0.603,4.377,1.5,6.339,2.656
					l9.214-9.237l9.374,9.397l-9.271,9.294c0.527,0.927,0.991,1.892,1.399,2.887l48.596,0c2.665,0,4.825,2.166,4.825,4.837v10.259
					c0,2.671-2.16,4.837-4.825,4.837H67.512c-0.426,0.996-0.91,1.96-1.454,2.887l2.864,2.871h54.117
					c2.192,0,3.969-1.781,3.969-3.979V20.979C127.008,18.781,125.231,17,123.039,17z"/>
			</g>
			<g>
				<path class="st5" d="M8.93,59.315h10.205c0.572-2.23,1.422-4.349,2.532-6.302l-9.271-9.295l9.374-9.397l9.214,9.237
					c1.962-1.156,4.088-2.053,6.339-2.656v-13.04h13.256v2.984h2.977v11.062c1.164,0.471,2.289,1.018,3.362,1.65l9.214-9.237
					l9.374,9.397h0l2.977,2.984L69.309,55.9h46.921c2.665,0,4.825,2.166,4.825,4.837v10.259c0,2.671-2.16,4.837-4.825,4.837H67.512
					c-0.426,0.995-0.91,1.96-1.454,2.887l0.097,0.098h53.051c2.665,0,4.825-2.166,4.825-4.837V26.121
					c0-0.643-0.52-1.164-1.161-1.164H8.93V59.315z"/>
			</g>
			<g>
				<path class="st0" d="M5.953,21.974v37.341h13.181c0.572-2.23,1.422-4.349,2.532-6.302l-9.271-9.295l9.374-9.397l9.214,9.237
					c1.962-1.156,4.088-2.053,6.339-2.656v-13.04h13.256v13.04c2.251,0.603,4.377,1.5,6.339,2.656l9.214-9.237l9.374,9.397
					l-9.271,9.294c0.527,0.927,0.991,1.892,1.399,2.887l48.596,0c2.166,0,3.977,1.44,4.587,3.41h0.238V21.974H5.953z"/>
			</g>
			<g>
				<polygon class="st3" points="121.054,21.974 121.054,25.863 9.972,25.863 9.972,59.315 5.953,59.315 5.953,21.974 				"/>
			</g>
		</g>
		<g>
			<g>
				<path class="st8" d="M34.009,81.241c-4.897-3.114-8.276-8.693-8.45-14.851c-0.3-10.602,7.932-19.128,18.392-19.128
					c5.744,0,10.861,2.645,14.235,6.778c0.934,1.144,2.289,1.86,3.763,1.86h5.684c-0.408-0.994-0.871-1.96-1.399-2.887l9.271-9.294
					l-9.374-9.397l-9.214,9.237c-1.962-1.156-4.088-2.053-6.339-2.656v-13.04H37.323v13.04c-2.251,0.603-4.377,1.499-6.339,2.656
					l-9.214-9.237l-9.374,9.397l9.271,9.295c-1.111,1.953-1.961,4.072-2.532,6.302H5.953V72.6h13.302
					c0.601,2.17,1.475,4.221,2.589,6.12l-9.448,9.472l9.374,9.397l9.505-9.529c0.879,0.502,1.794,0.946,2.734,1.341L34.009,81.241z"
					/>
			</g>
			<g>
				<path class="st8" d="M67.512,75.833h-5.627c-1.458,0-2.879,0.599-3.814,1.72c-1.193,1.431-2.609,2.663-4.177,3.677V89.4
					c0.94-0.395,1.855-0.839,2.734-1.341l9.505,9.529l9.374-9.397l-9.448-9.472C66.602,77.793,67.086,76.829,67.512,75.833z"/>
			</g>
			<g>
				<path class="st7" d="M61.885,75.833c-1.458,0-2.879,0.599-3.814,1.72c-1.193,1.431-2.609,2.663-4.177,3.677v3.598
					c1.944-1.089,3.673-2.517,5.102-4.211c0.937-1.11,2.274-1.801,3.724-1.801h3.436l-0.097-0.098
					c0.544-0.927,1.028-1.891,1.454-2.887H61.885z"/>
			</g>
		</g>
		<g>
			<path class="st7" d="M34.009,83.535v-2.294c-3.119-2.035-5.669-5.114-7.122-8.583C27.832,77.148,30.456,80.898,34.009,83.535z"/>
		</g>
		<g>
			<path class="st3" d="M116.229,55.9H62.085c-1.469,0-2.898-0.617-3.821-1.763c-3.392-4.213-8.584-6.88-14.413-6.874
				c-9.926,0.009-17.915,7.872-18.292,17.584c-0.413,10.63,7.927,19.285,18.393,19.332c5.637,0.026,10.676-2.544,14.052-6.545
				c0.937-1.11,2.274-1.801,3.724-1.801h54.502c2.665,0,4.825-2.166,4.825-4.837V60.737C121.054,58.065,118.894,55.9,116.229,55.9z"
				/>
		</g>
		<g>
			<g>
				<path class="st6" d="M41.129,71.814v2.417l2.823,5.365l2.823-5.365v-2.417c-0.861,0.394-1.814,0.619-2.823,0.619
					C42.943,72.434,41.99,72.208,41.129,71.814z"/>
			</g>
			<g>
				<path class="st7" d="M49.594,75.628L49.594,75.628l-2.82-1.397l-2.822,5.366l-2.823-5.366l-2.821,1.397l0,0
					c0,0-3.938,1.487-5.576,4.705c3.108,2.402,6.991,3.845,11.219,3.845s8.111-1.444,11.219-3.845
					C53.533,77.115,49.594,75.628,49.594,75.628z"/>
			</g>
			<g>
				<path class="st5" d="M39.101,61.112c0-1.287,1.041-2.33,2.325-2.33h5.051c1.284,0,2.325,1.043,2.325,2.33
					c0,3.724,2.254,1.239,2.254,1.239v-3.392c0-5.286-2.863-3.846-2.863-3.846s-0.581-1.44-2.409-1.44h-3.663
					c-2.912,0-5.272,2.366-5.272,5.285v3.393C36.847,62.35,39.101,64.836,39.101,61.112z"/>
			</g>
			<g>
				<path class="st3" d="M51.274,62.333c-0.075,0-0.148,0.007-0.219,0.017c0,0-2.254,2.486-2.254-1.239
					c0-1.287-1.041-2.33-2.325-2.33h-5.051c-1.284,0-2.325,1.043-2.325,2.33c0,3.724-2.254,1.239-2.254,1.239
					c-0.071-0.01-0.144-0.017-0.219-0.017c0,0-1.328,0-1.328,1.338v1.343c0,1.096,0.595,2.091,1.986,2.302
					c0.029,0.004,0.053,0.006,0.08,0.009c0.762,2.937,3.417,5.108,6.586,5.108c3.168,0,5.823-2.171,6.586-5.108
					c0.027-0.003,0.051-0.004,0.08-0.009c1.39-0.211,1.986-1.205,1.986-2.302v-1.343C52.602,62.333,51.274,62.333,51.274,62.333z"/>
			</g>
		</g>
		<g>
			<g>
				<path class="st1" d="M43.951,84.178c-3.666,0-7.073-1.087-9.942-2.937V111l9.942-12.093L53.893,111V81.241
					C51.024,83.092,47.617,84.178,43.951,84.178z"/>
			</g>
			<g>
				<path class="st2" d="M48.776,83.52c-1.538,0.422-3.153,0.658-4.825,0.658s-3.287-0.236-4.825-0.658v21.256l4.825-5.869
					l4.825,5.869V83.52z"/>
			</g>
		</g>
	</g>
	<g>
		<g>
			<g>
				<g>
					<path class="st5" d="M19.135,60.315H5.953c-0.548,0-0.992-0.447-0.992-1V21.974c0-0.553,0.444-1,0.992-1h115.101
						c0.548,0,0.992,0.447,0.992,1v37.337c0,0.553-0.444,1-0.992,1h-0.238c-0.434,0-0.818-0.284-0.948-0.702
						c-0.501-1.62-1.963-2.709-3.64-2.709H67.634c-0.401,0-0.764-0.244-0.917-0.618c-0.401-0.977-0.853-1.909-1.343-2.771
						c-0.224-0.393-0.158-0.887,0.161-1.206l8.564-8.585l-7.966-7.987l-8.516,8.536c-0.32,0.319-0.812,0.383-1.201,0.154
						c-1.901-1.12-3.951-1.979-6.092-2.552c-0.435-0.117-0.737-0.514-0.737-0.967v-12.04H38.315v12.04
						c0,0.453-0.302,0.85-0.737,0.967c-2.143,0.573-4.193,1.432-6.092,2.552c-0.388,0.227-0.881,0.166-1.201-0.154l-8.516-8.536
						l-7.966,7.987l8.564,8.586c0.319,0.319,0.385,0.814,0.161,1.207c-1.063,1.867-1.882,3.904-2.433,6.054
						C19.983,60.007,19.587,60.315,19.135,60.315z M6.946,58.315h11.432c0.514-1.795,1.204-3.514,2.059-5.125l-8.74-8.763
						c-0.187-0.188-0.293-0.442-0.293-0.709c0-0.266,0.106-0.521,0.293-0.709l9.373-9.397c0.388-0.389,1.012-0.389,1.399,0
						l8.682,8.703c1.641-0.904,3.377-1.631,5.179-2.17V27.863c0-0.553,0.444-1,0.992-1h13.257c0.548,0,0.992,0.447,0.992,1v12.282
						c1.801,0.538,3.538,1.266,5.179,2.17l8.682-8.703c0.388-0.389,1.012-0.389,1.399,0l9.373,9.397
						c0.187,0.188,0.293,0.443,0.293,0.709c0,0.267-0.106,0.521-0.293,0.709l-8.74,8.762c0.29,0.55,0.565,1.122,0.824,1.71h47.94
						c1.453,0,2.802,0.538,3.833,1.456V22.974H6.946V58.315z"/>
				</g>
			</g>
			<g>
				<g>
					<path class="st5" d="M123.039,82.591H68.922c-0.263,0-0.514-0.104-0.7-0.291l-2.863-2.871
						c-0.322-0.322-0.386-0.824-0.154-1.218c0.516-0.879,0.985-1.812,1.396-2.773c0.156-0.367,0.515-0.604,0.911-0.604h48.717
						c2.113,0,3.833-1.722,3.833-3.837V60.737c0-2.116-1.72-3.838-3.833-3.838H67.634c-0.401,0-0.764-0.244-0.917-0.618
						c-0.401-0.977-0.853-1.909-1.343-2.771c-0.224-0.393-0.158-0.887,0.161-1.206l8.564-8.585l-7.966-7.987l-8.516,8.536
						c-0.32,0.319-0.812,0.383-1.201,0.154c-1.901-1.12-3.951-1.979-6.092-2.552c-0.435-0.117-0.737-0.514-0.737-0.967v-12.04
						H38.315v12.04c0,0.453-0.302,0.85-0.737,0.967c-2.143,0.573-4.193,1.432-6.092,2.552c-0.388,0.227-0.881,0.166-1.201-0.154
						l-8.516-8.536l-7.966,7.987l8.564,8.586c0.319,0.319,0.385,0.814,0.161,1.207c-1.063,1.867-1.882,3.904-2.433,6.054
						c-0.112,0.441-0.508,0.75-0.96,0.75H6.946V71.6h12.309c0.446,0,0.836,0.299,0.955,0.731c0.57,2.057,1.406,4.035,2.488,5.88
						c0.231,0.394,0.167,0.896-0.155,1.218L19.68,82.3c-0.186,0.187-0.437,0.291-0.7,0.291H4.961C2.226,82.591,0,80.357,0,77.611
						V20.979C0,18.233,2.226,16,4.961,16h118.078c2.735,0,4.961,2.233,4.961,4.979v56.633C128,80.357,125.774,82.591,123.039,82.591
						z M69.331,80.591h53.707c1.641,0,2.977-1.337,2.977-2.979V20.979c0-1.643-1.335-2.979-2.977-2.979H4.961
						c-1.641,0-2.977,1.336-2.977,2.979v56.633c0,1.643,1.335,2.979,2.977,2.979h13.609l2.035-2.04
						c-0.863-1.576-1.565-3.236-2.093-4.951H5.953c-0.548,0-0.992-0.447-0.992-1V59.315c0-0.553,0.444-1,0.992-1h12.424
						c0.514-1.795,1.204-3.514,2.059-5.125l-8.74-8.763c-0.187-0.188-0.293-0.442-0.293-0.709c0-0.266,0.106-0.521,0.293-0.709
						l9.373-9.397c0.388-0.389,1.012-0.389,1.399,0l8.682,8.703c1.641-0.904,3.377-1.631,5.179-2.17V27.863c0-0.553,0.444-1,0.992-1
						h13.257c0.548,0,0.992,0.447,0.992,1v12.282c1.801,0.538,3.538,1.266,5.179,2.17l8.682-8.703c0.388-0.389,1.012-0.389,1.399,0
						l9.373,9.397c0.187,0.188,0.293,0.443,0.293,0.709c0,0.267-0.106,0.521-0.293,0.709l-8.74,8.762
						c0.29,0.55,0.565,1.122,0.824,1.71h47.94c3.208,0,5.818,2.619,5.818,5.838v10.259c0,3.219-2.609,5.837-5.818,5.837H68.156
						c-0.267,0.586-0.555,1.16-0.859,1.718L69.331,80.591z"/>
				</g>
			</g>
		</g>
		<g>
			<g>
				<g>
					<path class="st5" d="M21.769,98.588c-0.253,0-0.506-0.097-0.7-0.291L11.697,88.9c-0.187-0.188-0.293-0.442-0.293-0.709
						s0.106-0.521,0.293-0.709l8.909-8.932c-0.863-1.576-1.565-3.236-2.093-4.951H5.953c-0.548,0-0.992-0.447-0.992-1V59.315
						c0-0.553,0.444-1,0.992-1h12.424c0.514-1.793,1.203-3.512,2.059-5.125l-8.74-8.763c-0.187-0.188-0.293-0.442-0.293-0.709
						c0-0.266,0.106-0.521,0.293-0.709l9.373-9.397c0.388-0.389,1.012-0.389,1.399,0l8.681,8.703c1.642-0.904,3.379-1.632,5.18-2.17
						V27.863c0-0.553,0.444-1,0.992-1h13.257c0.548,0,0.992,0.447,0.992,1v12.282c1.801,0.538,3.538,1.266,5.179,2.17l8.682-8.703
						c0.388-0.389,1.012-0.389,1.399,0l9.373,9.397c0.187,0.188,0.293,0.443,0.293,0.709c0,0.267-0.106,0.521-0.293,0.709
						l-8.74,8.762c0.391,0.741,0.755,1.521,1.085,2.328c0.127,0.309,0.092,0.66-0.092,0.938c-0.184,0.277-0.493,0.444-0.825,0.444
						H61.95c-1.725,0-3.376-0.811-4.53-2.225c-3.308-4.052-8.219-6.39-13.473-6.413c-0.026,0-0.052,0-0.078,0
						c-4.786,0-9.227,1.896-12.513,5.344c-3.315,3.479-5.021,8.077-4.806,12.95c0.247,5.595,3.235,10.77,7.994,13.844
						c0.284,0.184,0.456,0.501,0.456,0.842V89.4c0,0.334-0.166,0.646-0.442,0.832s-0.626,0.22-0.932,0.091
						c-0.756-0.317-1.485-0.662-2.177-1.028l-8.981,9.002C22.275,98.491,22.022,98.588,21.769,98.588z M13.803,88.191l7.966,7.986
						l8.806-8.827c0.316-0.317,0.801-0.382,1.189-0.161c0.401,0.229,0.82,0.451,1.252,0.663v-6.073
						c-5.034-3.456-8.18-9.073-8.449-15.134c-0.24-5.426,1.663-10.549,5.358-14.426c3.664-3.844,8.612-5.958,13.944-5.958
						c0.028,0,0.057,0,0.085,0c5.847,0.025,11.313,2.629,14.998,7.143c0.775,0.95,1.867,1.495,2.997,1.495h4.152
						c-0.232-0.479-0.475-0.944-0.728-1.39c-0.224-0.393-0.158-0.887,0.161-1.206l8.564-8.585l-7.966-7.987l-8.516,8.536
						c-0.32,0.319-0.812,0.383-1.201,0.154c-1.901-1.12-3.951-1.979-6.092-2.552c-0.435-0.116-0.737-0.514-0.737-0.967v-12.04
						H38.315v12.04c0,0.453-0.302,0.851-0.737,0.967c-2.141,0.572-4.191,1.432-6.093,2.552c-0.388,0.229-0.882,0.166-1.201-0.154
						l-8.515-8.536l-7.966,7.987l8.564,8.586c0.319,0.319,0.385,0.813,0.161,1.206c-1.064,1.871-1.883,3.908-2.433,6.055
						c-0.112,0.441-0.508,0.75-0.96,0.75H6.946V71.6h12.309c0.446,0,0.836,0.299,0.955,0.731c0.57,2.057,1.406,4.035,2.488,5.88
						c0.231,0.394,0.167,0.896-0.155,1.218L13.803,88.191z"/>
				</g>
			</g>
			<g>
				<g>
					<path class="st5" d="M66.133,98.588c-0.253,0-0.506-0.097-0.7-0.291l-8.981-9.002c-0.692,0.366-1.422,0.711-2.177,1.028
						c-0.307,0.129-0.656,0.095-0.932-0.091c-0.276-0.186-0.442-0.498-0.442-0.832v-8.17c0-0.341,0.172-0.658,0.456-0.842
						c1.515-0.979,2.845-2.149,3.953-3.479c1.1-1.32,2.767-2.077,4.574-2.077h5.627c0.334,0,0.645,0.169,0.828,0.45
						c0.184,0.281,0.215,0.637,0.082,0.945c-0.339,0.796-0.717,1.574-1.126,2.322l8.909,8.932c0.187,0.188,0.293,0.442,0.293,0.709
						s-0.106,0.521-0.293,0.709l-9.373,9.396C66.639,98.491,66.386,98.588,66.133,98.588z M56.627,87.06
						c0.256,0,0.509,0.1,0.7,0.291l8.806,8.827l7.966-7.986l-8.74-8.763c-0.322-0.322-0.386-0.824-0.155-1.218
						c0.263-0.446,0.513-0.907,0.749-1.378h-4.068c-1.219,0-2.331,0.497-3.054,1.364c-1.125,1.348-2.45,2.547-3.945,3.571v6.084
						c0.432-0.212,0.851-0.434,1.252-0.663C56.291,87.103,56.459,87.06,56.627,87.06z"/>
				</g>
			</g>
		</g>
		<g>
			<g>
				<path class="st5" d="M43.951,85.179c-5.368-0.001-10.362-2.151-14.063-6.056c-3.674-3.877-5.564-8.963-5.321-14.323
					c0.473-10.395,8.944-18.537,19.284-18.537c5.943,0,11.477,2.641,15.184,7.244c0.702,0.872,1.842,1.393,3.05,1.393h54.144
					c3.207,0,5.817,2.619,5.817,5.838v10.259c0,3.219-2.609,5.837-5.817,5.837H61.727c-1.109,0-2.191,0.528-2.968,1.448
					C55.06,82.665,49.663,85.179,43.951,85.179z M43.851,48.263c-9.277,0-16.877,7.305-17.301,16.629
					c-0.218,4.809,1.477,9.372,4.773,12.851c3.323,3.505,7.807,5.437,12.628,5.437c5.129,0,9.976-2.257,13.297-6.192
					c1.155-1.368,2.788-2.153,4.48-2.153h54.503c2.113,0,3.832-1.722,3.832-3.837V60.737c0-2.116-1.719-3.838-3.832-3.838H62.085
					c-1.828,0-3.501-0.777-4.591-2.133C54.166,50.634,49.193,48.263,43.851,48.263z"/>
			</g>
		</g>
		<g>
			<g>
				<g>
					<g>
						<path class="st5" d="M79.407,66.866c-0.548,0-1.014-0.447-1.014-1s0.423-1,0.972-1c0.622,0,0.734-0.573,0.744-0.639
							c0.037-0.227,0.006-0.522-0.354-0.646c-0.59-0.204-1.231,0.085-1.647,0.734c-0.297,0.464-0.911,0.597-1.372,0.297
							c-0.46-0.3-0.592-0.918-0.295-1.383c0.91-1.418,2.514-2.038,3.955-1.541c1.213,0.418,1.884,1.57,1.67,2.867
							C81.842,65.916,80.749,66.866,79.407,66.866z"/>
					</g>
				</g>
				<g>
					<g>
						<path class="st5" d="M79.365,70.218c-1.16,0-2.226-0.625-2.923-1.714c-0.297-0.465-0.166-1.083,0.295-1.383
							c0.46-0.301,1.075-0.166,1.372,0.297c0.416,0.649,1.057,0.935,1.647,0.733c0.359-0.124,0.391-0.42,0.354-0.646
							c-0.011-0.065-0.122-0.64-0.703-0.64c-0.548,0-1.014-0.447-1.014-1s0.423-1,0.972-1c1.384,0,2.478,0.95,2.702,2.312
							c0.214,1.297-0.457,2.449-1.67,2.866C80.063,70.159,79.715,70.218,79.365,70.218z"/>
					</g>
				</g>
			</g>
			<g>
				<g>
					<path class="st5" d="M64.495,70.218c-0.548,0-0.992-0.447-0.992-1v-6.703c0-0.553,0.444-1,0.992-1c0.548,0,0.992,0.447,0.992,1
						v6.703C65.487,69.771,65.044,70.218,64.495,70.218z"/>
				</g>
			</g>
			<g>
				<g>
					<g>
						<path class="st5" d="M96.501,70.218c-0.548,0-0.992-0.447-0.992-1v-6.703c0-0.553,0.444-1,0.992-1s0.992,0.447,0.992,1v6.703
							C97.493,69.771,97.049,70.218,96.501,70.218z"/>
					</g>
				</g>
				<g>
					<g>
						<path class="st5" d="M96.501,66.866h-5.216c-0.357,0-0.685-0.192-0.862-0.505c-0.176-0.312-0.173-0.695,0.009-1.005
							l1.968-3.352c0.279-0.475,0.887-0.631,1.359-0.351c0.471,0.281,0.627,0.895,0.348,1.37l-1.081,1.842h3.476
							c0.548,0,0.992,0.447,0.992,1S97.049,66.866,96.501,66.866z"/>
					</g>
				</g>
			</g>
			<g>
				<g>
					<path class="st5" d="M108.592,70.218c-2.023,0-3.669-1.952-3.669-4.352s1.645-4.352,3.669-4.352s3.669,1.952,3.669,4.352
						S110.615,70.218,108.592,70.218z M108.592,63.515c-0.913,0-1.684,1.077-1.684,2.352s0.771,2.352,1.684,2.352
						c0.913,0,1.684-1.077,1.684-2.352S109.505,63.515,108.592,63.515z"/>
				</g>
			</g>
		</g>
		<g>
			<g>
				<g>
					<path class="st5" d="M43.952,80.597c-0.367,0-0.704-0.204-0.877-0.531L40.252,74.7c-0.076-0.145-0.115-0.306-0.115-0.469
						v-2.417c0-0.34,0.172-0.656,0.454-0.841c0.284-0.184,0.641-0.21,0.948-0.07c1.54,0.703,3.29,0.701,4.826,0.001
						c0.308-0.142,0.664-0.113,0.948,0.069c0.283,0.185,0.454,0.501,0.454,0.841v2.417c0,0.163-0.04,0.324-0.115,0.469l-2.823,5.365
						C44.656,80.393,44.319,80.597,43.952,80.597z M42.121,73.982l1.83,3.479l1.83-3.479v-0.769c-1.196,0.293-2.465,0.293-3.661,0
						V73.982z"/>
				</g>
			</g>
			<g>
				<g>
					<path class="st5" d="M43.951,85.179c-4.305,0-8.392-1.401-11.822-4.053c-0.381-0.294-0.498-0.819-0.279-1.249
						c1.791-3.521,5.935-5.119,6.11-5.186l2.732-1.357c0.483-0.239,1.062-0.048,1.314,0.429l1.947,3.7l1.945-3.699
						c0.252-0.479,0.83-0.669,1.315-0.43l2.78,1.377c0.508,0.2,4.353,1.809,6.06,5.166c0.219,0.43,0.102,0.955-0.279,1.249
						C52.344,83.777,48.256,85.179,43.951,85.179z M34.049,80.063c2.926,2.041,6.33,3.115,9.901,3.115s6.976-1.074,9.902-3.115
						c-1.618-2.349-4.575-3.486-4.607-3.499c-0.031-0.012-0.061-0.024-0.09-0.039l-1.955-0.969l-2.371,4.509
						c-0.345,0.654-1.409,0.655-1.754,0.001l-2.372-4.51l-1.957,0.97c-0.032,0.016-0.064,0.029-0.097,0.042
						C38.534,76.612,35.642,77.755,34.049,80.063z"/>
				</g>
			</g>
			<g>
				<g>
					<path class="st5" d="M43.951,73.433c-3.337,0-6.281-2.132-7.363-5.255c-1.407-0.435-2.279-1.624-2.279-3.164v-1.343
						c0-1.276,0.768-1.948,1.547-2.208v-2.506c0-3.466,2.81-6.285,6.265-6.285h3.663c1.383,0,2.312,0.64,2.851,1.285
						c0.484-0.062,1.11-0.028,1.725,0.355c1.138,0.709,1.69,2.229,1.69,4.646v2.505c0.778,0.26,1.547,0.932,1.547,2.208v1.343
						c0,1.545-0.878,2.737-2.28,3.166C50.232,71.302,47.288,73.433,43.951,73.433z M36.712,63.341c-0.42,0.008-0.42,0.179-0.42,0.33
						v1.343c0,0.756,0.384,1.198,1.141,1.312c0.392,0.06,0.792,0.358,0.892,0.745c0.667,2.567,2.98,4.361,5.625,4.361
						c2.645,0,4.959-1.794,5.626-4.361c0.105-0.402,0.445-0.697,0.855-0.741c0.795-0.118,1.178-0.561,1.178-1.316v-1.343
						c0-0.118,0-0.338-0.336-0.338c-0.028,0-0.056,0.004-0.083,0.008c-0.284,0.036-0.571-0.049-0.787-0.237
						c-0.216-0.19-0.34-0.465-0.34-0.754v-3.392c0-2.281-0.567-2.827-0.74-2.939c-0.293-0.188-0.698-0.007-0.703-0.004
						c-0.247,0.112-0.535,0.123-0.787,0.022c-0.251-0.101-0.458-0.296-0.561-0.548c-0.031-0.068-0.4-0.817-1.49-0.817h-3.663
						c-2.36,0-4.28,1.922-4.28,4.285v3.393c0,0.289-0.124,0.563-0.34,0.754C37.283,63.292,36.995,63.377,36.712,63.341z"/>
				</g>
			</g>
			<g>
				<g>
					<path class="st5" d="M49.68,64.162c-0.192,0-0.388-0.033-0.584-0.109c-1.287-0.504-1.287-2.339-1.287-2.941
						c0-0.733-0.598-1.33-1.332-1.33h-5.051c-0.734,0-1.332,0.597-1.332,1.33c0,0.603,0,2.438-1.287,2.941
						c-1.239,0.479-2.459-0.772-2.692-1.028c-0.369-0.408-0.341-1.041,0.063-1.413c0.403-0.37,1.03-0.347,1.399,0.062l0,0
						c0.128,0.138,0.304,0.285,0.45,0.382c0.041-0.176,0.082-0.472,0.082-0.943c0-1.836,1.488-3.33,3.317-3.33h5.051
						c1.828,0,3.317,1.494,3.317,3.33c0,0.472,0.042,0.768,0.082,0.943c0.145-0.097,0.322-0.244,0.45-0.382
						c0.372-0.404,0.999-0.431,1.4-0.058c0.402,0.373,0.43,1.002,0.062,1.409C51.592,63.24,50.696,64.162,49.68,64.162z
						 M49.954,62.286L49.954,62.286L49.954,62.286z M37.948,62.286L37.948,62.286L37.948,62.286z"/>
				</g>
			</g>
		</g>
		<g>
			<g>
				<g>
					<path class="st5" d="M53.893,112c-0.29,0-0.572-0.128-0.764-0.362l-9.179-11.163l-9.177,11.163
						c-0.267,0.326-0.709,0.446-1.101,0.303c-0.393-0.143-0.656-0.519-0.656-0.94V81.241c0-0.365,0.198-0.702,0.516-0.877
						c0.32-0.175,0.705-0.161,1.012,0.034c2.821,1.819,6.074,2.78,9.407,2.78c3.334,0,6.587-0.961,9.408-2.78
						c0.306-0.195,0.694-0.209,1.012-0.034s0.516,0.512,0.516,0.877V111c0,0.422-0.263,0.798-0.656,0.94
						C54.12,111.98,54.006,112,53.893,112z M43.951,97.907c0.296,0,0.576,0.133,0.764,0.362l8.187,9.956V82.974
						c-5.526,2.895-12.372,2.896-17.9,0v25.252l8.185-9.956C43.375,98.04,43.655,97.907,43.951,97.907z"/>
				</g>
			</g>
			<g>
				<g>
					<path class="st5" d="M39.126,105.776c-0.548,0-0.992-0.447-0.992-1V83.53c0-0.553,0.444-1,0.992-1s0.992,0.447,0.992,1v21.246
						C40.118,105.329,39.674,105.776,39.126,105.776z"/>
				</g>
			</g>
			<g>
				<g>
					<path class="st5" d="M48.776,105.776c-0.548,0-0.992-0.447-0.992-1V83.53c0-0.553,0.444-1,0.992-1c0.548,0,0.992,0.447,0.992,1
						v21.246C49.768,105.329,49.325,105.776,48.776,105.776z"/>
				</g>
			</g>
		</g>
		<g>
			<g>
				<g>
					<path class="st5" d="M111.268,48.642H85.293c-0.548,0-0.992-0.447-0.992-1s0.444-1,0.992-1h25.976c0.548,0,0.992,0.447,0.992,1
						S111.817,48.642,111.268,48.642z"/>
				</g>
			</g>
			<g>
				<g>
					<path class="st5" d="M111.268,31.231H85.293c-0.548,0-0.992-0.447-0.992-1s0.444-1,0.992-1h25.976c0.548,0,0.992,0.447,0.992,1
						S111.817,31.231,111.268,31.231z"/>
				</g>
			</g>
			<g>
				<g>
					<path class="st5" d="M111.268,39.937H85.293c-0.548,0-0.992-0.447-0.992-1s0.444-1,0.992-1h25.976c0.548,0,0.992,0.447,0.992,1
						S111.817,39.937,111.268,39.937z"/>
				</g>
			</g>
		</g>
	</g>
</g>
</svg>
