<?xml version="1.0" encoding="utf-8"?>
<!-- Generator: Adobe Illustrator 22.0.0, SVG Export Plug-In . SVG Version: 6.00 Build 0)  -->
<svg version="1.1" id="MARKET_RESEARCH_ICON_SET" xmlns="http://www.w3.org/2000/svg" xmlns:xlink="http://www.w3.org/1999/xlink"
	 x="0px" y="0px" viewBox="0 0 128 128" style="enable-background:new 0 0 128 128;" xml:space="preserve">
<style type="text/css">
	.st0{fill:#C2D5EC;}
	.st1{fill:#61E1FF;}
	.st2{fill:#7184AF;}
	.st3{fill:#F8F8F8;}
	.st4{fill:#3F4D81;}
	.st5{fill:#3F4D80;}
	.st6{fill:#E9EAEB;}
	.st7{fill:#F79559;}
	.st8{fill:#FFA85A;}
</style>
<g>
	<g>
		<g>
			<rect y="46.207" class="st0" width="128" height="35.587"/>
		</g>
		<g>
			<path class="st8" d="M64,25.053c-10.809-10.755-28.334-10.755-39.143,0c-10.809,10.755-10.81,28.192,0,38.947l0,0
				c6.305-6.273,14.893-8.88,23.102-7.835c0.844-1.712,1.966-3.322,3.397-4.746c5.553-5.525,13.843-6.641,20.52-3.38
				C72.925,39.871,70.305,31.326,64,25.053z"/>
		</g>
		<g>
			<path class="st6" d="M46.71,17.086c-6.31,0.507-12.47,3.174-17.3,7.97c-10.08,10.039-10.75,25.9-2.01,36.715
				c-0.88,0.677-1.73,1.423-2.54,2.229c-10.81-10.756-10.81-28.188,0-38.944C30.85,19.096,38.89,16.439,46.71,17.086z"/>
		</g>
		<g>
			<path class="st8" d="M103.143,64L103.143,64c-6.305,6.273-14.893,8.88-23.102,7.836c-0.845,1.712-1.966,3.322-3.397,4.746
				c-5.553,5.525-13.843,6.641-20.52,3.38c-1.05,8.167,1.57,16.713,7.875,22.986c10.809,10.755,28.334,10.755,39.143,0
				S113.953,74.755,103.143,64z"/>
		</g>
		<g>
			<path class="st7" d="M59.125,83.941c6.677,3.261,14.967,2.145,20.52-3.38c1.431-1.424,2.552-3.034,3.397-4.746
				c8.209,1.044,16.797-1.563,23.102-7.836l0,0c0.334,0.333,0.658,0.672,0.972,1.017c-1.105-1.775-2.424-3.457-3.972-4.997l0,0
				c-6.305,6.273-14.893,8.88-23.102,7.836c-0.845,1.712-1.966,3.322-3.397,4.746c-5.553,5.525-13.843,6.641-20.52,3.38
				c-0.992,7.716,1.296,15.766,6.867,21.922C59.623,96.44,58.335,90.084,59.125,83.941z"/>
		</g>
		<g>
			<path class="st1" d="M103.143,25.053c-10.809-10.755-28.334-10.755-39.143,0l0,0c6.305,6.273,8.925,14.818,7.875,22.986
				c1.72,0.84,3.339,1.956,4.77,3.38c5.553,5.525,6.674,13.774,3.396,20.418C88.25,72.88,96.839,70.273,103.143,64
				C113.953,53.245,113.952,35.808,103.143,25.053z"/>
		</g>
		<g>
			<path class="st1" d="M64,102.947c-6.305-6.273-8.925-14.818-7.875-22.986c-1.72-0.84-3.339-1.956-4.77-3.38
				c-5.553-5.525-6.674-13.774-3.396-20.418C39.75,55.12,31.161,57.727,24.857,64c-10.809,10.755-10.809,28.192,0,38.947
				C35.666,113.702,53.191,113.702,64,102.947L64,102.947z"/>
		</g>
		<g>
			<path class="st6" d="M29.36,102.944c4.83,4.806,11,7.462,17.32,7.97c-7.81,0.637-15.84-2.02-21.82-7.97
				C14.05,92.188,14.05,74.756,24.86,64c5.99-5.96,14.06-8.627,21.9-7.97c-6.34,0.488-12.54,3.144-17.4,7.97
				C18.55,74.756,18.55,92.188,29.36,102.944z"/>
		</g>
		<g>
			<ellipse class="st6" cx="64" cy="64" rx="17.883" ry="17.793"/>
		</g>
		<g>
			<g>
				<rect x="32.423" y="35.508" class="st5" width="3.411" height="9.576"/>
			</g>
			<g>
				<path class="st6" d="M48.983,37.603c0-0.826-0.673-1.496-1.504-1.496c0.879,0,1.582-0.751,1.497-1.643
					c-0.074-0.778-0.776-1.349-1.561-1.349h-4.363v-3.493c0-0.982-0.8-1.778-1.787-1.778c-0.87,0-1.611,0.622-1.76,1.474
					c-0.35,1.988-1.289,6.191-3.67,6.191v9.576h11.645c0.831,0,1.504-0.67,1.504-1.496c0-0.826-0.673-1.496-1.504-1.496
					c0.831,0,1.504-0.67,1.504-1.496s-0.673-1.496-1.504-1.496C48.31,39.099,48.983,38.429,48.983,37.603z"/>
			</g>
		</g>
		<g>
			<g>
				<rect x="96.319" y="32.086" class="st5" width="3.411" height="9.576"/>
			</g>
			<g>
				<path class="st6" d="M83.17,39.568c0,0.826,0.673,1.496,1.504,1.496c-0.879,0-1.582,0.751-1.497,1.643
					c0.074,0.778,0.776,1.349,1.561,1.349h4.363v3.493c0,0.982,0.8,1.778,1.787,1.778c0.87,0,1.611-0.622,1.76-1.474
					c0.35-1.988,1.289-6.191,3.67-6.191v-9.576H84.674c-0.831,0-1.504,0.67-1.504,1.496c0,0.826,0.673,1.496,1.504,1.496
					c-0.831,0-1.504,0.67-1.504,1.496s0.673,1.496,1.504,1.496C83.843,38.071,83.17,38.741,83.17,39.568z"/>
			</g>
		</g>
		<g>
			<g>
				<rect x="91.695" y="89.852" class="st6" width="2.857" height="8.252"/>
			</g>
			<g>
				<rect x="85.982" y="87.186" class="st6" width="2.857" height="10.918"/>
			</g>
			<g>
				<rect x="80.269" y="84.52" class="st6" width="2.857" height="13.584"/>
			</g>
		</g>
		<g>
			<g>
				<path class="st2" d="M33.577,94.11v2.958c0,0.817,0.666,1.479,1.487,1.479h2.973c0.821,0,1.487-0.662,1.487-1.479V94.11H33.577z
					"/>
			</g>
			<g>
				<path class="st8" d="M40.478,82.272c-2.224-1.954-5.632-1.954-7.856,0c-2.447,2.15-2.669,5.782-0.665,8.2
					c0.423,0.51,0.807,1.052,1.089,1.651c0.277,0.59,0.532,1.315,0.532,1.987h2.973h2.973c0-0.672,0.254-1.396,0.532-1.987
					c0.281-0.599,0.666-1.141,1.089-1.651C43.147,88.054,42.926,84.423,40.478,82.272z"/>
			</g>
		</g>
		<g>
			<g>
				<ellipse class="st1" cx="62.144" cy="62.153" rx="6.605" ry="6.572"/>
			</g>
			<g>
				<path class="st5" d="M68.749,70.554l1.493,1.485c0.508,0.505,1.331,0.505,1.838,0l0,0c0.508-0.505,0.508-1.324,0-1.829
					l-1.493-1.485c-0.508-0.505-1.331-0.505-1.838,0h0C68.241,69.23,68.241,70.049,68.749,70.554z"/>
			</g>
		</g>
	</g>
	<g>
		<g>
			<g>
				<g>
					<path class="st5" d="M24.856,65H1c-0.553,0-1-0.447-1-1c0-0.553,0.447-1,1-1h23.856c0.553,0,1,0.447,1,1
						C25.856,64.553,25.409,65,24.856,65z"/>
				</g>
			</g>
			<g>
				<g>
					<path class="st5" d="M127,65h-23.856c-0.553,0-1-0.447-1-1c0-0.553,0.447-1,1-1H127c0.553,0,1,0.447,1,1
						C128,64.553,127.553,65,127,65z"/>
				</g>
			</g>
		</g>
		<g>
			<g>
				<path class="st5" d="M24.856,65c-0.255,0-0.51-0.097-0.705-0.291c-5.418-5.391-8.401-12.558-8.401-20.182
					s2.984-14.792,8.402-20.182c11.181-11.126,29.372-11.125,40.553,0c6.324,6.292,9.299,14.974,8.162,23.822
					c-0.041,0.319-0.234,0.6-0.518,0.752c-0.284,0.154-0.623,0.16-0.913,0.019c-6.487-3.167-14.274-1.885-19.376,3.19
					c-1.297,1.289-2.375,2.796-3.206,4.479c-0.188,0.383-0.602,0.601-1.022,0.55c-8.271-1.05-16.389,1.7-22.271,7.553
					C25.366,64.904,25.111,65,24.856,65z M44.429,18c-6.833,0-13.664,2.587-18.866,7.763c-5.038,5.012-7.812,11.676-7.812,18.764
					c0,6.762,2.524,13.138,7.131,18.063c6.084-5.649,14.202-8.353,22.506-7.498c0.879-1.629,1.975-3.1,3.264-4.382
					c5.369-5.342,13.396-6.93,20.372-4.142c0.607-7.756-2.168-15.274-7.728-20.805l0,0C58.094,20.587,51.26,18,44.429,18z"/>
			</g>
		</g>
		<g>
			<g>
				<path class="st5" d="M83.571,112c-7.344,0-14.686-2.781-20.276-8.344c-6.324-6.292-9.299-14.974-8.162-23.822
					c0.041-0.319,0.234-0.6,0.518-0.752c0.286-0.153,0.625-0.158,0.913-0.019c6.488,3.168,14.275,1.887,19.376-3.19
					c1.297-1.289,2.375-2.796,3.206-4.479c0.189-0.383,0.606-0.597,1.022-0.55c8.271,1.053,16.389-1.7,22.271-7.553
					c0.391-0.389,1.02-0.389,1.41,0c5.418,5.391,8.401,12.558,8.401,20.182c0,7.624-2.984,14.792-8.402,20.182
					C98.258,109.218,90.913,111.999,83.571,112z M56.978,81.433c-0.607,7.756,2.168,15.274,7.728,20.805
					c10.402,10.351,27.33,10.351,37.732,0c5.038-5.012,7.813-11.676,7.813-18.764c0-6.762-2.524-13.138-7.131-18.063
					c-6.084,5.65-14.198,8.36-22.506,7.498c-0.879,1.629-1.975,3.1-3.264,4.382C71.98,82.635,63.954,84.222,56.978,81.433z"/>
			</g>
		</g>
		<g>
			<g>
				<path class="st5" d="M83.634,73.065c-1.232,0-2.473-0.078-3.718-0.236c-0.321-0.041-0.602-0.234-0.755-0.519
					c-0.153-0.285-0.159-0.626-0.016-0.916c3.182-6.451,1.894-14.193-3.205-19.266c-1.299-1.291-2.813-2.365-4.504-3.19
					c-0.386-0.188-0.608-0.601-0.554-1.027c1.058-8.226-1.708-16.299-7.588-22.148C63.106,25.575,63,25.32,63,25.053
					c0-0.266,0.106-0.522,0.295-0.709c11.18-11.124,29.373-11.124,40.553,0l0,0c5.418,5.39,8.402,12.558,8.402,20.182
					s-2.983,14.791-8.401,20.182C98.412,70.119,91.199,73.065,83.634,73.065z M81.519,70.982c7.794,0.606,15.358-2.158,20.92-7.692
					c5.037-5.012,7.812-11.676,7.812-18.764s-2.774-13.752-7.813-18.764l0,0c-10.167-10.116-26.568-10.346-37.02-0.685
					c5.673,6.052,8.391,14.122,7.53,22.386c1.635,0.873,3.113,1.962,4.402,3.245C82.721,56.052,84.315,64.041,81.519,70.982z"/>
			</g>
		</g>
		<g>
			<g>
				<path class="st5" d="M44.429,112c-7.343,0-14.687-2.782-20.276-8.344c-5.418-5.39-8.402-12.558-8.402-20.182
					c0-7.624,2.983-14.791,8.401-20.182c6.322-6.292,15.044-9.249,23.933-8.119c0.321,0.041,0.602,0.234,0.755,0.519
					c0.153,0.285,0.159,0.626,0.016,0.916c-3.182,6.45-1.894,14.193,3.205,19.266c1.299,1.291,2.813,2.365,4.504,3.19
					c0.386,0.188,0.608,0.601,0.554,1.027c-1.058,8.226,1.708,16.299,7.588,22.148c0.188,0.188,0.295,0.443,0.295,0.709
					c0,0.266-0.106,0.522-0.295,0.709C59.115,109.218,51.771,112,44.429,112z M44.37,56.935c-7.04,0-13.751,2.741-18.809,7.774
					c-5.037,5.012-7.812,11.676-7.812,18.764c0,7.088,2.774,13.752,7.812,18.764c10.168,10.117,26.57,10.347,37.02,0.685
					c-5.673-6.052-8.391-14.121-7.53-22.386c-1.635-0.873-3.113-1.962-4.402-3.245c-5.371-5.343-6.965-13.333-4.168-20.273
					C45.775,56.963,45.071,56.935,44.37,56.935z"/>
			</g>
		</g>
		<g>
			<g>
				<path class="st5" d="M64,82.793c-10.412,0-18.883-8.431-18.883-18.793S53.588,45.207,64,45.207S82.883,53.638,82.883,64
					S74.412,82.793,64,82.793z M64,47.207c-9.31,0-16.883,7.533-16.883,16.793S54.69,80.793,64,80.793S80.883,73.259,80.883,64
					S73.31,47.207,64,47.207z"/>
			</g>
		</g>
		<g>
			<g>
				<g>
					<path class="st5" d="M35.834,46.085h-3.411c-0.553,0-1-0.447-1-1v-9.576c0-0.553,0.447-1,1-1h3.411c0.553,0,1,0.447,1,1v9.576
						C36.834,45.637,36.387,46.085,35.834,46.085z M33.423,44.084h1.411v-7.575h-1.411V44.084z"/>
				</g>
			</g>
			<g>
				<g>
					<path class="st5" d="M47.479,46.085H35.834c-0.553,0-1-0.447-1-1v-9.576c0-0.553,0.447-1,1-1c1.091,0,2.095-2.005,2.685-5.365
						c0.236-1.334,1.391-2.301,2.746-2.301c1.537,0,2.787,1.246,2.787,2.779v2.493h3.362c1.313,0,2.437,0.991,2.557,2.255
						c0.061,0.621-0.116,1.244-0.487,1.739c0.313,0.417,0.5,0.935,0.5,1.496c0,0.561-0.187,1.079-0.501,1.497
						c0.314,0.417,0.501,0.935,0.501,1.496c0,0.561-0.187,1.079-0.501,1.497c0.314,0.417,0.501,0.936,0.501,1.497
						C49.983,44.964,48.86,46.085,47.479,46.085z M36.834,44.084h10.646c0.278,0,0.504-0.223,0.504-0.496
						c0-0.274-0.226-0.496-0.504-0.496c-0.553,0-1-0.447-1-1c0-0.553,0.447-1,1-1c0.278,0,0.504-0.223,0.504-0.496
						c0-0.274-0.226-0.495-0.504-0.495c-0.553,0-1-0.447-1-1s0.447-1,1-1c0.278,0,0.504-0.223,0.504-0.496
						c0-0.274-0.226-0.496-0.504-0.496c-0.553,0-1-0.447-1-1c0-0.553,0.447-1,1-1c0.196,0,0.319-0.104,0.376-0.165
						c0.055-0.061,0.144-0.19,0.125-0.382c-0.023-0.245-0.277-0.444-0.566-0.444h-4.362c-0.553,0-1-0.447-1-1v-3.493
						c0-0.429-0.354-0.779-0.787-0.779c-0.384,0-0.71,0.273-0.776,0.648c-0.692,3.939-1.919,6.235-3.654,6.851V44.084z"/>
				</g>
			</g>
		</g>
		<g>
			<g>
				<g>
					<path class="st5" d="M99.729,42.663h-3.41c-0.553,0-1-0.447-1-1v-9.576c0-0.553,0.447-1,1-1h3.41c0.553,0,1,0.447,1,1v9.576
						C100.729,42.216,100.282,42.663,99.729,42.663z M97.319,40.662h1.41v-7.575h-1.41V40.662z"/>
				</g>
			</g>
			<g>
				<g>
					<path class="st5" d="M90.889,50.328c-1.537,0-2.787-1.246-2.787-2.779v-2.492h-3.363c-1.312,0-2.435-0.991-2.557-2.255
						c-0.06-0.623,0.117-1.244,0.488-1.74c-0.313-0.417-0.5-0.935-0.5-1.496s0.187-1.078,0.501-1.496
						c-0.314-0.417-0.501-0.936-0.501-1.497c0-0.561,0.187-1.079,0.501-1.497c-0.314-0.417-0.501-0.936-0.501-1.497
						c0-1.376,1.123-2.496,2.504-2.496h11.646c0.553,0,1,0.447,1,1v9.576c0,0.553-0.447,1-1,1c-1.091,0-2.095,2.005-2.685,5.364
						C93.399,49.361,92.244,50.328,90.889,50.328z M84.674,42.064c-0.195,0-0.319,0.104-0.376,0.166
						c-0.055,0.061-0.144,0.19-0.126,0.382c0.024,0.244,0.278,0.444,0.566,0.444h4.363c0.553,0,1,0.447,1,1v3.492
						c0,0.429,0.354,0.779,0.787,0.779c0.384,0,0.71-0.273,0.776-0.648c0.692-3.939,1.919-6.234,3.654-6.85v-7.743H84.674
						c-0.278,0-0.504,0.222-0.504,0.495s0.226,0.496,0.504,0.496c0.553,0,1,0.447,1,1s-0.447,1-1,1
						c-0.278,0-0.504,0.223-0.504,0.496c0,0.274,0.226,0.496,0.504,0.496c0.553,0,1,0.447,1,1s-0.447,1-1,1
						c-0.278,0-0.504,0.222-0.504,0.495s0.226,0.496,0.504,0.496c0.553,0,1,0.447,1,1S85.227,42.064,84.674,42.064z"/>
				</g>
			</g>
		</g>
		<g>
			<g>
				<g>
					<path class="st5" d="M94.552,99.105h-2.856c-0.553,0-1-0.447-1-1v-8.252c0-0.553,0.447-1,1-1h2.856c0.553,0,1,0.447,1,1v8.252
						C95.552,98.657,95.104,99.105,94.552,99.105z M92.695,97.104h0.856v-6.252h-0.856V97.104z"/>
				</g>
			</g>
			<g>
				<g>
					<path class="st5" d="M88.838,99.105h-2.856c-0.553,0-1-0.447-1-1V87.186c0-0.553,0.447-1,1-1h2.856c0.553,0,1,0.447,1,1v10.918
						C89.838,98.657,89.391,99.105,88.838,99.105z M86.981,97.104h0.856v-8.918h-0.856V97.104z"/>
				</g>
			</g>
			<g>
				<g>
					<path class="st5" d="M83.125,99.105h-2.856c-0.553,0-1-0.447-1-1V84.52c0-0.553,0.447-1,1-1h2.856c0.553,0,1,0.447,1,1v13.584
						C84.125,98.657,83.678,99.105,83.125,99.105z M81.269,97.104h0.856V85.521h-0.856V97.104z"/>
				</g>
			</g>
		</g>
		<g>
			<g>
				<g>
					<path class="st5" d="M36.55,79.422c-0.553,0-1-0.447-1-1v-2.384c0-0.553,0.447-1,1-1s1,0.447,1,1v2.384
						C37.55,78.975,37.103,79.422,36.55,79.422z"/>
				</g>
			</g>
			<g>
				<g>
					<path class="st5" d="M42.441,81.851c-0.257,0-0.514-0.099-0.709-0.295c-0.39-0.392-0.388-1.025,0.004-1.414l1.694-1.686
						c0.392-0.391,1.024-0.388,1.414,0.004c0.39,0.392,0.388,1.025-0.004,1.414l-1.694,1.686
						C42.951,81.754,42.696,81.851,42.441,81.851z"/>
				</g>
			</g>
			<g>
				<g>
					<path class="st5" d="M28.964,95.261c-0.257,0-0.514-0.099-0.709-0.295c-0.39-0.392-0.388-1.025,0.004-1.414l1.694-1.686
						c0.392-0.391,1.024-0.388,1.414,0.004c0.39,0.392,0.388,1.025-0.004,1.414l-1.694,1.686
						C29.474,95.164,29.219,95.261,28.964,95.261z"/>
				</g>
			</g>
			<g>
				<g>
					<path class="st5" d="M47.278,87.713h-2.396c-0.553,0-1-0.447-1-1c0-0.553,0.447-1,1-1h2.396c0.553,0,1,0.447,1,1
						C48.278,87.265,47.831,87.713,47.278,87.713z"/>
				</g>
			</g>
			<g>
				<g>
					<path class="st5" d="M28.218,87.713h-2.396c-0.553,0-1-0.447-1-1c0-0.553,0.447-1,1-1h2.396c0.553,0,1,0.447,1,1
						C29.218,87.265,28.771,87.713,28.218,87.713z"/>
				</g>
			</g>
			<g>
				<g>
					<path class="st5" d="M44.136,95.261c-0.255,0-0.51-0.097-0.705-0.291l-1.694-1.686c-0.392-0.39-0.394-1.023-0.004-1.414
						c0.39-0.391,1.022-0.394,1.414-0.004l1.694,1.686c0.392,0.39,0.394,1.023,0.004,1.414
						C44.649,95.162,44.393,95.261,44.136,95.261z"/>
				</g>
			</g>
			<g>
				<g>
					<path class="st5" d="M30.659,81.851c-0.255,0-0.51-0.097-0.705-0.291l-1.695-1.686c-0.392-0.39-0.394-1.023-0.004-1.414
						c0.39-0.391,1.022-0.394,1.414-0.004l1.695,1.686c0.392,0.39,0.394,1.023,0.004,1.414
						C31.173,81.752,30.916,81.851,30.659,81.851z"/>
				</g>
			</g>
			<g>
				<g>
					<path class="st5" d="M38.037,99.548h-2.974c-1.371,0-2.486-1.113-2.486-2.479V94.11c0-0.553,0.447-1,1-1h5.946
						c0.553,0,1,0.447,1,1v2.959C40.523,98.436,39.408,99.548,38.037,99.548z M34.577,95.11v1.959c0,0.264,0.218,0.479,0.486,0.479
						h2.974c0.269,0,0.486-0.215,0.486-0.479V95.11H34.577z"/>
				</g>
			</g>
			<g>
				<g>
					<path class="st5" d="M39.523,95.11h-5.946c-0.553,0-1-0.447-1-1c0-0.413-0.151-0.953-0.437-1.562
						c-0.212-0.449-0.516-0.907-0.954-1.439c-2.395-2.889-2.054-7.102,0.775-9.589c2.614-2.299,6.561-2.3,9.177,0l0,0
						c2.829,2.487,3.17,6.699,0.774,9.59c-0.437,0.528-0.74,0.986-0.954,1.44c-0.284,0.607-0.436,1.147-0.436,1.56
						C40.523,94.663,40.076,95.11,39.523,95.11z M34.455,93.11h4.19c0.104-0.444,0.271-0.917,0.504-1.412
						c0.288-0.611,0.677-1.202,1.224-1.864c1.7-2.052,1.456-5.043-0.555-6.812c-1.833-1.611-4.705-1.609-6.536,0
						c-2.011,1.768-2.255,4.759-0.556,6.812c0.55,0.665,0.938,1.256,1.224,1.862C34.183,92.193,34.352,92.664,34.455,93.11z"/>
				</g>
			</g>
			<g>
				<g>
					<path class="st5" d="M38.037,90.041h-2.974c-0.553,0-1-0.447-1-1c0-0.553,0.447-1,1-1h2.974c0.553,0,1,0.447,1,1
						C39.037,89.593,38.59,90.041,38.037,90.041z"/>
				</g>
			</g>
			<g>
				<g>
					<path class="st5" d="M36.551,95.11c-0.553,0-1-0.447-1-1v-5.07c0-0.553,0.447-1,1-1s1,0.447,1,1v5.07
						C37.551,94.663,37.104,95.11,36.551,95.11z"/>
				</g>
			</g>
		</g>
		<g>
			<g>
				<g>
					<path class="st5" d="M62.144,69.725c-4.193,0-7.604-3.397-7.604-7.572s3.411-7.571,7.604-7.571s7.605,3.396,7.605,7.571
						S66.337,69.725,62.144,69.725z M62.144,56.582c-3.09,0-5.604,2.499-5.604,5.571s2.515,5.572,5.604,5.572
						c3.091,0,5.605-2.5,5.605-5.572S65.234,56.582,62.144,56.582z"/>
				</g>
			</g>
			<g>
				<g>
					<path class="st5" d="M71.161,73.417c-0.589,0-1.177-0.223-1.625-0.669l-1.492-1.484l0,0c-0.436-0.434-0.676-1.01-0.676-1.624
						c0-0.613,0.24-1.19,0.676-1.624c0.897-0.891,2.354-0.891,3.249,0.001l1.492,1.485c0.436,0.434,0.676,1.01,0.676,1.624
						s-0.24,1.19-0.676,1.624C72.337,73.194,71.749,73.417,71.161,73.417z M69.454,69.845l1.493,1.485
						c0.117,0.117,0.311,0.117,0.428,0c0.071-0.07,0.086-0.15,0.086-0.205s-0.015-0.135-0.086-0.205l-1.493-1.486
						c-0.117-0.117-0.311-0.117-0.428,0c-0.071,0.07-0.086,0.15-0.086,0.205C69.368,69.695,69.383,69.774,69.454,69.845
						L69.454,69.845z"/>
				</g>
			</g>
			<g>
				<g>
					<path class="st5" d="M68.749,69.725c-0.255,0-0.51-0.097-0.705-0.291l-1.936-1.925c-0.392-0.39-0.394-1.023-0.004-1.414
						c0.39-0.391,1.022-0.394,1.414-0.004l1.936,1.925c0.392,0.39,0.394,1.023,0.004,1.414
						C69.263,69.627,69.006,69.725,68.749,69.725z"/>
				</g>
			</g>
		</g>
	</g>
</g>
</svg>
