<?xml version="1.0" encoding="utf-8"?>
<!-- Generator: Adobe Illustrator 22.0.0, SVG Export Plug-In . SVG Version: 6.00 Build 0)  -->
<svg version="1.1" id="MARKET_RESEARCH_ICON_SET" xmlns="http://www.w3.org/2000/svg" xmlns:xlink="http://www.w3.org/1999/xlink"
	 x="0px" y="0px" viewBox="0 0 128 128" style="enable-background:new 0 0 128 128;" xml:space="preserve">
<style type="text/css">
	.st0{fill:#C2D5EC;}
	.st1{fill:#61E1FF;}
	.st2{fill:#7184AF;}
	.st3{fill:#F8F8F8;}
	.st4{fill:#3F4D81;}
	.st5{fill:#3F4D80;}
	.st6{fill:#E9EAEB;}
	.st7{fill:#F79559;}
	.st8{fill:#FFA85A;}
</style>
<g>
	<g>
		<g>
			<polygon class="st0" points="116.121,25.922 76.826,65.26 54.477,67.116 42.58,79.027 29.227,72.994 0.5,101.753 127.5,101.753 
				127.5,25.922 			"/>
		</g>
		<path class="st5" d="M119.121,28.925l-22.185,22.21c-0.727-1.251-1.533-2.451-2.41-3.594l-5.436,5.443
			c0.842,1.189,1.599,2.443,2.237,3.767L79.826,68.264c-0.043,0.129-0.094,0.255-0.153,0.376c0.231-0.476,0.345-1.013,0.345-1.57
			v-1.904c0-1.194-0.747-1.635-1.301-1.799l-1.891,1.893l-22.349,1.856L42.58,79.027l-13.352-6.033L0.5,101.753l6,0l25.727-25.756
			l3.842,3.846c4.421,11.952,15.401,20.706,28.563,21.91h6.311c6.714-0.634,12.854-3.237,17.843-7.225l6.664,6.672
			c-0.097,0.179-0.177,0.364-0.245,0.553h15.542l-5.226-5.232c-1.281-1.283-3.209-1.495-4.725-0.674l-6.664-6.672
			c4.609-5.779,7.372-13.1,7.372-21.07c0-3.278-0.475-6.444-1.345-9.441l24.334-24.361l3.007,3.01V25.922h-11.379L119.121,28.925z
			 M63.735,80.134l-4.004,1.98l0,0c0,0-5.589,2.108-7.913,6.669c0,0.037,0.005,0.073,0.007,0.11
			c-2.467-1.896-4.577-4.226-6.238-6.869l1.703-1.705L57.477,70.12c0.246,0.091,0.508,0.168,0.803,0.213
			c0.041,0.006,0.075,0.008,0.113,0.012c0.738,2.839,2.726,5.17,5.341,6.368V80.134z M83.657,88.892
			c0.001-0.037,0.005-0.072,0.005-0.109c-2.324-4.561-7.913-6.669-7.913-6.669l-4.003-1.98l0,0v-3.423
			c0.47-0.215,0.92-0.466,1.346-0.751l4.895,4.901l5.372-5.379l10.37-10.382c0.113,0.986,0.176,1.988,0.176,3.005
			C93.906,76.577,89.887,84.104,83.657,88.892z"/>
		<g>
			<g>
				<polygon class="st8" points="11.833,38.907 0.5,38.907 0.5,90.996 11.833,79.65 				"/>
			</g>
			<g>
				<path class="st8" d="M29.227,62.237l1.775,1.777c0.165-5.199,1.505-10.099,3.758-14.45v-32.92H23.428v51.398l0.427-0.427
					L29.227,62.237z"/>
			</g>
			<g>
				<path class="st8" d="M57.689,25.771H46.356v10.982c3.403-2.217,7.23-3.834,11.333-4.707V25.771z"/>
			</g>
			<g>
				<path class="st8" d="M80.617,16.645H69.284v14.961c4.053,0.546,7.869,1.826,11.333,3.68V16.645z"/>
			</g>
			<g>
				<path class="st8" d="M103.545,38.511V9H92.212v36.492c0.61,0.855,1.194,1.728,1.724,2.64L103.545,38.511z"/>
			</g>
		</g>
		<g>
			<g>
				<polygon class="st4" points="6.833,38.907 6.833,84.656 11.833,79.65 11.833,38.907 				"/>
			</g>
			<g>
				<path class="st4" d="M29.761,16.645v46.126l1.242,1.243c0.165-5.199,1.505-10.099,3.758-14.45v-32.92H29.761z"/>
			</g>
			<g>
				<path class="st4" d="M52.689,25.771v7.762c1.612-0.617,3.28-1.121,5-1.487v-6.275H52.689z"/>
			</g>
			<g>
				<path class="st4" d="M75.617,16.645v16.467c1.733,0.595,3.405,1.32,5,2.174V16.645H75.617z"/>
			</g>
			<g>
				<polygon class="st4" points="98.545,9 98.545,43.517 103.545,38.511 103.545,9 				"/>
			</g>
		</g>
		<g>
			<g>
				<path class="st2" d="M30.975,65.102c0-0.365,0.016-0.726,0.028-1.088l-1.775-1.777l-5.372,5.379L0.5,90.996v10.757l28.727-28.76
					l3.842,3.846C31.717,73.183,30.975,69.23,30.975,65.102z"/>
			</g>
			<g>
				<path class="st2" d="M111.114,20.909l5.007,5.012l-22.185,22.21c1.364,2.346,2.452,4.87,3.224,7.53L121.493,31.3l5.007,5.012
					V20.909H111.114z"/>
			</g>
			<g>
				<path class="st2" d="M74.199,67.329c-0.041,0.006-0.075,0.008-0.113,0.012c-0.605,2.329-2.048,4.317-3.993,5.617l4.894,4.9
					l5.372-5.379l10.37-10.382c-0.338-2.961-1.163-5.774-2.403-8.351L76.826,65.26C76.48,66.292,75.645,67.11,74.199,67.329z"/>
			</g>
			<g>
				<path class="st2" d="M52.462,64.066v-1.904c0-1.896,1.885-1.896,1.885-1.896c0.106,0,0.209,0.01,0.31,0.024v-4.113l-0.663,0.663
					l-14.634,14.65c0.677,2.703,1.776,5.238,3.219,7.535l1.71-1.712l10.188-10.199C53.081,66.598,52.462,65.388,52.462,64.066z"/>
			</g>
		</g>
		<g>
			<g>
				<path class="st1" d="M64.74,31.3c-18.648,0-33.764,15.134-33.764,33.802c0,18.668,15.117,33.802,33.764,33.802
					c18.648,0,33.765-15.134,33.765-33.802C98.504,46.434,83.387,31.3,64.74,31.3z M64.74,91.298
					c-14.451,0-26.167-11.728-26.167-26.196S50.288,38.906,64.74,38.906s26.167,11.728,26.167,26.196S79.191,91.298,64.74,91.298z"
					/>
			</g>
			<g>
				<path class="st3" d="M34.975,65.103c0-17.996,14.049-32.702,31.764-33.738c-0.662-0.039-1.328-0.064-2-0.064
					c-18.648,0-33.764,15.134-33.764,33.802c0,18.668,15.117,33.802,33.764,33.802c0.672,0,1.338-0.025,2-0.064
					C49.024,97.804,34.975,83.098,34.975,65.103z"/>
			</g>
			<g>
				<path class="st7" d="M96.56,93.823c0.391-0.392,0.842-0.682,1.318-0.897l-6.746-6.753c-1.577,1.978-3.371,3.773-5.346,5.352
					l6.746,6.753c0.214-0.477,0.504-0.928,0.896-1.32L96.56,93.823z"/>
			</g>
			<g>
				<path class="st5" d="M93.123,102.927l14.884,14.9c1.562,1.564,4.095,1.564,5.657,0l3.741-3.745c1.562-1.564,1.562-4.099,0-5.663
					l-14.884-14.9c-1.562-1.564-4.095-1.564-5.657,0l-3.741,3.745C91.561,98.827,91.561,101.363,93.123,102.927z"/>
			</g>
		</g>
		<g>
			<g>
				<path class="st6" d="M60.735,73.705v3.426l4.006,7.604l4.006-7.604v-3.426c-1.222,0.558-2.575,0.877-4.006,0.877
					C63.31,74.583,61.956,74.264,60.735,73.705z"/>
			</g>
			<g>
				<path class="st7" d="M72.749,79.111L72.749,79.111l-4.002-1.98l-4.005,7.605l-4.007-7.605l-4.004,1.98l0-0.001
					c0,0-5.639,2.183-7.963,6.744c4.411,3.404,9.971,5.444,15.972,5.444s11.549-2.032,15.96-5.436
					C78.376,81.301,72.749,79.111,72.749,79.111z"/>
			</g>
			<g>
				<path class="st3" d="M75.132,60.267c-0.106,0-0.21,0.01-0.31,0.024v-4.808c0-7.492-4.064-5.451-4.064-5.451
					s-0.825-2.041-3.419-2.041H62.14c-4.132,0-7.482,3.354-7.482,7.491v4.809c-0.101-0.015-0.204-0.024-0.31-0.024
					c0,0-1.885,0-1.885,1.896v1.904c0,1.554,0.845,2.964,2.818,3.262c0.041,0.006,0.075,0.008,0.113,0.012
					c1.082,4.163,4.85,7.24,9.347,7.24s8.265-3.077,9.347-7.24c0.038-0.005,0.072-0.006,0.113-0.012
					c1.973-0.299,2.818-1.708,2.818-3.262v-1.904C77.018,60.267,75.132,60.267,75.132,60.267z"/>
			</g>
			<g>
				<path class="st5" d="M70.758,50.032c0,0-0.825-2.041-3.419-2.041H62.14c-4.132,0-7.482,3.354-7.482,7.491v4.809h0
					c0,0,3.199,3.523,3.199-1.755c0-1.824,1.477-3.303,3.299-3.303h7.168c1.822,0,3.299,1.479,3.299,3.303
					c0,5.278,3.199,1.755,3.199,1.755v-4.808C74.822,47.991,70.758,50.032,70.758,50.032z"/>
			</g>
		</g>
	</g>
	<g>
		<g>
			<g>
				<path class="st5" d="M92.315,102.753H0.5c-0.552,0-1-0.447-1-1s0.448-1,1-1h91.815c0.552,0,1,0.447,1,1
					S92.867,102.753,92.315,102.753z"/>
			</g>
			<g>
				<path class="st5" d="M126.5,102.753h-15.752c-0.552,0-1-0.447-1-1s0.448-1,1-1H126.5c0.552,0,1,0.447,1,1
					S127.052,102.753,126.5,102.753z"/>
			</g>
		</g>
		<g>
			<g>
				<g>
					<path class="st5" d="M0.5,91.996c-0.129,0-0.259-0.024-0.382-0.076C-0.256,91.766-0.5,91.4-0.5,90.996v-52.09
						c0-0.553,0.448-1,1-1h11.333c0.552,0,1,0.447,1,1V79.65c0,0.265-0.105,0.52-0.292,0.707L1.208,91.703
						C1.016,91.895,0.76,91.996,0.5,91.996z M1.5,39.906V88.58l9.333-9.344v-39.33H1.5z"/>
				</g>
			</g>
			<g>
				<g>
					<path class="st5" d="M23.428,69.043c-0.129,0-0.259-0.024-0.382-0.076c-0.374-0.154-0.618-0.52-0.618-0.924V16.645
						c0-0.553,0.448-1,1-1h11.333c0.552,0,1,0.447,1,1v32.92c0,0.16-0.039,0.317-0.112,0.46c-2.264,4.372-3.49,9.089-3.646,14.021
						c-0.013,0.399-0.261,0.752-0.632,0.898c-0.37,0.149-0.793,0.06-1.075-0.223l-1.068-1.069l-5.092,5.099
						C23.944,68.941,23.688,69.043,23.428,69.043z M24.428,17.645v47.982l4.092-4.098c0.375-0.375,1.04-0.375,1.415,0l0.21,0.211
						c0.414-4.342,1.625-8.508,3.616-12.417V17.645H24.428z"/>
				</g>
			</g>
			<g>
				<g>
					<path class="st5" d="M46.356,37.753c-0.164,0-0.328-0.04-0.477-0.121c-0.322-0.175-0.523-0.512-0.523-0.879V25.771
						c0-0.553,0.448-1,1-1h11.333c0.552,0,1,0.447,1,1v6.275c0,0.472-0.33,0.88-0.792,0.979c-3.929,0.836-7.628,2.372-10.995,4.566
						C46.736,37.698,46.546,37.753,46.356,37.753z M47.356,26.771v8.193c2.917-1.691,6.045-2.938,9.333-3.718v-4.476H47.356z"/>
				</g>
			</g>
			<g>
				<g>
					<path class="st5" d="M80.617,36.286c-0.162,0-0.324-0.039-0.472-0.118c-3.459-1.853-7.158-3.054-10.995-3.571
						c-0.496-0.067-0.866-0.49-0.866-0.991V16.645c0-0.553,0.448-1,1-1h11.333c0.552,0,1,0.447,1,1v18.642
						c0,0.352-0.185,0.678-0.486,0.857C80.973,36.238,80.795,36.286,80.617,36.286z M70.284,30.742
						c3.228,0.521,6.357,1.499,9.333,2.918V17.645h-9.333V30.742z"/>
				</g>
			</g>
			<g>
				<g>
					<path class="st5" d="M93.936,49.132c-0.043,0-0.086-0.003-0.129-0.009c-0.308-0.04-0.58-0.221-0.735-0.489
						c-0.458-0.788-0.989-1.602-1.673-2.561c-0.121-0.17-0.186-0.373-0.186-0.581V9c0-0.553,0.448-1,1-1h11.333c0.552,0,1,0.447,1,1
						v29.512c0,0.265-0.105,0.52-0.292,0.707l-9.609,9.62C94.454,49.027,94.199,49.132,93.936,49.132z M93.212,45.174
						c0.336,0.479,0.638,0.925,0.914,1.354l8.419-8.43V10h-9.333V45.174z M103.545,38.512h0.01H103.545z"/>
				</g>
			</g>
		</g>
		<g>
			<g>
				<g>
					<path class="st5" d="M64.74,99.905c-19.169,0-34.765-15.612-34.765-34.803S45.57,30.3,64.74,30.3s34.765,15.612,34.765,34.803
						S83.909,99.905,64.74,99.905z M64.74,32.3c-18.066,0-32.765,14.715-32.765,32.803S46.673,97.905,64.74,97.905
						S97.504,83.19,97.504,65.103S82.806,32.3,64.74,32.3z"/>
				</g>
			</g>
			<g>
				<g>
					<path class="st5" d="M64.74,92.299c-14.979,0-27.167-12.2-27.167-27.196S49.76,37.906,64.74,37.906s27.167,12.2,27.167,27.196
						S79.719,92.299,64.74,92.299z M64.74,39.906c-13.877,0-25.167,11.303-25.167,25.196s11.29,25.196,25.167,25.196
						s25.167-11.303,25.167-25.196S78.617,39.906,64.74,39.906z"/>
				</g>
			</g>
			<g>
				<g>
					<path class="st5" d="M92.532,99.278c-0.263,0-0.518-0.104-0.708-0.293l-6.746-6.753c-0.201-0.201-0.307-0.479-0.291-0.763
						c0.016-0.284,0.152-0.548,0.374-0.726c1.916-1.532,3.662-3.28,5.189-5.195c0.178-0.223,0.442-0.358,0.726-0.374
						c0.285-0.014,0.562,0.091,0.763,0.291l6.746,6.753c0.232,0.232,0.335,0.564,0.276,0.887c-0.06,0.323-0.273,0.597-0.573,0.731
						c-0.399,0.181-0.743,0.413-1.021,0.692l-3.133,3.137c-0.279,0.279-0.511,0.623-0.691,1.022c-0.135,0.3-0.409,0.515-0.732,0.573
						C92.652,99.273,92.592,99.278,92.532,99.278z M87.27,91.596l5.073,5.079c0.119-0.148,0.244-0.29,0.377-0.423l3.133-3.137
						l0.708,0.707l-0.708-0.707c0.133-0.133,0.274-0.259,0.423-0.378l-5.073-5.078C90,89.071,88.683,90.391,87.27,91.596z"/>
				</g>
			</g>
			<g>
				<g>
					<path class="st5" d="M110.835,120c-1.335,0-2.591-0.521-3.536-1.466l-14.884-14.9c-1.949-1.951-1.949-5.126,0-7.077
						l3.741-3.746c0.944-0.945,2.2-1.466,3.536-1.466c1.335,0,2.591,0.521,3.536,1.466l14.884,14.9c1.948,1.951,1.948,5.127,0,7.078
						l-3.741,3.745C113.427,119.479,112.171,120,110.835,120z M99.693,93.345c-0.801,0-1.555,0.312-2.121,0.88l-3.741,3.746
						c-1.17,1.171-1.17,3.078,0,4.249l0,0l14.884,14.9c1.132,1.135,3.109,1.134,4.242,0l3.741-3.745c1.17-1.172,1.17-3.078,0-4.25
						l-14.884-14.9C101.248,93.657,100.494,93.345,99.693,93.345z"/>
				</g>
			</g>
		</g>
		<g>
			<g>
				<g>
					<path class="st5" d="M64.74,85.735L64.74,85.735c-0.371,0-0.712-0.206-0.885-0.534l-4.006-7.604
						c-0.076-0.144-0.115-0.304-0.115-0.466v-3.426c0-0.341,0.173-0.657,0.459-0.842c0.286-0.183,0.647-0.209,0.956-0.067
						c2.287,1.045,4.894,1.045,7.181,0c0.309-0.142,0.669-0.115,0.956,0.067c0.286,0.185,0.459,0.501,0.459,0.842v3.426
						c0,0.162-0.04,0.322-0.115,0.466l-4.006,7.604C65.452,85.53,65.111,85.735,64.74,85.735z M61.734,76.884l3.006,5.706
						l3.006-5.706v-1.737c-1.951,0.58-4.061,0.58-6.012,0V76.884z"/>
				</g>
			</g>
			<g>
				<g>
					<path class="st5" d="M64.74,92.299c-5.969,0-11.858-2.008-16.583-5.652c-0.381-0.294-0.499-0.817-0.28-1.246
						c2.469-4.847,8.248-7.128,8.493-7.223l3.921-1.943c0.484-0.24,1.075-0.051,1.328,0.431l3.122,5.926l3.121-5.926
						c0.252-0.481,0.841-0.671,1.328-0.431l3.966,1.962c0.59,0.236,6.051,2.532,8.436,7.212c0.218,0.429,0.101,0.952-0.28,1.246
						C76.524,90.347,70.794,92.299,64.74,92.299z M50.074,85.58c4.252,3.049,9.426,4.719,14.666,4.719
						c5.319,0,10.367-1.626,14.655-4.711c-2.317-3.673-6.959-5.526-7.009-5.546c-0.027-0.011-0.054-0.022-0.08-0.035l-3.128-1.548
						l-3.551,6.743c-0.346,0.656-1.424,0.658-1.77,0l-3.553-6.743l-3.13,1.549c-0.031,0.016-0.062,0.029-0.094,0.041
						C56.875,80.13,52.356,81.958,50.074,85.58z"/>
				</g>
			</g>
			<g>
				<g>
					<path class="st5" d="M64.74,75.581c-4.636,0-8.714-2.999-10.134-7.37c-1.956-0.503-3.144-2.049-3.144-4.145v-1.903
						c0-1.73,1.144-2.563,2.195-2.812v-3.868c0-4.682,3.805-8.491,8.482-8.491h5.199c2.091,0,3.277,1.07,3.866,1.855
						c0.696-0.13,1.585-0.103,2.404,0.401c1.469,0.906,2.213,3.004,2.213,6.235v3.866c1.051,0.25,2.196,1.083,2.196,2.813v1.903
						c0,2.098-1.19,3.645-3.144,4.146C73.454,72.582,69.375,75.581,64.74,75.581z M54.347,61.267
						c-0.583,0.017-0.885,0.318-0.885,0.896v1.903c0,0.738,0.256,2.015,1.968,2.274c0.396,0.06,0.83,0.361,0.931,0.749
						c0.993,3.821,4.438,6.491,8.379,6.491s7.386-2.67,8.379-6.491c0.105-0.404,0.45-0.701,0.866-0.744
						c1.777-0.265,2.033-1.541,2.033-2.279v-1.903c0-0.577-0.3-0.878-0.893-0.896c-0.055,0.001-0.107,0.007-0.159,0.014
						c-0.286,0.047-0.579-0.044-0.798-0.233c-0.22-0.189-0.346-0.466-0.346-0.756v-4.808c0-3.266-0.792-4.242-1.263-4.533
						c-0.601-0.371-1.344-0.026-1.352-0.024c-0.25,0.125-0.54,0.141-0.802,0.042c-0.261-0.099-0.47-0.302-0.574-0.561
						c-0.059-0.135-0.668-1.416-2.492-1.416H62.14c-3.574,0-6.482,2.912-6.482,6.491v4.809c0,0.29-0.126,0.566-0.346,0.756
						c-0.22,0.189-0.511,0.274-0.798,0.233C54.459,61.272,54.404,61.267,54.347,61.267z"/>
				</g>
			</g>
			<g>
				<g>
					<path class="st5" d="M72.876,62.443c-0.226,0-0.455-0.038-0.683-0.126c-1.57-0.606-1.57-2.996-1.57-3.781
						c0-1.271-1.031-2.304-2.299-2.304h-7.168c-1.268,0-2.299,1.033-2.299,2.304c0,0.785,0,3.174-1.571,3.781
						c-1.507,0.584-3.07-1.025-3.369-1.354c-0.372-0.408-0.341-1.041,0.068-1.412c0.409-0.371,1.041-0.34,1.412,0.067
						c0.378,0.411,0.974,0.822,1.194,0.825c-0.015-0.025,0.266-0.4,0.266-1.907c0-2.373,1.929-4.304,4.299-4.304h7.168
						c2.371,0,4.299,1.931,4.299,4.304c0,1.621,0.324,1.933,0.328,1.936c0.142-0.021,0.75-0.438,1.132-0.854
						c0.372-0.407,1.005-0.436,1.412-0.063c0.407,0.371,0.438,1.001,0.067,1.409C75.309,61.242,74.145,62.443,72.876,62.443z"/>
				</g>
			</g>
		</g>
		<g>
			<g>
				<g>
					<path class="st5" d="M0.5,102.753c-0.129,0-0.259-0.024-0.382-0.076c-0.374-0.154-0.618-0.52-0.618-0.924V90.996
						c0-0.265,0.105-0.52,0.292-0.707l28.728-28.76c0.375-0.375,1.04-0.375,1.415,0l1.775,1.777
						c0.195,0.195,0.301,0.463,0.292,0.739l-0.008,0.235c-0.01,0.273-0.02,0.546-0.02,0.821c0,3.913,0.684,7.745,2.032,11.391
						c0.163,0.44-0.003,0.936-0.399,1.188c-0.396,0.255-0.914,0.198-1.247-0.135l-3.134-3.138L1.208,102.46
						C1.016,102.651,0.76,102.753,0.5,102.753z M1.5,91.41v7.927l27.02-27.05c0.375-0.374,1.041-0.375,1.415,0l1.012,1.013
						c-0.646-2.671-0.972-5.415-0.972-8.197c0-0.23,0.006-0.46,0.014-0.689l-0.761-0.762L1.5,91.41z"/>
				</g>
			</g>
			<g>
				<g>
					<path class="st5" d="M97.159,56.661c-0.083,0-0.167-0.011-0.249-0.031c-0.343-0.088-0.613-0.351-0.712-0.69
						c-0.739-2.549-1.792-5.007-3.128-7.305c-0.228-0.393-0.163-0.889,0.157-1.21l21.479-21.503l-4.301-4.306
						c-0.286-0.286-0.371-0.717-0.216-1.09c0.155-0.374,0.52-0.617,0.924-0.617H126.5c0.552,0,1,0.447,1,1v15.403
						c0,0.404-0.244,0.77-0.618,0.924c-0.374,0.155-0.804,0.069-1.09-0.217l-4.299-4.305L97.867,56.368
						C97.677,56.558,97.421,56.661,97.159,56.661z M95.18,48.301c0.969,1.756,1.785,3.594,2.435,5.488l23.17-23.196
						c0.375-0.375,1.04-0.375,1.415,0l3.299,3.304V21.909h-11.974l3.302,3.306c0.39,0.391,0.39,1.023,0,1.414L95.18,48.301z"/>
				</g>
			</g>
			<g>
				<g>
					<path class="st5" d="M74.987,78.858L74.987,78.858c-0.266,0-0.52-0.105-0.708-0.293l-4.894-4.9
						c-0.211-0.212-0.317-0.508-0.288-0.806s0.19-0.566,0.439-0.732c1.772-1.186,3.044-2.975,3.581-5.038
						c0.105-0.404,0.45-0.7,0.866-0.743l0.215,0.983l-0.15-0.988c0.951-0.145,1.566-0.615,1.829-1.397
						c0.049-0.146,0.131-0.28,0.241-0.39L87.619,53.04c0.229-0.229,0.554-0.328,0.875-0.279c0.319,0.055,0.593,0.261,0.733,0.553
						c1.31,2.72,2.149,5.637,2.496,8.671c0.035,0.303-0.071,0.604-0.286,0.82L75.695,78.565
						C75.507,78.753,75.253,78.858,74.987,78.858z M71.613,73.063l3.375,3.38l14.69-14.707c-0.288-2.164-0.849-4.26-1.671-6.254
						l-10.319,10.33c-0.488,1.221-1.471,2.057-2.815,2.399C74.257,70.105,73.127,71.783,71.613,73.063z"/>
				</g>
			</g>
			<g>
				<g>
					<path class="st5" d="M42.58,80.027c-0.037,0-0.074-0.002-0.112-0.006c-0.302-0.034-0.573-0.204-0.735-0.462
						c-1.526-2.43-2.651-5.062-3.342-7.824c-0.085-0.341,0.015-0.701,0.263-0.95L53.95,55.472c0.286-0.286,0.716-0.373,1.09-0.217
						c0.374,0.154,0.618,0.52,0.618,0.924v4.112c0,0.29-0.126,0.566-0.346,0.756c-0.22,0.189-0.511,0.274-0.798,0.233
						c-0.054-0.008-0.109-0.014-0.166-0.014c-0.583,0.017-0.885,0.318-0.885,0.896v1.903c0,0.6,0.177,1.672,1.363,2.112
						c0.319,0.118,0.556,0.392,0.629,0.724c0.073,0.333-0.029,0.68-0.27,0.921L43.287,79.734
						C43.099,79.923,42.844,80.027,42.58,80.027z M40.474,71.793c0.537,1.956,1.311,3.839,2.308,5.617l10.083-10.095
						c-0.896-0.77-1.403-1.911-1.403-3.249v-1.903c0-1.73,1.144-2.563,2.195-2.812v-0.756L40.474,71.793z"/>
				</g>
			</g>
		</g>
	</g>
</g>
</svg>
