<?xml version="1.0" encoding="utf-8"?>
<!-- Generator: Adobe Illustrator 22.0.0, SVG Export Plug-In . SVG Version: 6.00 Build 0)  -->
<svg version="1.1" id="MARKET_RESEARCH_ICON_SET" xmlns="http://www.w3.org/2000/svg" xmlns:xlink="http://www.w3.org/1999/xlink"
	 x="0px" y="0px" viewBox="0 0 128 128" style="enable-background:new 0 0 128 128;" xml:space="preserve">
<style type="text/css">
	.st0{fill:#C2D5EC;}
	.st1{fill:#61E1FF;}
	.st2{fill:#7184AF;}
	.st3{fill:#F8F8F8;}
	.st4{fill:#3F4D81;}
	.st5{fill:#3F4D80;}
	.st6{fill:#E9EAEB;}
	.st7{fill:#F79559;}
	.st8{fill:#FFA85A;}
</style>
<g>
	<g>
		<g>
			<g>
				<g>
					<path class="st1" d="M127,23.455V97.21c0,2.216-1.79,4.011-4,4.011H60v-8.563h-8.5c-0.36-1.434-0.91-2.797-1.63-4.061
						l5.98-5.996l-6.04-6.056l-5.94,5.956c-1.27-0.742-2.64-1.323-4.09-1.715v-8.402h-8.55v8.402c-1.45,0.391-2.82,0.973-4.08,1.715
						l-5.94-5.956l-6.04,6.056l5.97,5.996c-0.71,1.263-1.26,2.627-1.63,4.061h-8.5v8.563H5c-2.21,0-4-1.795-4-4.011V23.455
						c0-2.216,1.79-4.011,4-4.011h13.742c-0.227,0.774-0.363,1.597-0.452,2.396c-0.537,4.796,0.773,9.522,4.04,13.325
						c2.318,2.699,5.45,4.672,8.97,5.575c1.383,0.333,2.787,0.521,4.21,0.521c4.47,0,8.55-1.715,11.63-4.532
						c4.743-4.305,6.789-11.073,5.14-17.286H123C125.21,19.444,127,21.239,127,23.455z"/>
				</g>
				<g>
					<path class="st1" d="M26.299,96.213c-0.012,0.192-0.029,0.383-0.029,0.578c0,1.607,0.409,3.118,1.127,4.435h16.22
						c0.718-1.317,1.127-2.828,1.127-4.435c0-0.195-0.017-0.386-0.029-0.578H26.299z"/>
				</g>
			</g>
			<g>
				<g>
					<path class="st0" d="M122,24.458v71.75H6v-71.75h12.18c0.222,9.314,8.065,16.793,17.33,16.804
						c9.286,0.011,17.072-7.537,17.32-16.804H122z"/>
				</g>
			</g>
			<g>
				<g>
					<path class="st6" d="M18.97,29.14h-7.96v67.068H6v-71.75h12.18C18.23,26.092,18.51,27.656,18.97,29.14z"/>
				</g>
				<g>
					<path class="st6" d="M122,24.458v4.682H52.012c0.47-1.484,0.768-3.058,0.818-4.682H122z"/>
				</g>
			</g>
			<g>
				<path class="st5" d="M52.871,91.606l5.976-5.992l-6.042-6.058l-5.94,5.955c-1.265-0.746-2.635-1.324-4.086-1.712v-8.407h-8.545
					v8.407c-1.451,0.389-2.821,0.967-4.086,1.712l-5.94-5.955l-6.042,6.058l5.976,5.992c-0.716,1.259-1.264,2.622-1.632,4.06h-8.497
					v0.547h15.975c1.398-3.334,4.685-5.676,8.518-5.676c3.833,0,7.12,2.342,8.518,5.676H63v-0.547h-8.497
					C54.135,94.228,53.587,92.865,52.871,91.606z"/>
			</g>
		</g>
		<g>
			<g>
				<path class="st8" d="M60,101.226v-8.568h-8.497c-0.369-1.438-0.916-2.801-1.632-4.06l5.976-5.992l-6.042-6.058l-5.94,5.955
					c-1.265-0.746-2.635-1.324-4.086-1.712v-8.407h-8.545v8.407c-1.451,0.389-2.821,0.967-4.086,1.712l-5.94-5.955l-6.042,6.058
					l5.976,5.992c-0.716,1.259-1.264,2.622-1.632,4.06h-8.497v8.568h8.574c0.387,1.399,0.951,2.721,1.669,3.946l-6.09,6.107
					l6.042,6.058l6.127-6.143c1.212,0.693,2.52,1.229,3.898,1.598v8.709h8.545v-8.709c1.379-0.369,2.687-0.905,3.898-1.598
					l6.127,6.143l6.042-6.058l-6.09-6.107c0.718-1.224,1.282-2.546,1.669-3.946H60z M35.507,106.053
					c-5.102,0-9.237-4.147-9.237-9.262s4.136-9.262,9.237-9.262s9.237,4.147,9.237,9.262S40.609,106.053,35.507,106.053z"/>
			</g>
		</g>
		<g>
			<rect x="46.745" y="46.101" class="st6" width="14.791" height="14.83"/>
		</g>
		<g>
			<rect x="69.709" y="72.198" class="st6" width="14.791" height="14.83"/>
		</g>
		<g>
			<polygon class="st1" points="80.168,43.03 72.772,53.516 80.168,64.002 87.563,53.516 			"/>
		</g>
		<g>
			<polygon class="st1" points="116.654,79.613 106.196,72.198 95.737,79.613 106.196,87.028 			"/>
		</g>
		<g>
			<ellipse class="st6" cx="106.196" cy="53.516" rx="7.395" ry="7.415"/>
		</g>
		<g>
			<path class="st8" d="M52.84,23.883c-0.044,9.574-7.786,17.367-17.333,17.379c-9.573,0.012-17.333-7.78-17.333-17.379
				s7.76-17.379,17.333-17.379S52.884,14.285,52.84,23.883z"/>
		</g>
		<g>
			<path class="st8" d="M52.84,23.883c-0.044,9.574-7.786,17.367-17.333,17.379c-9.573,0.012-17.333-7.78-17.333-17.379
				s7.76-17.379,17.333-17.379S52.884,14.285,52.84,23.883z"/>
		</g>
		<g>
			<path class="st8" d="M31.3,40.741c-3.56-0.882-6.68-2.868-8.97-5.575C24.65,37.863,27.78,39.838,31.3,40.741z"/>
		</g>
		<g>
			<path class="st6" d="M37.4,41.152c-0.62,0.08-1.25,0.11-1.89,0.11c-9.58,0-17.34-7.781-17.34-17.376
				c0-9.606,7.76-17.386,17.34-17.386c0.64,0,1.27,0.03,1.89,0.11c-8.68,0.942-15.44,8.312-15.44,17.276
				C21.96,32.84,28.72,40.219,37.4,41.152z"/>
		</g>
		<g>
			<g>
				<ellipse class="st1" cx="33.651" cy="22.022" rx="6.605" ry="6.622"/>
			</g>
			<g>
				<path class="st5" d="M40.256,30.488l1.493,1.497c0.508,0.509,1.331,0.509,1.838,0v0c0.508-0.509,0.508-1.334,0-1.843
					l-1.493-1.497c-0.508-0.509-1.331-0.509-1.838,0v0C39.748,29.154,39.748,29.979,40.256,30.488z"/>
			</g>
		</g>
	</g>
	<g>
		<g>
			<g>
				<g>
					<g>
						<path class="st5" d="M43.617,102.226h-16.22c-0.366,0-0.703-0.2-0.878-0.521c-0.817-1.498-1.249-3.197-1.249-4.913
							c0-5.658,4.592-10.262,10.237-10.262s10.237,4.604,10.237,10.262c0,1.715-0.432,3.414-1.25,4.913
							C44.32,102.025,43.983,102.226,43.617,102.226z M28.015,100.226H43c0.489-1.072,0.745-2.248,0.745-3.435
							c0-4.556-3.695-8.262-8.237-8.262s-8.237,3.706-8.237,8.262C27.27,97.978,27.526,99.153,28.015,100.226z"/>
					</g>
				</g>
				<g>
					<g>
						<path class="st5" d="M123,102.221H60c-0.552,0-1-0.447-1-1v-7.562h-7.5c-0.458,0-0.858-0.312-0.97-0.757
							c-0.335-1.336-0.85-2.617-1.529-3.809c-0.223-0.391-0.157-0.883,0.161-1.201l5.275-5.29l-4.627-4.64l-5.232,5.245
							c-0.322,0.322-0.82,0.387-1.212,0.157c-1.216-0.709-2.51-1.252-3.846-1.611c-0.437-0.118-0.74-0.514-0.74-0.966v-7.402h-6.55
							v7.402c0,0.452-0.303,0.848-0.74,0.966c-1.341,0.361-2.631,0.903-3.833,1.61c-0.393,0.23-0.892,0.167-1.215-0.156
							l-5.232-5.245l-4.628,4.641l5.267,5.289c0.316,0.317,0.382,0.806,0.163,1.196c-0.671,1.194-1.188,2.479-1.534,3.82
							c-0.114,0.441-0.512,0.75-0.968,0.75h-7.5v7.562c0,0.553-0.448,1-1,1H5c-2.757,0-5-2.248-5-5.011V23.455
							c0-2.763,2.243-5.011,5-5.011h13.741c0.552,0,1,0.447,1,1s-0.448,1-1,1H5c-1.654,0-3,1.351-3,3.011V97.21
							c0,1.66,1.346,3.011,3,3.011h5.01v-7.562c0-0.553,0.448-1,1-1h7.743c0.303-0.994,0.69-1.958,1.157-2.879l-5.448-5.472
							c-0.389-0.391-0.389-1.022,0-1.412l6.04-6.056c0.375-0.377,1.041-0.377,1.416,0l5.405,5.419
							c0.932-0.493,1.904-0.902,2.907-1.221v-7.653c0-0.553,0.448-1,1-1h8.55c0.552,0,1,0.447,1,1v7.654
							c1.001,0.317,1.977,0.727,2.915,1.222l5.407-5.421c0.375-0.377,1.041-0.377,1.416,0l6.04,6.056
							c0.389,0.391,0.389,1.021,0,1.412l-5.455,5.47c0.472,0.922,0.859,1.886,1.158,2.881H60c0.552,0,1,0.447,1,1v7.562h62
							c1.654,0,3-1.351,3-3.011V23.455c0-1.66-1.346-3.011-3-3.011H52.28c-0.552,0-1-0.447-1-1s0.448-1,1-1H123
							c2.757,0,5,2.248,5,5.011V97.21C128,99.973,125.757,102.221,123,102.221z"/>
					</g>
				</g>
			</g>
			<g>
				<g>
					<g>
						<path class="st5" d="M44.715,97.213H26.299c-0.276,0-0.54-0.114-0.729-0.315c-0.189-0.2-0.287-0.471-0.27-0.746
							c0.333-5.396,4.816-9.622,10.207-9.622c5.39,0,9.873,4.227,10.206,9.622c0.017,0.275-0.081,0.546-0.27,0.746
							C45.255,97.099,44.991,97.213,44.715,97.213z M27.432,95.213h16.151c-0.738-3.823-4.1-6.684-8.075-6.684
							C31.532,88.529,28.169,91.39,27.432,95.213z"/>
					</g>
				</g>
				<g>
					<g>
						<path class="st5" d="M122,97.208H60c-0.552,0-1-0.447-1-1v-2.55h-7.5c-0.458,0-0.858-0.312-0.97-0.757
							c-0.335-1.336-0.85-2.617-1.529-3.809c-0.223-0.391-0.157-0.883,0.161-1.201l5.275-5.29l-4.627-4.64l-5.232,5.245
							c-0.322,0.322-0.82,0.387-1.212,0.157c-1.216-0.709-2.51-1.252-3.846-1.611c-0.437-0.118-0.74-0.514-0.74-0.966v-7.402h-6.55
							v7.402c0,0.452-0.303,0.848-0.74,0.966c-1.341,0.361-2.631,0.903-3.833,1.61c-0.393,0.23-0.892,0.167-1.215-0.156
							l-5.232-5.245l-4.628,4.641l5.267,5.289c0.316,0.317,0.382,0.806,0.163,1.196c-0.671,1.194-1.188,2.479-1.534,3.82
							c-0.114,0.441-0.512,0.75-0.968,0.75h-7.5v2.55c0,0.553-0.448,1-1,1H6c-0.552,0-1-0.447-1-1v-71.75c0-0.553,0.448-1,1-1h12.18
							c0.552,0,1,0.447,1,1s-0.448,1-1,1H7v69.75h3.01v-2.55c0-0.553,0.448-1,1-1h7.743c0.303-0.994,0.69-1.958,1.157-2.879
							l-5.448-5.472c-0.389-0.391-0.389-1.022,0-1.412l6.04-6.056c0.375-0.377,1.041-0.377,1.416,0l5.405,5.419
							c0.932-0.493,1.904-0.902,2.907-1.221v-7.653c0-0.553,0.448-1,1-1h8.55c0.552,0,1,0.447,1,1v7.653
							c1.001,0.318,1.977,0.728,2.915,1.223l5.407-5.421c0.375-0.377,1.041-0.377,1.416,0l6.04,6.056
							c0.389,0.391,0.389,1.021,0,1.412l-5.455,5.47c0.472,0.922,0.859,1.886,1.158,2.881H60c0.552,0,1,0.447,1,1v2.55h60v-69.75
							H52.83c-0.552,0-1-0.447-1-1s0.448-1,1-1H122c0.552,0,1,0.447,1,1v71.75C123,96.761,122.552,97.208,122,97.208z"/>
					</g>
				</g>
			</g>
		</g>
		<g>
			<g>
				<path class="st5" d="M39.78,122.5h-8.545c-0.552,0-1-0.447-1-1v-7.959c-0.942-0.296-1.852-0.669-2.718-1.113l-5.6,5.614
					c-0.375,0.377-1.041,0.377-1.416,0l-6.042-6.058c-0.389-0.391-0.389-1.021,0-1.412l5.558-5.573
					c-0.47-0.889-0.862-1.817-1.172-2.773h-7.831c-0.552,0-1-0.447-1-1v-8.567c0-0.553,0.448-1,1-1h7.738
					c0.303-1,0.69-1.964,1.158-2.88l-5.451-5.466c-0.389-0.391-0.389-1.021,0-1.412l6.042-6.059c0.375-0.377,1.041-0.377,1.416,0
					l5.405,5.419c0.931-0.493,1.906-0.901,2.913-1.22v-7.657c0-0.553,0.448-1,1-1h8.545c0.552,0,1,0.447,1,1v7.657
					c1.007,0.318,1.982,0.727,2.913,1.22l5.405-5.419c0.188-0.188,0.442-0.294,0.708-0.294l0,0c0.266,0,0.521,0.105,0.708,0.294
					l6.042,6.059c0.389,0.391,0.389,1.021,0,1.412l-5.452,5.466c0.467,0.915,0.854,1.879,1.158,2.88H60c0.552,0,1,0.447,1,1v8.567
					c0,0.553-0.448,1-1,1h-7.83c-0.311,0.956-0.703,1.885-1.172,2.773l5.558,5.573c0.389,0.391,0.389,1.021,0,1.412l-6.042,6.058
					c-0.188,0.188-0.442,0.294-0.708,0.294l0,0c-0.266,0-0.521-0.105-0.708-0.294l-5.6-5.614c-0.866,0.444-1.776,0.817-2.718,1.113
					v7.959C40.78,122.053,40.332,122.5,39.78,122.5z M32.235,120.5h6.545v-7.709c0-0.453,0.304-0.849,0.741-0.966
					c1.294-0.347,2.526-0.852,3.661-1.501c0.392-0.224,0.886-0.158,1.205,0.162l5.419,5.434l4.63-4.642l-5.386-5.4
					c-0.321-0.321-0.385-0.819-0.155-1.212c0.682-1.162,1.209-2.409,1.568-3.707c0.12-0.434,0.514-0.733,0.964-0.733H59v-6.567
					h-7.497c-0.457,0-0.855-0.31-0.969-0.752c-0.347-1.353-0.862-2.635-1.533-3.813c-0.223-0.391-0.157-0.882,0.161-1.2l5.272-5.286
					l-4.63-4.643l-5.231,5.245c-0.322,0.322-0.822,0.389-1.216,0.155c-1.197-0.705-2.488-1.246-3.837-1.607
					c-0.437-0.117-0.741-0.513-0.741-0.966v-7.407h-6.545v7.407c0,0.453-0.304,0.849-0.741,0.966
					c-1.349,0.361-2.64,0.902-3.838,1.607c-0.394,0.233-0.893,0.167-1.215-0.155l-5.231-5.245l-4.63,4.643l5.272,5.286
					c0.317,0.318,0.384,0.81,0.161,1.2c-0.67,1.18-1.187,2.463-1.533,3.813c-0.114,0.442-0.512,0.752-0.969,0.752h-7.497v6.567
					h7.574c0.45,0,0.844,0.3,0.964,0.733c0.359,1.298,0.886,2.545,1.568,3.707c0.23,0.393,0.166,0.891-0.155,1.212l-5.386,5.4
					l4.629,4.642l5.419-5.434c0.319-0.32,0.812-0.386,1.205-0.162c1.135,0.649,2.367,1.154,3.661,1.501
					c0.437,0.117,0.741,0.513,0.741,0.966V120.5z M35.507,107.053c-5.645,0-10.237-4.604-10.237-10.262s4.592-10.262,10.237-10.262
					s10.237,4.604,10.237,10.262S41.152,107.053,35.507,107.053z M35.507,88.529c-4.542,0-8.237,3.706-8.237,8.262
					s3.695,8.262,8.237,8.262s8.237-3.706,8.237-8.262S40.049,88.529,35.507,88.529z"/>
			</g>
		</g>
		<g>
			<g>
				<path class="st5" d="M61.535,61.931H46.745c-0.552,0-1-0.447-1-1V46.102c0-0.553,0.448-1,1-1h14.791c0.552,0,1,0.447,1,1v14.829
					C62.535,61.483,62.087,61.931,61.535,61.931z M47.745,59.931h12.791V47.102H47.745V59.931z"/>
			</g>
		</g>
		<g>
			<g>
				<path class="st5" d="M84.5,88.028H69.709c-0.552,0-1-0.447-1-1v-14.83c0-0.553,0.448-1,1-1H84.5c0.552,0,1,0.447,1,1v14.83
					C85.5,87.581,85.052,88.028,84.5,88.028z M70.709,86.028H83.5v-12.83H70.709V86.028z"/>
			</g>
		</g>
		<g>
			<g>
				<path class="st5" d="M80.168,65.002c-0.325,0-0.63-0.158-0.817-0.424l-7.396-10.486c-0.244-0.346-0.244-0.807,0-1.152
					l7.396-10.486c0.375-0.531,1.26-0.531,1.635,0l7.395,10.486c0.244,0.346,0.244,0.807,0,1.152l-7.395,10.486
					C80.798,64.844,80.493,65.002,80.168,65.002z M73.996,53.516l6.172,8.751l6.171-8.751l-6.171-8.751L73.996,53.516z"/>
			</g>
		</g>
		<g>
			<g>
				<path class="st5" d="M106.196,88.028c-0.203,0-0.405-0.062-0.579-0.185l-10.458-7.415c-0.264-0.188-0.421-0.491-0.421-0.815
					s0.157-0.628,0.421-0.815l10.458-7.415c0.347-0.246,0.811-0.246,1.157,0l10.458,7.415c0.264,0.188,0.421,0.491,0.421,0.815
					s-0.157,0.628-0.421,0.815l-10.458,7.415C106.601,87.967,106.398,88.028,106.196,88.028z M97.466,79.613l8.729,6.189
					l8.729-6.189l-8.729-6.189L97.466,79.613z"/>
			</g>
		</g>
		<g>
			<g>
				<path class="st5" d="M35.507,73.384c-0.552,0-1-0.447-1-1v-2c0-0.553,0.448-1,1-1s1,0.447,1,1v2
					C36.507,72.937,36.06,73.384,35.507,73.384z M35.507,67.384c-0.552,0-1-0.447-1-1v-2c0-0.553,0.448-1,1-1s1,0.447,1,1v2
					C36.507,66.937,36.06,67.384,35.507,67.384z M35.507,61.384c-0.552,0-1-0.447-1-1v-2c0-0.553,0.448-1,1-1s1,0.447,1,1v2
					C36.507,60.937,36.06,61.384,35.507,61.384z M35.507,55.384c-0.552,0-1-0.447-1-1v-0.868c0-0.553,0.448-1,1-1h1.132
					c0.552,0,1,0.447,1,1s-0.448,1-1,1h-0.141C36.434,55.006,36.015,55.384,35.507,55.384z M46.745,54.516h-0.105
					c-0.552,0-1-0.447-1-1s0.448-1,1-1h0.105c0.552,0,1,0.447,1,1S47.297,54.516,46.745,54.516z M42.639,54.516h-2
					c-0.552,0-1-0.447-1-1s0.448-1,1-1h2c0.552,0,1,0.447,1,1S43.191,54.516,42.639,54.516z"/>
			</g>
		</g>
		<g>
			<g>
				<path class="st5" d="M69.535,54.516h-2c-0.552,0-1-0.447-1-1s0.448-1,1-1h2c0.552,0,1,0.447,1,1S70.087,54.516,69.535,54.516z
					 M63.535,54.516h-2c-0.552,0-1-0.447-1-1s0.448-1,1-1h2c0.552,0,1,0.447,1,1S64.087,54.516,63.535,54.516z"/>
			</g>
		</g>
		<g>
			<g>
				<path class="st5" d="M95.563,54.516h-2c-0.552,0-1-0.447-1-1s0.448-1,1-1h2c0.552,0,1,0.447,1,1S96.115,54.516,95.563,54.516z
					 M89.563,54.516h-2c-0.552,0-1-0.447-1-1s0.448-1,1-1h2c0.552,0,1,0.447,1,1S90.115,54.516,89.563,54.516z"/>
			</g>
		</g>
		<g>
			<g>
				<path class="st5" d="M106.196,69.931c-0.552,0-1-0.447-1-1v-2c0-0.553,0.448-1,1-1s1,0.447,1,1v2
					C107.196,69.483,106.748,69.931,106.196,69.931z M106.196,63.931c-0.552,0-1-0.447-1-1v-2c0-0.553,0.448-1,1-1s1,0.447,1,1v2
					C107.196,63.483,106.748,63.931,106.196,63.931z"/>
			</g>
		</g>
		<g>
			<g>
				<path class="st5" d="M92.5,80.613h-2c-0.552,0-1-0.447-1-1s0.448-1,1-1h2c0.552,0,1,0.447,1,1S93.052,80.613,92.5,80.613z
					 M86.5,80.613h-2c-0.552,0-1-0.447-1-1s0.448-1,1-1h2c0.552,0,1,0.447,1,1S87.052,80.613,86.5,80.613z"/>
			</g>
		</g>
		<g>
			<g>
				<path class="st5" d="M106.196,61.931c-4.629,0-8.396-3.775-8.396-8.415s3.766-8.414,8.396-8.414s8.396,3.774,8.396,8.414
					S110.825,61.931,106.196,61.931z M106.196,47.102c-3.526,0-6.396,2.877-6.396,6.414s2.869,6.415,6.396,6.415
					s6.396-2.878,6.396-6.415S109.722,47.102,106.196,47.102z"/>
			</g>
		</g>
		<g>
			<g>
				<path class="st5" d="M35.479,42.262c-4.869,0-9.45-1.897-12.904-5.347c-3.482-3.477-5.4-8.104-5.4-13.031
					c0-10.134,8.224-18.379,18.333-18.379c4.911,0,9.526,1.918,12.996,5.401c3.461,3.475,5.356,8.085,5.337,12.981
					c-0.039,10.115-8.262,18.357-18.331,18.374C35.499,42.262,35.488,42.262,35.479,42.262z M35.507,7.505
					c-9.006,0-16.333,7.348-16.333,16.379c0,4.392,1.709,8.518,4.813,11.616c3.076,3.071,7.157,4.762,11.491,4.762
					c0.009,0,0.018,0,0.027,0c8.972-0.015,16.299-7.363,16.334-16.382l0,0c0.017-4.361-1.671-8.468-4.754-11.562
					C43.995,9.214,39.882,7.505,35.507,7.505z"/>
			</g>
		</g>
		<g>
			<g>
				<g>
					<path class="st5" d="M33.651,29.645c-4.193,0-7.605-3.419-7.605-7.622s3.412-7.622,7.605-7.622s7.604,3.419,7.604,7.622
						S37.845,29.645,33.651,29.645z M33.651,16.4c-3.091,0-5.605,2.522-5.605,5.622s2.514,5.622,5.605,5.622
						c3.09,0,5.604-2.522,5.604-5.622S36.742,16.4,33.651,16.4z"/>
				</g>
			</g>
			<g>
				<g>
					<path class="st5" d="M42.668,33.367c-0.615,0-1.193-0.24-1.627-0.676l-1.493-1.497l0,0c-0.895-0.896-0.895-2.357-0.001-3.255
						c0.436-0.437,1.014-0.677,1.628-0.677h0c0.615,0,1.192,0.24,1.626,0.676l1.493,1.497c0.895,0.896,0.896,2.357,0,3.256
						C43.861,33.127,43.283,33.367,42.668,33.367z M40.964,29.782l1.493,1.497c0.145,0.144,0.277,0.146,0.422,0
						c0.118-0.119,0.119-0.312,0-0.432l-1.493-1.497c-0.072-0.072-0.155-0.088-0.211-0.088l0,0c-0.057,0-0.139,0.016-0.211,0.088
						C40.846,29.47,40.845,29.663,40.964,29.782L40.964,29.782z"/>
				</g>
			</g>
			<g>
				<g>
					<path class="st5" d="M40.256,29.645c-0.256,0-0.513-0.098-0.708-0.294l-1.935-1.939c-0.39-0.391-0.389-1.023,0.001-1.414
						c0.391-0.39,1.024-0.39,1.415,0.002l1.935,1.939c0.39,0.391,0.389,1.023-0.001,1.414
						C40.767,29.547,40.511,29.645,40.256,29.645z"/>
				</g>
			</g>
		</g>
	</g>
</g>
</svg>
