<?xml version="1.0" encoding="utf-8"?>
<!-- Generator: Adobe Illustrator 22.0.0, SVG Export Plug-In . SVG Version: 6.00 Build 0)  -->
<svg version="1.1" id="MARKET_RESEARCH_ICON_SET" xmlns="http://www.w3.org/2000/svg" xmlns:xlink="http://www.w3.org/1999/xlink"
	 x="0px" y="0px" viewBox="0 0 128 128" style="enable-background:new 0 0 128 128;" xml:space="preserve">
<style type="text/css">
	.st0{fill:#C2D5EC;}
	.st1{fill:#61E1FF;}
	.st2{fill:#7184AF;}
	.st3{fill:#F8F8F8;}
	.st4{fill:#3F4D81;}
	.st5{fill:#3F4D80;}
	.st6{fill:#E9EAEB;}
	.st7{fill:#F79559;}
	.st8{fill:#FFA85A;}
</style>
<g>
	<g>
		<path class="st0" d="M85.789,31.158C68.59,58.883,69.97,13.901,49.978,28.947c-13.42,10.1-11.848-17.785-29.22-17.785
			C3.385,11.161,17.027,56.554,0,56.554v33.411h49.964c-5.816-4.317-9.589-11.246-9.589-19.06c0-13.088,10.577-23.697,23.625-23.697
			s23.625,10.61,23.625,23.697c0,7.815-3.773,14.744-9.589,19.06H128V37.343C128,20.922,99.348,9.3,85.789,31.158z"/>
		<g>
			<g>
				<path class="st8" d="M16.212,56.308h-5.841C7.957,56.308,6,58.271,6,60.692v29.273h14.584V60.692
					C20.584,58.271,18.627,56.308,16.212,56.308z"/>
			</g>
			<g>
				<path class="st8" d="M36.497,40.327h-5.964c-2.38,0-4.31,1.935-4.31,4.323v45.315h14.584V44.65
					C40.807,42.263,38.877,40.327,36.497,40.327z"/>
			</g>
			<g>
				<path class="st8" d="M57.18,31.919h-6.584c-2.209,0-4,1.796-4,4.012v54.034H61.18V35.932
					C61.18,33.716,59.39,31.919,57.18,31.919z"/>
			</g>
			<g>
				<path class="st8" d="M77.404,23.511H70.82c-2.209,0-4,1.796-4,4.012v62.442h14.584V27.523
					C81.404,25.307,79.613,23.511,77.404,23.511z"/>
			</g>
			<g>
				<path class="st8" d="M97.212,31.919h-6.584c-2.209,0-4,1.796-4,4.012v54.034h14.584V35.932
					C101.212,33.716,99.421,31.919,97.212,31.919z"/>
			</g>
			<g>
				<path class="st8" d="M117.435,61.784h-6.584c-2.209,0-4,1.796-4,4.012v24.17h14.584v-24.17
					C121.435,63.58,119.644,61.784,117.435,61.784z"/>
			</g>
		</g>
		<g>
			<g>
				<path class="st4" d="M16.212,56.308h-3c2.414,0,4.371,1.963,4.371,4.385v29.273h3V60.692
					C20.584,58.271,18.627,56.308,16.212,56.308z"/>
			</g>
			<g>
				<path class="st4" d="M36.497,40.327h-3c2.38,0,4.31,1.936,4.31,4.323v45.315h3V44.65C40.807,42.263,38.877,40.327,36.497,40.327
					z"/>
			</g>
			<g>
				<path class="st4" d="M57.18,31.919h-3c2.209,0,4,1.796,4,4.012v54.034h3V35.931C61.18,33.716,59.39,31.919,57.18,31.919z"/>
			</g>
			<g>
				<path class="st4" d="M77.404,23.511h-3c2.209,0,4,1.796,4,4.012v62.442h3V27.523C81.404,25.307,79.613,23.511,77.404,23.511z"/>
			</g>
			<g>
				<path class="st4" d="M97.212,31.919h-3c2.209,0,4,1.796,4,4.012v54.034h3V35.931C101.212,33.716,99.421,31.919,97.212,31.919z"
					/>
			</g>
			<g>
				<path class="st4" d="M117.435,61.784h-3c2.209,0,4,1.796,4,4.012v24.17h3v-24.17C121.435,63.58,119.644,61.784,117.435,61.784z"
					/>
			</g>
		</g>
		<g>
			<g>
				<path class="st1" d="M41.011,76.359c-0.412-1.752-0.636-3.576-0.636-5.454c0-13.088,10.577-23.697,23.625-23.697
					c9.272,0,17.293,5.361,21.16,13.159l5.054-5.069C84.899,46.336,75.151,40.327,64,40.327c-16.836,0-30.485,13.69-30.485,30.578
					c0,1.712,0.147,3.389,0.417,5.025c0.743,4.508,2.468,8.683,4.949,12.296c5.497,8.006,14.695,13.257,25.119,13.257
					c16.836,0,30.485-13.69,30.485-30.578c0-3.079-0.455-6.054-1.3-8.857l-5.765,5.782c0.13,1.007,0.205,2.032,0.205,3.075
					c0,13.088-10.577,23.697-23.625,23.697c-8.536,0-16.013-4.542-20.164-11.346l12.314-12.351l9.252,9.28l4.851,4.865
					l32.064-32.161l4.521,4.534V43.49H92.945l4.521,4.534L70.252,75.32L61,66.04l-4.851-4.865l-4.851,4.865L41.011,76.359z"/>
			</g>
			<g>
				<g>
					<path class="st3" d="M42.59,88.225c-2.48-3.611-4.2-7.784-4.94-12.297c-0.27-1.635-0.42-3.31-0.42-5.025
						c0-16.27,12.67-29.57,28.65-30.513c-0.62-0.04-1.25-0.06-1.88-0.06c-16.84,0-30.48,13.692-30.48,30.573
						c0,1.715,0.14,3.39,0.41,5.025c0.75,4.514,2.47,8.686,4.95,12.297c5.5,8.004,14.7,13.26,25.12,13.26
						c0.59,0,1.18-0.02,1.77-0.06C56.15,100.813,47.75,95.728,42.59,88.225z"/>
				</g>
			</g>
			<g>
				<path class="st7" d="M92.73,96.886c0.353-0.354,0.76-0.617,1.19-0.811l-6.091-6.109c-1.424,1.789-3.043,3.413-4.827,4.842
					l6.091,6.109c0.193-0.431,0.455-0.839,0.809-1.194L92.73,96.886z"/>
			</g>
			<g>
				<path class="st2" d="M89.901,105.397l12.889,12.928c1.562,1.567,4.095,1.567,5.657,0l2.828-2.837
					c1.562-1.567,1.562-4.107,0-5.674L98.387,96.886c-1.562-1.567-4.095-1.567-5.657,0l-2.828,2.837
					C88.339,101.29,88.339,103.83,89.901,105.397z"/>
			</g>
		</g>
	</g>
	<g>
		<g>
			<g>
				<g>
					<path class="st5" d="M64,102.483c-10.358,0-20.057-5.118-25.943-13.691c-2.635-3.837-4.354-8.109-5.112-12.7
						c-0.285-1.731-0.43-3.476-0.43-5.188c0-17.412,14.124-31.578,31.485-31.578c10.617,0,20.615,5.475,26.397,14.37l5.656-5.673
						l-3.816-3.828c-0.286-0.286-0.371-0.716-0.216-1.089c0.155-0.374,0.52-0.617,0.924-0.617h13.892c0.552,0,1,0.448,1,1v13.934
						c0,0.405-0.244,0.77-0.618,0.924c-0.374,0.154-0.804,0.069-1.09-0.218l-3.812-3.824l-8.006,8.03
						c0.78,2.78,1.175,5.66,1.175,8.569C95.485,88.317,81.361,102.483,64,102.483z M64,41.328
						c-16.258,0-29.485,13.269-29.485,29.578c0,1.603,0.136,3.239,0.403,4.862c0.709,4.298,2.319,8.3,4.787,11.893
						C45.219,95.69,54.301,100.483,64,100.483c16.258,0,29.485-13.269,29.485-29.578c0-2.343-0.273-4.666-0.813-6.925l-4.2,4.213
						c0.102,0.923,0.154,1.833,0.154,2.712c0,13.618-11.047,24.697-24.625,24.697c-8.643,0-16.5-4.421-21.018-11.825
						c-0.24-0.394-0.18-0.9,0.146-1.227l12.313-12.351c0.375-0.376,1.041-0.376,1.416,0l13.395,13.436l16.448-16.499
						c0.004-0.004,0.008-0.008,0.012-0.012l5.765-5.782c0.003-0.003,0.006-0.006,0.009-0.009l9.122-9.149
						c0.375-0.376,1.041-0.376,1.416,0l2.812,2.821V44.49H95.354l2.819,2.828c0.389,0.39,0.389,1.022,0,1.412L70.96,76.026
						c-0.375,0.376-1.041,0.376-1.416,0L56.149,62.591L41.719,77.065c-0.257,0.257-0.634,0.355-0.981,0.256
						c-0.349-0.099-0.618-0.38-0.701-0.733c-0.439-1.87-0.662-3.782-0.662-5.683c0-13.618,11.047-24.697,24.625-24.697
						c8.947,0,17.029,4.752,21.409,12.493l3.542-3.553C83.574,46.604,74.085,41.328,64,41.328z M45.108,83.396
						C49.315,89.802,56.32,93.603,64,93.603c12.476,0,22.625-10.182,22.625-22.697c0-0.278-0.006-0.559-0.017-0.843L70.96,85.757
						c-0.375,0.376-1.041,0.376-1.416,0L56.149,72.322L45.108,83.396z M64,48.208c-12.476,0-22.625,10.182-22.625,22.697
						c0,1.137,0.087,2.279,0.259,3.412l13.808-13.849c0.375-0.376,1.041-0.376,1.416,0l13.395,13.436l13.685-13.727
						C79.981,52.775,72.406,48.208,64,48.208z"/>
				</g>
			</g>
			<g>
				<g>
					<path class="st5" d="M89.093,101.917c-0.263,0-0.519-0.104-0.708-0.294l-6.091-6.109c-0.201-0.201-0.306-0.479-0.291-0.762
						c0.016-0.283,0.152-0.547,0.374-0.725c1.722-1.378,3.293-2.955,4.67-4.684c0.177-0.223,0.442-0.36,0.727-0.376
						c0.286-0.018,0.562,0.09,0.764,0.292l6.091,6.109c0.232,0.232,0.335,0.564,0.275,0.887c-0.059,0.323-0.273,0.596-0.572,0.731
						c-0.349,0.157-0.649,0.361-0.893,0.605l-2.829,2.837c-0.244,0.245-0.447,0.547-0.604,0.897c-0.135,0.3-0.409,0.515-0.732,0.574
						C89.213,101.911,89.153,101.917,89.093,101.917z M84.483,94.877l4.432,4.445c0.088-0.106,0.181-0.208,0.278-0.305l2.829-2.837
						l0,0c0.098-0.099,0.201-0.193,0.309-0.283l-4.432-4.445C86.85,92.679,85.706,93.825,84.483,94.877z"/>
				</g>
			</g>
			<g>
				<g>
					<path class="st5" d="M105.619,120.5c-1.336,0-2.592-0.522-3.537-1.469l-12.889-12.928l0,0c-1.948-1.954-1.948-5.133,0-7.086
						l2.829-2.837c0.944-0.947,2.2-1.469,3.536-1.469c1.336,0,2.592,0.522,3.537,1.469l12.889,12.928
						c1.948,1.954,1.948,5.133,0,7.086l-2.829,2.837C108.21,119.978,106.955,120.5,105.619,120.5z M90.609,104.691l12.889,12.928
						c1.133,1.137,3.106,1.137,4.241,0l2.829-2.837c1.171-1.175,1.171-3.087,0-4.262L97.679,97.592
						c-1.133-1.136-3.106-1.137-4.241,0l-2.829,2.837C89.438,101.604,89.438,103.516,90.609,104.691L90.609,104.691z"/>
				</g>
			</g>
		</g>
		<g>
			<g>
				<path class="st5" d="M40.167,90.965H1c-0.552,0-1-0.448-1-1s0.448-1,1-1h39.167c0.552,0,1,0.448,1,1S40.72,90.965,40.167,90.965
					z"/>
			</g>
		</g>
		<g>
			<g>
				<path class="st5" d="M127,90.965H87.829c-0.552,0-1-0.448-1-1s0.448-1,1-1H127c0.552,0,1,0.448,1,1S127.552,90.965,127,90.965z"
					/>
			</g>
		</g>
		<g>
			<g>
				<path class="st5" d="M41.011,77.359c-0.091,0-0.183-0.012-0.273-0.038c-0.35-0.099-0.618-0.38-0.701-0.733
					c-0.439-1.872-0.662-3.784-0.662-5.682c0-13.618,11.047-24.697,24.625-24.697c9.409,0,17.86,5.255,22.056,13.714
					c0.19,0.384,0.115,0.847-0.188,1.15L70.96,76.026c-0.375,0.376-1.041,0.376-1.416,0L56.149,62.591L41.719,77.065
					C41.529,77.256,41.273,77.359,41.011,77.359z M64,48.208c-12.476,0-22.625,10.182-22.625,22.697
					c0,1.136,0.087,2.278,0.259,3.412l13.807-13.849c0.375-0.376,1.041-0.376,1.416,0l13.395,13.436l13.685-13.727
					C79.981,52.775,72.406,48.208,64,48.208z"/>
			</g>
		</g>
		<g>
			<g>
				<path class="st5" d="M64,95.603c-8.643,0-16.5-4.421-21.018-11.825c-0.24-0.394-0.18-0.9,0.146-1.227l12.313-12.351
					c0.188-0.188,0.442-0.294,0.708-0.294l0,0c0.266,0,0.521,0.106,0.708,0.294l13.395,13.436l16.46-16.51
					c0.27-0.271,0.67-0.362,1.03-0.241c0.361,0.123,0.621,0.44,0.67,0.818c0.141,1.091,0.213,2.169,0.213,3.203
					C88.625,84.523,77.578,95.603,64,95.603z M45.108,83.396C49.315,89.802,56.32,93.603,64,93.603
					c12.476,0,22.625-10.182,22.625-22.697c0-0.278-0.006-0.559-0.017-0.843L70.96,85.757c-0.375,0.376-1.041,0.376-1.416,0
					L56.149,72.322L45.108,83.396z"/>
			</g>
		</g>
		<g>
			<g>
				<g>
					<path class="st5" d="M20.583,90.965H6c-0.552,0-1-0.448-1-1V60.692c0-2.969,2.41-5.385,5.372-5.385h5.841
						c2.961,0,5.371,2.416,5.371,5.385v29.273C21.583,90.518,21.136,90.965,20.583,90.965z M7,88.965h12.583V60.692
						c0-1.866-1.512-3.385-3.371-3.385h-5.841C8.513,57.308,7,58.826,7,60.692V88.965z"/>
				</g>
			</g>
			<g>
				<g>
					<g>
						<path class="st5" d="M40.806,76.368c-0.475,0-0.89-0.337-0.981-0.812c-0.299-1.56-0.45-3.125-0.45-4.65
							c0-1.56,0.151-3.14,0.45-4.695c0.097-0.506,0.561-0.859,1.077-0.807c0.513,0.049,0.905,0.48,0.905,0.996v8.969
							c0,0.516-0.392,0.947-0.906,0.996C40.87,76.366,40.838,76.368,40.806,76.368z"/>
					</g>
				</g>
				<g>
					<g>
						<path class="st5" d="M40.178,90.965H26.223c-0.552,0-1-0.448-1-1V44.65c0-2.935,2.382-5.323,5.31-5.323h5.964
							c2.928,0,5.31,2.388,5.31,5.323v6.422c0,0.237-0.084,0.467-0.238,0.648c-4.549,5.346-7.054,12.159-7.054,19.185
							c0,1.603,0.136,3.239,0.403,4.862c0.709,4.298,2.319,8.3,4.787,11.893c0.354,0.516,0.765,1.066,1.255,1.682
							c0.239,0.301,0.285,0.711,0.119,1.057C40.912,90.746,40.562,90.965,40.178,90.965z M27.223,88.965h10.953
							c-0.041-0.058-0.081-0.115-0.12-0.173l0,0c-2.635-3.837-4.354-8.109-5.112-12.7c-0.285-1.731-0.43-3.476-0.43-5.188
							c0-7.376,2.587-14.534,7.292-20.197V44.65c0-1.832-1.485-3.323-3.31-3.323h-5.964c-1.825,0-3.31,1.491-3.31,3.323V88.965z"/>
					</g>
				</g>
			</g>
			<g>
				<g>
					<g>
						<path class="st5" d="M46.597,71.756c-0.129,0-0.258-0.025-0.382-0.076c-0.374-0.155-0.618-0.52-0.618-0.924V54.883
							c0-0.25,0.094-0.491,0.262-0.675c3.979-4.347,9.379-7.124,15.203-7.819c0.282-0.032,0.569,0.056,0.783,0.245
							c0.213,0.19,0.336,0.462,0.336,0.748v18.839c0,0.404-0.244,0.769-0.617,0.924c-0.375,0.154-0.804,0.07-1.09-0.217
							l-4.324-4.337l-8.845,8.871C47.113,71.654,46.857,71.756,46.597,71.756z M47.597,55.277v13.06l7.845-7.869
							c0.375-0.376,1.041-0.376,1.416,0l3.323,3.333V48.537C55.387,49.357,50.966,51.72,47.597,55.277z"/>
					</g>
				</g>
				<g>
					<g>
						<path class="st5" d="M46.597,46.806c-0.158,0-0.317-0.038-0.462-0.113c-0.331-0.172-0.538-0.514-0.538-0.887v-9.874
							c0-2.764,2.243-5.012,5-5.012h6.584c2.757,0,5,2.249,5,5.012v4.531c0,0.517-0.394,0.948-0.908,0.996
							c-5.056,0.465-9.932,2.252-14.103,5.167C46.999,46.745,46.798,46.806,46.597,46.806z M50.597,32.919c-1.654,0-3,1.351-3,3.012
							v8.024c3.829-2.346,8.129-3.849,12.584-4.392v-3.632c0-1.661-1.346-3.012-3-3.012H50.597z M61.181,40.463h0.01H61.181z"/>
					</g>
				</g>
				<g>
					<g>
						<path class="st5" d="M61.181,90.965H49.972c-0.214,0-0.423-0.069-0.596-0.197c-1.271-0.943-2.455-2.009-3.517-3.169
							c-0.169-0.184-0.263-0.425-0.263-0.675v-6.437c0-0.265,0.105-0.519,0.292-0.706l9.553-9.582c0.375-0.376,1.041-0.376,1.416,0
							l5.031,5.046c0.187,0.188,0.292,0.441,0.292,0.706v14.014C62.181,90.518,61.733,90.965,61.181,90.965z M50.306,88.965h9.875
							v-12.6l-4.031-4.043L47.597,80.9v5.63C48.43,87.409,49.339,88.226,50.306,88.965z"/>
					</g>
				</g>
			</g>
			<g>
				<g>
					<g>
						<path class="st5" d="M78.036,90.965H66.82c-0.552,0-1-0.448-1-1v-8.357c0-0.405,0.244-0.77,0.618-0.924
							c0.374-0.153,0.804-0.069,1.09,0.218l2.724,2.732L80.696,73.16c0.286-0.287,0.717-0.372,1.09-0.218
							c0.374,0.155,0.618,0.52,0.618,0.924v13.061c0,0.25-0.094,0.491-0.262,0.675c-1.064,1.163-2.245,2.228-3.51,3.167
							C78.459,90.896,78.251,90.965,78.036,90.965z M67.82,88.965h9.881c0.962-0.736,1.869-1.552,2.702-2.432V76.285l-9.443,9.472
							c-0.188,0.188-0.442,0.294-0.708,0.294l0,0c-0.266,0-0.521-0.106-0.708-0.294l-1.724-1.729V88.965z"/>
					</g>
				</g>
				<g>
					<g>
						<path class="st5" d="M70.252,76.32L70.252,76.32c-0.266,0-0.521-0.106-0.708-0.294l-3.432-3.443
							c-0.187-0.188-0.292-0.441-0.292-0.706V47.39c0-0.286,0.123-0.558,0.336-0.748c0.213-0.19,0.499-0.275,0.782-0.245
							c5.828,0.697,11.227,3.475,15.203,7.823c0.169,0.184,0.262,0.425,0.262,0.675v9.241c0,0.265-0.105,0.519-0.292,0.706
							L70.96,76.026C70.773,76.214,70.518,76.32,70.252,76.32z M67.82,71.464l2.432,2.439l10.151-10.182v-8.435
							c-3.366-3.557-7.787-5.921-12.583-6.742V71.464z"/>
					</g>
				</g>
				<g>
					<g>
						<path class="st5" d="M81.404,46.816c-0.202,0-0.402-0.061-0.573-0.181c-4.165-2.914-9.041-4.701-14.102-5.167
							c-0.515-0.047-0.908-0.479-0.908-0.996V27.523c0-2.764,2.243-5.012,5-5.012h6.583c2.757,0,5,2.249,5,5.012v18.293
							c0,0.373-0.208,0.715-0.538,0.887C81.72,46.779,81.562,46.816,81.404,46.816z M67.82,39.574
							c4.458,0.543,8.759,2.046,12.583,4.392V27.523c0-1.661-1.346-3.012-3-3.012H70.82c-1.654,0-3,1.351-3,3.012V39.574z"/>
					</g>
				</g>
			</g>
			<g>
				<g>
					<g>
						<path class="st5" d="M90.214,56.298c-0.041,0-0.083-0.002-0.124-0.008c-0.307-0.038-0.579-0.216-0.736-0.482
							c-0.984-1.659-2.151-3.243-3.47-4.708c-0.165-0.184-0.256-0.422-0.256-0.669v-14.5c0-2.764,2.243-5.012,5-5.012h6.584
							c2.757,0,5,2.249,5,5.012v7.558c0,0.552-0.448,1-1,1h-5.858l2.82,2.829c0.389,0.39,0.389,1.022,0,1.412l-7.251,7.273
							C90.733,56.193,90.478,56.298,90.214,56.298z M87.628,50.051c1.015,1.155,1.942,2.377,2.769,3.647l5.657-5.674l-3.816-3.829
							c-0.286-0.286-0.371-0.716-0.215-1.089c0.155-0.374,0.519-0.617,0.923-0.617h7.267v-6.558c0-1.661-1.346-3.012-3-3.012h-6.584
							c-1.654,0-3,1.351-3,3.012V50.051z"/>
					</g>
				</g>
				<g>
					<g>
						<path class="st5" d="M101.212,90.965H87.829c-0.384,0-0.734-0.22-0.901-0.566c-0.167-0.346-0.121-0.756,0.119-1.057
							c4.212-5.29,6.438-11.666,6.438-18.437c0-2.343-0.273-4.666-0.813-6.925l-4.543,4.557c-0.39,0.39-1.023,0.392-1.414,0.002
							c-0.391-0.39-0.392-1.023-0.002-1.414l5.765-5.782c0.001-0.001,0.002-0.002,0.003-0.003l8.023-8.048
							c0.286-0.287,0.716-0.372,1.09-0.218c0.374,0.155,0.618,0.52,0.618,0.924v35.968
							C102.212,90.518,101.764,90.965,101.212,90.965z M89.823,88.965h10.389V56.417l-5.902,5.92c0.78,2.78,1.175,5.659,1.175,8.569
							C95.485,77.455,93.534,83.657,89.823,88.965z"/>
					</g>
				</g>
				<g>
					<g>
						<path class="st5" d="M86.629,78.722c-0.048,0-0.097-0.003-0.146-0.011c-0.491-0.072-0.855-0.493-0.855-0.989v-9.096
							c0-0.265,0.105-0.519,0.292-0.706l0.792-0.795c0.27-0.271,0.67-0.362,1.03-0.241c0.361,0.123,0.621,0.44,0.67,0.818
							c0.141,1.091,0.213,2.169,0.213,3.203c0,2.409-0.35,4.799-1.039,7.103C87.458,78.437,87.064,78.722,86.629,78.722z"/>
					</g>
				</g>
			</g>
			<g>
				<g>
					<path class="st5" d="M121.435,90.965h-14.583c-0.552,0-1-0.448-1-1V65.796c0-2.764,2.243-5.012,5-5.012h6.583
						c2.757,0,5,2.249,5,5.012v24.169C122.435,90.518,121.987,90.965,121.435,90.965z M107.852,88.965h12.583V65.796
						c0-1.661-1.346-3.012-3-3.012h-6.583c-1.654,0-3,1.351-3,3.012V88.965z"/>
				</g>
			</g>
		</g>
		<g>
			<g>
				<g>
					<path class="st5" d="M12.226,21.89c-0.552,0-1-0.448-1-1c0-2.976,1.155-5.774,3.253-7.878c2.099-2.105,4.889-3.264,7.858-3.264
						s5.759,1.159,7.858,3.264c0.39,0.391,0.389,1.024-0.002,1.414c-0.391,0.39-1.024,0.389-1.414-0.002
						c-1.721-1.726-4.009-2.676-6.442-2.676s-4.721,0.95-6.442,2.676c-1.721,1.727-2.669,4.023-2.669,6.466
						C13.226,21.442,12.778,21.89,12.226,21.89z"/>
				</g>
			</g>
			<g>
				<g>
					<path class="st5" d="M22.337,32.033c-2.969,0-5.759-1.159-7.858-3.265c-0.39-0.391-0.389-1.024,0.002-1.414
						c0.391-0.39,1.024-0.389,1.414,0.002c1.721,1.726,4.009,2.677,6.442,2.677s4.721-0.951,6.442-2.677
						c1.722-1.727,2.67-4.023,2.67-6.466c0-0.552,0.448-1,1-1s1,0.448,1,1c0,2.976-1.156,5.773-3.254,7.878
						C28.096,30.874,25.306,32.033,22.337,32.033z"/>
				</g>
			</g>
			<g>
				<g>
					<path class="st5" d="M16.134,34.281c-0.474,0-0.895-0.338-0.983-0.821l-0.948-5.219c-0.099-0.543,0.261-1.063,0.804-1.163
						l5.203-0.951c0.542-0.093,1.064,0.262,1.164,0.804c0.099,0.543-0.261,1.064-0.804,1.164l-4.22,0.771l0.769,4.236
						c0.099,0.543-0.262,1.064-0.805,1.163C16.253,34.276,16.193,34.281,16.134,34.281z"/>
				</g>
			</g>
			<g>
				<g>
					<path class="st5" d="M24.284,15.669c-0.474,0-0.895-0.337-0.983-0.82c-0.099-0.543,0.261-1.064,0.804-1.164l4.219-0.771
						l-0.769-4.235c-0.099-0.543,0.262-1.064,0.805-1.163c0.547-0.096,1.063,0.262,1.163,0.805l0.948,5.218
						c0.099,0.543-0.261,1.063-0.804,1.163l-5.202,0.951C24.404,15.664,24.343,15.669,24.284,15.669z"/>
				</g>
			</g>
		</g>
	</g>
</g>
</svg>
